<svg version="1.1" id="Layer_1" xmlns="http://www.w3.org/2000/svg" xmlns:xlink="http://www.w3.org/1999/xlink" x="0" y="0" viewBox="0 0 610 410" xml:space="preserve"><style>.st0{fill:#fff}.st4{fill:#fcfdfe}.st7{fill:#beb8f2}.st15{fill:#d8dee8}.st19{fill:#97a6b7}.st31{fill:#26264f}</style><path class="st0" d="M56.98-56H561v504.02H56.98z"/><path d="M318.57 5.9C217.25 3.04 129.48 73.21 116.22 165.28c-14.5 100.67 65.3 191.24 163.48 205.75 122.12 18.04 240.58-86.34 229.94-199.59C501.63 86.12 421.57 8.8 318.57 5.9z" fill="#f4f7fa"/><linearGradient id="SVGID_1_" gradientUnits="userSpaceOnUse" x1="1987.707" y1="-199.002" x2="2063.494" y2="-74.237" gradientTransform="rotate(-4.56 5230.188 23133.103)"><stop offset="0" stop-color="#ff9085"/><stop offset="1" stop-color="#fb6fbb"/></linearGradient><path d="M199.9 241.78c.13.05.27.09.4.14 7.95 2.72 17.13 4.28 27.68 3.87 2.05-.22 4.1-.45 6.15-.67 1.35-5.01 1.74-10.02-4.66-11.45-9.95-2.21-11.41-19.32-9.18-25.57 2.76-7.74 8.83-25.88-6.49-29.54-12.76-3.05-21.61-2.41-23.64-18.4-2.03-16-11.51-25.38-26.01-23.38-15.25 2.11-29.29-17.39-41.35-9.66-21.02 13.46 1.34 47.42 28.68 55.76 27.34 8.34 12.77 19.02 13 32.22.31 18.01 24.29 12.43 31.2 19.02 2.36 2.23 3.61 4.93 4.22 7.66z" fill="url(#SVGID_1_)"/><defs><path id="SVGID_2_" d="M199.9 251.72l33.37-2.66c1.57-4.88 3.35-13.79-3.8-15.38-9.95-2.21-11.41-19.32-9.18-25.57 2.76-7.74 8.83-25.88-6.49-29.54-12.76-3.05-21.61-2.41-23.64-18.4-2.03-16-11.51-25.38-26.01-23.38-15.25 2.11-29.29-17.39-41.35-9.66-21.02 13.46 1.34 47.42 28.68 55.76 27.34 8.34 12.77 19.02 13 32.22.31 18.01 24.29 12.43 31.2 19.02 5.44 5.15 5.05 12.84 4.22 17.59z"/></defs><clipPath id="SVGID_3_"><use xlink:href="#SVGID_2_" overflow="visible"/></clipPath><g opacity=".5" clip-path="url(#SVGID_3_)"><path class="st4" d="M215.2 245.22l.7-.2c-14.35-51.06-53.41-94.91-101.94-114.43l-.27.67c48.32 19.44 87.22 63.11 101.51 113.96z"/><path class="st4" d="M204.99 218.05l.72-.05c-1.57-20.79 15.01-38.33 15.18-38.5l-.52-.5c-.17.17-16.97 17.94-15.38 39.05zm7.31 17.85l.61-.39c-11.4-17.79-49.89-17.53-50.28-17.53l.01.73c.39-.01 38.48-.27 49.66 17.19zm-36.4-60.94l.64-.34c-7.81-14.84.42-39.19.51-39.43l-.69-.24c-.08.25-8.41 24.9-.46 40.01zm-24.91-22.67l.33-.64c-16.98-8.75-41.7-1.35-41.95-1.27l.21.69c.25-.08 24.69-7.4 41.41 1.22z"/></g><defs><path id="SVGID_4_" d="M220.81 266.14l-35.98-.12s-6.71-18.48 2.15-31.47c18.08-26.51-6.4-40.49-15.78-47.89-14.14-11.15-21.74-27.14-.87-34.01 20.87-6.88.03-39.26-25.4-53.97-24.89-14.39-13.67-66.94 43.06-40.74 33.88 15.65 28.44 51.61 30.01 70.42 1.57 18.81 29.53 20.46 19.88 43.4-8.24 19.6-23.83 33.85-12.02 47.38 11.82 13.54 13 28.67-5.05 47z"/></defs><clipPath id="SVGID_5_"><use xlink:href="#SVGID_4_" overflow="visible"/></clipPath><linearGradient id="SVGID_6_" gradientUnits="userSpaceOnUse" x1="806.673" y1="82.189" x2="735.054" y2="285.74" gradientTransform="matrix(-1 -.0034 -.0034 1 964.805 -22.905)"><stop offset="0" stop-color="#ffc444"/><stop offset=".996" stop-color="#f36f56"/></linearGradient><path d="M220.81 266.14l-35.98-.12s-6.71-18.48 2.15-31.47c18.08-26.51-6.4-40.49-15.78-47.89-14.14-11.15-20.34-25.51-3.26-34.75 19.33-10.46 2.42-38.53-23.02-53.24-24.89-14.39-13.67-66.94 43.06-40.74 33.88 15.65 28.44 51.61 30.01 70.42 1.57 18.81 29.53 20.46 19.88 43.4-8.24 19.6-23.83 33.85-12.02 47.38 11.83 13.55 13.01 28.68-5.04 47.01z" clip-path="url(#SVGID_5_)" fill="url(#SVGID_6_)"/><g opacity=".5" clip-path="url(#SVGID_5_)"><path class="st7" d="M205.22 269.43l-.75-.14c.09-.46 8.57-46.79 3.13-95.25-5.01-44.65-23.21-100.29-81.44-111.85l.15-.74c25.92 5.14 46.2 19.3 60.27 42.08 11.24 18.19 18.57 41.89 21.77 70.45 5.46 48.56-3.04 94.99-3.13 95.45z"/><path class="st7" d="M192.06 113.3l-.75-.1c3.21-25.07-6.23-60.74-6.32-61.1l.73-.2c.1.37 9.57 36.18 6.34 61.4zm-9.79-14.92c-25.51-16.02-49.43-8.45-49.66-8.38l-.24-.72c.24-.08 24.48-7.76 50.3 8.45l-.4.65zm27.17 107.54c-8.37-35.84-57.04-44.78-57.52-44.83l.02-.76c.48 0 49.79 9.26 58.24 45.42l-.74.17zm.28-15.18l-.74-.16c4.86-22.97 29.85-38.71 30.1-38.87l.4.65c-.24.16-24.97 15.73-29.76 38.38zm-4.07 71.23c-1.05-13.94-20.91-25.04-21.11-25.15l.37-.66c.83.46 20.42 11.41 21.5 25.76l-.76.05zm2.16-10.94l-.75-.13c1.9-10.89 18.41-22.97 23.83-26.94.77-.56 1.43-1.05 1.53-1.15l.57.51c-.14.16-.58.48-1.65 1.26-5.36 3.91-21.69 15.86-23.53 26.45z"/></g><linearGradient id="SVGID_7_" gradientUnits="userSpaceOnUse" x1="-1986.735" y1="-81.203" x2="-1897.498" y2="153.273" gradientTransform="scale(-1 1) rotate(-3.744 641.5 -23640.554)"><stop offset="0" stop-color="#aa80f9"/><stop offset=".996" stop-color="#6165d7"/></linearGradient><path d="M390.64 213.38c3.96 8.55.19 17.11-3.44 22.86-.86.01-1.37.24-2.24.46-7.88 1.92-11.57.94-19.58 1.52-1.72.12-6.84-1.16-8.9-1.83l-3.81-1.32s-6.77-20.8 3.87-26.55 6.56-26.45 5.67-37.74c-2.42-30.63 30.68-27.85 30.72-67.46.01-10.54-3.49-30.63 5.39-39.02 10.12-9.56 17.51-.18 24.01-8.18C432.5 43.62 449 39.14 458.84 52c9.71 12.69-2.09 37.96-31.42 58.26-19.39 16.95-19.69 22.03-18.17 34.38 1.07 8.66 9.33 31.2-2.42 40.21-11.74 9.02-20.72 18.75-16.19 28.53z" fill="url(#SVGID_7_)"/><defs><path id="SVGID_8_" d="M382.09 243.24l-28.78-7.41s-7.41-21.56 3.23-27.3c10.64-5.75 6.56-26.45 5.67-37.74-2.42-30.63 30.68-27.85 30.72-67.46.01-10.54-3.49-30.63 5.39-39.02 10.12-9.56 17.51-.18 24.01-8.18 10.17-12.5 26.67-16.98 36.51-4.12 9.71 12.69-2.09 37.96-31.42 58.26-19.39 16.95-19.69 22.03-18.17 34.38 1.07 8.66 9.33 31.2-2.42 40.21-11.75 9-20.73 18.73-16.2 28.51 6.89 14.88-8.54 29.87-8.54 29.87z"/></defs><clipPath id="SVGID_9_"><use xlink:href="#SVGID_8_" overflow="visible"/></clipPath><g opacity=".5" clip-path="url(#SVGID_9_)"><path class="st4" d="M369.55 238.54l-.58-.07c.43-3.48.92-6.99 1.43-10.42 3.81-25.43 9.85-49.58 17.97-71.78 6.87-18.81 15.33-36.5 25.12-52.56 7.88-12.92 16.66-24.86 26.11-35.5 6.64-7.48 13.54-14.24 20.5-20.09 1.21-1.02 2.51-2 3.77-2.94 1.67-1.26 3.4-2.56 4.94-3.97l.4.43c-1.56 1.44-3.3 2.74-4.99 4.01-1.25.94-2.54 1.91-3.74 2.92-6.94 5.84-13.82 12.57-20.44 20.03-9.42 10.61-18.19 22.52-26.05 35.41-9.77 16.03-18.21 33.68-25.07 52.46-8.1 22.17-14.13 46.28-17.94 71.67-.51 3.42-.99 6.92-1.43 10.4z"/><path class="st4" d="M402.88 124.04l-.53-.25c10.74-22.89 1.31-65.18 1.21-65.61l.57-.13c.1.43 9.58 42.91-1.25 65.99zm-24.43 66.66l-.56-.19c5.48-16.41 36.2-29.08 36.51-29.2l.22.55c-.3.12-30.78 12.69-36.17 28.84zm-2.3 9.58l-.58-.09c1.63-11.18-2.13-27.29-10.57-45.36-.42-.91-.42-.91-.41-1.02l.58.08-.29-.04.28-.07c.02.06.18.41.37.8 8.49 18.19 12.26 34.42 10.62 45.7zm-5.71 31.91l-.53-.25c5.24-11.28 23.14-15.74 23.32-15.78l.14.57c-.18.05-17.82 4.44-22.93 15.46zm-1.78 6.39c-2.22-9.78-7.32-19.25-15.6-28.93l.45-.38c8.34 9.76 13.48 19.31 15.72 29.19l-.57.12zm65.91-163.63l-.52-.28c6.68-12.39 10.83-26.96 12.19-31.75.33-1.16.45-1.57.51-1.7l.53.26c-.05.1-.24.77-.48 1.6-1.36 4.8-5.51 19.42-12.23 31.87zm-13.84 18.54l-.41-.42c9.41-9.26 35.81-8.97 36.93-8.95l-.01.59c-.27 0-27.27-.31-36.51 8.78z"/></g><defs><path id="SVGID_10_" d="M343.91 287.46l34.33 10.76s11.98-15.58 7.46-30.65c-9.22-30.74 18.35-36.66 29.52-40.87 16.85-6.35 28.93-19.29 11.11-32.16-17.82-12.87 11.84-37.43 40.53-43.77 28.08-6.19 33.26-59.68-28.73-51.85-37.02 4.68-42.71 40.59-49.9 58.05s-34.34 10.58-32.08 35.36c1.93 21.17 12.48 39.47-2.87 48.8-15.34 9.33-21.03 23.39-9.37 46.33z"/></defs><clipPath id="SVGID_11_"><use xlink:href="#SVGID_10_" overflow="visible"/></clipPath><linearGradient id="SVGID_12_" gradientUnits="userSpaceOnUse" x1="3602.777" y1="-310.598" x2="3531.155" y2="-107.042" gradientTransform="rotate(17.408 671.113 -10344.748)"><stop offset=".004" stop-color="#e38ddd"/><stop offset="1" stop-color="#9571f6"/></linearGradient><path d="M343.91 287.46l34.33 10.76s11.98-15.58 7.46-30.65c-9.22-30.74 18.35-36.66 29.52-40.87 16.85-6.35 27.1-18.16 13.61-32.14-15.26-15.81 9.34-37.46 38.03-43.79 28.08-6.19 33.26-59.68-28.73-51.85-37.02 4.68-42.71 40.59-49.9 58.05s-34.34 10.58-32.08 35.36c1.93 21.17 12.48 39.47-2.87 48.8-15.34 9.33-21.03 23.39-9.37 46.33z" clip-path="url(#SVGID_11_)" fill="url(#SVGID_12_)"/><g opacity=".5" clip-path="url(#SVGID_11_)"><path class="st7" d="M357.77 295.3l.75.09c.06-.47 5.98-47.19 25.81-91.74 18.27-41.04 52.44-88.58 111.44-81.99l.08-.75c-26.26-2.93-49.87 4.43-70.17 21.88-16.22 13.94-30.36 34.32-42.05 60.57-19.87 44.65-25.8 91.47-25.86 91.94z"/><path class="st7" d="M417.52 150.45l.75.14c4.52-24.87 24.3-56.01 24.5-56.32l-.64-.41c-.2.31-20.06 31.58-24.61 56.59zm13.85-11.26c29.16-7.55 49.67 6.88 49.87 7.03l.44-.62c-.21-.15-20.99-14.8-50.51-7.15l.2.74zm-58.41 94.3c18.81-31.63 67.91-25.44 68.38-25.34l.21-.73c-.46-.14-50.26-6.23-69.24 25.68l.65.39zm4.31-14.55l.76.07c2.31-23.37-16.75-45.92-16.95-46.15l-.58.49c.2.23 19.05 22.54 16.77 45.59zm-17.65 69.12c5.21-12.97 27.5-17.55 27.73-17.6l-.15-.74c-.93.19-22.92 4.7-28.28 18.06l.7.28zm1.25-11.08l.75.1c1.48-10.95-10.6-27.46-14.57-32.89-.56-.77-1.05-1.43-1.11-1.56l-.69.31c.09.19.41.63 1.19 1.7 3.93 5.37 15.87 21.69 14.43 32.34z"/></g><linearGradient id="SVGID_13_" gradientUnits="userSpaceOnUse" x1="986.759" y1="5.329" x2="1062.547" y2="130.095" gradientTransform="scale(-1 1) rotate(1.301 -7488.937 -61950.545)"><stop offset="0" stop-color="#ffc444"/><stop offset=".996" stop-color="#f36f56"/></linearGradient><path d="M376.41 296.15l-.39.18c-7.64 3.52-16.6 6.01-27.14 6.68-2.06-.01-4.13-.03-6.19-.04-1.86-4.85-2.76-9.79 3.47-11.86 9.67-3.22 9.38-20.38 6.52-26.37-3.54-7.41-11.43-24.84 3.44-30.05 12.38-4.34 21.25-4.6 21.63-20.72.38-16.12 8.86-26.43 23.48-25.92 15.39.54 27.36-20.29 40.15-13.84 22.29 11.24 3.51 47.31-22.84 58.4-26.35 11.09-10.76 20.23-9.64 33.38 1.53 17.95-22.89 14.85-29.1 22.11-2.1 2.45-3.07 5.27-3.39 8.05z" fill="url(#SVGID_13_)"/><defs><path id="SVGID_14_" d="M377.42 306.04l-33.47.76c-2.06-4.69-4.75-13.38 2.21-15.69 9.67-3.22 9.38-20.38 6.52-26.37-3.54-7.41-11.43-24.84 3.44-30.05 12.38-4.34 21.25-4.6 21.63-20.72.38-16.12 8.86-26.43 23.48-25.92 15.39.54 27.36-20.29 40.15-13.84 22.29 11.24 3.51 47.31-22.84 58.4-26.35 11.09-10.76 20.23-9.64 33.38 1.53 17.95-22.89 14.85-29.1 22.11-4.86 5.69-3.69 13.3-2.38 17.94z"/></defs><clipPath id="SVGID_15_"><use xlink:href="#SVGID_14_" overflow="visible"/></clipPath><g opacity=".5" clip-path="url(#SVGID_15_)"><path class="st4" d="M361.54 301.13l-.71-.12c9.06-52.26 43.44-99.87 89.73-124.24l.34.64c-46.1 24.27-80.34 71.68-89.36 123.72z"/><path class="st4" d="M368.92 273.06l-.73.02c-.56-20.84-18.84-36.6-19.03-36.75l.47-.55c.19.15 18.71 16.12 19.29 37.28zm-5.45 18.5l-.65-.33c9.53-18.86 47.84-22.54 48.23-22.57l.07.72c-.39.04-38.31 3.68-47.65 22.18zm29.98-64.33l-.67-.27c6.25-15.55-4.42-38.94-4.53-39.17l.66-.31c.11.23 10.91 23.9 4.54 39.75zm22.47-25.1l-.4-.61c16-10.44 41.34-5.6 41.6-5.55l-.14.71c-.25-.04-25.31-4.83-41.06 5.45z"/></g><linearGradient id="SVGID_16_" gradientUnits="userSpaceOnUse" x1="185.194" y1="222.363" x2="409.837" y2="222.363"><stop offset="0" stop-color="#444b8c"/><stop offset=".996" stop-color="#26264f"/></linearGradient><path d="M403.01 91.9L194.33 79.83c-4.81-.23-9.13 5.01-9.13 9.41v268.72c0 6.11 6.24 7.34 11.05 6.85l206.77-21.12c3.78-.39 6.83-3.84 6.83-7.72V99.26c-.01-3.88-3.06-7.18-6.84-7.36z" fill="url(#SVGID_16_)"/><path class="st15" d="M406.44 89.77l-209.1-10.29c-4.81-.24-8.72 3.17-8.72 7.61v270.82c0 4.44 3.91 7.63 8.72 7.14l209.1-21.52c3.78-.39 6.83-3.87 6.83-7.78V97.18c0-3.91-3.05-7.23-6.83-7.41z"/><linearGradient id="SVGID_17_" gradientUnits="userSpaceOnUse" x1="192.64" y1="222.272" x2="410.142" y2="222.272"><stop offset=".004" stop-color="#e38ddd"/><stop offset="1" stop-color="#9571f6"/></linearGradient><path d="M197.35 361.37c-2.59.26-4.71-1.47-4.71-3.86V87.27c0-2.39 2.11-4.24 4.71-4.12l209.1 9.88c2.04.1 3.7 1.9 3.7 4.01v239.01c0 2.12-1.66 4-3.7 4.21l-209.1 21.11z" opacity=".3" fill="url(#SVGID_17_)"/><path class="st0" d="M392.97 333.85l-178.84 17.23V101.76l178.84 6.74z"/><path d="M321.44 109.72l-71.47.89 1.6-16.12c.12-2.09 1.64-3.81 3.63-4.12l12.1-1.86c1.43-.22 2.65-1.16 3.28-2.51l1.31-2.85 31.66 1.96 17.89 24.61z" opacity=".3" fill="#97a6b7"/><linearGradient id="SVGID_18_" gradientUnits="userSpaceOnUse" x1="249.961" y1="84.767" x2="362.324" y2="84.767"><stop offset="0" stop-color="#444b8c"/><stop offset=".996" stop-color="#26264f"/></linearGradient><path d="M359.6 99.26c-.34-1.82-1.8-3.1-3.64-3.19l-11.42-.51c-5.18-.23-8.98-4.44-8.79-9.78l.44-12.36c.08-2.29-1.55-4.12-3.79-4.25l-3.75-.22c-2.86-.17-4.77-2.69-4.37-5.61.7-5.1-2.79-9.5-7.85-9.84-5.1-.35-9.86 3.55-10.62 8.71-.11.77-.37 1.53-.79 2.2-1.18 1.89-3.24 2.93-5.27 2.81l-3.87-.23c-2.35-.14-4.57 1.51-5.17 3.82l-3.22 12.55c-1.39 5.43-6.64 9.35-12.22 9.1l-12.53-.56c-2.05-.09-4.07 1.1-5.01 2.98l-7.55 14.98c-.62 1.23.14 2.55 1.49 2.6l108.65 3.61c1.19.04 2.2-1.15 1.98-2.32l-2.7-14.49zm-44.72-35.07c-1.5-.09-2.54-1.39-2.32-2.91.22-1.51 1.61-2.66 3.1-2.56 1.49.1 2.53 1.4 2.31 2.91-.21 1.51-1.59 2.66-3.09 2.56z" fill="url(#SVGID_18_)"/><path class="st19" d="M360.25 99.59c-.34-1.82-1.8-3.1-3.64-3.19l-11.42-.51c-5.18-.23-8.98-4.44-8.79-9.78l.44-12.36c.08-2.29-1.55-4.12-3.79-4.25l-3.75-.22c-2.86-.17-4.77-2.69-4.37-5.61.7-5.1-2.79-9.5-7.85-9.84-5.1-.35-9.86 3.55-10.62 8.71-.11.77-.37 1.53-.79 2.2-1.18 1.89-3.24 2.93-5.27 2.81l-3.87-.23c-2.35-.14-4.57 1.51-5.17 3.82l-3.22 12.55c-1.39 5.43-6.64 9.35-12.22 9.1l-12.53-.56c-2.05-.09-4.07 1.1-5.01 2.98l-7.55 14.98c-.62 1.23.14 2.55 1.49 2.6l108.65 3.61c1.19.04 2.2-1.15 1.98-2.32l-2.7-14.49zm-44.72-35.06c-1.5-.09-2.54-1.39-2.32-2.91.22-1.51 1.61-2.66 3.1-2.56 1.49.1 2.53 1.4 2.31 2.91-.21 1.5-1.6 2.65-3.09 2.56z"/><path d="M341.65 106.48c-9.69-5.98-17.13-1.74-23.17-8.49-6.47-7.22-2.1-16.73-8.8-21.22-4.28-2.87-8.1-.34-13.09-1.12-1.82-.28-3.77-1.01-5.79-2.42l-2.68 10.46c-1.39 5.43-6.64 9.35-12.22 9.1l-12.53-.56c-2.05-.09-4.07 1.1-5.01 2.98l-7.55 14.98c-.62 1.23.14 2.55 1.49 2.6l98.74 3.28c-2.48-3.96-5.57-7.23-9.39-9.59z" opacity=".5" fill="#fff"/><path class="st15" d="M375.53 140.69l-138.51-.84v-8.22l138.51 1.14zm0 13.87l-138.51-.31v-8.23l138.51.62zm0 13.87l-138.51.22v-8.23l138.51.09zm0 13.87l-138.51.75v-8.23l138.51-.44zm-23.43 22.85l-117.15 2.82v-8.56l117.15-2.29zm0 14.06l-117.15 3.76v-8.57l117.15-3.22zm0 14.06l-117.15 4.69v-8.56l117.15-4.16zm0 14.05l-117.15 5.64v-8.57l117.15-5.1zm23.43-42.73l-15.42.37v-8l15.42-.3zm0 13.87l-15.42.49v-7.99l15.42-.43zm0 13.87l-15.42.61v-7.99l15.42-.55zm0 13.87l-15.42.74v-8l15.42-.67zm-23.43 23.94l-117.15 7.15v-8.56l117.15-6.62zm0 14.05l-117.15 8.1v-8.57l117.15-7.56zm0 14.06l-117.15 9.03v-8.56l117.15-8.5zm0 14.06l-117.15 9.97v-8.57l117.15-9.43zm23.43-43.6l-15.42.94v-8l15.42-.87zm0 13.87l-15.42 1.06v-7.99l15.42-1zm0 13.87l-15.42 1.18v-7.99l15.42-1.12zm0 13.87l-15.42 1.31v-8l15.42-1.24z"/><linearGradient id="SVGID_19_" gradientUnits="userSpaceOnUse" x1="128.882" y1="254.13" x2="469.581" y2="254.13"><stop offset="0" stop-color="#444b8c"/><stop offset=".996" stop-color="#26264f"/></linearGradient><path d="M452.1 205.11l-293.46-7.38c-16.27-.41-29.76 11.86-29.76 27.4v58.93c0 15.55 13.48 27.36 29.76 26.4L452.1 293.2c9.73-.57 17.48-10.5 17.48-22.19v-44.3c0-11.68-7.75-21.35-17.48-21.6z" fill="url(#SVGID_19_)"/><path class="st19" d="M455.31 205.11l-293.46-7.38c-16.27-.41-29.76 11.86-29.76 27.4v58.93c0 15.55 13.48 27.36 29.76 26.4l293.46-17.26c9.73-.57 17.48-10.5 17.48-22.19v-44.3c0-11.68-7.76-21.35-17.48-21.6z"/><linearGradient id="SVGID_20_" gradientUnits="userSpaceOnUse" x1="211.817" y1="386.884" x2="359.366" y2="162.986"><stop offset=".004" stop-color="#ebeff2"/><stop offset="1" stop-color="#fff"/></linearGradient><path d="M161.85 306.8c-14.06.79-25.71-9.47-25.71-22.88v-58.76c0-13.41 11.66-24.07 25.71-23.75l293.46 6.57c8.43.19 15.18 8.59 15.18 18.72v44.4c0 10.14-6.76 18.76-15.18 19.23L161.85 306.8z" fill="url(#SVGID_20_)"/><path class="st15" d="M200.9 224.3l8.36 16.56c.31.61.9 1.03 1.59 1.12l18.27 2.46c1.68.23 2.35 2.27 1.13 3.47l-13.15 12.94c-.49.48-.72 1.17-.6 1.84l3.13 17.93c.29 1.67-1.49 3.02-3.02 2.29l-16.64-7.97c-.62-.3-1.37-.27-2 .07l-17.13 9.33c-1.62.88-3.52-.36-3.21-2.11l3.32-18.67c.12-.69-.11-1.39-.63-1.86l-14.2-12.96c-1.34-1.22-.6-3.39 1.25-3.67l19.51-2.89c.71-.11 1.33-.54 1.64-1.17l8.52-16.73c.8-1.56 3.08-1.54 3.86.02z"/><linearGradient id="SVGID_21_" gradientUnits="userSpaceOnUse" x1="311.752" y1="209.923" x2="227.503" y2="295.878"><stop offset="0" stop-color="#ffc444"/><stop offset=".996" stop-color="#f36f56"/></linearGradient><path d="M267.79 224.66l7.53 15.71c.28.58.81.98 1.43 1.06l16.47 2.34c1.51.22 2.12 2.16 1.02 3.29l-11.85 12.28a2.03 2.03 0 00-.54 1.74l2.82 17.02c.26 1.58-1.35 2.87-2.73 2.17l-14.99-7.59c-.56-.28-1.23-.26-1.8.06l-15.4 8.81c-1.46.83-3.16-.35-2.88-2.01l2.99-17.69c.11-.65-.1-1.31-.57-1.76l-12.75-12.29c-1.2-1.16-.54-3.21 1.12-3.47l17.53-2.73c.64-.1 1.19-.51 1.48-1.1l7.66-15.86c.7-1.46 2.75-1.45 3.46.02z" fill="url(#SVGID_21_)"/><linearGradient id="SVGID_22_" gradientUnits="userSpaceOnUse" x1="342.207" y1="239.676" x2="259.774" y2="323.778"><stop offset="0" stop-color="#ffc444"/><stop offset=".996" stop-color="#f36f56"/></linearGradient><path d="M328.14 225l6.81 14.95c.25.55.74.93 1.3 1.01l14.92 2.24c1.37.21 1.92 2.06.93 3.14l-10.74 11.68c-.4.44-.59 1.06-.49 1.66l2.56 16.21c.24 1.51-1.22 2.72-2.47 2.06l-13.57-7.25c-.51-.27-1.12-.25-1.63.05l-13.93 8.35c-1.32.79-2.86-.34-2.61-1.91l2.7-16.81c.1-.62-.09-1.25-.52-1.68L299.89 247c-1.09-1.1-.49-3.05 1.01-3.3l15.83-2.59c.58-.09 1.08-.49 1.34-1.05l6.93-15.09c.65-1.39 2.5-1.38 3.14.03z" fill="url(#SVGID_22_)"/><linearGradient id="SVGID_23_" gradientUnits="userSpaceOnUse" x1="384.855" y1="246.037" x2="299.479" y2="388.66"><stop offset="0" stop-color="#ffc444"/><stop offset=".996" stop-color="#f36f56"/></linearGradient><path d="M382.88 225.3l6.2 14.25c.23.53.67.89 1.18.97l13.58 2.14c1.25.2 1.75 1.96.85 2.99l-9.78 11.14c-.37.42-.53 1.01-.45 1.58l2.33 15.46c.22 1.44-1.11 2.6-2.25 1.96l-12.34-6.93c-.46-.26-1.02-.24-1.48.05l-12.65 7.94c-1.19.75-2.59-.33-2.37-1.83l2.45-16.02c.09-.59-.08-1.19-.47-1.6l-10.45-11.15c-.99-1.05-.44-2.91.92-3.14l14.37-2.46c.53-.09.98-.46 1.21-1l6.3-14.38c.59-1.32 2.27-1.31 2.85.03z" fill="url(#SVGID_23_)"/><path class="st15" d="M432.75 225.57l5.66 13.62c.21.5.61.85 1.08.92l12.42 2.05c1.14.19 1.6 1.88.77 2.86l-8.94 10.64c-.33.4-.49.96-.41 1.51l2.13 14.79c.2 1.38-1.01 2.48-2.05 1.87l-11.27-6.64c-.42-.25-.93-.23-1.35.04l-11.54 7.56c-1.09.71-2.37-.32-2.16-1.75l2.23-15.29c.08-.57-.08-1.14-.43-1.53l-9.53-10.65c-.9-1-.4-2.78.84-3l13.1-2.34c.48-.09.89-.44 1.11-.95l5.75-13.74c.53-1.25 2.06-1.24 2.59.03z"/><path class="st19" d="M414.49 254.02c-36.43-9.3-61.25 40.24-104.89 30.27-38.55-8.8-39.64-50.19-86.37-79.59-3.24-2.04-6.54-3.93-9.9-5.67l-51.49-1.29c-16.27-.41-29.76 11.86-29.76 27.4v58.93c0 15.55 13.48 27.36 29.76 26.4l291.6-17.15c-13.16-26.81-27.17-36.29-38.95-39.3z" opacity=".1"/><linearGradient id="SVGID_24_" gradientUnits="userSpaceOnUse" x1="207.723" y1="219.169" x2="154.124" y2="377.932"><stop offset="0" stop-color="#ffc444"/><stop offset=".996" stop-color="#f36f56"/></linearGradient><path d="M200.9 224.3l8.36 16.56c.31.61.9 1.03 1.59 1.12l18.27 2.46c1.68.23 2.35 2.27 1.13 3.47l-13.15 12.94c-.49.48-.72 1.17-.6 1.84l3.13 17.93c.29 1.67-1.49 3.02-3.02 2.29l-16.64-7.97c-.62-.3-1.37-.27-2 .07l-17.13 9.33c-1.62.88-3.52-.36-3.21-2.11l3.32-18.67c.12-.69-.11-1.39-.63-1.86l-14.2-12.96c-1.34-1.22-.6-3.39 1.25-3.67l19.51-2.89c.71-.11 1.33-.54 1.64-1.17l8.52-16.73c.8-1.56 3.08-1.54 3.86.02z" fill="url(#SVGID_24_)"/><linearGradient id="SVGID_25_" gradientUnits="userSpaceOnUse" x1="357.315" y1="194.809" x2="352.483" y2="202.624"><stop offset="0" stop-color="#ffc444"/><stop offset=".996" stop-color="#f36f56"/></linearGradient><path d="M357.06 202.78c.49-.76 1.39-2.38 1.44-4.55.11-4.22-3.02-7.51-3.44-7.32-.23.1.06 1.34.22 1.89.34 1.14.7 1.25.67 1.78-.06 1.08-1.62 1.12-2.44 2.55-.59 1.03-.64 2.5 0 3.66 1.06 1.92 3.45 1.99 3.55 1.99z" fill="url(#SVGID_25_)"/><linearGradient id="SVGID_26_" gradientUnits="userSpaceOnUse" x1="426.131" y1="287.31" x2="428.082" y2="291.321"><stop offset="0" stop-color="#ffc444"/><stop offset=".996" stop-color="#f36f56"/></linearGradient><path fill="url(#SVGID_26_)" d="M423.94 294.47l-1.2-4.14 5.02-3.72 3.13-1.17-1.85 5.79z"/><linearGradient id="SVGID_27_" gradientUnits="userSpaceOnUse" x1="-828.399" y1="389.473" x2="-828.399" y2="376.887" gradientTransform="translate(1249.563)"><stop offset="0" stop-color="#ffc444"/><stop offset=".996" stop-color="#f36f56"/></linearGradient><path d="M417.72 377.87s2.75 6.91 2.02 9.98c2.95-.06 4.86-.43 4.86-.43s-1.19-3.15-1.42-4.71c-.31-2.11-.29-5.52-.29-5.52l-5.17.68z" fill="url(#SVGID_27_)"/><path class="st31" d="M387.43 394.04c.18.21.49.66.52 1.27.01.33-.06.6-.16.85-.47 1.23-1.2 1.4-2 2.7-.49.8-.39 1.04-.84 1.4-.59.48-1.29.5-1.91.51-1.04.01-2.53-.03-4.41-.25.99-1.27 2.04-2.56 3.15-3.87.49-.57.98-1.13 1.46-1.68l2.9-.98c.44.03.86.04 1.29.05z"/><linearGradient id="SVGID_28_" gradientUnits="userSpaceOnUse" x1="-866.76" y1="393.06" x2="-866.76" y2="377.892" gradientTransform="translate(1249.563)"><stop offset="0" stop-color="#ffc444"/><stop offset=".996" stop-color="#f36f56"/></linearGradient><path d="M385.02 379.97s-1.66 8.65.45 11.07c1.8 2.42-.87.69-.87.69l-3.18 2.78-1.91 3.3s1.76-8.46 1.29-11.82c-.47-3.36-.7-5.62-.7-5.62l4.92-.4z" fill="url(#SVGID_28_)"/><linearGradient id="SVGID_29_" gradientUnits="userSpaceOnUse" x1="-875.246" y1="333.478" x2="-825.622" y2="333.478" gradientTransform="translate(1249.563)"><stop offset="0" stop-color="#311944"/><stop offset="1" stop-color="#893976"/></linearGradient><path d="M378.77 285.37s-4.45 3.98-4.45 20.39c0 16.4 2.11 52.03 2.11 52.03l3.38 25.5s3.5.12 5.84-.58c2.11-9.61 5.55-25.86 3.91-39.45-.7-14.76 5.86-33.28 5.86-33.28s5.62 18.75 9.61 28.12c3.98 9.37 11.57 38.74 12.27 40.85 4.66.42 6.65-.81 6.65-.81s-2.99-31.6-5.8-43.55c-2.81-11.95-2.58-40.78-7.26-48.98-10.56-4.23-32.12-.24-32.12-.24z" fill="url(#SVGID_29_)"/><linearGradient id="SVGID_30_" gradientUnits="userSpaceOnUse" x1="-876.823" y1="296.486" x2="-841.072" y2="356.534" gradientTransform="translate(1249.563)"><stop offset="0" stop-color="#311944"/><stop offset="1" stop-color="#893976"/></linearGradient><path d="M378.77 285.37s-4.45 3.98-4.45 20.39c0 16.4 2.11 52.03 2.11 52.03l3.38 25.5s3.5.12 5.84-.58c2.11-9.61 5.55-25.86 3.91-39.45-.7-14.76 5.86-33.28 5.86-33.28s5.62 18.75 9.61 28.12c3.98 9.37 11.57 38.74 12.27 40.85 4.66.42 6.65-.81 6.65-.81s-2.99-31.6-5.8-43.55c-2.81-11.95-2.58-40.78-7.26-48.98-10.56-4.23-32.12-.24-32.12-.24z" fill="url(#SVGID_30_)"/><linearGradient id="SVGID_31_" gradientUnits="userSpaceOnUse" x1="-862.749" y1="288.106" x2="-826.997" y2="348.155" gradientTransform="translate(1249.563)"><stop offset="0" stop-color="#311944"/><stop offset="1" stop-color="#893976"/></linearGradient><path d="M401.9 315.42c1.39 9.02 4.17 13.88 11.11 20.13 5.55 4.17 1.39 13.19 3.47 20.13.69 2.08 2.78 4.17 3.47 6.25 2.58 5.17.17 11.49 1.34 16.96 1.82-.25 2.65-.76 2.65-.76s-2.99-31.6-5.8-43.55c-2.81-11.95-2.58-40.78-7.26-48.98-10.55-4.22-32.11-.23-32.11-.23s-4.45 3.98-4.45 20.39c0 1.33.01 2.79.04 4.34 4.62 4.09 14.08 5 19.91.47.35-.26.73-.43 1.11-.5.02-.05.03-.09.03-.09s.01.03.02.08c2.66-.49 5.87 2.96 6.47 5.36z" opacity=".25" fill="url(#SVGID_31_)"/><path class="st31" d="M419.02 390.48s-.68 0-.63.88c.06.88-.31 3.93 3.17 4.07 3.48.14 4.02-.25 4.13-.25.11 0-.91-2.91-.91-2.91l-1.11-1.43-3-.31-1.65-.05z"/><path d="M426.74 393.53c-.07-.73-.49-1.89-.9-2.82-.61-1.38-.11-1.9-.7-3.16-.2-.44-.4-.85-.83-1.26-.1-.09-1.06-.98-2.46-.94-.28.01-.7.03-1.16.27-.54.29-.81.72-1.04 1.1-.36.6-.28.78-.84 2.49-.05.14-.14.44-.22.85-.06.31-.08.58-.09.76.91 0 4.42.14 5.17.68.74.54 1.11 1.46 1.11 2.37 0 .91.46 1.34.91 1.31.42-.02 1.23-.78 1.05-1.65zm-42.17-3.71c.78.01 1.36.64 1.79 2.14.43 1.5 2.52 2.83.09 2.52-2.43-.32-4.19 3.12-5.06 4.4-.87 1.27-3.2 2.4-3.14 1.16.06-1.24 1.09-1.83 1.37-3.1.3-1.28 3.17-7.15 4.95-7.12z" fill="#444b8c"/><linearGradient id="SVGID_32_" gradientUnits="userSpaceOnUse" x1="-1164.178" y1="-4903.59" x2="-1126.315" y2="-4825.731" gradientTransform="rotate(-172.138 -197.907 -2380.39)"><stop offset="0" stop-color="#ff9085"/><stop offset="1" stop-color="#fb6fbb"/></linearGradient><path d="M425.79 287.35c.58-1.6 4.18-12.13-1.64-21.74-4.76-7.86-13-10.43-14.17-10.77-7.15-2.11-10.74.6-12.99-1.9-3.83-4.24.51-18.67 8.9-21.56 9.46-3.26 20.8 9.27 25.4 17.5 6.03 10.8 4.55 21.53 4.2 23.74-.91 5.74-3.02 10.12-4.58 12.81-1.72.64-3.42 1.28-5.12 1.92z" fill="url(#SVGID_32_)"/><linearGradient id="SVGID_33_" gradientUnits="userSpaceOnUse" x1="379.305" y1="231.985" x2="417.652" y2="310.839"><stop offset="0" stop-color="#ff9085"/><stop offset="1" stop-color="#fb6fbb"/></linearGradient><path d="M401.09 229.34c-8.44-.34-14.95-.2-18.63 3.47-3.88 3.88.04 8.26-.8 18.42-1.29 15.54-11.2 19.34-11.94 35.11-.25 5.31.65 9.66 1.35 12.27 2.17 2.71 5.73 6.53 10.98 9.72 7.64 4.65 12.07 3.84 23.05 6.84 17.95 4.91 19.55 10.76 28.45 9.27 9-1.51 16.89-9.08 15.93-13.23-.57-2.49-4.2-1.78-8.37-5.58-5.38-4.89-3.31-9.56-7.4-14.82-5.88-7.55-14.06-2.94-19.07-9.48-5.07-6.62-3.06-19.67 1.21-26.78 2.79-4.65 3.98-10.09 6.36-14.96.2-.4.43-1.07.33-1.9-.39-3.17-5.67-4.89-9.68-6.16-6.12-1.93-11.08-2.16-11.77-2.19z" fill="url(#SVGID_33_)"/><linearGradient id="SVGID_34_" gradientUnits="userSpaceOnUse" x1="-853.557" y1="222.119" x2="-846.229" y2="233.766" gradientTransform="translate(1249.563)"><stop offset=".004" stop-color="#e38ddd"/><stop offset="1" stop-color="#9571f6"/></linearGradient><path d="M393.98 228.99l1.66-.51s.44 2.25 5.79 2.54c2.97 0 4.89-1.66 4.89-1.66l1.14.83s-2.5 3.12-6.46 3.04c-5.12-.11-7.02-4.24-7.02-4.24z" fill="url(#SVGID_34_)"/><linearGradient id="SVGID_35_" gradientUnits="userSpaceOnUse" x1="-844.71" y1="220.332" x2="-852.764" y2="233.36" gradientTransform="translate(1249.563)"><stop offset="0" stop-color="#ffc444"/><stop offset=".996" stop-color="#f36f56"/></linearGradient><path d="M397.37 222.14c.32-2.48 2.28-4.06 2.7-4.4 1.79-1.42 2.15-1.56 2.77-1.68l.84-.13h.09c.49.03 1.96.6 2.23.79.85.6.23 4.86-2.37 10.15-.1.45-.2.9-.31 1.34 2.26.4 2.82.8 2.84 1.13.04.7-2.43 1.6-4.73 1.66-2.87.07-5.92-1.16-5.87-2.09.02-.37.57-.83 2.65-1.29.33-.46.65-.92.98-1.38-.28-.33-2.06-2.28-1.82-4.1z" fill="url(#SVGID_35_)"/><linearGradient id="SVGID_36_" gradientUnits="userSpaceOnUse" x1="-1434.561" y1="-358.092" x2="-1442.354" y2="-345.485" gradientTransform="rotate(-13.657 1891.577 -7738.23)"><stop offset="0" stop-color="#ffc444"/><stop offset=".996" stop-color="#f36f56"/></linearGradient><path d="M400.92 221.21c.65-.39 1.15.45.84 1.18-.31.73-1.34 1.19-1.96.75-.63-.44.25-1.41 1.12-1.93z" fill="url(#SVGID_36_)"/><linearGradient id="SVGID_37_" gradientUnits="userSpaceOnUse" x1="399.608" y1="164.686" x2="467.104" y2="271.966"><stop offset="0" stop-color="#444b8c"/><stop offset=".996" stop-color="#26264f"/></linearGradient><path d="M485.39 221.19c-8.58-9.31-28.54-6.76-39.61.72-5.14 3.47-7.78 7.58-13.86 7.92-4.62.26-11.97-1.48-15.84-6.48-.49-.63-2.44-3.28-5.37-6.61-1.29-1.47-2.58-2.85-4.57-3.16-.51-.08-2.19-.35-3.3.73-.9.88-1.12 2.41-.86 3.51.16.66.37.73.34 1.16-.08 1.21-2.29 1.74-2.17 2.35.09.44 1.24.28 1.44.83.22.6-1.05 1.12-1.59 2.63-1.02.68-1.66 2.38-1.88 4.64-.33 3.33.01 6.04.64 8.08 3.04 9.82 5.22 16.84 10.48 20.76 6.97 5.19 13.24.4 30.97-.36 24.27-1.04 30.32 7.19 39.05 1.56 10.88-7.01 15.04-28.61 6.13-38.28z" fill="url(#SVGID_37_)"/><linearGradient id="SVGID_38_" gradientUnits="userSpaceOnUse" x1="375.037" y1="233.823" x2="412.752" y2="311.378"><stop offset="0" stop-color="#ff9085"/><stop offset="1" stop-color="#fb6fbb"/></linearGradient><path d="M358.09 202.19c-.22 2.03-.95 11.01 5.25 18.6 5.79 7.09 13.99 8.5 15.51 8.73 7.37 1.11 10.55-2.06 13.13.1 4.37 3.67 2.05 18.56-5.87 22.58-8.92 4.52-21.87-6.34-27.55-13.87-7.45-9.87-7.45-20.71-7.4-22.94.11-5.81 1.6-10.44 2.78-13.32.48-.15 1.22-.31 2.13-.28.86.04 1.55.23 2.02.4z" fill="url(#SVGID_38_)"/><linearGradient id="SVGID_39_" gradientUnits="userSpaceOnUse" x1="373.767" y1="234.678" x2="412.114" y2="313.532"><stop offset="0" stop-color="#ff9085"/><stop offset="1" stop-color="#fb6fbb"/></linearGradient><path d="M433.81 318.51c-2.16-2.21.22-6.68-2.97-9.99-2.96-3.08-6.31-.59-11.07-3.24-6.11-3.4-4.43-9.62-10.26-12.96-4.2-2.41-6.17.18-12.69-1.08-6.51-1.26-14.45-5.75-18.36-13.77-1.67-3.41-2.28-6.8-2.36-9.83-2.93 5.23-5.97 10.25-6.37 18.71-.25 5.31.65 9.66 1.35 12.27 2.17 2.71 5.73 6.53 10.98 9.72 7.64 4.65 12.07 3.84 23.05 6.84 17.95 4.91 19.55 10.76 28.45 9.27 5.75-.96 11.03-4.4 13.86-7.84-8.31 3.69-12.04 3.5-13.61 1.9z" opacity=".25" fill="url(#SVGID_39_)"/><linearGradient id="SVGID_40_" gradientUnits="userSpaceOnUse" x1="234.5" y1="165.631" x2="162.765" y2="444.004"><stop offset="0" stop-color="#311944"/><stop offset="1" stop-color="#893976"/></linearGradient><path d="M225.21 126.29h1.97l38.22 27.1c-5.9 7.92-9.34 17.18-9.34 28.07l-50.4-.75c0-20.72 7.27-39.12 19.55-54.42z" fill="url(#SVGID_40_)"/><linearGradient id="SVGID_41_" gradientUnits="userSpaceOnUse" x1="264.187" y1="37.649" x2="259.645" y2="159.287"><stop offset="0" stop-color="#311944"/><stop offset="1" stop-color="#893976"/></linearGradient><path d="M292.86 134.52c-9.03 2.7-15.77 8.21-21.98 14.65-.05.05-.08.19-.15.19-1.55.04-1 .08-1.97 0l-.09-.06-39.93-26.98c12.96-14.15 30.4-24.64 50.06-29.08h1.97l12.09 41.28z" fill="url(#SVGID_41_)"/><linearGradient id="SVGID_42_" gradientUnits="userSpaceOnUse" x1="310.233" y1="134.067" x2="294.529" y2="387.284"><stop offset="0" stop-color="#311944"/><stop offset="1" stop-color="#893976"/></linearGradient><path d="M341.25 96.86l-11.14 38.24c-4.93-1.64-10.4-3.07-15.91-3.34-4.92-.24-11.38.9-15.98 1.8l-14.09-41.53c9.1-1.7 18.59-2.24 28.28-1.47 10.18.8 19.85 2.98 28.84 6.3z" fill="url(#SVGID_42_)"/><linearGradient id="SVGID_43_" gradientUnits="userSpaceOnUse" x1="348.17" y1="128.926" x2="559.985" y2="-33.304"><stop offset="0" stop-color="#311944"/><stop offset="1" stop-color="#893976"/></linearGradient><path d="M387.22 130.73l-32.02 20.63.3 1.1h-1.97c-5.32-6.42-12.33-11.88-20.47-15.44l13.05-38.21c1.36-.07.73 0 1.97 0 .04 0 .07.03.1.04 16.02 7.14 29.17 18.71 39.04 31.88z" fill="url(#SVGID_43_)"/><linearGradient id="SVGID_44_" gradientUnits="userSpaceOnUse" x1="431.577" y1="-21.43" x2="365.47" y2="227.887"><stop offset="0" stop-color="#311944"/><stop offset="1" stop-color="#893976"/></linearGradient><path d="M405.14 183.58l-40.55-.57c0-10.09-2.97-18.83-8.11-26.55l33.55-21.71c1.97 0 1.7-.07 1.97 0 .34.08-1.13 1.27-.95 1.56 8.95 13.89 14.09 29.92 14.09 47.27z" fill="url(#SVGID_44_)"/><linearGradient id="SVGID_45_" gradientUnits="userSpaceOnUse" x1="5414.777" y1="-3114.91" x2="5435.341" y2="-3114.91" gradientTransform="matrix(.7381 .6746 -.9837 1.0763 -6732.663 -156.532)"><stop offset="0" stop-color="#311944"/><stop offset="1" stop-color="#893976"/></linearGradient><path fill="url(#SVGID_45_)" d="M306.26 167.62l53.7-38.73-38.14 52.18z"/><linearGradient id="SVGID_46_" gradientUnits="userSpaceOnUse" x1="298.06" y1="177.078" x2="326.479" y2="177.078"><stop offset="0" stop-color="#311944"/><stop offset="1" stop-color="#893976"/></linearGradient><path d="M326.48 177.33c0 7.17-6.26 12.93-14.07 12.87-7.89-.07-14.35-6.05-14.35-13.37 0-7.32 6.46-13.08 14.35-12.86 7.81.2 14.07 6.19 14.07 13.36z" fill="url(#SVGID_46_)"/><linearGradient id="SVGID_47_" gradientUnits="userSpaceOnUse" x1="303.726" y1="177.08" x2="320.993" y2="177.08"><stop offset="0" stop-color="#311944"/><stop offset="1" stop-color="#893976"/></linearGradient><path d="M312.41 185.05c-4.78-.06-8.69-3.7-8.69-8.12 0-4.42 3.91-7.93 8.69-7.82 4.74.11 8.58 3.75 8.58 8.12s-3.83 7.88-8.58 7.82zm0-14.38c-3.84-.09-6.98 2.74-6.98 6.29s3.14 6.49 6.98 6.54c3.82.05 6.91-2.77 6.91-6.29s-3.09-6.46-6.91-6.54z" fill="url(#SVGID_47_)"/><linearGradient id="SVGID_48_" gradientUnits="userSpaceOnUse" x1="236.417" y1="165.895" x2="165.343" y2="441.707"><stop offset="0" stop-color="#ab316d"/><stop offset="1" stop-color="#792d3d"/></linearGradient><path d="M227.19 126.41l40.2 27.04c-5.9 7.92-9.34 17.15-9.34 28.04l-50.4-.71c-.01-20.72 7.26-39.29 19.54-54.37z" fill="url(#SVGID_48_)"/><linearGradient id="SVGID_49_" gradientUnits="userSpaceOnUse" x1="266.158" y1="37.704" x2="261.619" y2="159.248"><stop offset="0" stop-color="#ffc444"/><stop offset=".541" stop-color="#f8964e"/><stop offset=".996" stop-color="#f36f56"/></linearGradient><path d="M294.83 134.49c-9.44 2.82-17.76 7.99-24.1 14.86l-40.02-27.07c12.96-14.15 30.4-24.37 50.06-29.11l14.06 41.32z" fill="url(#SVGID_49_)"/><linearGradient id="SVGID_50_" gradientUnits="userSpaceOnUse" x1="312.226" y1="133.752" x2="296.637" y2="385.137"><stop offset="0" stop-color="#ffc444"/><stop offset=".996" stop-color="#f36f56"/></linearGradient><path d="M343.22 96.86l-13.11 38.24a58.917 58.917 0 00-15.72-2.93c-4.92-.24-9.73.12-14.33 1.03l-13.95-41.16c9.1-1.7 18.59-2.24 28.28-1.47 10.17.79 19.85 2.97 28.83 6.29z" fill="url(#SVGID_50_)"/><linearGradient id="SVGID_51_" gradientUnits="userSpaceOnUse" x1="350.147" y1="128.92" x2="561.911" y2="-33.272"><stop offset=".004" stop-color="#e38ddd"/><stop offset="1" stop-color="#9571f6"/></linearGradient><path d="M389.2 130.73l-33.69 21.69c-5.32-6.52-12.33-11.86-20.47-15.43l13.05-38.2c16.74 7.13 30.89 18.32 41.11 31.94z" fill="url(#SVGID_51_)"/><linearGradient id="SVGID_52_" gradientUnits="userSpaceOnUse" x1="433.032" y1="-19.473" x2="367.548" y2="227.494"><stop offset=".004" stop-color="#e38ddd"/><stop offset="1" stop-color="#9571f6"/></linearGradient><path d="M407.12 183.58l-40.55-.57c0-10.09-2.97-18.83-8.11-26.55L392 134.75c9.58 14.24 15.12 30.82 15.12 48.83z" fill="url(#SVGID_52_)"/><linearGradient id="SVGID_53_" gradientUnits="userSpaceOnUse" x1="5416.234" y1="-3115.823" x2="5436.798" y2="-3115.823" gradientTransform="matrix(.7381 .6746 -.9837 1.0763 -6732.663 -156.532)"><stop offset="0" stop-color="#444b8c"/><stop offset=".996" stop-color="#26264f"/></linearGradient><path fill="url(#SVGID_53_)" d="M308.23 167.62l53.7-38.73-38.14 52.18z"/><linearGradient id="SVGID_54_" gradientUnits="userSpaceOnUse" x1="300.034" y1="177.078" x2="328.453" y2="177.078"><stop offset="0" stop-color="#444b8c"/><stop offset=".996" stop-color="#26264f"/></linearGradient><path d="M328.45 177.33c0 7.17-6.26 12.93-14.07 12.87-7.89-.07-14.35-6.05-14.35-13.37 0-7.32 6.46-13.08 14.35-12.86 7.81.2 14.07 6.19 14.07 13.36z" fill="url(#SVGID_54_)"/><path class="st15" d="M314.39 185.05c-4.78-.06-8.69-3.7-8.69-8.12 0-4.42 3.91-7.93 8.69-7.82 4.74.11 8.58 3.75 8.58 8.12s-3.84 7.88-8.58 7.82zm0-14.38c-3.84-.09-6.98 2.74-6.98 6.29s3.14 6.49 6.98 6.54c3.82.05 6.91-2.77 6.91-6.29s-3.09-6.46-6.91-6.54z"/></svg>