<svg version="1.1" id="Layer_1" xmlns="http://www.w3.org/2000/svg" xmlns:xlink="http://www.w3.org/1999/xlink" x="0" y="0" viewBox="0 0 610 410" xml:space="preserve"><style>.st7{fill:#fff}.st25{fill:#eea886}.st26{fill:#e8e8e8}.st29{fill:#ead8cf}.st31{fill:#353a3d}.st32{fill:#e8734d}.st34{fill:#434343}.st38{fill:#81807e}.st40{fill:#decbc4}.st43{fill:#5b83c2}.st46{fill:#323657}</style><path fill="#fafafa" d="M-35.97-18.42h678.66v434.74H-35.97z"/><path d="M131.64 115.07h67.95v6.96h-67.95zm86.96 52.39h49.06v6.96H218.6zm56.7 0h32.55v6.96H275.3zm38.99 0h78.6v6.96h-78.6zM132.41 272.81h50.5v6.96h-50.5zm80.4-157.74h48.23v6.96h-48.23zm0 78.58h48.23v6.96h-48.23zm-24.12 26.19h20.61v6.96h-20.61zm-20.61 26.58h46.29v6.96h-46.29zm53.29 0h63.9v6.96h-63.9zm-88.96-26.38h48.23V227h-48.23zm0 26.38h28.62v6.96h-28.62zm86.6-26.38h27V227h-27zm-86.79-52.58h48.23v6.96h-48.23zm0 26.19h68.76v6.96h-68.76zm141.81-78.58h61.45v6.96h-61.45zm164.07 52.39h61.45v6.96H438.1zm-80.01 26.19h61.45v6.96h-61.45zm22.84-78.58h61.45v6.96h-61.45zm-70.12 78.58h36.03v6.96h-36.03zm36.03-78.58h22.49v6.96h-22.49zm-72.81 78.58h22.49v6.96h-22.49zm-142.39-52.39h35.19v6.96h-35.19zM225.54 273h27.78v6.96h-27.78zm-50.07-131.74h11.36v6.96h-11.36zm233.27 0h93.92v6.96h-93.92zm-39.4 0h30.73v6.96h-30.73zm30.72 26.2h30.73v6.96h-30.73zm-104.24-26.2h65.38v6.96h-65.38zm-31.77 0h22.49v6.96h-22.49zm-75.71 26.2h22.49v6.96h-22.49zM192.82 273h22.49v6.96h-22.49zm23.46-131.74h39.19v6.96h-39.19z" fill="#ededed"/><linearGradient id="SVGID_2_" gradientUnits="userSpaceOnUse" x1="394.132" y1="330.467" x2="394.132" y2="-11.052" gradientTransform="matrix(1 0 0 -1 0 410)"><stop offset="0" stop-color="#3e589e"/><stop offset="1" stop-color="#b8ebff"/></linearGradient><path fill="url(#SVGID_2_)" d="M352.03 169.98h84.21v77.34h-84.21z"/><linearGradient id="SVGID_3_" gradientUnits="userSpaceOnUse" x1="426.58" y1="201.35" x2="442.804" y2="201.35" gradientTransform="matrix(1 0 0 -1 0 410)"><stop offset="0" stop-color="#8ec3f9"/><stop offset="1" stop-color="#b8ebff"/></linearGradient><path d="M442.8 181.61v54.07c0 10.62-4.4 19.21-9.84 19.21h-6.39V162.4h6.39c5.44 0 9.84 8.61 9.84 19.21z" fill="url(#SVGID_3_)"/><linearGradient id="SVGID_4_" gradientUnits="userSpaceOnUse" x1="233.346" y1="330.467" x2="233.346" y2="-11.052" gradientTransform="matrix(1 0 0 -1 0 410)"><stop offset="0" stop-color="#3e589e"/><stop offset="1" stop-color="#b8ebff"/></linearGradient><path fill="url(#SVGID_4_)" d="M191.24 169.98h84.21v77.34h-84.21z"/><linearGradient id="SVGID_5_" gradientUnits="userSpaceOnUse" x1="-3897.158" y1="-3160.778" x2="-3880.935" y2="-3160.778" gradientTransform="matrix(-1 0 0 1 -3696.258 3369.43)"><stop offset="0" stop-color="#8ec3f9"/><stop offset="1" stop-color="#b8ebff"/></linearGradient><path d="M184.68 235.69v-54.07c0-10.62 4.4-19.21 9.84-19.21h6.39v92.49h-6.39c-5.44 0-9.84-8.61-9.84-19.21z" fill="url(#SVGID_5_)"/><linearGradient id="SVGID_6_" gradientUnits="userSpaceOnUse" x1="211.809" y1="201.347" x2="415.341" y2="201.347" gradientTransform="matrix(1 0 0 -1 0 410)"><stop offset="0" stop-color="#8ec3f9"/><stop offset="1" stop-color="#b8ebff"/></linearGradient><path d="M415.34 208.65c0 48.18-33.48 88.54-78.44 99.08-7.49 1.76-15.3 2.69-23.33 2.69-8.02 0-15.83-.93-23.32-2.69-44.97-10.54-78.44-50.9-78.44-99.08 0-56.21 45.56-101.77 101.76-101.77 14.81 0 28.88 3.16 41.57 8.85 17.48 7.83 32.35 20.45 42.94 36.19 10.9 16.21 17.26 35.73 17.26 56.73z" fill="url(#SVGID_6_)"/><path class="st7" d="M336.9 217.79v89.95c-7.49 1.76-15.3 2.69-23.32 2.69s-15.83-.93-23.32-2.69v-89.95h46.64z"/><circle transform="rotate(-45.001 313.574 199.524)" class="st7" cx="313.57" cy="199.52" r="49.9"/><linearGradient id="SVGID_7_" gradientUnits="userSpaceOnUse" x1="313.577" y1="238.534" x2="313.577" y2="110.308" gradientTransform="matrix(1 0 0 -1 0 410)"><stop offset="0" stop-color="#3e589e"/><stop offset="1" stop-color="#b8ebff"/></linearGradient><circle cx="313.58" cy="199.52" r="43.49" fill="url(#SVGID_7_)"/><linearGradient id="SVGID_8_" gradientUnits="userSpaceOnUse" x1="313.577" y1="240.079" x2="313.577" y2="34.476" gradientTransform="matrix(1 0 0 -1 0 410)"><stop offset="0" stop-color="#3e589e"/><stop offset="1" stop-color="#b8ebff"/></linearGradient><circle cx="313.58" cy="199.52" r="28.19" fill="url(#SVGID_8_)"/><linearGradient id="SVGID_9_" gradientUnits="userSpaceOnUse" x1="318.273" y1="266.279" x2="285.647" y2="362.44" gradientTransform="matrix(1 0 0 -1 0 410)"><stop offset="0" stop-color="#3e589e"/><stop offset="1" stop-color="#b8ebff"/></linearGradient><path d="M314.64 143.91h-2.12c-3.03 0-5.48-2.45-5.48-5.48v-17.1c0-3.03 2.45-5.48 5.48-5.48h2.12c3.03 0 5.48 2.45 5.48 5.48v17.1c0 3.03-2.46 5.48-5.48 5.48z" fill="url(#SVGID_9_)"/><path d="M343.65 178.42c0 6.48-5.25 11.73-11.73 11.73s-11.73-5.25-11.73-11.73 5.25-11.73 11.73-11.73 11.73 5.25 11.73 11.73z" opacity=".54" fill="#fff"/><linearGradient id="SVGID_10_" gradientUnits="userSpaceOnUse" x1="230.353" y1="66.513" x2="538.868" y2="66.513" gradientTransform="matrix(1 0 0 -1 0 410)"><stop offset="0" stop-color="#617ae0"/><stop offset="1" stop-color="#b8ebff"/></linearGradient><path fill="url(#SVGID_10_)" d="M176.37 338.34h274.42v10.3H176.37z"/><linearGradient id="SVGID_11_" gradientUnits="userSpaceOnUse" x1="313.576" y1="-72.03" x2="313.576" y2="121.766" gradientTransform="matrix(1 0 0 -1 0 410)"><stop offset="0" stop-color="#8ec3f9"/><stop offset="1" stop-color="#b8ebff"/></linearGradient><path d="M474.48 371.3h-321.8c-5.69 0-10.3-4.61-10.3-10.3v-4.12c0-5.69 4.61-10.3 10.3-10.3h321.8c5.69 0 10.3 4.61 10.3 10.3V361c0 5.69-4.61 10.3-10.3 10.3z" fill="url(#SVGID_11_)"/><circle class="st7" cx="313.58" cy="121.35" r="3.57"/><linearGradient id="SVGID_12_" gradientUnits="userSpaceOnUse" x1="369.91" y1="326.003" x2="369.91" y2="203.807" gradientTransform="matrix(1 0 0 -1 0 410)"><stop offset="0" stop-color="#8ec3f9"/><stop offset="1" stop-color="#b8ebff"/></linearGradient><path d="M402.92 149.53l-9.58 25.75-56.44-46.59 23.09-15.34c17.47 7.83 32.35 20.45 42.93 36.18z" fill="url(#SVGID_12_)"/><linearGradient id="SVGID_13_" gradientUnits="userSpaceOnUse" x1="-5221.484" y1="326.003" x2="-5221.484" y2="203.807" gradientTransform="rotate(180 -2482.121 205)"><stop offset="0" stop-color="#8ec3f9"/><stop offset="1" stop-color="#b8ebff"/></linearGradient><path d="M224.23 149.53l9.58 25.75 56.44-46.59-23.08-15.35c-17.48 7.84-32.35 20.46-42.94 36.19z" fill="url(#SVGID_13_)"/><linearGradient id="SVGID_14_" gradientUnits="userSpaceOnUse" x1="-5082.151" y1="-3593.05" x2="-4994.154" y2="-3847.553" gradientTransform="matrix(-1 0 0 1 -4761.684 4054.102)"><stop offset="0" stop-color="#8ec3f9"/><stop offset="1" stop-color="#b8ebff"/></linearGradient><path d="M224.23 267.77l9.58-25.75 56.44 46.59-23.08 15.35c-17.48-7.83-32.35-20.45-42.94-36.19z" fill="url(#SVGID_14_)"/><linearGradient id="SVGID_15_" gradientUnits="userSpaceOnUse" x1="119.934" y1="-3638.77" x2="207.932" y2="-3893.272" gradientTransform="translate(202.559 4054.102)"><stop offset="0" stop-color="#8ec3f9"/><stop offset="1" stop-color="#b8ebff"/></linearGradient><path d="M402.92 267.77l-9.58-25.75-56.44 46.59 23.09 15.34c17.47-7.82 32.35-20.44 42.93-36.18z" fill="url(#SVGID_15_)"/><defs><path id="SVGID_16_" d="M133.15 57.43h.22l-.22.21z"/></defs><defs><path id="SVGID_17_" d="M132.72 56.99h-.22l.22-.22z"/></defs><clipPath id="SVGID_18_"><use xlink:href="#SVGID_16_" overflow="visible"/></clipPath><clipPath id="SVGID_19_" clip-path="url(#SVGID_18_)"><use xlink:href="#SVGID_17_" overflow="visible"/></clipPath><linearGradient id="SVGID_20_" gradientUnits="userSpaceOnUse" x1="313.576" y1="153.94" x2="313.576" y2="-47.748" gradientTransform="matrix(1 0 0 -1 0 410)"><stop offset="0"/><stop offset="1" stop-color="#fff"/></linearGradient><path clip-path="url(#SVGID_19_)" fill="url(#SVGID_20_)" d="M152.68 267.26h321.8v79.31h-321.8z"/><linearGradient id="SVGID_21_" gradientUnits="userSpaceOnUse" x1="313.576" y1="153.94" x2="313.576" y2="-47.748" gradientTransform="matrix(1 0 0 -1 0 410)"><stop offset="0" stop-color="#40cde6"/><stop offset="1" stop-color="#4088e6"/></linearGradient><path opacity=".72" fill="url(#SVGID_21_)" d="M152.68 267.26h321.8v79.31h-321.8z"/><linearGradient id="SVGID_22_" gradientUnits="userSpaceOnUse" x1="-4663.865" y1="415.782" x2="-4663.865" y2="252.835" gradientTransform="rotate(180 -2117.55 205)"><stop offset="0" stop-color="#40d5e6"/><stop offset="1" stop-color="#57f"/></linearGradient><path fill="url(#SVGID_22_)" d="M463.81 57.39l-70.32.33.23 50.97.05 10.73 10.69-10.78 59.59-.28z"/><path class="st7" d="M434.14 85.06a5.371 5.371 0 01-10.74.04 5.371 5.371 0 0110.74-.04zm17.64-.05a5.371 5.371 0 01-10.74.04 5.371 5.371 0 015.35-5.39 5.352 5.352 0 015.39 5.35zm-34.87.1a5.371 5.371 0 01-10.74.04 5.371 5.371 0 0110.74-.04z"/><linearGradient id="SVGID_23_" gradientUnits="userSpaceOnUse" x1="924.4" y1="463.085" x2="924.4" y2="283.35" gradientTransform="matrix(1 0 0 -1 -625.934 410)"><stop offset="0" stop-color="#40d5e6"/><stop offset="1" stop-color="#57f"/></linearGradient><path fill="url(#SVGID_23_)" d="M259.81 16.6l77.57.35-.26 56.23-.05 11.84-11.79-11.9-65.73-.3z"/><circle class="st7" cx="298.46" cy="47.13" r="5.92"/><path class="st7" d="M273.08 47.06c-.01 3.27 2.63 5.93 5.91 5.94s5.93-2.63 5.94-5.91a5.922 5.922 0 00-5.91-5.94 5.922 5.922 0 00-5.94 5.91zm38.46.12a5.922 5.922 0 005.91 5.94c3.27.01 5.93-2.63 5.94-5.91s-2.63-5.93-5.91-5.94c-3.26-.01-5.92 2.63-5.94 5.91z"/><linearGradient id="SVGID_24_" gradientUnits="userSpaceOnUse" x1="1320.704" y1="376.551" x2="1320.704" y2="238.328" gradientTransform="matrix(1 0 0 -1 -1135.413 410)"><stop offset="0" stop-color="#40d5e6"/><stop offset="1" stop-color="#57f"/></linearGradient><path fill="url(#SVGID_24_)" d="M155.56 87.04l59.66.27-.2 43.24-.04 9.11-9.07-9.15-50.55-.23z"/><path class="st7" d="M180.73 110.51a4.556 4.556 0 109.112.028 4.556 4.556 0 00-9.112-.028zm-14.97-.05a4.556 4.556 0 109.112.028 4.556 4.556 0 00-9.112-.028zm29.59.09a4.556 4.556 0 104.57-4.54c-2.52 0-4.56 2.03-4.57 4.54z"/><linearGradient id="SVGID_25_" gradientUnits="userSpaceOnUse" x1="1263.499" y1="272.784" x2="1263.499" y2="161.784" gradientTransform="matrix(1 0 0 -1 -1135.413 410)"><stop offset="0" stop-color="#40d5e6"/><stop offset="1" stop-color="#57f"/></linearGradient><path fill="url(#SVGID_25_)" d="M104.21 180.25l47.91.22-.16 34.72-.03 7.32-7.28-7.35-40.6-.19z"/><path class="st7" d="M124.42 199.1c-.01 2.02 1.63 3.66 3.65 3.67 2.02.01 3.66-1.63 3.67-3.65.01-2.02-1.63-3.66-3.65-3.67-2.02 0-3.66 1.63-3.67 3.65zm-12.01-.04a3.655 3.655 0 003.65 3.67c2.02 0 3.67-1.63 3.67-3.65a3.655 3.655 0 00-3.65-3.67c-2.02 0-3.67 1.63-3.67 3.65zm23.75.08a3.655 3.655 0 003.65 3.67c2.02 0 3.67-1.63 3.67-3.65a3.655 3.655 0 00-3.65-3.67c-2.02-.01-3.66 1.63-3.67 3.65z"/><path class="st25" d="M390.95 379.89s.5 3.7.57 4.26c.06.56 5.62-.33 5.62-.33l.45-4.41s-5.95-.04-6.64.48z"/><path class="st26" d="M391.46 383.68s-4.75 2.68-6.45 3.65c-1.7.97-6.95 1.48-6.76 2.49.19 1.01 1.7 3.28 8.78 3.22 7.07-.06 10.48.44 11.24-.76.76-1.2-1.1-8.86-1.1-8.86s-1.6 1.06-5.71.26z"/><path class="st25" d="M365.64 385.84l.82 4.68s6.01-.36 6.26-1.18-.66-5.18-.66-5.18l-6.42 1.68z"/><path class="st26" d="M372.77 389s1.89 6.38.56 8.78c-1.33 2.4-5.62 2.84-7.2 2.72s-5.87-1.58-9.85-1.39c-3.98.19-8.65-.82-7.51-3.28 1.14-2.46 9.8-1.7 12.45-3.98 2.65-2.27 5.03-2.58 5.03-2.58s.01 2.01 6.52-.27z"/><path fill="#514e58" d="M350.92 267.35l-9.53-14.16 8.3-4.61 8.2 14.5z"/><path fill="#3e3b42" d="M350.85 266.08l-8.24-12.25 7.18-3.99 7.1 12.55z"/><path class="st25" d="M357.75 269.09s-1.72-.85-.69-2.92c1.03-2.06.31-2.76.31-2.76l-7.75 4.72s2.41 3.67 3.32 4.01c.91.34 5.49-1.64 4.81-3.05z"/><path class="st25" d="M349.62 268.14s-3.31-3.35-3.59-3.8c-.28-.45-1.64-2.5-2.12-3.64s2.28-.26 2.87.94 1.26 1.65 1.77 2.01c.52.35 3.9 1.33 4.35 2.49.45 1.16-3.28 2-3.28 2zm6.15-8.72s-.43 1.16-.89.49c-.46-.67-.59-2.8.41-2.52.99.27.48 2.03.48 2.03zm-1.27-2.12s-.32 1.44-.9.87c-.44-.43-.58-3.19.42-2.91 1 .29.48 2.04.48 2.04zm23.83 13.25s-3.1-2.22-4.43-3.33-4.95-2.95-5.21-3.28c-.26-.33-11.16-2.97-11.73-3.67-.57-.7-1.56 1.12 1.19 2.25s6.45 3.37 6.47 4.53c.02 1.15-3.18.86-3.66 1.72s-.04.73.38 1.01 4.04-.96 5.4-.18c1.36.78 3.7.45 4.75 1.03 1.04.58 6.12 3.36 6.12 3.36l.72-3.44z"/><path class="st29" d="M371.8 271.86l-1.63-.96s3.08-4.72 4.01-4.42c1.07.34 2.37.94 2.37.94l-4.75 4.44z"/><path d="M371.24 272.67c.25-.13 4.93-6.19 4.93-6.19l7.26 2.34-5.43 7.2-6.76-3.35z" fill="#cf6645"/><path class="st31" d="M412.05 318.62s.77 11.85-5.11 14.03H361s11.81 51.2 11.81 52.05l-7.63 2.09s-20.9-43.82-21.89-46.18c-1.23-2.94-1.14-10.7 2.46-13.64 3.6-2.94 26.71-11.24 31.26-11.54 4.55-.31 35.04 3.19 35.04 3.19z"/><path class="st25" d="M403.03 254.05s-.17 3.06-.25 6.99c-.08 3.93-10.69 1.34-10.69 1.34s.48-4.25-.74-5.6c-1.22-1.36 11.68-2.73 11.68-2.73z"/><path class="st25" d="M387.47 237.99c-.25 1.64-3.47 3.66-1.2 13.26s6 8.4 8.91 7.77c2.9-.63 8.08-2.34 10.04-9.98 1.96-7.64-1.26-11.91-3.54-14.63-2.27-2.71-14.21 3.58-14.21 3.58z"/><path class="st32" d="M416.85 266.71s-3.71 19.68-2.34 25.89c-.12 2.53-.85 7.18-.95 8.67-.28 3.98-.83 16.97-.83 16.97-11.65 6.92-35.39-2.17-35.71-2.83-.69-1.44 5.78-11.19 5.78-13.94s-3.65-13.79-3.65-13.79-6.38 8.97-10.1 10.74c-3.73 1.77-16.23-23.81-16.23-23.81l6.88-5.05s8.4 12.06 8.71 12.44c.32.38 8.65-8.84 9.73-10.67 1.07-1.83 13.96-8.97 13.96-8.97s9.65-1.53 10.69-1.34c1.03.2 13.21 5.22 14.06 5.69z"/><path d="M380.52 338.24s8.53 41.3 9.76 41.59 7.86-.47 7.86-.47 1.14-22.64.66-27.76c-.47-5.12-.57-14.87-.57-14.87l-17.71 1.51z" fill="#2b2b2b"/><path class="st29" d="M359.12 269.99l-1.13-1.68s-6 3.33-5.75 4.13c.25.8 1.06 1.82 1.06 1.82l5.82-4.27z"/><path class="st34" d="M385.61 243.12s-.83-.14-1.38-1.23-2-9.33 8.42-9.71c7.84-.28 8.7-.67 11.5 2.08 3.16 3.12 2.3 14.68-1.12 19.78 0 0-6.25-1.02-8.84-5.73-.78-1.42.47-5.95-2.42-5.37-2.15.43-1.99 5.86-1.99 5.86l-1.4.5c0 .02 1.27-8.41-2.77-6.18z"/><path class="st32" d="M416.85 266.71s9.28 7.48-3.08 27.1c-5.56 8.83 3.08-27.1 3.08-27.1z"/><path fill="#bdb69c" d="M361 332.65h83.38v5.76H361z"/><path d="M361 338.41h5.32v64.17H361zm78.06 0h5.32v64.17h-5.32z" fill="#80756b"/><path class="st29" d="M392.09 262.37v-1.18s8.6-2.57 10.72-1.35l-.03 1.19-10.69 1.34z"/><path class="st32" d="M377.01 315.42s16.29 11.86 27.22 9.06c7.66-1.96 8.5-6.24 8.5-6.24l-35.72-2.82z"/><path fill="#803f2a" d="M368.4 282.01l-4.69 4.52 2.76-7.23z"/><path class="st31" d="M194.14 393.29s2.15 3.21 5.15 3.9c3.01.69 5.97 1.8 5.99 3.69.02 1.9-8.7 3.03-12.14 1.12-5.14-2.86-5.66-2-6.23-3.42-.57-1.43.68-5.25.65-5.7-.04-.56 6.58.41 6.58.41z"/><path class="st38" d="M193.81 391.71s.39 1.55.33 1.58c-.06.03-6.78.83-6.58-.41.17-1.01.4-2.1.4-2.1l5.85.93z"/><path class="st31" d="M171.52 393.08s1.53 3.07 4.14 4.12c2.79 1.12 5.03 2.4 4.98 4.25-.05 1.85-6.83 3.72-11.76.17-3.12-2.24-4.1-2.25-4.6-3.67-.5-1.41.87-5.08.85-5.53-.02-.54 6.39.66 6.39.66z"/><path class="st38" d="M171.6 391.48s-.02 1.57-.08 1.59c-.06.03-6.55.57-6.39-.65.13-.97.63-2.13.63-2.13l5.84 1.19z"/><path d="M195.42 297.73s6.03 26.62 7.41 34.73c1.17 6.9 2.11 14.09 1.55 19.07-.7 6.17-9.43 38.13-9.06 39.94s-9.14.29-9.14.29 6.64-35.66 5.32-42.29c-.98-4.92-9.59-37.57-10.91-35.89-1.32 1.67-2.95 30.82-3.93 35.65-.98 4.84-3.98 43.06-3.98 43.06s-6.71.99-8.5-.53c0 0-.82-32.64-.19-41.71.24-3.46-4.05-41.44 1.45-56.73 2.89-8.09 29.98 4.41 29.98 4.41z" fill="#2d3133"/><path class="st40" d="M221.68 273.53c-4.3-.6-17.83 5.39-19.06 4.94-.85-.31-2.83-6.78-4.25-11.67-.84-2.9-1.48-5.24-1.57-5.43v-.01c.01.13.23 2.34-.05 5.25l-.06.57c-.01.05-.01.1-.02.15a26.35 26.35 0 01-.61 3.28c-.43 1.66-.63 3.84-.71 6.14v.29c-.12 4.19.17 8.71.29 11.11.19 3.73-1.04 5.4-1.07 5.45l-1.3-.18-.94-.13h-.01l-1.25-.18-4.91-.69-1.78-.25-.42-.06-3.11-.44-8.77-1.23-.96-.13-.4-.05-3.31-.47-1.49-.21s-1.27-9-1.37-13.86c-.09-4.47-2.48-13.54-2.87-14.99 0-.01 0-.02-.01-.03 0-.01-.01-.03-.01-.04-.01-.03-.01-.05-.02-.06 0-.01 0-.02-.01-.03v-.04s-7.16 7.52-8.54 10.8c-.42 1-1.72 3.7-3.37 7-1.13-2.15-1.83-3.65-1.83-4.02v-.15c.11-3.24 3.5-16.39 6.19-24.98 2.08-4.19 3.88-7.57 4.45-7.98.87-.63 4.55-2.2 7.75-3.47.11-.04.21-.08.31-.12.3-.12.59-.23.88-.35.14-.05.28-.11.42-.16.08-.03.15-.06.23-.08.06-.02.12-.05.18-.07 1.6-.61 2.82-1.03 3.07-1.05h.2c.11 0 .24.01.41.02 1.98.12 7.9.67 9.8.85.35.03.56.05.59.06s.91.41 2.27 1.04l.13.06c.82.38 1.78.88 2.79 1.43 1.98 1.08 4.16 2.35 5.98 3.21 1.78.85 4.21 2.02 4.42 2.19l9 25.96 15.62-2.85-.9 5.66z"/><path d="M194.57 293.59s.66.79.85 4.13c0 0-27.12-3.16-29.99-4.41 0 0-.11-3.68.5-3.75.66-.06 28.64 4.03 28.64 4.03z" fill="#495055"/><path class="st25" d="M171.44 234.94c.08 4.26 8.33 6.58 8.33 6.58s3.45-4.32 2.62-4.73c-.32-.16-.45-.81-.5-1.53-.04-.69.01-1.45.05-1.93.02-.3.05-.5.05-.5s-1.18-1.24-2.68-2.72c-2.62-2.59-6.22-5.9-6.22-4.58 0 .07.01.15.03.25.63 2.97-1.68 9.16-1.68 9.16z"/><path class="st31" d="M172.12 290.22s-.59 3.73-.64 4.71l-1.25-.25s.35-3.95.55-4.61l1.34.15zm20.18 2.94s.48 3.39.49 4.67l-1.33-.17s-.27-4.24-.42-4.68l1.26.18z"/><path d="M174.61 228.71c.02.03.37.55.96 1.3 1.27 1.59 3.64 4.21 6.32 5.26-.04-.69.01-1.45.05-1.93.27-.01.55-.04.82-.1-.73-1.28-1.79-2.62-1.79-2.62l-1.65-.5-4.71-1.41z" fill="#a77860"/><path class="st25" d="M173.03 225.59c.71 1.55 1.39 2.67 1.58 3.12.12.29.47.76.96 1.3 1.36 1.46 3.88 3.39 6.37 3.33.27-.01.55-.04.82-.1 1-.22 2.18-.68 2.84-1.96 5.14-10.06 1.42-18.3 1.42-18.3s-14.06-3.98-16.26.26c-1.55 2.96.6 8.7 2.27 12.35z"/><path class="st34" d="M187.01 212.98s1.31-.07 1.63-2.55c.32-2.45-.33-3.12-.33-3.12s-5.8-2.43-7.89-2.75c-2.08-.32-7.21-.62-8.41.75 0 0-2.92-.68-3.71 4.17-1.26 7.69 4.3 15.15 4.3 15.15s-.05-5.02 1.06-5.69c1.11-.67 2.06.92 2.06.92l2.27.41s-3.44-7.43.69-7.7c4.13-.28 5.97.84 8.33.41z"/><path class="st25" d="M175.66 217.86c-.22-2.21-4.22-3.06-3.95-.74.27 2.32 2.24 4.55 3.15 4.47.92-.08.97-2.05.8-3.73z"/><path class="st43" d="M149.73 278.31c1.74 3.32 4.49 8.22 7.21 12.96-.36.67-.71 1.33-1.04 1.98-.82 1.6-1.54 3.14-2.05 4.58-.62 1.73-1.48 6.17.17 7l8.68 4.79s.06-.17.18-.48c.29-.78.91-2.45 1.77-4.6.03-.07.12-.28.24-.58.17-.41.42-.99.71-1.65.13-.3.26-.61.4-.93.16-.37.32-.75.48-1.13.24-.55.47-1.1.69-1.6.59-1.38 1.05-2.45 1.05-2.45.03-.06.06-.13.09-.19a147.136 147.136 0 012.27-4.64c.05-.09.1-.19.15-.28.08-.16.17-.32.26-.48.05-.1.11-.2.16-.29a.746.746 0 01.1-.19c2.51-4.58 5.33-8.4 6.23-14.01.09-.54.17-1.08.25-1.62.13-.89.25-1.77.36-2.63l.12-.97c.45-3.74.72-7.08.94-9.4.68-7.24-3.75-15.07-7.16-19.91-1.82-2.59-3.34-4.32-3.64-4.65l-.02-.02c-.06.02-.12.05-.18.07-.08.03-.15.06-.23.08-.14.05-.28.11-.42.16-.29.11-.58.23-.88.35-.1.04-.21.08-.31.12-3.3 1.29-11.06 3.59-11.93 4.22-.5.36-.8 3.27-2.11 7.45-2.68 8.59-4.27 21.54-4.35 24.78v.15c-.02.36.68 1.85 1.81 4.01zm13.18-1.62c0 1.62-.52 3.46-1.33 5.43l-.06.15c-.56-1.19-1.08-2.32-1.55-3.38-1.29-2.89-2.18-5.14-2.23-6.03-.32-5.73 3.9-12.33 3.9-12.33v.02c0 .01.01.02.01.03.01.02.01.04.02.06 0 .01.01.03.01.04 0 .01.01.02.01.03.86 3.41 1.22 15.98 1.22 15.98zm64.54-11.96l-19.65 4.28-9.36-24.49c-.21-.17-2.89-1.61-4.67-2.45-1.85-.88-4.19-1.97-6.27-2.93-.99-.46-1.93-.89-2.72-1.25l-.07.05s1.16 3.86 2.66 13.5c.05.32.1.65.15.99 0 .04.01.08.02.12.03.22.07.45.1.68 0 .03.01.05.01.08.02.15.05.31.07.47.06.38.11.77.17 1.16.67 4.69 1.61 12.67 2.51 20.73.71 6.35 2.34 12.87 2.85 17.73v.01c.1.95.35 2.22.68 3.66.04.16.08.33.11.49 1.45 6.14 4.28 14.83 4.28 14.83l.82-.76 2.43-2.25c.56-.52.77-1.31.55-2.03-1.35-4.35-5.94-19.76-6.78-30.6v-.01c-.26-3.4.73-6.61 1.31-9.65.01.03.02.05.03.08.48 1.34 1.02 2.8 1.56 4.23 1.45 3.82 2.93 7.36 3.55 7.58 1.37.5 27.24-6.57 27.42-7.58l-1.76-6.67z"/><path d="M170.6 247.47l4.01 2.26-1.71 1.75 4.56 24.63c.93-5.77 1.35-11.25 1.67-14.61 1.05-11.19-10.12-23.81-10.81-24.58-.54.2-1.12.43-1.72.67l4 9.88zm14.06-9.64s1.5 4.89 3.24 17.1c.67 4.69 1.61 12.68 2.51 20.73l.93-23.06-1.91-2.07 1.7-2.12-3.63-9.28c-.99-.46-1.93-.89-2.72-1.25l-.12-.05z" fill="#4e70a6"/><path d="M168.11 236.96l3.32-2.02s.09 1.82 8.33 6.58l-2.34 6.58-9.31-11.14zm13.84-1.1s-.13 1.97-2.19 5.67l4.56 5.95.33-9.65-2.7-1.97z" fill="#f5e2d9"/><path class="st46" d="M179.75 241.53s-.88 3.54-.57 4.53c0 0 1.94.71 3.34-.18.01 0-.98-2.48-2.77-4.35z"/><path d="M184.32 292.54c.5-2.5.02-9.97 0-10.29l-.42.03c0 .08.49 7.74 0 10.18l.42.08z" fill="#ad9f99"/><path d="M180.86 291.39s3.99.48 5.31.81l-.17 4.47-5.23-.56.09-4.72z" fill="#69737a"/><path class="st46" d="M181.73 245.56s4.45 11.24 3.72 23.82c-.75 13.04-1.99 17.77-1.99 17.77l-2.74 3.44-1.21-4.23s3.68-16.63 1.3-32.81c-.43-2.93-1.07-8.49-1.07-8.49l1.99.5z"/><path class="st25" d="M168.36 298.64s.95 1.91 1.91 2.23c.95.32 2.35 1.87 2.35 1.87l-6.72 3.54s-1.79-3.5-1.87-5.73c-.09-2.23 4.33-1.91 4.33-1.91z"/><path class="st40" d="M169 298.82l.45.9s-4.27 3.12-5.42 3.32l-.4-1.19 5.37-3.03z"/><path class="st43" d="M169.44 298.86s-3.2 2.65-5.9 3.87l-9.07-16.31 4.7-9.09c.01-.01 10.06 19.93 10.27 21.53z"/><path d="M196.54 261.39c.15 3.02.13 5.7.13 5.7 0 .02 0 .1.01.23.01-.05.01-.1.02-.15.48 1.34 1.02 2.8 1.56 4.23.13-1.65.16-3.18.12-4.61-.22-8.46-2.88-12.9-2.88-12.9.61 1.48.9 4.64 1.04 7.5zm-40.64 31.86l7.26 8.77-6.22-10.75c-.36.66-.71 1.32-1.04 1.98z" fill="#2f4363"/><path class="st46" d="M208.63 282.25h16.76c1.15 0 2.15-.79 2.42-1.9l7.28-30.07c.38-1.57-.81-3.08-2.42-3.08h-16.76c-1.15 0-2.15.79-2.42 1.9l-7.28 30.07c-.38 1.57.81 3.08 2.42 3.08z"/><path class="st25" d="M229.14 273.89c-.82-.76-2.4-1.2-3.76-2.11-1.35-.9-.22-1.84-.22-1.84-1.39-.48-1.24-1.11-1.07-1.55.24-.58 1.76-.42 1.76-.42s-1.36-.3-1.92-.55c-.56-.25-.37-1.23.49-1.53.86-.31 4.38.56 4.38.56s-.57-.28-2.31-1.15c-1.73-.87-2.12-1.66-1.09-2.04.71-.27 2.11.29 4.79 2.09 2.02 1.36 1.85 1.53 1.85 1.53s-1.92 7.92-2.9 7.01z"/></svg>