<svg version="1.1" id="Layer_1" xmlns="http://www.w3.org/2000/svg" x="0" y="0" viewBox="0 0 610 410" xml:space="preserve"><style>.st0{fill:#ececec}.st1{fill:#fff}.st2{fill:#c8c8c8}.st3,.st5{fill:none;stroke:#ececec;stroke-miterlimit:10}.st5{stroke:#c8c8c8}.st6{fill:#dcdcdc}.st7{fill:#ae47b0}.st8{fill:#1a2e35}.st9{fill:#375a64}.st10{fill:#2b454e}.st14{fill:#a8a8a8}.st15{fill:#ce69c7}.st16{opacity:.1}.st17{fill:#fb6a55}.st19{fill:#ffc800}</style><path class="st0" d="M429.93 68.72c3.56-.09 7.18-.21 10.86-.28l5.53-.11c1.85-.05 3.71-.04 5.56-.05h.44v.45l.05 9.28v.5h-.5l-10.98-.06c-3.66 0-7.32-.11-10.98-.16h-.28v-.27c.02-1.58.09-3.15.13-4.7l.17-4.6zm0 0l.14 4.7c.05 1.54.11 3.07.13 4.58l-.27-.27c3.66-.05 7.32-.16 10.98-.16l10.98-.06-.5.5.05-9.28.45.45c-1.8-.02-3.6-.01-5.41-.05l-5.46-.13-11.09-.28zm12.24-11.69c3.56-.09 7.18-.21 10.86-.28l5.53-.11c1.85-.05 3.71-.04 5.56-.05h.44v.45l.05 9.28v.5h-.5l-10.98-.06c-3.66 0-7.32-.11-10.98-.16h-.28v-.27c.02-1.58.09-3.15.13-4.7l.17-4.6zm0 0l.14 4.7c.05 1.54.11 3.07.13 4.58l-.27-.27c3.66-.05 7.32-.16 10.98-.16l10.98-.06-.5.5.05-9.28.45.45c-1.8-.02-3.6-.01-5.41-.05l-5.45-.11-11.1-.3zm-24.49 0c3.56-.09 7.18-.21 10.86-.28l5.53-.11c1.85-.05 3.71-.04 5.56-.05h.44v.45l.05 9.28v.5h-.5l-10.98-.06c-3.66 0-7.32-.11-10.98-.16h-.28v-.27c.02-1.58.09-3.15.13-4.7l.17-4.6zm0 0l.14 4.7c.05 1.54.11 3.07.13 4.58l-.27-.27c3.66-.05 7.32-.16 10.98-.16l10.98-.06-.5.5.05-9.28.45.45c-1.8-.02-3.6-.01-5.41-.05l-5.45-.11-11.1-.3zm-266.34 0c3.56-.09 7.18-.21 10.86-.28l5.53-.11c1.85-.05 3.71-.04 5.56-.05h.44v.45l.05 9.28v.5h-.5l-10.98-.06c-3.66 0-7.32-.11-10.98-.16h-.28v-.27c.02-1.58.09-3.15.13-4.7l.17-4.6zm0 0l.14 4.7c.05 1.54.11 3.07.13 4.58l-.27-.27c3.66-.05 7.32-.16 10.98-.16l10.98-.06-.5.5.05-9.28.45.45c-1.8-.02-3.6-.01-5.41-.05l-5.45-.11-11.1-.3zm0 248c3.56-.09 7.18-.21 10.86-.28l5.53-.11c1.85-.05 3.71-.04 5.56-.05h.44v.45l.05 9.28v.5h-.5l-10.98-.06c-3.66-.01-7.32-.11-10.98-.16h-.28v-.27c.02-1.58.09-3.15.13-4.7l.17-4.6zm0 0l.14 4.7c.05 1.54.11 3.07.13 4.58l-.27-.27c3.66-.05 7.32-.16 10.98-.16l10.98-.06-.5.5.05-9.28.45.45c-1.8-.02-3.6-.01-5.41-.05l-5.45-.11-11.1-.3zm-12.25-11.69c3.56-.09 7.18-.21 10.86-.28l5.53-.11c1.85-.05 3.71-.04 5.56-.05h.44v.45l.05 9.28v.5h-.5l-10.98-.06c-3.66-.01-7.32-.11-10.98-.16h-.28v-.27c.02-1.58.09-3.15.13-4.7l.17-4.6zm0 0l.14 4.7c.05 1.54.11 3.07.13 4.58l-.27-.27c3.66-.05 7.32-.16 10.98-.16l10.98-.06-.5.5.05-9.28.45.45c-1.8-.02-3.6-.01-5.41-.05l-5.45-.11-11.1-.3zm303.08 11.68c3.56-.09 7.18-.21 10.86-.28l5.53-.11c1.85-.05 3.71-.04 5.56-.05h.44v.45l.05 9.28v.5h-.5l-10.98-.06c-3.66-.01-7.32-.11-10.98-.16h-.28v-.27c.02-1.58.09-3.15.13-4.7l.17-4.6zm0 0l.14 4.7c.05 1.54.11 3.07.13 4.58l-.27-.27c3.66-.05 7.32-.16 10.98-.16l10.98-.06-.5.5.05-9.28.45.45c-1.8-.02-3.6-.01-5.41-.05l-5.45-.11-11.1-.3zm-65.12-148.44c-3.56.09-7.18.21-10.86.28l-5.53.11c-1.85.05-3.71.04-5.56.05h-.44v-.45l-.05-9.28v-.5h.5l10.98.06c3.66.01 7.32.11 10.98.16h.28v.27c-.02 1.58-.09 3.15-.13 4.7l-.17 4.6zm0 0l-.14-4.7c-.05-1.54-.11-3.07-.13-4.58l.27.27c-3.66.05-7.32.16-10.98.16l-10.98.06.5-.5-.05 9.28-.45-.45c1.8.02 3.6.01 5.41.05l5.45.11 11.1.3zm-159.88 65.14c-3.56.09-7.18.21-10.86.28l-5.53.11c-1.85.05-3.71.04-5.56.05h-.44v-.45l-.05-9.28v-.5h.5l10.98.06c3.66.01 7.32.11 10.98.16h.28v.27c-.02 1.58-.09 3.15-.13 4.7l-.17 4.6zm0 0l-.14-4.7c-.05-1.54-.11-3.07-.13-4.58l.27.27c-3.66.05-7.32.16-10.98.16l-10.98.06.5-.5-.05 9.28-.45-.45c1.8.02 3.6.01 5.41.05l5.45.11 11.1.3zm147.64-53.45c-3.56.09-7.18.21-10.86.28l-5.53.11c-1.85.05-3.71.04-5.56.05h-.44v-.45l-.05-9.28v-.5h.5l10.98.06c3.66.01 7.32.11 10.98.16h.28v.27c-.02 1.58-.09 3.15-.13 4.7l-.17 4.6zm0 0l-.14-4.7c-.05-1.54-.11-3.07-.13-4.58l.27.27c-3.66.05-7.32.16-10.98.16l-10.98.06.5-.5-.05 9.28-.45-.45c1.8.02 3.6.01 5.41.05l5.45.11 11.1.3z"/><path class="st0" d="M406.11 65.8h45.96v55.75h-45.96z"/><path class="st1" d="M411.36 70.89h35.46v45.58h-35.46z"/><path class="st2" d="M411.36 70.89h1.38v45.58h-1.38zm40.71-5.09h1.38v55.75h-1.38z"/><path transform="rotate(-180 434.06 93.882)" class="st0" d="M429.88 81.43h8.36v24.91h-8.36z"/><path transform="rotate(-180 430.74 83.273)" class="st3" d="M419.59 77.17h22.29v12.2h-22.29z"/><path class="st0" d="M406.11 203.2h45.96v55.75h-45.96z"/><path class="st1" d="M411.36 208.29h35.46v45.58h-35.46z"/><path class="st2" d="M411.36 208.29h1.38v45.58h-1.38zm40.71-5.09h1.38v55.75h-1.38z"/><path class="st0" d="M423.24 218.83h8.36v24.91h-8.36z"/><path class="st3" d="M419.59 214.57h22.29v12.2h-22.29z"/><path class="st0" d="M406.11 134.75h45.96v55.75h-45.96z"/><path class="st1" d="M411.36 139.84h35.46v45.58h-35.46z"/><path class="st2" d="M411.36 139.84h1.38v45.58h-1.38zm40.71-5.09h1.38v55.75h-1.38z"/><path class="st0" d="M425.65 151.62h7.16v18.11h-7.16z"/><path fill="none" stroke="#dcdcdc" stroke-miterlimit="10" d="M421.12 162.63h19.24v12.48h-19.24z"/><path class="st5" d="M159.01 98.68V14.27"/><path class="st0" d="M186.89 125.56l-2.24 4.92h-51.28l-2.24-4.92 21.83-15.12h12.1z"/><path class="st6" d="M166.57 95.88l-1.51 14.56h-12.1l-1.51-14.56zm20.32 29.68l-2.24 4.93h-51.29l-2.23-4.93z"/><path class="st5" d="M218.72 61.99V14.27"/><path class="st0" d="M246.6 88.87l-2.24 4.93h-51.28l-2.24-4.93 21.84-15.11h12.09z"/><path class="st6" d="M226.29 59.2l-1.52 14.56h-12.09l-1.52-14.56zm20.31 29.67l-2.24 4.93h-51.28l-2.24-4.93z"/><path class="st7" d="M169.04 328.68c-1.02 2.91-2.07 5.77-2.54 8.82.07.16-.01.71-.08.55-.07.49-.81.32-.76-.16.04-.32.08-.63.13-.94-1.53-2.36-3.93-4.01-5.79-6.12-1.5-1.71-2.5-3.66-2.9-5.92-1.09-6.07 1.17-12.14-.26-18.23-1.24-5.25-3.95-9.99-6.16-14.86-2.33-5.15-3.88-10.47-3.49-16.18.29-4.37 1.42-10.11 5.08-13.02 3.88-3.09 7.96-.04 10.33 3.33 6.86 9.77 9.27 21.47 9.51 33.19.13 6.49.29 13.02-.59 19.46-.48 3.45-1.33 6.79-2.48 10.08z"/><path class="st8" d="M166.29 339.85c1.04-6.01 1.66-12.07 1.7-18.16.01-.02.03-.03.04-.06.62-4.89 1.52-9.73 1.84-14.66.35-5.35.12-10.66-.5-15.99-.01-.06-.1-.06-.1.01.43 5.18.44 10.41.08 15.59-.19 2.78-.5 5.55-.94 8.3-.14.9-.32 1.79-.48 2.7v-.01c-.52-14-4.23-27.63-10.52-40.14-.09-.17-.39-.03-.3.14 4.48 9.41 7.45 19.54 8.85 29.87-3.02-7.34-8.08-13.66-11.58-20.78-.02-.04-.08-.01-.07.03 2.99 7.83 8.61 14.35 11.82 22.1.38 3.06.62 6.13.72 9.21.14 4.22-.03 8.44-.42 12.64-1.83-4.51-3.77-8.85-5.17-13.56-.04-.13-.22-.06-.19.06 1.1 4.86 2.7 10.14 5.27 14.46-.3 2.97-.7 5.93-1.19 8.88-1.3 7.87-3.48 15.54-4.94 23.37-.04.24.29.3.36.08 2.51-7.8 4.33-16.02 5.72-24.08z"/><path class="st8" d="M164.32 277.9c-.02-.06-.11-.03-.09.03 1.02 4.15 1.41 8.29 2.03 12.5.03.19.3.18.3-.02.02-4.2-1.03-8.5-2.24-12.51z"/><path class="st7" d="M199.28 298.54c-1.18 2.25-2.59 4.4-4.05 6.48-3.1 4.45-6.28 8.5-7.35 13.96-.48 2.44-.82 4.9-1.82 7.19-.86 1.98-2.11 3.76-3.51 5.41-3.26 3.81-7.16 6.99-10.22 10.98a50.357 50.357 0 00-7.47 13.74c-.09.27-.52.15-.43-.12.01-.02.02-.04.02-.06-.01-.01-.02-.03-.02-.06.83-11.85 3.03-23.65 7.82-34.58 2.1-4.78 4.56-9.49 7.26-13.96 2.36-3.9 5.18-7.59 8.89-10.3 2.41-1.75 7.57-5 10.49-2.68 1.41 1.09 1.14 2.59.39 4z"/><path class="st8" d="M184.59 324.05c-2.39 3.25-5.13 6.22-7.9 9.14-1.3 1.37-2.62 2.73-3.91 4.1-.61.65-1.29 1.29-1.87 1.99.44-1.21.88-2.42 1.33-3.63 2.15-5.81 4.25-11.67 7.13-17.17 2.81-5.37 6.31-10.33 9.89-15.21.09-.13-.12-.25-.21-.13-2.93 3.84-5.89 7.67-8.45 11.78-1.43 2.29-2.67 4.68-3.81 7.11 1.59-5.32 3.36-10.39 5.7-15.46.02-.04-.04-.09-.07-.04-2.72 4.92-4.9 10.54-5.92 16.08 0 .01 0 .02.01.03-.67 1.48-1.31 2.98-1.91 4.49-2.56 6.41-4.89 12.91-7.11 19.45.49-4.42 1.23-8.73 2.52-13.01.03-.1-.12-.14-.15-.04-1.57 4.38-2.57 9.06-2.6 13.72-.84 2.49-1.67 4.98-2.48 7.47-1.73 5.32-3.74 10.71-5.01 16.16-.03.14.16.19.21.06 1.12-2.89 1.94-5.93 2.92-8.88.98-2.96 1.99-5.9 3.01-8.85 1.49-4.28 3.03-8.55 4.58-12.81.9-1.53 2.47-2.8 3.67-4.04 1.32-1.35 2.64-2.71 3.93-4.09 2.4-2.57 4.64-5.27 6.61-8.19.03-.03-.07-.08-.11-.03z"/><path class="st8" d="M185.63 319.06c-2.91 3.02-5.62 6.41-7.84 9.96-.03.05.04.1.08.06 2.63-3.3 5.23-6.64 7.86-9.94.04-.06-.05-.13-.1-.08z"/><path class="st7" d="M136.47 303.23c1.25 2.8 2.67 6.15 1.67 9.24-.63 1.96-2.27 3.43-2.75 5.45-1.07 4.45 3.11 7.9 6.14 10.38 7.55 6.17 18.17 12.09 18.5 23.11.02.39.69.36.68-.02 0-.02 0-.05-.01-.07.02-.02.04-.03.05-.06 1.63-5.39 2.2-11 1.6-16.61-.62-5.73-2.53-11.02-4.9-16.24-4-8.84-8.27-17.91-14.98-25.06-1.86-1.98-5.7-5.59-7.75-1.78-1.98 3.7.22 8.25 1.75 11.66z"/><path class="st8" d="M142.03 321.67c4.76 6.39 12.96 10.55 16.9 17.56-1.69-10.28-5.28-19.74-11.43-28.28-.16-.22.15-.47.33-.27 4.59 5.45 7.77 11.58 9.87 18.1-.77-4.58-2.06-8.96-3.66-13.36-.06-.17.18-.28.25-.11 2.13 4.7 3.33 9.86 3.89 14.99 4.54 15.4 3.28 32.77.36 48.2-.04.22-.38.19-.35-.04 1.64-12.22 2.76-24.72 1.08-37-.04-.26-.08-.51-.11-.77-4.29-7.55-12.46-11.7-17.23-18.94-.05-.07.05-.15.1-.08z"/><path class="st8" d="M141.31 316.54c2.55 2.89 5.05 5.83 7.6 8.71.03.03-.02.08-.05.05-2.86-2.41-5.69-5.49-7.74-8.61-.08-.13.09-.27.19-.15zm.74-11.27c2.13 4.38 4.41 8.51 7.22 12.5.04.05-.04.11-.08.06-3.08-3.66-5.7-7.98-7.3-12.49-.04-.1.11-.17.16-.07z"/><path class="st9" d="M150.2 389.8h24.86l-3.35-33.44h-17.68z"/><path class="st8" d="M153.41 361.8h18.85l-.55-5.44h-17.68z"/><path transform="rotate(-180 162.632 355.33)" class="st9" d="M150.98 352.66h23.3V358h-23.3z"/><path class="st8" d="M133.94 389.8l41.92-.24 41.91-.09 83.84-.16 83.83.16 41.92.09 41.92.24-41.92.25-41.92.09-83.83.16-83.84-.16-41.91-.09z"/><path class="st10" d="M323.84 72.87H183.69c-7.83 0-14.18 6.46-14.18 14.44V375.8c0 7.97 6.35 14.44 14.18 14.44h140.15c7.83 0 14.19-6.47 14.19-14.44V87.31c0-7.98-6.37-14.44-14.19-14.44zm5.32 294.01c0 7.59-5.69 13.74-12.7 13.74H191.09c-7.03 0-12.72-6.14-12.72-13.74V98.25c0-15.47 5.69-16.22 12.72-16.22h25.12c1.46 0 2.65 1.66 2.65 3.71v.89c0 4.82 2.64 4.83 5.87 4.83h58.08c3.27 0 5.89-.02 5.89-4.83v-.89c0-2.06 1.18-3.71 2.66-3.71h25.11c7.01 0 12.7 2.06 12.7 16.22v268.63z"/><path fill="none" d="M178.37 349.86h-.47"/><path class="st1" d="M329.17 98.48v268.64c0 7.59-5.69 13.74-12.7 13.74H191.1c-7.03 0-12.72-6.14-12.72-13.74V98.48c0-15.47 5.69-16.22 12.72-16.22h25.12c1.46 0 2.65 1.66 2.65 3.71v.89c0 4.82 2.64 4.83 5.87 4.83h58.08c3.27 0 5.89-.02 5.89-4.83v-.89c0-2.06 1.18-3.71 2.66-3.71h25.11c7 0 12.69 2.05 12.69 16.22z"/><path d="M329.17 132.76v234.36c0 7.59-5.69 13.73-12.69 13.73H191.09c-7.03 0-12.71-6.14-12.71-13.73V191.29c33.01-4.23 66.16 43.97 96.86 29.76 28.12-13.01 26.85-54.18 37.28-72.94 3.69-6.61 9.15-11.92 16.65-15.35z" opacity=".1" fill="#ffc800"/><path d="M329.17 287.07v80.05c0 7.59-5.69 13.73-12.69 13.73H191.09c-7.03 0-12.71-6.14-12.71-13.73V262.46c17.91 31.29 37.94 40.3 56.19 35.67 20.82-5.27 50.62-32.24 78.67-22.87 6.76 2.27 11.9 6.42 15.93 11.81z" opacity=".2" fill="#e4b0e2"/><path class="st8" d="M261.69 85.44h-15.84c-.54 0-.98-.44-.98-.98s.44-.98.98-.98h15.84c.54 0 .98.44.98.98s-.44.98-.98.98z"/><g id="u5Zjqx_2_"><path class="st8" d="M211.87 88.06l-.24.24-.14.14c-.65-.63-1.43-.97-2.34-.97-.91 0-1.68.34-2.34.97-.04-.05-.09-.09-.13-.14l-.24-.24h-.01v-.01c.01 0 .01-.01.02-.01.1-.09.2-.18.31-.27.22-.18.46-.33.71-.45.3-.15.61-.26.94-.32.16-.03.31-.04.47-.06.05-.01.4-.01.41-.01.11.01.21.01.32.02.3.03.58.1.86.21a3.835 3.835 0 011.4.9c0-.01 0-.01 0 0z"/><path class="st8" d="M207.58 89.2l-.38-.38c.44-.43.95-.7 1.56-.78.91-.12 1.69.15 2.35.78l-.38.38c-.43-.42-.96-.65-1.57-.65-.62 0-1.14.22-1.58.65z"/><path class="st8" d="M210.33 89.58l-.38.38c-.22-.21-.49-.33-.8-.33-.31 0-.58.12-.8.34l-.38-.38c.6-.64 1.69-.69 2.36-.01zm-.84.73c0 .19-.15.34-.34.34-.19 0-.34-.15-.34-.34 0-.19.15-.34.34-.34.19-.01.34.15.34.34z"/></g><path class="st8" d="M188.21 88.79c0-.55.45-1 1-1s1 .45 1 1-.45 1-1 1-1-.45-1-1zm3.14 0c0-.55.45-1 1-1s1 .45 1 1-.45 1-1 1-1-.45-1-1zm3.15 0c0-.55.45-1 1-1s1 .45 1 1-.45 1-1 1-1-.45-1-1zm3.15 0c0-.55.45-1 1-1s1 .45 1 1-.45 1-1 1-1-.45-1-1zm3.15 0c0-.55.45-1 1-1s1 .45 1 1-.45 1-1 1c-.56 0-1-.45-1-1zm117.05 2.18h-8.14V87.2h8.14v3.77zm-7.72-.41h7.31v-2.94h-7.31v2.94z"/><path class="st8" d="M310.39 87.84h5.24v2.49h-5.24zm7.47.24h.72v2.02h-.72zm-88.31 62.93v2.01h-11v-2.01h4.61v-13.88c-.17.26-.47.54-.89.84-.42.3-.89.58-1.39.84-.51.26-1.03.48-1.57.65-.54.17-1.02.26-1.43.26v-2.14c.5 0 1.04-.14 1.64-.42.59-.28 1.16-.61 1.69-.97.53-.37.98-.71 1.35-1.04.37-.32.57-.54.62-.65h2.27v16.51h4.1zm18.78-7.49c0 1.43-.21 2.74-.62 3.94-.41 1.2-.98 2.24-1.7 3.11-.72.88-1.58 1.56-2.58 2.04-.99.49-2.08.73-3.24.73-1.17 0-2.25-.24-3.24-.73a7.936 7.936 0 01-2.58-2.04c-.72-.88-1.29-1.91-1.7-3.11-.41-1.2-.62-2.51-.62-3.94 0-1.43.21-2.74.62-3.94.41-1.2.98-2.24 1.7-3.11.72-.88 1.58-1.56 2.58-2.06.99-.5 2.08-.75 3.24-.75 1.17 0 2.25.25 3.24.75.99.5 1.85 1.18 2.58 2.06.72.88 1.29 1.91 1.7 3.11.41 1.2.62 2.51.62 3.94zm-2.24 0c0-1.17-.15-2.23-.44-3.18-.29-.95-.7-1.77-1.22-2.45a5.641 5.641 0 00-1.86-1.59c-.72-.38-1.52-.57-2.38-.57-.89 0-1.69.19-2.42.57-.72.38-1.35.91-1.86 1.59-.52.68-.92 1.5-1.22 2.45-.29.95-.44 2.01-.44 3.18 0 1.17.15 2.23.44 3.18.29.95.7 1.77 1.22 2.45.52.68 1.14 1.21 1.86 1.57.72.37 1.53.55 2.42.55.86 0 1.66-.18 2.38-.55.72-.37 1.35-.89 1.86-1.57.52-.68.92-1.5 1.22-2.45.3-.96.44-2.02.44-3.18zm6.13-4.12v-3.18h1.88v3.18h-1.88zm0 13.62v-3.18h1.88v3.18h-1.88zm15.12-7.65c1.43.24 2.57.89 3.42 1.95.85 1.06 1.28 2.37 1.28 3.92 0 .97-.18 1.87-.54 2.68-.36.81-.87 1.5-1.52 2.08-.66.57-1.45 1.02-2.37 1.33-.92.31-1.94.47-3.07.47-1.64 0-3.08-.33-4.31-.99-1.23-.66-2.16-1.57-2.79-2.74l1.52-1.39c.45.95 1.15 1.71 2.08 2.27.93.56 2.1.84 3.5.84 1.62 0 2.9-.39 3.83-1.18.93-.79 1.39-1.92 1.39-3.39 0-1.49-.49-2.67-1.46-3.54-.97-.86-2.38-1.3-4.22-1.3h-.81v-1.88h.88c1.66 0 2.94-.38 3.83-1.15.89-.77 1.33-1.77 1.33-3 0-.65-.12-1.22-.36-1.72s-.57-.91-.99-1.25c-.42-.33-.92-.59-1.49-.76-.57-.17-1.19-.26-1.87-.26-1.23 0-2.32.28-3.26.83-.94.55-1.65 1.31-2.12 2.29l-1.43-1.36c.26-.56.63-1.08 1.1-1.54.48-.46 1.02-.86 1.62-1.18.6-.32 1.28-.58 2.01-.76.73-.18 1.49-.28 2.27-.28.99 0 1.91.14 2.74.42.83.28 1.55.68 2.16 1.18.6.51 1.08 1.12 1.41 1.83.33.71.5 1.5.5 2.37 0 .65-.1 1.27-.29 1.87-.19.6-.48 1.12-.84 1.59-.37.47-.82.85-1.35 1.17-.51.29-1.11.49-1.78.58zm17.74 11.77v-5.77h-10.8v-1.95l11.51-14.92h1.49v14.86h2.85v2.01h-2.85v5.77h-2.2zm-8.47-7.78h8.69v-11.38l-8.69 11.38zm-50.51 13.6h-2.39v6.12h-.66v-6.12h-2.39v-.58h5.44v.58zm1.4 6.21c-.53 0-.93-.18-1.19-.53-.26-.36-.39-.89-.39-1.59v-2.89h.64v2.77c0 1.11.38 1.67 1.14 1.67.19 0 .37-.03.56-.09.18-.06.35-.15.51-.27.15-.12.29-.26.42-.42.12-.16.22-.35.3-.56v-3.1h.64v4.09c0 .18.08.26.23.26v.57c-.08.01-.14.02-.18.02h-.1a.548.548 0 01-.37-.16.598.598 0 01-.14-.41v-.57c-.21.38-.5.68-.87.89-.4.21-.79.32-1.2.32zm6.19 0c-.36 0-.69-.07-.99-.2-.3-.14-.56-.32-.78-.56-.22-.24-.39-.51-.51-.82-.12-.31-.18-.64-.18-.99s.06-.67.18-.98c.12-.3.29-.57.51-.8.22-.23.48-.41.78-.55.3-.14.63-.2.98-.2.36 0 .69.07.99.2.3.14.55.32.77.55.21.23.38.5.5.8.12.3.18.62.18.96v.15c0 .05 0 .08-.01.1h-4.21c.02.26.08.51.18.73.1.22.24.42.4.58.16.16.35.29.56.38.21.09.44.14.67.14.16 0 .31-.02.47-.07.16-.04.3-.1.43-.18.13-.08.25-.17.36-.28.11-.11.19-.23.25-.36l.56.15c-.08.18-.18.35-.32.5-.14.15-.3.28-.48.39-.18.11-.38.2-.6.25-.22.08-.45.11-.69.11zm1.81-2.81c-.02-.26-.08-.5-.18-.72-.1-.22-.24-.4-.4-.56-.16-.16-.35-.28-.56-.37-.21-.09-.44-.13-.67-.13-.24 0-.47.04-.68.13a1.763 1.763 0 00-.95.94c-.1.22-.16.46-.17.72h3.61zm3.24 2.81c-.38 0-.76-.06-1.12-.19-.37-.13-.68-.31-.94-.55l.29-.43c.28.23.56.4.84.51.29.11.59.17.92.17.4 0 .71-.08.95-.24.24-.16.35-.39.35-.68 0-.14-.03-.25-.09-.34a.843.843 0 00-.28-.24c-.12-.07-.28-.13-.46-.18-.19-.05-.4-.11-.65-.16-.28-.07-.53-.14-.74-.21-.21-.07-.38-.15-.51-.24a.785.785 0 01-.3-.33c-.07-.13-.1-.29-.1-.49a1.356 1.356 0 01.55-1.12c.17-.12.36-.22.59-.28.22-.06.46-.09.71-.09.38 0 .72.06 1.03.18.31.12.56.28.75.49l-.31.38c-.18-.19-.4-.33-.67-.42-.26-.09-.53-.14-.82-.14-.17 0-.33.02-.47.05-.14.03-.27.09-.38.17-.11.08-.2.17-.26.29-.06.12-.09.25-.09.41 0 .13.02.24.07.32.04.08.12.15.22.21s.23.11.38.16.34.1.56.15c.31.08.59.15.83.23.24.08.44.16.6.26s.28.22.36.37c.08.14.12.32.12.53 0 .45-.17.81-.52 1.08-.36.24-.83.37-1.41.37zm4.98 0c-.34 0-.65-.07-.94-.21a2.456 2.456 0 01-1.24-1.37 2.59 2.59 0 01-.17-.96c0-.35.06-.67.17-.99.11-.31.27-.58.47-.82.2-.23.43-.42.71-.55.27-.14.57-.2.9-.2.42 0 .78.11 1.1.33.32.22.57.48.76.79v-3h.64v6.06c0 .18.08.26.23.26v.57c-.09.02-.17.03-.23.03-.15 0-.28-.05-.4-.15a.47.47 0 01-.17-.35v-.48c-.2.32-.46.58-.79.76-.34.19-.68.28-1.04.28zm.14-.57c.16 0 .33-.03.5-.09.18-.06.35-.15.5-.26.16-.11.29-.24.4-.39.11-.15.18-.31.2-.48v-1.52a1.64 1.64 0 00-.27-.48c-.12-.15-.26-.28-.41-.39-.15-.11-.32-.2-.5-.26s-.35-.09-.52-.09c-.26 0-.5.06-.72.17-.21.11-.4.26-.55.45-.15.19-.27.4-.35.64-.08.24-.12.48-.12.74s.05.52.14.76c.09.24.22.45.39.63.16.18.36.32.58.43.23.09.47.14.73.14zm4.95.57c-.23 0-.45-.04-.65-.12-.2-.08-.37-.19-.52-.33-.15-.14-.26-.3-.34-.49a1.53 1.53 0 01-.12-.6c0-.21.05-.41.15-.59.1-.18.24-.34.42-.47s.4-.23.65-.31c.25-.07.53-.11.83-.11.25 0 .51.02.76.07.26.04.49.11.69.19v-.44c0-.43-.12-.78-.37-1.03s-.58-.38-1.02-.38c-.25 0-.51.05-.77.15-.26.1-.53.25-.8.43l-.23-.42c.64-.43 1.25-.64 1.85-.64.62 0 1.1.17 1.45.52.35.35.53.82.53 1.43v2.22c0 .18.08.26.24.26v.57c-.11.02-.19.03-.25.03-.16 0-.29-.04-.38-.12a.49.49 0 01-.15-.34l-.02-.39c-.23.3-.51.52-.85.68-.34.15-.71.23-1.1.23zm.15-.49c.33 0 .64-.06.92-.19s.49-.29.64-.5c.06-.06.1-.12.13-.18.03-.07.04-.13.04-.18v-.8c-.21-.08-.44-.14-.67-.19-.23-.04-.46-.07-.7-.07-.45 0-.82.09-1.1.28-.28.19-.42.44-.42.75 0 .15.03.29.09.42s.14.25.25.34c.1.1.23.17.37.23.13.06.28.09.45.09zm3.91 1.91c.05.01.1.01.15.01h.14c.11 0 .2-.02.27-.05.07-.03.13-.1.19-.21.06-.11.13-.26.21-.46.08-.2.19-.47.34-.81l-2.14-4.92h.66l1.82 4.32 1.69-4.32h.61l-2.55 6.34c-.07.18-.18.34-.34.48-.16.14-.38.2-.66.2h-.18c-.06 0-.13-.01-.21-.02v-.56zm4.49-.75l.16-.79h-.22v-.9h.62v.9l-.24.79h-.32zm8.99-2.97c0 .32-.06.62-.18.9s-.29.52-.51.73c-.21.21-.47.37-.76.49-.29.12-.6.18-.93.18-.35 0-.68-.06-.97-.19-.3-.13-.55-.31-.76-.55-.21-.24-.38-.53-.5-.88s-.18-.74-.18-1.17c0-.68.06-1.27.18-1.78s.29-.93.5-1.26c.22-.34.48-.59.78-.75.3-.16.64-.25 1.01-.25.45 0 .85.11 1.2.33.35.22.62.53.8.92l-.41.38a1.68 1.68 0 00-1.58-1.06c-.28 0-.53.07-.75.2-.23.13-.42.32-.58.57-.16.25-.29.56-.38.92-.09.37-.14.78-.14 1.24.14-.37.38-.67.71-.89.34-.22.72-.33 1.15-.33.32 0 .62.06.9.17.28.12.52.28.73.48.21.2.37.44.49.72.12.27.18.56.18.88zm-2.36 1.73c.24 0 .46-.05.67-.14a1.748 1.748 0 00.94-.92 1.675 1.675 0 000-1.34 1.748 1.748 0 00-.94-.92c-.21-.09-.44-.14-.68-.14-.24 0-.46.05-.67.14a1.748 1.748 0 00-.94.92 1.675 1.675 0 000 1.34c.09.21.22.39.38.55.16.16.35.29.56.38.22.09.44.13.68.13zm11.95.48v-5.5l-2.44 4.26h-.39l-2.44-4.26v5.5h-.66v-6.7h.68l2.61 4.59 2.63-4.59h.67v6.7h-.66zm3.4.09c-.23 0-.45-.04-.65-.12-.2-.08-.37-.19-.52-.33-.15-.14-.26-.3-.34-.49a1.53 1.53 0 01-.12-.6c0-.21.05-.41.15-.59.1-.18.24-.34.42-.47.18-.13.4-.23.65-.31.25-.07.53-.11.83-.11.25 0 .51.02.76.07.26.04.49.11.69.19v-.44c0-.43-.12-.78-.37-1.03s-.59-.38-1.02-.38c-.25 0-.51.05-.77.15-.26.1-.53.25-.8.43l-.23-.42c.64-.43 1.25-.64 1.85-.64.62 0 1.1.17 1.45.52.35.35.53.82.53 1.43v2.22c0 .18.08.26.24.26v.57c-.11.02-.19.03-.25.03-.16 0-.29-.04-.38-.12a.49.49 0 01-.15-.34l-.02-.39c-.23.3-.51.52-.85.68-.33.15-.7.23-1.1.23zm.15-.49c.33 0 .64-.06.92-.19s.49-.29.64-.5c.06-.06.1-.12.13-.18.03-.07.04-.13.04-.18v-.8c-.21-.08-.44-.14-.67-.19-.23-.04-.46-.07-.7-.07-.45 0-.82.09-1.1.28-.28.19-.42.44-.42.75 0 .15.03.29.09.42s.14.25.25.34c.1.1.23.17.37.23.14.06.29.09.45.09zm3.92 1.91c.05.01.1.01.15.01h.14c.11 0 .2-.02.27-.05.07-.03.13-.1.19-.21.06-.11.13-.26.21-.46.08-.2.19-.47.33-.81l-2.14-4.92h.66l1.82 4.32 1.69-4.32h.61l-2.55 6.34c-.07.18-.18.34-.34.48-.16.14-.38.2-.66.2h-.18c-.06 0-.13-.01-.21-.02v-.56zm26.15 196.32c-4.98 0-9.03-4.04-9.03-9.03 0-4.98 4.04-9.03 9.03-9.03 4.98 0 9.03 4.04 9.03 9.03-.01 4.99-4.05 9.03-9.03 9.03z"/><path class="st1" d="M304.05 355.17h11.01v6.73h-11.01zm8.24 0h-5.47l.54-1.3h4.39z"/><path class="st14" d="M312.11 358.53c0 1.41-1.14 2.55-2.55 2.55s-2.55-1.14-2.55-2.55 1.14-2.55 2.55-2.55c1.4 0 2.55 1.14 2.55 2.55z"/><path class="st1" d="M311.54 358.53c0 1.09-.89 1.98-1.98 1.98-1.09 0-1.98-.89-1.98-1.98 0-1.09.89-1.98 1.98-1.98 1.09 0 1.98.88 1.98 1.98z"/><path class="st14" d="M313.35 355.74h1.06v.61h-1.06z"/><path class="st1" d="M304.42 354.67h1.05v.3h-1.05z"/><path class="st8" d="M197.23 366.91c-4.98 0-9.03-4.04-9.03-9.03 0-4.98 4.04-9.03 9.03-9.03 4.98 0 9.03 4.04 9.03 9.03 0 4.99-4.04 9.03-9.03 9.03z"/><path class="st1" d="M194.97 356.59h4.43v7.39h-4.43zm5.64-3.42v1.71l-1.12 1.33h-4.62l-1.11-1.33v-1.71zm-6.85-1.39h6.85v.98h-6.85zm-10.02-167.21h131.24v37.4H183.74z"/><path class="st8" d="M314.98 221.97l-131.24.21h-.21v-.21l-.04-37.4v-.25h.25l131.24.14h.11v.11l-.11 37.4zm0 0l-.11-37.4.11.11-131.24.14.25-.25-.04 37.4-.21-.21 131.24.21z"/><path class="st15" d="M190.04 190.21h25.94v25.94h-25.94z"/><ellipse class="st1" cx="203.01" cy="202.64" rx="8.48" ry="7.35"/><path class="st1" d="M196.86 206.8l-1.52 4.27 5.39-1.67z"/><path class="st2" d="M223.25 191.03h60.88v1.15h-60.88z"/><path class="st0" d="M223.25 200.01h78.09v1.15h-78.09zm0 3.68h78.09v1.15h-78.09z"/><path class="st15" d="M310.56 179.37h8.83v8.83h-8.83z"/><path transform="rotate(-45.001 315.004 183.792)" class="st1" d="M314.46 180.71h1.04v6.14h-1.04z"/><path transform="rotate(-134.999 314.97 183.793)" class="st1" d="M314.46 180.71h1.04v6.14h-1.04z"/><path class="st1" d="M188.16 228.08H319.4v37.4H188.16z"/><path class="st8" d="M319.39 265.49l-131.24.21h-.21v-.21l-.04-37.4v-.25h.25l131.24.14h.11v.11l-.11 37.4zm0 0l-.11-37.4.11.11-131.24.14.25-.25-.04 37.4-.21-.21 131.24.21z"/><path class="st9" d="M194.45 233.73h25.94v25.94h-25.94z"/><path class="st1" d="M215.32 248.23c-.41-.24-.63-.68-.61-1.16.01-.13.01-.26.01-.39s0-.26-.01-.39c-.02-.47.2-.92.61-1.15l1.39-.8-2.62-4.53-1.39.8c-.41.24-.91.21-1.31-.05-.22-.14-.44-.27-.67-.39-.42-.21-.69-.64-.69-1.11v-1.6h-5.24v1.6c0 .47-.27.89-.69 1.11-.23.12-.46.25-.67.39-.39.26-.9.28-1.3.05l-1.39-.8-2.62 4.53 1.4.81c.41.23.63.68.61 1.15-.01.13-.01.26-.01.39s0 .26.01.39c.02.47-.2.92-.61 1.15l-1.39.8 2.62 4.53 1.39-.8c.41-.24.91-.21 1.3.04.22.14.44.27.68.39.42.21.69.64.69 1.11v1.6h5.24v-1.6c0-.47.27-.89.69-1.11.23-.12.46-.25.68-.39.39-.26.9-.28 1.3-.04l1.39.8 2.62-4.53-1.41-.8zm-7.9 2.75a4.29 4.29 0 01-4.29-4.29 4.29 4.29 0 014.29-4.29 4.29 4.29 0 014.29 4.29 4.29 4.29 0 01-4.29 4.29z"/><path class="st1" d="M210.4 246.69a2.981 2.981 0 01-5.96 0c0-1.64 1.33-2.98 2.98-2.98 1.65.01 2.98 1.34 2.98 2.98z"/><path class="st2" d="M227.66 234.54h60.88v1.15h-60.88z"/><path class="st0" d="M227.66 243.52h78.09v1.15h-78.09zm0 3.68h78.09v1.15h-78.09z"/><path class="st1" d="M188.16 271.6H319.4V309H188.16z"/><path class="st8" d="M319.39 309l-131.24.21h-.21V309l-.04-37.4v-.25h.25l131.24.14h.11v.11l-.11 37.4zm0 0l-.11-37.4.11.11-131.24.14.25-.25-.04 37.4-.21-.21 131.24.21z"/><path class="st15" d="M194.45 277.24h25.94v25.94h-25.94z"/><path class="st1" d="M198.34 284.45h18.15v11.51h-18.15z"/><path class="st15" d="M216.5 284.45c-.73.7-1.48 1.37-2.22 2.06-.74.68-1.49 1.35-2.24 2.02-.78.7-1.57 1.39-2.35 2.07-.02.02-.05.04-.07.07-.7.6-1.39 1.21-2.09 1.81l-.1.09-.1-.09c-.7-.6-1.39-1.21-2.09-1.82-.02-.02-.05-.04-.07-.06a439.7 439.7 0 01-2.36-2.08c-.75-.66-1.49-1.34-2.24-2.01-.74-.69-1.49-1.36-2.22-2.06.78.6 1.55 1.23 2.32 1.85.77.63 1.54 1.25 2.3 1.89.85.7 1.7 1.42 2.55 2.14h.01c.64.54 1.27 1.08 1.91 1.62.63-.54 1.27-1.09 1.9-1.62 0-.01 0-.01.01-.01.85-.72 1.7-1.44 2.55-2.14.76-.63 1.53-1.27 2.3-1.89.75-.61 1.52-1.24 2.3-1.84z"/><path class="st15" d="M205.54 290.6l-.02.02c-.1.08-.19.16-.29.24-.46.38-.92.75-1.4 1.11-.58.44-1.17.86-1.76 1.28-.6.41-1.2.82-1.81 1.21-.61.39-1.23.78-1.87 1.13.55-.48 1.12-.93 1.7-1.37.58-.44 1.17-.86 1.76-1.28.6-.41 1.2-.82 1.81-1.22.49-.31.98-.62 1.49-.91.12-.07.23-.13.35-.2.02 0 .03 0 .04-.01zm10.91 5c-.64-.35-1.26-.74-1.87-1.13-.61-.39-1.21-.8-1.81-1.21-.59-.42-1.19-.84-1.76-1.28-.47-.36-.94-.72-1.39-1.11-.1-.08-.19-.16-.29-.25l-.02-.02c.01.01.02.01.03.01.12.07.24.13.35.2.51.29 1 .6 1.49.91.61.39 1.21.8 1.81 1.22.59.42 1.19.84 1.76 1.28.58.44 1.15.89 1.7 1.38z"/><path class="st2" d="M227.66 278.06h60.88v1.15h-60.88z"/><path class="st0" d="M227.66 287.04h78.09v1.15h-78.09zm0 3.68h78.09v1.15h-78.09z"/><path class="st15" d="M438.87 389.81l-119.67.52c-29.09-22.84-32.09-56.68-11.34-77.19 12.56-12.41 28.51-9.9 43.69-11.88.01 0 .03-.01.04-.01 5.29-.69 10.48-1.92 15.4-4.52 15.64-8.25 24.45-27.71 37.6-44.08 1.64-2.05 3.35-4.05 5.15-5.97 10.82-11.55 32.35-11.93 43.61 4.31 28.63 41.26 15.52 102.67-14.48 138.82z"/><path class="st16" d="M441.52 295.4c-3.13 49.1-59.84 67.42-95.25 52.72-30.79-12.79-20.71-41.98 5.27-46.86.01 0 .03-.01.04-.01 5.29-.69 10.48-1.92 15.4-4.52 15.64-8.25 24.45-27.71 37.6-44.08 19.62-10.18 39.24 6.8 36.94 42.75z"/><path class="st17" d="M331.14 397.54c1.85-.68 43.55-34.01 44.34-36.28.3-.86-4.2-7.22-9.85-14.75-1.22-1.63-2.49-3.3-3.79-4.99-8.43-10.98-17.63-22.44-17.63-22.44l-27.96 22.21 18.4 21.82 4.03 4.79s-10.26 19.9-10.86 22.49c-.59 2.6 1.47 7.82 3.32 7.15z"/><path class="st8" d="M331.14 397.53c1.84-.68 43.54-34 44.33-36.28.25-.7-2.68-5.05-6.83-10.68-6.07 7.25-27.21 28.83-32.98 31.71-3.67 1.83-2.94-1.76-1.57-5.35-2.82 5.63-5.95 12.07-6.28 13.47-.58 2.59 1.48 7.81 3.33 7.13zM288 298.58c1.92 14.53 37.72 56.47 41.86 61.28.61.71.94 1.09.94 1.09l29.61-22.76-.34-.44-26.08-34.15s43.12 25.16 64.7 13.74c9.69-5.13 16.87-14.24 16.87-14.24l-28.16-15.02s-7.79 2.52-12.77 1.79c-17.17-2.51-55.63-17.12-64.76-16.75-11.78.5-23.63 12.13-21.87 25.46z"/><path class="st9" d="M323.9 318.81c-1.32 2.77-1.57 7.29 1.91 8.56 3.15 1.17 6.29-.96 8.18-3.32 1.96-2.47 3.31-5.43 5.79-7.46.87-.71 1.87-1.27 2.92-1.58l.13.17c-.55.14-1.1.36-1.63.67-5.17 2.98-6.33 11.26-12.96 12-2.52.28-4.73-1.08-5.32-3.61-.58-2.51.33-5.21 1.8-7.25 3.18-4.4 8.51-6.29 13.5-7.84l.13.18c-2.84.87-5.67 1.79-8.26 3.31-2.53 1.48-4.91 3.48-6.19 6.17zm5.08 29.09c-3.23 0-6.85.79-9.82-.9.1.12.2.25.3.37 1 .48 2.13.75 3.27.85 3.2.29 6.42-.51 9.58.23 3.37.79 5.63 3.5 4.74 7.03-.07.3-.17.59-.27.87l.31-.23c.66-2.02.5-4.26-1.02-5.9-1.76-1.9-4.62-2.32-7.09-2.32zm20.86-23.53c-.49 1.62-1.37 3.17-2.4 4.46-2.03 2.54-4.81 4.44-7.87 5.53-3.23 1.14-6.53 1.22-9.87.58-3.14-.6-6.57-1.64-9.7-.46-1.98.75-3.34 2.4-3.9 4.43-.37 1.36-.4 2.85-.04 4.24.11.14.22.27.32.41-1.09-3.32.24-7.58 3.68-8.88 3.46-1.31 7.24.11 10.7.65 2.89.46 5.83.25 8.6-.69 4.55-1.54 9.22-5.26 10.65-10.05l-.17-.22zm4.44 17.93c-.61-1.72-1.48-3.53-3.17-4.43-2.02-1.09-4.27-.43-5.85 1.1-1.83 1.78-2.79 4.39-2.69 6.92.07 1.81.49 3.56.94 5.3l.17-.13c-.51-1.94-.96-3.9-.9-5.91.08-2.9 1.84-6.34 4.72-7.36 2.57-.92 4.82.77 5.92 2.99.34.69.61 1.4.86 2.13l.17-.12c-.05-.17-.11-.34-.17-.49zm-53.38-53.54c-.73 2.25-1.19 5.21.36 7.24 1.51 2 4.31 1.99 6.31.75 2.57-1.58 3.48-4.85 3.85-7.65.46-3.55.03-7.03-1.01-10.43-.54-1.77-1.14-3.65-.8-5.52-.06 0-.12 0-.18.01-.15.82-.16 1.7 0 2.64.28 1.67.93 3.24 1.33 4.88.46 1.91.68 3.89.64 5.86-.07 3.37-.7 7.82-3.71 9.88-1.39.95-3.32 1.34-4.88.58-1.51-.74-2.19-2.34-2.3-3.93-.25-3.33 1.7-6.2 2.1-9.43.35-2.76-.89-5.22-3.31-6.59-.15-.08-.3-.17-.46-.23-.07.04-.14.09-.21.14.71.32 1.38.75 1.99 1.33 3.08 2.99 1.4 7.01.28 10.47zm-3.76 24.8c-.95-.53-1.95-.85-2.98-.95.05.09.11.18.17.27 1.28.14 2.5.61 3.52 1.41 2.83 2.26 2.86 5.94 3.51 9.32.1.14.21.29.32.44-.89-3.89-.75-8.33-4.54-10.49zm13.46-1.96c-2.5-1.85-5.42-3.05-8.38-3.93-3.38-1-6.91-1.62-10.09-3.21-1.17-.58-2.22-1.3-3.15-2.14.07.17.13.35.2.52 4.59 3.76 11.09 4.03 16.44 6.25 3.1 1.29 6.08 3.15 8.11 5.88 1.9 2.55 2.88 5.96 2.23 9.11-.61 2.93-2.68 5.19-5.55 6.02-1.51.43-3.08.4-4.46-.12.09.12.17.24.27.36 3.36 1.04 7.51-.78 9.14-3.9 2.78-5.31-.33-11.57-4.76-14.84zm27.87-28.89c-3.6 5.73-3.16 12.97-6.22 18.94-1.41 2.74-3.59 5.2-6.62 6.07-2.57.74-5.74.42-7.66-1.62-2.38-2.53-1.75-6.27-.17-9.04 1.68-2.93 4.5-4.87 7.14-6.89 2.44-1.86 4.74-3.89 6.17-6.66.81-1.58 1.34-3.32 1.52-5.09-.07-.02-.12-.04-.19-.06-.04.45-.11.89-.19 1.33-.7 3.47-2.67 6.34-5.31 8.63-2.48 2.15-5.38 3.84-7.59 6.28-1.77 1.96-3.14 4.55-3.17 7.24-.02 2.43 1.26 4.66 3.47 5.71 2.11 1.01 4.68.94 6.84.11 2.53-.98 4.41-3.09 5.7-5.41 3.29-5.94 2.83-13.21 6.27-19.08.5-.86 1.11-1.68 1.82-2.44-.07-.02-.13-.04-.2-.07-.62.64-1.16 1.33-1.61 2.05zm17.43 2.69c-.07-.02-.13-.04-.21-.06.98 4 .36 8.48-1.11 12.16-1.28 3.2-3.44 5.84-6.37 7.67-1.89 1.18-3.95 2.01-6.06 2.73.08.04.17.09.27.13 1.6-.56 3.17-1.18 4.68-1.98 2.68-1.43 4.94-3.42 6.48-6.05 1.51-2.57 2.37-5.56 2.68-8.51.2-1.92.12-4.05-.36-6.09zm13.11 28.49c-2.01-1.46-4.76-1.67-7.06-.86-1.18.42-2.2 1.11-3.04 1.97.06.02.12.04.17.07 1.86-1.85 4.53-2.74 7.19-2.19 3.11.64 4.78 3.13 5.68 5.91.07.02.14.03.22.04-.6-1.93-1.53-3.76-3.16-4.94zm19.83 6.25c.19-.02.37-.03.56-.06.55-.24 1.15-.39 1.82-.41.22-.01.42 0 .63.02.2-.03.39-.07.57-.12-1.23-.2-2.49-.03-3.58.57zm-18.4-31.02c-.07-.01-.14-.02-.21-.04.11 1.73.32 3.47.49 5.19.29 2.98.7 6.13-.88 8.84-.68 1.16-1.81 2.27-3.27 2.07-1.96-.27-2.84-2.35-3.32-4.03-1.05-3.68-.56-7.59.35-11.25.18-.74.39-1.48.61-2.22-.07-.02-.14-.04-.22-.06-.75 2.55-1.37 5.13-1.53 7.8-.17 2.82.07 6.54 2.01 8.8 1.52 1.77 3.76 1.4 5.08-.34 1.53-2.01 1.71-4.52 1.57-6.96-.14-2.61-.52-5.2-.68-7.8zm18.58-.17l-.2-.11c-.09.34-.17.67-.23.98-.61 3.06-.6 6.19-.46 9.3.16 3.51.33 7.57-2.47 10.19-1.24 1.16-3 1.88-4.7 1.37-1.64-.5-2.83-1.91-3.43-3.47-1.42-3.65.36-7.84 1.39-11.37.56-1.88 1.1-3.76 1.66-5.65.05-.17.11-.35.16-.53-.08.01-.17.02-.25.04-.05.15-.09.3-.13.44-1.08 3.68-2.37 7.37-3.19 11.12-.61 2.79-.6 5.89 1.43 8.14 1.73 1.93 4.4 2.15 6.51.67 2.4-1.69 3.21-4.57 3.32-7.37.14-3.37-.31-6.73.01-10.11.1-1.21.29-2.44.58-3.64zm23.61 12.59c-3.05 3.19-5.13 7.52-9.72 8.69-2.73.7-6.01.01-6.75-3.1-.87-3.65 1.66-7.54 3.37-10.55.29-.51.59-1.03.86-1.55l-.18-.1c-1.11 2.04-2.36 4-3.27 6.14-1.03 2.42-1.95 5.72-.07 7.99 1.33 1.62 3.61 1.88 5.55 1.51 5.01-.97 7.14-5.59 10.4-8.93l-.19-.1z"/><path class="st10" d="M324.63 290.92c1.01 1.02 1.82 2.31 2.69 3.45.92 1.21 1.86 2.41 2.78 3.62.01.01.02.02.03.04-.16-.35-.32-.71-.49-1.06-.58-1.2-1.05-2.45-1.73-3.6-.04-.07.07-.14.11-.07.71 1.14 1.53 2.23 2.13 3.43a38.182 38.182 0 011.2 2.68c.06.15.13.31.17.47.41.56.82 1.13 1.22 1.7.88 1.27 1.65 2.62 2.54 3.88.05.07-.06.13-.11.07-.9-1.19-1.91-2.29-2.82-3.47-.93-1.2-1.81-2.43-2.69-3.67-.85-1.21-1.68-2.44-2.53-3.65-.86-1.22-1.87-2.43-2.56-3.75-.04-.06.02-.11.06-.07zm29.85 42.1c-1.63 1.51-3.38 2.9-5.09 4.31-1.72 1.41-3.45 2.81-5.19 4.2-3.48 2.78-6.94 5.59-10.45 8.33-1.93 1.5-3.88 2.99-5.89 4.38-.09.06-.19-.08-.11-.15 3.29-2.99 6.81-5.73 10.28-8.51 3.48-2.78 6.97-5.56 10.49-8.29 1.93-1.49 3.85-3.03 5.86-4.41.08-.05.17.08.1.14z"/><path class="st8" d="M376.09 254.95c0 .18.12.37.31.39.44.02.96.04 1.55.06 1.28-3.64 2.69-6.54 2.33-5.41-.52 1.63-.87 3.97-.81 5.46.68.02 2.26.05 3.05.07 1.02-6.37 2.43-11.12 2.38-9.66-.22 5.86.17 7.73.64 9.73 7.36.14 17.02.22 24 .12.71-3.53 1.31-7.34 1.44-7.08 1.01 1.96 1.34 4.82 1.43 7.03 2.22-.05 4-.12 5.08-.22 0 0 .44-2.96.49-3.93.13-2.47-.21-5-.98-7.36-.81-2.44-2.14-4.57-3.42-6.76-.01-.02-.02-.04-.03-.05 0-.01 0-.01-.01-.02-.87-1.52-1.53-2.97-1.98-4.52 0-.01-.01-.02-.01-.03-.32-1.1-.54-2.24-.67-3.5-.44-4.32-2.99-8-7.08-9.03-7.88-7.02-15.49-3.77-17.66 1.84-.21.55-.41 1.17-.6 1.85l-.01.02c-.72 2.52-1.33 5.79-1.91 8.31.01.01 0 .01 0 .01 0 .01 0 .02-.01.03v.01c-.29 1.2-.56 2.23-.83 2.92-1.85 4.57-6.22 7.26-6.69 19.72z"/><path class="st8" d="M405.58 221.38c2.71 1.32 4.4 3.31 4.9 6.45.29 1.83.46 3.63 1.22 5.35.78 1.77 1.98 3.21 3.2 4.65 1.95 2.28 3.33 4.57 3.71 7.66.38 3.14.34 6.86-.64 9.83-.01.02-.03.01-.03-.01.78-3 .69-7.12.07-10.23-.68-3.41-2.68-5.52-4.74-8.07-1.63-2.03-2.7-4.29-3.11-6.92-.24-1.56-.26-3.18-.93-4.64-.8-1.74-2.33-2.81-3.84-3.76-.2-.12-.02-.41.19-.31zM378.4 240.2c1.82-2.5 3.72-4.65 4.74-7.72.93-2.8 1.42-5.75 2.37-8.55.02-.05.08-.03.07.02-1.44 4.96-1.61 9.94-4.67 14.16-1.66 2.29-3.33 4.42-4.4 7.15-1.12 2.87-1.55 5.83-1.54 8.95 0 .11-.14.11-.15 0-.62-5.03.73-10.08 3.58-14.01z"/><path class="st8" d="M402.84 219.44c.12 1.04 5.22 3.23 8.6.34 3.33-2.84 1.57-8.06-3.24-7.24-3.04.53-5.62 4.71-5.36 6.9z"/><path class="st8" d="M412.94 214.98c-.62-1.28-1.69-2.26-2.88-2.83-1.21-.57-2.6-.51-3.68.23-1.12.7-1.93 1.85-2.54 3.06-.3.62-.54 1.27-.73 1.94-.19.67-.33 1.36-.27 2.07-.24-.68-.18-1.43-.11-2.14.1-.72.28-1.42.54-2.1.53-1.35 1.39-2.65 2.68-3.48.64-.4 1.41-.68 2.19-.69.78-.01 1.54.2 2.19.57 1.3.73 2.28 1.98 2.61 3.37z"/><path class="st17" d="M400.68 259.74c-6.32 14.98-26.04 29.93-32.44 30.33-7.48.47-26.51-8.62-33.68-19.2-1.7-2.51 14.42-13.77 17.04-11.87 5.38 3.91 15.56 9.29 16.45 9.38 1.76.18 14.11-6.5 23.65-12.79 11.86-7.84 11.5-1.82 8.98 4.15z"/><path class="st17" d="M336.76 273.68s-6.64-7.24-7.18-13.91c-.37-4.61.44-16.79 11.72-24.74 2.68-1.89 7.83-2.68 4.58 1.99-2.31 3.32-4.78 4.72-5.77 6.89 0 0 6.67-.23 8.46 2.53.8 1.23 2.9 4.64 4.15 7.53 0 0-.56.44-1.34.9 0 0 1.42 2.73.26 7.27l-14.88 11.54z"/><path class="st9" d="M354.27 230.65l6.92 24.28c.28.71-.06 1.3-.77 1.33l-12.63.39c-.71.02-1.51-.54-1.79-1.25l-6.92-24.28c-.28-.71.06-1.3.76-1.33l12.63-.39c.72-.01 1.52.54 1.8 1.25z"/><path class="st10" d="M352.78 230.69l6.92 24.28c.28.71-.06 1.3-.76 1.33l-12.63.39c-.71.02-1.51-.54-1.79-1.25l-6.92-24.28c-.28-.71.06-1.3.76-1.33l12.63-.39c.7-.02 1.5.54 1.79 1.25z"/><path class="st8" d="M349.35 231.91c.03.59.54 1.05 1.13 1.02.59-.03 1.05-.54 1.02-1.13-.03-.59-.54-1.05-1.13-1.02-.6.03-1.05.54-1.02 1.13z"/><path class="st17" d="M330.43 253.26c1.44-1.95 4.57-6.03 8.28-8.48 4.13-2.72 12.81-6.85 14.79-3.78 1.45 2.25-1.73 4.12-1.73 4.12s3.95-.95 4.81 1.37c.79 2.11-1.76 3.41-1.76 3.41s2.49-.16 2.86 2.02c.44 2.62-4.86 2.54-6.71 5.58-.41.68-20.54-4.24-20.54-4.24z"/><path class="st8" d="M340.85 249.62c1.66-1.61 6.36-4.3 10.82-4.55.1-.01.16.07.07.09-4.86 1.32-9.12 3.47-10.87 4.5-.01.01-.03-.02-.02-.04zm2.87 4.09c1.57-1.24 6.54-3.8 11.08-3.9.1 0 .16.08.06.1-5.14 1.17-9.31 2.92-11.12 3.84-.02.01-.04-.03-.02-.04zm8.15 2.74c-.06 1.47-.12 2.89-.29 4.3-.08.71-.21 1.4-.36 2.09-.16.69-.38 1.36-.63 2.06.97-1.13 1.44-2.62 1.62-4.08.08-.74.11-1.48.05-2.21-.05-.73-.16-1.46-.39-2.16z"/><path class="st9" d="M392.24 275.18l-11.28-13.33s9.48-7.68 16.27-10.5c6.79-2.82 7.62 1.54 4.49 7.98-3.13 6.45-9.48 15.85-9.48 15.85z"/><path class="st8" d="M383.96 265.39l8.29 9.79s6.34-9.4 9.47-15.84c2.35-4.85 2.47-8.51-.51-8.83l-17.25 14.88z"/><path class="st8" d="M384.34 259.97c1.92 1.91 6.97 7.24 9.78 11.16.02.02-.07.1-.09.08-2.85-2.88-8.08-9.05-9.81-11.12-.04-.04.09-.15.12-.12z"/><path class="st9" d="M429.08 309.66c-1.65.53-48.73-13.09-48.73-13.09l5.56-16.35s-2.74-5.26-1.47-10.31c1.7-6.75 14.21-17.86 15.19-18.51 3.94-2.61 7.64-2.57 10.91-.83 13.61 7.23 18.54 59.09 18.54 59.09z"/><path class="st8" d="M401.01 279.05c-2.02-.35-4.08-.63-6.13-.68-1.02-.02-2.04 0-3.06.05-.51.02-1.02.03-1.53.03-.52 0-1.08-.01-1.59-.14-.05-.01-.06.06-.02.07.49.15.96.3 1.46.38.48.08.97.11 1.46.13 1.04.03 2.08.02 3.11.04 2.09.05 4.19.09 6.27.29.11.01.13-.15.03-.17zm4.39 3.12c-1.57-.62-3.2-1.17-4.83-1.61a29.8 29.8 0 00-2.49-.54c-.4-.07-.8-.14-1.2-.19-.44-.07-.89-.07-1.33-.14-.05-.01-.07.06-.02.07.41.08.82.23 1.22.33.41.1.82.21 1.23.31.82.21 1.64.43 2.46.63 1.65.4 3.29.82 4.92 1.28.09.02.12-.11.04-.14z"/><path class="st17" d="M405.74 250.86c-.09.87-3.4 6.87-7.28 7.19-1.26.1-2.13-6.77-2.13-6.77l-.18-.49-2.52-6.9 8.77-7.31c0-.01 3.38 13.91 3.34 14.28z"/><path class="st8" d="M393.63 243.88l2.52 6.9c1.93-1.03 5.99-3.81 7.39-9.46-.57-2.41-1.06-4.42-1.13-4.71-.01-.02-.01-.04-.01-.04l-1.12.87-7.65 6.44z"/><path class="st17" d="M382.95 232.72c-.83 12.87 6.78 14.82 9.55 14.99 2.52.16 11.11.39 13.27-12.33 2.16-12.71-3.56-17.17-9.3-17.84-5.74-.66-12.69 2.31-13.52 15.18z"/><path class="st8" d="M384.84 231.16c.3-.04.58-.12.87-.19.33-.08.61-.1.85-.36.13-.14.12-.42 0-.56-.29-.33-.72-.33-1.12-.26-.44.08-.76.26-1.05.6-.29.32.05.82.45.77zm8.83.96c-.3-.03-.58-.12-.87-.18-.33-.07-.61-.1-.85-.35-.13-.14-.12-.42 0-.56.28-.33.71-.34 1.12-.27.44.08.76.25 1.05.59.28.32-.05.82-.45.77zm-1.82 1.94c.01-.03.07.04.07.08-.04.88.05 1.89.84 2.19.02.01.02.05-.01.05-.96-.15-1.08-1.49-.9-2.32z"/><path class="st8" d="M392.65 233.16c1.41-.08 1.47 2.75.16 2.83-1.28.07-1.34-2.76-.16-2.83z"/><path class="st8" d="M393.21 233.3c.25.16.5.43.8.46.35.03.6-.28.82-.57.02-.03.05-.01.05.03.02.54-.18 1.1-.76 1.2-.53.08-.92-.39-1.07-.93-.02-.1.06-.25.16-.19zm-6.54.65c-.01-.03-.07.04-.07.08.05.88-.03 1.89-.82 2.2-.02.01-.02.05.01.05.97-.16 1.07-1.51.88-2.33z"/><path class="st8" d="M385.86 233.06c-1.41-.07-1.44 2.77-.13 2.83 1.29.05 1.32-2.78.13-2.83z"/><path class="st8" d="M385.27 233.24c-.23.15-.45.42-.72.43-.31.02-.54-.29-.73-.59-.02-.03-.04-.01-.04.03-.02.54.15 1.11.67 1.22.47.1.83-.36.96-.9.03-.1-.05-.25-.14-.19zm6.96 8.25c-.19.22-.37.53-.69.58-.3.05-.67-.05-.96-.13-.03-.01-.05.02-.03.05.26.31.76.48 1.15.37.39-.11.55-.47.61-.84.01-.05-.06-.06-.08-.03zm-3.87-3.3s-.13 1.32-.11 1.94c0 .06.15.08.36.08.01 0 .02.01.02 0 1.1.13 2.18-.29 2.81-1.2.04-.06-.04-.12-.1-.08-.79.63-1.69.82-2.65.87-.05-.17.3-2.25.2-2.25-.34-.02-1 .24-1.39.37.2-2.75.83-5.45.98-8.19 0-.1-.14-.12-.16-.03-.87 2.78-1.16 5.94-1.43 8.78-.03.33 1.23-.18 1.47-.29z"/><path class="st8" d="M388.64 239.96s.56.86 1.37 1.2c.3.13.63.19.98.12.72-.14.78-.79.68-1.36-.08-.47-.27-.87-.27-.87s-1.09.91-2.76.91z"/><path d="M390.01 241.16c.3.13.63.19.98.12.72-.14.78-.79.68-1.36-.77.03-1.55.51-1.66 1.24z" fill="#ff9cbf"/><path class="st8" d="M405.07 236.47c-1.4-.19-4.78-4.36-4.36-11.18 0 0 .05 6.15.44 7.08.39.93-1.88-2.34-1.63-7.85 0 0-3.21 1.96-5.86 2.49-2.65.53-4.23.38-4.41.18-.17-.2 3.74-1.11 4.86-2.22 0 0-7.15 2.68-10.35 2.67-.37 0-.23-7.6 4.94-10.43 5.16-2.83 12.69 1.24 14.62 3.42 0 0 2.43.54 4.83 4.38 2.4 3.85-1.57 11.67-3.08 11.46z"/><path class="st19" d="M389.78 235.52a4.278 4.278 0 003.48 3.43c.36.07.71.08 1.06.05 1.9-.15 3.54-1.57 3.87-3.54a4.285 4.285 0 00-3.49-4.93 4.267 4.267 0 00-4.93 3.49c-.09.51-.08 1.02.01 1.5zm.55-1.41a3.713 3.713 0 014.27-3.03 3.71 3.71 0 013.03 4.27 3.71 3.71 0 01-4.27 3.03 3.71 3.71 0 01-3.03-4.27z"/><path class="st19" d="M389.78 235.52a4.278 4.278 0 003.48 3.43c.36.07.71.08 1.06.05 1.9-.15 3.54-1.57 3.87-3.54a4.285 4.285 0 00-3.49-4.93 4.267 4.267 0 00-4.93 3.49c-.09.51-.08 1.02.01 1.5zm.55-1.41a3.713 3.713 0 014.27-3.03 3.71 3.71 0 013.03 4.27 3.71 3.71 0 01-4.27 3.03 3.71 3.71 0 01-3.03-4.27zm-6.08 4.48c.09 0 .18 0 .28-.01 1.63-.13 2.97-1.92 3.06-4.15.04-1.13-.24-2.2-.8-3.02-.57-.85-1.36-1.34-2.23-1.37-.87-.04-1.69.4-2.33 1.2-.61.78-.97 1.82-1.01 2.95-.09 2.36 1.27 4.33 3.03 4.4zm-2.46-4.37c.04-1 .36-1.93.89-2.62.46-.58 1.03-.92 1.64-.97.07-.01.14-.01.22-.01.68.03 1.31.43 1.77 1.12.49.72.74 1.67.7 2.68-.08 2.04-1.3 3.66-2.75 3.6-1.43-.06-2.54-1.76-2.47-3.8z"/><path class="st19" d="M384.25 238.59c.09 0 .18 0 .28-.01 1.63-.13 2.97-1.92 3.06-4.15.04-1.13-.24-2.2-.8-3.02-.57-.85-1.36-1.34-2.23-1.37-.87-.04-1.69.4-2.33 1.2-.61.78-.97 1.82-1.01 2.95-.09 2.36 1.27 4.33 3.03 4.4zm-2.46-4.37c.04-1 .36-1.93.89-2.62.46-.58 1.03-.92 1.64-.97.07-.01.14-.01.22-.01.68.03 1.31.43 1.77 1.12.49.72.74 1.67.7 2.68-.08 2.04-1.3 3.66-2.75 3.6-1.43-.06-2.54-1.76-2.47-3.8z"/><path class="st19" d="M387.1 233.81l.4.41c.97-.97 2.33.24 2.39.3l.38-.43c-.62-.57-2.09-1.36-3.17-.28z"/><path class="st19" d="M387.1 233.81l.4.41c.97-.97 2.33.24 2.39.3l.38-.43c-.62-.57-2.09-1.36-3.17-.28zm10.73.44c2.2-.13 8.13-.41 9.04-.23.84.17 1.74 1.72 2.01 2.3l.52-.24c-.11-.24-1.14-2.36-2.41-2.61-1.18-.24-8.86.19-9.19.22l.03.56z"/><path class="st19" d="M397.83 234.25c2.2-.13 8.13-.41 9.04-.23.84.17 1.74 1.72 2.01 2.3l.52-.24c-.11-.24-1.14-2.36-2.41-2.61-1.18-.24-8.86.19-9.19.22l.03.56z"/><path class="st17" d="M403.67 236.24s2.72-4.09 4.57-3.12c1.85.96-.14 6.84-2.27 7.69-2.13.84-2.95-1.11-2.95-1.11l.65-3.46z"/><path class="st8" d="M407.63 234.79c.03 0 .04.04.01.06-1.49.64-2.25 2.05-2.77 3.51.43-.57 1.04-.88 1.79-.37.04.03 0 .09-.04.08-.62-.12-1.06 0-1.47.5-.29.36-.48.8-.68 1.21-.07.14-.31.07-.26-.09 0-.01.01-.02.01-.03-.08-1.92 1.35-4.63 3.41-4.87z"/><path class="st17" d="M413.6 261.94c-3.22 19.73-12.29 34.15-16.06 34.77-10.12 1.67-27.24-14.88-32.35-18.77-2.06-1.57 14.77-15.66 16.76-13.73 4.69 4.54 10.91 10.63 11.25 10.63.72 0 3.13-4.91 11.94-16.48 7.38-9.69 9.78-4.49 8.46 3.58z"/><path class="st17" d="M355.83 245.19c-1.4 2.13 4.15 5.14 4.15 5.14s-1.76-.04-3 1.11c-1.42 1.32.02 4.12.02 4.12s-1.79.33-2.98 1.67c-1.23 1.4-.18 4.44-.18 4.44s-1.46 1.22-1.69 3.12c-.65 5.39 11.13 13.1 14.95 14.59l15.44-13.94s-5.73-12.81-10.39-16.11c-2.6-1.84-14.18-7.4-16.32-4.14z"/><path class="st8" d="M360.06 250.29c3.32 1 6.4 2.8 9.35 4.56.07.04 0 .14-.06.1-2.91-1.79-6.37-2.84-9.35-4.51-.09-.04-.03-.17.06-.15zm-2.85 5.1c.74.25 1.4.74 2.05 1.18.7.47 1.39.94 2.07 1.43 1.36.98 2.71 1.99 4.02 3.03.06.05 0 .15-.06.1-1.36-.97-2.74-1.92-4.14-2.84-.7-.46-1.41-.91-2.11-1.36-.66-.42-1.39-.8-1.94-1.35-.09-.07 0-.23.11-.19zm-3.32 6.32c.66.19 1.25.75 1.79 1.16.61.46 1.23.91 1.84 1.37 1.23.9 2.47 1.81 3.73 2.67.06.04 0 .14-.06.1-1.29-.87-2.59-1.72-3.87-2.59-.63-.43-1.26-.87-1.88-1.3-.53-.37-1.24-.78-1.6-1.33-.01-.05.02-.09.05-.08zm-1.15 1.32c-.58.8-.82 1.84-.73 2.85.08 1.02.56 1.97 1.12 2.78 1.12 1.66 2.5 3.1 3.95 4.45 1.46 1.34 3.04 2.55 4.69 3.64 1.66 1.09 3.41 2.03 5.24 2.8l-.04-.03c1.16.96 8.79 7.54 10.01 8.04-1.08-1.05-8.66-7.3-9.77-8.32l-.02-.01-.03-.01c-1.76-.85-3.44-1.86-5.05-2.96-1.61-1.1-3.16-2.3-4.61-3.6-1.45-1.31-2.84-2.69-4.01-4.24-.59-.77-1.04-1.62-1.21-2.57-.17-.95-.01-1.96.46-2.82z"/><path class="st9" d="M411.01 278.55l-15.23-8.54s6.19-10.51 11.57-15.52 7.67-1.22 6.99 5.91c-.67 7.13-3.33 18.15-3.33 18.15z"/><path class="st8" d="M398.36 267.07c2.47 1.12 9.06 4.35 13.06 7.04.02.02-.03.12-.05.11-3.67-1.71-10.73-5.65-13.08-6.99-.05-.04.03-.19.07-.16z"/><path class="st8" d="M409.54 277.72c.53.21 1.04.46 1.55.69l-.23.1c.33-2.36.75-4.69 1.26-7.01.25-1.16.52-2.31.83-3.46.3-1.15.62-2.3.99-3.43-.11 1.19-.28 2.36-.47 3.53-.18 1.18-.4 2.34-.63 3.51a97.02 97.02 0 01-1.67 6.93l-.06.22-.17-.12c-.47-.31-.94-.62-1.4-.96z"/><path class="st8" d="M413.09 269.04c.14-.48.36-.92.58-1.36.24-.43.48-.86.8-1.24-.14.48-.36.92-.58 1.36-.24.42-.48.85-.8 1.24zm-16.73 1.39c-.24-.08-.45-.2-.67-.3l-.11-.05.07-.15c.79-1.78 1.77-3.45 2.84-5.06 1.08-1.6 2.28-3.14 3.7-4.48-1.01 1.66-2.05 3.27-3.09 4.88-1.04 1.61-2.09 3.22-3.18 4.81l-.04-.2c.16.19.33.36.48.55z"/><path class="st8" d="M399.4 263.93c.08-.49.25-.95.42-1.42.19-.45.38-.91.65-1.33-.08.49-.25.95-.42 1.42-.19.45-.38.91-.65 1.33z"/><path class="st17" d="M223.02 359.76c.68 1.84 34.15 43.44 36.43 44.22.86.3 7.2-4.22 14.71-9.9 1.62-1.23 3.29-2.5 4.97-3.81 10.95-8.46 22.38-17.7 22.38-17.7l-22.3-27.89-21.77 18.47-4.78 4.05s-19.94-10.2-22.53-10.78c-2.58-.58-7.79 1.5-7.11 3.34z"/><path class="st8" d="M223.02 359.76c.69 1.84 34.15 43.44 36.43 44.22.75.27 5.7-3.16 11.95-7.82-6.38-4.64-30.62-26.48-33.87-32.39-1.71-3.11.79-3.08 3.85-2.23-4.99-2.46-10.01-4.85-11.23-5.12-2.6-.58-7.81 1.5-7.13 3.34zm35.59-.82l23.21 31.32 78.33-54.35 7.55-5.24s2.14 1.44 5.36 3.22c4.47 2.47 11.02 5.6 16.82 6.46 9.72 1.44 25.96 1.28 34.15-9.67 6.9-9.23 3.15-21.27 3.15-21.27l-10.68-4.58s-25.27-21.05-41.63-21.69c-6.95-.28-17.07 4.99-26.45 10.5-9.35 5.48-89.81 65.3-89.81 65.3z"/><path class="st9" d="M261.51 356.79c-.16 1.81-.32 3.61-.49 5.4l-.24-.32c.02-.25.04-.49.07-.74l.36-4.13c.1-.06.19-.14.3-.21zm12.38-6.1c-1.13 3.48-3.03 6.73-4.71 9.96-1.28 2.48-2.58 5.07-3.56 7.76l.16.21c1.29-3.5 3.12-6.86 4.81-10.1 1.48-2.84 3.12-5.79 3.89-8.92.22-.87.37-1.8.42-2.73-.09.07-.18.13-.27.2-.09 1.25-.38 2.51-.74 3.62zm11.1 21.62c.38-2.74.9-5.98-.36-8.56-1.06-2.19-3.41-2.99-5.6-1.98-2.09.97-3.71 3.1-4.03 5.39-.85 5.83 3.82 11.29 2.3 17.04l.17.23c.2-.72.32-1.46.36-2.19.2-3.13-.99-6.02-1.84-8.96-.97-3.33-1.49-7.01 1.08-9.77.97-1.04 2.33-1.92 3.8-1.96 1.79-.07 3.17 1.19 3.77 2.8 1.19 3.17.27 6.99-.21 10.22-.42 2.98-.84 6.18.2 9.09a8.531 8.531 0 002.06 3.23l.17-.12c-1.14-1.14-1.95-2.59-2.35-4.27-.77-3.35.01-6.86.48-10.19zm9.16-9.17c-2.81-1.45-5.89-2.59-8.26-4.75-2.68-2.44-3.85-6.07-4.3-9.57-.32-2.49-.24-5.21.81-7.5-.09.07-.18.13-.27.21-.41.95-.65 1.99-.78 3-.36 2.93.13 6.03 1.11 8.81.99 2.84 2.77 5.07 5.31 6.7 2.59 1.66 5.53 2.69 8.14 4.3 2.76 1.71 5.11 4.12 6.6 7.02.6 1.15 1.02 2.4 1.26 3.67l.22-.16c-1.11-5.23-5.16-9.33-9.84-11.73zm14.59-20.27c-2.73-5.04-8.35-6.95-13.26-9.16-.56-.25-1.13-.51-1.68-.8-.07.05-.13.1-.2.15 3.91 1.95 8.21 3.2 11.64 5.98 4.92 3.99 7 12.27 2.27 17.24-2.11 2.21-5.68 3.47-8.13 1.02-2.34-2.33-2.1-6.02-1.85-9.03.24-2.87.46-6.07-1.45-8.46-1.31-1.65-3.32-2.67-5.37-2.98-.69-.11-1.39-.14-2.09-.09l-.31.22a9.08 9.08 0 011.95 0c2.45.27 4.89 1.56 6.18 3.71 1.84 3.11.75 6.92.72 10.3-.02 2.48.52 5.39 2.64 6.96 1.92 1.43 4.39 1.08 6.3-.19 4.87-3.23 5.25-10.05 2.64-14.87zm6.61-16.42c1.58-3.03 1.26-6.34-.12-9.25-.04.03-.09.07-.14.1.96 2.12 1.34 4.52.87 6.79-.61 2.93-2.68 5.19-5.55 6.02-2.79.8-5.79.02-7.39-2.5-.22-.33-.4-.69-.56-1.05-.07.04-.13.09-.2.14.37.83.88 1.6 1.58 2.27 3.42 3.27 9.46 1.39 11.51-2.52zm-3.74 38.24c-1.57 1.7-2.3 4.07-2.1 6.36l.22-.16c-.14-1.96.36-3.94 1.61-5.56 2.4-3.12 6.27-2.94 9.77-2.45.04.01.09.02.13.02l.27-.18c-.64-.08-1.28-.17-1.93-.24-2.88-.32-5.9-.06-7.97 2.21zm8.45-30.01c3.46-1.31 7.24.11 10.7.65 2.89.46 5.83.25 8.6-.69 5.31-1.8 10.78-6.57 11.08-12.52.14-2.6-1.05-5.29-3.34-6.64-2.45-1.44-5.26-.59-7.33 1.1-2.49 2.03-3.83 4.99-5.79 7.46-1.89 2.36-5.03 4.49-8.18 3.32-3.47-1.28-3.22-5.79-1.91-8.56 1.28-2.69 3.66-4.69 6.2-6.17 5.31-3.09 11.61-3.71 17-6.59 2.68-1.43 4.94-3.42 6.48-6.05 1.51-2.57 2.37-5.56 2.68-8.51.07-.74.12-1.51.09-2.29-.06.02-.12.06-.17.09.02 2.84-.59 5.71-1.59 8.22-1.28 3.2-3.44 5.84-6.37 7.67-2.77 1.73-5.92 2.72-9.02 3.67-5.27 1.62-11.09 3.46-14.48 8.15-1.47 2.04-2.38 4.74-1.8 7.25.59 2.53 2.8 3.89 5.32 3.61 6.62-.74 7.78-9.01 12.96-12 3.2-1.84 6.82-.59 8.38 2.72 1.63 3.46.11 7.44-2.14 10.25-2.03 2.54-4.81 4.44-7.87 5.53-3.23 1.14-6.53 1.22-9.87.58-3.14-.6-6.57-1.64-9.7-.46-1.98.75-3.34 2.4-3.9 4.43-.54 1.96-.36 4.18.65 5.97 1.24 2.2 3.56 3.14 5.99 3.35 3.2.29 6.42-.51 9.58.23 2.16.51 3.86 1.8 4.58 3.6l.22-.15c-.22-.61-.56-1.17-1.04-1.68-1.76-1.91-4.62-2.32-7.09-2.32-3.29 0-6.97.81-9.97-.98-4.48-2.67-3.81-10.4 1.05-12.24zm31.04 3.19c-2.02-1.09-4.27-.43-5.85 1.1-1.83 1.78-2.79 4.39-2.69 6.92.03.7.11 1.38.22 2.06l.17-.12c-.13-.89-.21-1.78-.18-2.69.08-2.9 1.84-6.34 4.72-7.36 2.51-.9 4.72.7 5.84 2.85l.17-.12c-.54-1.08-1.29-2.06-2.4-2.64zM372.85 322c-.46-2.92-1.32-6.28-3.84-8.12-2.01-1.46-4.76-1.67-7.06-.86-2.45.87-4.24 2.93-5.1 5.35-2.17 6.18 2.13 11.3 5.73 15.86l.14-.1c-2.03-2.55-4.23-5.07-5.45-8.12-1.21-3.05-1.14-6.56.6-9.4 1.74-2.87 5.1-4.41 8.41-3.73 3.66.75 5.32 4.05 6.08 7.4 1 4.44.61 9.18.97 13.76.08.04.17.09.26.13-.04-.54-.07-1.09-.1-1.62-.19-3.52-.1-7.06-.64-10.55zm21.25-1.85c-2.14-1.06-4.65-.85-6.4.83s-2.38 4.29-2.35 6.64c.03 3.52 1.53 6.84 1.8 10.34.05.59.05 1.21-.01 1.83.07.02.14.03.21.05.32-4.58-2.36-9.42-1.67-14.06.44-2.92 2.25-6 5.55-6.1 3.22-.1 6.04 2.69 7.04 5.57 1.76 5.11-.28 10.49-.12 15.73h.2c-.06-1.5.06-3.02.22-4.47.62-5.66 1.73-13.29-4.47-16.36zm-23.75-32.97c-.02-1.21.03-2.44.22-3.63-.07.02-.14.03-.22.04-.05.34-.09.69-.12 1.03-.28 3.22.18 6.45.49 9.65.29 2.98.7 6.13-.88 8.84-.68 1.16-1.81 2.27-3.27 2.07-1.96-.27-2.84-2.35-3.32-4.03-1.05-3.68-.56-7.59.35-11.25.38-1.54.86-3.09 1.35-4.66-.09.03-.18.07-.27.1-1.01 3.3-2 6.62-2.21 10.08-.17 2.82.07 6.54 2.01 8.8 1.52 1.77 3.76 1.4 5.08-.34 1.53-2.01 1.71-4.52 1.57-6.96-.19-3.26-.73-6.48-.78-9.74zm19.13.15c-.05-.02-.1-.05-.15-.07-.34.92-.59 1.8-.74 2.57-.61 3.06-.6 6.19-.46 9.3.16 3.51.33 7.57-2.47 10.19-1.24 1.16-3 1.88-4.7 1.37-1.64-.5-2.83-1.91-3.43-3.47-1.42-3.65.36-7.84 1.39-11.37.56-1.88 1.1-3.76 1.66-5.65.54-1.82 1.14-3.65 1.46-5.52l.03-.22c-.06-.02-.12-.03-.17-.06-.32 1.98-1.02 3.96-1.54 5.74-1.08 3.68-2.37 7.37-3.19 11.12-.61 2.79-.6 5.89 1.43 8.14 1.73 1.93 4.4 2.15 6.51.67 2.4-1.69 3.21-4.57 3.32-7.37.14-3.37-.31-6.73.01-10.11.15-1.77.47-3.56 1.04-5.26zm23.19 14.46c-.06-.04-.11-.08-.17-.12-2.98 3.17-5.07 7.4-9.59 8.55-2.73.7-6.01.01-6.75-3.1-.87-3.65 1.66-7.54 3.37-10.55.53-.92 1.05-1.86 1.53-2.83-.07-.05-.12-.09-.19-.12-1.24 2.52-2.84 4.86-3.94 7.44-1.03 2.42-1.95 5.72-.07 7.99 1.33 1.62 3.61 1.88 5.55 1.51 4.94-.95 7.09-5.44 10.26-8.77zm8.57 15.58c-2-1.98-4.82-3.26-7.66-3.13a7.953 7.953 0 00-6.48 3.88c-1.29 2.21-1.19 4.77.07 6.96 1.35 2.35 3.58 4.03 5.45 5.94 1.72 1.77 3.01 3.83 3.66 6.15.07-.02.13-.06.19-.1-.72-2.63-2.24-4.76-4.16-6.66-2.05-2.01-4.57-3.95-5.57-6.73-1.15-3.21.51-6.62 3.39-8.27 3.11-1.77 7.02-.96 9.79 1.08 2.25 1.67 3.56 4.58 6.14 5.8.51.24 1.04.37 1.55.41.02-.05.03-.11.03-.17-2.87-.22-4.54-3.32-6.4-5.16z"/><path class="st10" d="M367.7 330.67s2.14 1.44 5.36 3.22c5.69-6.81 17.74-19.19 18.11-19.63l-23.47 16.41zm39.55-32.9c1.51 1.05 2.97 2.16 4.46 3.24 1.47 1.06 2.98 2.05 4.37 3.21 1.42 1.18 2.76 2.43 4.09 3.7.64.61 1.28 1.23 1.91 1.86.62.63 1.31 1.26 1.82 1.97.05.07-.05.15-.11.11-.72-.46-1.37-1.1-2.02-1.65-.71-.59-1.41-1.2-2.11-1.8-1.36-1.15-2.74-2.28-4.1-3.43-1.35-1.15-2.59-2.41-3.93-3.57-1.43-1.25-2.93-2.41-4.41-3.59-.03-.02 0-.07.03-.05zm-140.69 57.98c1.41 1.72 2.69 3.55 3.99 5.34 1.3 1.81 2.6 3.62 3.88 5.44 2.57 3.64 5.16 7.27 7.68 10.94 1.38 2.02 2.74 4.05 4.02 6.14.06.09-.09.19-.16.1-2.79-3.47-5.31-7.14-7.87-10.78-2.57-3.64-5.12-7.3-7.63-10.98-1.37-2.01-2.79-4.02-4.04-6.12-.06-.07.07-.15.13-.08zm61.78 2.39c3.9-3.07 7.94-5.97 11.98-8.85 4.02-2.87 8.04-5.74 12.12-8.52 1.17-.8 2.35-1.58 3.53-2.36 1.18-.78 2.4-1.51 3.56-2.32.07-.05.13.06.06.11-1.06.76-2.06 1.61-3.1 2.4-.99.75-1.98 1.52-2.98 2.26-1.96 1.45-3.93 2.87-5.91 4.3-4 2.89-8.03 5.75-12.11 8.54-2.31 1.59-4.61 3.18-6.98 4.69-.14.08-.3-.14-.17-.25zm-25.05-32.31c3.6-2.98 7.46-5.67 11.24-8.43 3.82-2.79 7.62-5.61 11.45-8.38 3.8-2.75 7.61-5.5 11.41-8.25 3.69-2.66 7.35-5.37 11.25-7.73 2.13-1.29 4.32-2.49 6.56-3.57 2.18-1.05 4.45-2.11 6.78-2.77.07-.02.11.08.05.12-1.92 1.07-3.93 1.97-5.88 3.01-1.92 1.02-3.81 2.1-5.67 3.23-3.86 2.34-7.51 5-11.18 7.64-7.61 5.48-15.21 10.97-22.88 16.37-4.29 3.02-8.49 6.21-12.95 8.99-.15.09-.31-.13-.18-.23z"/><path class="st1" d="M334.49 202.33c1.28 12.19 12.2 21.05 24.39 19.77 4.93-.52 9.31-2.61 12.7-5.73l11.11 1.63-5.56-9.6a21.92 21.92 0 001.52-10.69c-1.28-12.19-12.2-21.05-24.39-19.77s-21.04 12.2-19.77 24.39z"/><path class="st8" d="M341.14 184c2.41-2.35 5.35-4.17 8.56-5.25 3.21-1.07 6.68-1.37 10.04-.93 3.36.45 6.64 1.65 9.48 3.56a22.77 22.77 0 016.95 7.4c3.45 5.9 4.06 13.45 1.37 19.79l-.03-.38 5.52 9.62.41.71-.81-.12-11.1-1.7.26-.08a22.297 22.297 0 01-10.98 5.42c-1.02.19-2.04.3-3.07.32-1.03.09-2.06 0-3.08-.06-2.04-.25-4.08-.63-5.98-1.43-1.91-.75-3.73-1.73-5.36-2.98-.85-.57-1.57-1.31-2.34-1.98-.68-.76-1.43-1.47-2.01-2.32-2.54-3.23-4.02-7.2-4.48-11.25-.72-6.69 1.75-13.68 6.65-18.34zm-2.1 29.54c.59.84 1.34 1.54 2.02 2.29.77.66 1.49 1.39 2.34 1.96 1.62 1.24 3.46 2.17 5.36 2.89 1.89.76 3.92 1.1 5.93 1.31 1.01.04 2.03.11 3.04 0 1.01-.04 2.02-.17 3.01-.37 3.97-.79 7.69-2.72 10.63-5.48l.11-.1.15.02 11.12 1.56-.4.59-5.59-9.58-.11-.18.08-.2a22.18 22.18 0 001.56-9.67c-.26-3.28-1.14-6.54-2.82-9.39a22.902 22.902 0 00-6.64-7.25c-2.71-1.9-5.89-3.12-9.17-3.62-3.28-.49-6.69-.26-9.87.74a22.345 22.345 0 00-8.56 5.05c-4.9 4.6-7.42 11.54-6.74 18.24.49 4.03 2 7.99 4.55 11.19z"/><path class="st15" d="M359.26 211.45c0 1.6-1.3 2.9-2.9 2.9-1.6 0-2.9-1.3-2.9-2.9 0-1.6 1.3-2.9 2.9-2.9 1.6 0 2.9 1.3 2.9 2.9z"/><path class="st16" d="M359.27 211.45v.02l-5.79.27c-.01-.1-.02-.2-.02-.3a2.904 2.904 0 115.81.01z"/><path class="st15" d="M369.04 210.48h-25.36l.33-1.79a5.18 5.18 0 011.64-2.86l1.33-1.2 3.36-12.93c.51-2.51 2.94-4.34 5.79-4.34h.44c2.85 0 5.3 1.83 5.79 4.34l3.36 12.93 1.33 1.2c.87.77 1.44 1.77 1.64 2.86l.35 1.79z"/><path class="st15" d="M356.14 190.13c-1.52 0-2.75-1.23-2.75-2.75s1.23-2.75 2.75-2.75 2.75 1.23 2.75 2.75c0 1.51-1.23 2.75-2.75 2.75zm0-3.84c-.6 0-1.09.49-1.09 1.09 0 .6.49 1.09 1.09 1.09.6 0 1.09-.49 1.09-1.09 0-.6-.49-1.09-1.09-1.09z"/></svg>