<svg id="Layer_2" data-name="Layer 2" xmlns="http://www.w3.org/2000/svg" viewBox="0 0 42.53 42.1"><defs><style>.cls-1,.cls-2{stroke:#020202;stroke-width:.35px}.cls-1{fill:#e9d1ea;stroke-miterlimit:10}.cls-2{fill:none;stroke-linecap:round;stroke-linejoin:round}</style></defs><circle class="cls-1" cx="14.68" cy="2.46" r="2.28"/><circle class="cls-1" cx="27.64" cy="2.46" r="2.28"/><circle class="cls-1" cx="7.03" cy="15.21" r="2.28"/><circle class="cls-1" cx="35.5" cy="15.21" r="2.28"/><path class="cls-1" d="M46.09 33.17a2.29 2.29 0 11-2.29-2.26 2.28 2.28 0 012.29 2.26z" transform="translate(-3.73 -3.95)"/><circle class="cls-1" cx="29.92" cy="39.65" r="2.28"/><circle class="cls-1" cx="12.39" cy="39.65" r="2.28"/><circle class="cls-1" cx="2.46" cy="29.23" r="2.28"/><path class="cls-2" d="M16.96 2.46h2.06l2.31 2.28v30.61l4.16 4.16h2.15"/><path class="cls-2" d="M25.36 2.46h-1.88l-2.21 2.22v30.67l-4.24 4.24h-2.35"/><path class="cls-2" d="M16.96 12.92l2.27 2.29h3.97l2.16-2.29M9.31 15.21h3.55l4.1 4.14h8.4l4.03-4.04h3.83M9.31 19.35l3.76 3.75h2.34l1.72-1.71h8.23l1.76 1.76h2.8l3.55-3.55"/><path class="cls-2" d="M8.8 29.1a2.26 2.26 0 01-1.41-.71 2.09 2.09 0 01-.15-2.69 2 2 0 012.41-.28 2.34 2.34 0 011.13 1.84l7.37-.21M15 14.64a1.79 1.79 0 01-1.69-.26 1.84 1.84 0 01-.29-2.14 2.06 2.06 0 011.71-1.14 2.65 2.65 0 012.11 1.44c.44.8.09 1.23.58 1.84a2.11 2.11 0 001.84.69A2.47 2.47 0 0021 14c.68-.92 0-1.8.56-2.56A1.84 1.84 0 0123 10.7a2.61 2.61 0 012 1.3m0 0a2.8 2.8 0 011.21-.85 2.41 2.41 0 012 .16c.71.54.67 1.64 1.12 2.53a2.34 2.34 0 001.84 1.28 2.24 2.24 0 002-1.55c.18-.6-.13-.92.14-1.57a2.13 2.13 0 013.83-.13 2.08 2.08 0 01-.14 2.21 2 2 0 01-2 .72m6 14.02a1.91 1.91 0 002-.43 2 2 0 00.43-2 2.15 2.15 0 00-2.27-1.56 2.08 2.08 0 00-1.7 2.27h-7" transform="translate(-3.73 -3.95)"/><path class="cls-2" d="M4.74 29.34h4.67l4.01-4.02h16.33l3.93 3.9h4.1"/><path class="cls-2" d="M27.47 29.34l-2.06-2.07h-8.45l-1.86 1.87"/><path class="cls-2" d="M13.19 39.2a2 2 0 01-1.48-.2 2.25 2.25 0 01-.43-3.29 2.25 2.25 0 013 0c.36.37.21.65.74 1.81.4.87.6 1.31 1.06 1.59a2 2 0 002.21-.11c.51-.43.26-.89.85-2.12.35-.72.6-1.23 1.17-1.49a2 2 0 011.91.21c.39.27.27.47.75 1a3.44 3.44 0 001.38.85 2.78 2.78 0 001.49.11 3.16 3.16 0 001.38-.85c.67-.64.59-.93 1.06-1.17a1.86 1.86 0 011.81.1c.51.35.7.93 1.06 2 .23.72.19.87.42 1.17a2 2 0 001.6.74 2.13 2.13 0 001.83-1.2c.34-.65 0-.92.32-1.7a2.36 2.36 0 011.49-1.49 2.1 2.1 0 012.12 1 2.24 2.24 0 01.22 2 2.15 2.15 0 01-1.92 1.28" transform="translate(-3.73 -3.95)"/></svg>