<svg xmlns="http://www.w3.org/2000/svg" viewBox="0 0 45.56 45.69"><defs><style>.cls-1,.cls-2{fill:none;stroke:#605dba;stroke-miterlimit:10;stroke-width:1.28px}.cls-2{fill:#f857a6}</style></defs><g id="Layer_2" data-name="Layer 2"><circle class="cls-1" cx="11.31" cy="19.91" r="8.7"/><path class="cls-1" d="M8.08 28.85a5.48 5.48 0 0110.89 0" transform="translate(-2.22 -2.16)"/><circle class="cls-2" cx="11.31" cy="18.02" r="2.74"/><circle class="cls-1" cx="36.22" cy="9.34" r="8.7"/><path class="cls-1" d="M33 18.28a5.48 5.48 0 0110.89 0" transform="translate(-2.22 -2.16)"/><circle class="cls-2" cx="36.22" cy="7.46" r="2.74"/><circle class="cls-1" cx="26.44" cy="36.34" r="8.7"/><path class="cls-1" d="M23.21 45.28a5.48 5.48 0 0110.89 0" transform="translate(-2.22 -2.16)"/><circle class="cls-2" cx="26.44" cy="34.46" r="2.74"/><circle class="cls-2" cx="3.67" cy="3.96" r="2.74"/><circle class="cls-2" cx="22" cy="3.67" r="3.03"/><circle class="cls-2" cx="3.67" cy="33.32" r="3.03"/><circle class="cls-2" cx="10.52" cy="40.17" r="3.03"/><circle class="cls-2" cx="41.56" cy="26.41" r="3.03"/><path class="cls-1" d="M5.05 6.31l2.83 5.93m16.87-7.33l3.3 1.44M17.24 26.28l3.28 3.69M6.69 27.28l-1.96 3.51m8.82 8.55l4.19-1.05m15.32-20.84l-3.89 10.63m4.48 3.4l5.42-3.36M19.14 16.13l8.96-3.67"/></g></svg>