<svg id="Layer_1" data-name="Layer 1" xmlns="http://www.w3.org/2000/svg" viewBox="0 0 44.12 48.58"><defs><style>.cls-1{fill:#605dba}.cls-2{fill:#f857a6}.cls-3{fill:none;stroke-linecap:round;stroke-linejoin:round;stroke:#605dba;stroke-width:1.26px}</style></defs><path class="cls-1" d="M15.61 19.83V30a.71.71 0 00.35.61l8.76 5.06a.7.7 0 00.71 0l8.76-5.06a.71.71 0 00.35-.61V19.83a.71.71 0 00-.35-.61l-8.76-5.06a.7.7 0 00-.71 0L16 19.22a.71.71 0 00-.39.61z" transform="translate(-2.94 -.71)"/><path class="cls-2" d="M42.23 6.22v2a.68.68 0 00.35.6l1.71 1a.68.68 0 00.7 0l1.72-1a.68.68 0 00.35-.6v-2a.68.68 0 00-.35-.6l-1.71-1a.73.73 0 00-.7 0l-1.71 1a.68.68 0 00-.36.6zM35.9 45.58v2a.68.68 0 00.35.61l1.73 1a.68.68 0 00.7 0l1.74-1a.7.7 0 00.35-.61v-2a.7.7 0 00-.35-.6l-1.74-1a.73.73 0 00-.7 0l-1.73 1a.68.68 0 00-.35.6z" transform="translate(-2.94 -.71)"/><path class="cls-1" d="M22.42 44.3v2.26a.69.69 0 00.35.61l1.95 1.13a.75.75 0 00.71 0l1.95-1.13a.69.69 0 00.35-.61V44.3a.68.68 0 00-.35-.6l-1.95-1.13a.7.7 0 00-.71 0l-1.95 1.13a.68.68 0 00-.35.6z" transform="translate(-2.94 -.71)"/><path class="cls-2" d="M9.16 45v2.3a.68.68 0 00.35.61l2 1.14a.73.73 0 00.7 0l2-1.14a.68.68 0 00.35-.61V45a.71.71 0 00-.35-.61l-2-1.13a.68.68 0 00-.7 0l-2 1.13a.71.71 0 00-.35.61z" transform="translate(-2.94 -.71)"/><path class="cls-1" d="M9.33 2.55v2.07a.71.71 0 00.35.61l1.79 1a.68.68 0 00.7 0l1.79-1a.71.71 0 00.35-.61V2.55a.71.71 0 00-.31-.61l-1.79-1a.68.68 0 00-.7 0l-1.79 1a.71.71 0 00-.39.61z" transform="translate(-2.94 -.71)"/><path class="cls-2" d="M3.06 6.59v2a.7.7 0 00.35.6l1.75 1a.68.68 0 00.7 0l1.74-1a.68.68 0 00.4-.58v-2A.71.71 0 007.6 6L5.86 5a.68.68 0 00-.7 0L3.41 6a.73.73 0 00-.35.59z" transform="translate(-2.94 -.71)"/><path class="cls-1" d="M2.94 41.39v2.15a.68.68 0 00.35.61l1.87 1.08a.68.68 0 00.7 0l1.87-1.08a.7.7 0 00.35-.61v-2.15a.73.73 0 00-.35-.61L5.86 39.7a.73.73 0 00-.7 0l-1.87 1.08a.71.71 0 00-.35.61zm39.6.27v1.61a.68.68 0 00.35.61l1.4.81a.68.68 0 00.7 0l1.4-.81a.69.69 0 00.36-.61v-1.61a.7.7 0 00-.36-.61L45 40.24a.73.73 0 00-.7 0l-1.4.81a.69.69 0 00-.36.61zM35.18 2.47v2.1a.71.71 0 00.35.61l1.82 1.05a.68.68 0 00.7 0l1.82-1.05a.71.71 0 00.35-.61v-2.1a.69.69 0 00-.35-.61l-1.82-1a.68.68 0 00-.7 0l-1.82 1a.69.69 0 00-.35.61z" transform="translate(-2.94 -.71)"/><path class="cls-2" d="M22.48 2.69v2.19a.71.71 0 00.35.61l1.89 1.09a.7.7 0 00.71 0l1.89-1.09a.71.71 0 00.36-.61V2.69a.71.71 0 00-.36-.61L25.43 1a.7.7 0 00-.71 0l-1.89 1.08a.71.71 0 00-.35.61z" transform="translate(-2.94 -.71)"/><path class="cls-3" d="M35.81 20.74h1.89V8.12" transform="translate(-2.94 -.71)"/><path class="cls-3" d="M35.81 23h8.83V11.63m-8.83 15.15h8.83v11.37" transform="translate(-2.94 -.71)"/><path class="cls-3" d="M35.81 29.31h2.52v12.62m-13.25-5.05v3.79m0-32.19v3.79M14.35 28.7h-2.53v12.63" transform="translate(-2.94 -.71)"/><path class="cls-3" d="M14.35 26.17H5.51v11.37m8.84-14.25H5.51V11.93" transform="translate(-2.94 -.71)"/><path class="cls-3" d="M14.35 20.47h-2.53V7.85" transform="translate(-2.94 -.71)"/><path d="M20.18 18.29l-.15.07-3 1.74a1.14 1.14 0 00-.56 1v2.47" stroke="#f857a6" stroke-width="1.5" opacity=".9" fill="none" stroke-linecap="round" stroke-linejoin="round"/></svg>