<svg id="Layer_1" data-name="Layer 1" xmlns="http://www.w3.org/2000/svg" viewBox="0 0 47.6 46.41"><defs><style>.cls-4{fill:#f857a6}</style></defs><circle cx="20.75" cy="20.75" r="20.23" stroke-width="1.03" stroke="#605dba" stroke-miterlimit="10" fill="none"/><ellipse cx="22.25" cy="22.71" rx="20.11" ry="8.7" transform="rotate(-70.2 20.329 22.78)" stroke-width="1.28" stroke="#605dba" stroke-miterlimit="10" fill="none"/><ellipse cx="21.97" cy="23.01" rx="8.7" ry="19.81" transform="rotate(-70.2 20.056 23.077)" stroke-width="1.27" stroke="#605dba" stroke-miterlimit="10" fill="none"/><circle class="cls-4" cx="31.1" cy="15.94" r="2.69"/><circle class="cls-4" cx="15.86" cy="10.55" r="2.69"/><circle class="cls-4" cx="10.47" cy="25.94" r="2.69"/><circle class="cls-4" cx="25.71" cy="31.33" r="2.69"/><path d="M38.39 5a18.06 18.06 0 015.2 5.84 18.35 18.35 0 012.18 10.47" transform="translate(-1.33 -1.76)" fill="none"/><path d="M35.53 2.18A19.35 19.35 0 0033.21.81m4.19 2.8a21 21 0 017.34 16v.06M3.45 38.55a16 16 0 0010.05 5.11M2.52 37.44a14.63 14.63 0 01-1.21-1.81" stroke-linecap="round" fill="none" stroke="#605dba" stroke-miterlimit="10" stroke-width="1.03"/><circle cx="38.45" cy="37.27" r="9.14" fill="#605dba"/><path class="cls-4" d="M39.79 32.43a4.38 4.38 0 00-4.39 4.39c0 3.86 4.39 8.8 4.39 8.8s4.39-4.94 4.39-8.8a4.38 4.38 0 00-4.39-4.39zm0 6a1.89 1.89 0 111.89-1.89 1.89 1.89 0 01-1.89 1.86z" transform="translate(-1.33 -1.76)"/></svg>