<svg xmlns="http://www.w3.org/2000/svg" viewBox="0 0 48.8 39.12"><defs><style>.cls-1,.cls-3{fill:#f857a6}.cls-1,.cls-2,.cls-3{stroke:#605dba;stroke-width:1.5px}.cls-1,.cls-2{stroke-miterlimit:10}.cls-2{fill:none}.cls-3{stroke-linecap:round;stroke-linejoin:round}</style></defs><g id="Layer_2" data-name="Layer 2"><circle class="cls-1" cx="3.82" cy="3.82" r="3.07"/><circle class="cls-1" cx="26.97" cy="3.82" r="3.07"/><circle class="cls-1" cx="21.14" cy="19.05" r="3.07"/><circle class="cls-1" cx="15.81" cy="35.3" r="3.07"/><circle class="cls-1" cx="40.47" cy="35.3" r="1.79"/><path class="cls-2" d="M30.57 9.26h6.28a3.43 3.43 0 01.84.09 8.09 8.09 0 016.24 7.24 8.1 8.1 0 01-6.31 8.29 3.27 3.27 0 01-.82.09h-12m14.51 15.77H19.22" transform="translate(-.6 -5.44)"/><path class="cls-3" d="M47.71 40.74h-4.52" transform="translate(-.6 -5.44)"/><path class="cls-2" d="M13.15 40.74H10.9A7.91 7.91 0 019.79 25h8.92m5.86-15.74H7.41" transform="translate(-.6 -5.44)"/><path class="cls-3" d="M40.82 28.25h7.5l-1.83 2.89 2.16 2.55h-7.83" transform="translate(-.6 -5.44)"/><path d="M40.22 33.56V21.81" stroke-linecap="round" fill="none" stroke-miterlimit="10" stroke="#605dba" stroke-width="1.5"/></g></svg>