<svg xmlns="http://www.w3.org/2000/svg" viewBox="0 0 41.97 45.99"><defs><style>.cls-1,.cls-3,.cls-4{fill:none;stroke:#605dba;stroke-miterlimit:10}.cls-1,.cls-4{stroke-width:1.5px}.cls-2{fill:#605dba}.cls-3,.cls-4{stroke-linecap:round}.cls-3{stroke-width:1.28px}.cls-9{fill:#f857a6}</style></defs><g id="Layer_3" data-name="Layer 3"><circle class="cls-1" cx="14.03" cy="36.21" r="2.73"/><circle class="cls-1" cx="34.01" cy="5.02" r="1.97"/><circle class="cls-1" cx="22.61" cy="22.98" r="1.97"/><circle class="cls-1" cx="2.72" cy="31.48" r="1.97"/><circle class="cls-2" cx="17.58" cy="44.01" r="1.97"/><circle class="cls-3" cx="35.82" cy="36.21" r="3.78"/><circle class="cls-4" cx="37.44" cy="17.63" r="3.78"/><circle cx="10.86" cy="19.99" r="2.18" stroke-width="1.16" stroke-linecap="round" fill="none" stroke="#605dba" stroke-miterlimit="10"/><circle cx="21.63" cy="3.05" r="2.41" stroke-width="1.28" fill="none" stroke="#605dba" stroke-miterlimit="10"/><path class="cls-3" d="M9.52 13.92A20 20 0 006.74 21m4.36-9.26a20.18 20.18 0 0112.14-7" transform="translate(-4.01 -1.69)"/><path class="cls-4" d="M14.88 27.4a11.66 11.66 0 01-.32-2.73 5.43 5.43 0 010-.57m1.19-4.66a12.07 12.07 0 0110.88-6.84h.82" transform="translate(-4.01 -1.69)"/><path class="cls-3" d="M45.24 26.3a18 18 0 01-1.07 4.83M25.15 43.3c.49 0 1 .06 1.48.06a17.52 17.52 0 003-.25m7.28-2.83a18.76 18.76 0 01-4.09 2" transform="translate(-4.01 -1.69)"/><path class="cls-4" d="M38.21 24.47a11.34 11.34 0 01-2.66 8.17 11.61 11.61 0 01-9.34 3.72m-14.97-8.81a15.56 15.56 0 004.42 9m9.63 4.1a15 15 0 01-5.08-1.09" transform="translate(-4.01 -1.69)"/><circle class="cls-2" cx="6.86" cy="23.58" r=".81"/><circle class="cls-2" cx="2.19" cy="22.18" r=".81"/><path d="M30.41 9.17c-.48-.11-1-.21-1.46-.28M42.49 23a16.37 16.37 0 01.09 1.72v1.07M32.06 9.67a15.91 15.91 0 017.87 6.2" transform="translate(-4.01 -1.69)" stroke-linecap="round" fill="none" stroke="#605dba" stroke-miterlimit="10"/><path stroke-width=".75" stroke-linecap="round" fill="none" stroke="#605dba" stroke-miterlimit="10" d="M21.27 38.96h-.01"/><path class="cls-9" d="M32.45 23.14a6 6 0 00-2.65-3.58 5.47 5.47 0 00-1.9-.77 5.88 5.88 0 00-2.55 0 5.89 5.89 0 00-2 .83 6.16 6.16 0 00-1.81 1.82 6 6 0 00-.74 1.7 5.74 5.74 0 00-.1 2.57 5.85 5.85 0 00.81 2.13 6.07 6.07 0 001.79 1.85 5.73 5.73 0 002.05.86 5.88 5.88 0 002.55 0A5.9 5.9 0 0031.68 28a5.83 5.83 0 00.87-2.24 5.74 5.74 0 00-.1-2.57zm-9.79 1.53a3.87 3.87 0 01.87-2.47 4 4 0 11-.87 2.47z" transform="translate(-4.01 -1.69)"/><rect class="cls-9" x="21.33" y="15.3" width="2.57" height="3.68" rx="1.08"/><rect class="cls-9" x="21.33" y="26.99" width="2.57" height="3.68" rx="1.08"/><rect class="cls-9" x="31.19" y="22.59" width="2.57" height="3.68" rx="1.08" transform="rotate(90 31.31 21.58)"/><rect class="cls-9" x="19.49" y="22.59" width="2.57" height="3.68" rx="1.08" transform="rotate(90 19.615 21.575)"/><rect class="cls-9" x="21.12" y="18.66" width="2.57" height="3.68" rx="1.08" transform="rotate(-45 18.365 24.493)"/><path class="cls-9" d="M30.65 27.1H31a1.08 1.08 0 011.08 1.08v1.51A1.08 1.08 0 0131 30.77h-.4a1.09 1.09 0 01-1.09-1.09v-1.5a1.08 1.08 0 011.14-1.08z" transform="rotate(-45 26.803 32.938)"/><rect class="cls-9" x="29.39" y="18.66" width="2.57" height="3.68" rx="1.08" transform="rotate(45 30.71 14.8)"/><rect class="cls-9" x="21.12" y="26.93" width="2.57" height="3.68" rx="1.08" transform="rotate(45 22.43 23.08)"/></g></svg>