<svg id="Layer_1" data-name="Layer 1" xmlns="http://www.w3.org/2000/svg" viewBox="0 0 34.39 45.87"><defs><style>.cls-1,.cls-4{fill:#e9d1ea;stroke:#231f20;stroke-linecap:round;stroke-linejoin:round;stroke-width:.35px}.cls-4{fill:none}</style></defs><path class="cls-1" d="M38.57 32A13.55 13.55 0 0136 37.93l2.77 3L35.42 44l-2.74-3a13.52 13.52 0 01-5.54 2.15v4.58h-4.51v-4.62a13.37 13.37 0 01-5.09-2l-2.85 2.86-3.2-3.19L14.22 38a13.91 13.91 0 01-2.6-5.77L8 32.09l.18-4.52 3.35.14a13.75 13.75 0 012.64-6.33L12 19l3.32-3 2.12 2.31a13.69 13.69 0 015.2-2.11 14 14 0 012.44-.2 13.79 13.79 0 017.76 2.42l2.79-2.58 3.06 3.32-2.6 2.39a13.57 13.57 0 012.5 5.95l3.41.1-.19 4.51z" transform="translate(-7.8 -2.06)"/><circle cx="17.08" cy="27.58" r="8.17" fill="#c6c5ea" stroke-miterlimit="10" stroke-width=".35" stroke="#231f20"/><circle cx="17.08" cy="27.58" r="1.62" stroke-width=".5" fill="none" stroke-linecap="round" stroke-linejoin="round" stroke="#231f20"/><path class="cls-4" d="M24.17 20.48l-5.95 5.96"/><path class="cls-4" d="M20.21 32.62a5.54 5.54 0 01-.85-3 5.71 5.71 0 018.71-4.87m2.01 2.13a5.59 5.59 0 01.72 2.76 5.74 5.74 0 01-8.49 5" transform="translate(-7.8 -2.06)"/><path class="cls-4" d="M24.17 10.21h3.1m-19.9 0h3.09m15.26 1.54V8.66M8.91 11.75V8.66"/><path class="cls-1" d="M14.51 16.54V7.25h-2.95L17.27.17l5.72 6.97-3.18.11v9.29"/></svg>