<svg xmlns="http://www.w3.org/2000/svg" viewBox="0 0 50 50"><style>.st1,.st3{fill:#d573ab;stroke:#5e5bbc;stroke-width:.75;stroke-linecap:round;stroke-linejoin:round;stroke-miterlimit:10}.st3{fill:none;stroke-width:.7}</style><g id="Layer_1"><path class="st1" d="M38.57 31.98c-.38 2.22-1.28 4.24-2.6 5.95l2.78 3.02-3.32 3.07-2.74-2.99a13.522 13.522 0 01-5.54 2.15v4.58h-4.51v-4.65a13.42 13.42 0 01-5.08-2.04l-2.85 2.85-3.2-3.19L14.22 38a13.874 13.874 0 01-2.6-5.76l-3.65-.14.18-4.51 3.36.13c.33-2.35 1.27-4.51 2.64-6.33l-2.16-2.35 3.32-3.05 2.12 2.31c1.54-1.04 3.3-1.76 5.19-2.11.79-.14 1.62-.22 2.45-.22.95 0 1.88.1 2.78.29 1.83.37 3.51 1.1 4.98 2.13l2.8-2.57 3.05 3.32-2.6 2.39c1.27 1.72 2.15 3.75 2.5 5.95l3.43.14-.19 4.51-3.25-.15z"/><circle cx="24.88" cy="29.64" r="8.17" fill="#d573ab" stroke="#5e5bbc" stroke-width=".75" stroke-miterlimit="10"/><circle class="st3" cx="24.88" cy="29.64" r="1.62"/><path d="M31.98 22.55l-5.95 5.95m-5.82 4.12a5.55 5.55 0 01-.85-2.99c0-3.15 2.55-5.72 5.72-5.72 1.09 0 2.12.31 2.99.85m2.01 2.12c.46.81.71 1.75.71 2.75 0 3.17-2.56 5.72-5.72 5.72-1 0-1.94-.26-2.76-.7" stroke-width=".75" fill="none" stroke="#5e5bbc" stroke-linecap="round" stroke-linejoin="round" stroke-miterlimit="10"/><path class="st3" d="M31.98 12.27h3.09m-19.9 0h3.09m15.26 1.55v-3.1m-16.8 3.1v-3.1"/><path class="st1" d="M22.31 18.61v-9.3h-2.95l5.72-7.07 5.72 6.97-3.19.1v9.3"/></g></svg>