<svg id="Layer_2" data-name="Layer 2" xmlns="http://www.w3.org/2000/svg" viewBox="0 0 36.99 35.66"><defs><style>.cls-2,.cls-3{fill:#c6c5ea}.cls-2{stroke:#c6c5ea}.cls-2,.cls-3,.cls-5{stroke-linejoin:round}.cls-2{stroke-width:.75px}.cls-3,.cls-5{stroke:#231f20;stroke-linecap:round;stroke-width:.35px}.cls-5{fill:none}</style></defs><path d="M15.77 33.81s-7.51-9.19-5.15-16.75 11.82-9.49 11.82-9.49a15.4 15.4 0 0113.31 5.48l1.45 2 .2 4.3 2.72 9.92h-4L36 35.36l-1 1.36-6.42.44v5H14.32v-5.55z" transform="translate(-6.4 -7.27)" fill="#e9d1ea"/><path class="cls-2" d="M8.82 29.12l-3.06-2.49 6.33-7.22 3.05 2.49-6.32 7.22z"/><ellipse class="cls-3" cx="19.02" cy="14.15" rx="8.22" ry="7.92"/><ellipse cx="19.01" cy="14.33" rx="5" ry="4.54" stroke-miterlimit="10" stroke-width=".35" fill="#fff" stroke="#231f20"/><path class="cls-2" d="M4.62 34.98L.43 31.57l8.49-9.69 4.19 3.41-8.49 9.69z"/><path class="cls-5" d="M16.04 13.84l1.4 2.5 4.4-3.61"/><path stroke-linecap="round" stroke-width=".75" stroke-linejoin="round" stroke="#c6c5ea" fill="#c6c5ea" d="M3.26 35.29L.38 32.94l.77-.88 2.88 2.35-.77.88z"/><path class="cls-3" d="M26.44 3.63h10.38v2.8H26.44z"/><path class="cls-5" d="M32.07 9.87a14.29 14.29 0 00-7.86-2.43 14.77 14.77 0 00-6.11 1.41A14.3 14.3 0 0011.41 15C8.07 21.61 12.73 28.52 13 28.85M37.4 16v4l2.72 9.34h-4v5.33a2.57 2.57 0 01-2.62 2.52h-4.92v5H14.32v-1.25" transform="translate(-6.4 -7.27)"/><path fill="#fff" d="M3.62 33.15l.97.79 7.97-9.1-.97-.79-7.97 9.1z"/></svg>