<svg xmlns="http://www.w3.org/2000/svg" viewBox="0 0 50 50"><path d="M15.77 33.81s-7.5-9.19-5.15-16.75 11.82-9.49 11.82-9.49 7.73-1.18 13.31 5.48l1.45 2.04.2 4.3 2.72 9.92h-3.98l-.11 5.42c-.01.41-.14.8-.39 1.13l-.2.27c-.28.38-.72.61-1.19.64l-5.68.39v4.95H14.32V36.6l1.45-2.79z" fill="#d573ab"/><path fill="#5e5bbc" stroke="#5e5bbc" stroke-width=".75" stroke-linejoin="round" stroke-miterlimit="10" d="M17.33 34.19l-3.05-2.49 6.32-7.21 3.06 2.49z"/><ellipse cx="25.42" cy="21.42" rx="8.22" ry="7.92" fill="#5e5bbc" stroke="#5e5bbc" stroke-width=".35" stroke-linecap="round" stroke-linejoin="round" stroke-miterlimit="10"/><ellipse cx="25.42" cy="21.6" rx="5" ry="4.54" fill="#fff" stroke="#5e5bbc" stroke-width=".355" stroke-miterlimit="10"/><path fill="#5e5bbc" stroke="#5e5bbc" stroke-width=".75" stroke-linejoin="round" stroke-miterlimit="10" d="M11.02 42.25l-4.19-3.41 8.5-9.69 4.19 3.41z"/><path fill="none" stroke="#5e5bbc" stroke-width="1.5" stroke-linecap="round" stroke-linejoin="round" stroke-miterlimit="10" d="M22.44 21.11l1.41 2.5L28.24 20"/><path fill="#5e5bbc" stroke="#5e5bbc" stroke-width=".75" stroke-linecap="round" stroke-linejoin="round" stroke-miterlimit="10" d="M9.67 42.56l-2.89-2.35.77-.88 2.89 2.35z"/><path fill="#5e5bbc" stroke="#5e5bbc" stroke-width=".35" stroke-linecap="round" stroke-linejoin="round" stroke-miterlimit="10" d="M30.84 11.9h10.38v2.8H30.84z"/><path d="M32.07 9.87c-1.08-.73-3.91-2.42-7.86-2.43-.57 0-3.16.03-6.11 1.4-.92.43-4.71 2.26-6.69 6.17-3.34 6.6 1.32 13.51 1.55 13.83m24.44-12.8v3.93l2.72 9.35h-3.98v5.33c0 1.39-1.17 2.52-2.62 2.52h-4.95v4.95H14.32v-1.18" fill="none" stroke="#5e5bbc" stroke-width=".75" stroke-linecap="round" stroke-linejoin="round" stroke-miterlimit="10"/><path fill="#fff" d="M10.02 40.42l.98.79 7.97-9.1-.97-.79z"/></svg>