<svg id="Layer_1" data-name="Layer 1" xmlns="http://www.w3.org/2000/svg" viewBox="0 0 48.31 39.82"><defs><style>.cls-5{fill:#605dba}</style></defs><path stroke-width=".36" stroke-linejoin="round" stroke="#605dba" fill="none" stroke-linecap="round" d="M37.58 16.11v-.02"/><path d="M37.81 9.2a14.95 14.95 0 101.59 7.45" stroke-width="2" stroke-miterlimit="10" stroke="#605dba" fill="none" stroke-linecap="round"/><path d="M13.4 16.46c1.43-1.17 1.83-1.48 3.25-2.65q2 4.7 4 9.38c.07.2.15.38.24.58l4.27-17.08c0 .06 5.45 12.26 5.48 12.31l.21.5L46.53 6.69M6.8 21.87L1 26.62" stroke-width="2" stroke="#f857a6" stroke-linejoin="round" fill="none" stroke-linecap="round"/><path class="cls-5" d="M34.18 28.88l3.44-3.44.97.92-3.52 3.53-.89-1.01z"/><path class="cls-5" d="M37.6 24.4l-4.45 4.45 1.89 2.13 4.62-4.64-2.06-1.94z"/><path class="cls-5" d="M45.52 43.47a2.15 2.15 0 01-1.52-.66l-6.34-6.44 3.14-3.08 6.34 6.44a2.21 2.21 0 010 3.11 2.18 2.18 0 01-1.62.63z" transform="translate(-.35 -4.59)"/><path class="cls-5" d="M40.74 34.61l5.68 5.77a1.26 1.26 0 010 1.79 1.22 1.22 0 01-.88.36 1.27 1.27 0 01-.91-.37l-5.67-5.78 1.8-1.77m0-2.55a.28.28 0 00-.17.07l-4.13 4.06a.25.25 0 000 .34l6.82 6.94a3.09 3.09 0 002.24.94 3.13 3.13 0 002.23-5.34l-6.81-6.94a.29.29 0 00-.18-.07z" transform="translate(-.35 -4.59)"/></svg>