<svg xmlns="http://www.w3.org/2000/svg" viewBox="0 0 44.56 30.37"><defs><style>.cls-1,.cls-3{fill:#e9d1ea;stroke:#231f20;stroke-miterlimit:10;stroke-width:.35px}.cls-3{fill:none}</style></defs><g id="Layer_2" data-name="Layer 2"><path class="cls-1" d="M5.84 10.22l16.5-7.55 17.51 7.85V30.2H5.84V10.22z"/><path class="cls-1" d="M6.98 30.2H.17V15.75l5.67-2.04v14.42M37.7 30.2h6.69V15.75l-4.54-1.96"/><path fill="#c6c5ea" stroke="#231f20" stroke-miterlimit="10" stroke-width=".35" d="M2.95 9.57L22.34.19l19.79 9.38v1.96L22.34 2.67 2.95 11.53V9.57z"/><path class="cls-3" d="M5.84 13.71v-3.49m34.01.3V30.2H5.84v-2.07m6.8-15.67h20"/><path class="cls-3" d="M12.13 13.08h21.13v1.44H12.13zm20 1.45V30.2H13.26V14.53m18.87 5.97H13.26"/><path class="cls-3" d="M15.12 30.2v-5.99h6.6v5.99m3.92 0v-5.06h3.91v5.06m-3.91-3.61h-3.92M5.84 28.13l-5.66.11m44.21-.16h-4.54"/></g></svg>