<svg xmlns="http://www.w3.org/2000/svg" viewBox="0 0 50 50"><style>.st5{stroke:#5e5bbc;stroke-width:.75;stroke-miterlimit:10;fill:none}</style><g id="Layer_2"><path fill="#d573ab" d="M8.55 20.02l16.51-7.55 17.51 7.85V40H8.55z"/><path d="M9.69 40h-6.8V25.56l5.66-2.04v14.41M40.42 40h6.69V25.56l-4.54-1.97" fill="#d573ab" stroke="#5e5bbc" stroke-width=".75" stroke-miterlimit="10"/><path fill="#5e5bbc" d="M5.67 19.38L25.06 10l19.78 9.38v1.96l-19.78-8.87-19.39 8.87z"/><path class="st5" d="M8.55 23.52v-3.5m34.02.3V40H8.55v-2.07m6.81-15.66h20"/><path class="st5" d="M14.85 22.89h21.13v1.44H14.85z"/><path class="st5" d="M34.84 24.33V40H15.98V24.33m18.86 5.98H15.98"/><path class="st5" d="M17.84 40v-5.99h6.6V40m3.92 0v-5.06h3.9V40m-3.9-3.61h-3.92M8.55 37.93l-5.66.12m44.22-.17h-4.54"/></g></svg>