<svg xmlns="http://www.w3.org/2000/svg" xmlns:xlink="http://www.w3.org/1999/xlink" viewBox="0 0 500 500"><defs><linearGradient id="linear-gradient" x1="254.25" y1="184.28" x2="254.25" y2="239" gradientUnits="userSpaceOnUse"><stop offset="0" stop-color="#14dcff"/><stop offset="1" stop-color="#0080ff"/></linearGradient><linearGradient id="linear-gradient-2" x1="207.54" y1="182.3" x2="249.24" y2="220.83" xlink:href="#linear-gradient"/><linearGradient id="linear-gradient-3" x1="237.76" y1="169.71" x2="281.95" y2="211.82" xlink:href="#linear-gradient"/><linearGradient id="linear-gradient-4" x1="231.69" y1="174.83" x2="251.35" y2="174.83" xlink:href="#radial-gradient"/><linearGradient id="linear-gradient-5" x1="288.91" y1="171.84" x2="288.91" y2="261.85" gradientUnits="userSpaceOnUse"><stop offset="0" stop-color="#ffdb0d"/><stop offset="1" stop-color="#ffa408"/></linearGradient><linearGradient id="linear-gradient-6" x1="231.14" y1="172.76" x2="291.93" y2="228.94" xlink:href="#linear-gradient-5"/><linearGradient id="linear-gradient-7" x1="272.41" y1="151.06" x2="316.6" y2="193.17" xlink:href="#linear-gradient-5"/><linearGradient id="linear-gradient-8" x1="267.32" y1="155.95" x2="286.43" y2="155.95" xlink:href="#radial-gradient"/><linearGradient id="linear-gradient-9" x1="-3058.28" y1="186.59" x2="-3055.5" y2="180.12" gradientTransform="translate(3345.32)" gradientUnits="userSpaceOnUse"><stop offset="0" stop-color="#fbdac9"/><stop offset="1" stop-color="#fbbdb5"/></linearGradient><linearGradient id="linear-gradient-10" x1="285.29" y1="245.35" x2="291.44" y2="225.24" gradientTransform="rotate(.53 -18.19 2845.455)" xlink:href="#linear-gradient-9"/><linearGradient id="linear-gradient-11" x1="319.47" y1="253.73" x2="325.09" y2="235.37" xlink:href="#linear-gradient-9"/><linearGradient id="linear-gradient-12" x1="306.99" y1="164.03" x2="315.23" y2="155.29" xlink:href="#linear-gradient-9"/><linearGradient id="linear-gradient-13" x1="303.57" y1="158.51" x2="315.58" y2="145.77" xlink:href="#linear-gradient-9"/><linearGradient id="linear-gradient-14" x1="307.53" y1="162.23" x2="319.54" y2="149.49" xlink:href="#linear-gradient-9"/><linearGradient id="linear-gradient-15" x1="729" y1="493.45" x2="734.52" y2="475.4" gradientTransform="rotate(92.9 672.426 146.473)" xlink:href="#linear-gradient-9"/><linearGradient id="linear-gradient-16" x1="386.12" y1="180.4" x2="392.3" y2="166.05" gradientTransform="translate(-34.93)" xlink:href="#linear-gradient-9"/><linearGradient id="linear-gradient-17" x1="359.43" y1="189.94" x2="288.12" y2="40.07" gradientTransform="translate(-34.93)" xlink:href="#linear-gradient-9"/><linearGradient id="linear-gradient-18" x1="367.85" y1="191.08" x2="290" y2="27.48" gradientTransform="translate(-34.93)" xlink:href="#linear-gradient-9"/><linearGradient id="linear-gradient-19" x1="381.54" y1="168.85" x2="390.43" y2="155.14" gradientTransform="translate(-34.93)" xlink:href="#linear-gradient-9"/><linearGradient id="linear-gradient-20" x1="386.22" y1="171.87" x2="395.18" y2="158.04" gradientTransform="translate(-34.93)" xlink:href="#linear-gradient-9"/><linearGradient id="linear-gradient-21" x1="362.04" y1="210.94" x2="368.15" y2="190.95" xlink:href="#linear-gradient-9"/><linearGradient id="linear-gradient-22" x1="250.73" y1="308.23" x2="295.29" y2="531.05" gradientUnits="userSpaceOnUse"><stop offset="0" stop-color="#55617d"/><stop offset="1" stop-color="#363e4f"/></linearGradient><linearGradient id="linear-gradient-23" x1="117.53" y1="421.81" x2="261.2" y2="320.71" xlink:href="#linear-gradient-22"/><linearGradient id="linear-gradient-24" x1="304.1" y1="368" x2="363.51" y2="368" gradientUnits="userSpaceOnUse"><stop offset="0" stop-color="#ffa408"/><stop offset="1" stop-color="#ffdb0d"/></linearGradient><linearGradient id="linear-gradient-25" x1="318.69" y1="351.88" x2="349.82" y2="351.88" gradientUnits="userSpaceOnUse"><stop offset="0" stop-color="#0080ff"/><stop offset="1" stop-color="#14dcff"/></linearGradient><linearGradient id="linear-gradient-26" x1="346.08" y1="367.69" x2="377.2" y2="367.69" xlink:href="#linear-gradient-25"/><linearGradient id="linear-gradient-27" x1="291.18" y1="347.98" x2="336.12" y2="347.98" xlink:href="#linear-gradient-24"/><linearGradient id="linear-gradient-28" x1="309.88" y1="330.67" x2="322.43" y2="330.67" xlink:href="#linear-gradient-25"/><linearGradient id="linear-gradient-29" x1="274.27" y1="350.49" x2="290.84" y2="350.49" xlink:href="#linear-gradient-24"/><linearGradient id="linear-gradient-30" x1="235.63" y1="328.47" x2="295.04" y2="328.47" xlink:href="#linear-gradient-25"/><linearGradient id="linear-gradient-31" x1="217.97" y1="309.84" x2="267.66" y2="309.84" xlink:href="#linear-gradient-25"/><linearGradient id="linear-gradient-32" x1="220.04" y1="297.35" x2="253.97" y2="297.35" xlink:href="#linear-gradient-24"/><linearGradient id="linear-gradient-33" x1="242.25" y1="314.67" x2="281.36" y2="314.67" xlink:href="#linear-gradient-24"/><linearGradient id="linear-gradient-34" x1="279.56" y1="327.59" x2="308.74" y2="327.59" xlink:href="#linear-gradient-24"/><linearGradient id="linear-gradient-35" x1="223.3" y1="284.52" x2="240.28" y2="284.52" xlink:href="#linear-gradient-25"/><linearGradient id="linear-gradient-36" x1="172.48" y1="275.52" x2="212.89" y2="275.52" xlink:href="#linear-gradient-25"/><linearGradient id="linear-gradient-37" x1="202.49" y1="278.68" x2="226.58" y2="278.68" xlink:href="#linear-gradient-24"/><linearGradient id="linear-gradient-38" x1="137.63" y1="273.76" x2="199.2" y2="273.76" xlink:href="#linear-gradient-24"/><linearGradient id="linear-gradient-39" x1="200.27" y1="314.75" x2="216.83" y2="314.75" xlink:href="#linear-gradient-25"/><linearGradient id="linear-gradient-40" x1="189.19" y1="306.7" x2="389.14" y2="306.7" xlink:href="#linear-gradient-22"/><linearGradient id="linear-gradient-41" x1="287.36" y1="375.17" x2="303.93" y2="375.17" xlink:href="#linear-gradient-24"/><linearGradient id="linear-gradient-42" x1="405.61" y1="231.32" x2="405.61" y2="324.19" xlink:href="#linear-gradient"/><linearGradient id="linear-gradient-43" x1="346.95" y1="232.47" x2="409.28" y2="290.08" xlink:href="#linear-gradient"/><linearGradient id="linear-gradient-44" x1="389.11" y1="210.03" x2="433.3" y2="252.15" xlink:href="#linear-gradient"/><linearGradient id="linear-gradient-45" x1="383.05" y1="215.15" x2="402.71" y2="215.15" xlink:href="#radial-gradient"/><linearGradient id="linear-gradient-46" x1="440.26" y1="284.21" x2="440.26" y2="341.31" xlink:href="#linear-gradient-5"/><linearGradient id="linear-gradient-47" x1="392.81" y1="282.42" x2="435.79" y2="322.15" xlink:href="#linear-gradient-5"/><linearGradient id="linear-gradient-48" x1="423.77" y1="269.21" x2="467.96" y2="311.33" xlink:href="#linear-gradient-5"/><linearGradient id="linear-gradient-49" x1="418.67" y1="274.1" x2="437.79" y2="274.1" xlink:href="#radial-gradient"/><linearGradient id="linear-gradient-50" x1="138.33" y1="222.9" x2="145.66" y2="285.9" gradientUnits="userSpaceOnUse"><stop offset="0" stop-color="#8ea3cf"/><stop offset="1" stop-color="#798bb0"/></linearGradient><linearGradient id="linear-gradient-51" x1="73.99" y1="269.66" x2="100.82" y2="237.16" xlink:href="#linear-gradient-50"/><linearGradient id="linear-gradient-52" x1="94.07" y1="228.59" x2="188.73" y2="172.59" xlink:href="#linear-gradient-50"/><linearGradient id="linear-gradient-53" x1="104.83" y1="231.73" x2="173.5" y2="231.73" xlink:href="#linear-gradient-22"/><linearGradient id="linear-gradient-54" x1="179.41" y1="211.32" x2="110.41" y2="249.32" gradientUnits="userSpaceOnUse"><stop offset="0" stop-color="#ed5599"/><stop offset="1" stop-color="#ff99c7"/></linearGradient><linearGradient id="linear-gradient-55" x1="100.69" y1="143.26" x2="128.86" y2="203.59" gradientUnits="userSpaceOnUse"><stop offset="0" stop-color="#14dcff"/><stop offset="1" stop-color="#14dcff" stop-opacity="0"/></linearGradient><linearGradient id="linear-gradient-56" x1="108.93" y1="112.91" x2="161.93" y2="273.66" xlink:href="#linear-gradient"/><linearGradient id="linear-gradient-57" x1="119.2" y1="364.21" x2="200.29" y2="364.21" xlink:href="#linear-gradient-25"/><linearGradient id="linear-gradient-58" x1="248.85" y1="48.19" x2="272.85" y2="182.53" xlink:href="#linear-gradient-5"/><linearGradient id="linear-gradient-59" x1="409.43" y1="112.63" x2="411.1" y2="246.3" xlink:href="#linear-gradient"/><radialGradient id="radial-gradient" cx="202.09" cy="118.1" r="683.64" gradientUnits="userSpaceOnUse"><stop offset="0" stop-color="#fff"/><stop offset="1" stop-color="#e6f4ff"/></radialGradient><style>.cls-21,.cls-7{fill:#fff}.cls-7{opacity:.5;mix-blend-mode:overlay}.cls-12{fill:#596782}.cls-17{fill:#fbe0d5;mix-blend-mode:multiply}.cls-18{fill:#ffc8b8}.cls-19{fill:#27638c}.cls-20{fill:#a33657}.cls-22{fill:#1a1e26}.cls-24{fill:#262c38}.cls-25{fill:#697999}.cls-29{fill:#f5b7a9}.cls-33{fill:#1e202b}.cls-34{fill:#3d4659}.cls-37{fill:#889dc7}.cls-42{fill:#db7691}.cls-44{fill:#ffc60b}</style></defs><g style="isolation:isolate"><path fill="url(#radial-gradient)" d="M0 0h500v500H0z" id="BACKGROUND"/><g id="OBJECTS"><path fill="url(#linear-gradient)" d="M265.49 174.64v46.88L243 234.59v-46.88l22.49-13.07z"/><path fill="url(#linear-gradient-2)" d="M243 187.71v46.88l-22.62-13.07v-46.87L243 187.71z"/><path fill="url(#linear-gradient-3)" d="M265.49 174.64L243 187.71l-22.62-13.06 22.49-13.07 22.62 13.06z"/><path d="M246.63 169.13l-14.94 5.49 2.49 1.43 2.69-1 4.29 2.48-1.72 1.56 2.49 1.44 9.42-8.67zm-7.15 5l7-2.65.87.5-4.51 4.02z" fill="url(#linear-gradient-4)"/><path class="cls-7" d="M220.38 174.65v.64L243 188.35l22.49-13.07v-.64L243 187.71l-22.62-13.06z"/><path fill="url(#linear-gradient-5)" d="M300.15 155.99v85.53l-22.49 13.07v-85.53l22.49-13.07z"/><path fill="url(#linear-gradient-6)" d="M277.66 169.06v85.53l-22.63-13.06V156l22.63 13.06z"/><path fill="url(#linear-gradient-7)" d="M300.15 155.99l-22.49 13.07L255.03 156l22.49-13.07 22.63 13.06z"/><path d="M280.88 158a5.65 5.65 0 004-.78c2.33-1.35 1.87-2.65-.6-4.08l-4.81-2.78-12.18 7.08 4.89 2.82a7.11 7.11 0 007.48.27c1.6-.88 1.81-1.63 1.22-2.53zm-3.59 1a2.7 2.7 0 01-3.1 0l-2.27-1.31 3-1.73 2.28 1.31c.96.57 1.09 1.18.09 1.73zm1.9-3l-2.19-1.26 2.91-1.69 2.2 1.28c.94.54 1 1.07 0 1.65a2.64 2.64 0 01-2.92.02z" fill="url(#linear-gradient-8)"/><path class="cls-7" d="M255.03 156v.63l22.63 13.07 22.49-13.07v-.64l-22.49 13.07L255.03 156z"/><path class="cls-12" d="M303.18 162.71s-2.92 11-4.16 14a54.58 54.58 0 01-9.59 6.09l2.51 4.42s8-3.18 12.21-6.32l3.18-18.19z"/><path fill="#4f5473" d="M295.24 177.82l-11.38-5.62-.44.41 5.66 16.7 10.95 6.04.44-.41-5.23-17.12z"/><path fill="#2d3041" d="M294.81 178.23l-11.39-5.62 5.22 17.12 11.39 5.62-5.22-17.12z"/><path d="M285.68 180.78a8.52 8.52 0 011.21-1.14c.22 0 2 .48 2.68.57s1 .19 1 .32-.6.52-1.25.63a11.62 11.62 0 01-1.58.11 28 28 0 012.53 1.62c.35.35.19 1.16.24 2.25a9.56 9.56 0 01-.11 2.69c-.13 0-.55-.05-1-.55a2.43 2.43 0 00-1.19-.89c-.24 0-.51.4-.51.4a.93.93 0 01-.79-.37c-.24-.39-1.29-4-1.4-4.18a1.26 1.26 0 01-.27-.7 2.65 2.65 0 01.44-.76z" fill="url(#linear-gradient-9)"/><path d="M306.37 227.93s2.54 21.94 2.64 24.43a23.54 23.54 0 01-.87 7.68l1 1.95 5.63-1.34s-.61-3.47-.88-5.92-1.73-27-1.73-27z" fill="url(#linear-gradient-10)"/><path class="cls-17" d="M313.9 254.37c-.35-3.87-1.7-26.64-1.7-26.64l-5.83.2s2.54 21.94 2.64 24.43a29.07 29.07 0 01-.15 4.11 17.22 17.22 0 005.04-2.1z"/><path class="cls-18" d="M298.82 265.77s.07.92.13 1.16c2 .72 5.2.47 7.45-.15s4.57-1.32 6.18-1.57a16.14 16.14 0 002.95-.77l-.11-1.52z"/><path class="cls-19" d="M304.19 265.66h-.09l-1.76-3.49a39.8 39.8 0 005.06-3.11c.89-.87.93-1.67 1.45-1.51s1.71.54 1.87 1a3 3 0 01-.57 2.12c-.51.88-5.96 4.99-5.96 4.99z"/><path class="cls-20" d="M314.71 259.66a27.45 27.45 0 01-3.89-.09c-1-.2-1.19-.59-1.81-.2s-4.39 2.82-4.88 3.19-.39.69-.29 1.48a10.14 10.14 0 00.35 1.62s4.18-.81 6.17-1.45 5.06-1.29 5.06-1.29a13.2 13.2 0 00-.71-3.26z"/><path class="cls-21" d="M304.1 265.65a7 7 0 00-1.82-3.54s-1.93 1.4-2.67 2a2.51 2.51 0 00-.79 1.64 16.14 16.14 0 005.28-.1zm.44-2.3a.32.32 0 01-.27-.18 3.07 3.07 0 00-1-1.31.32.32 0 01.31-.55 3.55 3.55 0 011.31 1.6.31.31 0 01-.16.41.21.21 0 01-.19.03zm.97-.63a.32.32 0 01-.26-.19 2.9 2.9 0 00-1.05-1.3.32.32 0 01-.11-.44.31.31 0 01.43-.11 3.62 3.62 0 011.31 1.59.32.32 0 01-.16.42.41.41 0 01-.16.03zm.98-.64a.32.32 0 01-.27-.18 3.07 3.07 0 00-1-1.31.31.31 0 01-.12-.43.32.32 0 01.43-.12 3.55 3.55 0 011.31 1.59.32.32 0 01-.16.42zm.97-.64a.32.32 0 01-.27-.18 3.07 3.07 0 00-1-1.31.31.31 0 01-.11-.43.32.32 0 01.43-.12 3.64 3.64 0 011.3 1.6.32.32 0 01-.16.42.26.26 0 01-.19.02zm.98-.63a.32.32 0 01-.27-.19 3 3 0 00-1-1.3.32.32 0 01.31-.55 3.62 3.62 0 011.31 1.59.32.32 0 01-.16.42.4.4 0 01-.19.03z"/><path class="cls-22" d="M302.73 195.26s1 18.16 2.73 33.9 2.63 23.45 2.63 23.45a13.11 13.11 0 007.12-.67s-2-18.42-2.16-22.51 2.16-34.17 2.16-34.17z"/><path class="cls-18" d="M318 264.13s.09 6.43.09 8 .24 3.38 1.5 3.79 3.78.51 4.57-.35.79-3.32.79-4-.3-7.4-.3-7.4z"/><path d="M316.59 235.17s2.16 21.84 2.16 24.07-.55 3.42-.34 6.68h5.89s-.57-4.31-.82-6.59-.76-24.16-.76-24.16z" fill="url(#linear-gradient-11)"/><path class="cls-17" d="M316.59 235.17s2.07 20.92 2.15 23.9a13.84 13.84 0 004.61-2c-.27-6.16-.63-21.92-.63-21.92z"/><path class="cls-19" d="M318.26 272v-.25s.82-7.9.83-8.66.65-1.74 2.43-1.63 1.91 1.25 2 2.12 1.05 7.94 1.05 7.94l-.06.23z"/><path class="cls-20" d="M318.79 260.92s-.76.6-.82 2.64.27 7.3.29 8.2l1.9-1.1c.44-.26.56-.73.56-1.5v-4.51a2 2 0 00-.64-1.64 3.58 3.58 0 01-1.29-2.09zm4.77 0a4 4 0 011 2c.1 1.05 0 8.59 0 8.59a12.43 12.43 0 01-1.88-1.09 1.49 1.49 0 01-.47-1.13v-5c0-.61-.06-.94.3-1.34a4 4 0 001.05-2.03z"/><path class="cls-21" d="M318.26 272a3.06 3.06 0 00.83 2.38 4.78 4.78 0 003.41.61 2.19 2.19 0 001.91-1.55c.08-.5.1-1.69.1-1.69a5.26 5.26 0 00-6.25.25zm4.83-7.39h-.11a4.25 4.25 0 00-3.27 0 .3.3 0 01-.4-.14.3.3 0 01.14-.4 4.83 4.83 0 013.76 0 .29.29 0 01.16.38.3.3 0 01-.28.16zm0 1.39h-.11a4.25 4.25 0 00-3.27 0 .3.3 0 01-.4-.14.3.3 0 01.14-.4 4.83 4.83 0 013.76 0 .3.3 0 01.16.39.31.31 0 01-.28.15zm0 1.33h-.11a4.25 4.25 0 00-3.27 0 .3.3 0 01-.4-.14.3.3 0 01.14-.4 4.83 4.83 0 013.76 0 .3.3 0 01.16.39.31.31 0 01-.28.15zm0 1.36h-.11a4.27 4.27 0 00-3.27 0 .3.3 0 01-.4-.14.29.29 0 01.14-.39 4.81 4.81 0 013.76 0 .3.3 0 01.16.39.31.31 0 01-.28.14zm0 1.36h-.11a4.27 4.27 0 00-3.27 0 .3.3 0 01-.4-.14.29.29 0 01.14-.39 4.81 4.81 0 013.76 0 .3.3 0 01.16.39.31.31 0 01-.28.14z"/><path class="cls-24" d="M309.33 196s6.73 37.23 8.24 59.44a10.51 10.51 0 006.73-.4s-1.42-37.24-1.72-59z"/><path class="cls-21" d="M310 159.75a3.94 3.94 0 00-2.36 2.39c-.54 1.77-3.42 34.9-3.42 34.9a20.14 20.14 0 0015.36.4l-.35-36.91-2.36-1.62z"/><path class="cls-20" d="M319.37 180.8v.77h-.22a44 44 0 01-13.42-1.94c0-.26 0-.52.07-.78a43.16 43.16 0 0013.57 1.95zm0 4.46v-.77a42.54 42.54 0 01-13.93-2.06c0 .27-.05.53-.07.79a43.77 43.77 0 0013.75 2zm-13.27-10c0 .26 0 .51-.07.77a44 44 0 0013.09 1.84h.18v-.76a43.56 43.56 0 01-13.16-1.84zm.35-3.59c0 .26-.05.52-.07.78a44.52 44.52 0 0012.74 1.73h.15v-.77a43.59 43.59 0 01-12.78-1.73z"/><path class="cls-25" d="M316.9 159.15s1.44 1 .67 3.62-4.16 8.61-4.89 11-.6 3.48-.37 7.8 2.21 19.23 2.48 20.9.5 2.08 1.81 1.88 5.26-2.48 6.36-3.29 1.54-1.13 1.41-2.17-1.81-6-1.81-7.54 3.42-18.72 4.05-21.6 0-4.26-1.24-5.7-8.76-5.65-8.76-5.65z"/><path class="cls-12" d="M313.08 189.18c2.12 1 5.87 2.78 9.84 4.24a10.71 10.71 0 01-.36-2.11c0-1.08 1.62-9.57 2.84-15.68H321v8.93l-8.32 1.15c.12 1.08.25 2.29.4 3.47z"/><path class="cls-25" d="M309.79 159.94a3.34 3.34 0 00-2 3.35c.08 2.62.33 10.25.35 11.61a67 67 0 01-.55 8.16c-.4 2.89-2.74 17.62-2.94 18.47s-.7.9-1.46.83a3.77 3.77 0 01-1.7-1c-.13-.1-.53-.23-.35-1.66s1.86-10.86 1.86-12.64-.28-17.66-.18-20.58.18-3.69.5-4 6.36-2.81 6.36-2.81h.11z"/><path d="M309.79 153.76v6.18c0 .39-.68.85-.69 1.58s.38 3 1.91 3c2.74 0 6.22-3.43 6-5s-.7-1.19-.7-2.8v-3z" fill="url(#linear-gradient-12)"/><path class="cls-17" d="M309.79 153.76v6.18c0 .28-.36.61-.56 1.05a2.2 2.2 0 001.68.7c2.56.21 4.49-2.06 5.54-3.69a3.25 3.25 0 01-.16-1.2v-3z"/><path d="M306.51 145.43c-1.28 2.81-.76 6.25-.35 8.44.3 1.61 2.24 4.93 2.51 5.42s2.07.57 2.66.32a21.25 21.25 0 004.29-3.44 15.69 15.69 0 00.84-2.08 9.24 9.24 0 002.36-5.62c.18-3.42-1.83-6.46-5.8-6.68-3.31-.19-5.43 1.27-6.51 3.64z" fill="url(#linear-gradient-13)"/><path class="cls-24" d="M316 152.59h-.56a15.5 15.5 0 00-.27-2 15.48 15.48 0 01-1.78-1.06c0-.13-.3-1.55-.3-1.55a5.57 5.57 0 01-1.81 1.76 12.28 12.28 0 010-1.61 6.91 6.91 0 01-2.83 1.37c-1.94.52-3.38.86-3.38.57a6.64 6.64 0 01.3-1.16 8.62 8.62 0 01-1.51.14 9.39 9.39 0 011.12-3.67c-.67 0-1.44-.48-1.35-.69a10 10 0 013.85-3c-.65-.34-.69-1-.52-1s5.08-1.32 7.52-.67 2.43 1.93 2.43 1.93a5.56 5.56 0 013.23 4.7c.45 5.17-2.34 7.94-3.88 10.61v-2.67l1.09-3.62z"/><path d="M316 152.2a6.3 6.3 0 01.61-1.77c.46-.62 1.85-.81 1.91 0a11.8 11.8 0 01-1 3.43c-.18.36-1.19.72-1.19.72s-.61-.16-.33-2.38z" fill="url(#linear-gradient-14)"/><path class="cls-29" d="M310.92 182.27c-.81-.47-2.14-2.81-2.39-3.05a10.39 10.39 0 00-3.25 0c-.49.09-1.11 1.1-1.13 1.68a21.1 21.1 0 00.38 2.86c.1.41 1 .57 1.3.81s.72 1 .89.7a1.56 1.56 0 00.12-.79 3.86 3.86 0 001.51.85 20.59 20.59 0 012.17.2c.84.27 8.93 3.1 11.55 3.9a11.44 11.44 0 006.13.33 11.16 11.16 0 003.05-1 1.41 1.41 0 001-1.71c-.24-1.07-1.61-6.26-1.61-6.26l-6.08 2.18.39.94a15.5 15.5 0 00-3.75-.39c-2.2 0-7.75.19-10.28-1.25z"/><path class="cls-29" d="M308.62 179.33s-1.17-.82-1.47-1-1.94-.44-2.6-.61-1.42-.39-1.69-.5-.48.31 0 .77a3.53 3.53 0 001.53.66 10 10 0 001.57.73 13.89 13.89 0 002.66-.05z"/><path class="cls-25" d="M326.6 166s3.86 13 4.4 15.06 1.71 5.76 1.58 6.25a2.72 2.72 0 01-1.76 2c-5.41 1.8-7.09.71-15.95-.55V183l9.11.19s-2.63-6.25-3-7.4.14-5.7 1-8.3 4.02-2.8 4.62-1.49z"/><path class="cls-24" d="M344.41 159c-1.5 3.45-3.55 7.72 2 9.62l1 .91s-5.58 6.46 0 11.25 12 2.19 13.63-.19 2.52-4.05 1.28-9.07-2-6.17-2-9.76z"/><path d="M337.75 188.8s-14.07-2.16-15-2.36-1.16-1.89-2-2.56a14.15 14.15 0 00-2.18-1.18c-.32-.23-.55-.5-.82-.31s-.16.79.42 1.18a3.68 3.68 0 011.09 1c.06.16-.44.21-.75.12a15.4 15.4 0 01-1.8-.53c-.38-.19-1.35-1.12-2-1.44a2.31 2.31 0 00-1.42-.29c-.19.08 0 .64.36.91a2.24 2.24 0 01.94 1.18 17.61 17.61 0 001.29 3.57c.41.53.68.79 1 .82s4.39.51 4.89.57 8.67 2.51 12.61 3.66a15.12 15.12 0 003.89.53l4.33-3.67-.6-3.87z" fill="url(#linear-gradient-15)"/><path class="cls-12" d="M347 185s-5.82 9.1-8.37 9.09c-1.14 0-6.24-1-6.24-1a19 19 0 011.08-5.2l4 .31s1.41-2.14 7.24-12.28c3.12-.61 2.51 7.86 2.29 9.08z"/><path d="M349.62 169.06a10.22 10.22 0 01-.28 3.38c-.45 1.18-2.83 2.29-2.88 2.29s-2.4 5.1-2.4 5.1.92 2.63 5.94 3.43 9.62-3.69 9.62-3.69l.37-3.83s-4.64-2.88-4.57-5.08.59-5.35.59-5.35h-6.39z" fill="url(#linear-gradient-16)"/><path class="cls-17" d="M355.48 169.67c.16-2 .53-4.36.53-4.36h-6.39v3.75a10.22 10.22 0 01-.28 3.38 2 2 0 01-.48.7c.98 2 4.46.36 6.62-3.47z"/><path d="M354.53 201.26h-11.68a64.2 64.2 0 00-1.52 18 267.09 267.09 0 003.18 29.21c.53 2.82 1.61 8.11 2.43 13a69.85 69.85 0 011.1 9.13c0 4.83.14 4.6-.9 6.8a21.73 21.73 0 01-3.44 4.69l1.88 1.25s2.15-.67 4.07-1.38a10.83 10.83 0 003.53-2.46 18.2 18.2 0 01-1.2-5.91c0-1.91.28-7.06.55-11.68.16-2.85.31-5.49.34-7.06.09-4.11-1.3-7.38-1.3-10.51s2.42-13.55 3-16.91z" fill="url(#linear-gradient-17)"/><path class="cls-22" d="M344.51 248.45c.53 2.82 1.61 8.11 2.43 13a69.85 69.85 0 011.1 9.13v.78a40.82 40.82 0 004.83.07c.09-2.47.3-14.68.33-16.24.1-4.12-1.15-7.73-1.15-10.86s1.93-13.56 2.47-16.92v-26.15h-11.67a64.2 64.2 0 00-1.52 18 267.09 267.09 0 003.18 29.19z"/><path class="cls-33" d="M339.65 286v.49a4.76 4.76 0 002.64.65 9.89 9.89 0 005.55-1.57c1.43-1.09 2.38-2 2.54-2s.21.41.38.6.41.16.7.07 2.12-.93 2.37-1.07a.61.61 0 00.32-.68c-.07-.26-.13-1.51-.13-1.51z"/><path class="cls-34" d="M352.87 278.61s-3.57 3-5 3.5-1.68.28-1.93.15-1.23-.91-1.6-.9-2.8 2.35-3.66 2.87a1.75 1.75 0 00-1.05 1.79c.81.62 3.52 1.09 6.29 0s3.53-2.33 4.83-3.2 3.28-1.42 3.32-1.64a4.68 4.68 0 00-1.2-2.57z"/><path d="M361.84 276.46c0-2 .39-5.82.72-9.38.25-2.66.48-5.18.52-6.72.1-3.63-1.31-10.2-1.51-13.72s2.71-20.56 2.62-26.15-.32-12.34-4.66-19.23h-12l-.36 3.78a107.8 107.8 0 001.61 15.43c1.42 7.11 5.51 23.35 5.78 28.71a77.29 77.29 0 001.38 13.8c.26 1.36.55 2.67.83 4 1 4.47 1.94 8.7 1.81 13.51-.17 6.2-.8 8.15-.6 9.43h6a25.53 25.53 0 00-.4-3.16c-.37-1.48-1.77-6.76-1.74-10.3z" fill="url(#linear-gradient-18)"/><path class="cls-24" d="M354.16 249.08c.27 5.37 2.61 22.61 3 25.16 1.07 0 3.39.3 4.81.21.13-2.06.39-4.78.63-7.37s.48-5.18.52-6.72c.1-3.63-.57-10.06-.77-13.59s2-20.69 1.88-26.28-.32-12.34-4.66-19.23h-12l-.75 3.3a115.89 115.89 0 001.71 15.63c1.34 7.11 5.36 23.52 5.63 28.89z"/><path class="cls-33" d="M360.82 289a4.21 4.21 0 00-2.9 1.11 2.69 2.69 0 000 2.11c.65 2 2 3.58 3.3 3.54s2.43-2.07 2.82-3.94c.27-1.34 0-1.93-.17-2.06a5.29 5.29 0 00-3.05-.76z"/><path class="cls-34" d="M360.82 288.45a4.16 4.16 0 00-2.9 1.11 2.68 2.68 0 000 2.11c.65 2 2 3.58 3.3 3.54s2.43-2.08 2.82-3.94c.27-1.34 0-1.93-.17-2.06a5.2 5.2 0 00-3.05-.76z"/><path d="M360.39 202.71a14.61 14.61 0 01-2.34 1.27 17 17 0 01-9.22 1c-3.28-.49-4.84-1.59-5.53-2.3a4.62 4.62 0 01-.61-.78l.11-.54s1 2.2 6 3c7 1.06 11.25-2.19 11.25-2.19z" fill="#a66b51"/><path class="cls-21" d="M346.91 174.52c-.35 1.57-.78 5.34 4.65 5.17a10.38 10.38 0 008.06-4.2s.18-.07.57.19a39.59 39.59 0 013.31 2.71c.75.75 1 1.35.85 3s-4.89 18.29-4.89 18.72a12.38 12.38 0 00.62 2.07s-4.26 3.25-11.25 2.19c-5.07-.76-6-3-6-3a88.74 88.74 0 00-.4-9c-.41-2.36-2.21-3.83-1.31-7.43a76.78 76.78 0 013.48-8.37 3.37 3.37 0 011.08-1.28 9.05 9.05 0 011.23-.77z"/><path class="cls-25" d="M356.92 173.32s-4.16 9.47-4.73 16.86a134.17 134.17 0 00-.18 17.51c.22 2.71 3.87 5.24 6.68 3.84s4.37-4.56 4.12-5.49-2.75-4.94-2.75-5.28 4.46-18.19 4.55-19.69a3.55 3.55 0 00-1.34-3.31c-1.02-.91-6.35-4.44-6.35-4.44z"/><path class="cls-12" d="M361.14 188.47a31.93 31.93 0 00-.11 8.13c.44-1.78 1-3.94 1.47-6.07z"/><path class="cls-37" d="M352.38 188.47s4.49-5.78 5-6.72a4.44 4.44 0 00.68-2.53c0-1-.07-5.16-.07-5.16l-1.78-1.5a73.14 73.14 0 00-3.83 15.91z"/><path class="cls-25" d="M348.21 173.71a55.81 55.81 0 00-2.69 14.29c-.37 7.78-.29 15.73-.69 17.63s-2.89 3.52-3.22 3.18.66-6 .77-7.71.17-7-.21-8.48-2-4.23-1.49-6.69 3.7-9.36 3.9-9.84 1.08-1 1.36-1.25a16.25 16.25 0 012.27-1.13z"/><path class="cls-37" d="M348.86 173.14s-3.06 8.07-3.3 14.18c0 0-.82-7-.87-7.81a3.08 3.08 0 01.42-1.88c.31-.53 2.15-3.5 2.15-3.5z"/><path d="M345.09 163.38c-.09 1.64-.33 2.63.25 4.13a9.82 9.82 0 002.13 2.94c.34.42.66.71 1 .71s5.49-1 7.38-5.12c1.84-.93 3.64-5.35 2.11-8.93s-5.34-4.5-9.15-2.56c-2.65 1.35-2.66 3.27-3.17 4.8a9.18 9.18 0 00-.55 4.03z" fill="url(#linear-gradient-19)"/><path d="M355.44 163.41s.53-1.88 1.4-1.73 1.37 1.53.64 3-1.61 1.5-1.79 1.31a7.79 7.79 0 01-.25-2.58z" fill="url(#linear-gradient-20)"/><path class="cls-24" d="M356.84 154.26a6.85 6.85 0 00-6.61-1.65 7.3 7.3 0 00-4.94 4.09 2.8 2.8 0 00-.32.72.09.09 0 000 .05 2.6 2.6 0 00-.1.25c-.16.43-.31.85-.45 1.27s0 .53.4.46a33 33 0 00.27 3.35 24.14 24.14 0 001.2-2.64c.36-1.06 1-1.42 1.44-.92.36-.43 1.27-.48 1.89.87s4.66 6.45 9.56 5.1c0 0 .26-.94.46-2.18a1.15 1.15 0 00.73-1.28c-.05-.94.63-5.99-3.53-7.49z"/><path class="cls-24" d="M353.62 160.64s1.73 8.64-.53 15.25a26 26 0 004.3-13.53z"/><path d="M363.42 200s-1.56 12.83-1.71 13.75-1.83 1.24-2.46 2.14a14.76 14.76 0 00-1.07 2.24c-.22.33-.48.57-.27.83s.79.12 1.15-.48a3.43 3.43 0 01.91-1.13c.16-.07.24.43.16.74a14.72 14.72 0 01-.45 1.83c-.17.38-1.05 1.4-1.34 2a2.31 2.31 0 00-.22 1.43c.09.2.64 0 .89-.39a2.3 2.3 0 011.13-1 17 17 0 003.5-1.45c.52-.44.77-.72.78-1.07s.29-4.4.34-4.91 2.08-8.78 3.05-12.76a15.37 15.37 0 00.33-3.91l-1.2-6.66-4.66 2.65z" fill="url(#linear-gradient-21)"/><path fill="#82263d" d="M363.61 213.05l-1.85-.29-.14.88 1.68.66.31-1.25z"/><path class="cls-42" d="M365.59 214.36a1.22 1.22 0 11-.76-1.71 1.34 1.34 0 01.76 1.71z"/><path class="cls-21" d="M365.49 214.33a1 1 0 11-.58-1.44 1.11 1.11 0 01.58 1.44z"/><path class="cls-42" d="M363.87 213.15l-.87-.19.22-.23 1.22.08-.57.34zm-.5 1.17l-.69-.26.02.24.91.71-.24-.69z"/><path class="cls-25" d="M364.23 178.9a102.9 102.9 0 014.18 19.4 43.47 43.47 0 01-.52 5.47 18.81 18.81 0 01-5.24-.82l.24-2.93s-1.39-6.64-1.75-8.14c-.76-3.11 1.17-15.54 3.09-12.98z"/><path d="M422.15 347.6l-206-118.94c-5.76-3.33-15.06-3.33-20.78 0L86.29 292c-5.72 3.32-5.69 8.7.07 12l206.02 119c5.75 3.32 15.05 3.32 20.76 0l109.07-63.38c5.71-3.31 5.69-8.7-.06-12.02z" fill="url(#linear-gradient-22)"/><path class="cls-44" d="M289.57 292.6a6 6 0 015.51 0c1.53.88 1.54 2.31 0 3.19a6.08 6.08 0 01-5.51 0c-1.52-.89-1.52-2.31 0-3.19z"/><path d="M278.63 286.28a6.08 6.08 0 015.51 0c1.53.88 1.53 2.31 0 3.19a6.1 6.1 0 01-5.52 0c-1.5-.88-1.51-2.31.01-3.19zm21.88 12.64a6 6 0 015.52 0c1.52.88 1.53 2.31 0 3.19a6.08 6.08 0 01-5.51 0c-1.52-.89-1.52-2.31-.01-3.19z" fill="#0ec2ff"/><path class="cls-44" d="M311.46 305.23a6.08 6.08 0 015.51 0c1.53.88 1.53 2.32 0 3.2a6.1 6.1 0 01-5.52 0c-1.51-.89-1.51-2.32.01-3.2z"/><path d="M86.29 299.05l109.06-63.38c5.72-3.32 15-3.33 20.78 0l206 118.94a10.29 10.29 0 013 2.53c2.45-3.14 1.45-7-3-9.54l-206-118.94c-5.76-3.33-15.06-3.33-20.78 0L86.29 292c-4.42 2.56-5.39 6.36-3 9.49a10.17 10.17 0 013-2.44z" fill="url(#linear-gradient-23)"/><path fill="url(#linear-gradient-24)" d="M358.73 350.75L304.1 382.5l4.78 2.75 54.63-31.74-4.78-2.76z"/><path fill="url(#linear-gradient-25)" d="M349.82 345.6l-4.78-2.76-26.35 15.31 4.79 2.76 26.34-15.31z"/><path fill="url(#linear-gradient-26)" d="M346.08 373.96l4.78 2.76 26.34-15.31-4.78-2.76-26.34 15.31z"/><path fill="url(#linear-gradient-27)" d="M295.96 361.03l40.16-23.33-4.78-2.76-40.16 23.33 4.78 2.76z"/><path fill="url(#linear-gradient-28)" d="M317.65 327.03l-7.77 4.52 4.78 2.76 7.78-4.52-4.79-2.76z"/><path d="M288.57 354.75l1.87.29-.5-1.09.55-.32c.48-.28.47-.73 0-1l-11.62-6.71a1.91 1.91 0 00-1.74 0l-2.47 1.43c-.48.28-.49.73 0 1l11.62 6.72a2 2 0 001.76 0z" fill="url(#linear-gradient-29)"/><path fill="url(#linear-gradient-30)" d="M290.26 311.22l-54.63 31.74 4.79 2.77 54.62-31.75-4.78-2.76z"/><path fill="url(#linear-gradient-31)" d="M262.88 295.41l-44.91 26.1 4.78 2.76 44.91-26.1-4.78-2.76z"/><path fill="url(#linear-gradient-32)" d="M224.82 307.2l29.15-16.94-4.78-2.76-29.15 16.94 4.78 2.76z"/><path fill="url(#linear-gradient-33)" d="M281.36 306.08l-4.79-2.77-34.32 19.95 4.78 2.76 34.33-19.94z"/><path fill="url(#linear-gradient-34)" d="M279.56 333.3l4.78 2.76 24.4-14.17-4.78-2.76-24.4 14.17z"/><path fill="url(#linear-gradient-35)" d="M223.3 286.69l4.78 2.76 12.2-7.09-4.78-2.76-12.2 7.09z"/><path fill="url(#linear-gradient-36)" d="M208.11 263.79l-35.63 20.7 4.78 2.76 35.63-20.7-4.78-2.76z"/><path fill="url(#linear-gradient-37)" d="M202.49 282.91l4.78 2.76 19.31-11.22-4.78-2.76-19.31 11.22z"/><path fill="url(#linear-gradient-38)" d="M194.42 255.88l-56.79 33 4.78 2.77 56.79-33.01-4.78-2.76z"/><path d="M216.46 316.88l-11.61-6.71a1.92 1.92 0 00-1.76 0l-2.46 1.43a.54.54 0 000 1l11.62 6.7a2 2 0 001.76 0l.55-.32 1.87.29-.5-1.08.54-.32c.53-.26.53-.71-.01-.99z" fill="url(#linear-gradient-39)"/><path fill="url(#linear-gradient-40)" d="M190.27 248.98l-1.08.63 198.87 114.82 1.08-.63-198.87-114.82z"/><path d="M303.56 377.3l-11.62-6.71a2 2 0 00-1.76 0l-2.46 1.41c-.49.29-.48.74 0 1l11.62 6.71a1.93 1.93 0 001.75 0l.55-.32 1.87.29-.51-1.08.55-.32a.54.54 0 00.01-.98z" fill="url(#linear-gradient-41)"/><path d="M216.13 228.66c-5.76-3.33-15.06-3.33-20.78 0L86.29 292c-3.37 1.95-4.73 4.62-4.11 7.17h256.15zM226.46 385l65.92 38c5.75 3.32 15.05 3.32 20.76 0l65.49-38z" style="mix-blend-mode:overlay" opacity=".1" fill="#fff"/><path fill="url(#linear-gradient-42)" d="M416.85 214.96v88.67l-22.49 13.07v-88.67l22.49-13.07z"/><path fill="url(#linear-gradient-43)" d="M394.36 228.03v88.67l-22.63-13.07v-88.66l22.63 13.06z"/><path fill="url(#linear-gradient-44)" d="M416.85 214.96l-22.49 13.07-22.63-13.06 22.49-13.07 22.63 13.06z"/><path d="M398 209.45l-14.93 5.49 2.49 1.44 2.68-1 4.29 2.48-1.71 1.56 2.49 1.43 9.42-8.67zm-7.14 5l7-2.65.87.5-4.54 4.09z" fill="url(#linear-gradient-45)"/><path class="cls-7" d="M371.73 214.97v.64l22.63 13.06 22.49-13.07v-.64l-22.49 13.07-22.63-13.06z"/><path fill="url(#linear-gradient-46)" d="M451.51 274.15v49.49l-22.49 13.07v-49.49l22.49-13.07z"/><path fill="url(#linear-gradient-47)" d="M429.02 287.22v49.49l-22.63-13.07v-49.49l22.63 13.07z"/><path fill="url(#linear-gradient-48)" d="M451.51 274.15l-22.49 13.07-22.63-13.07 22.49-13.07 22.63 13.07z"/><path d="M432.23 276.19a5.67 5.67 0 004-.78c2.33-1.35 1.87-2.65-.6-4.08l-4.82-2.78-12.18 7.08 4.89 2.82a7.13 7.13 0 007.48.27c1.61-.92 1.83-1.67 1.23-2.53zm-3.59 1a2.7 2.7 0 01-3.09 0l-2.28-1.31 3-1.73 2.27 1.31c.98.54 1.11 1.15.1 1.73zm1.91-3l-2.22-1.28 2.9-1.69 2.2 1.27c.94.55 1 1.08 0 1.66a2.66 2.66 0 01-2.88.03z" fill="url(#linear-gradient-49)"/><path class="cls-7" d="M406.39 274.15v.64l22.63 13.07 22.49-13.07v-.64l-22.49 13.07-22.63-13.07z"/><path fill="url(#linear-gradient-50)" d="M183.08 184.04v41.07l-87.83 51.04v-41.06l87.83-51.05z"/><path fill="url(#linear-gradient-51)" d="M95.25 235.09v41.06l-13.1-7.56v-41.06l13.1 7.56z"/><path style="mix-blend-mode:overlay" opacity=".3" fill="#fff" d="M95.25 235.09l-13.1-7.56v1.12l13.1 7.56 87.83-51.04v-1.13l-87.83 51.05z"/><path fill="url(#linear-gradient-52)" d="M183.08 184.04l-87.83 51.05-13.1-7.56 87.84-51.05 13.09 7.56z"/><path class="cls-7" d="M173.45 204.2c0-1.09-.77-1.52-1.71-1l-65.21 37.65a3.75 3.75 0 00-1.7 2.95v16c0 1.08.77 1.53 1.71 1l65.2-37.64a3.79 3.79 0 001.71-3z"/><path d="M173.45 203.91c0-1.09-.77-1.53-1.71-1l-65.21 37.65a3.75 3.75 0 00-1.7 2.95v16c0 1.08.77 1.53 1.71 1l65.2-37.65a3.75 3.75 0 001.71-2.95z" fill="url(#linear-gradient-53)"/><path class="cls-21" d="M130.72 229.83c.29-.17.72-.2.72.67v1.5l-.39.23v-1.42c0-.49-.15-.69-.48-.5a1.1 1.1 0 00-.46.68 1 1 0 000 .25v1.55l-.39.23v-1.51c0-.4-.16-.6-.46-.43a1.24 1.24 0 00-.49.74.77.77 0 000 .25v1.52l-.39.22V232a6.64 6.64 0 000-.67l.35-.21v.4a1.64 1.64 0 01.68-.86c.3-.17.53-.1.63.15a2.68 2.68 0 01.24-.48 1.51 1.51 0 01.44-.5zm2.28-1.33c.63-.36 1.06-.08 1.06.69a2.34 2.34 0 01-1.09 2c-.59.34-1 .1-1-.7a2.31 2.31 0 011.03-1.99zm0 2.3a1.63 1.63 0 00.66-1.36c0-.43-.19-.86-.65-.59a1.59 1.59 0 00-.68 1.37c0 .55.28.81.67.58m2.66-3.8c.3-.17.77-.24.78.63v1.5l-.4.23v-1.45c0-.4-.13-.67-.5-.45a1.29 1.29 0 00-.54.77 1.79 1.79 0 000 .24V230l-.39.23v-2.51l.35-.2v.4a1.83 1.83 0 01.7-.92zm1.43 1.73l-.01-2.52.39-.22.01 2.51-.39.23zm.18-3.05c-.14.08-.24 0-.24-.15a.52.52 0 01.24-.43c.15-.08.25 0 .25.15a.55.55 0 01-.25.43zm1.35-1.08v.72l.57-.32v.34l-.57.33V227c0 .31.08.44.3.32a1 1 0 00.23-.17v.33a1.86 1.86 0 01-.35.27c-.19.11-.34.13-.43.06s-.16-.27-.16-.57v-1.38l-.34.2v-.35l.34-.19V225zm1.91-.44c.63-.36 1.06-.08 1.06.68a2.36 2.36 0 01-1.09 2c-.59.34-1.05.1-1.05-.7a2.33 2.33 0 011.08-1.98zm0 2.3a1.65 1.65 0 00.67-1.36c0-.44-.2-.86-.66-.59a1.59 1.59 0 00-.68 1.37c0 .55.28.81.67.58m2.52-3.76h.12v.44l-.13.06a1.27 1.27 0 00-.54.89v1.57l-.39.23v-2.56l.35-.2v.48a1.54 1.54 0 01.59-.91zm.54 2.27v-2.51l.4-.24.01 2.52-.41.23zm.18-3.05c-.14.08-.24 0-.24-.15a.56.56 0 01.25-.43c.15-.08.25 0 .25.15a.52.52 0 01-.26.43zm1.97-.76c.3-.18.77-.24.77.62v1.5l-.4.23v-1.45c0-.4-.14-.66-.52-.45a1.34 1.34 0 00-.53.77 1.75 1.75 0 000 .24v1.51l-.4.23v-2.5l.35-.21v.4a1.79 1.79 0 01.73-.89zm2.95-1.65l.35-.21v2.17a2.42 2.42 0 01-.31 1.33 2.21 2.21 0 01-.8.76 1.28 1.28 0 01-.73.21l.11-.41a1 1 0 00.64-.17 1.41 1.41 0 00.7-1.29v-.28a1.62 1.62 0 01-.7.82c-.54.32-.93 0-.93-.69a2.29 2.29 0 011-1.9c.38-.22.59-.11.69 0zm-.06 1.48v-.46a1 1 0 000-.19c-.08-.22-.27-.33-.56-.16a1.54 1.54 0 00-.65 1.33c0 .49.22.78.65.53a1.26 1.26 0 00.55-.79.86.86 0 000-.26"/><path d="M173.48 210.52c-2.28 1.31-3.41 3.52-4.5 5.66s-2.06 4-4.07 5.18-3 .37-4.08-.48-2.23-1.77-4.51-.46-3.41 3.53-4.5 5.67-2.06 4-4.06 5.17-3 .37-4.08-.47-2.24-1.78-4.52-.46-3.41 3.52-4.5 5.66-2 4-4.06 5.18-3 .37-4.08-.48-2.24-1.77-4.52-.46-3.4 3.53-4.5 5.67-2 4-4 5.17-3 .37-4.08-.47-2.24-1.78-4.52-.46v.66c2-1.16 3-.37 4.08.48s2.24 1.76 4.52.44 3.4-3.51 4.49-5.65 2-4 4.07-5.18 3-.37 4.08.48 2.23 1.77 4.51.45 3.41-3.52 4.5-5.66 2.05-4 4.06-5.17 3-.37 4.08.47 2.24 1.77 4.52.45 3.4-3.51 4.5-5.65 2.05-4 4.06-5.18 3-.37 4.08.48 2.24 1.76 4.51.45 3.41-3.52 4.5-5.66 2.06-4 4.07-5.17z" fill="url(#linear-gradient-54)"/><path class="cls-7" d="M171.74 202.93l-33.55 19.37 19.33 8.84 14.27-8.25a3.75 3.75 0 001.71-2.95l-.05-16c0-1.12-.77-1.56-1.71-1.01z"/><path fill="url(#linear-gradient-55)" d="M186.19 150.33l-10.4 29.5-87.76 51.09-28.95-4.46-2.38-1.37 129.49-74.76z"/><path fill="url(#linear-gradient-56)" d="M186.31 123.36l-1.57-.17-.05-18.46 1.56-1.99-.07-26.95-2.51-1.42-51.44 29.69-1.7 2.8-18.61 10.74-1.71-.82-51.44 29.7-2.48 4.3.07 26.95 1.58.18.05 18.46-1.57 1.98.08 26.95 2.5 1.42 51.44-29.69 1.7-2.79 7.1-4.1 4.41-2.55 7.1-4.09 1.71.81 51.44-29.7 2.49-4.3-.08-26.95z"/><path class="cls-21" d="M102.85 141.92v7.43c6-3.12 10.73-.2 10.75 6.74a20.18 20.18 0 01-1.4 7.1l5.51.74a32.19 32.19 0 002.36-11.58c0-11.04-7.68-15.61-17.22-10.43zm-11.73 27.16c0-6.93 4.71-15.34 10.68-19.1v-7.43c-9.54 5.83-17.16 19.23-17.13 30.27 0 10.23 6.62 14.91 15.18 11.41l.73-7.82c-5.36 2.07-9.45-.9-9.46-7.33zm11.29 6.44l-.77.42-.74 7.82c.5-.25 1-.51 1.53-.81 6.17-3.56 11.59-10.32 14.75-17.65l-5.51-.73c-2.02 4.55-5.41 8.73-9.26 10.95zm42.91-58.12v7.44c6-3.13 10.73-.21 10.75 6.73 0 6.51-4.16 14.33-9.62 18.37l.64 7.05c8.74-6.31 15.48-18.77 15.45-29.16 0-11.04-7.68-15.61-17.22-10.43zm-.44 33.6c-6.22 3.59-11.27.71-11.29-6.44A17.34 17.34 0 01134 141l-6.17 1.32a28 28 0 00-.66 6c0 11.25 8 15.79 17.78 10.14.39-.23.77-.47 1.15-.72l-.64-7zm-.61-25.54v-7.43c-7.5 4.59-13.81 13.84-16.15 22.95l6.17-1.31c1.5-5.67 5.37-11.3 9.98-14.21z" opacity=".7"/><path class="cls-21" d="M186.41 123.11l-1.48-.16-.05-18.21 1.57-2.11-.13-27.07-2.64-1.42L132.1 104l-1.65 2.7L112 117.33l-1.79-.77-51.58 29.84-2.54 4.5.18 27.1 1.48.16v18.21l-1.57 2.12.13 27.07L59 227l51.57-29.83 1.65-2.71 18.45-10.65 1.79.78 51.59-29.85 2.54-4.49zm-.36-20.38l-1.47 1.86-.09.25v18.47l.1.14 1.47.16v14.55l-8.13-9.16-.06-22.23L186 88.18zm-75.91 14.33l1.65.79h.14l18.6-10.75.14-.13 1.65-2.7L143 98.1l-12 16.37-19.36 11.17-12.09-2.43zm-53.52 81.31l1.48-1.86.09-.25-.06-18.47-.09-.14-1.48-.16v-14.55l8.22 9.15.06 22.23-8.14 18.6zM132.54 184l-1.66-.79h-.13L112.14 194l-.13.14-1.65 2.7L99.71 203l12-16.37 19.35-11.18 12.1 2.44zm51.29-29.61l-40.28 23.26-12.42-2.47-19.47 11.25-12.31 16.77-40.27 23.26-2.38-1.37v-11.77l8.3-19.07-.08-22.36-8.4-9.35v-11.77l2.36-4.11 40.28-23.25 12.42 2.48L131 114.62l12.32-16.72 40.28-23.26L186 76v11.77l-8.33 19.07.08 22.36 8.4 9.34v11.78z"/><path style="mix-blend-mode:overlay" opacity=".2" fill="#fff" d="M171.64 161.69l12.26-7.08 2.49-4.3-.08-26.95-1.57-.17-.05-18.46 1.56-1.99-.07-26.95-2.51-1.42-51.44 29.69-1.7 2.8-12.56 7.25 53.67 47.58z"/><path d="M120.26 344.56l2.11-1.22a5.57 5.57 0 015.06 0l97.29 56.54c1.4.81 1.39 2.12 0 2.93L222.6 404a5.59 5.59 0 01-5.07 0l-97.29-56.54c-1.39-.78-1.39-2.09.02-2.9z" fill="#2a303d"/><path d="M200.29 385.68l-72.86-42.34a5.57 5.57 0 00-5.06 0l-2.11 1.22c-1.41.81-1.41 2.12 0 2.93L186 385.68z" fill="url(#linear-gradient-57)"/><path d="M297.46 127.94l.05-15.31c0-6.51-4.56-14.44-10.23-17.72L228.19 60.8c-5.67-3.27-10.27-.64-10.29 5.86l-.05 16c0 6.51 4.56 14.44 10.23 17.71l59.09 34.12a8.46 8.46 0 005.7 1.3 1.27 1.27 0 01.91.19 3.89 3.89 0 011.2 1.23 19.23 19.23 0 005.93 5.21l.21.12c-2.85-3.75-3.67-8.72-3.66-14.6z" fill="url(#linear-gradient-58)"/><path class="cls-21" d="M270.5 93.87l-40.02-23.1-.01 2.98 40.03 23.11v-2.99zm8.75 11.59l-48.79-28.17-.01 2.99 48.8 28.17v-2.99zm-9.88 7.36l-38.95-22.49-.01 2.99 38.96 22.49v-2.99zm9.88-.83l-48.81-28.18-.01 2.99 48.82 28.18v-2.99z"/><path d="M441.58 159.65l-59.09-34.12c-5.67-3.27-10.27-.64-10.29 5.86l-.05 15.32c0 5.88-.87 9.88-3.73 10.3l.23.14c.88.5 4.09 2.24 5.92 1.63a1.46 1.46 0 011.21.15 3.08 3.08 0 01.9.86 19.66 19.66 0 005.69 5.28l59.1 34.12c5.66 3.27 10.27.64 10.29-5.87v-16c.06-6.47-4.52-14.4-10.18-17.67z" fill="url(#linear-gradient-59)"/><path class="cls-21" d="M405 147.17l-23.92-13.81-.01 2.99L405 150.17v-3zm22.12 19.31l-46.06-26.6v3l46.06 26.59v-2.99zm-4.25 4.08l-41.82-24.15-.01 2.99 41.83 24.15v-2.99zM435 184.09l-53.97-31.16-.01 2.99L435 187.09v-3z"/></g></g></svg>