<svg id="Illustration" xmlns="http://www.w3.org/2000/svg" xmlns:xlink="http://www.w3.org/1999/xlink" viewBox="0 0 2795.9 2827.87"><defs><linearGradient id="linear-gradient" x1="3619.98" y1="4094.98" x2="1120.03" y2="990.21" gradientUnits="userSpaceOnUse"><stop offset="0" stop-color="#dae3fe"/><stop offset="1" stop-color="#e9effd"/></linearGradient><linearGradient id="linear-gradient-2" x1="2111.3" y1="2312.98" x2="2145.16" y2="2312.98" gradientUnits="userSpaceOnUse"><stop offset="0" stop-color="#4042e2"/><stop offset="1" stop-color="#4f52ff"/></linearGradient><linearGradient id="linear-gradient-3" x1="797.79" y1="1835.5" x2="1510.06" y2="1835.5" xlink:href="#linear-gradient-2"/><linearGradient id="linear-gradient-4" x1="1508.94" y1="1606.83" x2="1761.1" y2="1606.83" xlink:href="#linear-gradient-2"/><linearGradient id="linear-gradient-5" x1="1227.27" y1="2523.87" x2="1450.34" y2="2523.87" xlink:href="#linear-gradient-2"/><linearGradient id="linear-gradient-6" x1="1739.4" y1="1801.99" x2="3015.36" y2="1801.99" xlink:href="#linear-gradient-2"/><linearGradient id="linear-gradient-7" x1="2454.44" y1="2386.94" x2="2801.39" y2="2386.94" xlink:href="#linear-gradient-2"/><linearGradient id="linear-gradient-8" x1="1723.66" y1="2301.78" x2="2120.2" y2="2301.78" xlink:href="#linear-gradient-2"/><linearGradient id="linear-gradient-9" x1="1943.86" y1="1509.51" x2="2052.04" y2="1509.51" xlink:href="#linear-gradient-2"/><linearGradient id="linear-gradient-10" x1="1651.07" y1="1794.12" x2="1744.77" y2="1794.12" xlink:href="#linear-gradient-2"/><linearGradient id="linear-gradient-11" x1="2796.35" y1="1620.77" x2="2891.72" y2="1620.77" xlink:href="#linear-gradient-2"/><linearGradient id="linear-gradient-12" x1="1386.15" y1="3098.71" x2="850.93" y2="3680.88" gradientTransform="translate(-227.97)" gradientUnits="userSpaceOnUse"><stop offset="0" stop-color="#09005d"/><stop offset="1" stop-color="#1a0f91"/></linearGradient><linearGradient id="linear-gradient-13" x1="1212.42" y1="3141.95" x2="1259.96" y2="3141.95" gradientTransform="translate(-227.97)" gradientUnits="userSpaceOnUse"><stop offset="0" stop-color="#febbba"/><stop offset="1" stop-color="#ff928e"/></linearGradient><linearGradient id="linear-gradient-14" x1="1428.29" y1="2440.34" x2="972.87" y2="3057.6" xlink:href="#linear-gradient-12"/><linearGradient id="linear-gradient-15" x1="1266.08" y1="2988.32" x2="730.86" y2="3570.49" xlink:href="#linear-gradient-12"/><linearGradient id="linear-gradient-16" x1="1041.09" y1="3139.51" x2="1082.13" y2="3139.51" xlink:href="#linear-gradient-13"/><linearGradient id="linear-gradient-17" x1="1347.12" y1="2380.45" x2="891.7" y2="2997.72" xlink:href="#linear-gradient-12"/><linearGradient id="linear-gradient-18" x1="1220.79" y1="1450.45" x2="1163" y2="1583.02" gradientUnits="userSpaceOnUse"><stop offset="0" stop-color="#ff928e"/><stop offset="1" stop-color="#fe7062"/></linearGradient><linearGradient id="linear-gradient-19" x1="1416.26" y1="1535.66" x2="1358.48" y2="1668.22" xlink:href="#linear-gradient-18"/><linearGradient id="linear-gradient-20" x1="1634.28" y1="1630.69" x2="1576.49" y2="1763.25" xlink:href="#linear-gradient-18"/><linearGradient id="linear-gradient-21" x1="943.19" y1="1643.69" x2="455.54" y2="2267.6" gradientTransform="rotate(14 -291.861 4797.823)" xlink:href="#linear-gradient-13"/><linearGradient id="linear-gradient-22" x1="1256.77" y1="1954.49" x2="1258.1" y2="1954.49" xlink:href="#linear-gradient-12"/><linearGradient id="linear-gradient-23" x1="1276.67" y1="1953.39" x2="1276.57" y2="1953.55" gradientTransform="translate(-227.97)" gradientUnits="userSpaceOnUse"><stop offset="0" stop-color="#53eac9"/><stop offset="1" stop-color="#45aed8"/></linearGradient><linearGradient id="linear-gradient-24" x1="1279.36" y1="1953.59" x2="1279.2" y2="1953.84" xlink:href="#linear-gradient-23"/><linearGradient id="linear-gradient-25" x1="1069.63" y1="1384.56" x2="1011.84" y2="1517.12" xlink:href="#linear-gradient-18"/><linearGradient id="linear-gradient-26" x1="1214.42" y1="2141.06" x2="1435.7" y2="1981.82" gradientTransform="translate(-685.02 -441.06)" gradientUnits="userSpaceOnUse"><stop offset="0" stop-color="#9cfffb"/><stop offset="1" stop-color="#9bfffa"/></linearGradient><linearGradient id="linear-gradient-27" x1="1147.69" y1="1418.58" x2="1089.9" y2="1551.15" xlink:href="#linear-gradient-18"/><linearGradient id="linear-gradient-28" x1="1277.09" y1="2023.61" x2="1446.09" y2="2727.81" xlink:href="#linear-gradient-12"/><linearGradient id="linear-gradient-29" x1="1161.28" y1="2209.91" x2="1257.03" y2="2209.91" xlink:href="#linear-gradient-13"/><linearGradient id="linear-gradient-30" x1="890.92" y1="2091.29" x2="835.53" y2="2324.2" gradientUnits="userSpaceOnUse"><stop offset="0" stop-color="#e1473d"/><stop offset="1" stop-color="#e9605a"/></linearGradient><linearGradient id="linear-gradient-31" x1="1150.51" y1="1981.84" x2="988.11" y2="2650.35" gradientTransform="translate(-227.97)" xlink:href="#linear-gradient-30"/><linearGradient id="linear-gradient-33" x1="1083.85" y1="2007.34" x2="1129.17" y2="1997.58" gradientUnits="userSpaceOnUse"><stop offset="0" stop-color="#53d8ff"/><stop offset="1" stop-color="#3840f7"/></linearGradient><linearGradient id="linear-gradient-34" x1="991.21" y1="2009.88" x2="1048.75" y2="1979.42" xlink:href="#linear-gradient-13"/><linearGradient id="linear-gradient-35" x1="-2767.56" y1="1663.83" x2="-2933.42" y2="1790.73" gradientTransform="rotate(8.15 -1830.993 28370.11)" xlink:href="#linear-gradient-13"/><linearGradient id="linear-gradient-36" x1="-398.59" y1="1486.9" x2="-95.95" y2="1876.55" gradientTransform="scale(-1 1) rotate(-8 272.541 6459.318)" xlink:href="#linear-gradient-12"/><linearGradient id="linear-gradient-37" x1="-2788.13" y1="1636.95" x2="-2953.99" y2="1763.85" gradientTransform="rotate(8.15 -1830.993 28370.11)" xlink:href="#linear-gradient-13"/><linearGradient id="linear-gradient-38" x1="938.94" y1="1974.19" x2="970.02" y2="1974.19" xlink:href="#linear-gradient-12"/><linearGradient id="linear-gradient-39" x1="930.28" y1="2051.07" x2="990.08" y2="2051.07" xlink:href="#linear-gradient-12"/><linearGradient id="linear-gradient-40" x1="2128.27" y1="2074.64" x2="1812.58" y2="3172.86" xlink:href="#linear-gradient-18"/><linearGradient id="linear-gradient-41" x1="1262.86" y1="1155.04" x2="947.17" y2="2253.26" xlink:href="#linear-gradient-18"/><linearGradient id="linear-gradient-42" x1="2555.61" y1="1610.91" x2="2407.83" y2="1953.47" gradientUnits="userSpaceOnUse"><stop offset="0" stop-color="#ff928e"/><stop offset="1" stop-color="#feb3b1"/></linearGradient><linearGradient id="linear-gradient-43" x1="2059.89" y1="1196.35" x2="1965.53" y2="1345.76" xlink:href="#linear-gradient-30"/><style>.cls-2{fill:#7d97f4}.cls-7{fill:#fff}.cls-5{fill:#91b3fa}.cls-8{fill:#bdd0fb}.cls-53{opacity:.3}</style></defs><path d="M2928.85 2872.9c-57.24 60.58-111.39 99.65-154.18 130.52-503 362.81-1098.13 257-1224.62 231.23-186.78-38.14-547.83-111.86-808.85-420.47-394.92-466.89-333.42-1202.46-27.1-1688 56-88.82 352-581.77 953.57-660.83 364.06-47.84 788.43 48.65 1095.76 307.5 645.09 543.32 599.17 1640.98 165.42 2100.05z" transform="translate(-457.05 -441.06)" fill="url(#linear-gradient)"/><path class="cls-2" d="M1333.6 2152s-72.44-1009.23-492.28-1619.28c-28.22-41-94.31-37.25-116.41 6.78C577.07 833.87 230.75 1742.75 1333.6 2152z" transform="translate(-457.05 -441.06)"/><path d="M1240.22 2073c2.14 2.72-1.92 5.85-4.44 3.42-93-89.49-438.38-511.78-460-1249.07-.07-2.37 3.75-2.67 4-.32 21.43 173.48 121.13 816.38 460.44 1245.97z" transform="translate(-457.05 -441.06)" opacity=".5" fill="#fff"/><g opacity=".68"><path class="cls-5" d="M1185.53 2651.14c-59.28-172.24-307.37-852.42-644.78-1213.69-24.1-25.8-72.87-15.65-75.47 19.36-15.09 203.1-83.26 840.11 694.46 1217.71 14.97 7.27 31.17-7.74 25.79-23.38z" transform="translate(-457.05 -441.06)"/><path d="M1156 2659a10.52 10.52 0 01-5-3.06C894.66 2375 750.93 2121.37 675.49 1958.09c-82-177.38-102.82-286.65-103.66-291.21a10.57 10.57 0 0120.79-3.87c.82 4.39 87.61 445.6 574 978.62A10.57 10.57 0 011156 2659z" transform="translate(-457.05 -441.06)" opacity=".24" fill="#fff"/></g><path class="cls-7" d="M1924.05 619.68l-871.89-88.13-873.32 83.08-16.11 1932.94 872.96-40.06 872.12 60.83 872.14-73.2 15.95-1912.61-871.85 37.15z"/><path class="cls-5" d="M1054.79 2463.61l-829.43 37.99 15.28-1833.67 829.77-78.8-15.62 1874.48z"/><path class="cls-8" d="M1883.41 2521.32l-828.62-57.71 15.62-1874.48 828.41 83.63-15.41 1848.56z"/><path class="cls-5" d="M2712.07 2451.9l-828.66 69.42 15.41-1848.56 828.38-35.24-15.13 1814.38z"/><path transform="rotate(.51 50833.853 -49595.634)" opacity=".47" fill="#fff" d="M1500.87 1030.07h18.77v1875.05h-18.77z"/><g opacity=".84"><path d="M2119.57 2271.19q-5 39.22-8.16 78.69c-.51 6.27.72 14.79 6.77 15.41 3.65.37 6.68-2.69 9.14-5.5 10.43-11.94 21.64-27.33 16.6-42.56-1.88-5.66-5.88-10.43-7.42-16.2-2.31-8.68 1.31-17.92.38-26.88s-11.69-17.76-17.72-11.26z" transform="translate(-457.05 -441.06)" fill="url(#linear-gradient-2)"/><path d="M1448.3 1410.86c-41-21.69-66.84-24.62-111-19.81-41.67 4.53-69.83 25.47-98.44 55.31-6.51 6.78-12.83 14.21-21.27 18.1-35.36 16.33-80.21 13-116.32 29.15-43 19.18-55.1 78.84-94.36 105.21-22.72 15.27-51.36 17.2-76.31 28.13-36.94 16.17-54 49.77-75 82.47-12.9 20.1-60.41 54.55-57.72 78.07a29.25 29.25 0 004.54 11.93c13.08 21.09 32.62 23.31 53.24 29.33 27.23 8 43.66 20.18 67.76 37.23 25.13 17.78 59.32 33.32 61.5 64.74 1 14.57-5.8 28.35-9.13 42.55-15 64.06 40.69 121.6 94.9 156.24s118.16 68.87 135.4 132.32c1.57 5.79 2.89 12.06 7.1 16.2 15.83 15.57 27.68-19.65 32.47-30.84 3.09-7.21.29-15.86-4.53-22s-11.41-10.38-17.34-15.33c-20-16.69-33-42.12-35.06-68.63-.26-3.38-.28-7 1.56-9.82 9.4-14.22 32.82-20.06 44.31-37.29 16.43-24.66 20.18-48.05 23-77.31 10.28-107.51 108.15-69.45 169.59-117.12 11.44-8.87 20-22.88 22-37.19a39.63 39.63 0 00-3.42-23.15c-6-12.27-18.41-20.17-31.29-23.71s-26.4-3.28-39.72-3l-37.08.79c-3.65.08-7.41.18-10.76 1.69-4.74 2.13-7.94 6.76-10.51 11.39a94.62 94.62 0 00-11.61 49.53c-16.3 5.72-32.12-9.81-41-25a187.85 187.85 0 01-21.72-57.09c-1.58-7.77-2.54-16.37 1.34-23.22 2.15-3.78 5.55-6.59 9-9.15 13.84-10.3 29.81-18.1 46.77-20 29-3.17 57.11 11.12 80.86 28.64 22.8 16.82 60 37 85.57 12.78 13.21-12.48 13.45-35.2 4.25-51.07-14.95-25.78-53.07-39.26-77.9-52.28-11.63-6.09-19.09-18.63-22.4-31.67s-3-26.74-2.65-40.21a123.55 123.55 0 01107.07 7.28c4.59 2.64 9.48 6.3 10 11.7.55 5.55-3.68 10.18-7 14.55-29.73 38.9-3 70.31 32 92.26.84-98.63 1.06-197.76 1.12-296.5a400.31 400.31 0 01-61.81-26.2z" transform="translate(-457.05 -441.06)" fill="url(#linear-gradient-3)"/><path d="M1759.09 1494.39c-4.79-6.46-14.3-4.83-22.16-4.78-25.13.16-45.09-21.75-69.24-28.91-12.65-3.76-26-3.33-39.22-3.53a398.1 398.1 0 01-118.41-20.08c-.06 98.74-.28 197.87-1.12 296.5 21.81 13.68 46.82 23.69 63.38 29.55 17.57 6.21 34.35 16.42 53.13 12.6 17.43-3.55 33.11-23.23 51.18-28.24 13.08-3.63 27.06-1.73 40.34-4.49s27.13-13.06 26.58-27.06c-.45-11.4-10.14-20-19.78-25.53 0 1.09-16.7-12.58-18.28-15.54-14.57-29.21 6.62-54.93 14.72-80.15 11.74-36.51-5.64-58 30.47-78.19 7.68-4.3 13.72-14.98 8.41-22.15z" transform="translate(-457.05 -441.06)" fill="url(#linear-gradient-4)"/><path d="M1271.07 2418.9c6.29 13.25 11.45 25.75 12.82 36.4 6 46.31-32.59 103.3-49 145.58-4.56 11.75-9.21 24.27-7.15 36.76.86 5.26 2.88 10.23 4.9 15.14 14.88 36.26 44.12 69.07 70.1 97 8.88-24 8.22-81.54 5.79-107.07-.81-8.43-2.21-17.24.79-25.12 9.62-25.25 40.93-60 62.51-75.06 21.16-14.77 49-26.62 54.46-52.41 2.1-9.92.33-20.54 3.43-30.17 1.86-5.77 5.36-10.8 8.15-16.16 13.69-26.32 21.46-77.12-6-95.82-30.64-20.89-74 9.71-100.28-24.37-4-5.15-6.92-11.14-11.43-15.77-8.38-8.6-21.24-11.33-32.88-9.31-77.4 13.48-39.28 71.88-16.21 120.38z" transform="translate(-457.05 -441.06)" fill="url(#linear-gradient-5)"/><path d="M1757.61 2036.34c24.47 16.19 66.7-19.33 82.23-60.85 2-5.19 3.75-10.62 7.31-14.8 7.25-8.51 19.71-9.6 30.57-8s21.69 5.17 32.57 3.73c15.61-2.07 28.5-14.47 35.79-28.9s9.91-30.81 12.44-46.88a52.93 52.93 0 0134.9 3.18c8.4 3.84 16.68 12.33 14.34 21.51-1.08 4.22-4.19 7.5-7.12 10.63a307.24 307.24 0 00-25.52 31.19c-4.83 6.76-9.57 15.57-5.95 23.1 9.88 20.51 28 9.84 22.76 39.16-6.53 36.74-54.77 51.75-27.22 95.64 10.09 16.06 28.43 25.66 46.92 26.53 13.27.62 29.61-6.48 29.78-20.22 0-4.08-1.4-8.27-.17-12.14 1.61-5 7.12-7.49 12.19-8.29 16.57-2.61 32.58 6 47.88 13.1 4.61 2.14 10.12 4.14 14.51 1.53 14.3-8.48 7.63-15.47 27.07-17.34 16.58-1.6 36 11.62 45.36 24.69 2.26 3.14 4.3 7.19 2.87 10.82-1.24 3.15-4.68 4.77-6.42 7.66-2.85 4.76 0 11.35 4.53 14.46s10.12 3.8 15.43 4.93c24.9 5.3 25.49 29.86 43.09 42.12 14.28 10 50.68 11.91 47.47-16.71-1.18-10.46-11.33-19.07-9.66-29.46 1.46-9.15 11.4-14 20.29-15.19s18.38-.29 26.33-4.57c5.3-2.86 9.3-7.71 14.13-11.35 29.72-22.38 100.14-3.36 122.94 21.73 21.31 23.45 23.7 63.86 51.13 79-3.21-31.16-18.41-60.82-41.54-81.06-4.25-3.72-8.93-7.36-11.16-12.64-1.87-4.43-1.77-9.46-1.53-14.29 1.22-24.68 5.9-47.66 12.41-70.7-.78 2.76 17.41-47.3 4.33-37.83 23.4-16.95 74.48-44.78 103.8-43 15.27.94 30.35 10.08 36.76 24.45s2.54 33.47-10.08 42.42c-12.09 8.56-28.86 6.91-41.13 15.17-11.82 8-16.87 25.14-11.34 38.55a55.24 55.24 0 0132.1-21.94c17.15-4.06 36.62.21 51.42-9.61 10.92-7.25 16.66-21.09 16.79-34.51s-4.67-26.44-11.1-38.1c-4.65-8.44-10.24-16.52-12.73-25.88-4-15 .73-31.35 9.13-44.27 31.23-48 89-68.8 142.49-51.14 3.56 1.18 7.35 2.76 9.21 6.11 2.68 4.87.09 11.09 1.23 16.57 1.79 8.64 14.53 11.91 20 5.14 3.79-4.68 3.56-11.43 5-17.35 3.74-15.4 18.91-24.83 33.66-29.22 18-5.37 66.48-30.15 71.46 2.62.44 2.86.35 5.89 1.55 8.52 3.38 7.38 14.71 6.32 20.09.34 11.11-12.33 13.06-32.58 23.81-46.36 9.52-12.2 23.57-19.5 31.54-33.11 19.74-33.73 4.7-77.81-29.64-94.15-32.9-15.65-71.19-8.71-106.84-2.08-24.54 4.56-108.81 22.06-114.81-19.07-.5-3.37-.39-7-2-10-2-3.71-6-5.65-8.53-9-3.17-4.27-3.3-10.1-5-15.19-6.21-18.48-29.64-21.86-48.56-22.09 1.91-11.46 2.95-25.42-6-32.51-5-4-11.83-4.45-18.18-4.73-16.49-.73-56.27 5.39-69.94-4.59-18.11-13.22-5.64-35.75-13.53-54-8.39-19.37-39.59-22.06-43.06-43-.75-4.52.07-9.19-.45-13.74-1.28-11.12-10-19.5-18.22-26.82-14.84-13.26-31.66-27.3-51.27-26.78-3.68 3-.37 9.33 3.78 11.6s9.47 3.45 11.57 7.79c4 8.34-7.53 15.18-16.38 16.92-.44 12.19 11.4 20.26 20.55 27.94a92.31 92.31 0 0130.56 51.68 336.57 336.57 0 01-94.62 4c-38-3.76-62.37 58.6-107.39 41.31-6.65-2.55-12.59-7.13-19.56-8.5-17.52-3.43-31.64 13.74-47.39 22.4-24 13.19-53.37 6.35-79.07-2.73-30.71-10.85-68-26.42-99-7.71-11.57 7-20.81 17.88-33.06 23.51-25.7 11.8-54.86-2.69-82.86-5.47-69.06-6.86-110.63 63.06-133.06 121.28-3.41 8.83-6.46 18.12-6 27.62s5.11 19.33 13.49 23.24c12.42 5.8 26.86-3.41 35-14.73s13-25.18 23-34.84 28.14-12.77 36-1.24c3.85 5.67 4 13.1 4 20l.08 39.51c0 7.24 0 14.74-2.87 21.36-4.74 11-16.07 17.15-26.6 22.42l-68.57 34.34c-7.72 3.86-15.52 7.78-22.07 13.5-29.86 26.07-9.8 62.16-32.84 87.26-9.29 10.13-24.72 13.18-32.35 24.71-5.63 8.52-5.6 19.61-5.37 29.93.64 28.89 7.8 44.93 18.12 51.76z" transform="translate(-457.05 -441.06)" fill="url(#linear-gradient-6)"/><path d="M2554.53 2255.41c-9.25 17.31-8 39.94-28.89 49.49-13.91 6.36-31.72 3.46-43 14-12.93 12-9.55 33.21-7.06 51 .45 3.19.81 6.57-.45 9.51-3.33 7.8-15.27 7.59-19.37 15-3.51 6.34.85 14.34 6.09 19.25 16 15 41.94 16.91 59.84 4.51 4.76-3.29 9.93-7.7 15.49-6.29 6.5 1.65 8.68 9.81 10.44 16.48 3.75 14.21 11.17 27.86 22.88 36.24 36.86 26.36 88.72-5.71 129.65 31.48 5 4.57 9.81 10 11.28 16.75 1.58 7.3-.79 15.68 3.18 21.94 5 7.83 17.19 6.77 23.87.45s9.37-15.84 12.16-24.75 6.45-18.33 14.13-23.32c12.93-8.38 27.66-5.17 34.82-22.23 8.92-21.76-17.71-39.78-9.26-59.61 3.78-8.85 9.81-18.51 6-27.35-1.93-4.5-6-7.5-9.38-11-15.78-16.32-18.46-31.67-39.48-41.62-13.41-6.35-41.2 1.87-46.7-21.27-1.44-6 .62-13.6-3.88-17.72-2.55-2.33-6.27-2.49-9.68-2.48-23.52.08-51.49.45-64.89-19.54-14.82-22.1-16.55-38-46.64-27.06a37 37 0 00-21.15 18.14z" transform="translate(-457.05 -441.06)" fill="url(#linear-gradient-7)"/><path d="M1853.46 2133.83c-4.9 7-7.66 15.5-12.83 22.33-14.55 19.2-20.86 2.23-37.3 8.69-5.67 2.24-10.7 6.22-16.62 7.63-12 2.84-23.85-5.42-36.13-5.47-47.3-.2-22.47 78.47.43 93.55 4.24 2.8 9.58 2.83 14.6 2.78l46.79-.47c4.44 0 9.21 0 12.87 2.61 11.28 8 .53 27.86 7.32 40.16 4.65 8.44 15.47 10 24.72 11.75 19.55 3.67 23.83 25.68 35.8 39.25 15.38 17.46 30.06 24.49 38.73 49.83 5.15 15.05 6.93 31.33 13.72 45.66 14 29.47 50.2 45.35 80.38 35.23s50.53-45 45.13-77.3c-3.15-18.9-13.67-35.45-21-53.07-14.77-35.65-4.78-79.06 36.15-85.86 10.33-1.71 23.45-2.32 27.3-12.38 5.56-14.5-15.87-31.46-7-44.06 3.2-4.54 9.4-6.16 12.21-11 3.77-6.46-.53-14.81-5.79-20s-11.9-9.75-14.07-17c-12.24-40.59-52.44-15.22-79.26-9.88-23.93 4.78-37.57 1.68-57.47-10.23-30.79-18.38-77.49-57.51-108.68-12.75z" transform="translate(-457.05 -441.06)" fill="url(#linear-gradient-8)"/><path d="M1955.38 1499.2c3.53-6.82 12.17-8.42 19.64-9a283.68 283.68 0 0177 5.15c-20.94 17-44.33 34.95-71 34-12.08-.42-24.62-4.73-35.92-.29a28.54 28.54 0 013.79-24.75z" transform="translate(-457.05 -441.06)" fill="url(#linear-gradient-9)"/><path d="M1657.75 1812.54c26.27 21.51 118.93-7.19 75.7-35-7-4.48-15.36-5.86-23.49-7.15-10.92-1.73-22.12-3.45-32.94-1.13s-21.36 9.56-24.61 20.49c-3.12 10.56-.57 17.95 5.34 22.79z" transform="translate(-457.05 -441.06)" fill="url(#linear-gradient-10)"/><path d="M2802.21 1623.32c16.25 14.74 39 18.37 60.42 21.38 10.68 1.51 24.68 1.1 28.37-9.38 3.89-11.06-8.67-21.27-20-22.55s-23.32 1.81-33.79-2.78c-9.29-4.07-16.61-13.89-26.7-13.8-11.74.1-18.85 17.83-10.63 26.51z" transform="translate(-457.05 -441.06)" fill="url(#linear-gradient-11)"/></g><path d="M989 3142.08s-5.54 31.38-8.26 62.44a21.41 21.41 0 0020.48 23.19c41.36 1.72 129.84 5.07 161.59 3.65a7 7 0 006.13-9.54 15.6 15.6 0 00-8-8.4l-146.16-67.17z" transform="translate(-457.05 -441.06)" fill="url(#linear-gradient-12)"/><path d="M984.45 3123.64l4.46 37.53s25.6 11.92 43.08-1.5l-10.6-41.83z" transform="translate(-457.05 -441.06)" fill="url(#linear-gradient-13)"/><path d="M987.8 2418c-1.92 9.8-10.33 489.12 40.91 703.92a7.3 7.3 0 01-4.28 8.49 126.88 126.88 0 01-41.72 8.48 12.56 12.56 0 01-12.46-9c-14.65-49.83-84.83-299.53-94-538.06-10.23-266.54 0-9.08 0-9.08l6-164.75z" transform="translate(-457.05 -441.06)" fill="url(#linear-gradient-14)"/><path d="M820.87 3158.45s-8.83 15.84-17.37 57.93A13.06 13.06 0 00815 3232c13.66 1.34 34.69 3.07 51.53 2.95a13 13 0 0012.89-14.52c-1.87-15.36-7.68-40.57-25.64-60.22z" transform="translate(-457.05 -441.06)" fill="url(#linear-gradient-15)"/><path d="M813.12 3110.17l10.4 56.76s10.29 7.65 30.64 2.11l-5-61.07z" transform="translate(-457.05 -441.06)" fill="url(#linear-gradient-16)"/><path d="M785 2432.71c-41.91 252.89 9.09 625.05 26.28 697.89a11.37 11.37 0 009.18 8.62c7.67 1.28 20.31 2.31 32.77-1.3a10.43 10.43 0 007.49-9.59c2.3-58.89-1.85-420.41 37.2-563.29a32.43 32.43 0 0112.51-17.9l75.79-53.88 5.81-87.08z" transform="translate(-457.05 -441.06)" fill="url(#linear-gradient-17)"/><path d="M1079.46 2093a1.47 1.47 0 00-.38.41l-1.57.07c-.17.24-1.88.65-1.88 1.12l1.5.51c0 .51.71 1.15.57 1.87l.35.31c-1.77 10.48-11.38 39.18-21.9 76.32-.1.31-.07.65-.18 1-23.59 83.34-57.65 208.78-67.93 266.86 0 0-18.2 9-46.53 13.5h-.06c-40.92 8.94-102.68 17.14-160.14 2.09 0 0-30.88-252 6.53-470.48 0 0 98.15-24.47 204.09-31.14.55 0 1.09 1.86 1.64 1.83 8.54-.48 17.12 1.14 25.7 1.14h9.8c4.4 0 12.33 1.55 21.59 5.46.27.1.81-.86.81-.72a5.63 5.63 0 01.11-.81l2.31 1c1.06.44 2.15.88 3.27 1.43a6.21 6.21 0 00.75.34c.1.07.24.09.34.16q1.07.56 2.25 1.11l.44.2 2.69 1.4c.13.06-.58.13-.44.23 1 .55 2.41 1.13 3.5 1.71s1.74 1 1.81 1.63l.13-.89c.51.28 1.06.58 1.57.89a.33.33 0 01.13.07 115.27 115.27 0 0116.62 11.64s0 .07.07.1.17.24.23.34c23.75 39.47 34.75 104.06-7.79 109.3z" transform="translate(-457.05 -441.06)" fill="url(#linear-gradient-18)"/><path d="M1327.38 2158.37c-106.78-11.3-156.9-93.56-196.58-145.87-52.4-69.07-108.62-52.55-108.62-52.55l33.82 147.81c79.18 126.24 192.5 132.24 268.67 117.81a135.13 135.13 0 002.71-67.2z" transform="translate(-457.05 -441.06)" fill="url(#linear-gradient-19)"/><path d="M1487.76 2134.61l-38.85 9.48c-47.34 14.26-87.33 17.9-121.53 14.28a135.13 135.13 0 01-2.71 67.2c48.49-9.18 81.93-26.65 81.93-26.65 89.18-25.92 81.16-64.31 81.16-64.31z" transform="translate(-457.05 -441.06)" fill="url(#linear-gradient-20)"/><path d="M1575.68 2208.74a26 26 0 00-10.52-19.9l-61.93-45.8s1.26-9.14 18.49-11.1 18.12-20.44 18.12-20.44-23.93 4.19-59.27 11.53c-20.21 4.19-34.32 17.21-42.71 27.58l11.72 28c39.3 23.89 81.8 37.55 126.62 43.78z" transform="translate(-457.05 -441.06)" fill="url(#linear-gradient-21)"/><path d="M1030.13 1954.54h-1.06a2.68 2.68 0 01-.27-.07z" transform="translate(-457.05 -441.06)" fill="url(#linear-gradient-22)"/><path d="M1051.61 1953.39l-.14.06v-.13s.07.07.14.07z" transform="translate(-457.05 -441.06)" fill="url(#linear-gradient-24)"/><path d="M836.05 2108.09l-48.17-121.6s-117.3 79.7-136.59 180.75c22.16 1.63 62.49 7.4 102 27.33 8.64-47.72 82.76-86.48 82.76-86.48z" transform="translate(-457.05 -441.06)" fill="url(#linear-gradient-25)"/><path fill="url(#linear-gradient-26)" d="M538.05 1664.66v16.94l62.63-3.77v-18.82l-62.63 5.65z"/><path d="M938.7 2219s-131.7 74.42-176.14 10.87c-9.22-13.2-11.43-26.31-9.15-38.81-39.48-19.94-79.81-25.7-102-27.33-5.82 30.46-2.75 62.86 15.16 95.61 77.83 142.38 289.53-7.87 289.53-7.87z" transform="translate(-457.05 -441.06)" fill="url(#linear-gradient-27)"/><path d="M922.87 2313.11l71.88-251a7.31 7.31 0 016.19-5.27c13-1.52 50.76-5.78 94.32-9.47 52.48-4.44 113.43-8 149.84-5a7.34 7.34 0 016 10.56c-20.71 41.9-105.9 212.33-148.56 268.16a7.35 7.35 0 01-5.92 2.91l-166.76-1.55a7.34 7.34 0 01-6.99-9.34z" transform="translate(-457.05 -441.06)" fill="url(#linear-gradient-28)"/><path class="cls-5" d="M1102.72 2025.6l52.11-8.68a3.74 3.74 0 014.17 4.86l-5.16 15.63a3.75 3.75 0 01-3.06 2.54l-50.14 6.69a3.74 3.74 0 01-4.14-4.56l3.19-13.64a3.76 3.76 0 013.03-2.84z" transform="translate(-457.05 -441.06)"/><path class="cls-5" d="M1063.7 2069.72l4.29-22.36a5.17 5.17 0 014.56-4.17l105.25-10.68a5.17 5.17 0 015.55 6.35l-6.7 27.86a5.15 5.15 0 01-4.76 4l-102.89 5.13a5.17 5.17 0 01-5.3-6.13z" transform="translate(-457.05 -441.06)"/><path d="M940.24 2252.46s-10-41.17-6-55.77 11.86-33.39 37.94-29.22 56.85 15.16 56.85 15.16-1.55 19-21.38 12.89L1020 2205s-1.76 15.24-18.5 7.1l11.43 12.61s-7.19 12.51-19.51 4.49-18.24 28.22-53.18 23.26z" transform="translate(-457.05 -441.06)" fill="url(#linear-gradient-29)"/><path d="M814.72 2255.9c-12.23 0-23.46-1.81-32-6.5a1.71 1.71 0 011.64-3c35.09 19.27 121.71-13.72 122.58-14 .23-.08 17.07-5.93 23.08-17.67a1.7 1.7 0 013 1.55c-6.64 13-24.21 19.07-24.95 19.32-2.7 1.01-53.38 20.3-93.35 20.3z" transform="translate(-457.05 -441.06)" fill="url(#linear-gradient-30)"/><path d="M767.22 2320.78c-.91 0-1.66 0-1.69-.92s.7-1.37 1.64-1.41c100-3.44 156.94-49 157.51-49.51a1.7 1.7 0 012.39.33c.6.73.49 1.13-.23 1.73s-58.4 49.78-159.56 49.78z" transform="translate(-457.05 -441.06)" fill="url(#linear-gradient-31)"/><path d="M848.13 1973.8L962.38 2118l74.91-159.26c-60.64-6.35-123.01-.67-189.16 15.06z" transform="translate(-457.05 -441.06)" fill="url(#linear-gradient-33)"/><path d="M848.13 1973.8L962.38 2118l75.85-159.26c-60.63-6.35-123.95-.67-190.1 15.06z" transform="translate(-457.05 -441.06)" opacity=".86" fill="#fff"/><path d="M924.82 1851.56l-40 115.56c-.66 1.91 2.1.66 3.87 1.64 10.89 6 44.06 15.42 95.45-3.18 5.49-2 8.28-8.22 9-14l12.94-100z" transform="translate(-457.05 -441.06)" fill="url(#linear-gradient-34)"/><path d="M1030.32 1742s19.28 70.09 16.25 105 1.22 58.44-39.82 59.68-71.91-23.53-85.24-60.63c0 0-21-57.25-11.49-78.1s120.3-25.95 120.3-25.95z" transform="translate(-457.05 -441.06)" fill="url(#linear-gradient-35)"/><path d="M866.78 1745.93c8.74-5.45 14.43-3.57 17.76-.82a2.77 2.77 0 003 .34c.09-1 6.72-72.67 104.38-60.07a25.19 25.19 0 0025.13-12.55c11.55-20.33 33.45-50.23 50-21 23.53 41.55 30.51 96.08-36.13 107.38-3.94.67-7.92 1.2-11.92 1.63-27.51 6.78-58.84 8.92-70.45 11.85-19.41 4.89-4.58 50-4.58 50l-5.06-.72-10.79-1.55c-1.57-.22-3.09 1.55-3.22 3.13l-.93 31c-.11 1.33-2.73 2.41-4.06 2.55-4.93.54-17.73.06-37.4-14.38-19.23-14.11-10-21.27-4.11-24a2.71 2.71 0 00.75-4.32c-26.24-28.64-27.56-59.01-12.37-68.47z" transform="translate(-457.05 -441.06)" fill="url(#linear-gradient-36)"/><path d="M939.07 1829.73s-4.92-43.71-25.51-34.6 3.05 48.63 18 52.38z" transform="translate(-457.05 -441.06)" fill="url(#linear-gradient-37)"/><path class="cls-8" d="M1048.23 1746a1.34 1.34 0 01-.87-.51 1.36 1.36 0 01.22-1.91c14-11.1 21.75-23.94 22.92-38.15 2-24.72-16.58-45.52-16.77-45.73a1.36 1.36 0 012-1.83c.8.88 19.58 21.85 17.47 47.76-1.23 15-9.29 28.49-23.94 40.09a1.37 1.37 0 01-1.03.28z" transform="translate(-457.05 -441.06)"/><path class="cls-7" d="M891 1942c-6.13 8.66-7 10.27-15.46 25.15 21.72 12.27 53.29 14.65 80.26 9.44-20.5-10.78-43.75-22.19-59.24-35.35a3.81 3.81 0 00-5.56.76zm64.77 34.63c17.86-14.9 33.2-25.06 39.34-38.08 9 5.27 12.41 9 22.18 15.44a3.39 3.39 0 01-.95 6.1z" transform="translate(-457.05 -441.06)"/><path d="M967.21 1963.34L941.4 1965a2.64 2.64 0 00-2.11 3.94l8.43 14.75a2.65 2.65 0 002.44 1.33l13.15-.75a2.64 2.64 0 002.4-1.94l4.21-15.71a2.62 2.62 0 00-2.71-3.28z" transform="translate(-457.05 -441.06)" fill="url(#linear-gradient-38)"/><path d="M948.53 1985.13c-1.63 25.23-9 58-18.25 93.16l32.1 39.66 27.7-58.23c-8.63-30.44-17.2-59.87-24.87-75.54z" transform="translate(-457.05 -441.06)" fill="url(#linear-gradient-39)"/><path d="M1976.3 2221.12c49.44-44.92 126.24-38.11 171.65 12.4 44 48.95 44 123.15 0 168.35-45.41 46.65-122.21 46.91-171.65-2.22-51.11-50.8-51.11-132.09 0-178.53z" transform="translate(-457.05 -441.06)" fill="url(#linear-gradient-40)"/><path d="M1110.89 1301.52c49.44-44.92 126.24-38.11 171.65 12.4 44 48.95 44 123.16 0 168.36-45.41 46.64-122.21 46.9-171.65-2.23-51.11-50.8-51.11-132.05 0-178.53z" transform="translate(-457.05 -441.06)" fill="url(#linear-gradient-41)"/><path d="M2382.12 1715c0-75.27 61.43-134.79 134.34-133 69.94 1.71 124.57 59.62 124.57 129.43s-54.63 129.23-124.57 132.88c-72.91 3.76-134.34-54.06-134.34-129.31z" transform="translate(-457.05 -441.06)" fill="url(#linear-gradient-42)"/><path class="cls-7" d="M2559.32 1695.63c-.08-.21-.13-.44-.21-.65-7.21-19.91-25.54-34.31-47.07-34.73-28-.56-50.83 22.73-50.83 52 0 .64 0 1.26.05 1.88-13.52.93-24.22 13.89-24.22 28.27 0 3.63 2.84 7.94 6.33 8l31.11.38 14.35.18 35.78.44 24.73.31 34.65.42c6 .08 11-5.88 11.6-12.08.13-1.32.2-3.32.2-4.71 0-21.24-16.25-39.25-36.47-39.71z" transform="translate(-457.05 -441.06)"/><path d="M1442.94 1839c0-120.35 101.13-215.42 221.12-212.46 115 2.85 204.89 95.47 204.89 207s-89.84 206.45-204.89 212.25c-119.99 6.03-221.12-86.44-221.12-206.79z" transform="translate(-457.05 -441.06)" fill="url(#linear-gradient-43)"/><path class="cls-7" d="M1235.25 1377.72c-.07-.2-.12-.41-.2-.61a49.55 49.55 0 00-45.19-32.41c-26.92-.54-48.81 21.16-48.81 48.47v1.75c-13 .86-23.26 12.64-23.26 26 0 3.38 2.72 7.09 6.08 7.13l29.88.38 13.78.17 34.35.43 23.74.3 33.26.42c5.72.07 10.52-5.18 11.13-11 .13-1.23.2-2.94.2-4.23.05-19.71-15.55-36.36-34.96-36.8zm487.52 420.43c-.11-.32-.2-.66-.32-1-11.23-30.11-39.78-51.91-73.3-52.57-43.66-.87-79.17 34.32-79.17 78.62 0 1 0 1.9.08 2.84-21.07 1.39-37.73 20.49-37.73 42.24 0 5.49 4.42 11.51 9.86 11.58l48.47.6 22.35.28 55.72.7 38.51.48 54 .68c9.26.12 17-8.39 18-17.77.21-2 .31-4.77.31-6.87 0-32.1-25.29-59.09-56.78-59.81zM2102.48 2288c-.08-.2-.13-.42-.21-.63a51.74 51.74 0 00-47.19-33.84c-28.1-.56-51 22.09-51 50.61 0 .62 0 1.22.05 1.83-13.56.89-24.29 13.19-24.29 27.19 0 3.53 2.85 7.41 6.35 7.45l31.2.39 14.39.18 35.87.45 24.79.31 34.73.44c6 .07 11-5.4 11.62-11.44.13-1.28.2-3.07.2-4.42.01-20.71-16.24-38.09-36.51-38.52z" transform="translate(-457.05 -441.06)"/><g class="cls-53"><path class="cls-2" d="M2831.66 861.57a10.65 10.65 0 01-11-10.24c-.44-11.42-1.38-23-2.79-34.39a10.64 10.64 0 019.05-11.85h.21a10.66 10.66 0 0111.88 9.26c1.48 12 2.47 24.18 2.93 36.2a10.66 10.66 0 01-9.12 11c-.4-.03-.82 0-1.16.02zm-24.52-99.64c-2.95-11.1-6.41-22.17-10.28-32.93a10.65 10.65 0 0120-7.2c4.07 11.31 7.7 23 10.81 34.64a10.66 10.66 0 01-7.55 13 10.89 10.89 0 01-1.24.25 10.65 10.65 0 01-11.74-7.76zm-32.85-84.19a400.56 400.56 0 00-17.36-29.79 10.65 10.65 0 1117.92-11.51 423.262 423.262 0 0118.29 31.38 10.65 10.65 0 01-4.46 14.38 10.34 10.34 0 01-3.45 1.12 10.65 10.65 0 01-10.94-5.58zM2723.44 603a403.696 403.696 0 00-23.59-25.17 10.65 10.65 0 1114.9-15.22c8.61 8.44 17 17.36 24.84 26.5a10.65 10.65 0 11-16.15 13.89zm-66.23-61.53c-9.2-6.8-18.82-13.31-28.59-19.32A10.65 10.65 0 112639.8 504a432.844 432.844 0 0130.07 20.34 10.65 10.65 0 11-12.66 17.12zM2579 496.13a409.46 409.46 0 00-32.15-12.51 10.65 10.65 0 016.88-20.16c11.42 3.89 22.8 8.33 33.83 13.17a10.65 10.65 0 11-8.56 19.5zm-394.59 26.29a10.65 10.65 0 013.24-14.71 424.278 424.278 0 0131.42-18.23 10.65 10.65 0 019.89 18.86 405.547 405.547 0 00-29.84 17.32 10.64 10.64 0 01-14.71-3.24zm308.34-53.15c-11.24-2.16-22.72-3.86-34.1-5a10.65 10.65 0 012.2-21.18c12 1.24 24.07 3 35.91 5.3a10.65 10.65 0 01-4 20.92zm-226.09 10.15a10.65 10.65 0 016.45-13.61c11.35-4.05 23-7.67 34.69-10.75a10.65 10.65 0 015.44 20.59 411.043 411.043 0 00-33 10.22 10.89 10.89 0 01-2.08.51 10.67 10.67 0 01-11.49-6.96zm136-17.07c-11.43.41-23 1.32-34.38 2.71a10.65 10.65 0 01-2.81-21.11h.23c12-1.46 24.16-2.42 36.19-2.86a10.65 10.65 0 011.91 21.19c-.35.02-.73.05-1.12.07zm-266.84 110.7a10.52 10.52 0 005.73-2.74c4-3.75 8.18-7.47 12.37-11.07a10.65 10.65 0 10-13.87-16.16c-4.41 3.79-8.79 7.7-13 11.64a10.65 10.65 0 008.78 18.33z" transform="translate(-457.05 -441.06)"/></g><g class="cls-53"><path class="cls-2" d="M2003.57 869.58a10.65 10.65 0 009.12-10.37c.09-5.49.3-11.07.62-16.58a10.65 10.65 0 00-21.31-1.23c-.33 5.81-.55 11.68-.64 17.46a10.65 10.65 0 0010.47 10.83 11.84 11.84 0 001.74-.11zm452.35 420.21a10.65 10.65 0 01-2-21.2c11.14-1 22.42-2.58 33.64-4.58a10.65 10.65 0 013.74 21q-7.31 1.3-14.57 2.34c-6.91.97-13.91 1.8-20.81 2.44zm78.31-25.7a10.65 10.65 0 016.87-13.4 404.47 404.47 0 0031.85-11.75 10.65 10.65 0 118.21 19.65 425.7 425.7 0 01-33.53 12.37 10 10 0 01-1.76.41 10.64 10.64 0 01-11.64-7.28zm-136.32 27.15c-11.84-.52-23.81-1.55-35.6-3.07a10.65 10.65 0 112.72-21.12c11.2 1.44 22.57 2.42 33.81 2.91a10.65 10.65 0 011.06 21.18 10.93 10.93 0 01-1.99.1zm220.57-62.41a10.65 10.65 0 013.76-14.58c9.71-5.73 19.29-12 28.47-18.47a10.65 10.65 0 1112.34 17.36 423.529 423.529 0 01-30 19.45 10.66 10.66 0 01-14.59-3.76zm-313 48a422.112 422.112 0 01-34-10.82 10.65 10.65 0 117.3-20c10.6 3.87 21.48 7.33 32.33 10.28a10.65 10.65 0 11-5.59 20.55zm-87.06-34.35a422.27 422.27 0 01-30.87-18 10.65 10.65 0 0111.48-17.94c9.49 6.07 19.36 11.82 29.33 17.09a10.65 10.65 0 11-9.94 18.83zm-77.55-52.48c-9-7.7-17.87-15.87-26.22-24.27a10.65 10.65 0 1115.11-15c7.94 8 16.32 15.75 24.91 23.06a10.65 10.65 0 11-13.8 16.22zm-64.21-68.16c-7.15-9.49-14-19.4-20.27-29.45a10.65 10.65 0 1118-11.32c6 9.54 12.46 19 19.25 28a10.65 10.65 0 01-2.11 14.91 10.46 10.46 0 01-4.88 2 10.64 10.64 0 01-9.99-4.18zm-47.66-80.69c-4.86-10.81-9.33-22-13.27-33.17a10.65 10.65 0 0120.09-7.07c3.74 10.64 8 21.24 12.6 31.5a10.64 10.64 0 01-5.34 14.08 10.36 10.36 0 01-2.86.83 10.64 10.64 0 01-11.22-6.17zm-28.79-89.07c-1.76-8.55-3.28-17.26-4.52-25.88q-.67-4.69-1.24-9.37a10.54 10.54 0 019.29-11.85 10.65 10.65 0 0111.86 9.29q.54 4.44 1.17 8.9c1.18 8.2 2.63 16.48 4.3 24.61a10.65 10.65 0 01-8.28 12.58c-.21 0-.43.09-.65.12a10.66 10.66 0 01-11.96-8.4zM2702.37 1179a10.6 10.6 0 005.78-2.79c4.2-4 8.39-8.06 12.47-12.23a10.65 10.65 0 10-15.22-14.98c-3.88 4-7.86 7.86-11.85 11.61a10.66 10.66 0 008.82 18.3z" transform="translate(-457.05 -441.06)"/></g><path class="cls-2" d="M2708.1 996.47a5 5 0 00-.45-5.76l-38.88-46.47a263.52 263.52 0 0012.75-84.53l50.79-33a5 5 0 002.12-5.38l-17.51-70.52a5 5 0 00-4.39-3.76l-60.3-5.36a263.86 263.86 0 00-50.82-68.69l12.59-59.26a5 5 0 00-2.3-5.3L2549.49 571a5 5 0 00-5.77.45l-46.46 38.88a263.54 263.54 0 00-84.54-12.75l-32.94-50.79a5 5 0 00-5.38-2.12l-70.52 17.51a5 5 0 00-3.76 4.39l-5.36 60.3a263.86 263.86 0 00-68.76 50.77L2166.76 665a5 5 0 00-5.3 2.3L2124 729.56a5 5 0 00.45 5.76l38.87 46.46a263.89 263.89 0 00-12.74 84.54l-50.79 32.95a5 5 0 00-2.12 5.38l17.51 70.52a5 5 0 004.39 3.76l60.3 5.36a263.86 263.86 0 0050.82 68.75l-12.69 59.25a5 5 0 002.3 5.3l62.25 37.49a5 5 0 005.76-.45l46.46-38.88a263.62 263.62 0 0084.54 12.75l32.95 50.79a5 5 0 005.38 2.12l70.52-17.51a5 5 0 003.76-4.39l5.36-60.3a263.86 263.86 0 0068.75-50.82l59.25 12.63a5 5 0 005.3-2.3z" transform="translate(-457.05 -441.06)"/><path class="cls-8" d="M2415.75 936.05a73 73 0 1110.7-.74 73.12 73.12 0 01-10.7.74zm-39.16-112.79a56 56 0 1039.66-16.26 57.07 57.07 0 00-8.29.58 55.55 55.55 0 00-31.37 15.68z" transform="translate(-457.05 -441.06)"/><path class="cls-8" d="M2440 1040a181.44 181.44 0 0018.11-3.54c1.9-.47 3.78-1 5.66-1.5a180.88 180.88 0 0027-10l.35-.16 1-.48 1.94-.94a4.26 4.26 0 002.35-4.42 4.32 4.32 0 00-.4-1.28 4.26 4.26 0 00-5.7-2 171.26 171.26 0 01-193.47-29.77 170.06 170.06 0 01-48-82.57 173.91 173.91 0 01-3.38-17.28 171.1 171.1 0 01128.18-190c91.59-22.74 184.53 33.25 207.26 124.8a172.39 172.39 0 013.33 17.06 170.52 170.52 0 01-5.69 74 4.33 4.33 0 00-.14 1.85 4.26 4.26 0 008.29.64 179.43 179.43 0 002.48-95.64c-23.87-96.12-121.5-154.88-217.58-131a179.66 179.66 0 00-134.57 199.44 181.5 181.5 0 003.55 18.14A179.62 179.62 0 002440 1040z" transform="translate(-457.05 -441.06)"/><g class="cls-53"><path class="cls-2" d="M3232.36 1087.67a6.58 6.58 0 005.57-5.57c.8-5.53 1.44-11.16 1.9-16.73a6.58 6.58 0 10-13.11-1.09c-.44 5.31-1 10.67-1.81 16a6.58 6.58 0 007.45 7.44zm1.91-50.47a6.57 6.57 0 01-6.84-6.3 271.85 271.85 0 00-2.52-27.48q-.42-2.88-.89-5.76a6.57 6.57 0 015.42-7.55 6.8 6.8 0 017.56 5.42q.49 3 .93 6a286.58 286.58 0 012.64 28.81 6.58 6.58 0 01-5.63 6.78c-.22.05-.44.07-.67.08zm-17.69-72.1a270.86 270.86 0 00-11.34-31.41 6.58 6.58 0 1112.07-5.22 286.38 286.38 0 0111.9 32.92 6.59 6.59 0 01-4.46 8.17 7.72 7.72 0 01-.93.2 6.6 6.6 0 01-7.24-4.66zm-26.49-61.18a270.25 270.25 0 00-18.73-27.67 6.58 6.58 0 0110.42-8 283.94 283.94 0 0119.64 29 6.59 6.59 0 01-2.33 9 6.39 6.39 0 01-2.4.84 6.57 6.57 0 01-6.6-3.17zm-40.73-52.8a271.71 271.71 0 00-24.91-22.24 6.58 6.58 0 118.13-10.34 285.7 285.7 0 0126.13 23.32 6.58 6.58 0 010 9.3 6.58 6.58 0 01-9.31 0zM3097 809.86a271.93 271.93 0 00-29.57-15.52 6.58 6.58 0 015.4-12 287.38 287.38 0 0131 16.26 6.58 6.58 0 01-6.82 11.26zm-60.8-27.3a270.44 270.44 0 00-32.43-7.82 6.58 6.58 0 012.28-13 284.11 284.11 0 0134 8.21 6.58 6.58 0 11-3.87 12.57zM2970.57 771a269.73 269.73 0 00-33.39.37 6.58 6.58 0 11-1-13.12 284.34 284.34 0 0135-.39 6.58 6.58 0 01.6 13.08 6.68 6.68 0 01-1.21.06zm-107.1 9.15a6.57 6.57 0 014.18-8.3 285.43 285.43 0 0129.36-8c1.51-.34 3-.64 4.52-.94a6.51 6.51 0 017.73 5.18 6.59 6.59 0 01-5.19 7.73c-1.41.27-2.83.57-4.26.88a273.66 273.66 0 00-28 7.59 6 6 0 01-1.13.27 6.57 6.57 0 01-7.21-4.43z" transform="translate(-457.05 -441.06)"/></g><g class="cls-53"><path class="cls-2" d="M2993.09 1323.36a286.46 286.46 0 01-34.35 2.38 6.58 6.58 0 01-.11-13.16 270.63 270.63 0 0032.77-2.27 6.58 6.58 0 011.78 13zm25.84-11.25a6.57 6.57 0 014.75-8 275.88 275.88 0 0031.3-10 6.58 6.58 0 114.75 12.27 289.6 289.6 0 01-32.8 10.49c-.24.06-.47.1-.7.14a6.58 6.58 0 01-7.3-4.9zm-94.6 11.81a287.09 287.09 0 01-33.91-6 6.58 6.58 0 013.07-12.8 271.34 271.34 0 0032.35 5.73 6.57 6.57 0 01.18 13 6.79 6.79 0 01-1.69.07zm157.81-34.63a6.57 6.57 0 012.69-8.9 271.61 271.61 0 0028-17.27 6.58 6.58 0 017.59 10.75 282.77 282.77 0 01-29.32 18.11 6.6 6.6 0 01-8.91-2.69zm-224.64 18.55a283.18 283.18 0 01-31.47-14 6.58 6.58 0 016.06-11.68 270.54 270.54 0 0030 13.34 6.58 6.58 0 11-4.6 12.32zm-61-31.64a287.17 287.17 0 01-27.23-21.1 6.58 6.58 0 118.68-9.89 273.09 273.09 0 0026 20.13 6.58 6.58 0 01-2.78 11.94 6.5 6.5 0 01-4.7-1.08zm-51.71-45.34a284.3 284.3 0 01-21.37-27 6.58 6.58 0 0110.8-7.52 268.1 268.1 0 0020.38 25.77 6.58 6.58 0 01-9.81 8.78zm399.21 22.9a6.53 6.53 0 003.49-1.64c4.16-3.78 8.24-7.71 12.11-11.67a6.58 6.58 0 00-9.41-9.2 265.04 265.04 0 01-11.55 11.13 6.58 6.58 0 005.36 11.38z" transform="translate(-457.05 -441.06)"/></g><path class="cls-2" d="M3151.62 1128.77a3.33 3.33 0 00-.3-3.85l-26-31.09a176.84 176.84 0 008.53-56.57l34-22a3.34 3.34 0 001.42-3.6l-11.72-47.19a3.32 3.32 0 00-2.93-2.51l-40.36-3.59a176.38 176.38 0 00-34-46l8.45-39.64a3.32 3.32 0 00-1.54-3.55L3045.49 844a3.35 3.35 0 00-3.86.3l-31.09 26a176.56 176.56 0 00-56.57-8.53l-22-34a3.29 3.29 0 00-3.59-1.42l-47.19 11.71a3.36 3.36 0 00-2.52 2.94l-3.67 40.42a176.47 176.47 0 00-46 34l-39.62-8.42a3.33 3.33 0 00-3.55 1.54l-25.08 41.65a3.35 3.35 0 00.3 3.86l26 31.09a176.8 176.8 0 00-8.53 56.57l-34 22a3.35 3.35 0 00-1.42 3.6l11.72 47.19a3.34 3.34 0 002.94 2.52l40.35 3.58a176.44 176.44 0 0034 46l-8.45 39.65a3.32 3.32 0 001.54 3.54l41.66 25.09a3.33 3.33 0 003.85-.3l31.09-26a176.56 176.56 0 0056.57 8.53l22 34a3.33 3.33 0 003.59 1.42l47.19-11.72a3.34 3.34 0 002.52-2.94l3.58-40.35a176.44 176.44 0 0046-34L3123 1172a3.36 3.36 0 003.55-1.54z" transform="translate(-457.05 -441.06)"/><path class="cls-8" d="M2956 1089.22a49.61 49.61 0 117.35-.51 49.38 49.38 0 01-7.35.51zm-36.41-49.89a36.6 36.6 0 0036.45 36.74 36.6 36.6 0 10-36.45-36.74z" transform="translate(-457.05 -441.06)"/><path class="cls-8" d="M2972.84 1161.53a124.45 124.45 0 0036.13-10.94l1-.5a6.58 6.58 0 10-5.79-11.81 111.25 111.25 0 01-22.16 8.07l-1.26.3a109.59 109.59 0 01-54.23-.79 111.36 111.36 0 01-27.47-11.6l-.22-.13-.64-.38a110.08 110.08 0 01-50.36-68.19q-1.38-5.58-2.19-11.19a110.76 110.76 0 11215.64 16.78 6.31 6.31 0 00-.22 2.85 6.58 6.58 0 0012.8 1 123.68 123.68 0 004.12-53.63 121.82 121.82 0 00-2.41-12.35 123.91 123.91 0 00-242.95 47.21c.6 4.17 1.41 8.35 2.44 12.51a124.09 124.09 0 00137.77 92.79z" transform="translate(-457.05 -441.06)"/></svg>