<svg xmlns="http://www.w3.org/2000/svg" viewBox="0 0 500 500"><ellipse cx="249.05" cy="313.84" rx="211.54" ry="133.12" fill="#f5f5f5"/><ellipse cx="322.65" cy="390.86" rx="46.65" ry="26.93" fill="#e0e0e0"/><path d="M60.96 196.5l.18.11c-.08-.05-.16-.09-.23-.13-.15-.09-.29-.17-.43-.25l.48.27z" opacity=".3"/><path d="M57.71 194.02c-.04.12-.04.25-.01.36a.554.554 0 010-.36l.66-2.2-.65 2.2z" fill="#27debf"/><path d="M57.71 194.02c-.04.12-.04.25-.01.36a.554.554 0 010-.36l.66-2.2-.65 2.2z" opacity=".4" fill="#fff"/><path d="M123.17 162.29l-12.29-7.12c-.08-.06-.14-.09-.14-.09a.587.587 0 00-.23-.04c-.3-.17-.62-.36-.95-.54-.42-.24-.86-.5-1.31-.76-1.8-1.05-3.78-2.19-5.3-3.07-.29-.17-.57-.33-.82-.48-.98-.57-1.63-.94-1.67-.97a.96.96 0 00-.61-.11l-6.19.61c-.37.04-.76.23-1.03.49-.15.13-.26.29-.32.45l-3.36 9c-.01.02-.01.04-.03.06-.03.06-.06.11-.09.17s-.07.12-.13.18a3.498 3.498 0 01-1.1.9c-.65.3-1.31.65-1.97 1.03l-6.49-3.76a.512.512 0 00-.28-.08c-.23 0-.49.13-.72.38h-.01l-4.06 4.29-2.73 2.88c-.23.24-.39.55-.48.85-.08.23-.1.46-.05.64l1.9 6.4c.02.07.03.15.02.23.02.12.01.26-.03.41-.01.08-.03.17-.06.26 0 .03 0 .05-.01.06-.01.04-.02.08-.04.11-.02.07-.04.14-.08.2-.04.1-.09.19-.15.28a49.088 49.088 0 00-3.12 5.43c-.04.07-.08.14-.15.21-.05.07-.12.14-.19.21-.31.32-.73.57-1.14.67l-5.81 1.4c-.43.1-.85.38-1.11.71-.1.13-.17.26-.21.39l-.36 1.22-1.91 6.43-.65 2.2c-.04.12-.04.25-.01.36.02.07.04.13.08.19s.09.12.15.16c.01.01.04.03.1.07l.98.57.27.15v.01l.78.45.42.25.48.27.18.11.51.29 2.83 1.63c.02.01.03.02.03.02-.01.9.03 1.78.11 2.64.02.2-.03.45-.12.72-.1.3-.26.61-.45.84l-5.93 7.18c-.18.21-.31.48-.37.74-.01.07-.03.14-.04.21-.03.2-.02.38.05.52l2.82 6.23c.02.04.04.08.08.12.02.03.06.06.1.08l.02.02c.23.13 2.04 1.17 4.21 2.44.36.2.73.42 1.11.64 1.4.81 2.87 1.65 4.1 2.37.16.09.32.19.48.28 1.35.78 2.35 1.36 2.55 1.47a.43.43 0 01-.16-.19l-2.81-6.22c-.09-.19-.09-.47-.01-.75.07-.25.19-.51.37-.72l5.92-7.18c.2-.24.36-.55.47-.86.09-.26.13-.51.11-.71-.15-1.62-.15-3.34.01-5.11.04-.45-.35-.84-.89-.87l-5.32-.3a.938.938 0 01-.42-.12c-.01 0-.02-.01-.03-.02a.632.632 0 01-.27-.74l2.57-8.65.36-1.21c.04-.14.13-.28.24-.41.25-.31.66-.58 1.07-.68l5.82-1.4c.41-.1.85-.37 1.16-.69.13-.13.24-.27.31-.41.93-1.85 1.97-3.67 3.13-5.42.25-.39.41-.94.37-1.34v-.01c0-.08-.01-.14-.03-.2l-1.89-6.4c-.05-.19-.03-.44.06-.7.09-.28.26-.57.47-.79l.09-.09 6.7-7.09c.31-.32.68-.44.94-.33l.05.03c.06.03.12.08.16.15l3.16 4.83c.23.35.81.32 1.33-.03 1.28-.88 2.56-1.62 3.83-2.22.55-.26 1.15-.81 1.33-1.26.01-.01.02-.03.02-.04l3.36-9c.06-.17.18-.33.33-.47.27-.25.65-.44 1.02-.47l6.19-.62c.21-.02.4.01.54.08.02.01.03.01.04.02.22.13.33.36.27.63l-1.95 8.85c-.1.46.2.94.64 1.11.98.38 1.88.9 2.7 1.57.33.27.94.18 1.39-.23l6.32-5.78c.32-.3.64-.39.87-.3zm-3.69 19.31c0 .81-.05 1.64-.12 2.48-.04.45.36.83.89.87l5.31.3c.15 0 .28.04.39.09-.37-.21-3.46-2-6.47-3.74zm-17.94 35.34c-.22-.35-.8-.32-1.32.03-.62.42-1.25.82-1.86 1.18l6.51 3.78v-.01a.521.521 0 01-.16-.14l-3.17-4.84zm-16.94 3.41c-.98-.38-1.88-.9-2.71-1.58-.33-.27-.93-.17-1.38.24l-6.32 5.78c-.24.21-.49.32-.69.32 3.53 2.05 9.65 5.59 10.04 5.81a.545.545 0 01-.26-.6l1.95-8.87c.11-.44-.19-.92-.63-1.1z" fill="#27debf"/><path d="M103 204.21c-2.65 2.8-5.48 4.55-8.05 5.22-.11.03-.22.06-.34.08-.08.03-.16.04-.24.06-.19.03-.37.06-.55.09-.22.03-.43.05-.64.06-.14.01-.27.01-.4.01-.06.01-.12.01-.19 0-2.54-.02-4.65-1.31-5.83-3.91-.44-.98-.72-2.07-.85-3.25.48-.22.97-.48 1.47-.76 6.87-3.97 12.43-13.6 12.43-21.53 0-.6-.02-1.16-.07-1.69 1.54-.68 3.03-1 4.39-.93h.05c.07 0 .14.01.22.01l.22.03c.08 0 .16.01.24.03 2.11.31 3.84 1.58 4.87 3.84 2.62 5.81-.39 15.95-6.73 22.64z" fill="#27debf"/><path d="M103 204.21c-2.65 2.8-5.48 4.55-8.05 5.22-.11.03-.22.06-.34.08-.08.03-.16.04-.24.06-.19.03-.37.06-.55.09-.22.03-.43.05-.64.06-.14.01-.27.01-.4.01-.06.01-.12.01-.19 0-2.54-.02-4.65-1.31-5.83-3.91-.44-.98-.72-2.07-.85-3.25.48-.22.97-.48 1.47-.76 6.87-3.97 12.43-13.6 12.43-21.53 0-.6-.02-1.16-.07-1.69 1.54-.68 3.03-1 4.39-.93h.05c.07 0 .14.01.22.01l.22.03c.08 0 .16.01.24.03 2.11.31 3.84 1.58 4.87 3.84 2.62 5.81-.39 15.95-6.73 22.64z" opacity=".4"/><path d="M125.97 185.36c-.01-.01-.02-.01-.03-.02a.895.895 0 00-.39-.1l-5.31-.3c-.54-.03-.94-.42-.89-.86.07-.84.12-1.67.12-2.48.01-.9-.03-1.78-.12-2.64-.04-.42.21-1.12.58-1.57l5.92-7.17c.37-.45.53-1.11.36-1.48l-2.82-6.22a.48.48 0 00-.17-.2c-.01-.01-.02-.01-.04-.02-.23-.12-.58-.02-.91.28l-6.33 5.78c-.45.41-1.05.5-1.38.23a9.936 9.936 0 00-2.71-1.57c-.43-.17-.73-.65-.64-1.11l1.95-8.86a.54.54 0 00-.27-.62c-.15-.09-.36-.12-.59-.1l-6.19.62c-.58.06-1.18.48-1.35.94l-3.35 9c-.17.47-.78 1.03-1.35 1.3-1.27.6-2.55 1.34-3.83 2.22-.52.35-1.1.37-1.33.03l-3.16-4.84c-.23-.34-.73-.27-1.14.15l-6.79 7.18c-.41.43-.64 1.1-.53 1.49l1.89 6.41c.12.39-.04 1.08-.34 1.54a53.52 53.52 0 00-3.13 5.42c-.23.47-.89.96-1.47 1.1l-5.81 1.4c-.59.14-1.18.63-1.32 1.09l-2.93 9.85c-.14.46.19.86.72.89l5.31.3c.54.03.93.42.89.86-.16 1.77-.17 3.49-.01 5.12.04.43-.21 1.13-.58 1.57l-5.92 7.18c-.37.44-.53 1.1-.36 1.47l2.82 6.22c.04.09.1.15.17.2 0 .01 0 .01.01.01.01.01.01.01.02.01.07.04.14.06.22.06h.01c.21 0 .45-.11.69-.32l6.32-5.78c.45-.4 1.05-.5 1.38-.23.83.67 1.73 1.19 2.71 1.57.44.17.74.65.64 1.11l-1.95 8.86c-.06.26.05.48.26.61.01.01.01.01.02.01.15.09.35.13.58.1l6.19-.61c.58-.06 1.18-.48 1.35-.94l3.36-9c.17-.47.78-1.03 1.35-1.31.65-.31 1.31-.65 1.96-1.03.62-.36 1.24-.76 1.87-1.18.51-.35 1.1-.38 1.32-.04l3.17 4.84a.4.4 0 00.15.14c.26.16.65.05.99-.3l6.8-7.18c.4-.42.64-1.1.52-1.49l-1.89-6.4c-.12-.4.05-1.09.35-1.54 1.16-1.76 2.2-3.58 3.12-5.43.23-.47.89-.95 1.48-1.1l5.81-1.4c.59-.14 1.18-.63 1.32-1.1l2.93-9.85c.11-.32-.02-.61-.3-.77zm-31.02 24.06c-.12.03-.23.06-.34.09-.09.02-.17.04-.24.06-.18.04-.37.07-.55.09-.22.03-.43.05-.64.06-.13.01-.27.01-.4.01h-.19c-2.54-.03-4.65-1.32-5.83-3.92-.44-.97-.72-2.07-.85-3.24-.07-.58-.1-1.18-.1-1.8.04-5.61 2.92-12.56 7.67-17.59 1.54-1.62 3.12-2.89 4.69-3.8.52-.31 1.05-.58 1.56-.8 1.54-.68 3.03-.99 4.39-.93.02 0 .03 0 .05.01.07 0 .15.01.22.01.08.01.15.01.23.02.08.01.16.01.24.03 2.11.31 3.84 1.58 4.87 3.84 2.63 5.81-.39 15.94-6.73 22.63-2.66 2.81-5.48 4.57-8.05 5.23z" fill="#27debf"/><path fill="none" d="M110.73 155.08l12.51 7.24"/><path d="M81.42 188.22c-.31.32-.75.59-1.16.69l-5.82 1.4c-.41.1-.82.37-1.07.68l-12.53-7.21c.26-.33.68-.61 1.11-.71l5.81-1.4c.41-.1.83-.35 1.14-.67h.01l12.51 7.22z" opacity=".2"/><path d="M85.23 181.04l-12.5-7.21c.01-.08 0-.16-.02-.23l-1.9-6.4c-.05-.18-.03-.41.05-.64l9.55 5.48 2.96 1.7c-.09.26-.11.51-.06.7l1.89 6.4c.02.06.03.12.03.2zm19.91-23.61c-.15.14-.27.3-.33.47l-3.36 9c0 .01-.01.03-.02.04l-12.51-7.22c.02-.02.02-.04.03-.06l3.36-9c.06-.16.17-.32.32-.45l12.51 7.22zm18.03 4.86c-.23-.09-.55.01-.87.3l-6.32 5.78c-.45.41-1.06.5-1.39.23a9.882 9.882 0 00-2.7-1.57c-.44-.17-.74-.65-.64-1.11l1.95-8.85a.56.56 0 00-.27-.63c-.01-.01-.02-.01-.04-.02-.18-.11-1.11-.64-2.38-1.38.08 0 .16.01.23.04 0 0 .06.03.14.09l12.29 7.12zm2.78 23.05a.934.934 0 00-.39-.09l-5.31-.3c-.53-.04-.93-.42-.89-.87.07-.84.12-1.67.12-2.48 3.01 1.74 6.1 3.53 6.47 3.74z" opacity=".3"/><path d="M104.87 221.91v.01l-6.51-3.78c.61-.36 1.24-.76 1.86-1.18.52-.35 1.1-.38 1.32-.03l3.17 4.84c.05.07.1.12.16.14zm-19.64-.45l-1.95 8.87c-.05.26.05.47.26.6-.39-.22-6.51-3.76-10.04-5.81.2 0 .45-.11.69-.32l6.32-5.78c.45-.41 1.05-.51 1.38-.24.83.68 1.73 1.2 2.71 1.58.44.17.74.65.63 1.1z" opacity=".4"/><path d="M77.01 209.13c-.11.31-.27.62-.47.86l-5.92 7.18c-.18.21-.3.47-.37.72l-12.5-7.22c.06-.26.19-.53.37-.74l5.93-7.18c.19-.23.35-.54.45-.84l12.51 7.22z" opacity=".2"/><path d="M101.43 166.94c-.18.45-.78 1-1.33 1.26-1.27.6-2.55 1.34-3.83 2.22-.52.35-1.1.38-1.33.03l-3.16-4.83a.381.381 0 00-.16-.15l-.05-.03-5.94-3.44c.66-.38 1.32-.73 1.97-1.03a3.498 3.498 0 001.1-.9c.06-.06.1-.12.13-.18s.06-.11.09-.17l12.51 7.22z" opacity=".1"/><path d="M77.12 208.41c.02.2-.02.45-.11.71L64.5 201.9c.09-.27.14-.52.12-.72-.08-.86-.12-1.74-.11-2.64l5.96 3.45a.938.938 0 00.45.14l5.32.3c.54.03.93.42.89.87-.16 1.78-.16 3.49-.01 5.11z" opacity=".4"/><path d="M85.23 181.04c.04.41-.12.96-.37 1.35-1.16 1.75-2.2 3.57-3.13 5.42-.07.14-.18.28-.31.41L68.91 181c.07-.06.14-.14.18-.21.07-.07.11-.14.15-.21.91-1.85 1.96-3.68 3.12-5.43.06-.09.11-.18.15-.28.04-.06.06-.13.08-.2.02-.03.03-.07.04-.11.01-.01.01-.03.01-.06.03-.09.05-.18.06-.26.04-.15.05-.29.03-.41l12.5 7.21z" opacity=".1"/><path d="M69.09 180.79c-.04.07-.11.15-.18.21h-.01c.07-.07.14-.15.19-.21z" opacity=".3"/><path d="M73.23 225.04c-.2-.11-1.2-.69-2.55-1.47-.16-.09-.32-.19-.48-.28-1.23-.72-2.7-1.56-4.1-2.37-.38-.22-.75-.44-1.11-.64-2.17-1.27-3.98-2.31-4.21-2.44l-.02-.02a.272.272 0 01-.1-.08c-.04-.04-.06-.08-.08-.12l-2.82-6.23c-.07-.14-.08-.32-.05-.52.01-.07.03-.14.04-.21l12.5 7.22c-.08.28-.08.56.01.75l2.81 6.22c.04.1.09.15.16.19z" opacity=".4"/><path d="M60.84 183.78c-.1.13-.17.26-.21.39l-.36 1.22-1.91 6.43-.65 2.2c-.04.12-.04.25-.01.36.02.07.04.13.08.19s.09.12.15.16c.01.01.04.03.1.07l.98.57.27.15v.01l.78.45.42.25.48.27.18.11.51.29 2.83 1.63c.02.01.03.02.03.02l5.96 3.45a.632.632 0 01-.27-.74l2.57-8.65.36-1.21c.04-.14.13-.28.24-.41l-12.53-7.21z" opacity=".3"/><path d="M85.63 162l-6.49-3.76a.512.512 0 00-.28-.08c-.23 0-.49.13-.72.38h-.01l-4.06 4.29-2.73 2.88c-.23.24-.39.55-.48.85l9.55 5.48 2.96 1.7c.09-.28.26-.57.47-.79l.09-.09 6.7-7.09c.31-.32.68-.44.94-.33L85.63 162zm27.26-5.59c-.14-.07-.33-.1-.54-.08l-6.19.62c-.37.03-.75.22-1.02.47l-12.51-7.22c.27-.26.66-.45 1.03-.49l6.19-.61c.25-.03.46.02.61.11.04.03.69.4 1.67.97.25.15.53.31.82.48 1.52.88 3.5 2.02 5.3 3.07.45.26.89.52 1.31.76.33.18.65.37.95.54 1.27.75 2.2 1.28 2.38 1.38z" opacity=".5" fill="#fff"/><path fill="none" d="M110.88 155.17l-.15-.08"/><path d="M263.79 76.39c-.27-2.01-1.89-2.74-3.83-1.61l-106.48 61.47c-2.13 1.24-3.87 4.24-3.87 6.71v234.96c0 2.27 1.47 3.31 3.38 2.48-2.14.98-5.27.9-7.26-.24l-4.44-2.55c-2.14-1.23-3.88-4.23-3.88-6.71V135.93c0-2.48 1.74-5.48 3.88-6.71l106.47-61.48c2.13-1.24 5.6-1.24 7.75 0l4.45 2.55c1.96 1.14 3.59 3.76 3.83 6.1z" fill="#37474f"/><path d="M259.97 74.77l-106.48 61.47c-2.13 1.24-3.87 4.24-3.87 6.71v234.96c0 2.47 1.74 3.47 3.87 2.23l106.48-61.47c2.13-1.24 3.87-4.24 3.87-6.71V77.01c-.01-2.47-1.74-3.47-3.87-2.24zm-1.71 215.07c0 2.11-1.48 3.46-3.32 4.51l-96.81 55.89c-1.83 1.06-3.32.2-3.32-1.92V165.4c0-2.12 1.49-4.69 3.32-5.76l96.81-55.88c1.84-1.07 3.32-.2 3.32 1.91v184.17z" fill="#455a64"/><path d="M153 380.39c-2.14.98-5.27.9-7.26-.24l-4.44-2.55c-2.14-1.24-3.88-4.23-3.88-6.71V135.93c0-1.24.44-2.61 1.14-3.83l12.19 7.03c-.7 1.22-1.14 2.59-1.14 3.82v234.96c.01 2.28 1.48 3.31 3.39 2.48zm53.73-268.67c1.43-.83 2.6-.16 2.6 1.5s-1.16 3.67-2.6 4.5c-1.43.83-2.6.16-2.6-1.5s1.16-3.68 2.6-4.5zm-7.5 12.96c5.27-2.92 14.68-8.52 19.88-11.57.88-.52 1.6-.16 1.6.8s-.72 2.15-1.61 2.67l-19.92 11.5c-.89.51-1.61.15-1.61-.81.01-.96.76-2.09 1.66-2.59zm-5.03 2.91c.81-.46 1.46-.09 1.46.84 0 .93-.65 2.06-1.46 2.52-.81.46-1.46.09-1.46-.84 0-.92.65-2.05 1.46-2.52z" fill="#263238"/><path d="M207.65 328.31c3.38-1.95 6.11-.37 6.11 3.53s-2.74 8.64-6.11 10.59c-3.38 1.95-6.11.37-6.11-3.53-.01-3.9 2.73-8.64 6.11-10.59z" fill="none" stroke="#e6e6e6" stroke-miterlimit="10"/><path d="M258.26 105.67v184.18c0 2.11-1.48 4.69-3.32 5.74l-96.81 55.9c-1.83 1.05-3.32.2-3.32-1.92v-11.49l87.91-50.75c1.84-1.06 3.32-2.4 3.32-4.51V108.9l8.9-5.14c1.84-1.06 3.32-.2 3.32 1.91z" fill="#37474f"/><path d="M254.94 103.76l-8.9 5.14v173.92c0 1.69-.95 2.88-2.27 3.83l12.86 7.42c.97-1.23 1.63-2.82 1.63-4.22V105.67c0-2.11-1.48-2.97-3.32-1.91z" fill="#263238"/><path d="M163.66 292.41l-5.54-3.2a.53.53 0 01-.26-.23l-1.02-1.78 3.29-1.9-.1.29 3.63 6.82z" fill="#e0e0e0"/><path d="M159.63 285.57l3.83 6.64c.24.42.88.36 1.04-.1l4.05-11.7-8.92 5.16z" fill="#ebebeb"/><path d="M177.72 250.14c0-1.71-1.2-3.79-2.68-4.64l-2.18-1.26c-1.48-.85-3.88-.85-5.36 0l-43.39 25.03c-1.48.85-2.68 2.93-2.68 4.64v21.97c0 1.71 1.2 3.79 2.68 4.64l2.18 1.26c1.48.85 3.88.85 5.36 0l43.64-25.21c2.41-1.37 2.43-2.75 2.43-4.46v-21.97z" fill="#ebebeb"/><path d="M121.44 295.88c0 1.71 1.2 3.79 2.68 4.64l2.18 1.26c1.34.77 3.42.85 4.9.22-1.26.48-2.22-.24-2.22-1.77v-21.97c0-.85.3-1.8.78-2.64l-7.54-4.35c-.48.84-.78 1.79-.78 2.64v21.97z" fill="#e0e0e0"/><path d="M177.63 249.38c-.31-1.14-1.35-1.5-2.59-.79l-43.39 25.03c-.74.43-1.41 1.15-1.89 2l-7.54-4.35c.49-.85 1.15-1.58 1.89-2l43.38-25.03c1.49-.85 3.89-.85 5.36 0l2.19 1.26c1.27.73 2.33 2.35 2.59 3.88z" fill="#fafafa"/><path d="M136.18 279.85l30.99-17.98c.9-.52 1.62-.28 1.62.53s-.73 1.89-1.62 2.4l-30.99 17.98c-.9.52-1.62.28-1.62-.53-.01-.81.72-1.88 1.62-2.4zm0 7.36l30.99-17.97c.9-.52 1.62-.28 1.62.53s-.73 1.89-1.62 2.4l-30.99 17.97c-.9.52-1.62.28-1.62-.53-.01-.81.72-1.88 1.62-2.4z" fill="#455a64"/><path d="M92.74 300.52l-5.54-3.2a.53.53 0 01-.26-.23l-1.02-1.78 3.29-1.9-.1.29 3.63 6.82z" fill="#27debf"/><path d="M92.74 300.52l-5.54-3.2a.53.53 0 01-.26-.23l-1.02-1.78 3.29-1.9-.1.29 3.63 6.82z" opacity=".2"/><path d="M88.71 293.68l3.83 6.64c.24.42.88.36 1.04-.1l4.05-11.7-8.92 5.16z" fill="#27debf"/><path d="M134.19 239.05c0-1.71-1.2-3.79-2.68-4.64l-2.18-1.26c-1.48-.85-3.88-.85-5.36 0L72.46 262.9c-1.48.85-2.68 2.93-2.68 4.64v25.28c0 1.71 1.2 3.79 2.68 4.64l2.18 1.26c1.48.85 3.88.85 5.36 0l51.76-29.93c2.41-1.37 2.43-2.75 2.43-4.46v-25.28z" fill="#27debf"/><path d="M69.78 292.82c0 1.71 1.2 3.79 2.68 4.64l2.18 1.26c1.34.77 3.42.85 4.9.22-1.26.48-2.22-.24-2.22-1.77v-25.28c0-.85.3-1.8.78-2.64l-7.54-4.35c-.48.84-.78 1.79-.78 2.64v25.28z" opacity=".2"/><path d="M134.1 238.29c-.31-1.14-1.35-1.5-2.59-.79L80 267.26c-.74.42-1.41 1.15-1.89 2l-7.54-4.35c.49-.85 1.15-1.58 1.89-2l51.5-29.75c1.49-.85 3.89-.85 5.36 0l2.19 1.26c1.27.72 2.33 2.34 2.59 3.87z" opacity=".4" fill="#fff"/><path d="M84.52 278.99l27.85-16.13c.9-.52 1.62-.28 1.62.53s-.73 1.89-1.62 2.4l-27.85 16.13c-.9.52-1.62.28-1.62-.53s.73-1.88 1.62-2.4zm0 7.36l39.11-22.7c.9-.52 1.62-.28 1.62.53s-.73 1.89-1.62 2.4l-39.11 22.7c-.9.52-1.62.28-1.62-.53s.73-1.88 1.62-2.4zm0-15.08l39.11-22.7c.9-.52 1.62-.28 1.62.53s-.73 1.89-1.62 2.4l-39.11 22.7c-.9.52-1.62.28-1.62-.53s.73-1.89 1.62-2.4z" fill="#fff"/><path d="M439.67 108.88l-4.06-2.34c-.47-.28-1.12-.24-1.84.18l-88.23 50.94c-1.43.83-2.6 2.84-2.6 4.5v45.59c0 .84.3 1.43.79 1.69l4.05 2.34v-3.82l86-49.65c1.43-.83 2.6-2.84 2.6-4.5v-43.25l3.29-1.68z" fill="#e0e0e0"/><path d="M351.06 163.85l85.3-49.25v-4.03l3.3-1.68-4.06-2.34c-.47-.28-1.12-.24-1.84.18l-88.23 50.94c-.72.41-1.37 1.13-1.84 1.94l7.37 4.24z" fill="#fafafa"/><path d="M349.6 160l88.23-50.94c1.43-.83 2.6-.16 2.6 1.5v45.59c0 1.66-1.16 3.67-2.6 4.5L349.6 211.6c-1.43.83-2.6.16-2.6-1.5v-45.59c0-1.66 1.17-3.68 2.6-4.51z" fill="#f5f5f5"/><path d="M354.1 164.44l26.43-15.26c1.67-.97 3.03-.18 3.03 1.75v30.52c0 1.93-1.36 4.28-3.03 5.25l-26.43 15.26c-1.67.97-3.03.18-3.03-1.75v-30.52c-.01-1.93 1.35-4.28 3.03-5.25z" fill="#27debf"/><path d="M367.09 163.32c2.8-1.62 5.08-.31 5.08 2.93s-2.27 7.17-5.08 8.79c-2.8 1.62-5.08.31-5.08-2.93s2.27-7.17 5.08-8.79zm10 17.32c0-5.32-3.73-7.68-8.34-5.02l-2.88 1.66c-4.61 2.66-8.34 9.13-8.34 14.45v1.43l19.56-11.29v-1.23z" fill="#fafafa"/><path d="M393.85 143.84l36.29-20.95c1.2-.69 2.17-.2 2.17 1.1s-.97 2.91-2.16 3.6l-36.29 20.95c-1.2.69-2.17.2-2.17-1.1s.96-2.91 2.16-3.6zm0 9.38l36.29-20.95c1.2-.69 2.17-.2 2.17 1.1s-.97 2.91-2.16 3.6l-36.29 20.95c-1.2.69-2.17.2-2.17-1.1s.96-2.91 2.16-3.6zm0 9.38l36.29-20.95c1.2-.69 2.17-.2 2.17 1.1s-.97 2.91-2.16 3.6l-36.29 20.95c-1.2.69-2.17.2-2.17-1.1s.96-2.91 2.16-3.6zm0 9.38l36.29-20.95c1.2-.69 2.17-.2 2.17 1.1s-.97 2.91-2.16 3.6l-36.29 20.95c-1.2.69-2.17.2-2.17-1.1s.96-2.91 2.16-3.6z" fill="#e0e0e0"/><g fill="#27debf"><path d="M291.79 283.4c0 2.11-1.48 3.46-3.32 4.51l-96.81 55.89c-1.83 1.06-3.32.2-3.32-1.92V158.96c0-2.12 1.49-4.69 3.32-5.76l96.81-55.88c1.84-1.07 3.32-.2 3.32 1.91V283.4z" opacity=".2"/><path d="M190.18 344.76c-.4 0-.78-.1-1.12-.29-.79-.46-1.22-1.37-1.22-2.58V158.96c0-2.3 1.57-5.02 3.57-6.19l96.82-55.88c1.05-.61 2.06-.69 2.85-.24.79.45 1.22 1.37 1.22 2.58V283.4c0 2.6-2.04 4.07-3.57 4.95l-96.81 55.89c-.61.35-1.2.52-1.74.52zm99.78-247.4c-.37 0-.79.13-1.23.39l-96.82 55.88c-1.69.99-3.07 3.38-3.07 5.32v182.93c0 .84.26 1.45.72 1.72.47.27 1.12.19 1.85-.23l96.81-55.89c2.12-1.22 3.07-2.48 3.07-4.08V99.22c0-.84-.26-1.44-.72-1.71-.18-.1-.38-.15-.61-.15z"/></g><path d="M344.46 273.8c.7-26.05-1.39-32.29-8.32-37.06l-2.69 15.09s3.16 17.79 2.82 23.71c-.3 5.2-.8 11.71-2.03 15.92-.22.75-.72 1.37-1.38 1.78-1.77 1.1-2.48 2.24-3.81 3.63-1.04 1.09-1.93 1.36-1.79 1.71.18.45.92 1.17 2.2.78.64-.2 1.47-.7 2.51-1.36 0 0-.74 2.17-2.57 4.41-2.48 3.04-2.58 4.9 2.41 4.94 3.13.03 5.63-1.9 7.99-8.81.68-1.99 1.74-5.13 2.2-7.75 1.2-6.82 2.35-12.8 2.46-16.99z" fill="#ffa8a7"/><path d="M330.31 234.76c3.31-.48 7.81.21 10.72 5.41 2.91 5.2 3.62 14.14 3.95 23.03 0 0-5.77 4.83-12.7 2.45l-1.97-30.89z" fill="#37474f"/><path d="M340.05 378.02c.53.2.66 1.2.74 3.19.06 1.51.38 4.14-1.38 4.66-1.76.52-4.35.26-5.48-1.16-1.41-1.77-2.36-3.33-4.38-5.49-1.75-1.88-3.64-3.63-4.34-6.26-.64-2.38-.11-3.41 1.52-4.1 2.23-.95 5.73 2.15 7.48 2.64 1.49.42 5.31 6.32 5.84 6.52z" fill="#263238"/><path d="M340.05 376.17v2.44s-2.54 1.95-6.18.17c-.11-.24-.64-3.5-.64-3.5l6.82.89z" fill="#ffa8a7"/><path d="M320.25 392.1s.7 2.13 1.08 3.98c.3 1.48.73 3.95.21 5.06-.52 1.11-2.54 1.83-5.66 1.8-2.03-.02-5.18 1.36-7.35 2.57-2.23 1.25-6.88 1.74-9.24 1.47-2.78-.33-5.67-1.94-6.12-3.09-.45-1.15.15-2.35 6.71-5.15.06-.03 9.12-2.97 12.29-6.48l8.08-.16z" fill="#263238"/><path d="M320.25 389.46s-.01 1.81 0 2.85-1.22 2.58-4.38 2.47c-2.23-.08-3.78-.68-3.69-2.51v-2.64l8.07-.17z" fill="#ffa8a7"/><path d="M341.64 343.74c-1.12-7.99-2.89-12.73-2.89-12.73s.87-10.98 1.29-21.39c.45-11.25-.02-25.38.19-28.19 0 0-36.29-7.34-36.94 5.66-.65 13 1.43 46.09 1.86 51.81.43 5.71 1.42 10.76 2.6 20.02 1.16 9.14 4.43 30.71 4.43 30.71 4.15 2.24 8.07-.17 8.07-.17s2.55-26 2.29-32.59c-.33-8.05-2.5-14.38-2.5-14.38s.69-10.72 1.3-20.04c.61-9.32 1.25-13.8 1.39-17.86l.78-.39s.8 16.09 1.22 21.8c.43 5.71 1.34 11.19 2.99 21.8 1.43 9.2 5.7 28.67 5.7 28.67 4.15 2.24 6.62-.29 6.62-.29s2.71-24.45 1.6-32.44z" fill="#37474f"/><path d="M322.73 304.59s8.8-4.34 13.21-8.25c0 0-4.09 5.76-9.46 8.32 0 0-1.91 19.98-1.9 19.59l-1.1-19.69-.75.03z" fill="#263238"/><path fill="#ffa8a7" d="M314.89 230.65l2.15 11.82 10.68-.78-2.24-13.4z"/><path d="M338.99 240.82c-1.06-3.21-5.13-6.71-9.21-5.95-7.5 1.39-13.44 2.88-17.87 4.46-3.73 1.33-7.14 4.56-7.45 16.85 0 0-1.25 28.64-1.27 34.18 9.38 3.71 19.13 3.6 24.53 2.42 11.22-2.45 12.58-7.11 12.58-7.11s.14-20.6-.19-29.49c-.29-7.56-.39-13.15-1.12-15.36z" fill="#27debf"/><path d="M306.66 216.27s-2.71 4.32-2.38 4.73c.33.41 2.4.74 2.4.74l-.02-5.47z" fill="#f28f8f"/><path d="M314.17 204.33c-5.65 1.32-7.23 3.85-7.56 12.88-.35 9.43.68 12.37 1.95 13.61.85.84 5.5.89 7.82.19 2.91-.87 9.48-3.37 12.47-8.18 3.52-5.65 4.31-13.23.34-16.24-5.59-4.24-12.72-2.8-15.02-2.26z" fill="#ffa8a7"/><g fill="#263238"><path d="M306.68 206.68c1.66 2.84 5.25 4.19 5.25 4.19 1.08 1.23.49 6.04 2.39 6.81 0 0 .82-3.5 3.76-3.13 2.96.37 3.45 4.13 1.64 6.46-1.81 2.33-3.56 1.49-3.56 1.49s.2 4.97 2.47 7.74c0 0 2.53.76 7.12-.33 2.82-.67 6.75-4.3 8.35-8.09 3.39-8.02 3.48-15.17-1.64-17.2-.63-3.65-3.55-5.22-6.85-5.9-7.1-1.46-11.69 2.97-17.15 2.58-3.14-.23-3.72 2.05-1.78 5.38z"/><path d="M332.57 205.83l3.35-2.08a1.976 1.976 0 00-2.71-.64 1.98 1.98 0 00-.64 2.72z"/></g><path d="M266.77 260.61c1.76.78 22.44 16.07 25.67 14.29 3.22-1.78 19.77-21.11 19.77-21.11 4.8-7.96 0-14.5 0-14.5s-5.31.98-8.08 5.18c-2.77 4.2-14.77 19.24-14.77 19.24-2.96-1.48-5.91-2.99-8.85-4.51-2.42-1.25-4.85-2.51-7.23-3.86-.59-.34-1.37-.66-1.86-1.15-1.17-1.16-.97-3.96-.95-5.48.01-.71.02-1.42.1-2.13.1-.87.27-3-1.3-2.32-.3.13-.55.37-.75.63-.25.32-.44.68-.56 1.07-.3.92-.2 1.93-.47 2.85-.04.14-.09.27-.19.37-.13.12-.32.16-.49.15-2.28-.07-4.44-3.26-5.48-4.96-.47-.76-.92-1.6-1.73-1.97-1.25-.58-2.75.25-3.55 1.37-1.02 1.43-1.33 3.28-1.13 5.02.28 2.42 1.21 4.65 2.97 6.3 2.67 2.48 5.58 4.05 8.88 5.52z" fill="#ffa8a7"/><path d="M313.89 238.66c-2.28.26-6.07.43-9.79 4.64-4.34 4.92-10.06 12.94-10.06 12.94s1.55 7.78 10 9.42c0 0 7.83-8.02 10-12.43 2.19-4.42 2.54-11.59-.15-14.57z" fill="#37474f"/><path d="M353.8 136.79v-31.53l18.62 12.31c-5.39 8.48-11.51 14.79-18.62 19.22z" fill="#455a64"/><path fill="#37474f" d="M353.8 105.26l-7.45-4.3v31.53l7.45 4.3z"/><path fill="#27debf" d="M383.23 81.38l-27.91 20.08-7.45-4.31 27.91-20.07z"/><path opacity=".5" d="M383.23 81.38l-27.91 20.08-7.45-4.31 27.91-20.07z"/><path d="M383.23 81.38c.76 10.18-2.24 21.43-8.73 32.75l-11.64-7.69-7.54-4.98 27.91-20.08z" fill="#27debf"/><path d="M383.23 81.38c.76 10.18-2.24 21.43-8.73 32.75l-11.64-7.69-7.54-4.98 27.91-20.08z" opacity=".3"/><path fill="#27debf" d="M374.5 114.13l-7.45-4.3-19.18-12.68 7.45 4.31z"/><path opacity=".7" d="M374.5 114.13l-7.45-4.3-19.18-12.68 7.45 4.31z"/><path d="M344.15 87.68l-5.32-21.57c.75-.61 1.47-1.15 2.33-1.77 9.82-7.07 19.16-8.34 25.67-4.58 1.55.9 7.37 4.25 7.37 4.25 2.2 2.67.52 5.56 1.24 10.02L346.3 94.99l-.3.2-1.85-7.51z" fill="#27debf"/><path d="M344.15 87.68l-5.32-21.57c.75-.61 1.47-1.15 2.33-1.77 9.82-7.07 19.16-8.34 25.67-4.58 1.55.9 7.37 4.25 7.37 4.25 2.2 2.67.52 5.56 1.24 10.02L346.3 94.99l-.3.2-1.85-7.51z" opacity=".7" fill="#fff"/><path d="M351.6 91.98l-5.32-21.57c.75-.61 1.47-1.15 2.33-1.77 16.45-11.84 31.54-7.42 34.28 9.69l-29.14 20.96-.29.21-1.86-7.52z" fill="#27debf"/><path d="M351.6 91.98l-5.32-21.57c.75-.61 1.47-1.15 2.33-1.77 16.45-11.84 31.54-7.42 34.28 9.69l-29.14 20.96-.29.21-1.86-7.52z" opacity=".5" fill="#fff"/><path fill="#27debf" d="M338.83 66.11l7.45 4.3 7.17 29.08-7.45-4.3z"/><path opacity=".1" d="M338.83 66.11l7.45 4.3 7.17 29.08-7.45-4.3z"/><path d="M343.51 134.13c-4.81 2.54-8.95 6.05-12.94 5.9l-7.45-4.3c-3.9-2.22-6.78-6.32-8.21-12.14-2-8.11-.76-18.43 3.5-29.07 4.01-10.03 10.25-19.2 17.67-26.03l7.45 4.3-2.76 14.7 2.75 11.15-.01 35.49z" fill="#27debf"/><path d="M343.51 134.13c-4.81 2.54-8.95 6.05-12.94 5.9l-7.45-4.3c-3.9-2.22-6.78-6.32-8.21-12.14-2-8.11-.76-18.43 3.5-29.07 4.01-10.03 10.25-19.2 17.67-26.03l7.45 4.3-2.76 14.7 2.75 11.15-.01 35.49z" opacity=".2"/><path d="M350.95 138.43c-13.82 7.29-25.22 3.18-28.6-10.54-2-8.11-.76-18.43 3.5-29.07 4.01-10.03 10.25-19.2 17.67-26.03l4.69 19 2.75 11.15v35.49zm16.72 83.28c0-.82.58-1.83 1.29-2.24l66.13-38.18c.71-.41 1.87-.41 2.59 0l1.46.84c.71.41 1.29 1.41 1.29 2.24v50.69c0 .82-.58 1.83-1.29 2.24l-66.13 38.18c-.71.41-1.87.41-2.59 0l-1.46-.84c-.71-.41-1.29-1.42-1.29-2.24v-50.69z" fill="#27debf"/><path d="M367.67 221.71c0-.82.58-1.83 1.29-2.24l66.13-38.18c.71-.41 1.87-.41 2.59 0l1.46.84c.71.41 1.29 1.41 1.29 2.24v50.69c0 .82-.58 1.83-1.29 2.24l-66.13 38.18c-.71.41-1.87.41-2.59 0l-1.46-.84c-.71-.41-1.29-1.42-1.29-2.24v-50.69z" opacity=".4" fill="#fff"/><path d="M373.73 223.72l-5.68-3.28c-.23.4-.38.86-.38 1.27v50.69c0 .82.58 1.83 1.29 2.24l1.46.84c.71.41 1.87.41 2.59 0l.73-.42v-51.34z" fill="#27debf"/><path d="M373.73 223.72l-5.68-3.28c-.23.4-.38.86-.38 1.27v50.69c0 .82.58 1.83 1.29 2.24l1.46.84c.71.41 1.87.41 2.59 0l.73-.42v-51.34z" opacity=".3"/><path d="M440.43 184.37v50.69c0 .42-.15.9-.4 1.31-.2.34-.46.64-.76.85l-.05.03c-.03.02-.05.04-.08.05l-66.13 38.17-.01.01c-.34.19-.65.22-.88.1-.25-.13-.4-.42-.4-.85v-50.69c0-.82.65-1.34 1.45-1.14l27.81 6.61 3.64.87c.81.19 1.85-.2 2.32-.87l4.22-5.88 28.4-39.54c.48-.67.87-.54.87.28z" fill="#27debf"/><path d="M439.14 237.3c.03-.01.05-.03.08-.05l.05-.03c.29-.2.55-.51.76-.85.24-.41.4-.87.4-1.29l-29.27-11.45 19.6 18.51 8.38-4.84z" fill="#27debf"/><path d="M439.14 237.3c.03-.01.05-.03.08-.05l.05-.03c.29-.2.55-.51.76-.85.24-.41.4-.87.4-1.29l-29.27-11.45 19.6 18.51 8.38-4.84z" opacity=".2"/><path d="M371.72 274.73c0 .43.15.72.4.85.23.12.54.09.88-.1l.01-.01 22.77-13.14 5.2-32.82-29.26 44.38v.84z" fill="#27debf"/><path d="M371.72 274.73c0 .43.15.72.4.85.23.12.54.09.88-.1l.01-.01 22.77-13.14 5.2-32.82-29.26 44.38v.84z" opacity=".2"/><path d="M440.03 236.37c-.2.34-.46.64-.76.85l-.05.03-66.21 38.23-.01.01c-.34.19-.65.22-.88.1l31.66-50.55a4.97 4.97 0 016.23-1.91l30.02 13.24z" fill="#27debf"/><path d="M371.72 222.55l30.41 13.43c2.26 1 4.92.18 6.23-1.91l31.94-51.11-68.58 39.59z" fill="#27debf"/><path d="M371.72 222.55l30.41 13.43c2.26 1 4.92.18 6.23-1.91l31.94-51.11-68.58 39.59z" opacity=".3"/><path d="M371.72 222.55l30.63 11.44c2.18.81 4.63.01 5.91-1.94l32.04-49.09-68.58 39.59z" fill="#27debf"/></svg>