<svg xmlns="http://www.w3.org/2000/svg" viewBox="0 0 750 500"><style>.st2{fill:#cdbfbc}.st3{fill:#e3d7d5}.st4{fill:#e3390f}.st5{fill:#fc8068}.st6{fill:#af9f9d}.st7{fill:#fff}.st8{opacity:.3}.st9{fill:#ff5325}.st10{fill:#002029}.st11{fill:#0c4e73}.st12{fill:#173953}.st13{fill:#dfdfdf}.st14{fill:#2a5b74}.st15{fill:#fdbb92}.st16{fill:#fd967d}</style><g id="OBJECTS"><path class="st2" d="M499.06 339.23c-.96 0-1.93-.01-2.88-.02a.755.755 0 01-.74-.76c.01-.41.34-.74.75-.74h.01c1.88.03 3.83.03 5.75 0h.01c.41 0 .74.33.75.74.01.41-.32.76-.74.76-.97.01-1.95.02-2.91.02zm-8.38-.19h-.03c-1.92-.08-3.86-.2-5.78-.34a.749.749 0 01-.69-.8c.03-.41.39-.72.8-.69 1.9.14 3.83.25 5.74.33.41.02.74.37.72.78-.03.41-.36.72-.76.72zm16.8 0a.75.75 0 01-.03-1.5c1.91-.09 3.84-.2 5.73-.35.41-.03.77.28.81.69.03.41-.28.77-.69.81-1.91.15-3.85.27-5.78.35h-.04zm-28.06-.81h-.08c-1.9-.19-3.84-.41-5.75-.66a.753.753 0 01-.65-.84c.05-.41.43-.7.84-.65 1.9.24 3.82.46 5.71.65.41.04.71.41.67.82-.03.4-.36.68-.74.68zm39.31-.05c-.38 0-.7-.29-.74-.67-.04-.41.25-.78.67-.83 1.9-.21 3.82-.44 5.7-.71.41-.06.79.23.85.64.06.41-.23.79-.64.85-1.89.27-3.83.51-5.75.72h-.09zm-50.5-1.38c-.04 0-.08 0-.12-.01-1.89-.29-3.81-.62-5.71-.97a.741.741 0 01-.6-.87c.07-.41.47-.68.87-.6 1.88.34 3.79.67 5.67.96.41.06.69.45.63.86a.75.75 0 01-.74.63zm61.67-.19a.75.75 0 01-.13-1.49c1.88-.33 3.78-.69 5.64-1.08.41-.09.8.17.89.58.09.41-.17.8-.58.89-1.88.39-3.79.76-5.69 1.09-.04 0-.09.01-.13.01zm-72.77-1.83c-.05 0-.1-.01-.15-.02-1.88-.39-3.78-.81-5.65-1.26a.76.76 0 01-.56-.9c.1-.4.5-.65.9-.56 1.86.44 3.75.86 5.61 1.25.41.08.67.48.58.89-.07.35-.39.6-.73.6zm83.82-.48c-.34 0-.64-.23-.73-.57-.1-.4.15-.81.55-.91 1.86-.46 3.73-.95 5.55-1.47.4-.11.81.12.93.52.11.4-.12.81-.52.93a170.3 170.3 0 01-5.6 1.48c-.07.01-.13.02-.18.02zm-94.81-2.1c-.06 0-.13-.01-.19-.02-1.85-.48-3.73-1-5.58-1.53a.741.741 0 01-.51-.93c.11-.4.53-.63.93-.51 1.84.53 3.71 1.04 5.55 1.52.4.1.64.51.54.92-.1.32-.41.55-.74.55zm105.66-.97c-.32 0-.61-.2-.71-.52-.13-.39.09-.82.48-.94 1.82-.59 3.65-1.21 5.43-1.86a.75.75 0 11.51 1.41c-1.8.65-3.65 1.29-5.48 1.88-.07.02-.15.03-.23.03zm-116.51-2.15c-.07 0-.15-.01-.22-.03-1.83-.57-3.68-1.18-5.5-1.79a.753.753 0 01-.47-.95c.13-.39.56-.6.95-.47 1.81.61 3.65 1.21 5.47 1.78.4.12.62.54.49.94-.1.32-.4.52-.72.52zm127.12-1.7a.754.754 0 01-.29-1.45c1.77-.72 3.54-1.48 5.28-2.26.38-.17.82 0 .99.38.17.38 0 .82-.38.99-1.75.79-3.54 1.56-5.33 2.28-.08.04-.17.06-.27.06zm-137.81-1.9c-.08 0-.17-.01-.25-.04-1.81-.64-3.64-1.28-5.44-1.9a.74.74 0 01-.46-.95c.13-.39.56-.6.95-.46 1.8.62 3.64 1.26 5.45 1.91.39.14.59.57.46.96-.11.28-.4.48-.71.48zm148.1-2.73c-.28 0-.54-.15-.67-.42a.763.763 0 01.34-1.01c1.71-.85 3.42-1.75 5.08-2.66.36-.2.82-.07 1.02.29.2.36.07.82-.29 1.02-1.68.92-3.4 1.83-5.14 2.69-.11.06-.23.09-.34.09zm-158.77-.95c-.08 0-.16-.01-.24-.04-1.83-.61-3.67-1.22-5.47-1.8a.748.748 0 01-.48-.94c.13-.39.55-.61.94-.48 1.8.58 3.65 1.19 5.49 1.8a.75.75 0 01-.24 1.46zm-10.74-3.47c-.07 0-.15-.01-.22-.03-1.83-.57-3.68-1.14-5.51-1.68a.744.744 0 01-.5-.93c.12-.4.54-.62.93-.5 1.83.55 3.69 1.12 5.52 1.69.4.12.62.54.49.94-.09.3-.39.51-.71.51zm179.4-1.02c-.25 0-.5-.13-.64-.36-.21-.35-.1-.82.25-1.03 1.63-.99 3.26-2.02 4.84-3.08.35-.23.81-.14 1.04.21.23.34.14.81-.21 1.04-1.6 1.06-3.24 2.11-4.9 3.11-.12.07-.25.11-.38.11zm-413.14-1.35h-.02c-1.93-.06-3.88-.17-5.79-.35a.753.753 0 11.14-1.5c1.89.18 3.8.29 5.7.35.41.01.74.36.73.77a.76.76 0 01-.76.73zm5.52-.01a.751.751 0 01-.02-1.5c1.89-.06 3.82-.19 5.71-.37.41-.04.78.26.82.67a.75.75 0 01-.67.82c-1.92.19-3.88.31-5.8.38h-.04zm217.41-.87c-.07 0-.14-.01-.21-.03-1.86-.53-3.72-1.06-5.54-1.56a.745.745 0 01-.52-.92c.11-.4.52-.63.92-.52 1.83.5 3.7 1.03 5.56 1.56.4.11.63.53.51.93-.09.33-.39.54-.72.54zm-234.14-.14c-.04 0-.08 0-.12-.01-1.9-.29-3.82-.65-5.71-1.07a.75.75 0 01-.57-.89c.09-.4.49-.66.89-.57 1.86.41 3.74.76 5.61 1.05.41.06.69.45.63.86-.04.36-.36.63-.73.63zm27.95-.06a.75.75 0 01-.12-1.49c1.87-.3 3.76-.66 5.62-1.08a.753.753 0 01.33 1.47c-1.89.42-3.81.79-5.71 1.09-.04.01-.08.01-.12.01zm11.05-2.3a.753.753 0 01-.16-1.49c1.93-.43 3.82-.85 5.64-1.24.41-.09.8.17.89.57.09.4-.17.8-.57.89-1.81.39-3.7.81-5.63 1.24-.06.02-.11.03-.17.03zm-50-.05c-.07 0-.14-.01-.2-.03-1.85-.52-3.71-1.12-5.54-1.76a.754.754 0 01-.46-.96c.14-.39.57-.6.96-.46 1.8.63 3.63 1.21 5.45 1.73a.755.755 0 01-.21 1.48zm234.26-.43c-.06 0-.13-.01-.19-.02-1.86-.49-3.73-.96-5.58-1.42-.4-.1-.65-.51-.55-.91.1-.4.51-.65.91-.55 1.85.46 3.74.94 5.6 1.43.4.1.64.51.54.92-.09.32-.4.55-.73.55zm210.48-1.05c-.23 0-.46-.11-.61-.31-.24-.33-.17-.8.16-1.05 1.54-1.13 3.08-2.3 4.55-3.49a.746.746 0 11.94 1.16c-1.49 1.2-3.04 2.39-4.6 3.53-.13.11-.29.16-.44.16zm-383.71-.86c-.35 0-.66-.24-.73-.6-.09-.41.17-.8.58-.89 1.9-.4 3.8-.79 5.66-1.17.41-.08.8.18.88.59.08.41-.18.8-.59.88-1.85.37-3.75.76-5.64 1.16-.06.02-.11.03-.16.03zm162.28-.81c-.06 0-.11-.01-.17-.02-1.88-.44-3.77-.87-5.62-1.27a.75.75 0 01-.57-.89c.09-.4.49-.66.89-.57 1.85.41 3.75.83 5.64 1.27.4.09.65.5.56.9-.08.35-.39.58-.73.58zm-233.96-.57c-.1 0-.19-.02-.29-.06-1.78-.74-3.56-1.55-5.29-2.4a.74.74 0 01-.34-1 .74.74 0 011-.34c1.71.84 3.46 1.63 5.21 2.37.38.16.56.6.4.98-.11.28-.39.45-.69.45zm82.75-.86a.752.752 0 01-.15-1.49c1.93-.37 3.84-.73 5.68-1.07.41-.07.8.2.87.6.07.41-.2.8-.6.87-1.83.34-3.74.69-5.66 1.07-.05.02-.1.02-.14.02zm140.18-.98c-.05 0-.1-.01-.15-.02-1.89-.39-3.79-.76-5.65-1.11a.75.75 0 01-.6-.88.75.75 0 01.88-.6c1.86.35 3.77.72 5.67 1.11.41.08.67.48.59.88-.07.37-.39.62-.74.62zm-129.08-1.05a.75.75 0 01-.13-1.49c1.91-.33 3.82-.65 5.7-.95.41-.07.79.21.86.62.07.41-.21.79-.62.86-1.87.3-3.78.62-5.68.95-.04 0-.09.01-.13.01zm117.99-1.04c-.04 0-.09 0-.13-.01-1.88-.32-3.8-.64-5.68-.93a.756.756 0 01-.63-.86c.06-.41.45-.69.86-.63 1.89.29 3.81.61 5.7.94.41.07.68.46.61.87-.05.36-.37.62-.73.62zm-106.84-.76c-.37 0-.69-.27-.74-.64-.06-.41.22-.79.63-.85 1.91-.28 3.83-.56 5.72-.81.41-.05.79.23.84.64.06.41-.23.79-.64.84-1.88.25-3.8.52-5.7.81-.04.01-.08.01-.11.01zm359.18-.14c-.21 0-.41-.09-.56-.25a.756.756 0 01.06-1.06 119.9 119.9 0 004.19-3.9c.3-.29.77-.29 1.06.01.29.3.29.77-.01 1.06-1.37 1.34-2.8 2.67-4.25 3.96-.14.12-.32.18-.49.18zm-474.31-.12c-.12 0-.25-.03-.37-.1-1.68-.94-3.35-1.95-4.98-3a.756.756 0 01-.23-1.04c.22-.35.69-.45 1.04-.23 1.6 1.03 3.26 2.02 4.91 2.95a.762.762 0 01-.37 1.42zm210.82-.71c-.03 0-.07 0-.1-.01-1.9-.26-3.82-.51-5.71-.74a.748.748 0 01-.65-.84c.05-.41.42-.7.84-.65 1.89.23 3.82.48 5.73.75.41.06.7.44.64.85-.06.36-.38.64-.75.64zm-84.51-.53c-.37 0-.7-.28-.74-.66-.05-.41.24-.79.66-.83 1.91-.23 3.84-.45 5.74-.65.41-.04.78.26.82.67a.75.75 0 01-.67.82c-1.89.2-3.82.42-5.72.65h-.09zm73.31-.84H326c-1.91-.2-3.84-.38-5.73-.55a.75.75 0 01-.68-.81c.04-.41.4-.72.81-.68 1.9.16 3.84.35 5.76.55.41.04.71.41.67.82-.04.39-.37.67-.75.67zm-62.08-.35c-.38 0-.71-.29-.75-.68-.04-.41.27-.78.68-.81 1.91-.17 3.85-.33 5.76-.47.41-.03.77.28.8.69.03.41-.28.77-.69.8-1.9.14-3.83.3-5.74.47H264zm50.84-.62h-.05c-1.91-.13-3.84-.25-5.74-.34a.75.75 0 11.08-1.5c1.91.1 3.85.21 5.77.34.41.03.73.39.7.8-.04.4-.37.7-.76.7zm-39.59-.21a.75.75 0 01-.04-1.5c1.93-.11 3.87-.2 5.77-.28.41-.01.76.31.78.72.02.41-.31.76-.72.78-1.9.07-3.83.17-5.75.28h-.04zm28.32-.36h-.02c-1.91-.06-3.85-.11-5.75-.13a.755.755 0 01-.74-.76c.01-.41.34-.74.75-.74h.01c1.91.03 3.86.07 5.78.13.41.01.74.36.73.77-.02.41-.36.73-.76.73zm-17.05-.08c-.41 0-.74-.33-.75-.73-.01-.41.32-.76.73-.77 1.92-.04 3.86-.07 5.78-.08a.749.749 0 110 1.5c-1.91.01-3.85.03-5.75.07 0 .01 0 .01-.01.01zm-169.57-2.39c-.15 0-.31-.05-.44-.14-1.56-1.13-3.11-2.32-4.61-3.54a.758.758 0 01-.11-1.06c.26-.32.73-.37 1.06-.11 1.48 1.2 3.01 2.38 4.55 3.49.34.24.41.71.17 1.05a.8.8 0 01-.62.31zm491.88-1.68c-.18 0-.36-.07-.51-.2a.755.755 0 01-.04-1.06l.23-.25a370.9 370.9 0 003.85-4.27c.27-.31.75-.34 1.06-.06.31.27.34.75.06 1.06a299.71 299.71 0 01-3.87 4.29l-.24.26c-.14.15-.34.23-.54.23zm-500.65-5.44c-.18 0-.36-.06-.5-.19-1.43-1.3-2.84-2.65-4.2-4.03-.29-.3-.29-.77.01-1.06.3-.29.77-.29 1.06.01 1.34 1.36 2.73 2.69 4.14 3.97.31.28.33.75.05 1.06-.15.15-.36.24-.56.24zm508.37-3.25c-.17 0-.35-.06-.49-.18a.756.756 0 01-.08-1.06c1.25-1.46 2.5-2.94 3.7-4.4.26-.32.74-.37 1.06-.1.32.26.36.74.1 1.06-1.21 1.47-2.47 2.96-3.72 4.42-.15.17-.36.26-.57.26zm-516.31-4.79c-.21 0-.41-.09-.56-.25-1.28-1.45-2.54-2.95-3.74-4.46a.747.747 0 111.17-.93c1.18 1.49 2.42 2.97 3.68 4.4.27.31.25.78-.06 1.06-.14.11-.31.18-.49.18zm523.49-3.91c-.16 0-.33-.05-.47-.16a.748.748 0 01-.12-1.05c1.2-1.51 2.39-3.03 3.54-4.54a.749.749 0 111.19.91c-1.15 1.51-2.35 3.05-3.56 4.56a.71.71 0 01-.58.28zm-530.51-4.94c-.23 0-.47-.11-.61-.32-1.12-1.57-2.2-3.19-3.23-4.82a.758.758 0 01.23-1.04c.35-.22.81-.12 1.04.23 1.02 1.61 2.09 3.21 3.19 4.76a.753.753 0 01-.62 1.19zm537.37-4.02c-.15 0-.31-.05-.44-.15a.75.75 0 01-.16-1.05c1.14-1.56 2.27-3.13 3.35-4.68.24-.34.71-.42 1.04-.18.34.24.42.71.18 1.05a228.65 228.65 0 01-3.37 4.7c-.14.2-.37.31-.6.31zm-543.41-5.51c-.26 0-.52-.14-.65-.38-.94-1.68-1.85-3.41-2.71-5.14a.748.748 0 01.34-1c.37-.18.82-.03 1 .34.84 1.71 1.74 3.41 2.67 5.07.2.36.07.82-.29 1.02a.74.74 0 01-.36.09zm549.89-3.74a.755.755 0 01-.63-1.17c1.07-1.6 2.13-3.22 3.14-4.82.22-.35.69-.45 1.04-.23.35.22.45.69.23 1.04-1.02 1.61-2.08 3.24-3.16 4.85-.14.21-.38.33-.62.33zm-554.89-6.37c-.29 0-.57-.17-.69-.45-.76-1.77-1.49-3.58-2.16-5.39-.14-.39.06-.82.44-.96.39-.14.82.06.96.44.66 1.78 1.37 3.57 2.13 5.32a.76.76 0 01-.39.99.71.71 0 01-.29.05zm560.94-3.17c-.13 0-.26-.03-.39-.11a.749.749 0 01-.26-1.03c.99-1.65 1.97-3.32 2.9-4.97a.74.74 0 011.02-.28c.36.2.49.66.28 1.02-.94 1.66-1.92 3.35-2.92 5-.13.24-.37.37-.63.37zm-564.86-7.4a.76.76 0 01-.72-.53c-.57-1.84-1.11-3.71-1.59-5.58a.75.75 0 011.45-.37c.47 1.84 1 3.7 1.57 5.51.12.4-.1.82-.49.94-.07.02-.15.03-.22.03zm570.43-2.43a.73.73 0 01-.35-.09.737.737 0 01-.31-1.01c.9-1.7 1.79-3.42 2.62-5.12.18-.37.63-.52 1.01-.34.37.18.52.63.34 1.01-.84 1.71-1.73 3.45-2.64 5.16-.15.25-.41.39-.67.39zm-573.24-8.49c-.35 0-.66-.25-.73-.6-.38-1.88-.72-3.81-1.01-5.72-.06-.41.22-.79.63-.85.41-.06.79.22.85.63.28 1.88.62 3.78 1 5.64.08.41-.18.8-.59.89-.05 0-.1.01-.15.01zM653.7 231c-.1 0-.21-.02-.31-.07a.746.746 0 01-.37-.99c.8-1.75 1.58-3.52 2.31-5.27.16-.38.6-.56.98-.4.38.16.56.6.4.98-.74 1.76-1.52 3.55-2.33 5.31a.75.75 0 01-.68.44zm-579.95-9.52c-.38 0-.71-.29-.75-.67-.19-1.91-.34-3.86-.44-5.79a.75.75 0 111.5-.08c.1 1.9.24 3.83.43 5.71a.75.75 0 01-.67.82c-.02.01-.04.01-.07.01zm584.32-.89a.746.746 0 01-.7-1.02c.68-1.79 1.34-3.61 1.95-5.4.13-.39.56-.6.95-.47.39.13.6.56.47.95-.62 1.81-1.28 3.64-1.97 5.45-.11.3-.4.49-.7.49zm-584.9-10.38c-.41 0-.75-.33-.75-.75v-.41c0-1.78.04-3.6.12-5.39.02-.41.37-.73.78-.72.41.02.73.37.72.78-.08 1.77-.12 3.56-.12 5.33v.4c0 .43-.33.76-.75.76zm588.55-.31a.75.75 0 01-.72-.97c.56-1.84 1.08-3.7 1.55-5.53a.75.75 0 011.45.37c-.48 1.85-1.01 3.73-1.57 5.58-.09.34-.39.55-.71.55zm2.84-10.92a.75.75 0 01-.73-.91c.41-1.87.78-3.76 1.1-5.63a.75.75 0 01.87-.61c.41.07.68.46.61.87-.33 1.89-.7 3.8-1.12 5.69a.74.74 0 01-.73.59zm-590.9-.04h-.07a.753.753 0 01-.68-.82c.17-1.91.4-3.85.66-5.77.06-.41.44-.7.85-.64.41.06.7.44.64.85-.26 1.89-.48 3.81-.65 5.7-.03.39-.36.68-.75.68zm592.84-11.08c-.03 0-.07 0-.1-.01a.753.753 0 01-.65-.84c.25-1.89.45-3.81.61-5.7.03-.41.39-.72.81-.68.41.03.72.4.68.81-.16 1.91-.37 3.85-.62 5.76-.03.39-.36.66-.73.66zm-591.31-.1c-.04 0-.09 0-.14-.01a.741.741 0 01-.6-.87c.34-1.88.74-3.8 1.17-5.68.09-.4.49-.66.9-.56.4.09.66.49.56.9-.43 1.87-.81 3.76-1.15 5.62a.76.76 0 01-.74.6zm2.5-11.01c-.07 0-.13-.01-.2-.03a.75.75 0 01-.53-.92c.5-1.85 1.05-3.72 1.64-5.56.13-.4.55-.61.94-.49.4.13.61.55.49.94-.58 1.82-1.12 3.68-1.62 5.5-.09.35-.39.56-.72.56zm589.77-.12h-.03a.756.756 0 01-.72-.78c.06-1.57.09-3.17.09-4.73v-1c0-.41.33-.75.74-.76h.01c.41 0 .75.33.75.74v1.01c0 1.58-.03 3.2-.1 4.79-.01.42-.34.73-.74.73zM81.09 165.99c-.08 0-.17-.01-.25-.04a.75.75 0 01-.45-.96c.65-1.8 1.34-3.62 2.07-5.42a.751.751 0 111.39.57c-.72 1.78-1.41 3.58-2.05 5.36-.12.3-.4.49-.71.49zm586.28-.64c-.4 0-.73-.31-.75-.71-.06-1.15-.15-2.32-.24-3.48-.05-.59-.1-1.18-.16-1.77a6.77 6.77 0 00-.05-.47.75.75 0 01.67-.82c.42-.04.78.26.82.67.02.16.03.32.05.49.05.59.11 1.19.16 1.78.1 1.17.18 2.35.25 3.52a.75.75 0 01-.71.79h-.04zm-582.06-9.82c-.1 0-.21-.02-.31-.07a.747.747 0 01-.38-.99c.8-1.78 1.63-3.54 2.47-5.24a.76.76 0 011.01-.34c.37.18.52.64.34 1.01-.84 1.68-1.66 3.43-2.45 5.19-.12.27-.4.44-.68.44zm580.8-1.38c-.35 0-.67-.25-.74-.61-.36-1.83-.81-3.69-1.34-5.54-.11-.4.11-.81.51-.93s.81.11.93.51c.55 1.89 1.01 3.79 1.37 5.67.08.41-.19.8-.59.88a.59.59 0 01-.14.02zm-575.78-8.72c-.12 0-.25-.03-.36-.09a.753.753 0 01-.29-1.02c.94-1.71 1.93-3.39 2.92-5.01a.747.747 0 111.27.79c-.99 1.6-1.96 3.26-2.89 4.95-.13.24-.39.38-.65.38zm572.69-2.12c-.3 0-.59-.19-.7-.49-.66-1.75-1.4-3.52-2.21-5.27a.757.757 0 01.37-1c.38-.17.82-.01 1 .37.82 1.78 1.58 3.59 2.25 5.37a.75.75 0 01-.44.97c-.09.04-.18.05-.27.05zm-566.78-7.48a.742.742 0 01-.61-1.17c1.1-1.61 2.25-3.18 3.42-4.69a.749.749 0 111.19.91c-1.15 1.49-2.28 3.04-3.37 4.63-.16.21-.39.32-.63.32zm562.07-2.76c-.27 0-.52-.14-.66-.39-.9-1.65-1.88-3.3-2.91-4.93a.758.758 0 01.23-1.04c.35-.22.81-.12 1.04.23 1.04 1.65 2.04 3.33 2.95 5.01.2.36.07.82-.3 1.02-.11.07-.23.1-.35.1zm-293.9-3.86c-1.25 0-2.53-.02-3.81-.07a.75.75 0 11.06-1.5c1.94.07 3.87.09 5.72.05.42 0 .76.32.77.73.01.41-.32.76-.73.77-.67.01-1.34.02-2.01.02zm7.48-.3c-.39 0-.71-.3-.75-.69-.03-.41.27-.78.69-.81 1.91-.16 3.81-.38 5.66-.66.41-.06.79.22.85.63.06.41-.22.79-.63.85-1.88.29-3.82.51-5.77.67-.01.01-.03.01-.05.01zm-16.77-.12h-.07c-1.88-.16-3.82-.38-5.77-.64a.739.739 0 01-.64-.84c.06-.41.43-.7.84-.64 1.93.26 3.84.47 5.7.63.41.04.72.4.68.81a.74.74 0 01-.74.68zm-11.19-1.47c-.04 0-.09 0-.13-.01-1.85-.32-3.77-.69-5.69-1.09a.745.745 0 01-.58-.89c.09-.41.48-.67.89-.58 1.9.4 3.8.77 5.64 1.08a.75.75 0 01-.13 1.49zm39.08-.1a.753.753 0 01-.16-1.49c1.84-.41 3.7-.9 5.51-1.45.4-.12.82.1.94.5s-.1.82-.5.94c-1.85.56-3.74 1.06-5.62 1.48-.06.02-.11.02-.17.02zm-279.89-.32c-.17 0-.35-.06-.49-.18a.756.756 0 01-.08-1.06c1.27-1.47 2.59-2.91 3.93-4.28.29-.3.76-.3 1.06-.01.3.29.3.76.01 1.06a91.46 91.46 0 00-3.87 4.21c-.14.17-.35.26-.56.26zm229.77-1.9c-.06 0-.12-.01-.18-.02-1.83-.44-3.72-.93-5.61-1.44a.75.75 0 11.39-1.45c1.88.51 3.75.99 5.57 1.43a.75.75 0 01-.17 1.48zm60.9-1.02c-.3 0-.59-.18-.7-.48a.75.75 0 01.44-.97c1.74-.66 3.51-1.4 5.27-2.2.38-.17.82-.01.99.37.17.38.01.82-.37.99-1.79.81-3.59 1.57-5.36 2.24-.1.03-.19.05-.27.05zm258.5-.45c-.23 0-.46-.11-.61-.31-1.1-1.53-2.27-3.06-3.47-4.55a.76.76 0 01.11-1.06.76.76 0 011.06.11c1.22 1.51 2.41 3.07 3.52 4.62.24.34.16.81-.17 1.05a.74.74 0 01-.44.14zM322 122.06c-.07 0-.14-.01-.21-.03-1.84-.53-3.69-1.07-5.54-1.6a.746.746 0 01-.51-.93c.12-.4.53-.63.93-.51 1.85.54 3.69 1.07 5.54 1.6.4.11.63.53.51.93-.1.33-.4.54-.72.54zm82.04-2.72c-.27 0-.53-.15-.67-.4a.746.746 0 01.32-1.01c1.63-.86 3.27-1.76 5.01-2.78a.752.752 0 11.76 1.3c-1.76 1.02-3.41 1.94-5.07 2.81a.93.93 0 01-.35.08zm-92.88-.41c-.07 0-.14-.01-.21-.03-1.84-.53-3.69-1.07-5.54-1.6a.741.741 0 01-.51-.93c.11-.4.53-.63.93-.51 1.85.53 3.7 1.07 5.54 1.6a.75.75 0 01-.21 1.47zm-200.17-.1a.755.755 0 01-.51-1.31 83 83 0 014.43-3.76.747.747 0 11.93 1.17 89.705 89.705 0 00-4.36 3.7c-.13.14-.31.2-.49.2zm189.33-3.03c-.07 0-.14-.01-.21-.03-1.85-.53-3.7-1.06-5.55-1.58a.755.755 0 01-.52-.93c.11-.4.53-.63.93-.52 1.85.52 3.7 1.05 5.55 1.58.4.11.63.53.51.93-.08.34-.38.55-.71.55zm344.89-1.05c-.21 0-.41-.08-.56-.25-1.26-1.4-2.58-2.8-3.94-4.16a.754.754 0 010-1.06c.29-.29.77-.29 1.06 0 1.37 1.38 2.71 2.8 3.99 4.22.28.31.25.78-.06 1.06-.13.12-.31.19-.49.19zm-231.42-1.06c-.25 0-.49-.12-.64-.35a.747.747 0 01.24-1.03c1.49-.94 3.07-1.96 4.83-3.12.35-.23.81-.13 1.04.21.23.35.13.81-.21 1.04a211.4 211.4 0 01-4.86 3.13c-.13.08-.27.12-.4.12zm-124.33-.97c-.07 0-.13-.01-.2-.03-1.85-.52-3.71-1.03-5.56-1.54a.745.745 0 01-.52-.92c.11-.4.52-.63.92-.52 1.86.51 3.71 1.03 5.56 1.54.4.11.63.53.52.93-.09.33-.39.54-.72.54zm-169.65-.91c-.24 0-.47-.11-.62-.32a.742.742 0 01.19-1.04c1.58-1.1 3.22-2.17 4.88-3.16.36-.21.82-.1 1.03.25.21.36.1.82-.25 1.03-1.63.98-3.24 2.03-4.79 3.11a.96.96 0 01-.44.13zm158.76-2.08c-.06 0-.13-.01-.2-.03-1.89-.51-3.77-1.01-5.58-1.49a.75.75 0 11.39-1.45c1.81.48 3.69.98 5.58 1.49.4.11.64.52.53.92-.09.34-.39.56-.72.56zm144.64-2.23a.751.751 0 01-.42-1.37l2.79-1.89 1.98-1.34c.34-.23.81-.14 1.04.2.23.34.14.81-.2 1.04l-1.98 1.34c-.94.63-1.87 1.27-2.79 1.89-.13.08-.27.13-.42.13zm-155.57-.65c-.06 0-.12-.01-.19-.02-1.89-.48-3.77-.96-5.6-1.41-.4-.1-.65-.51-.55-.91.1-.4.51-.65.91-.55 1.83.45 3.71.93 5.61 1.41.4.1.64.51.54.91-.08.34-.38.57-.72.57zm369.63-.11c-.18 0-.36-.07-.51-.2-1.39-1.28-2.85-2.54-4.32-3.77a.757.757 0 01-.1-1.06c.26-.32.74-.36 1.06-.1 1.49 1.24 2.96 2.52 4.38 3.81.31.28.33.75.05 1.06-.16.17-.36.26-.56.26zm-507.83-.77c-.27 0-.53-.15-.67-.4a.746.746 0 01.32-1.01c1.7-.89 3.46-1.74 5.23-2.52.38-.17.82 0 .99.38.17.38 0 .82-.38.99-1.74.77-3.48 1.61-5.15 2.48-.1.06-.22.08-.34.08zm127.23-1.84c-.06 0-.12-.01-.18-.02-1.9-.45-3.79-.9-5.62-1.31a.742.742 0 01-.56-.9c.09-.4.49-.66.9-.56 1.83.42 3.73.86 5.63 1.32.4.1.65.5.56.9-.08.34-.39.57-.73.57zm-11.01-2.52c-.05 0-.11-.01-.16-.02-1.9-.41-3.8-.81-5.64-1.19a.74.74 0 01-.58-.89.74.74 0 01.89-.58c1.84.38 3.74.78 5.65 1.19a.754.754 0 01-.16 1.49zm-105.92-.23c-.3 0-.59-.19-.7-.49a.75.75 0 01.44-.97c1.79-.67 3.64-1.31 5.5-1.89.4-.12.82.1.94.49.12.4-.1.82-.49.94-1.83.57-3.65 1.2-5.42 1.86a.66.66 0 01-.27.06zm292.82-.19c-.24 0-.48-.12-.63-.33a.745.745 0 01.21-1.04c1.74-1.16 3.33-2.19 4.83-3.16.35-.22.81-.12 1.04.23.22.35.12.81-.23 1.04-1.5.96-3.08 1.99-4.81 3.15a.81.81 0 01-.41.11zm196.04-1.68c-.16 0-.32-.05-.45-.15a130.82 130.82 0 00-4.64-3.37.743.743 0 01-.19-1.04c.24-.34.7-.43 1.04-.19 1.59 1.1 3.17 2.25 4.7 3.41.33.25.39.72.14 1.05-.15.19-.38.29-.6.29zm-394-.16c-.05 0-.09 0-.14-.01-1.9-.36-3.81-.71-5.66-1.04a.75.75 0 01-.61-.87.75.75 0 01.87-.61c1.86.33 3.78.68 5.69 1.04.41.08.67.47.6.88-.08.36-.4.61-.75.61zM150.5 98c-.33 0-.64-.23-.73-.56-.1-.4.14-.81.54-.91 1.84-.47 3.75-.91 5.66-1.3.41-.08.8.18.88.59.08.41-.18.8-.59.88-1.89.38-3.77.81-5.58 1.28a.99.99 0 01-.18.02zm72.98-.61c-.04 0-.08 0-.12-.01-1.92-.31-3.83-.6-5.69-.86a.754.754 0 01-.64-.85c.06-.41.44-.7.85-.64 1.87.26 3.79.55 5.72.86.41.07.69.45.62.86a.75.75 0 01-.74.64zm-11.17-1.58c-.03 0-.06 0-.09-.01-1.93-.24-3.85-.45-5.72-.64a.75.75 0 01-.67-.82.75.75 0 01.82-.67c1.88.19 3.81.41 5.75.64.41.05.7.42.65.84-.05.38-.37.66-.74.66zm-50.76-.07a.75.75 0 01-.74-.63c-.06-.41.22-.79.63-.86 1.88-.29 3.81-.55 5.75-.77.41-.05.78.25.83.66.05.41-.25.78-.66.83-1.92.22-3.83.47-5.68.76-.05 0-.09.01-.13.01zm280.51-.64a.748.748 0 01-.39-1.39c1.68-1.03 3.36-2.02 4.97-2.95a.74.74 0 011.02.28c.21.36.08.82-.28 1.02-1.61.92-3.27 1.91-4.94 2.93-.11.08-.25.11-.38.11zm-240.98-.42h-.06c-1.93-.15-3.86-.28-5.74-.38a.75.75 0 11.08-1.5c1.89.1 3.83.23 5.78.38.41.03.72.39.69.81-.04.39-.37.69-.75.69zm-28.32-.22c-.39 0-.72-.3-.75-.7-.03-.41.28-.77.69-.8 1.89-.14 3.84-.25 5.79-.32.41-.01.76.31.78.72.02.41-.31.76-.72.78-1.93.07-3.86.18-5.73.32h-.06zm17.05-.38h-.02c-1.94-.05-3.86-.07-5.75-.06a.749.749 0 110-1.5c1.9-.01 3.84.01 5.79.06a.75.75 0 01-.02 1.5zm429.52-1c-.14 0-.28-.04-.4-.12-1.6-1.01-3.25-2.01-4.91-2.96a.754.754 0 01-.28-1.02c.21-.36.67-.48 1.02-.28 1.68.96 3.35 1.97 4.97 3 .35.22.45.69.23 1.04-.14.22-.39.34-.63.34zm-167.49-3.59c-.27 0-.53-.14-.66-.4-.2-.37-.06-.82.31-1.02 1.71-.91 3.44-1.8 5.15-2.64.37-.18.82-.03 1 .34.18.37.03.82-.34 1-1.69.83-3.41 1.71-5.1 2.62-.12.07-.25.1-.36.1zm157.71-2.04a.73.73 0 01-.35-.09c-1.68-.88-3.41-1.74-5.13-2.56a.765.765 0 01-.36-1c.18-.37.62-.53 1-.36 1.74.83 3.49 1.7 5.19 2.59.37.19.51.65.32 1.01-.14.26-.4.41-.67.41zm-147.6-2.93a.77.77 0 01-.69-.44c-.17-.38 0-.82.38-.99 1.75-.79 3.55-1.55 5.33-2.27.38-.16.82.03.98.41.16.38-.03.82-.41.98-1.76.71-3.54 1.47-5.27 2.25-.11.04-.22.06-.32.06zm137.41-1.92c-.1 0-.2-.02-.3-.06-1.75-.75-3.53-1.48-5.32-2.16a.746.746 0 01-.43-.97c.15-.39.58-.58.97-.43 1.8.69 3.61 1.43 5.37 2.18.38.16.56.6.39.99-.11.28-.39.45-.68.45zM472.4 80.28c-.31 0-.59-.19-.71-.49a.75.75 0 01.45-.96c1.8-.65 3.64-1.29 5.48-1.88.39-.13.82.09.94.48.13.39-.09.82-.48.94-1.82.59-3.64 1.21-5.42 1.86a.63.63 0 01-.26.05zm116.43-1.73c-.08 0-.16-.01-.24-.04-1.8-.62-3.64-1.21-5.46-1.76a.75.75 0 01-.5-.94c.12-.4.54-.62.94-.5 1.85.56 3.7 1.16 5.52 1.78.39.13.6.56.47.95-.12.31-.42.51-.73.51zm-105.71-1.74c-.33 0-.63-.21-.72-.54a.76.76 0 01.52-.93c1.83-.52 3.72-1.02 5.59-1.49.4-.1.81.15.91.55.1.4-.15.81-.55.91-1.86.46-3.72.96-5.54 1.48-.07.02-.14.02-.21.02zm94.91-1.53c-.06 0-.13-.01-.19-.03-1.84-.49-3.71-.94-5.58-1.37a.756.756 0 01-.57-.9c.09-.4.49-.66.9-.57 1.88.43 3.77.89 5.63 1.38.4.11.64.52.53.92-.08.35-.38.57-.72.57zm-83.97-1.19a.74.74 0 01-.73-.59c-.09-.41.17-.8.58-.89 1.86-.4 3.77-.78 5.67-1.13.4-.07.8.2.87.6.07.41-.2.8-.6.87-1.89.35-3.79.72-5.63 1.12-.06.01-.11.02-.16.02zm72.97-1.31c-.05 0-.09 0-.14-.01-1.87-.36-3.77-.69-5.66-.98a.756.756 0 01-.63-.86c.06-.41.45-.69.86-.63 1.9.3 3.82.63 5.71.99.41.08.67.47.6.88a.75.75 0 01-.74.61zm-61.89-.73a.76.76 0 01-.74-.64c-.06-.41.22-.79.63-.86l.96-.15c1.59-.24 3.19-.46 4.77-.65.41-.05.79.24.84.65.05.41-.24.79-.65.84-1.57.2-3.16.41-4.74.65-.32.05-.64.1-.96.14-.03.02-.07.02-.11.02zm50.74-1.01c-.03 0-.06 0-.09-.01-1.88-.23-3.81-.43-5.71-.6a.75.75 0 01-.68-.81c.04-.41.41-.72.81-.68 1.92.17 3.86.37 5.76.6.41.05.7.42.65.84-.04.38-.36.66-.74.66zm-39.54-.39a.75.75 0 01-.08-1.5c1.92-.19 3.86-.34 5.77-.47.41-.03.77.29.8.7.03.41-.29.77-.7.8-1.89.13-3.82.28-5.73.47h-.06zm28.31-.6h-.04c-1.9-.11-3.83-.18-5.74-.23a.75.75 0 11.04-1.5c1.93.05 3.87.12 5.79.23.41.02.73.38.71.79-.04.4-.37.71-.76.71zm-17.05-.16c-.4 0-.73-.32-.75-.72-.02-.41.31-.76.72-.78 1.93-.07 3.88-.11 5.79-.13.41 0 .75.33.76.75 0 .41-.33.75-.75.76-1.9.01-3.83.05-5.74.13-.01-.01-.02-.01-.03-.01z"/><path class="st3" d="M706.91 310.39c0 1.12-.46 2.15-1.2 2.89-.74.75-1.76 1.2-2.89 1.2h-87.54c-2.25 0-4.09-1.84-4.09-4.1 0-1.12.46-2.15 1.2-2.89.74-.75 1.76-1.2 2.89-1.2h4.14c1.63-3.8 5.41-6.45 9.8-6.45 2.96 0 5.63 1.2 7.57 3.15 2.58-4.37 7.34-7.31 12.78-7.31 1.5 0 2.94.23 4.3.64 2.85-5.36 8.48-9 14.97-9 7.79 0 14.35 5.26 16.33 12.42 1.44-.72 3.06-1.13 4.78-1.13 4.86 0 8.96 3.24 10.25 7.69h2.64c2.23 0 4.07 1.84 4.07 4.09zM325.99 73.53c0 1.12-.46 2.15-1.2 2.89-.74.75-1.76 1.2-2.89 1.2h-87.54c-2.25 0-4.09-1.84-4.09-4.1 0-1.12.46-2.15 1.2-2.89.74-.75 1.76-1.2 2.89-1.2h4.14c1.63-3.8 5.41-6.45 9.8-6.45 2.96 0 5.63 1.2 7.57 3.15 2.58-4.37 7.34-7.31 12.78-7.31 1.5 0 2.94.23 4.3.64 2.85-5.36 8.48-9 14.97-9 7.79 0 14.35 5.26 16.33 12.42 1.44-.72 3.06-1.13 4.78-1.13 4.86 0 8.96 3.24 10.25 7.69h2.64c2.23-.01 4.07 1.83 4.07 4.09zM137.61 215c0 1.12-.46 2.15-1.2 2.89-.74.75-1.76 1.2-2.89 1.2H45.98c-2.25 0-4.09-1.84-4.09-4.1 0-1.12.46-2.15 1.2-2.89.74-.75 1.76-1.2 2.89-1.2h4.14c1.63-3.8 5.41-6.45 9.8-6.45 2.96 0 5.63 1.2 7.57 3.15 2.58-4.37 7.34-7.31 12.78-7.31 1.5 0 2.94.23 4.3.64 2.85-5.36 8.48-9 14.97-9 7.79 0 14.35 5.26 16.33 12.42 1.44-.72 3.06-1.13 4.78-1.13 4.86 0 8.96 3.24 10.25 7.69h2.64c2.23-.01 4.07 1.83 4.07 4.09zm215.28-42.96c0 1.12-.46 2.15-1.2 2.89-.74.75-1.76 1.2-2.89 1.2h-87.54c-2.25 0-4.09-1.84-4.09-4.1 0-1.12.46-2.15 1.2-2.89.74-.75 1.76-1.2 2.89-1.2h4.14c1.63-3.8 5.41-6.45 9.8-6.45 2.96 0 5.63 1.2 7.57 3.15 2.58-4.37 7.34-7.31 12.78-7.31 1.5 0 2.94.23 4.3.64 2.85-5.36 8.48-9 14.97-9 7.79 0 14.35 5.26 16.33 12.42 1.44-.72 3.06-1.13 4.78-1.13 4.86 0 8.96 3.25 10.25 7.69h2.64c2.23 0 4.07 1.84 4.07 4.09zm63.15-75.98L418 86.04l-9.39-1.84c-.01-2.47-.43-4.94-1.24-7.33l7.73-5.2-5.69-8.48-7.4 4.97a22.69 22.69 0 00-7.6-5.11l1.84-9.39-10.02-1.97-1.9 9.68c-2.06.11-4.1.51-6.1 1.19l-5.2-7.74-8.48 5.69 4.97 7.4a22.69 22.69 0 00-5.11 7.6l-8.21-1.61-1.97 10.02 8.5 1.67c.15 2.62.73 5.24 1.8 7.73l-7.4 4.97 5.69 8.48 7.74-5.2c2.22 1.93 4.76 3.39 7.46 4.34l-1.86 9.45 10.02 1.97 2.01-10.24c2.2-.24 4.39-.81 6.49-1.71l4.97 7.41 8.48-5.69-5.2-7.73c1.38-1.59 2.52-3.34 3.4-5.2l9.71 1.89zm-25.17-4.01c-4.28 2.88-10.11 1.73-12.99-2.55-2.88-4.28-1.73-10.11 2.55-12.99 4.28-2.88 10.11-1.73 12.99 2.55 2.88 4.29 1.74 10.11-2.55 12.99zm65.72 44.59l1.05-5.36-5.02-.99c0-1.32-.23-2.64-.66-3.92l4.14-2.78-3.05-4.53-3.96 2.66c-1.18-1.2-2.57-2.12-4.07-2.74l.99-5.02-5.36-1.05-1.02 5.18c-1.1.06-2.19.27-3.26.64l-2.78-4.14-4.54 3.05 2.66 3.96c-1.2 1.18-2.12 2.57-2.74 4.07l-4.39-.86-1.05 5.36 4.55.89c.08 1.4.39 2.8.97 4.14l-3.96 2.66 3.05 4.53 4.14-2.78c1.19 1.04 2.54 1.81 3.99 2.32l-.99 5.05 5.36 1.05 1.08-5.48c1.18-.13 2.35-.43 3.47-.92l2.66 3.96 4.53-3.05-2.78-4.14c.74-.85 1.35-1.78 1.82-2.78l5.17 1.02zm-13.47-2.15a5.015 5.015 0 01-6.95-1.36 5.015 5.015 0 011.36-6.95 5.015 5.015 0 016.95 1.36c1.55 2.3.94 5.41-1.36 6.95zm-336.19 26.3l1.77-7.01-6.57-1.66c.09-1.75-.12-3.51-.6-5.24l5.67-3.39-3.71-6.21-5.42 3.24a16.094 16.094 0 00-5.19-3.9l1.66-6.57-7.01-1.77-1.71 6.77c-1.46 0-2.92.2-4.36.61l-3.4-5.66-6.21 3.71 3.24 5.42a15.987 15.987 0 00-3.9 5.19l-5.75-1.45-1.77 7.01 5.95 1.5c.01 1.86.32 3.73.99 5.54l-5.43 3.24 3.71 6.21 5.67-3.39c1.5 1.45 3.24 2.57 5.12 3.35l-1.67 6.61 7.02 1.77 1.81-7.17c1.57-.09 3.13-.41 4.65-.97l3.24 5.43 6.21-3.71-3.39-5.67c1.04-1.07 1.91-2.26 2.6-3.55l6.78 1.72zM89.28 157c-3.14 1.88-7.22.85-9.09-2.29-1.88-3.14-.85-7.22 2.29-9.09 3.14-1.88 7.22-.85 9.09 2.29s.85 7.22-2.29 9.09zm625.1 69.04l1.39-7.1-6.65-1.3c0-1.75-.3-3.5-.88-5.2l5.48-3.68-4.03-6-5.24 3.52c-1.56-1.59-3.4-2.81-5.38-3.62l1.31-6.65-7.1-1.39-1.35 6.86c-1.46.08-2.91.36-4.32.84l-3.68-5.48-6 4.03 3.52 5.24c-1.59 1.56-2.8 3.4-3.62 5.38l-5.81-1.14-1.39 7.1 6.02 1.18c.1 1.86.52 3.71 1.28 5.48l-5.25 3.52 4.03 6 5.48-3.68a16.11 16.11 0 005.29 3.07l-1.31 6.69 7.1 1.39 1.42-7.25c1.56-.17 3.11-.57 4.6-1.21l3.52 5.25 6-4.03-3.68-5.48c.98-1.12 1.78-2.36 2.41-3.68l6.84 1.34zm-17.83-2.84a6.63 6.63 0 11-7.39-11.012 6.63 6.63 0 017.39 11.012z"/><path class="st4" d="M653.56 72.56h1.11c.2 0 .38-.11.48-.28.1-.17.1-.38 0-.55l-.55-.96a.553.553 0 00-.76-.2c-.26.15-.36.49-.2.76l.07.13h-.15c-.31 0-.55.25-.55.55 0 .3.24.55.55.55zm-.91-2.94l-.98-1.7c-.15-.26-.06-.6.2-.76.26-.15.6-.06.76.2l.98 1.7c.15.26.06.6-.2.76-.09.05-.18.07-.28.07a.54.54 0 01-.48-.27zm-1.96-3.41l-.98-1.7c-.15-.26-.06-.6.2-.76.26-.15.6-.06.76.2l.98 1.7c.15.26.06.6-.2.76-.09.05-.18.07-.28.07-.2.01-.38-.09-.48-.27zm-1.97-3.4l-.98-1.7c-.15-.26-.06-.6.2-.76.26-.15.6-.06.76.2l.98 1.7c.15.26.06.6-.2.76-.09.05-.18.07-.28.07a.521.521 0 01-.48-.27zm-2.59-3.13c.19 0 .38-.1.48-.28l.07-.13.07.13c.15.26.49.36.76.2.26-.15.36-.49.2-.76l-.55-.96a.559.559 0 00-.48-.28c-.2 0-.38.11-.48.28l-.55.96c-.15.26-.06.6.2.76.09.06.18.08.28.08zm-6.18 10.14a.553.553 0 01-.2-.76l.98-1.7c.15-.26.49-.36.76-.2.26.15.36.49.2.76l-.98 1.7a.55.55 0 01-.48.28.742.742 0 01-.28-.08zm1.97-3.4a.553.553 0 01-.2-.76l.98-1.7c.15-.26.49-.35.76-.2.26.15.36.49.2.76l-.98 1.7a.55.55 0 01-.48.28.694.694 0 01-.28-.08zm1.97-3.41a.553.553 0 01-.2-.76l.98-1.7c.15-.26.49-.36.76-.2.26.15.36.49.2.76l-.98 1.7a.55.55 0 01-.48.28c-.1 0-.2-.03-.28-.08zm-5.19 9.55h1.11c.31 0 .55-.25.55-.55 0-.31-.25-.55-.55-.55h-.15l.07-.13c.15-.26.06-.6-.2-.76a.567.567 0 00-.76.2l-.55.96c-.1.17-.1.38 0 .55.1.17.28.28.48.28zm2.51-.56c0-.31.25-.55.55-.55h1.97c.31 0 .55.25.55.55 0 .31-.25.55-.55.55h-1.97c-.3.01-.55-.24-.55-.55zm3.93 0c0-.31.25-.55.55-.55h1.97c.31 0 .55.25.55.55 0 .31-.25.55-.55.55h-1.97c-.3.01-.55-.24-.55-.55zm3.94 0c0-.31.25-.55.55-.55h1.97c.31 0 .55.25.55.55 0 .31-.25.55-.55.55h-1.97a.536.536 0 01-.55-.55z"/><path class="st5" d="M619.03 79.28c-.04-.3.17-.58.47-.63.68-.1 1.34-.29 1.96-.58a.55.55 0 11.46 1c-.72.33-1.48.55-2.27.67-.03 0-.05.01-.08.01-.26.01-.5-.19-.54-.47zm-1.73.47a8.57 8.57 0 01-2.27-.66.547.547 0 01-.27-.73c.13-.28.46-.4.73-.27.62.29 1.28.48 1.96.58a.558.558 0 01-.08 1.11c-.02-.02-.05-.02-.07-.03zm-4.26-1.94c-.6-.52-1.12-1.12-1.55-1.78a.54.54 0 01.17-.76c.26-.17.6-.09.76.17.37.58.82 1.1 1.34 1.55.23.2.26.55.06.78-.11.13-.26.19-.42.19a.753.753 0 01-.36-.15zm10.09-.06c-.2-.23-.18-.58.06-.78.52-.45.97-.97 1.34-1.55.17-.26.51-.33.76-.17.26.17.33.51.17.76-.43.67-.95 1.27-1.55 1.78-.1.09-.23.14-.36.14a.497.497 0 01-.42-.18zm-12.62-3.87c-.22-.76-.33-1.54-.33-2.34 0-.31.25-.55.55-.55.31 0 .55.25.55.55 0 .69.1 1.37.29 2.03.09.29-.08.6-.38.69-.05.02-.1.02-.16.02a.565.565 0 01-.52-.4zm15.24.37a.566.566 0 01-.38-.69c.19-.65.29-1.34.29-2.03 0-.31.25-.55.55-.55.31 0 .55.25.55.55 0 .79-.11 1.58-.33 2.34-.07.24-.29.4-.53.4-.04 0-.09 0-.15-.02zm-14.86-4.36a.566.566 0 01-.38-.69c.22-.76.55-1.48.98-2.15.17-.26.51-.33.76-.17.26.17.33.51.17.76-.37.58-.66 1.2-.85 1.86-.07.24-.29.4-.53.4-.05.01-.1 0-.15-.01zm14.49-.38c-.19-.66-.48-1.28-.85-1.86a.54.54 0 01.17-.76c.26-.17.6-.09.76.17.43.67.76 1.39.98 2.15.09.29-.08.6-.38.69-.05.02-.1.02-.16.02a.575.575 0 01-.52-.41zm-12.39-3.46c-.2-.23-.18-.58.06-.78.6-.52 1.27-.95 1.99-1.28a.55.55 0 11.46 1c-.62.29-1.2.66-1.72 1.11a.56.56 0 01-.79-.05zm10.2.05a7.44 7.44 0 00-1.72-1.11.547.547 0 01-.27-.73c.13-.28.46-.4.73-.27.72.33 1.39.76 1.99 1.28.23.2.26.55.06.78-.11.13-.26.19-.42.19-.14 0-.27-.05-.37-.14zm-6.36-2.15c-.04-.3.17-.58.47-.63a8.48 8.48 0 012.36 0 .556.556 0 01-.16 1.1c-.67-.1-1.38-.1-2.05 0-.03 0-.05.01-.08.01a.558.558 0 01-.54-.48zm41.28 38.52c-.04-.3.17-.58.47-.63.68-.1 1.34-.29 1.96-.58a.55.55 0 11.46 1c-.72.33-1.48.55-2.27.67-.03 0-.05.01-.08.01-.26.01-.5-.19-.54-.47zm-1.73.47a8.57 8.57 0 01-2.27-.66.547.547 0 01-.27-.73c.13-.28.46-.4.73-.27.62.29 1.28.48 1.96.58a.558.558 0 01-.08 1.11c-.02-.02-.05-.02-.07-.03zm-4.26-1.94c-.6-.52-1.12-1.12-1.55-1.78a.54.54 0 01.17-.76c.26-.17.6-.09.76.17.37.58.82 1.1 1.34 1.55.23.2.26.55.06.78-.11.13-.26.19-.42.19a.666.666 0 01-.36-.15zm10.09-.05c-.2-.23-.18-.58.06-.78.52-.45.97-.97 1.34-1.55.17-.26.51-.33.76-.17.26.17.33.51.17.76-.43.67-.95 1.27-1.55 1.78-.1.09-.23.14-.36.14a.526.526 0 01-.42-.18zm-12.62-3.88c-.22-.76-.33-1.54-.33-2.34 0-.31.25-.55.55-.55.31 0 .55.25.55.55 0 .69.1 1.37.29 2.03.09.29-.08.6-.38.69-.05.02-.1.02-.16.02a.565.565 0 01-.52-.4zm15.25.37a.566.566 0 01-.38-.69c.19-.65.29-1.34.29-2.03 0-.31.25-.55.55-.55.31 0 .55.25.55.55 0 .79-.11 1.58-.33 2.34-.07.24-.29.4-.53.4-.05 0-.1 0-.15-.02zm-14.87-4.36a.566.566 0 01-.38-.69c.22-.76.55-1.48.98-2.15.17-.26.51-.33.76-.17.26.17.33.51.17.76-.37.58-.66 1.2-.85 1.86-.07.24-.29.4-.53.4-.05.01-.1 0-.15-.01zm14.49-.38c-.19-.66-.48-1.28-.85-1.86a.54.54 0 01.17-.76c.26-.17.6-.09.76.17.43.67.76 1.39.98 2.15.09.29-.08.6-.38.69-.05.02-.1.02-.16.02a.575.575 0 01-.52-.41zm-12.39-3.46c-.2-.23-.18-.58.06-.78.6-.52 1.27-.95 1.99-1.28.28-.13.61-.01.73.27.13.28 0 .61-.27.73-.62.29-1.2.66-1.72 1.11-.1.09-.23.14-.36.14-.17 0-.32-.07-.43-.19zm10.2.05a7.44 7.44 0 00-1.72-1.11.547.547 0 01-.27-.73c.13-.28.46-.4.73-.27.72.33 1.39.76 1.99 1.28.23.2.26.55.06.78-.11.13-.26.19-.42.19-.14 0-.27-.05-.37-.14zm-6.36-2.15c-.04-.3.17-.58.47-.63a8.48 8.48 0 012.36 0 .556.556 0 01-.16 1.1c-.67-.1-1.38-.1-2.05 0-.03 0-.05.01-.08.01-.27-.01-.5-.2-.54-.48z"/><path class="st4" d="M94.05 317.75h1.11c.2 0 .38-.11.48-.28.1-.17.1-.38 0-.55l-.55-.96a.553.553 0 00-.76-.2c-.26.15-.36.49-.2.76l.07.13h-.15c-.31 0-.55.25-.55.55 0 .3.24.55.55.55zm-.91-2.94l-.98-1.7c-.15-.26-.06-.6.2-.76.26-.15.6-.06.76.2l.98 1.7c.15.26.06.6-.2.76-.09.05-.18.07-.28.07a.521.521 0 01-.48-.27zm-1.97-3.4l-.98-1.7c-.15-.26-.06-.6.2-.76.26-.15.6-.06.76.2l.98 1.7c.15.26.06.6-.2.76a.574.574 0 01-.76-.2zM89.21 308l-.98-1.7c-.15-.26-.06-.6.2-.76.26-.15.6-.06.76.2l.98 1.7c.15.26.06.6-.2.76-.09.05-.18.07-.28.07a.521.521 0 01-.48-.27zm-2.59-3.13c.19 0 .38-.1.48-.28l.07-.13.07.13c.15.26.49.36.76.2.26-.15.36-.49.2-.76l-.55-.96a.559.559 0 00-.48-.28c-.2 0-.38.11-.48.28l-.55.96c-.15.26-.06.6.2.76.09.06.18.08.28.08zm-6.18 10.14a.553.553 0 01-.2-.76l.98-1.7c.15-.26.49-.35.76-.2.26.15.36.49.2.76l-.98 1.7a.55.55 0 01-.48.28c-.09 0-.19-.03-.28-.08zm1.97-3.4a.553.553 0 01-.2-.76l.98-1.7c.15-.26.49-.36.76-.2.26.15.36.49.2.76l-.98 1.7a.55.55 0 01-.48.28.694.694 0 01-.28-.08zm1.96-3.41a.553.553 0 01-.2-.76l.98-1.7c.15-.26.49-.35.76-.2.26.15.36.49.2.76l-.98 1.7a.55.55 0 01-.48.28c-.09 0-.19-.03-.28-.08zm-5.19 9.55h1.11c.31 0 .55-.25.55-.55 0-.31-.25-.55-.55-.55h-.15l.07-.13c.15-.26.06-.6-.2-.76a.567.567 0 00-.76.2l-.55.96c-.1.17-.1.38 0 .55.1.17.29.28.48.28zm2.52-.56c0-.31.25-.55.55-.55h1.97c.31 0 .55.25.55.55 0 .31-.25.55-.55.55h-1.97c-.3.01-.55-.24-.55-.55zm3.93 0c0-.31.25-.55.55-.55h1.97c.31 0 .55.25.55.55 0 .31-.25.55-.55.55h-1.97c-.3.01-.55-.24-.55-.55zm3.93 0c0-.31.25-.55.55-.55h1.97c.31 0 .55.25.55.55 0 .31-.25.55-.55.55h-1.97c-.3.01-.55-.24-.55-.55z"/><path class="st5" d="M59.52 324.48c-.04-.3.17-.58.47-.63.68-.1 1.34-.29 1.96-.58.28-.13.61 0 .73.27.13.28.01.61-.27.73-.72.33-1.48.55-2.27.67-.03 0-.05.01-.08.01-.26 0-.5-.2-.54-.47zm-1.74.47a8.57 8.57 0 01-2.27-.66.547.547 0 01-.27-.73c.13-.28.46-.4.73-.27.62.29 1.28.48 1.96.58a.558.558 0 01-.08 1.11c-.01-.03-.04-.03-.07-.03zM53.53 323c-.6-.52-1.12-1.12-1.55-1.78a.54.54 0 01.17-.76c.26-.17.6-.09.76.17.37.58.82 1.1 1.34 1.55.23.2.26.55.06.78-.11.13-.26.19-.42.19a.637.637 0 01-.36-.15zm10.09-.05c-.2-.23-.18-.58.06-.78.52-.45.97-.97 1.34-1.55.17-.26.51-.33.76-.17.26.17.33.51.17.76-.43.67-.95 1.27-1.55 1.78-.1.09-.23.14-.36.14a.526.526 0 01-.42-.18zM51 319.07c-.22-.76-.33-1.54-.33-2.34 0-.31.25-.55.55-.55.31 0 .55.25.55.55 0 .69.1 1.37.29 2.03.09.29-.08.6-.38.69-.05.02-.1.02-.16.02-.23 0-.45-.16-.52-.4zm15.24.37a.566.566 0 01-.38-.69c.19-.65.29-1.34.29-2.03 0-.31.25-.55.55-.55.31 0 .55.25.55.55 0 .79-.11 1.58-.33 2.34-.07.24-.29.4-.53.4-.04.01-.09 0-.15-.02zm-14.86-4.36a.566.566 0 01-.38-.69c.22-.76.55-1.48.98-2.15.17-.26.51-.33.76-.17.26.17.33.51.17.76-.37.58-.66 1.2-.85 1.86-.07.24-.29.4-.53.4-.05.01-.1 0-.15-.01zm14.49-.38c-.19-.66-.48-1.28-.85-1.86a.54.54 0 01.17-.76c.26-.17.6-.09.76.17.43.67.76 1.39.98 2.15.09.29-.08.6-.38.69-.05.02-.1.02-.16.02a.575.575 0 01-.52-.41zm-12.4-3.46c-.2-.23-.18-.58.06-.78.6-.52 1.27-.95 1.99-1.28.28-.13.61-.01.73.27.13.28.01.61-.27.73-.62.29-1.2.66-1.72 1.11a.556.556 0 01-.79-.05zm10.2.05a7.44 7.44 0 00-1.72-1.11.547.547 0 01-.27-.73c.13-.28.46-.4.73-.27.72.33 1.39.76 1.99 1.28.23.2.26.55.06.78-.11.13-.26.19-.42.19-.13 0-.26-.05-.37-.14zm-6.36-2.15c-.04-.3.17-.58.47-.63a8.48 8.48 0 012.36 0 .556.556 0 01-.16 1.1c-.67-.1-1.38-.1-2.05 0-.03 0-.05.01-.08.01-.26 0-.5-.2-.54-.48zm41.29 38.53c-.04-.3.17-.58.47-.63.68-.1 1.34-.29 1.96-.58a.55.55 0 11.46 1c-.72.33-1.48.55-2.27.67-.03 0-.05.01-.08.01-.26 0-.5-.2-.54-.47zm-1.73.47a8.57 8.57 0 01-2.27-.66.547.547 0 01-.27-.73c.13-.28.46-.4.73-.27.62.29 1.28.48 1.96.58a.558.558 0 01-.08 1.11c-.02-.03-.05-.03-.07-.03zm-4.26-1.95c-.6-.52-1.12-1.12-1.55-1.78a.54.54 0 01.17-.76c.26-.17.6-.09.76.17.37.58.82 1.1 1.34 1.55.23.2.26.55.06.78-.11.13-.26.19-.42.19a.637.637 0 01-.36-.15zm10.09-.05c-.2-.23-.18-.58.06-.78.52-.45.97-.97 1.34-1.55.17-.26.51-.33.76-.17.26.17.33.51.17.76-.43.67-.95 1.27-1.55 1.78-.1.09-.23.14-.36.14a.526.526 0 01-.42-.18zm-12.62-3.88c-.22-.76-.33-1.54-.33-2.34 0-.31.25-.55.55-.55.31 0 .55.25.55.55 0 .69.1 1.37.29 2.03.09.29-.08.6-.38.69-.05.02-.1.02-.16.02-.23 0-.45-.16-.52-.4zm15.24.37a.566.566 0 01-.38-.69c.19-.65.29-1.34.29-2.03 0-.31.25-.55.55-.55.31 0 .55.25.55.55 0 .79-.11 1.58-.33 2.34-.07.24-.29.4-.53.4-.04.01-.09 0-.15-.02zm-14.86-4.36a.566.566 0 01-.38-.69c.22-.76.55-1.48.98-2.15.17-.26.51-.33.76-.17.26.17.33.51.17.76-.37.58-.66 1.2-.85 1.86-.07.24-.29.4-.53.4-.05.01-.1.01-.15-.01zm14.49-.38c-.19-.66-.48-1.28-.85-1.86a.54.54 0 01.17-.76c.26-.17.6-.09.76.17.43.67.76 1.39.98 2.15.09.29-.08.6-.38.69-.05.02-.1.02-.16.02a.562.562 0 01-.52-.41zm-12.4-3.46c-.2-.23-.18-.58.06-.78.6-.52 1.27-.95 1.99-1.28a.55.55 0 11.46 1c-.62.29-1.2.66-1.72 1.11a.556.556 0 01-.79-.05zm10.2.06a7.44 7.44 0 00-1.72-1.11.547.547 0 01-.27-.73c.13-.28.46-.4.73-.27.72.33 1.39.76 1.99 1.28.23.2.26.55.06.78-.11.13-.26.19-.42.19a.652.652 0 01-.37-.14zm-6.36-2.16c-.04-.3.17-.58.47-.63a8.48 8.48 0 012.36 0 .556.556 0 01-.16 1.1c-.67-.1-1.38-.1-2.05 0-.03 0-.05.01-.08.01-.26 0-.5-.2-.54-.48z"/><path class="st2" d="M538.32 430.79c4.73-9.65 12.65-27.76 15.69-46.2 4.81-29.15 18.4-31.04 23.77-23.01 12.97 19.42-12.82 53.19-26.87 69.21h-12.59z"/><path class="st6" d="M560.94 399.55c-3.66 8.69-9.17 20.19-16.52 31.24h-1.56c7.53-11.18 13.16-22.91 16.88-31.73 5.39-12.79 8.02-22.41 8.05-22.51.09-.34.45-.55.8-.45.35.09.55.45.46.79-.04.11-2.69 9.79-8.11 22.66z"/><path class="st3" d="M542.99 430.79c11.27-11.78 30.51-33.74 43.12-58.33 20.26-39.49 40.58-35.96 44.56-22 8.54 29.91-31.67 61.97-60.04 80.33h-27.64z"/><path class="st2" d="M555.29 430.79h-3.06c14.47-11.86 26.71-24.84 35.42-35 13.58-15.83 21.76-28.37 21.85-28.5a.97.97 0 011.35-.28c.45.29.58.9.29 1.35-.08.13-8.32 12.76-21.98 28.68-8.41 9.8-20.08 22.22-33.87 33.75zm-429.52 0c-4.73-9.65-12.65-27.76-15.69-46.2-4.81-29.15-18.4-31.04-23.77-23.01-12.97 19.42 12.82 53.19 26.87 69.21h12.59z"/><path class="st6" d="M103.15 399.55c3.66 8.69 9.17 20.19 16.52 31.24h1.56c-7.53-11.18-13.16-22.91-16.88-31.73-5.39-12.79-8.02-22.41-8.05-22.51a.645.645 0 00-.8-.45c-.35.09-.55.45-.46.79.04.11 2.69 9.79 8.11 22.66z"/><path class="st3" d="M121.1 430.79c-11.27-11.78-30.51-33.74-43.12-58.33-20.26-39.49-40.58-35.96-44.56-22-8.54 29.91 31.67 61.97 60.04 80.33h27.64z"/><path class="st2" d="M108.8 430.79h3.06c-14.47-11.86-26.71-24.84-35.42-35-13.58-15.83-21.76-28.37-21.85-28.5a.97.97 0 00-1.35-.28c-.45.29-.58.9-.29 1.35.08.13 8.32 12.76 21.98 28.68 8.41 9.8 20.08 22.22 33.87 33.75zm231.07 0c-4.73-9.65-12.65-27.76-15.69-46.2-4.81-29.15-18.4-31.04-23.77-23.01-12.97 19.42 12.82 53.19 26.87 69.21h12.59z"/><path class="st6" d="M317.25 399.55c3.66 8.69 9.17 20.19 16.52 31.24h1.56c-7.53-11.18-13.16-22.91-16.88-31.73-5.39-12.79-8.02-22.41-8.05-22.51a.645.645 0 00-.8-.45c-.35.09-.55.45-.46.79.04.11 2.69 9.79 8.11 22.66z"/><path class="st3" d="M335.2 430.79c-11.27-11.78-30.51-33.74-43.12-58.33-20.26-39.49-40.58-35.96-44.56-22-8.54 29.91 31.67 61.97 60.04 80.33h27.64z"/><path class="st2" d="M322.9 430.79h3.06c-14.47-11.86-26.71-24.84-35.42-35-13.58-15.83-21.76-28.37-21.85-28.5a.97.97 0 00-1.35-.28c-.45.29-.58.9-.29 1.35.08.13 8.32 12.76 21.98 28.68 8.41 9.8 20.08 22.22 33.87 33.75z"/><path class="st3" d="M690.94 390.81c-8.81-7.93-35.36 5.32-50.59 23.57l15.56-30.24c2.5-1.88 7.76-5.06 16.42-6.89 11.39-2.4 23.09-6.99 17.55-11.97-5.57-5.01-22.38 3.4-31.97 14.95l3.3-6.4c13.42-15.61 20.31-41.4 13.04-46.41-7.27-5-10.98 10.05-11.79 26.11-.35 6.93-2.25 12.9-3.57 17.09l-6.4 12.44c1.74-13.13-1.31-27.14-7.61-28.53-7.27-1.61-4.2 10.58.46 21.24 2.49 5.71 3.46 10.43 3.79 13.82l-19.6 38.03h3.97l3.6-6.94c4.01-2.99 12.33-7.99 25.98-10.88 18.08-3.82 36.64-11.09 27.86-18.99zm-272.65 2.73c8.81-7.93 35.36 5.32 50.59 23.57l-15.56-30.24c-2.5-1.88-7.76-5.06-16.42-6.89-11.39-2.4-23.09-6.99-17.55-11.97 5.57-5.01 22.38 3.4 31.97 14.95l-3.3-6.4c-13.42-15.61-20.31-41.4-13.04-46.41 7.27-5 10.98 10.05 11.79 26.11.35 6.93 2.25 12.9 3.57 17.09l6.4 12.44c-1.74-13.13 1.31-27.14 7.61-28.53 7.27-1.61 4.2 10.58-.46 21.24-2.49 5.71-3.46 10.43-3.79 13.82l19.6 38.03h-3.97l-3.6-6.94c-4.01-2.99-12.33-7.99-25.98-10.88-18.08-3.81-36.64-11.09-27.86-18.99zm-231.77 34.57l-18.17-35.29c.33-3.39 1.3-8.11 3.79-13.82 4.66-10.66 7.73-22.85.46-21.24-6.31 1.4-9.35 15.4-7.61 28.53l-6.4-12.44c-1.32-4.19-3.23-10.16-3.57-17.09-.8-16.06-4.52-31.12-11.79-26.11-7.27 5.01-.39 30.8 13.04 46.41l3.3 6.4c-9.58-11.55-26.4-19.96-31.97-14.95-5.53 4.98 6.17 9.56 17.55 11.97 8.67 1.83 13.92 5.02 16.42 6.89l15.56 30.24c-15.23-18.24-41.78-31.5-50.59-23.57-8.78 7.9 9.79 15.18 27.85 18.99 13.65 2.88 21.97 7.89 25.98 10.88l2.16 4.2h3.99z"/><path class="st7" d="M578.34 96.82v210.23c0 3.95-3.2 7.16-7.16 7.16h-93.89a7.16 7.16 0 01-7.16-7.16V96.82c0-2.95 2.39-5.34 5.34-5.34H573c2.95 0 5.34 2.39 5.34 5.34z"/><g class="st8"><path class="st5" d="M560.28 210.07H488.2a2.38 2.38 0 110-4.76h72.08a2.38 2.38 0 012.38 2.38c-.01 1.31-1.07 2.38-2.38 2.38z"/></g><g class="st8"><path class="st5" d="M560.28 225.14H488.2a2.38 2.38 0 110-4.76h72.08a2.38 2.38 0 012.38 2.38 2.386 2.386 0 01-2.38 2.38z"/></g><g class="st8"><path class="st5" d="M560.28 240.22H488.2a2.38 2.38 0 110-4.76h72.08a2.38 2.38 0 012.38 2.38 2.386 2.386 0 01-2.38 2.38z"/></g><g class="st8"><path class="st5" d="M560.28 255.3H488.2a2.38 2.38 0 110-4.76h72.08a2.38 2.38 0 012.38 2.38c-.01 1.31-1.07 2.38-2.38 2.38z"/></g><g class="st8"><path class="st5" d="M560.28 270.37H488.2a2.38 2.38 0 110-4.76h72.08a2.38 2.38 0 012.38 2.38 2.386 2.386 0 01-2.38 2.38z"/></g><g class="st8"><path class="st5" d="M560.28 285.45H488.2a2.38 2.38 0 110-4.76h72.08a2.38 2.38 0 012.38 2.38 2.386 2.386 0 01-2.38 2.38z"/></g><path class="st5" d="M578.34 96.82v14.8H470.13v-14.8c0-2.95 2.39-5.34 5.34-5.34H573c2.95 0 5.34 2.39 5.34 5.34z"/><path class="st9" d="M552.14 100.58c0 1.94-1.58 3.52-3.52 3.52s-3.52-1.58-3.52-3.52 1.58-3.52 3.52-3.52 3.52 1.58 3.52 3.52z"/><path class="st4" d="M563.54 100.58c0 1.94-1.58 3.52-3.52 3.52s-3.52-1.58-3.52-3.52 1.58-3.52 3.52-3.52 3.52 1.58 3.52 3.52z"/><path class="st10" d="M574.46 100.58a3.519 3.519 0 11-7.04 0c0-1.94 1.58-3.52 3.52-3.52s3.52 1.58 3.52 3.52z"/><path class="st4" d="M540.13 164.31h-31.8c-4.05 0-7.36-3.31-7.36-7.36v-.5c0-4.05 3.31-7.36 7.36-7.36h31.8c4.05 0 7.36 3.31 7.36 7.36v.5c0 4.05-3.31 7.36-7.36 7.36z"/><path class="st11" d="M491.12 131.92h3.02v21.09h-3.02z"/><path class="st12" d="M496.04 131.92c0 1.88-1.53 3.41-3.41 3.41-1.88 0-3.41-1.53-3.41-3.41 0-1.88 1.53-3.41 3.41-3.41 1.88 0 3.41 1.53 3.41 3.41zm-1.9 15.16v2.22c-.76.23-1.99.59-3.02.9v-2.41s2.05-.55 3.02-.71zm-5.21 11.96c0 1.61-1.12 2.96-2.61 3.32a3.44 3.44 0 01-1.42.03 3.415 3.415 0 01-2.79-3.36c0-1.66 1.18-3.04 2.75-3.35.22-.04.44-.07.67-.07.27 0 .54.03.8.09 1.48.38 2.6 1.73 2.6 3.34z"/><path class="st11" d="M513.27 159.04c0 2.74-1.12 5.22-2.92 7.02a9.92 9.92 0 01-7.02 2.92h-8.45c-.59 0-1.17-.05-1.73-.15-4.65-.82-8.22-4.91-8.22-9.79 0-2.74 1.12-5.22 2.92-7.02a9.952 9.952 0 014.99-2.71c.66-.14 1.34-.21 2.04-.21h8.45c5.46-.01 9.94 4.47 9.94 9.94z"/><path class="st12" d="M498.25 168.49c-.02.17-.03.34-.06.49h-3.33c-.59 0-1.17-.05-1.73-.15-1.34-1.99-2.97-5.49-3.33-9.79-.43-5.09 1.76-8.4 3.02-9.73.66-.14 1.34-.21 2.04-.21h2.69c2.21 4.04 1 15.94.7 19.39z"/><path class="st11" d="M555.35 131.92h3.02v21.09h-3.02z"/><path class="st12" d="M553.45 131.92c0 1.88 1.53 3.41 3.41 3.41s3.41-1.53 3.41-3.41c0-1.88-1.53-3.41-3.41-3.41s-3.41 1.53-3.41 3.41zm1.9 15.16v2.22c.76.23 1.99.59 3.02.9v-2.41s-2.05-.55-3.02-.71zm5.21 11.96c0 1.88 1.53 3.41 3.41 3.41 1.88 0 3.41-1.53 3.41-3.41 0-1.88-1.53-3.41-3.41-3.41-1.88 0-3.41 1.52-3.41 3.41z"/><path class="st11" d="M536.23 159.04c0 2.74 1.12 5.22 2.92 7.02a9.92 9.92 0 007.02 2.92h8.45c.59 0 1.17-.05 1.73-.15 4.65-.82 8.22-4.91 8.22-9.79 0-2.74-1.12-5.22-2.92-7.02a9.952 9.952 0 00-4.99-2.71c-.66-.14-1.34-.21-2.04-.21h-8.45c-5.47-.01-9.94 4.47-9.94 9.94z"/><path class="st12" d="M551.24 168.49c.02.17.03.34.06.49h3.33c.59 0 1.17-.05 1.73-.15 1.34-1.99 2.97-5.49 3.33-9.79.43-5.09-1.76-8.4-3.02-9.73-.66-.14-1.34-.21-2.04-.21h-2.69c-2.21 4.04-1 15.94-.7 19.39z"/><path class="st9" d="M556.63 158.26c0 1.44-.16 2.84-.46 4.19v.01c-.82 3.69-2.68 6.99-5.27 9.58-3.53 3.53-8.41 5.73-13.77 5.73h-25c-9.29 0-17.12-6.58-19.05-15.32-.3-1.35-.46-2.75-.46-4.19 0-3.39.87-6.58 2.41-9.36.89-1.62 2.01-3.11 3.32-4.41 3.54-3.53 8.41-5.73 13.78-5.73h25c7.23 0 13.58 3.99 16.94 9.88l.01.01c1.62 2.83 2.55 6.12 2.55 9.61z"/><path class="st12" d="M508.58 162.35c-3.12 0-5.65-2.54-5.65-5.65 0-3.12 2.54-5.65 5.65-5.65h31.31c3.12 0 5.65 2.54 5.65 5.65 0 3.12-2.54 5.65-5.65 5.65h-31.31z"/><path class="st7" d="M513.25 159.11a3.41 3.41 0 01-4.82 0 3.41 3.41 0 010-4.82 3.41 3.41 0 014.82 0 3.41 3.41 0 010 4.82z"/><path class="st13" d="M513.25 159.11a3.41 3.41 0 01-4.82 0l4.82-4.82a3.41 3.41 0 010 4.82z"/><path class="st7" d="M540.83 159.11a3.41 3.41 0 01-4.82 0 3.41 3.41 0 010-4.82 3.41 3.41 0 014.82 0 3.41 3.41 0 010 4.82z"/><path class="st13" d="M540.83 159.11a3.41 3.41 0 01-4.82 0l4.82-4.82a3.41 3.41 0 010 4.82z"/><path class="st4" d="M534.18 172.73h-20.7c-1.65 0-3-1.35-3-3v-.2c0-1.65 1.35-3 3-3h20.7c1.65 0 3 1.35 3 3v.2c0 1.65-1.35 3-3 3z"/><path class="st13" d="M535.01 169.64c0 .1-.01.19-.03.29-.06.33-.22.63-.45.86-.29.3-.7.48-1.15.48h-19.1c-.8 0-1.47-.58-1.6-1.34-.02-.09-.03-.19-.03-.29 0-.45.18-.85.48-1.15.29-.3.7-.48 1.15-.48h19.1c.9 0 1.63.73 1.63 1.63z"/><path class="st12" d="M524.81 186.39h-.36a5.26 5.26 0 01-5.26-5.26v-3.36h10.88v3.36c0 2.9-2.36 5.26-5.26 5.26z"/><path class="st7" d="M116.05 102.57V226.1c0 6.64 5.38 12.03 12.03 12.03h97.83c6.64 0 12.03-5.38 12.03-12.03V102.57H116.05z"/><path class="st5" d="M237.93 98.02v16.67H116.05V98.02c0-3.32 2.69-6.01 6.01-6.01h109.86c3.32 0 6.01 2.69 6.01 6.01z"/><circle class="st9" cx="204.45" cy="102.25" r="3.96"/><path class="st4" d="M221.26 102.25c0 2.19-1.77 3.96-3.96 3.96s-3.96-1.77-3.96-3.96 1.77-3.96 3.96-3.96 3.96 1.78 3.96 3.96z"/><circle class="st10" cx="229.6" cy="102.25" r="3.96"/><g class="st8"><path class="st5" d="M220.2 180.75h-85.44a2.39 2.39 0 100 4.78h85.44a2.39 2.39 0 100-4.78z"/></g><g class="st8"><path class="st5" d="M220.2 192.7h-85.44a2.39 2.39 0 100 4.78h85.44a2.39 2.39 0 100-4.78z"/></g><g class="st8"><path class="st5" d="M220.2 204.66h-85.44a2.39 2.39 0 100 4.78h85.44a2.39 2.39 0 002.39-2.39c0-1.33-1.07-2.39-2.39-2.39z"/></g><g class="st8"><path class="st5" d="M220.2 216.61h-85.44a2.39 2.39 0 100 4.78h85.44a2.39 2.39 0 100-4.78z"/></g><path class="st12" d="M167.4 143.74h20.17v1.51H167.4zm0 3.06h20.17v1.51H167.4zm.1 3.29h20.17v1.51H167.5zm-.1 3.23h20.17v1.51H167.4zm0 3.05h20.17v1.51H167.4zm0 3.5h20.17v1.51H167.4z"/><path class="st9" d="M171.45 151.5c0 .27-.01.53-.02.8a18.93 18.93 0 01-4.02 10.93c-.01.01-.02.03-.03.04-.34.43-.7.85-1.08 1.25-.01.01-.02.03-.04.04-3.1 3.29-7.37 5.48-12.14 5.9-.06.01-.11.01-.17.01-.27.02-.54.04-.82.05-.23.01-.46.01-.69.01h-.46c-.14 0-.29-.01-.43-.02a19.015 19.015 0 01-13.02-6l-.04-.04c-.08-.09-.17-.18-.25-.28-.1-.1-.19-.21-.28-.32l-.17-.2c-.05-.06-.1-.11-.14-.17l-.23-.29c-.01-.01-.02-.03-.03-.04a18.944 18.944 0 01-3.99-10.89c-.01-.26-.02-.53-.02-.8s.01-.53.02-.8c.16-3.83 1.45-7.37 3.54-10.29.01-.01.02-.03.03-.04l.09-.12.15-.21c.01-.01.02-.02.02-.03l.24-.3c.09-.11.17-.22.26-.32.09-.11.18-.22.27-.32a18.996 18.996 0 0113.54-6.58c.14-.01.29-.01.43-.02h.47c.23 0 .45.01.68.01.27.01.55.02.82.05.06 0 .11.01.17.02 5.06.45 9.55 2.88 12.69 6.51l.04.04c.35.41.68.83 1 1.27.01.02.02.03.03.05 2.1 2.92 3.39 6.46 3.54 10.3.03.27.04.53.04.8z"/><circle class="st7" cx="152.41" cy="151.81" r="10.33"/><path class="st14" d="M152.41 157.76c-3.28 0-5.96-2.67-5.96-5.96 0-3.28 2.67-5.96 5.96-5.96 3.28 0 5.96 2.67 5.96 5.96-.01 3.29-2.68 5.96-5.96 5.96z"/><path class="st10" d="M152.41 154.22c-1.33 0-2.42-1.08-2.42-2.42 0-1.33 1.08-2.42 2.42-2.42 1.33 0 2.42 1.08 2.42 2.42a2.428 2.428 0 01-2.42 2.42z"/><path class="st9" d="M221.6 151.5c0 .27-.01.53-.02.8a18.93 18.93 0 01-4.02 10.93c-.01.01-.02.03-.03.04-.34.43-.7.85-1.08 1.25-.01.01-.02.03-.04.04-3.1 3.29-7.37 5.48-12.14 5.9-.06.01-.11.01-.17.01-.27.02-.54.04-.82.05-.23.01-.46.01-.69.01h-.46c-.14 0-.29-.01-.43-.02a19.015 19.015 0 01-13.02-6l-.04-.04c-.08-.09-.17-.18-.25-.28-.1-.1-.19-.21-.28-.32l-.17-.2c-.05-.06-.1-.11-.14-.17l-.23-.29c-.01-.01-.02-.03-.03-.04a18.944 18.944 0 01-3.99-10.89c-.01-.26-.02-.53-.02-.8s.01-.53.02-.8c.16-3.83 1.45-7.37 3.54-10.29.01-.01.02-.03.03-.04l.09-.12.15-.21c.01-.01.02-.02.02-.03l.24-.3c.09-.11.17-.22.26-.32.09-.11.18-.22.27-.32a18.996 18.996 0 0113.54-6.58c.14-.01.29-.01.43-.02h.47c.23 0 .45.01.68.01.27.01.55.02.82.05.06 0 .11.01.17.02 5.06.45 9.55 2.88 12.69 6.51l.04.04c.35.41.68.83 1 1.27.01.02.02.03.03.05 2.1 2.92 3.39 6.46 3.54 10.3.04.27.04.53.04.8z"/><circle class="st7" cx="202.56" cy="151.81" r="10.33"/><path class="st14" d="M202.56 157.76c-3.28 0-5.96-2.67-5.96-5.96 0-3.28 2.67-5.96 5.96-5.96 3.28 0 5.96 2.67 5.96 5.96s-2.67 5.96-5.96 5.96z"/><path class="st10" d="M202.56 154.22c-1.33 0-2.42-1.08-2.42-2.42 0-1.33 1.08-2.42 2.42-2.42 1.33 0 2.42 1.08 2.42 2.42 0 1.34-1.08 2.42-2.42 2.42z"/><ellipse class="st3" cx="364.87" cy="432.53" rx="121.72" ry="10.28"/><path class="st9" d="M298.74 406.89c-.83 0-1.5-.67-1.5-1.5v-23.91c0-.4.16-.78.44-1.06l12.43-12.43v-13.08l-12.95-12.95c-.28-.28-.44-.66-.44-1.06v-28.02c0-.83.67-1.5 1.5-1.5s1.5.67 1.5 1.5v27.4l12.95 12.95c.28.28.44.66.44 1.06v14.32c0 .4-.16.78-.44 1.06l-12.43 12.43v23.29c0 .83-.68 1.5-1.5 1.5zm28.29 1.74c-.83 0-1.5-.67-1.5-1.5v-27.1c0-.4.16-.78.44-1.06l5.47-5.47v-16.9c0-.83.67-1.5 1.5-1.5s1.5.67 1.5 1.5v17.51c0 .4-.16.78-.44 1.06l-5.47 5.47v26.48a1.5 1.5 0 01-1.5 1.51zm29.9 0c-.83 0-1.5-.67-1.5-1.5v-61.55l-13.05-13.05c-.28-.28-.44-.66-.44-1.06v-20.41c0-.83.67-1.5 1.5-1.5s1.5.67 1.5 1.5v19.79l13.05 13.05c.28.28.44.66.44 1.06v62.17c0 .83-.67 1.5-1.5 1.5zm29.74 2.27c-.83 0-1.5-.67-1.5-1.5v-17.2l-10.03-10.03c-.28-.28-.44-.66-.44-1.06v-28.76c0-.4.16-.78.44-1.06l9.49-9.49v-17.92c0-.83.67-1.5 1.5-1.5s1.5.67 1.5 1.5v18.54c0 .4-.16.78-.44 1.06l-9.49 9.49v27.52l10.03 10.03c.28.28.44.66.44 1.06v17.82c0 .83-.67 1.5-1.5 1.5zm21.24.94c-.83 0-1.5-.67-1.5-1.5v-8.58c0-.4.16-.78.44-1.06l9.71-9.71v-14.98l-9.18-9.18c-.28-.28-.44-.66-.44-1.06v-25.63c0-.83.67-1.5 1.5-1.5s1.5.67 1.5 1.5v25.01l9.18 9.18c.28.28.44.66.44 1.06v16.23c0 .4-.16.78-.44 1.06l-9.71 9.71v7.95c0 .83-.67 1.5-1.5 1.5zm18.37-4.95c-.83 0-1.5-.67-1.5-1.5v-37.47l-6.09-6.09c-.28-.28-.44-.66-.44-1.06v-7.34c0-.4.16-.78.44-1.06l5.29-5.29v-19.61c0-.83.67-1.5 1.5-1.5s1.5.67 1.5 1.5v20.23c0 .4-.16.78-.44 1.06l-5.29 5.29v6.1l6.09 6.09c.28.28.44.66.44 1.06v38.09c0 .83-.67 1.5-1.5 1.5z"/><path class="st12" d="M304.91 310.8c0 3.69-2.99 6.68-6.69 6.68a6.68 6.68 0 01-6.68-6.68 6.68 6.68 0 016.68-6.68c3.69-.01 6.69 2.99 6.69 6.68zm34.72 42.06c0 3.69-2.99 6.69-6.68 6.69-3.69 0-6.68-2.99-6.68-6.69a6.68 6.68 0 016.68-6.68c3.69-.01 6.68 2.99 6.68 6.68zm10.5-44.12a6.68 6.68 0 01-6.68 6.68 6.68 6.68 0 01-6.68-6.68 6.68 6.68 0 016.68-6.68c3.69-.01 6.68 2.99 6.68 6.68zm42.68 13.37c0 3.69-2.99 6.68-6.69 6.68a6.68 6.68 0 01-6.68-6.68c0-3.69 2.99-6.69 6.68-6.69 3.7 0 6.69 3 6.69 6.69zm22.31 16.04c0 3.69-2.99 6.69-6.68 6.69-3.69 0-6.68-2.99-6.68-6.69a6.68 6.68 0 016.68-6.68 6.68 6.68 0 016.68 6.68zm17.04-14.26a6.68 6.68 0 01-6.68 6.68 6.68 6.68 0 01-6.68-6.68 6.68 6.68 0 016.68-6.68 6.68 6.68 0 016.68 6.68zm38.34 93.53v9.36c0 4.41-3.61 8.02-8.02 8.02h-195.2c-4.41 0-8.02-3.61-8.02-8.02v-9.36c0-4.41 3.61-8.02 8.02-8.02h195.2c4.41 0 8.02 3.61 8.02 8.02z"/><path class="st10" d="M470.5 421.77v5.01c0 4.41-3.61 8.02-8.02 8.02h-195.2c-4.41 0-8.02-3.61-8.02-8.02v-5.01H470.5z"/><path class="st12" d="M443.69 414.08H287.22c-5.48 0-9.92-4.44-9.92-9.92v-171.7c0-48.64 38.99-88.84 87.64-89.12 48.84-.28 88.67 39.37 88.67 88.15v172.67c0 5.48-4.44 9.92-9.92 9.92zm-152.46-8.69h148.45c2.89 0 5.24-2.34 5.24-5.24V232.37c0-43.85-35.15-80.08-79-80.34-44.03-.25-79.93 35.49-79.93 79.46v168.66c0 2.9 2.35 5.24 5.24 5.24z"/><path class="st9" d="M428.59 234.96v20.79H313.77c-5.33 0-9.66-4.33-9.66-9.66v-6.68c0-.39 0-.77.01-1.14.02-1.08.06-2.16.15-3.22.15-1.99.4-3.96.76-5.91a56.261 56.261 0 013.81-12.61c.47-1.09.97-2.16 1.51-3.22 1.98-3.93 4.43-7.59 7.23-10.93.93-1.11 1.9-2.19 2.93-3.22a55.98 55.98 0 015.41-4.91c1.57-1.24 3.2-2.4 4.89-3.48 1.85-1.18 3.77-2.25 5.75-3.22a57.49 57.49 0 0115.52-4.97 67.4 67.4 0 013.22-.45c2.11-.22 4.27-.35 6.44-.35h13.67c1.55 0 3.06.06 4.57.21 1.08.08 2.14.19 3.2.35 12.43 1.82 23.46 7.96 31.52 16.83.97 1.03 1.87 2.11 2.72 3.22 2 2.57 3.77 5.33 5.26 8.24a52.587 52.587 0 015.73 20.25c.08 1.06.13 2.14.15 3.22.03.28.03.57.03.86z"/><path class="st9" d="M428.6 255.75c0 3.09-1.25 5.38-3.3 8.23-.08.12-.18.25-.27.39l-10.65 10.65a27.481 27.481 0 01-19.4 8.04c-5.44 0-9.33-1.49-12.61-3.74-3.28-2.25-5.96-5.22-8.93-8.21l-.55-.55H361.8c-5.12 0-9.66-2.62-12.32-6.59-1.58-2.36-2.5-5.18-2.5-8.23h81.62z"/><path class="st4" d="M428.6 255.75c0 3.09-1.25 5.38-3.3 8.23-.08.12-.18.25-.27.39l-10.65 10.65a27.481 27.481 0 01-19.4 8.04c-5.44 0-9.33-1.49-12.61-3.74-3.28-2.25-5.96-5.22-8.93-8.21l-.55-.55H361.8c-5.12 0-9.66-2.62-12.32-6.59-1.58-2.36-2.5-5.18-2.5-8.23h81.62z"/><path class="st12" d="M418.82 270.57l-4.46 4.46a27.446 27.446 0 01-19.4 8.04c-5.44 0-9.33-1.49-12.61-3.73-3.28-2.25-5.96-5.22-8.94-8.21l-.55-.55h45.96zm-95.8-24.81h-3.22c0-4.14-3.36-7.5-7.5-7.5h-8.18c.02-1.08.06-2.16.14-3.22h8.03c5.92 0 10.73 4.81 10.73 10.72zm14.96-35.14c0 2.41-.47 4.73-1.32 6.84-.45 1.13-1 2.21-1.67 3.22a18.442 18.442 0 01-15.52 8.45h-14.44c.19-1.08.42-2.16.68-3.22h13.77c8.44 0 15.29-6.86 15.29-15.29h3.21zm90.61 33.53v3.22h-21.7c-7.5-.14-13.56-6.28-13.56-13.81h3.22c0 5.84 4.75 10.59 10.59 10.59h21.45z"/><path class="st12" d="M324.04 213.3v3.22h-15.2c.47-1.1.97-2.16 1.51-3.22h13.69zm93.39-10.93h-20.48c-8.1 0-14.7 6.58-14.7 14.68h-3.22c0-3.14.82-6.09 2.25-8.66.58-1.05 1.26-2.03 2.04-2.93 3.27-3.86 8.16-6.31 13.62-6.31h17.76c.98 1.03 1.88 2.11 2.73 3.22zm6.8 11.47h-23.34v-3.22h21.82a59.26 59.26 0 011.52 3.22zm-68.91 18.11v3.22c-4.62 0-8.37 3.75-8.37 8.37v12.2h-3.22v-12.2c0-.11 0-.24.02-.35.02-1.11.21-2.17.53-3.17 1.49-4.68 5.87-8.07 11.04-8.07zm9.84-31.61v3.22c-7.21 0-13.07-5.86-13.07-13.07v-7.92a67.4 67.4 0 013.22-.45v8.37c-.01 5.44 4.4 9.85 9.85 9.85zm18.03-18.01c-.63 6.62-6.21 11.82-13.01 11.82v-3.22c5.14 0 9.35-3.94 9.8-8.95 1.08.07 2.14.19 3.21.35zm-32.72 31.1h-3.22c0-6.1-4.97-11.06-11.08-11.06h-18.6c.93-1.11 1.9-2.19 2.93-3.22h15.67c7.88 0 14.3 6.41 14.3 14.28z"/><path class="st12" d="M384.06 208.7h-.29c-5.83 0-10.57-4.74-10.57-10.57h3.22c0 4.05 3.3 7.35 7.35 7.35h.29v3.22zm-38.56 34.65c-5.02 0-9.11-4.09-9.11-9.11v-5.65h3.22v5.65c0 3.25 2.64 5.89 5.89 5.89v3.22zm34.15 27.22h-3.22v-17.35c0-2.33-1.9-4.23-4.23-4.23-4.11 0-7.45-3.34-7.45-7.45v-6.37h3.22v6.37c0 2.33 1.9 4.23 4.23 4.23 4.11 0 7.45 3.34 7.45 7.45v17.35z"/><path class="st12" d="M378.04 262.54v-3.22c4.14 0 7.51-3.37 7.51-7.51v-1.74h3.22v1.74c0 5.91-4.82 10.73-10.73 10.73zm-3.56-30.06h-3.22c0-6.51-5.3-11.81-11.81-11.81h-25.34v-3.22h25.34c8.29.01 15.03 6.75 15.03 15.03z"/><path class="st12" d="M382.34 226.04h-12.16v-3.22h12.16c4.73 0 8.58-3.85 8.58-8.58h3.22c0 6.5-5.3 11.8-11.8 11.8zm35.81 32.87c-6.21 0-11.27-5.06-11.27-11.27v-1.88h3.22v1.88c0 4.44 3.61 8.05 8.05 8.05v3.22zm-11.8-35.42h-2.82v-3.22h2.82c4.44 0 8.05-3.61 8.05-8.05h3.22c-.01 6.22-5.06 11.27-11.27 11.27zm22.22 10.6h-16.33v-3.22h16.18c.09 1.06.14 2.14.15 3.22zm-81.98-38.37h-3.22a4.96 4.96 0 00-4.96-4.96h-7.6c1.85-1.18 3.77-2.25 5.75-3.22h1.85c4.51 0 8.18 3.67 8.18 8.18zm-33.02 60.02v9.36c0 .91.75 1.63 1.66 1.6h.03c.85-.04 1.53-.74 1.53-1.59v-9.36h-3.22zm6.18 0v9.36c0 .91.75 1.63 1.66 1.6h.03c.85-.04 1.53-.74 1.53-1.59v-9.36h-3.22zm6.17 0v9.36c0 .91.75 1.63 1.66 1.6h.03c.85-.04 1.53-.74 1.53-1.59v-9.36h-3.22zm6.18 0v9.36c0 .91.75 1.63 1.66 1.6h.03c.85-.04 1.53-.74 1.53-1.59v-9.36h-3.22zm6.17 0v9.36c0 .91.75 1.63 1.66 1.6h.03c.85-.04 1.53-.74 1.53-1.59v-9.36h-3.22z"/><ellipse class="st3" cx="178.08" cy="429.36" rx="76.06" ry="11.14"/><path class="st12" d="M187.5 429.88l.35-5.61.05-.82.1-1.68s6.3-2.89 19.48-10.41c-8.97 2.83-18.79 5.17-25.71 4.68-.65-.04-1.27-.11-1.86-.21-.36-.06-.71-.12-1.04-.2-14.86-3.42-10.37-27.7 2.41-31.07 0 0 52.1-12.27 73.31-.71 20.93 11.41 6.41 36.44-67.09 46.03z"/><path class="st10" d="M237.79 396.84c-.31 1.54-13.44 9.19-20.35 13.02-5.78 3.21-19.51 10.62-29.59 14.41l.05-.82c9.92-3.78 23.26-10.97 28.92-14.1 10.51-5.82 18.24-10.72 19.91-12.29-.23.06-.56.16-1.03.33-32.48 11.63-47.25 16.56-53.93 18.65-.65-.04-1.27-.11-1.86-.21 5.68-1.73 19.98-6.42 55.54-19.15 1.51-.54 1.94-.52 2.19-.31.12.11.18.29.15.47z"/><path class="st15" d="M186.26 422.05l-7.36 1.46s-3.23 4.73-6.74 8.86l13.71-1.99.39-8.33z"/><path class="st14" d="M190.18 431.94c-2.02.91-3.82 1.29-5.92.89l-1.18-11.82c2.07-.94 3.94-1.1 6-1.06l1.1 11.99z"/><path class="st4" d="M147.57 434.87c-.44-1.71 26.06-21.39 26.06-21.39s6.13 6.05 7.96 8.66c1.06 1.51-3.44 1.52-6.59 7.32 0 0 .22 3.36-1.07 4.31-.48.35-2.92.64-6.01.98-.5.05-1.02.11-1.55.17l-1.12.12c-.61.07-1.24.14-1.86.21-.23.03-.47.06-.7.08-.57.07-1.14.14-1.7.22-3.38.45-6.45 1.02-7.85 1.82-3.73 2.12-5.13-.78-5.57-2.5z"/><path class="st7" d="M163.4 435.25c.42-.27.87-.71 1.17-1.42.62-1.46.2-3.74.19-3.76a.582.582 0 01.47-.69c.32-.06.63.15.69.47.02.11.49 2.65-.26 4.44-.12.28-.25.53-.4.75-.72.49-1.4.8-1.86.21zm2.98-.33c.23-.24.45-.56.62-.96.62-1.47.2-3.74.19-3.77a.582.582 0 01.47-.69c.32-.06.63.15.69.47.02.11.49 2.65-.26 4.44-.05.12-.1.23-.16.33-.46.32-.92.74-1.55.18zm-5.38.63c.32-.27.64-.66.87-1.2.62-1.47.2-3.74.19-3.76-.03-.16 0-.31.09-.43.08-.13.22-.23.39-.26.32-.06.63.15.69.47.02.11.49 2.65-.26 4.44-.08.19-.17.37-.26.53-.68.66-1.26.83-1.71.21z"/><path class="st12" d="M175.97 415.63c-.37.09-.76.16-1.16.22-.6.1-1.23.16-1.89.2-6.91.44-16.66-1.88-25.56-4.69 13.18 7.52 19.48 10.41 19.48 10.41l.11 1.75.05.82.34 5.54c-73.5-9.59-88.02-34.62-67.09-46.03 21.21-11.56 73.31.71 73.31.71 12.78 3.36 17.27 27.64 2.41 31.07z"/><path class="st10" d="M118.96 397.39c-.47-.17-.8-.27-1.03-.33 1.68 1.57 9.4 6.47 19.92 12.29 5.69 3.15 19.17 10.41 29.1 14.17l.05.82c-10.1-3.77-23.96-11.25-29.78-14.48-6.9-3.83-20.04-11.48-20.35-13.02-.04-.18.02-.36.16-.47.25-.21.68-.23 2.19.31 35.68 12.78 49.96 17.46 55.6 19.17-.6.1-1.23.16-1.89.2-6.68-2.09-21.44-7.02-53.97-18.66z"/><path class="st15" d="M168.58 422.05l7.36 1.46s3.23 4.73 6.74 8.86l-13.71-1.99-.39-8.33z"/><path class="st14" d="M164.67 431.94c2.02.91 3.82 1.29 5.92.89l1.18-11.82c-2.07-.94-3.94-1.1-6-1.06l-1.1 11.99z"/><path class="st9" d="M207.27 434.87c.44-1.71-26.06-21.39-26.06-21.39s-6.13 6.05-7.96 8.66c-1.06 1.51 3.44 1.52 6.59 7.32 0 0-.22 3.36 1.07 4.31.48.35 2.92.64 6.01.98.5.05 1.02.11 1.55.17l1.12.12c.61.07 1.24.14 1.86.21.23.03.47.06.7.08.57.07 1.14.14 1.7.22 3.38.45 6.45 1.02 7.85 1.82 3.74 2.12 5.13-.78 5.57-2.5z"/><path class="st7" d="M191.44 435.25c-.42-.27-.87-.71-1.17-1.42-.62-1.46-.2-3.74-.19-3.76a.582.582 0 00-.47-.69.59.59 0 00-.69.47c-.02.11-.49 2.65.26 4.44.12.28.25.53.4.75.72.49 1.4.8 1.86.21zm-2.97-.33c-.23-.24-.45-.56-.62-.96-.62-1.47-.2-3.74-.19-3.77a.582.582 0 00-.47-.69.59.59 0 00-.69.47c-.02.11-.49 2.65.26 4.44.05.12.1.23.16.33.45.32.91.74 1.55.18zm5.37.63c-.32-.27-.64-.66-.87-1.2-.62-1.47-.2-3.74-.19-3.76.03-.16 0-.31-.09-.43a.575.575 0 00-.39-.26.59.59 0 00-.69.47c-.02.11-.49 2.65.26 4.44.08.19.17.37.26.53.68.66 1.26.83 1.71.21z"/><path class="st9" d="M148.88 343.88c.01.04.01.08.02.12v.01l.01.05c.03.17.05.35.07.52.07.52.14 1.03.2 1.52.01.04.01.08.01.13.02.19.05.38.07.56.01.11.02.22.04.33.26 2.27.39 4.26.33 5.84-.35 9.56-1.64 27.22-2.52 41.17 20.6 6.28 40.43 6.27 59.5 0-.78-10.9-2.16-23.93-2.78-34.96-.05-.89-.1-1.76-.14-2.62-.14-2.99-.21-5.79-.19-8.32.14-15.32 3.72-43.32.33-47.61-3.43-4.33-21.95-7.64-21.95-7.64l-14.88-.21s-15.53 4.36-20.72 9.03c-3.63 3.27.11 25.12 2.27 39.78.11.78.22 1.55.33 2.3z"/><path class="st4" d="M153.1 337.7l-1.27 3.13v.01l-1.28 3.15v.01l-1.26 3.11c-.01-.11-.02-.22-.04-.33-.02-.19-.04-.37-.07-.56 0-.04-.01-.08-.01-.13-.06-.5-.13-1.01-.2-1.52l.45-1.12c.01-.01.01-.03.02-.04l2.5-6.17c.13-.32.5-.48.82-.34.32.12.47.49.34.8z"/><path class="st4" d="M149.99 344.28a.619.619 0 01-.42-1.05l3.89-4.09c.24-.25.63-.26.88-.02.25.24.26.63.02.88l-3.89 4.09c-.13.13-.3.19-.48.19zm49.71-5.29l1.27 3.13 1.28 3.15v.01l1.26 3.11c.01-.11.02-.22.04-.33.02-.19.04-.37.07-.56 0-.04.01-.08.01-.13.06-.5.13-1.01.2-1.52l-.45-1.12c0-.02-.01-.03-.01-.05l-2.5-6.17a.621.621 0 00-.82-.34c-.33.14-.48.51-.35.82z"/><path class="st4" d="M202.81 345.57a.619.619 0 00.42-1.05l-3.89-4.09a.619.619 0 00-.88-.02c-.25.24-.26.63-.02.88l3.89 4.09c.13.13.3.19.48.19zm-23.58-38.3c-2.94 0-5.96-.65-8.95-1.95-3.97-1.72-6.47-3.94-6.57-4.04a.62.62 0 01-.05-.88.62.62 0 01.88-.05c.1.09 9.78 8.6 20.86 4.58.32-.12.68.05.8.37s-.05.68-.37.8c-2.12.79-4.33 1.17-6.6 1.17zm13.04 98.16c-7.74 0-15.08-2.76-20.35-5.41-7.26-3.65-12.25-7.89-12.3-7.93a.63.63 0 01-.07-.88.63.63 0 01.88-.07c.05.04 4.94 4.2 12.07 7.78 6.54 3.28 16.35 6.75 25.98 4.59.34-.07.67.14.75.47.08.34-.14.67-.47.75-2.17.49-4.35.7-6.49.7z"/><path class="st10" d="M162.39 272.08s-3.04-5.81-1.67-8.39c1.37-2.58.79-3.17 2.66-6.25 1.88-3.08 3.75-.42 7.86-1.75s5.88-7.33 10.91-5.83 2.04 6.86 2.04 6.86 1.02-2.19 4.05-.69-.4 5.1-.4 5.1 1.94 2.65 1.69 4.65c-.26 2-2.52 6.31-2.52 6.31h-24.62z"/><path class="st15" d="M163.61 274.39s-3.19-1.3-3.98 2.46 3.16 7.71 6.32 6.42c.01 0-.73-7.29-2.34-8.88z"/><path class="st16" d="M165.14 281.86c-.19 0-.37-.15-.4-.34-.49-2.78-2.61-4.23-2.63-4.25a.418.418 0 01.47-.69c.1.07 2.43 1.66 2.99 4.8.04.23-.11.44-.34.48h-.09z"/><path class="st16" d="M161.93 279.83c-.15 0-.29-.08-.36-.22-.11-.2-.03-.46.18-.56.06-.03 1.41-.73 2.51-.53.23.04.38.26.33.49-.04.23-.26.38-.49.33-.68-.12-1.65.28-1.97.45-.07.03-.14.04-.2.04z"/><path class="st15" d="M186.14 274.39s3.19-1.3 3.98 2.46-3.16 7.71-6.32 6.42c-.01 0 .73-7.29 2.34-8.88z"/><path class="st16" d="M184.62 281.86c.19 0 .37-.15.4-.34.49-2.78 2.61-4.23 2.63-4.25a.418.418 0 00-.47-.69c-.1.07-2.43 1.66-2.99 4.8-.04.23.11.44.34.48h.09z"/><path class="st16" d="M187.83 279.83c.15 0 .29-.08.36-.22.11-.2.03-.46-.18-.56-.06-.03-1.41-.73-2.51-.53-.23.04-.38.26-.33.49.04.23.26.38.49.33.68-.12 1.65.28 1.97.45.06.03.13.04.2.04z"/><path class="st15" d="M183.01 296.43s-2.99 2.49-7.87 2.49-7.87-2.49-7.87-2.49l.19-1.86.92-9.3h13.32l.63 5.39.68 5.77z"/><path class="st16" d="M182.33 290.66c-1.52 1.65-5.81 5-14.88 3.92l.92-9.3h13.32l.64 5.38z"/><path class="st15" d="M186.08 278.13c-.28 1.31-.62 2.65-1.04 3.97-1.96 6.23-5.51 11.95-11.09 10.82-4.66-.94-7.48-5.76-9.18-10.86-.44-1.31-.8-2.65-1.11-3.93-.66-2.84-1.03-5.48-1.21-7.24-.16-1.46.48-2.89 1.67-3.73 9.36-6.62 21.88-2.27 22.73 1.51.34 1.44.13 5.26-.77 9.46z"/><path class="st16" d="M170.09 280.99c.01.66-1.03 1.21-2.32 1.22-1.29.02-2.34-.5-2.35-1.16-.01-.66 1.03-1.21 2.32-1.22 1.29-.02 2.34.5 2.35 1.16zm14.58 0c.01.66-1.03 1.21-2.32 1.22-1.29.02-2.34-.5-2.35-1.16-.01-.66 1.03-1.21 2.32-1.22 1.29-.02 2.34.5 2.35 1.16z"/><path class="st10" d="M171.49 277.41c.01.65-.27 1.18-.63 1.19-.36.01-.66-.52-.67-1.17-.01-.65.27-1.18.63-1.19.35 0 .66.52.67 1.17zm-3.36-1.67a.568.568 0 01-.32-.9c.68-.85 2.54-2.19 4.7-1.16.28.13.4.47.27.75s-.47.4-.75.27c-1.9-.91-3.28.78-3.33.85-.15.16-.37.23-.57.19zm11.08 1.67c-.01.65.27 1.18.63 1.19.36.01.66-.52.67-1.17.01-.65-.27-1.18-.63-1.19-.36 0-.66.52-.67 1.17zm3.36-1.67a.568.568 0 00.32-.9c-.68-.85-2.54-2.19-4.7-1.16-.28.13-.4.47-.27.75s.47.4.75.27c1.9-.91 3.28.78 3.33.85.14.16.37.23.57.19z"/><path class="st16" d="M175.26 286.88h-.12c-2.31-.04-4.13-1.25-4.21-1.3a.373.373 0 01-.1-.52c.12-.17.35-.22.52-.1.02.01 1.71 1.14 3.8 1.17h.11c2.27 0 3.63-1.13 3.64-1.15.16-.13.39-.12.53.04.13.16.12.39-.04.53-.07.06-1.58 1.33-4.13 1.33zm.55-3.62c-.44 0-.92-.1-1.18-.16a.384.384 0 01-.28-.45c.05-.2.25-.32.45-.28.48.12 1.03.17 1.25.13-.03-.62-.44-3.43-.85-5.93-.03-.2.11-.4.31-.43.2-.03.4.11.43.31.22 1.33.92 5.73.85 6.24-.02.17-.11.31-.26.41-.16.12-.43.16-.72.16z"/><path class="st10" d="M164.59 274.17c.09-.5.57-2.61.49-3.12-.12-.74-.09-1.92.88-2.92 1.38-1.42.74-1.17 1.99-1.83 1.68-.88 6.84-1.73 9.88-.94 3.04.79 4.57 1.24 5.96 1.5 1.39.26 1.25 2.37 1.53 2.79.28.41.03 8.5.69 8.83.67.33 1.9-7.97.99-10.93-.91-2.96-8.39-7.93-17.54-4.92-9.15 3-7.96 6.26-7.52 7.46.43 1.21 1.39 8.1 2.02 8.3.33.11.54-3.69.63-4.22z"/><path class="st7" d="M170.56 280.92c-2.26 0-4.09-1.84-4.09-4.09 0-2.26 1.84-4.09 4.09-4.09 2.26 0 4.09 1.84 4.09 4.09.01 2.25-1.83 4.09-4.09 4.09zm0-7.69c-1.98 0-3.59 1.61-3.59 3.59 0 1.98 1.61 3.59 3.59 3.59 1.98 0 3.59-1.61 3.59-3.59a3.58 3.58 0 00-3.59-3.59zm9.61 7.69c-2.26 0-4.09-1.84-4.09-4.09 0-2.26 1.84-4.09 4.09-4.09s4.09 1.84 4.09 4.09-1.84 4.09-4.09 4.09zm0-7.69c-1.98 0-3.59 1.61-3.59 3.59 0 1.98 1.61 3.59 3.59 3.59 1.98 0 3.59-1.61 3.59-3.59 0-1.98-1.61-3.59-3.59-3.59z"/><path class="st7" d="M174.41 277.08a.23.23 0 01-.2-.11.255.255 0 01.06-.35c.44-.31 1.46-.7 2.23.02.1.09.11.25.01.35-.09.1-.25.11-.35.01-.67-.62-1.59.02-1.6.02a.24.24 0 01-.15.06zm9.6-.86a.27.27 0 01-.15-.05.243.243 0 01-.04-.35c.07-.09 1.83-2.32 3.82-2.14.14.01.24.13.23.27-.01.14-.13.24-.27.23-1.72-.15-3.36 1.93-3.38 1.95-.06.06-.13.09-.21.09zm-17.19 0a.25.25 0 01-.18-.08c-.02-.02-1.86-1.97-4.18-1.97h-.02c-.14 0-.25-.11-.25-.25s.11-.25.25-.25h.02c2.55 0 4.47 2.04 4.55 2.13.09.1.09.26-.01.35-.06.05-.12.07-.18.07z"/><path class="st9" d="M162.51 313.69l-.62 1.22-.64 1.28-1.26 2.59c-.84 1.73-1.66 3.47-2.47 5.22a328.03 328.03 0 00-4.67 10.54c-1.48 3.53-2.9 7.07-4.19 10.61-.65 1.77-1.26 3.54-1.83 5.3-.58 1.76-1.09 3.51-1.55 5.24-.24.87-.44 1.72-.64 2.57-.12.45-.19.91-.23 1.41-.06.99.05 2.12.39 3.36.34 1.24.88 2.57 1.61 3.92.72 1.35 1.6 2.72 2.61 4.07 2 2.7 4.45 5.31 7.1 7.77a83.42 83.42 0 004.13 3.58c.71.58 1.43 1.14 2.16 1.69.36.27.73.54 1.09.81l1.01.72.29.21c2.97 2.12 3.66 6.24 1.54 9.2-2 2.81-5.82 3.56-8.73 1.85l-.78-.46-.7-.43c-.46-.28-.92-.57-1.37-.86a93.41 93.41 0 01-7.8-5.58c-3.35-2.68-6.59-5.61-9.58-9.04-1.49-1.72-2.92-3.57-4.23-5.61a35.35 35.35 0 01-3.42-6.79c-.92-2.5-1.56-5.31-1.66-8.27-.05-1.48.03-2.99.26-4.49.17-1.1.34-2.18.55-3.24.4-2.13.85-4.21 1.34-6.25.49-2.05 1.02-4.06 1.59-6.06 1.12-3.99 2.35-7.9 3.64-11.77 1.3-3.87 2.66-7.7 4.09-11.5.71-1.9 1.44-3.8 2.18-5.69l1.13-2.84.58-1.42.61-1.47c2.16-5.2 8.13-7.66 13.33-5.49 5.2 2.16 7.66 8.13 5.49 13.33-.1.23-.2.46-.31.68l-.04.09z"/><path class="st4" d="M138.76 358.67l3 1.56h.01l3.02 1.57 3.24 1.68v-.01c-.02-.03-.04-.07-.06-.1-.41-.64-.82-1.3-1.25-1.99l-1.43-.74c-.01 0-.02-.01-.02-.01-.01 0-.01 0-.01-.01l-5.91-3.06a.616.616 0 00-.84.27c-.18.3-.06.68.25.84z"/><path class="st4" d="M145.39 361.64c.11-.1.18-.24.2-.39a.627.627 0 00-.56-.69l-5.62-.58a.627.627 0 10-.13 1.25l5.61.58c.2.01.37-.05.5-.17z"/><path class="st9" d="M208 305.08l.61 1.47.58 1.42 1.13 2.84c.74 1.89 1.47 3.79 2.18 5.69 1.43 3.8 2.79 7.63 4.09 11.5 1.29 3.87 2.53 7.78 3.64 11.77.56 1.99 1.09 4.01 1.59 6.06.5 2.04.95 4.12 1.34 6.25.2 1.06.37 2.15.55 3.24.23 1.5.32 3.01.26 4.49-.1 2.97-.73 5.77-1.66 8.27-.93 2.51-2.11 4.75-3.42 6.79s-2.74 3.89-4.23 5.61c-2.99 3.43-6.23 6.36-9.58 9.04a93.41 93.41 0 01-7.8 5.58c-.45.29-.9.57-1.37.86l-.7.43-.78.46a6.602 6.602 0 01-9.04-2.32 6.605 6.605 0 011.83-8.72l.32-.22 1.01-.72a84.17 84.17 0 003.25-2.5c1.42-1.15 2.81-2.35 4.13-3.58 2.65-2.46 5.1-5.07 7.1-7.77 1-1.35 1.88-2.72 2.61-4.07.72-1.35 1.27-2.68 1.61-3.92.34-1.24.45-2.37.39-3.36-.03-.5-.11-.96-.23-1.41-.2-.84-.4-1.7-.64-2.57-.46-1.73-.98-3.48-1.55-5.24-.57-1.76-1.18-3.53-1.83-5.3-1.29-3.54-2.7-7.08-4.19-10.61a328.03 328.03 0 00-4.67-10.54c-.81-1.75-1.63-3.49-2.47-5.22l-1.26-2.59-.64-1.28-.62-1.22-.04-.08a10.186 10.186 0 014.47-13.7c5.02-2.55 11.15-.55 13.7 4.47.12.22.23.47.33.7z"/><path class="st4" d="M213.29 358.67l-3 1.56h-.01l-3.02 1.57-3.24 1.68v-.01c.02-.03.04-.07.06-.1.41-.64.82-1.3 1.25-1.99l1.43-.74c.01 0 .02-.01.02-.01.01 0 .01 0 .01-.01l5.91-3.06c.31-.16.69-.04.84.27.18.3.06.68-.25.84z"/><path class="st4" d="M206.66 361.64a.642.642 0 01-.2-.39c-.04-.34.21-.65.56-.69l5.61-.58a.627.627 0 11.13 1.25l-5.62.58a.647.647 0 01-.48-.17z"/><path class="st14" d="M203.87 402.89h-52.93a3.22 3.22 0 01-3.1-2.38l-9.17-34.68c-.54-2.03.99-4.02 3.1-4.02h71.27c2.1 0 3.63 1.99 3.1 4.02l-9.17 34.68a3.22 3.22 0 01-3.1 2.38z"/><circle class="st12" cx="177.4" cy="383.83" r="4.94"/><path class="st10" d="M201.93 407h-48.97c-1.84 0-3.45-1.23-3.94-3.01l-.65-2.4h58.16l-.66 2.4a4.087 4.087 0 01-3.94 3.01z"/><path class="st4" d="M192.53 359.85c-10.37 0-18.2-4.6-23.11-8.68-5.82-4.84-8.79-9.85-8.92-10.06-.17-.3-.07-.68.22-.86.3-.17.68-.07.86.22.03.05 3 5.06 8.67 9.76 5.2 4.31 13.81 9.24 25.3 8.23a.627.627 0 11.11 1.25c-1.06.1-2.11.14-3.13.14z"/><path class="st12" d="M212.89 295.86c.17 0 .34-.07.48-.2l27.26-27.26c.26-.26.26-.69 0-.95a.676.676 0 00-.95 0l-27.26 27.26a.676.676 0 00.47 1.15z"/><path class="st9" d="M221.93 283.25c0 1.45 1.17 2.62 2.62 2.62 1.45 0 2.62-1.17 2.62-2.62 0-1.45-1.17-2.62-2.62-2.62-1.44 0-2.62 1.17-2.62 2.62z"/><circle transform="rotate(-67.269 244.973 261.877)" class="st9" cx="244.97" cy="261.87" r="15.87"/><path class="st7" d="M242.92 255.38c-.71.19-1.37.49-1.97.89l-1.97-1.97-2.1 2.1 2.03 2.03c-.31.51-.54 1.07-.7 1.66h-2.71v2.97h2.59c.12.65.34 1.27.64 1.84l-2.14 2.14 2.1 2.1 1.98-1.98c.67.5 1.43.88 2.26 1.1v2.71h2.97v-2.59c.78-.15 1.5-.43 2.16-.82l1.78 1.78 2.1-2.1-1.72-1.72c.49-.73.84-1.57 1-2.46h2.59v-2.97h-2.71c-.16-.59-.4-1.15-.7-1.66l2.03-2.03-2.1-2.1-1.97 1.97c-.73-.49-1.57-.84-2.46-1v-2.59h-2.97v2.7zm1.73 3.72c1.5 0 2.72 1.22 2.72 2.72 0 1.5-1.22 2.72-2.72 2.72-1.5 0-2.72-1.22-2.72-2.72.01-1.5 1.23-2.72 2.72-2.72z"/><path class="st12" d="M134.89 295.86c.17 0 .34-.07.48-.2.26-.26.26-.69 0-.95l-27.26-27.26a.676.676 0 00-.95 0c-.26.26-.26.69 0 .95l27.26 27.26c.12.13.29.2.47.2z"/><circle class="st9" cx="123.22" cy="283.25" r="2.62"/><circle transform="rotate(-67.269 105.388 262.709)" class="st9" cx="105.39" cy="262.7" r="15.87"/><path class="st7" d="M100.92 272.56c1.15.49 2.65-.15 4.22-1.79 1.47-1.53 2.88-3.79 3.98-6.36 1.1-2.57 1.75-5.15 1.84-7.27.09-2.28-.48-3.8-1.63-4.29-1.15-.49-2.65.15-4.22 1.79-1.47 1.53-2.88 3.79-3.98 6.36-1.1 2.57-1.75 5.15-1.84 7.27-.1 2.28.48 3.8 1.63 4.29zm8.04-18.85c1.48.63 1.55 5.03-.71 10.32-2.26 5.3-5.48 8.28-6.96 7.65-1.48-.63-1.55-5.03.71-10.32 2.25-5.29 5.48-8.28 6.96-7.65z"/><path class="st7" d="M108.44 270.8c1.61.68 2.9.69 3.7-.01.94-.82 1.03-2.44.24-4.58-.73-1.99-2.15-4.25-3.97-6.36-1.83-2.11-3.87-3.83-5.74-4.84-2.01-1.08-3.63-1.23-4.57-.41-.94.82-1.03 2.44-.24 4.58.73 1.99 2.15 4.25 3.97 6.36 1.83 2.11 3.87 3.83 5.74 4.84.3.17.59.31.87.42zm-7.02-15.34c.26.11.53.24.81.39 1.77.96 3.71 2.6 5.47 4.62 3.77 4.35 5.05 8.56 3.83 9.61-.61.53-1.89.34-3.5-.53-1.77-.96-3.71-2.6-5.47-4.62-1.76-2.03-3.11-4.18-3.8-6.07-.63-1.72-.64-3.01-.03-3.54.5-.44 1.46-.39 2.69.14z"/><path class="st7" d="M96.98 265.92c.28.12.58.23.9.33 2.02.65 4.67.93 7.46.79s5.4-.69 7.34-1.54c2.09-.91 3.21-2.1 3.14-3.34-.06-1.24-1.29-2.31-3.46-3.01-2.02-.65-4.67-.93-7.46-.79s-5.4.69-7.34 1.54c-2.09.91-3.2 2.1-3.14 3.34.05 1.06.95 1.99 2.56 2.68zm15.94-5.56c1.23.52 1.93 1.18 1.96 1.85.08 1.61-3.84 3.6-9.59 3.89-2.68.13-5.21-.13-7.12-.75-1.74-.56-2.77-1.35-2.81-2.16-.04-.81.9-1.7 2.58-2.43 1.84-.81 4.34-1.32 7.01-1.46 2.68-.13 5.21.13 7.12.75.31.1.59.2.85.31z"/><path class="st7" d="M102.96 261.78a2.35 2.35 0 001.24 3.08 2.35 2.35 0 003.08-1.24 2.35 2.35 0 00-1.24-3.08c-1.19-.51-2.57.04-3.08 1.24zm6.3-7.25a1.38 1.38 0 102.542 1.08 1.38 1.38 0 00-2.542-1.08zm-14.91 6.77a1.38 1.38 0 102.542 1.08 1.38 1.38 0 00-2.542-1.08zm16.54 5.36a1.38 1.38 0 101.81-.73c-.7-.29-1.51.03-1.81.73z"/><ellipse class="st3" cx="642.71" cy="435.16" rx="52.98" ry="6.57"/><path class="st4" d="M558.49 200.92c5.51 3.26 11.4 6.13 17.63 8.34a89.82 89.82 0 0019.4 4.56c2.73.33 5.29-.87 6.82-2.93l.58-.79 21.98-29.66c3.46-4.67 2.48-11.27-2.19-14.74-4.67-3.46-11.27-2.48-14.74 2.19-.26.35-.52.76-.72 1.12l-15.86 28.29c-3.76-.27-7.51-.83-11.23-1.68-5.45-1.24-10.83-3.1-16.11-5.44l-.03-.01a6.044 6.044 0 00-7.97 3.08 6.062 6.062 0 002.44 7.67z"/><path class="st15" d="M552.16 197.67c.08-.01.17-.02.25-.04 0 0 .16.13.45.34 1.39.98 5.66 3.62 8.38 1.02.21-.2.41-.41.6-.62.2-.24.39-.48.57-.73 2.1-2.95 2.02-6.35 2.02-6.35s-1.95-6.95-5.29-7.43c-1.93-.28-2.73.35-3.05.92-.24.42-.23.81-.23.81l-.6-.33c-2.14-1.18-9.4-5.11-10.63-4.74-1.45.43 6.94 6.78 6.94 6.78s-1.32.13-2.74 3.54c-1.39 3.35-.8 7.4 3.33 6.83z"/><path class="st15" d="M554.74 192.58c.17-.07.26-.25.22-.43a.364.364 0 00-.44-.27c-.03.01-1.08.19-2.76-1.1a.368.368 0 00-.52.07c-.12.16-.09.4.07.52 2.01 1.54 3.33 1.25 3.38 1.23.02 0 .04-.01.05-.02zm-.58 2.88c.15-.06.25-.22.23-.39a.363.363 0 00-.41-.32c-.03 0-1.91.2-3.24-1.07a.377.377 0 00-.53.01c-.14.15-.14.38.01.53 1.59 1.53 3.75 1.28 3.84 1.27.04-.01.07-.02.1-.03zm1.3-5.64c.43.23 1.03.14 1.67-.12 1.57-.65 3.42-2.31 3.89-2.75.15-.14.16-.37.02-.52a.377.377 0 00-.53-.02c-1.46 1.35-3.97 3.17-4.7 2.76-.25-.14-.31-.69-.17-1.51l.45-2.87c-.24.42-.23.81-.23.81l-.6-.33-.35 2.27c-.08.44-.32 1.81.55 2.28z"/><path class="st15" d="M552.17 197.67c.08-.01.16-.02.25-.04 0 0 .16.13.45.34 4.3-5.65.8-9.84.76-9.88a.366.366 0 00-.52-.04c-.16.13-.17.37-.04.52.14.17 3.2 3.88-.9 9.1z"/><path class="st10" d="M639.7 292.56l7.98 120.52-13.11-.81-28.3-150.34 30.83 1.05z"/><path class="st15" d="M646.76 412.23l.92 11.47s-3.96 2.29-10.01 1.22l-1.9-13.55 10.99.86z"/><path class="st12" d="M632.86 409.83c-.68 2.42-.27 4.73.53 7.03l15.7-.74c.5-2.3.52-4.6.13-6.9l-16.36.61z"/><path class="st4" d="M610.37 436.82c.85 1.81 38.18-.13 38.18-.13s1.18-11.09.02-14.5c-1.17-3.42-6.61.42-10.34-.44 0 0-2.24-3.1-4.05-2.99-.67.04-3.02 1.55-5.96 3.49-.48.31-.97.64-1.47.97-.35.23-.7.46-1.06.7-.58.38-1.18.77-1.77 1.16-.22.14-.45.29-.67.43-.54.35-1.09.7-1.63 1.04-3.27 2.04-6.37 3.76-8.16 4.08-4.82.84-3.94 4.37-3.09 6.19z"/><path class="st7" d="M623.91 425.07c.56-.07 1.27-.01 2.05.4 1.59.83 2.87 3.12 2.89 3.15.08.16.22.26.38.32.17.05.36.04.53-.05.33-.18.44-.59.26-.91-.06-.11-1.48-2.67-3.44-3.69-.31-.16-.61-.28-.89-.37-.98.08-1.8.3-1.78 1.15zm2.84-1.86c.38.05.8.17 1.23.4 1.6.84 2.87 3.12 2.89 3.15.09.15.22.26.39.32.17.05.36.04.52-.05.33-.18.44-.58.26-.91-.06-.11-1.48-2.67-3.44-3.69-.13-.07-.25-.13-.38-.18-.62.05-1.33.01-1.47.96zm-5.15 3.33c.47.01 1.03.11 1.62.42 1.6.84 2.87 3.12 2.88 3.15a.68.68 0 00.92.27c.32-.18.44-.59.26-.91-.06-.11-1.49-2.67-3.44-3.69-.2-.11-.41-.2-.61-.27-1.06-.11-1.69.16-1.63 1.03z"/><path class="st12" d="M675.34 413.54l-11.66.53-29.89-70.61-5.72-79.93 26.87-3.05.25-.06 1.39-.35.05-.01 4.67-.92c-1.99 16.34-5.03 76.91-5.03 76.91s5 11.94 9 26.14c4 14.21 10.07 51.35 10.07 51.35z"/><path class="st10" d="M672.74 412.77c-.04.01-.09.01-.14.01a.75.75 0 01-.74-.62c-.07-.39-7.12-39.14-11.31-51.44-2.75-8.1-9.68-24.29-9.75-24.45a.789.789 0 01-.06-.34l4.44-75.53 1.39-.35-4.31 75.79c.74 1.73 7.1 16.68 9.72 24.39 4.22 12.41 11.29 51.26 11.36 51.66a.74.74 0 01-.6.88z"/><path class="st15" d="M673.67 412.03l3.38 11.66s-3.96 2.29-10.01 1.22l-3.37-13.67 10 .79z"/><path class="st14" d="M660.49 410.78c-.58 2.8-.41 4.88 1.72 6.58l16.41-.95c.5-2.3.28-4.55-.57-6.69l-17.56 1.06z"/><path class="st9" d="M640.47 436.82c.85 1.81 38.18-.13 38.18-.13s1.19-11.09.01-14.5c-1.17-3.42-6.61.42-10.34-.44 0 0-2.24-3.1-4.05-2.99-.67.04-3.02 1.55-5.96 3.49-.48.31-.97.64-1.47.97-.35.23-.71.46-1.07.7-.58.38-1.18.77-1.77 1.16-.23.14-.45.29-.67.43-.55.35-1.09.7-1.64 1.04-3.27 2.04-6.37 3.76-8.16 4.08-4.79.84-3.91 4.37-3.06 6.19z"/><path class="st7" d="M654.02 425.07c.56-.07 1.27-.01 2.05.4 1.59.83 2.87 3.12 2.89 3.15a.675.675 0 00.91.27c.33-.18.44-.59.26-.91-.06-.11-1.48-2.67-3.44-3.69a5.1 5.1 0 00-.89-.37c-.99.08-1.81.3-1.78 1.15zm2.83-1.86c.38.05.8.17 1.23.4 1.6.84 2.87 3.12 2.88 3.15.09.15.23.26.39.32.17.05.36.04.52-.05.33-.18.44-.58.26-.91-.06-.11-1.48-2.67-3.44-3.69a4.27 4.27 0 00-.38-.18c-.61.05-1.31.01-1.46.96zm-5.15 3.33c.47.01 1.03.11 1.62.42 1.6.84 2.87 3.12 2.88 3.15a.675.675 0 00.91.27c.32-.18.44-.59.26-.91-.06-.11-1.48-2.67-3.44-3.69-.21-.11-.41-.2-.61-.27-1.04-.11-1.68.16-1.62 1.03z"/><path class="st10" d="M608.74 150.15c2.46-6.45-1.74-14.6-1.74-14.6 2.97-.88 10.73 3.79 12.43 13.38.07.38.12.79.17 1.21-3.59.45-7.25.37-10.86.01z"/><path class="st9" d="M661.15 260.47c-4.12 4.85-23.57 3.17-35.52 7.05-11.95 3.88-19.07 2.62-20.52-1.1-1.1-2.83-.18-12.15 1.11-23.23.11-.96.23-1.94.34-2.93.15-1.26.31-2.55.46-3.84.12-.97.23-1.95.35-2.93.01-.11.02-.22.04-.33l.15-1.25.27-2.31.3-2.68.03-.26.12-1.09c.24-2.26.47-4.5.66-6.67.03-.28.05-.55.08-.83.01-.15.03-.3.04-.44.02-.28.04-.55.07-.82.6-7.28.8-13.73.14-17.99l-.12-.82c-1.3-8.78-1.16-16.31-1-24.77.12-6.51.57-8.63 1.4-11.27 1.21-3.84 8.9-13.78 15.55-14.9 4.84-.81 9.82.18 13.98 2.78 5.36 3.35 12.44 8.76 15.56 15.41 1.22 2.6 1.84 5.61 2.11 8.9.51 6.2-.26 13.41-.72 20.81-.36 5.89-.52 11.9.31 17.62.32 2.16.77 4.55 1.3 7.07.09.43.19.87.28 1.31.07.33.15.67.22 1.01.14.61.28 1.24.42 1.86.29 1.25.59 2.51.9 3.79.23.95.46 1.9.7 2.86.31 1.24.62 2.49.92 3.74.24.96.48 1.91.71 2.86 3.03 12.47 1.8 20.52-.64 23.39z"/><path class="st4" d="M638.72 180.97a.627.627 0 10-1.23.25c.06.26 5.26 25.73.28 32.9-2.41.27-20.14 2.26-28.71 3.09-.02.27-.04.52-.07.79-.01.15-.03.32-.04.46 9.08-.88 29.01-3.11 29.23-3.13.17-.02.32-.11.43-.24 5.58-7.31.33-33.03.11-34.12zm-27.34 68.95a.65.65 0 01-.62-.5c-.07-.34.15-.67.49-.75.16-.03 15.62-3.4 23.26-17.95a.63.63 0 111.12.58c-4.14 7.89-10.47 12.53-15.06 15.03-4.96 2.71-8.9 3.54-9.06 3.58-.05 0-.09.01-.13.01z"/><path class="st7" d="M619.47 167.69c-1.17 0-2.05-.68-2.56-1.95-1.6-4.02.79-13.01 4.33-16.3l.52.55c-3.3 3.07-5.62 11.74-4.14 15.47.4.99 1 1.48 1.86 1.48h.02c7.78-.07 13.95-17.55 14.02-17.72l.71.25c-.26.74-6.41 18.16-14.72 18.23-.02-.01-.03-.01-.04-.01z"/><path class="st15" d="M613.73 142.63s.33.68.89 1.77c.03.06.06.12.1.19.01.01.01.02.02.04.41.77.93 1.73 1.53 2.78.22.38.45.78.69 1.19.22.37.44.74.68 1.12 1.65 2.68 3.67 5.59 5.74 7.68 5.92-2.23 9.98-5.16 11.38-9.09 0 0-6.47-7.75-6.71-15.15l-14.32 9.47z"/><path class="st16" d="M614.63 144.4c.03.06.06.12.1.19.01.01.01.02.02.04.41.77.93 1.73 1.53 2.78.22.38.45.78.69 1.19.22.37.44.74.68 1.12 1.55-2.93 1.96-7.64 2-7.74l-5.02 2.42z"/><path class="st15" d="M604.11 142.31c.09.56.2 1.1.3 1.62.71 3.36 2.04 4.49 3.96 4.26 3.44-.42 18.37-8.93 24.07-14.78 5.7-5.85 1.3-15.73-5.32-17.06-4.72-.94-13.53 1.76-18.21 3.4a7.141 7.141 0 00-4.59 5.01c-.53 2.16-.8 4.7-.88 7.31v.01c-.08.14-2.11 3.69-2.51 4.41-.31.57 1.69 1.02 2.64 1.2.03.41.07.81.11 1.22l.43 3.4z"/><path class="st10" d="M609.2 129.79c.08 0 .17-.03.25-.07.28-.15.39-.5.23-.78-.53-.98-2.16-2.67-4.52-2.03a.58.58 0 00.3 1.12c2.08-.57 3.16 1.38 3.2 1.46.12.2.33.31.54.3z"/><path class="st7" d="M603.62 130.65v.23c0 .09.01.18.01.26.13 2.71 1.17 4.78 2.4 4.74 1.27-.04 2.21-2.29 2.13-5.13-.08-2.84-1.14-5.04-2.41-5.01-1.24.04-2.16 2.17-2.13 4.91zm.51.69c-.01-.16-.02-.31-.02-.48v-.12c-.05-2.68.81-4.49 1.66-4.52.84-.02 1.84 1.83 1.91 4.54.07 2.7-.82 4.61-1.66 4.63-.81.03-1.72-1.58-1.89-4.05z"/><path class="st7" d="M603.12 131.32c.1.09.26.07.34-.04a.44.44 0 01.17-.14c.03-.01.05-.02.08-.02.14 0 .28.14.28.14.04.04.09.07.14.08-.01-.16-.02-.31-.02-.48v-.12a.817.817 0 00-.4-.11c-.02 0-.05 0-.08.01-.15.02-.35.1-.53.33-.1.11-.08.26.02.35zm4.76-1.31l8.35-1.74c-.04.16-.26.26-.3.42l-8.02 1.8h-.01a.25.25 0 01-.25-.23c0-.12.1-.24.23-.25z"/><path class="st16" d="M605.43 141.35c1.73 0 2.75-1.46 2.8-1.53.11-.17.07-.39-.09-.51a.377.377 0 00-.51.09c-.04.06-1.04 1.46-2.63 1.17-.2-.03-.39.1-.42.29-.04.2.1.39.29.42.19.06.38.07.56.07zm2.58-4.58c.19.8 1.61 1.16 3.19.8 1.57-.36 2.7-1.31 2.51-2.11-.19-.8-1.61-1.16-3.19-.8-1.57.36-2.69 1.31-2.51 2.11z"/><path class="st10" d="M605.51 130.92c-.07.66.16 1.23.53 1.27.37.04.72-.46.79-1.13.07-.66-.16-1.23-.53-1.27-.36-.04-.72.46-.79 1.13z"/><path class="st16" d="M618.23 133.75c.19-.01.35-.15.38-.34.4-2.68 2.39-4.14 2.41-4.15a.4.4 0 10-.47-.65c-.09.07-2.29 1.66-2.74 4.69-.03.22.12.42.34.46.02-.01.05-.01.08-.01z"/><path class="st16" d="M621.26 131.71a.42.42 0 00.34-.22c.1-.2.01-.44-.18-.54-.06-.03-1.37-.66-2.42-.44a.4.4 0 00-.31.48.4.4 0 00.48.31c.65-.14 1.59.22 1.9.37.06.03.12.04.19.04z"/><path class="st10" d="M604.74 123.53c2.27 2.24 7.09 5.17 11.19 5.16 0 0 3.09-4.98 7.14-1.84 4.05 3.14-1.2 10.51-5.54 9.53 0 0-1.5 5.2 2.36 9.47 10.25 5.33 22.85-.59 22.85-.59 1.07-8.09-.6-15.92-.68-16.29v-.01c-1.08-9.95-4.59-23.89-24.08-18.54-9.71 2.67-12.57 5.81-13.42 8.47-.73 2.3-.58 3.9.18 4.64z"/><path class="st7" d="M617.21 136.11c0 .71.57 1.28 1.28 1.28s1.28-.57 1.28-1.28c0-.71-.57-1.28-1.28-1.28s-1.28.57-1.28 1.28z"/><path class="st9" d="M659.67 211.37c-.44 2.83-1.09 5.68-1.98 8.49-.45 1.41-.97 2.81-1.54 4.19-.58 1.38-1.23 2.75-1.93 4.09l-.48.83a8.369 8.369 0 01-7.26 4.19c-4.79-.01-9.54-.04-14.3-.09-4.76-.05-9.52-.11-14.29-.2-9.52-.17-22.76-2.08-32.33-2.51-1.44-.22-1.67-1.03-1.53-4.06a5.494 5.494 0 014.96-5.22h.02c9.35-.9 18.72-2 28.09-3.16 4.69-.58 9.37-1.19 14.05-1.8 2.7-.36 5.41-.72 8.11-1.09 0-.01.01-.02.01-.03.11-.3.2-.59.3-.89.03-.11.07-.21.1-.32.53-1.71.93-3.49 1.22-5.34.61-3.92.7-8.09.39-12.34-.32-4.24-1.04-8.56-2.07-12.83-.52-2.14-1.11-4.26-1.77-6.36-.33-1.05-.68-2.09-1.05-3.11-.18-.51-.37-1.02-.56-1.51l-.28-.72-.24-.58-.12-.3c-1.99-4.85.33-10.4 5.19-12.39 4.82-1.98 10.34.31 12.36 5.11l.25.6.21.5.38.97c.25.64.48 1.27.71 1.9.45 1.26.87 2.52 1.28 3.78.8 2.53 1.51 5.07 2.13 7.65 1.24 5.15 2.13 10.43 2.54 15.86.4 5.43.31 11.02-.57 16.69z"/><path class="st15" d="M587.94 230.23c1.46-.97 3.97-6.71.25-11.07-3.45-4.03-3.51-5.61-6.41-8.21-2.51-2.24-1.74.56-.97 3.17.77 2.62 1.71 3.46-.73 3.59-2.44.12-12.07-3.57-14.72-2.99-2.65.58 9.59 5.3 9.59 5.3s-10.94-2.26-11.85-.99c-1.09 1.51 10.46 4.59 10.46 4.59s-9.57-.59-9.7.14c-.26 1.41 9.18 3.49 9.18 3.49s-6.6-.07-6.15 1.03 13.13 4.21 21.05 1.95z"/><path class="st4" d="M658.1 221.99c-1.5 3.85-5.59 12.2-12.86 12.47-.78.03-1.72.04-2.79.04-9.32 0-28.62-.99-35.04-1.34l.15-1.25c7.24.39 30.23 1.56 37.64 1.29 8.38-.31 12.34-13.34 12.38-13.47.01-.03.01-.05.03-.07.09.43.19.87.28 1.31.06.35.13.69.21 1.02zm-10.17-3.31c-.12.14-.3.21-.47.21a.61.61 0 01-.41-.15c-.04-.04-3.63-3.15-7.77-3.75.11-.3.2-.59.3-.89.03-.11.07-.21.1-.32.51.08 1.01.2 1.5.34.56.16 1.1.36 1.62.57 2.87 1.19 4.94 2.99 5.08 3.11.26.23.28.62.05.88z"/><path class="st4" d="M641.28 215.43a.623.623 0 01-.37-1.13c2.08-1.52 6.08-1.84 6.25-1.85a.626.626 0 11.09 1.25c-.04 0-3.81.31-5.61 1.61a.6.6 0 01-.36.12z"/><ellipse class="st3" cx="523.52" cy="434.84" rx="49.52" ry="5.88"/><path class="st9" d="M477.16 379.35h-15.37a1.25 1.25 0 010-2.5h14.12v-49.47c0-.69.56-1.25 1.25-1.25h45.34c.69 0 1.25.56 1.25 1.25v10.71a1.25 1.25 0 01-2.5 0v-9.45h-42.84v49.47c0 .68-.56 1.24-1.25 1.24z"/><path class="st5" d="M453.61 382.85h4.9a4.59 4.59 0 004.59-4.59v-.31a4.59 4.59 0 00-4.59-4.59h-4.9v9.49z"/><path class="st9" d="M494.08 345.41v86.22c0 1.9 1.54 3.43 3.43 3.43h49.97c.96 0 1.82-.39 2.44-1.02.61-.62.99-1.47.99-2.41v-86.22c0-1.9-1.54-3.43-3.43-3.43h-49.97c-.68 0-1.31.2-1.84.53-.95.61-1.59 1.68-1.59 2.9z"/><path class="st5" d="M509.65 358.61h33.37c1.3 0 2.36-1.06 2.36-2.36 0-1.3-1.06-2.36-2.36-2.36h-33.37c-1.3 0-2.36 1.06-2.36 2.36 0 1.3 1.06 2.36 2.36 2.36zm0 10.75h33.37c1.3 0 2.36-1.06 2.36-2.36 0-1.3-1.06-2.36-2.36-2.36h-33.37c-1.3 0-2.36 1.06-2.36 2.36 0 1.31 1.06 2.36 2.36 2.36zm0 10.76h33.37c1.3 0 2.36-1.06 2.36-2.36 0-1.3-1.06-2.36-2.36-2.36h-33.37c-1.3 0-2.36 1.06-2.36 2.36 0 1.31 1.06 2.36 2.36 2.36zm0 10.76h33.37c1.3 0 2.36-1.06 2.36-2.36 0-1.3-1.06-2.36-2.36-2.36h-33.37c-1.3 0-2.36 1.06-2.36 2.36 0 1.3 1.06 2.36 2.36 2.36zm0 10.76h33.37c1.3 0 2.36-1.06 2.36-2.36 0-1.3-1.06-2.36-2.36-2.36h-33.37c-1.3 0-2.36 1.06-2.36 2.36 0 1.3 1.06 2.36 2.36 2.36zm0 10.76h33.37c1.3 0 2.36-1.06 2.36-2.36 0-1.3-1.06-2.36-2.36-2.36h-33.37c-1.3 0-2.36 1.06-2.36 2.36 0 1.3 1.06 2.36 2.36 2.36zm0 10.76h33.37c1.3 0 2.36-1.06 2.36-2.36 0-1.3-1.06-2.36-2.36-2.36h-33.37c-1.3 0-2.36 1.06-2.36 2.36 0 1.3 1.06 2.36 2.36 2.36z"/><path class="st12" d="M500.55 354.89c0 .56.45 1.01 1.01 1.01s1.01-.45 1.01-1.01-.45-1.01-1.01-1.01-1.01.46-1.01 1.01z"/><path class="st5" d="M500.55 357.59c0 .56.45 1.01 1.01 1.01s1.01-.45 1.01-1.01-.45-1.01-1.01-1.01-1.01.46-1.01 1.01z"/><path class="st7" d="M500.55 365.65c0 .56.45 1.01 1.01 1.01s1.01-.45 1.01-1.01-.45-1.01-1.01-1.01-1.01.45-1.01 1.01z"/><path class="st5" d="M500.55 368.35c0 .56.45 1.01 1.01 1.01s1.01-.45 1.01-1.01-.45-1.01-1.01-1.01-1.01.45-1.01 1.01z"/><path class="st7" d="M500.55 387.17c0 .56.45 1.01 1.01 1.01s1.01-.45 1.01-1.01-.45-1.01-1.01-1.01-1.01.45-1.01 1.01z"/><path class="st5" d="M500.55 389.87c0 .56.45 1.01 1.01 1.01s1.01-.45 1.01-1.01-.45-1.01-1.01-1.01-1.01.45-1.01 1.01z"/><path class="st12" d="M500.55 376.41c0 .56.45 1.01 1.01 1.01s1.01-.45 1.01-1.01-.45-1.01-1.01-1.01-1.01.45-1.01 1.01z"/><path class="st5" d="M500.55 379.11c0 .56.45 1.01 1.01 1.01s1.01-.45 1.01-1.01-.45-1.01-1.01-1.01-1.01.45-1.01 1.01z"/><path class="st12" d="M500.55 397.93c0 .56.45 1.01 1.01 1.01s1.01-.45 1.01-1.01-.45-1.01-1.01-1.01-1.01.45-1.01 1.01z"/><path class="st5" d="M500.55 400.63c0 .56.45 1.01 1.01 1.01s1.01-.45 1.01-1.01-.45-1.01-1.01-1.01-1.01.45-1.01 1.01z"/><path class="st7" d="M500.55 408.69c0 .56.45 1.01 1.01 1.01s1.01-.45 1.01-1.01-.45-1.01-1.01-1.01-1.01.45-1.01 1.01z"/><path class="st5" d="M500.55 411.39c0 .56.45 1.01 1.01 1.01s1.01-.45 1.01-1.01-.45-1.01-1.01-1.01-1.01.45-1.01 1.01z"/><path class="st12" d="M500.55 419.45c0 .56.45 1.01 1.01 1.01s1.01-.45 1.01-1.01-.45-1.01-1.01-1.01a1 1 0 00-1.01 1.01z"/><path class="st5" d="M500.55 422.15c0 .56.45 1.01 1.01 1.01s1.01-.45 1.01-1.01-.45-1.01-1.01-1.01-1.01.45-1.01 1.01z"/><path class="st12" d="M504.92 341.98h35.15c0-2.15-1.74-3.89-3.89-3.89h-27.37c-2.15 0-3.89 1.74-3.89 3.89z"/></g><path class="st7" d="M14.17 76.51c8.8-4.84 17.6-9.67 26.4-14.51-2.99-1.71-5.97-3.43-8.96-5.14.39 8.36-2.03 15.66-7.12 22.28 3.63 1.53 7.25 3.06 10.88 4.59 2.55-12.94 7.29-24.99 14.28-36.17-3.7-1-7.4-2-11.09-3 .13 6.25-1.19 11.98-4.2 17.48 3.63.47 7.25.95 10.88 1.42-.35 1.2-.71 2.4-1.06 3.6l-4.59.6c.33.05.66.09.99.14 7.49 1.08 10.73-10.39 3.17-11.48-6.33-.91-11.74 3.6-9.98 10.31 1.28 4.87 8.42 5.93 10.88 1.42 4-7.31 6-15.15 5.83-23.49-.12-5.97-7.96-8.01-11.09-3C31.9 53.53 26.64 66.72 23.9 80.58c-1.36 6.92 6.82 9.87 10.88 4.59 6.21-8.09 9.23-18.12 8.75-28.29-.21-4.54-4.89-7.38-8.96-5.14-8.8 4.84-17.6 9.67-26.4 14.51-6.73 3.67-.73 13.96 6 10.26z" id="DESIGNED_BY_FREEPIK"/></svg>