<svg xmlns="http://www.w3.org/2000/svg" viewBox="0 0 750 500"><style>.st1{fill:#e0e0e0}.st3{fill-rule:evenodd;clip-rule:evenodd;fill:#ebebeb}.st5{fill:#263238}.st6,.st7{fill:#e8505b}.st7{fill-rule:evenodd;clip-rule:evenodd}.st9{opacity:.8}.st11{fill:#fff}.st12{fill:#fafafa}.st13{fill:#455a64}.st14{opacity:.4}</style><g id="Background_Complete"><path d="M242.91 350.03s-6.16 2.68 1.35 15.72c7.51 13.04 12.58 19.43 12.58 19.43s1.37 3.05-1.22 3.66c-2.59.62-8.4-.01-9.4 3.25-1.04 3.38 1.53 6.39 6.56 8.89 5.03 2.5 15.85 8.38 16.83 8.91.96.53 1.96 1.92.27 2.63-1.7.7-14.59 2.71-13.27 8.77 1.32 6.06 16.48 10.72 18.12 11.26s2.07 1.21 1.98 2.1c-.09.89-4.48 1.16-8.12 1.88-3.64.72-7.74 2.2-6.68 5.63 1.05 3.43 10.24 10.29 31.75 11.3l10-.19 5-8.71c9.57-19.29 8.04-30.65 5.56-33.24-2.49-2.59-5.77.27-8.17 3.11-2.4 2.83-4.77 6.54-5.59 6.19-.82-.36-1.2-1.05-.87-2.75.33-1.7 3.62-17.21-1.03-21.31-4.65-4.1-12.68 6.19-14.11 7.33-1.44 1.14-2.17-.42-2.17-1.51.01-1.11.13-13.43.39-19.04.26-5.61-1.12-9.32-4.58-10.05-3.34-.71-5.61 4.67-7.41 6.64-1.8 1.97-3.79-.71-3.79-.71s-3.12-7.53-10.87-20.44c-7.75-12.9-13.2-8.69-13.2-8.69" fill="#ebebeb"/><path class="st1" d="M304.29 455.6c-5.65-9.5-15.42-26.55-23.87-41.14-8.46-14.59-16.12-27.79-21.73-37.32-2.8-4.75-5.07-8.6-6.65-11.27-.78-1.32-1.39-2.35-1.81-3.07-.2-.34-.35-.61-.46-.8-.1-.18-.15-.28-.15-.28s.06.09.18.26c.12.19.28.45.49.79.43.71 1.06 1.73 1.86 3.04 1.61 2.64 3.91 6.47 6.73 11.22 5.65 9.5 13.35 22.68 21.81 37.27 8.46 14.59 18.19 31.66 23.79 41.19"/><path class="st1" d="M254.31 393.29c.01-.02.26.04.71.16.45.12 1.09.31 1.89.56 1.59.49 3.76 1.23 6.15 2.08 2.35.85 4.47 1.62 6.1 2.21.73.26 1.35.48 1.85.66.44.15.68.25.67.27-.01.02-.26-.03-.71-.15-.45-.12-1.09-.31-1.89-.57-1.58-.51-3.75-1.27-6.13-2.13-2.35-.83-4.48-1.59-6.11-2.17-.74-.26-1.36-.47-1.86-.65-.44-.15-.68-.25-.67-.27zm18.01 5.27c-.08-.03 1.24-4.58 2.95-10.16 1.71-5.59 3.16-10.1 3.24-10.07.08.03-1.24 4.57-2.95 10.16-1.71 5.58-3.16 10.09-3.24 10.07zm11.97 22.99c-.02-.01.12-.24.37-.64.29-.45.66-1.01 1.1-1.68.93-1.42 2.2-3.38 3.52-5.6 1.33-2.22 2.46-4.26 3.27-5.75.38-.7.7-1.29.96-1.76.23-.42.36-.64.38-.63.02.01-.08.25-.28.69-.2.43-.49 1.05-.87 1.81a91.557 91.557 0 01-6.81 11.37c-.49.69-.89 1.25-1.18 1.62-.27.38-.44.58-.46.57zm-17.33-1.17c0-.02.24-.03.68-.02.5.01 1.12.03 1.85.05 1.57.06 3.73.16 6.11.29 2.39.13 4.55.27 6.11.38l1.85.15c.44.04.68.08.68.1 0 .02-.24.03-.68.02-.5-.01-1.12-.03-1.85-.05-1.57-.06-3.73-.16-6.11-.29-2.39-.13-4.55-.27-6.11-.38l-1.85-.15c-.44-.05-.68-.08-.68-.1zm7.99 21.64c0-.02.31-.03.87-.02.62.02 1.42.03 2.38.06 2.01.06 4.78.17 7.84.31 3.06.14 5.83.28 7.83.4.96.06 1.75.12 2.37.16.56.04.87.08.87.1 0 .02-.31.03-.87.02-.62-.02-1.42-.03-2.38-.06-2.01-.06-4.78-.17-7.84-.31-3.06-.14-5.83-.28-7.83-.4-.96-.06-1.75-.12-2.37-.16-.56-.05-.87-.08-.87-.1zm21.64.83c-.02-.01.14-.3.45-.82l1.32-2.18c1.11-1.84 2.64-4.39 4.24-7.25 1.61-2.86 3-5.48 3.99-7.39.48-.92.87-1.68 1.18-2.26.28-.53.44-.82.46-.81.02.01-.11.32-.35.87-.25.55-.62 1.34-1.09 2.3-.94 1.93-2.3 4.58-3.91 7.44-1.61 2.86-3.16 5.4-4.32 7.21-.58.9-1.06 1.63-1.4 2.13-.36.5-.55.77-.57.76z"/><path d="M561.31 93.35c.25 2.79.12 5.57-.36 8.27l6.07 4.69-5.36 11.51-7.5-1.62c-1.75 2.1-3.8 3.99-6.09 5.6l.97 7.61-11.92 4.35-4.15-6.44c-2.79.25-5.57.12-8.27-.36l-4.69 6.07-11.51-5.36 1.62-7.5c-2.1-1.75-3.99-3.8-5.6-6.09l-7.61.97-4.35-11.92 6.45-4.15c-.25-2.79-.12-5.57.36-8.27l-6.07-4.69 5.36-11.51 7.5 1.62c1.75-2.1 3.8-3.99 6.09-5.6l-.97-7.61 11.92-4.35 4.15 6.44c2.79-.25 5.57-.12 8.27.36l4.69-6.07 11.51 5.36-1.62 7.5c2.1 1.75 3.99 3.8 5.6 6.09l7.61-.97 4.35 11.92-6.45 4.15zm-18.16-1.32c-2.58-7.06-10.39-10.7-17.46-8.13-7.06 2.58-10.7 10.39-8.13 17.46 2.58 7.06 10.39 10.7 17.46 8.13 7.07-2.59 10.71-10.4 8.13-17.46z" fill-rule="evenodd" clip-rule="evenodd" fill="#e0e0e0"/><path class="st3" d="M625.71 133.23c.2 2.21.1 4.41-.28 6.55l4.81 3.72-4.24 9.12-5.94-1.28a24.566 24.566 0 01-4.83 4.43l.77 6.03-9.45 3.44-3.29-5.11c-2.21.2-4.41.1-6.55-.28l-3.72 4.81-9.12-4.24 1.28-5.94a24.566 24.566 0 01-4.43-4.83l-6.03.77-3.45-9.45 5.11-3.29c-.2-2.21-.1-4.41.28-6.55l-4.81-3.72 4.24-9.12 5.94 1.28c1.39-1.67 3.01-3.16 4.83-4.43l-.77-6.03 9.45-3.45 3.29 5.11c2.21-.2 4.41-.1 6.55.28l3.72-4.81 9.12 4.24-1.28 5.94c1.67 1.39 3.16 3.01 4.43 4.83l6.03-.77 3.45 9.45-5.11 3.3zm-14.38-1.04c-2.04-5.6-8.23-8.48-13.83-6.44s-8.48 8.23-6.44 13.83 8.23 8.48 13.83 6.44 8.48-8.24 6.44-13.83z"/><path d="M560.68 172.03c.17 1.88.08 3.75-.24 5.57l4.09 3.16-3.61 7.75-5.05-1.09a20.802 20.802 0 01-4.11 3.77l.65 5.12-8.03 2.93-2.8-4.34c-1.88.17-3.75.08-5.57-.24l-3.16 4.09-7.75-3.61 1.09-5.05a20.802 20.802 0 01-3.77-4.11l-5.12.65-2.93-8.03 4.34-2.8c-.17-1.88-.08-3.75.24-5.57l-4.09-3.16 3.61-7.75 5.05 1.09c1.18-1.42 2.56-2.69 4.11-3.77l-.65-5.12 8.03-2.93 2.8 4.34c1.88-.17 3.75-.08 5.57.24l3.16-4.09 7.75 3.61-1.09 5.05c1.42 1.18 2.69 2.56 3.77 4.11l5.12-.65 2.93 8.03-4.34 2.8zm-12.24-.89c-1.74-4.76-7-7.21-11.76-5.47-4.76 1.74-7.21 7-5.47 11.76 1.74 4.76 7 7.21 11.76 5.47 4.76-1.73 7.21-7 5.47-11.76z" fill-rule="evenodd" clip-rule="evenodd" fill="#f5f5f5"/><path transform="rotate(-180 240.535 291.98)" class="st1" d="M224.51 289.79h32.06v4.39h-32.06z"/><path transform="rotate(-180 240.535 284.557)" class="st1" d="M224.51 282.36h32.06v4.39h-32.06z"/><path transform="rotate(-180 249.627 299.928)" class="st1" d="M242.69 297.73h13.87v4.39h-13.87z"/></g><path class="st3" d="M634.77 95.14c-15.19-5.66-33.87-.81-47.01-10.31-10.3-7.45-13.47-21.1-20.02-31.99-12.42-20.64-39.57-31.11-62.63-24.14-23.06 6.97-39.87 30.72-38.78 54.78-.05 38.39 16.57 62.59 42 86.98 22.3 21.38 56.46 27.44 87.01 22.85 15.89-2.39 31.6-8.08 43.86-18.46 12.27-10.38 20.74-25.82 20.58-41.89-.16-16.07-9.95-32.21-25.01-37.82zM247.41 231.82c-7.67-4.19-20.03-3.5-20.03-3.5-12.72.85-24.27 10.56-27.58 22.87-3.31 12.31 1.67 26.34 11.81 34.05 8.87 6.75 21.38 8.54 31.64 4.19 10.26-4.35 19.49-14.93 19.74-26.07.32-14.15-5.8-26.2-15.58-31.54z" id="Background_Simple"/><path class="st5" d="M711.61 456.57c0 .14-150.72.26-336.59.26-185.94 0-336.62-.12-336.62-.26s150.68-.26 336.62-.26c185.87 0 336.59.11 336.59.26z" id="Floor"/><g id="Plant"><path class="st6" d="M514.82 408.55c-2.38.48-4.42 2.16-5.7 4.23-1.28 2.07-1.87 4.5-2.11 6.92-.45 4.68 1.17 9.85 3.19 14.1 4.56-2.54 6.7-8.22 7.6-11.17 1.43-4.66 1.17-13.94-2.98-14.08m-10.69 31.84c1.17-2.45.69-5.52-.92-7.71-1.61-2.19-4.22-3.53-6.92-3.89-1.25-.17-2.65-.09-3.56.77-.86.8-1.06 2.14-.75 3.27.32 1.13 1.08 2.09 1.92 2.9 2.9 2.81 6.22 5 10.23 4.66"/><path class="st5" d="M506.09 455.47c.02 0 .04-.35.06-.97.02-.69.04-1.57.07-2.64.02-2.21.12-5.37-.9-8.67-1-3.29-2.82-5.94-4.51-7.42-.84-.75-1.6-1.26-2.15-1.55-.27-.16-.5-.25-.65-.32-.15-.07-.23-.1-.24-.09-.04.07 1.27.6 2.87 2.14 1.62 1.5 3.36 4.11 4.35 7.35 1 3.23.95 6.36.98 8.57.01 1.11.01 2.02.04 2.64.03.61.06.96.08.96z"/><path class="st5" d="M514.39 415.63c-.01 0-.06.13-.13.4-.08.3-.19.69-.32 1.16-.27 1.01-.65 2.48-1.09 4.3-.9 3.64-2.06 8.69-3.23 14.29-1.16 5.6-2.1 10.7-2.73 14.39-.31 1.85-.56 3.35-.71 4.38-.07.49-.13.89-.17 1.2-.03.27-.05.42-.04.42.01 0 .05-.14.1-.41.06-.31.14-.7.23-1.18.2-1.07.48-2.55.82-4.36.69-3.68 1.66-8.77 2.82-14.37s2.29-10.65 3.13-14.3c.41-1.8.75-3.26.99-4.33.11-.48.19-.87.26-1.18.06-.26.09-.41.07-.41z"/><path class="st6" d="M510.2 444.59c2.05-5.35 6.84-9.56 12.41-10.91 1.42-.34 3.18-.39 4.04.79.86 1.18.25 2.85-.55 4.08-3.33 5.08-9.96 7.77-15.89 6.43"/><path class="st5" d="M521.07 437.89c-.01-.02-.32.04-.89.18-.29.07-.64.15-1.03.3-.39.14-.85.26-1.33.49-.48.21-1.02.42-1.56.73-.56.27-1.12.62-1.71 1a19.88 19.88 0 00-3.46 2.92 19.887 19.887 0 00-2.65 3.67c-.32.62-.63 1.2-.85 1.79-.26.57-.42 1.12-.59 1.62-.18.5-.25.97-.36 1.37-.11.4-.15.76-.19 1.05-.08.58-.11.9-.09.91.08.01.21-1.28.87-3.26.17-.49.35-1.03.62-1.58.23-.57.54-1.14.87-1.74.69-1.19 1.56-2.43 2.63-3.59 1.08-1.16 2.26-2.11 3.39-2.89.57-.37 1.12-.73 1.67-1.01.53-.31 1.05-.54 1.52-.75 1.89-.86 3.16-1.14 3.14-1.21z"/></g><g id="Gears"><path class="st7" d="M294.4 213.32c.74-1.45 1.67-2.78 2.75-3.96l-1.53-4.2 6.22-4 3.19 3.13c1.52-.49 3.11-.79 4.74-.86l1.89-4.05 7.22 1.57.04 4.47c1.45.74 2.78 1.67 3.96 2.75l4.2-1.53 4 6.22-3.13 3.19c.49 1.52.79 3.11.86 4.74l4.05 1.89-1.57 7.22-4.47.04c-.74 1.45-1.67 2.78-2.75 3.96l1.53 4.2-6.22 4-3.19-3.13c-1.52.49-3.11.79-4.74.86l-1.89 4.05-7.23-1.57-.04-4.47c-1.45-.74-2.78-1.67-3.96-2.75l-4.2 1.53-4-6.22 3.13-3.19a17.95 17.95 0 01-.86-4.74l-4.05-1.89 1.57-7.22 4.48-.04zm8.53 6.29c-.93 4.28 1.79 8.5 6.07 9.43 4.28.93 8.5-1.79 9.43-6.07.93-4.28-1.79-8.5-6.07-9.43-4.28-.92-8.5 1.79-9.43 6.07zm-20.23-39.2c.36-.71.81-1.35 1.33-1.92l-.74-2.04 3.02-1.94 1.55 1.52c.74-.24 1.51-.38 2.3-.42l.92-1.97 3.51.76.02 2.17c.71.36 1.35.81 1.92 1.33l2.04-.74 1.94 3.02-1.52 1.55c.24.74.38 1.51.42 2.3l1.97.92-.76 3.51-2.17.02c-.36.71-.81 1.35-1.33 1.92l.74 2.04-3.02 1.94-1.55-1.52c-.74.24-1.51.38-2.3.42l-.92 1.96-3.51-.76-.02-2.17c-.71-.36-1.35-.81-1.92-1.33l-2.04.74-1.94-3.02 1.52-1.55c-.24-.74-.38-1.51-.42-2.3l-1.97-.92.76-3.51 2.17-.01zm4.14 3.05a3.851 3.851 0 107.53 1.63 3.851 3.851 0 10-7.53-1.63z"/><path d="M256.33 204.03c.46-.9 1.04-1.73 1.71-2.46l-.95-2.61 3.86-2.49 1.98 1.95c.94-.31 1.93-.49 2.95-.54l1.17-2.52 4.49.97.03 2.78c.9.46 1.73 1.04 2.46 1.71l2.61-.95 2.49 3.86-1.95 1.98c.31.94.49 1.93.54 2.95l2.52 1.17-.97 4.49-2.78.03c-.46.9-1.04 1.73-1.71 2.46l.95 2.61-3.86 2.49-1.98-1.95c-.94.31-1.93.49-2.95.54l-1.17 2.52-4.49-.97-.03-2.78c-.9-.46-1.73-1.04-2.46-1.71l-2.61.95-2.49-3.86 1.95-1.98c-.31-.94-.49-1.93-.54-2.95l-2.52-1.17.97-4.49 2.78-.03zm5.31 3.92a4.92 4.92 0 003.77 5.86 4.92 4.92 0 005.86-3.77 4.92 4.92 0 00-3.77-5.86 4.925 4.925 0 00-5.86 3.77z" fill="none"/><path class="st5" d="M261.64 207.95c-.02 0-.01-.11.03-.32.03-.21.12-.51.28-.87.31-.72 1.02-1.75 2.34-2.4 1.28-.66 3.24-.79 4.91.26 1.67.98 2.83 3.23 2.32 5.47-.46 2.25-2.45 3.82-4.38 4.02-1.96.26-3.69-.67-4.58-1.8-.93-1.14-1.15-2.36-1.14-3.15 0-.4.05-.71.1-.91.07-.2.1-.3.12-.3.05.01-.05.44 0 1.21.05.75.32 1.89 1.22 2.92.86 1.02 2.46 1.82 4.23 1.56 1.74-.21 3.52-1.64 3.94-3.66.45-2.01-.57-4.04-2.07-4.95-1.5-.97-3.29-.9-4.5-.33a4.923 4.923 0 00-2.31 2.15c-.38.68-.46 1.11-.51 1.1z"/><path class="st5" d="M256.33 204.03c.01.01-.23.03-.69.05-.51.02-1.2.04-2.09.06l.08-.07c-.24 1.17-.55 2.68-.93 4.5l-.07-.15c.77.35 1.62.74 2.53 1.15l.08.04.01.09c.05.93.22 1.91.55 2.9l.03.1-.07.08c-.6.62-1.26 1.29-1.94 1.99l.02-.23c.79 1.21 1.63 2.5 2.5 3.85l-.24-.08c.81-.3 1.7-.62 2.61-.96l.12-.04.1.09c.68.61 1.5 1.2 2.42 1.67l.12.06v.14l.03 2.78-.18-.22c1.41.3 2.93.63 4.49.96l-.27.13c.36-.78.76-1.65 1.17-2.52l.06-.14.15-.01c.92-.04 1.92-.21 2.88-.53l.14-.05.11.11c.62.61 1.3 1.27 1.98 1.94l-.32-.03c1.22-.79 2.53-1.63 3.86-2.49l-.1.31c-.3-.82-.62-1.71-.95-2.61l-.05-.15.11-.12c.63-.69 1.21-1.51 1.67-2.4l.23-.14h.69l.7-.01c.46 0 .92-.01 1.38-.01l-.25.2c.33-1.52.65-3.02.98-4.49l.14.29c-.85-.4-1.69-.79-2.52-1.18l-.14-.07-.01-.15c-.04-.99-.22-1.96-.52-2.88l-.05-.15.11-.11 1.95-1.98-.03.31c-.85-1.32-1.67-2.61-2.48-3.87l.28.1c-.89.32-1.76.64-2.61.94l-.13.05-.1-.1c-.74-.68-1.55-1.24-2.41-1.68l-.12-.06v-.14c-.01-.95-.01-1.87-.02-2.78l.17.21c-1.58-.35-3.07-.68-4.49-.99l.22-.11c-.42.88-.81 1.71-1.18 2.51l-.05.1h-.11c-1.05.04-2.02.23-2.9.51l-.1.03-.07-.07c-.72-.71-1.36-1.35-1.97-1.96l.19.02c-1.5.95-2.78 1.76-3.88 2.46l.05-.14c.36 1.04.67 1.9.92 2.62l.02.05-.03.04c-1.36 1.52-1.73 2.47-1.78 2.43 0-.01.02-.07.07-.17.05-.11.13-.28.26-.5.25-.43.65-1.08 1.32-1.85l-.02.08c-.27-.72-.59-1.57-.98-2.6l-.03-.09.08-.05c1.09-.72 2.36-1.55 3.84-2.52l.1-.07.09.09c.62.6 1.27 1.23 1.99 1.93l-.17-.04c.91-.3 1.91-.5 2.99-.56l-.16.11c.37-.8.75-1.64 1.16-2.52l.07-.14.16.03c1.42.3 2.91.62 4.5.96l.17.04v.17l.03 2.78-.12-.2c.89.45 1.74 1.03 2.52 1.74l-.24-.05c.85-.31 1.72-.63 2.61-.96l.18-.07.1.16c.81 1.26 1.64 2.54 2.49 3.86l.11.17-.14.14c-.64.65-1.29 1.31-1.94 1.99l.06-.25c.31.96.5 1.98.55 3.01l-.15-.22c.83.39 1.67.78 2.52 1.17l.19.09-.04.2c-.32 1.48-.64 2.97-.97 4.49l-.04.2h-.21c-.46 0-.92.01-1.38.01l-.7.01h-.69l.23-.14c-.48.94-1.09 1.8-1.75 2.52l.05-.26c.33.9.65 1.79.95 2.61l.07.19-.17.11c-1.33.85-2.64 1.7-3.87 2.48l-.17.11-.15-.14-1.98-1.95.25.06c-1.01.33-2.05.5-3.01.54l.21-.14c-.41.87-.81 1.73-1.18 2.51l-.08.18-.19-.04c-1.56-.34-3.08-.67-4.49-.98l-.18-.04v-.18c-.01-.97-.01-1.92-.02-2.78l.12.2c-.95-.49-1.81-1.11-2.5-1.75l.22.04c-.91.33-1.8.65-2.61.94l-.16.06-.09-.14c-.87-1.36-1.69-2.65-2.47-3.87l-.08-.13.1-.1c.69-.69 1.35-1.36 1.96-1.97l-.04.17c-.33-1.03-.49-2.04-.53-2.99l.09.13c-.9-.43-1.75-.83-2.51-1.19l-.1-.05.02-.1c.41-1.81.76-3.32 1.02-4.48l.02-.07h.07c.87.01 1.55.02 2.05.02.21.01.39.01.54.02l.18.03z"/><path d="M294.4 213.32c.74-1.45 1.67-2.78 2.75-3.96l-1.53-4.2 6.22-4 3.19 3.13c1.52-.49 3.11-.79 4.74-.86l1.89-4.05 7.22 1.57.04 4.47c1.45.74 2.78 1.67 3.96 2.75l4.2-1.53 4 6.22-3.13 3.19c.49 1.52.79 3.11.86 4.74l4.05 1.89-1.57 7.22-4.47.04c-.74 1.45-1.67 2.78-2.75 3.96l1.53 4.2-6.22 4-3.19-3.13c-1.52.49-3.11.79-4.74.86l-1.89 4.05-7.23-1.57-.04-4.47c-1.45-.74-2.78-1.67-3.96-2.75l-4.2 1.53-4-6.22 3.13-3.19a17.95 17.95 0 01-.86-4.74l-4.05-1.89 1.57-7.22 4.48-.04zm8.53 6.29c-.93 4.28 1.79 8.5 6.07 9.43 4.28.93 8.5-1.79 9.43-6.07.93-4.28-1.79-8.5-6.07-9.43-4.28-.92-8.5 1.79-9.43 6.07z" fill-rule="evenodd" clip-rule="evenodd" fill="#fff"/></g><g id="Platform"><path class="st6" d="M476.44 205.78c-1.79-20.14-8.81-40.27-22.47-55.17-13.66-14.9-34.51-23.84-54.44-20.49-19.94 3.36-37.58 20.4-38.92 40.57-.71 10.71 2.86 21.34 2.27 32.05-1.03 18.52-14.29 34.18-29.15 45.27-12.81 9.55-26.61 12.98-35.8 26.05-16.47 23.43-13.73 50.44-3.99 66.59 3.35 5.55 8.83 10.77 15.4 15.22 18.87 12.8 42.48 16.1 64.57 10.46 34.3-8.75 65.25-30.38 83.09-58.45 20.71-32.58 22.38-69.02 19.44-102.1z"/><g class="st9"><path class="st11" d="M476.44 205.78c-1.79-20.14-8.81-40.27-22.47-55.17-13.66-14.9-34.51-23.84-54.44-20.49-19.94 3.36-37.58 20.4-38.92 40.57-.71 10.71 2.86 21.34 2.27 32.05-1.03 18.52-14.29 34.18-29.15 45.27-12.81 9.55-26.61 12.98-35.8 26.05-16.47 23.43-13.73 50.44-3.99 66.59 3.35 5.55 8.83 10.77 15.4 15.22 18.87 12.8 42.48 16.1 64.57 10.46 34.3-8.75 65.25-30.38 83.09-58.45 20.71-32.58 22.38-69.02 19.44-102.1z"/></g><circle class="st7" cx="332.15" cy="347.95" r="1.42"/><circle class="st7" cx="354.75" cy="372.35" r=".75"/><path class="st6" d="M404.21 376.72c-5.12 2.1-10.97 9.43-11.39 15.2-.41 5.77 2.63 11.51 7.29 14.94 4.65 3.44 10.71 4.69 16.46 4.07 4.11-.45 8.28-1.91 11.06-4.96 3.08-3.37 4.05-8.25 3.6-12.79-.62-6.25-3.9-12.32-9.15-15.76-5.27-3.43-12.48-3.92-17.87-.7"/><g class="st9"><path class="st11" d="M404.21 376.72c-5.12 2.1-10.97 9.43-11.39 15.2-.41 5.77 2.63 11.51 7.29 14.94 4.65 3.44 10.71 4.69 16.46 4.07 4.11-.45 8.28-1.91 11.06-4.96 3.08-3.37 4.05-8.25 3.6-12.79-.62-6.25-3.9-12.32-9.15-15.76-5.27-3.43-12.48-3.92-17.87-.7"/></g><path class="st7" d="M444.02 265.92c0 1.42-1.15 2.56-2.56 2.56-1.42 0-2.56-1.15-2.56-2.56 0-1.42 1.15-2.56 2.56-2.56 1.42 0 2.56 1.15 2.56 2.56z"/><circle class="st7" cx="402.92" cy="169.72" r="1.42"/><path class="st12" d="M437.33 430.28c0 1.67-24.74 3.02-55.25 3.02-30.52 0-55.25-1.35-55.25-3.02s24.74-3.02 55.25-3.02c30.52-.01 55.25 1.35 55.25 3.02z"/><path class="st5" d="M298.3 456.56l12.62-26.03h139.21l16.59 25.97s-168.42 1.75-168.42.06"/><path class="st13" d="M384.76 456.99c-.12 0-.21-5.05-.21-11.28 0-6.23.09-11.29.21-11.29s.21 5.05.21 11.29c0 6.22-.09 11.28-.21 11.28z"/><path class="st13" d="M455.51 440.77c0 .01-.18.04-.53.08-.38.04-.9.1-1.54.18-1.38.14-3.34.34-5.77.59-4.96.47-11.86 1.13-19.81 1.89l.15-.09c-1.32 2.14-2.71 4.38-4.15 6.69l-.06.1h-.11l-1.63.03c-10.28.19-19.59.36-26.37.49-3.35.04-6.07.08-7.99.1-.92 0-1.64 0-2.17.01-.23 0-.41-.01-.57-.01-.13 0-.19-.01-.19-.02s.06-.02.19-.03c.15-.01.34-.02.56-.03.53-.02 1.26-.05 2.17-.08 1.92-.06 4.64-.14 7.99-.23 6.78-.16 16.09-.37 26.37-.61l1.63-.03-.17.1c1.44-2.31 2.83-4.55 4.16-6.68l.05-.09.1-.01c7.96-.7 14.86-1.31 19.83-1.74 2.44-.2 4.39-.36 5.78-.47.65-.05 1.16-.08 1.55-.11.35-.03.53-.04.53-.03z"/><path class="st13" d="M442.93 441.93c-.11.02-.54-2.11-.95-4.75-.41-2.64-.65-4.8-.54-4.82.11-.02.54 2.11.95 4.75.42 2.64.66 4.8.54 4.82zM331.34 457.3c-.02 0-.09-.14-.22-.42-.14-.32-.31-.72-.52-1.2-.45-1.1-1.06-2.57-1.78-4.33l.15.1c-2.76-.21-6.03-.45-9.54-.72-4.85-.38-9.25-.74-12.42-1.01-1.53-.14-2.8-.26-3.76-.34-.89-.09-1.38-.15-1.37-.17 0-.02.5-.01 1.39.04.96.06 2.23.14 3.77.24 3.18.22 7.58.54 12.43.92 3.51.28 6.78.55 9.54.77l.12.01.03.09c.66 1.77 1.22 3.26 1.64 4.36.17.49.32.9.43 1.22.08.28.13.43.11.44zm53.42-16.53c0 .01-.06.01-.16.02-.13.01-.29.01-.48.02-.46.01-1.08.02-1.86.04-1.66.01-4.01.04-6.93.06-5.92.02-14.13.04-23.47.07l.07-.01c-2.05.77-4.19 1.58-6.37 2.4-1.18.44-2.35.88-3.45 1.3l-.05.02-.05-.01c-10.03-1.24-18.95-2.35-25.41-3.14-3.19-.41-5.76-.75-7.58-.98-.86-.12-1.55-.22-2.05-.29-.21-.03-.39-.06-.53-.08-.12-.02-.18-.04-.18-.04 0-.01.06-.01.18 0 .14.01.32.03.53.04.5.05 1.19.12 2.05.21 1.82.2 4.4.5 7.59.85 6.46.77 15.39 1.82 25.43 3.01l-.1.01c1.1-.41 2.27-.85 3.45-1.3 2.18-.82 4.32-1.62 6.37-2.39l.04-.01h.04c9.33.03 17.55.05 23.47.07 2.92.03 5.27.05 6.93.06.79.01 1.41.03 1.86.04.19.01.35.01.48.02.13 0 .18.01.18.01z"/><path class="st6" d="M456.45 230.32h32.06v4.39h-32.06zm0 7.94h13.87v4.39h-13.87z"/></g><g id="Robot_3"><path class="st5" d="M655.77 239.77c-.01-.01.06-.07.2-.19.17-.14.37-.31.63-.52.14-.11.3-.24.47-.38.19-.12.4-.24.63-.38.23-.14.47-.28.73-.44.28-.12.58-.25.89-.39 2.47-1.14 6.69-1.74 11.4-.2 2.32.78 4.79 2.05 6.88 4.07 2.11 2 3.8 4.7 4.84 7.79 2.1 6.19 1.56 13.79-1.47 20.64-3.07 6.88-7.87 12.33-12.4 16.89-4.59 4.55-9 8.33-12.51 11.71-3.53 3.36-6.19 6.27-7.9 8.39-.86 1.05-1.5 1.89-1.93 2.47-.2.27-.36.48-.49.65-.11.15-.17.22-.18.21-.01-.01.04-.09.14-.24.12-.18.27-.4.45-.68.4-.6 1.01-1.46 1.86-2.54 1.67-2.16 4.3-5.13 7.8-8.53 3.48-3.42 7.88-7.23 12.42-11.79 4.5-4.55 9.24-9.98 12.27-16.76 2.98-6.74 3.52-14.21 1.49-20.28-1-3.03-2.64-5.67-4.68-7.63-2.03-1.98-4.44-3.24-6.7-4.03-4.6-1.56-8.74-1.03-11.2.03-2.52 1.07-3.59 2.22-3.64 2.13z"/><path class="st6" d="M573.05 404.2v-31.83c0-11.28 7.55-18.93 16.95-19.05l97.09-1.21c6.5-.08 11.82 5.17 11.82 11.67v39.83l-125.86.59z"/><path class="st12" d="M647.67 362.01H687v18.38h-39.33z"/><path class="st5" d="M635.34 403.43c-.14 0-.26-11.26-.26-25.15 0-13.89.12-25.15.26-25.15s.26 11.26.26 25.15c0 13.89-.12 25.15-.26 25.15zm.4-65.55c-.01-.03.32-.22.96-.46.64-.25 1.6-.51 2.83-.63 2.41-.25 6.06.34 8.97 2.85 2.89 2.54 3.97 6.07 4.04 8.49.05 1.23-.08 2.22-.24 2.89-.16.67-.3 1.02-.33 1.01-.11-.02.39-1.48.2-3.87-.17-2.35-1.27-5.71-4.02-8.13-2.77-2.39-6.25-3.03-8.6-2.87-2.4.13-3.78.83-3.81.72z"/><path class="st6" d="M587.56 353.55l47.78-128.58 34.54 16.4-40.53 120.64z"/><circle transform="rotate(-38.117 598.314 381.622)" class="st14" cx="598.37" cy="381.65" r="19.18"/><circle transform="rotate(-65.411 600.707 374.178)" class="st5" cx="600.73" cy="374.17" r="19.73"/><circle transform="rotate(-72.572 600.755 374.163)" class="st13" cx="600.73" cy="374.17" r="7.5"/><path class="st5" d="M607.99 357.68c-.02-.01.07-.28.24-.8.2-.56.46-1.31.79-2.25.72-2 1.74-4.81 2.98-8.26 2.58-6.99 6.11-16.58 10.02-27.17 2.6-6.97 5.05-13.5 7.12-19.06l.14.29c-5.79-2.05-10.64-3.76-14.09-4.98-1.66-.6-2.98-1.08-3.94-1.43-.42-.16-.76-.29-1.03-.39-.23-.09-.35-.15-.35-.16 0-.01.13.02.37.09.28.09.62.19 1.05.33.97.32 2.3.76 3.98 1.31 3.46 1.18 8.33 2.83 14.15 4.8l.22.07-.08.22c-2.06 5.56-4.48 12.1-7.06 19.08-3.96 10.57-7.54 20.13-10.16 27.11-1.31 3.42-2.38 6.21-3.14 8.2-.37.93-.66 1.67-.88 2.22-.19.53-.31.79-.33.78zm44.39-62.58c-.05.13-8.51-3.09-18.88-7.2-10.38-4.11-18.74-7.55-18.69-7.69.05-.13 8.51 3.09 18.88 7.2 10.38 4.12 18.75 7.56 18.69 7.69zm-41.8 98.05c-.03-.03.48-.46 1.37-1.24.89-.79 2.13-1.97 3.55-3.55 2.85-3.13 6.19-8 8.9-13.88 2.71-5.88 4.45-11.5 5.71-15.55.6-1.97 1.1-3.6 1.47-4.82.17-.52.3-.95.42-1.3.1-.3.16-.45.18-.45.02 0-.01.17-.08.47-.09.36-.2.8-.32 1.33-.29 1.15-.73 2.82-1.31 4.86-1.17 4.09-2.86 9.75-5.59 15.67-2.72 5.92-6.15 10.81-9.1 13.91-1.46 1.56-2.75 2.71-3.69 3.45-.46.38-.84.64-1.09.83-.27.2-.41.29-.42.27zm-25.11-10.73c-.01.02-.12-.01-.34-.07-.22-.07-.54-.19-.91-.43-.74-.46-1.69-1.4-2.29-2.87-.62-1.47-.74-3.39-.51-5.42.23-2.04.62-4.24 1.12-6.54 1.01-4.6 2.41-8.64 3.58-11.49.58-1.43 1.11-2.56 1.49-3.33.39-.77.62-1.19.65-1.17.03.02-.13.46-.46 1.25-.32.8-.79 1.94-1.33 3.38-1.08 2.87-2.41 6.9-3.41 11.47-.91 4.54-1.91 8.85-.77 11.71.52 1.41 1.38 2.35 2.06 2.83.67.51 1.14.63 1.12.68z"/><circle class="st13" cx="578.07" cy="430" r="17.38"/><circle class="st5" cx="578.07" cy="430" r="5.96"/><circle class="st13" cx="635.18" cy="430.46" r="17.38"/><circle class="st5" cx="635.18" cy="430.46" r="5.96"/><circle class="st13" cx="692.73" cy="430.46" r="17.38"/><circle class="st5" cx="692.73" cy="430.46" r="5.96"/><path class="st5" d="M693.35 456.38H577.68c-14.55 0-26.38-11.83-26.38-26.38 0-14.55 11.84-26.38 26.38-26.38h115.67c14.55 0 26.38 11.84 26.38 26.38.01 14.55-11.83 26.38-26.38 26.38zm-115.67-44.11c-9.78 0-17.73 7.96-17.73 17.73 0 9.78 7.95 17.73 17.73 17.73h115.67c9.78 0 17.73-7.96 17.73-17.73 0-9.78-7.95-17.73-17.73-17.73H577.68z"/><path class="st13" d="M635.18 412.25c-.09 0-.16-1.89-.16-4.23 0-2.34.07-4.23.16-4.23s.16 1.89.16 4.23c-.01 2.33-.08 4.23-.16 4.23zm21.68 0c-.09 0-.16-1.89-.16-4.23 0-2.34.07-4.23.16-4.23s.16 1.89.16 4.23c0 2.33-.07 4.23-.16 4.23zm21.68 0c-.09 0-.16-1.89-.16-4.23 0-2.34.07-4.23.16-4.23s.16 1.89.16 4.23c0 2.33-.07 4.23-.16 4.23zm20.15.83c-.08-.03.4-1.86 1.08-4.09.68-2.24 1.3-4.03 1.38-4 .08.02-.4 1.86-1.08 4.09-.69 2.23-1.3 4.02-1.38 4zm11.42 10.86c-.04-.08 1.62-1 3.7-2.06s3.8-1.86 3.84-1.79c.04.08-1.62 1-3.7 2.06-2.08 1.07-3.8 1.87-3.84 1.79zm-76 24.17c.09 0 .16 1.89.16 4.23 0 2.34-.07 4.23-.16 4.23s-.16-1.89-.16-4.23c0-2.34.07-4.23.16-4.23zm21.68-.27c.09 0 .16 1.89.16 4.23 0 2.34-.07 4.23-.16 4.23s-.16-1.89-.16-4.23c.01-2.33.08-4.23.16-4.23zm21.68 0c.09 0 .16 1.89.16 4.23 0 2.34-.07 4.23-.16 4.23s-.16-1.89-.16-4.23c.01-2.33.08-4.23.16-4.23zm20.15-.56c.08-.03.7 1.77 1.38 4 .68 2.24 1.16 4.07 1.08 4.09-.08.02-.7-1.77-1.38-4-.68-2.23-1.16-4.07-1.08-4.09zm12.02-9.98c.04-.08 1.76.72 3.84 1.79 2.08 1.06 3.74 1.99 3.7 2.06-.04.08-1.76-.72-3.84-1.79-2.09-1.06-3.74-1.98-3.7-2.06zm-95.17 10.81c.09 0 .16 1.89.16 4.23 0 2.34-.07 4.23-.16 4.23s-.16-1.89-.16-4.23c.01-2.34.08-4.23.16-4.23zm-21.68 0c.09 0 .16 1.89.16 4.23 0 2.34-.07 4.23-.16 4.23s-.16-1.89-.16-4.23c.01-2.34.08-4.23.16-4.23zm-20.14-.83c.08.03-.4 1.86-1.08 4.09-.68 2.24-1.3 4.03-1.38 4-.08-.03.4-1.86 1.08-4.09.68-2.23 1.3-4.03 1.38-4zm-11.43-10.86c.04.08-1.62 1-3.7 2.06s-3.8 1.86-3.84 1.79c-.04-.08 1.62-1 3.7-2.06 2.09-1.07 3.81-1.87 3.84-1.79zm54.32-23.91c-.09 0-.16-1.89-.16-4.23 0-2.34.07-4.23.16-4.23s.16 1.89.16 4.23c0 2.34-.07 4.23-.16 4.23zm-21.68 0c-.09 0-.16-1.89-.16-4.23 0-2.34.07-4.23.16-4.23s.16 1.89.16 4.23c0 2.34-.07 4.23-.16 4.23zm-20.14.57c-.08.03-.7-1.77-1.38-4-.68-2.24-1.16-4.07-1.08-4.09.08-.03.7 1.77 1.38 4 .68 2.23 1.16 4.06 1.08 4.09zm-12.02 9.97c-.04.08-1.76-.72-3.84-1.79-2.08-1.06-3.74-1.99-3.7-2.06.04-.08 1.76.72 3.84 1.79 2.08 1.06 3.74 1.98 3.7 2.06z"/><path class="st1" d="M528.76 279.15l64.86-26.1 3.7 13.96-61.96 26.96z"/><path class="st6" d="M645.37 257.75l-45.73 18.14-10.72-28.73 51.8-21.68z"/><path class="st1" d="M661.73 236.91L690.32 225l-4.71-11.82-27.75 11.21z"/><circle class="st14" cx="647.5" cy="248.46" r="18.02"/><path class="st5" d="M661.12 226.17c6.94 7.53 6.47 19.26-1.06 26.2-7.53 6.94-19.26 6.47-26.2-1.06-6.94-7.53-6.47-19.26 1.06-26.2 7.53-6.94 19.26-6.46 26.2 1.06z"/><path class="st13" d="M652.68 233.96a7.05 7.05 0 11-10.362 9.56 7.05 7.05 0 0110.362-9.56z"/><path class="st5" d="M594.59 243.33c.02-.02.29.23.76.71.53.54 1.2 1.24 2.01 2.08 1.76 1.87 4.13 4.39 6.87 7.31l-.27-.06c1.96-.78 4.09-1.63 6.31-2.51 5.33-2.11 10.17-3.99 13.68-5.33 1.69-.63 3.1-1.16 4.17-1.56.99-.36 1.54-.54 1.55-.51.01.03-.51.28-1.48.69-1.05.44-2.44 1.02-4.11 1.71-3.48 1.43-8.29 3.36-13.62 5.47-2.23.87-4.36 1.71-6.32 2.48l-.16.06-.11-.12c-2.69-2.97-5.01-5.54-6.74-7.44-.77-.88-1.41-1.6-1.91-2.17-.43-.51-.66-.79-.63-.81z"/><path class="st6" d="M481.03 291.28l45.79-19.43 13.05 27.01-47.47 20.47z"/><circle transform="rotate(-76.521 491.774 303.659)" class="st14" cx="491.78" cy="303.67" r="14.8"/><circle transform="rotate(-72.321 485.975 305.954)" class="st5" cx="485.98" cy="305.96" r="15.84"/><path class="st13" d="M483.63 300.42c3.06-1.3 6.6.14 7.89 3.2 1.3 3.06-.14 6.6-3.2 7.89s-6.6-.14-7.89-3.2c-1.3-3.07.14-6.6 3.2-7.89z"/><path class="st5" d="M510.16 311.67c-.03 0-.11-.39-.24-1.13-.13-.82-.3-1.88-.51-3.18-.41-2.81-.96-6.6-1.59-10.97l-.03-.19.18-.07c1.76-.72 3.66-1.49 5.63-2.29 5.51-2.23 10.51-4.23 14.14-5.65 1.76-.68 3.21-1.23 4.31-1.66 1.02-.38 1.59-.58 1.61-.54.01.03-.53.29-1.53.73l-4.25 1.81c-3.59 1.51-8.57 3.56-14.08 5.79-1.97.79-3.87 1.56-5.63 2.27l.15-.27c.56 4.38 1.05 8.18 1.41 11 .15 1.3.27 2.37.36 3.19.07.75.1 1.16.07 1.16z"/><path transform="rotate(80.288 451.122 315.467)" class="st5" d="M450.19 309.74h1.9v11.49h-1.9z"/><path class="st5" d="M478.18 303.89l-6.66 1.14-.58-3.39-2.56.44.76 4.44-4.68.8.38 2.22 1.5 8.76 4.67-.8.72 4.2 2.28-.39-.46-2.68 6.95-1.19z"/><path transform="rotate(-9.712 460.1 313.932)" class="st13" d="M454.74 310.4h10.78v7.11h-10.78z"/></g><g id="Robot_2"><path class="st6" d="M386.26 244.9s-45.99-1.49-45.99 22.97c0 27.73 9.14 79.69 45.99 79.15 36.85-.54 43.62-73.4 44.03-76.64 0 0 1.92-23.35-44.03-25.48z"/><path class="st5" d="M429.19 264.06c0 .01-.06.06-.19.15-.16.11-.35.23-.58.39-.51.35-1.29.82-2.31 1.4-2.04 1.15-5.1 2.67-9.07 4.04-3.97 1.38-8.84 2.59-14.34 3.33-5.5.76-11.61 1.04-18 .99-6.39-.08-12.49-.22-18.01-.91-5.51-.67-10.4-1.99-14.23-3.73-3.85-1.72-6.62-3.77-8.36-5.34-.87-.79-1.5-1.45-1.9-1.92-.18-.22-.33-.39-.45-.54-.1-.12-.15-.19-.14-.19.01-.01.07.05.18.16.13.13.29.3.49.5.43.44 1.08 1.07 1.96 1.84 1.77 1.51 4.55 3.49 8.38 5.15 3.82 1.68 8.66 2.96 14.14 3.59 5.48.66 11.58.78 17.96.86 6.38.04 12.46-.22 17.93-.95 5.48-.71 10.33-1.88 14.29-3.2 3.96-1.32 7.03-2.78 9.09-3.87 1.03-.55 1.82-.99 2.35-1.31.24-.14.44-.25.61-.35.12-.06.19-.09.2-.09z"/><path class="st5" d="M401.39 273.3c.02 0 .04.24.07.69.03.45.05 1.12.04 1.97-.02 1.71-.1 4.21-.76 7.22-.33 1.5-.83 3.12-1.57 4.78-.74 1.65-1.69 3.37-3.03 4.93a18.154 18.154 0 01-4.91 4.1c-.98.54-2.02 1-3.13 1.35-1.11.33-2.27.53-3.46.58-2.39.08-4.71-.54-6.67-1.62-1.97-1.08-3.6-2.55-4.88-4.14-2.61-3.2-3.72-6.85-4.25-9.86-.52-3.04-.51-5.54-.46-7.25.03-.86.07-1.52.11-1.97.04-.45.07-.68.09-.68.02 0 .02.24.02.69 0 .5-.01 1.16-.01 1.97.01 1.7.06 4.19.62 7.18.58 2.96 1.7 6.52 4.26 9.62 1.26 1.54 2.85 2.96 4.75 3.99 1.89 1.04 4.12 1.63 6.41 1.55 1.14-.05 2.26-.24 3.33-.56 1.06-.34 2.08-.77 3.03-1.3 1.88-1.07 3.51-2.44 4.79-3.97 1.31-1.51 2.26-3.18 3-4.79.74-1.62 1.25-3.21 1.6-4.69.7-2.96.84-5.44.92-7.14.02-.81.04-1.46.05-1.97.01-.45.02-.68.04-.68zm10.94 56.48c-.06.02-.36-.98-1.14-2.69-.78-1.71-2.11-4.11-4.25-6.69-2.16-2.55-5.19-5.26-9.15-7.26-3.93-2.02-8.81-3.16-13.91-2.98-5.1.21-9.88 1.71-13.65 4.03-3.79 2.29-6.61 5.23-8.57 7.93-1.95 2.74-3.09 5.23-3.73 6.99-.65 1.76-.88 2.79-.93 2.77-.02 0 .03-.26.15-.74.1-.49.3-1.19.6-2.09.59-1.79 1.69-4.34 3.62-7.13 1.95-2.77 4.78-5.78 8.62-8.13 3.82-2.38 8.68-3.93 13.88-4.14 5.19-.18 10.16 1 14.15 3.08 4.01 2.06 7.06 4.84 9.21 7.45 2.14 2.64 3.43 5.1 4.15 6.84.36.88.62 1.56.75 2.04.15.47.22.72.2.72z"/><path class="st12" d="M405.18 305.46l2.11-9.51h18.59c-.66 2.82-1.59 6.1-2.64 9.61l-18.06-.1zm-41.56 0l-2.11-9.51h-18.59c.66 2.82 1.22 6.1 2.27 9.61l18.43-.1z"/><path class="st14" d="M427.87 261.74c-4.44-7.26-16.22-15.66-41.61-16.84 0 0-28.45-.92-40.6 10.59 0 0-2.37 2.47-3.11 3.84-.74 1.37 9.5 13.66 42.37 12.61 33.93-1.09 42.95-10.2 42.95-10.2z"/><path class="st5" d="M339.47 218.36c-1.63-3.65-2.42-7.83-1.31-11.67 1.11-3.84 4.41-7.19 8.39-7.54"/><path class="st6" d="M345.23 199.38c.05.07-.67.61-1.62 1.7-.95 1.08-2.18 2.68-3.1 4.67-.88 2.02-1.54 3.92-1.94 5.31-.4 1.39-.58 2.28-.66 2.26-.06-.01-.01-.92.31-2.36s.92-3.38 1.82-5.44c.96-2.06 2.27-3.66 3.31-4.7s1.85-1.49 1.88-1.44z"/><path class="st5" d="M431.42 218.36c1.63-3.65 2.42-7.83 1.31-11.67-1.11-3.84-4.41-7.19-8.39-7.54"/><path class="st6" d="M425.66 199.38c.03-.05.84.4 1.89 1.45 1.04 1.04 2.35 2.64 3.31 4.7.9 2.06 1.5 4 1.82 5.44.32 1.44.37 2.35.31 2.36-.08.01-.26-.87-.66-2.26-.4-1.39-1.05-3.29-1.94-5.31-.92-1.98-2.16-3.59-3.1-4.67-.96-1.1-1.68-1.64-1.63-1.71z"/><path class="st6" d="M343.16 236.48c-4.52-4.56-6.38-11.11-5.13-17.41 2.65-13.4 12.4-37.52 48.24-37.01 37.59.53 44.65 26.55 45.86 39.09.5 5.18-1.06 10.35-4.38 14.36-5.59 6.75-17.46 15.46-41.48 15.46-23.8-.01-36.59-7.91-43.11-14.49z"/><path class="st5" d="M369.51 183.65c.02-.01.09.15.21.45.14.36.31.79.51 1.32.45 1.14 1.08 2.8 2.06 4.75.99 1.93 2.36 4.19 4.49 6.11 2.09 1.9 5.06 3.49 8.36 3.37 3.3-.1 6.25-1.63 8.42-3.45 2.19-1.86 3.67-4.04 4.74-5.93 1.08-1.9 1.77-3.54 2.25-4.66.48-1.13.73-1.76.77-1.75.02.01-.03.17-.12.48-.1.31-.25.76-.46 1.34-.43 1.15-1.07 2.82-2.12 4.76-1.05 1.93-2.52 4.18-4.76 6.11-2.22 1.9-5.26 3.5-8.72 3.61-1.72.06-3.39-.32-4.86-.98-1.48-.65-2.75-1.57-3.84-2.55-2.18-2-3.54-4.33-4.5-6.3-.95-1.99-1.53-3.68-1.92-4.85-.19-.58-.33-1.04-.42-1.35-.06-.3-.1-.47-.09-.48zm40.5 51.32c-17.44 4.27-34.47 4.43-51.05.19-6.23-1.59-10.55-7.26-10.55-13.69v-.24c0-7.82 6.34-14.16 14.16-14.16h44.05c7.82 0 14.16 6.34 14.16 14.16 0 6.5-4.44 12.19-10.77 13.74z"/><path class="st11" d="M371.58 223.94a3.212 3.212 0 01-3.68 2.66 3.212 3.212 0 01-2.66-3.68 3.212 3.212 0 013.68-2.66c1.75.28 2.94 1.93 2.66 3.68zm36.78-1.86a3.212 3.212 0 01-3.68 2.66 3.212 3.212 0 01-2.66-3.68 3.212 3.212 0 013.68-2.66c1.75.28 2.94 1.93 2.66 3.68zm-14.12.41c.06-.02.24 1.13-.48 2.79-.36.81-.97 1.72-1.89 2.46-.91.75-2.14 1.26-3.47 1.36-1.33.1-2.61-.23-3.6-.83-1-.6-1.7-1.41-2.15-2.16-.9-1.53-.85-2.7-.79-2.69.11-.03.23 1.07 1.17 2.43.47.66 1.15 1.38 2.07 1.89.91.52 2.07.79 3.27.71 1.2-.09 2.32-.53 3.16-1.18.85-.64 1.44-1.45 1.83-2.18.77-1.51.76-2.62.88-2.6z"/></g><g id="Robot_1"><path class="st5" d="M88.1 241.8c0 .01-.09.05-.27.11-.21.07-.47.16-.8.27-.7.24-1.73.62-3.01 1.2-2.52 1.18-6.19 3.2-9.47 7.02a21.234 21.234 0 00-4.06 7.03c-.94 2.78-1.19 5.99-.6 9.23.64 3.21 2.05 6.53 4.6 9.06 1.25 1.27 2.77 2.31 4.46 3.04s3.54 1.14 5.43 1.27c3.81.23 7.52-.61 10.92-1.75 3.42-1.16 6.57-2.69 9.64-4.01 3.06-1.34 6.03-2.51 8.94-3.2 2.9-.7 5.73-.93 8.25-.53 5.08.7 8.69 3.3 10.35 5.57.46.55.73 1.13 1.01 1.59.21.5.42.92.53 1.28.09.34.17.6.23.82.05.18.07.28.06.28-.01 0-.05-.09-.11-.27-.07-.21-.16-.47-.27-.8-.13-.35-.35-.75-.57-1.24-.29-.45-.58-1.01-1.04-1.54-1.68-2.2-5.24-4.69-10.24-5.33-2.48-.36-5.24-.12-8.1.59-2.86.7-5.81 1.88-8.85 3.22-3.05 1.33-6.21 2.88-9.66 4.06-3.44 1.16-7.21 2.02-11.12 1.79-1.94-.13-3.86-.56-5.61-1.31-1.75-.76-3.32-1.85-4.62-3.16-2.63-2.62-4.06-6.04-4.71-9.33-.59-3.33-.31-6.62.67-9.46a21.55 21.55 0 014.19-7.13c3.37-3.85 7.1-5.83 9.66-6.96 2.62-1.12 4.17-1.41 4.17-1.41z"/><path class="st6" d="M216.19 397.75V360.2c0-10.52-8.46-19.08-18.97-19.21l-108.67-1.36c-7.28-.09-13.23 5.78-13.23 13.06v44.59l140.87.47z"/><path transform="rotate(-180 110.64 361.012)" class="st12" d="M88.63 350.72h44.02v20.58H88.63z"/><path class="st5" d="M146.46 397.09c-.14 0-.26-12.61-.26-28.15 0-15.55.12-28.16.26-28.16s.26 12.6.26 28.16c0 15.54-.12 28.15-.26 28.15zm-.45-73.38c-.03.11-1.58-.68-4.27-.83-2.63-.18-6.54.53-9.65 3.22-3.09 2.71-4.32 6.49-4.5 9.12-.22 2.68.36 4.32.24 4.34-.03.01-.18-.39-.36-1.13-.18-.74-.32-1.86-.25-3.23.06-1.37.37-3.01 1.09-4.69.71-1.68 1.85-3.39 3.44-4.8 1.61-1.38 3.46-2.28 5.22-2.75 1.76-.48 3.43-.57 4.8-.44 1.37.13 2.45.42 3.17.69.72.27 1.09.48 1.07.5z"/><path class="st6" d="M199.94 341.25l-53.48-143.92-38.67 18.35 45.37 135.04z"/><circle transform="rotate(-88.052 187.83 372.708)" class="st14" cx="187.84" cy="372.71" r="21.47"/><circle transform="rotate(-68.476 185.2 364.32)" class="st5" cx="185.2" cy="364.33" r="22.08"/><path class="st13" d="M177.52 367.72c1.87 4.24 6.83 6.17 11.07 4.3s6.17-6.83 4.3-11.07-6.83-6.17-11.07-4.3a8.39 8.39 0 00-4.3 11.07z"/><path class="st5" d="M177.07 345.88c-.01 0-.04-.07-.11-.21-.07-.17-.16-.38-.27-.64-.24-.61-.57-1.44-.98-2.49-.84-2.21-2.04-5.34-3.5-9.18-2.92-7.81-6.93-18.52-11.37-30.35-2.89-7.81-5.6-15.13-7.9-21.36l-.08-.22.22-.07c6.52-2.22 11.96-4.07 15.83-5.38 1.88-.62 3.38-1.12 4.45-1.47.49-.15.88-.28 1.18-.37.27-.08.41-.12.41-.11 0 .01-.13.07-.39.17-.3.11-.68.26-1.16.44-1.06.38-2.54.92-4.41 1.59-3.85 1.36-9.28 3.27-15.77 5.56l.14-.29c2.32 6.22 5.05 13.53 7.97 21.33 4.38 11.85 8.34 22.59 11.22 30.41 1.4 3.87 2.54 7.01 3.35 9.24.37 1.06.67 1.9.88 2.52l.22.66c.06.14.08.22.07.22zm-49.69-70.05c-.05-.13 9.32-3.97 20.93-8.58 11.62-4.6 21.07-8.23 21.12-8.09.05.13-9.32 3.97-20.93 8.58-11.61 4.6-21.06 8.22-21.12 8.09zm46.79 109.75c-.01.01-.17-.09-.45-.29-.28-.21-.71-.5-1.22-.93-1.04-.83-2.48-2.13-4.12-3.87-3.29-3.46-7.13-8.94-10.17-15.56-3.05-6.63-4.95-12.96-6.26-17.53-.65-2.29-1.15-4.15-1.48-5.44l-.37-1.49c-.08-.34-.11-.52-.09-.53.02 0 .08.17.19.5.12.39.28.87.46 1.46.41 1.35.96 3.17 1.64 5.39 1.4 4.54 3.35 10.83 6.38 17.42 3.03 6.58 6.77 12.03 9.97 15.53 1.59 1.76 2.98 3.09 3.98 3.96 1 .88 1.57 1.35 1.54 1.38zm28.11-12.01c-.02-.05.51-.18 1.28-.74.76-.54 1.73-1.59 2.32-3.17.61-1.57.71-3.64.43-5.87-.28-2.24-.73-4.7-1.29-7.26-1.12-5.12-2.62-9.63-3.83-12.84-.6-1.61-1.14-2.89-1.5-3.78-.37-.89-.56-1.38-.53-1.4.03-.02.29.45.72 1.32.42.87 1.01 2.13 1.65 3.73 1.31 3.19 2.87 7.71 4 12.86.56 2.57.99 5.04 1.25 7.32.26 2.27.12 4.42-.56 6.06-.66 1.64-1.72 2.69-2.55 3.21-.41.27-.77.4-1.01.49-.24.06-.37.08-.38.07z"/><circle class="st13" cx="210.56" cy="426.83" r="19.46"/><circle class="st5" cx="210.56" cy="426.83" r="6.67"/><circle class="st13" cx="146.64" cy="427.34" r="19.46"/><circle class="st5" cx="146.64" cy="427.34" r="6.67"/><circle class="st13" cx="82.22" cy="427.34" r="19.46"/><circle class="st5" cx="82.22" cy="427.34" r="6.67"/><path class="st5" d="M51.99 426.83c0-16.28 13.25-29.53 29.53-29.53H211c16.28 0 29.53 13.25 29.53 29.53s-13.25 29.53-29.53 29.53H81.52c-16.28 0-29.53-13.25-29.53-29.53zm29.53-19.85c-10.95 0-19.85 8.9-19.85 19.85 0 10.95 8.9 19.85 19.85 19.85H211c10.95 0 19.85-8.9 19.85-19.85 0-10.95-8.9-19.85-19.85-19.85H81.52z"/><path class="st13" d="M146.64 406.96c-.09 0-.16-2.12-.16-4.74s.07-4.74.16-4.74.16 2.12.16 4.74-.07 4.74-.16 4.74zm-24.27 0c-.09 0-.16-2.12-.16-4.74s.07-4.74.16-4.74.16 2.12.16 4.74-.07 4.74-.16 4.74zm-24.27 0c-.09 0-.16-2.12-.16-4.74s.07-4.74.16-4.74.16 2.12.16 4.74-.07 4.74-.16 4.74zm-22.55.92c-.08.03-.77-1.98-1.52-4.49-.76-2.5-1.31-4.55-1.23-4.58.08-.02.77 1.98 1.52 4.49.77 2.51 1.32 4.56 1.23 4.58zm-12.79 12.16c-.04.08-1.96-.83-4.29-2.02s-4.19-2.22-4.15-2.29c.04-.08 1.96.83 4.29 2.02 2.34 1.19 4.19 2.22 4.15 2.29zm85.08 27.06c.09 0 .16 2.12.16 4.74s-.07 4.74-.16 4.74-.16-2.12-.16-4.74.07-4.74.16-4.74zm-24.27-.3c.09 0 .16 2.12.16 4.74s-.07 4.74-.16 4.74-.16-2.12-.16-4.74.07-4.74.16-4.74zm-24.27 0c.09 0 .16 2.12.16 4.74s-.07 4.74-.16 4.74-.16-2.12-.16-4.74.07-4.74.16-4.74zm-22.55-.63c.08.03-.47 2.07-1.23 4.58-.76 2.5-1.44 4.51-1.52 4.49-.08-.03.47-2.07 1.23-4.58.75-2.51 1.43-4.51 1.52-4.49zM63.29 435c.04.08-1.82 1.1-4.15 2.29s-4.25 2.09-4.29 2.02c-.04-.08 1.82-1.1 4.15-2.29s4.25-2.09 4.29-2.02zm106.52 12.1c.09 0 .16 2.12.16 4.74s-.07 4.74-.16 4.74-.16-2.12-.16-4.74c.01-2.62.08-4.74.16-4.74zm24.27 0c.09 0 .16 2.12.16 4.74s-.07 4.74-.16 4.74-.16-2.12-.16-4.74c.01-2.62.08-4.74.16-4.74zm22.55-.93c.08-.02.77 1.98 1.52 4.49.76 2.5 1.31 4.55 1.23 4.58-.08.02-.77-1.98-1.52-4.49-.76-2.5-1.31-4.55-1.23-4.58zm12.79-12.16c.04-.08 1.96.83 4.29 2.02s4.19 2.22 4.15 2.29c-.04.08-1.96-.83-4.29-2.02-2.33-1.18-4.19-2.21-4.15-2.29zm-60.8-26.75c-.09 0-.16-2.12-.16-4.74s.07-4.74.16-4.74.16 2.12.16 4.74c0 2.61-.07 4.74-.16 4.74zm24.27 0c-.09 0-.16-2.12-.16-4.74s.07-4.74.16-4.74.16 2.12.16 4.74c0 2.61-.07 4.74-.16 4.74zm22.55.62c-.08-.02.47-2.07 1.23-4.58.76-2.5 1.44-4.51 1.52-4.49.08.02-.47 2.07-1.23 4.58-.76 2.51-1.44 4.52-1.52 4.49zm13.45 11.17c-.04-.08 1.82-1.1 4.15-2.29s4.25-2.09 4.29-2.02c.04.08-1.82 1.1-4.15 2.29s-4.25 2.1-4.29 2.02z"/><path class="st5" d="M169.96 166.25s.08-.13.26-.37c.19-.26.46-.61.79-1.06.71-.92 1.75-2.29 3.06-4.06 2.62-3.56 6.36-8.74 10.57-15.42 4.24-6.66 8.92-14.82 13.48-24.21 2.28-4.69 4.51-9.69 6.68-14.94 2.19-5.24 4.38-10.71 6.96-16.17 2.58-5.46 5.41-10.66 8.78-15.28 3.36-4.61 7.18-8.65 11.35-11.85 4.17-3.18 8.67-5.53 13.17-6.81 4.49-1.35 8.94-1.45 12.87-.93 3.94.54 7.37 1.81 10.13 3.31 2.78 1.51 4.87 3.29 6.39 4.89 1.46 1.67 2.43 3.11 2.97 4.13.26.5.45.9.6 1.18.13.27.19.41.19.41s-.09-.13-.24-.39c-.16-.28-.37-.66-.64-1.15-.57-1.01-1.56-2.42-3.03-4.05a26.26 26.26 0 00-6.38-4.78 29.72 29.72 0 00-10.04-3.2c-3.89-.49-8.28-.37-12.7.98-4.44 1.28-8.88 3.61-13 6.77-4.11 3.18-7.9 7.19-11.23 11.77-3.33 4.58-6.15 9.76-8.72 15.2-2.56 5.44-4.76 10.9-6.96 16.14-2.17 5.25-4.42 10.26-6.72 14.96-4.6 9.39-9.32 17.55-13.6 24.19-4.25 6.66-8.05 11.82-10.72 15.34-1.34 1.76-2.4 3.11-3.14 4.01-.36.44-.63.78-.84 1.03-.18.25-.29.36-.29.36z"/><path class="st1" d="M239.64 108.85l-64.39 52.81 12.46 11.85 63.63-49.29z"/><path class="st6" d="M150.54 218.4l45.12-37.39-23.87-27.64-52.3 41.69z"/><path class="st1" d="M119.41 223.55l-28.8 23.04-9.66-11.68 27.59-22.57z"/><path transform="rotate(-34.116 309.004 100.674)" class="st1" d="M299.75 89.64h18.53v22.08h-18.53z"/><path class="st5" d="M321.45 102.52l27.63.39 15.33 22.63-7.47 23.54-6.65-1.66 3.45-15.57-11.36-13.66-14 .77-9.55 6.62-6.03 12.54 10.8 15.93 12.88 2.72-.14 6.2-21.23-1.86L298.77 137l7.34-24.08 16.83-11.41"/><circle transform="rotate(-26.06 131.353 218.325)" class="st14" cx="131.34" cy="218.31" r="21.47"/><circle transform="rotate(-63.589 129.48 209.74)" class="st5" cx="129.47" cy="209.73" r="22.08"/><path class="st13" d="M121.51 212.41a8.394 8.394 0 0010.64 5.28 8.394 8.394 0 005.28-10.64 8.394 8.394 0 00-10.64-5.28c-4.39 1.48-6.75 6.24-5.28 10.64z"/><path class="st5" d="M165.09 158.72c.03-.01.17.35.42 1.02.27.74.62 1.71 1.05 2.89.89 2.57 2.1 6.07 3.51 10.15l.05.16-.13.11c-2.12 1.77-4.44 3.7-6.87 5.73-5.07 4.21-9.68 8-13.03 10.72-1.64 1.31-2.98 2.4-3.99 3.2-.44.34-.8.62-1.1.85-.26.19-.4.28-.41.27-.01-.01.11-.13.34-.35.28-.25.63-.56 1.04-.93.98-.84 2.29-1.96 3.88-3.33 3.29-2.8 7.86-6.63 12.94-10.84 2.44-2.02 4.77-3.94 6.9-5.7l-.07.26c-1.34-4.11-2.49-7.63-3.33-10.21-.37-1.2-.68-2.18-.92-2.94-.21-.68-.31-1.05-.28-1.06z"/><path class="st6" d="M279.63 65.94l-46.51 36.71 20.74 29.08 48.55-37.86z"/><circle transform="rotate(-86.893 286.423 84.266)" class="st14" cx="286.41" cy="84.26" r="17.63"/><path class="st5" d="M280.42 64.72c-8.17 6.47-9.55 18.33-3.08 26.5 6.47 8.17 18.33 9.55 26.5 3.08 8.17-6.47 9.55-18.33 3.08-26.5-6.47-8.17-18.33-9.55-26.5-3.08z"/><path class="st13" d="M287.68 73.89a7.172 7.172 0 00-1.17 10.08 7.172 7.172 0 0010.08 1.17 7.172 7.172 0 001.17-10.08c-2.47-3.11-6.98-3.63-10.08-1.17z"/><path class="st5" d="M284.25 108.03c-.02.02-.42-.24-1.16-.75-.79-.56-1.84-1.3-3.12-2.22-2.7-1.97-6.4-4.67-10.67-7.78l.31-.01c-1.75 1.43-3.64 2.98-5.6 4.58-5.49 4.48-10.47 8.51-14.1 11.41-1.77 1.4-3.23 2.56-4.31 3.41-.48.36-.87.66-1.19.91-.28.2-.43.3-.44.29-.01-.01.12-.14.37-.37.3-.26.67-.59 1.13-.98 1.05-.89 2.47-2.08 4.21-3.54 3.57-2.97 8.52-7.05 14-11.52 1.96-1.6 3.86-3.14 5.61-4.57l.15-.12.15.12c4.22 3.17 7.88 5.92 10.56 7.93 1.25.96 2.27 1.75 3.03 2.34.72.54 1.09.85 1.07.87z"/></g></svg>