<svg xmlns="http://www.w3.org/2000/svg" viewBox="0 0 750 500"><style>.st0{fill:#ebebeb}.st1{fill:#e0e0e0}.st2{fill:#f5f5f5}.st3{fill:#fafafa}.st7{fill:#263238}.st8{fill:#e8505b}.st10{fill:#fff}.st11{fill:#455a64}.st14{fill:#ffbe9d}.st15{fill:#eb996e}</style><g id="Background_Complete"><path class="st0" d="M151.88 437.14c17.55-15.39 19.15-40.53 15.95-62.62-.53-3.69-.56-7.63-2.68-10.69-2.12-3.05-6.47-4.82-9.61-2.89-2.61 1.6-3.45 4.93-4.7 7.74-1.66 3.74-4.38 6.99-7.77 9.25-2.22 1.48-5.05 2.55-7.52 1.53-3.39-1.41-4.25-5.78-4.63-9.46-.71-6.87-1.43-13.73-2.14-20.59-.38-3.68-.79-7.44-2.32-10.81-1.53-3.37-4.42-6.33-8.03-6.93-3.61-.59-7.72 1.9-8.06 5.59-.14 1.53.33 3.06.4 4.59.07 1.54-.46 3.31-1.86 3.89-1.42.59-3.01-.29-4.23-1.24-4.21-3.3-7.32-7.8-10.25-12.3-2.93-4.5-5.81-9.11-9.71-12.79-3.89-3.67-9.02-6.36-14.32-6.08-5.31.28-10.56 4.16-11.32 9.48-.76 5.34 2.84 10.27 6.6 14.11a82.61 82.61 0 0018.91 14.42c1.25.7 2.61 1.45 3.2 2.76 1.07 2.37-.99 5.06-3.32 6.13-2.64 1.22-5.65 1.26-8.48 1.91-2.83.65-5.8 2.26-6.59 5.1-1.09 3.93 2.49 7.53 5.87 9.77 6.77 4.49 14.3 7.79 22.16 9.73 2.82.69 5.76 1.25 8.16 2.91 2.39 1.66 4.08 4.82 3.04 7.56-1.03 2.74-4.33 3.94-7.22 3.73-2.89-.21-5.6-1.47-8.42-2.19-5.27-1.35-11.76-.28-14.52 4.45-1.81 3.11-1.56 7.13-.1 10.44 1.45 3.31 3.96 6.02 6.58 8.48 9.16 8.62 20.38 15.13 32.56 17.91 12.19 2.75 23.18 2.66 34.37-2.89"/><path class="st1" d="M153.99 453.54c-1.77-8.69-4.84-18.86-9.36-29.67-4.5-10.83-10.41-22.29-17.01-34.07-1.66-2.94-3.3-5.84-4.92-8.7-1.62-2.85-3.23-5.68-4.97-8.35-3.46-5.35-7.2-10.24-10.89-14.76-3.69-4.53-7.36-8.69-10.82-12.56-3.47-3.86-6.77-7.4-9.91-10.5-6.27-6.22-11.92-10.63-15.92-13.49-2-1.44-3.58-2.51-4.67-3.22-.52-.34-.93-.6-1.24-.8-.28-.18-.43-.26-.43-.25-.01.01.13.12.4.31.3.21.7.49 1.2.85 1.06.75 2.62 1.85 4.59 3.32 3.94 2.93 9.52 7.38 15.73 13.62 3.12 3.11 6.39 6.66 9.83 10.53 3.44 3.88 7.08 8.05 10.75 12.58 3.67 4.53 7.38 9.4 10.82 14.73 1.73 2.66 3.32 5.46 4.94 8.32 1.61 2.86 3.25 5.76 4.91 8.7 6.59 11.77 12.51 23.19 17.02 33.97 4.53 10.77 7.64 20.88 9.47 29.53"/><path class="st1" d="M117.54 372.75c.05 0 .11-.57.19-1.61s.15-2.54.21-4.41c.12-3.72.1-8.87.06-14.54-.04-5.68.02-10.81.19-14.52.08-1.86.16-3.36.23-4.39.06-1.04.08-1.61.03-1.62-.05-.01-.15.56-.29 1.59-.15 1.03-.31 2.53-.45 4.39-.3 3.72-.43 8.87-.39 14.55.05 5.6.1 10.66.14 14.53.01 1.75.01 3.22.01 4.4-.01 1.05.02 1.62.07 1.63z"/><path class="st1" d="M69.23 369.12c0 .05.69.05 1.91.02 1.23-.03 3-.07 5.19-.06 4.39-.01 10.45.19 17.12.7 6.68.52 12.7 1.25 17.04 1.91 2.17.31 3.93.61 5.14.81 1.21.2 1.89.3 1.9.25.01-.05-.65-.23-1.85-.51-1.2-.28-2.94-.65-5.11-1.03-4.33-.78-10.37-1.59-17.06-2.11-6.7-.51-12.78-.63-17.18-.5-2.2.05-3.98.17-5.2.28-1.22.11-1.9.19-1.9.24zm74.72 53.94c.02.01.11-.2.26-.61.17-.49.37-1.08.62-1.8.53-1.57 1.24-3.85 2.08-6.69 1.69-5.67 3.77-13.58 5.95-22.34s4.19-16.68 5.75-22.38c.77-2.77 1.4-5.05 1.87-6.75.2-.74.36-1.34.5-1.84.11-.42.15-.65.13-.66-.02-.01-.11.2-.26.61-.17.49-.37 1.08-.62 1.8-.53 1.57-1.24 3.85-2.08 6.69-1.69 5.67-3.77 13.58-5.95 22.35-2.18 8.76-4.18 16.68-5.75 22.38-.77 2.77-1.4 5.05-1.87 6.75-.2.74-.36 1.34-.5 1.84-.11.42-.15.64-.13.65z"/><path class="st1" d="M78.83 409.73c0 .02.22.09.65.19.51.11 1.14.25 1.89.41 1.75.36 4.11.85 6.98 1.44 5.89 1.22 14 2.99 22.97 4.96 8.97 1.97 17.11 3.67 23.02 4.77 2.96.55 5.36.97 7.02 1.22.77.11 1.4.21 1.92.28.44.06.67.08.68.05 0-.02-.22-.09-.65-.19-.51-.11-1.13-.24-1.89-.41-1.75-.36-4.1-.85-6.97-1.44-5.89-1.22-14.01-2.99-22.97-4.96-8.96-1.97-17.1-3.67-23.02-4.77-2.96-.55-5.36-.97-7.02-1.22-.77-.11-1.4-.21-1.92-.28-.46-.06-.69-.07-.69-.05z"/><path class="st2" d="M153.35 193.82h84.76v259.65h-84.76z"/><path class="st3" d="M237.85 193.82h66.99v259.65h-66.99z"/><path class="st1" d="M157.9 235.37h71.9v20.24h-71.9z"/><path class="st2" d="M159.91 237.92h4.03v15.49h-4.03z"/><path class="st3" d="M168.68 241.18c0 .71-.57 1.28-1.28 1.28-.71 0-1.28-.57-1.28-1.28 0-.71.57-1.28 1.28-1.28.71 0 1.28.57 1.28 1.28z"/><circle class="st3" cx="167.4" cy="246.65" r="1.28"/><path class="st2" d="M173.8 239.9h3.96v11.9h-3.96zm5.71 0h3.96v11.9h-3.96zm5.72 0h3.96v11.9h-3.96zm5.71 0h3.96v11.9h-3.96zm5.72 0h3.96v11.9h-3.96zm5.71 0h3.96v11.9h-3.96zm5.72 0h3.96v11.9h-3.96zm5.71 0h3.96v11.9h-3.96zm5.72 0h3.96v11.9h-3.96zm5.71 0h3.96v11.9h-3.96z"/><path class="st1" d="M157.9 267.8h71.9v20.24h-71.9z"/><path class="st2" d="M159.91 270.34h4.03v15.49h-4.03z"/><path class="st3" d="M168.68 273.6c0 .71-.57 1.28-1.28 1.28-.71 0-1.28-.57-1.28-1.28 0-.71.57-1.28 1.28-1.28.71 0 1.28.57 1.28 1.28z"/><circle class="st3" cx="167.4" cy="279.07" r="1.28"/><path class="st2" d="M173.8 272.32h3.96v11.9h-3.96zm5.71 0h3.96v11.9h-3.96zm5.72 0h3.96v11.9h-3.96zm5.71 0h3.96v11.9h-3.96zm5.72 0h3.96v11.9h-3.96zm5.71 0h3.96v11.9h-3.96zm5.72 0h3.96v11.9h-3.96zm5.71 0h3.96v11.9h-3.96zm5.72 0h3.96v11.9h-3.96zm5.71 0h3.96v11.9h-3.96z"/><path class="st1" d="M157.9 300.22h71.9v20.24h-71.9z"/><path class="st2" d="M159.91 302.76h4.03v15.49h-4.03z"/><path class="st3" d="M168.68 306.02c0 .71-.57 1.28-1.28 1.28-.71 0-1.28-.57-1.28-1.28 0-.71.57-1.28 1.28-1.28.71 0 1.28.58 1.28 1.28z"/><circle class="st3" cx="167.4" cy="311.5" r="1.28"/><path class="st2" d="M173.8 304.74h3.96v11.9h-3.96zm5.71 0h3.96v11.9h-3.96zm5.72 0h3.96v11.9h-3.96zm5.71 0h3.96v11.9h-3.96zm5.72 0h3.96v11.9h-3.96zm5.71 0h3.96v11.9h-3.96zm5.72 0h3.96v11.9h-3.96zm5.71 0h3.96v11.9h-3.96zm5.72 0h3.96v11.9h-3.96zm5.71 0h3.96v11.9h-3.96z"/><path class="st1" d="M157.9 332.64h71.9v20.24h-71.9z"/><path class="st2" d="M159.91 335.19h4.03v15.49h-4.03z"/><path class="st3" d="M168.68 338.45c0 .71-.57 1.28-1.28 1.28-.71 0-1.28-.57-1.28-1.28 0-.71.57-1.28 1.28-1.28.71 0 1.28.57 1.28 1.28z"/><circle class="st3" cx="167.4" cy="343.92" r="1.28"/><path class="st2" d="M173.8 337.17h3.96v11.9h-3.96zm5.71 0h3.96v11.9h-3.96zm5.72 0h3.96v11.9h-3.96zm5.71 0h3.96v11.9h-3.96zm5.72 0h3.96v11.9h-3.96zm5.71 0h3.96v11.9h-3.96zm5.72 0h3.96v11.9h-3.96zm5.71 0h3.96v11.9h-3.96zm5.72 0h3.96v11.9h-3.96zm5.71 0h3.96v11.9h-3.96z"/><path class="st1" d="M157.9 365.07h71.9v20.24h-71.9z"/><path class="st2" d="M159.91 367.61h4.03v15.49h-4.03z"/><path class="st3" d="M168.68 370.87c0 .71-.57 1.28-1.28 1.28-.71 0-1.28-.57-1.28-1.28 0-.71.57-1.28 1.28-1.28.71 0 1.28.57 1.28 1.28z"/><circle class="st3" cx="167.4" cy="376.35" r="1.28"/><path class="st2" d="M173.8 369.59h3.96v11.9h-3.96zm5.71 0h3.96v11.9h-3.96zm5.72 0h3.96v11.9h-3.96zm5.71 0h3.96v11.9h-3.96zm5.72 0h3.96v11.9h-3.96zm5.71 0h3.96v11.9h-3.96zm5.72 0h3.96v11.9h-3.96zm5.71 0h3.96v11.9h-3.96zm5.72 0h3.96v11.9h-3.96zm5.71 0h3.96v11.9h-3.96z"/><path class="st1" d="M157.9 397.49h71.9v20.24h-71.9z"/><path class="st2" d="M159.91 400.04h4.03v15.49h-4.03z"/><path class="st3" d="M168.68 403.29c0 .71-.57 1.28-1.28 1.28-.71 0-1.28-.57-1.28-1.28 0-.71.57-1.28 1.28-1.28.71 0 1.28.58 1.28 1.28z"/><circle class="st3" cx="167.4" cy="408.77" r="1.28"/><path class="st2" d="M173.8 402.01h3.96v11.9h-3.96zm5.71 0h3.96v11.9h-3.96zm5.72 0h3.96v11.9h-3.96zm5.71 0h3.96v11.9h-3.96zm5.72 0h3.96v11.9h-3.96zm5.71 0h3.96v11.9h-3.96zm5.72 0h3.96v11.9h-3.96zm5.71 0h3.96v11.9h-3.96zm5.72 0h3.96v11.9h-3.96zm5.71 0h3.96v11.9h-3.96z"/><path class="st1" d="M157.9 429.91h71.9v20.24h-71.9z"/><path class="st2" d="M159.91 432.46h4.03v15.49h-4.03z"/><circle class="st3" cx="167.4" cy="435.72" r="1.28"/><circle class="st3" cx="167.4" cy="441.19" r="1.28"/><path class="st2" d="M173.8 434.44h3.96v11.9h-3.96zm5.71 0h3.96v11.9h-3.96zm5.72 0h3.96v11.9h-3.96zm5.71 0h3.96v11.9h-3.96zm5.72 0h3.96v11.9h-3.96zm5.71 0h3.96v11.9h-3.96zm5.72 0h3.96v11.9h-3.96zm5.71 0h3.96v11.9h-3.96zm5.72 0h3.96v11.9h-3.96zm5.71 0h3.96v11.9h-3.96z"/><path class="st1" d="M202.37 235.37c-.02 0-.05-.21-.08-.62a40 40 0 01-.08-1.8c-.02-.78-.04-1.74-.09-2.84-.07-1.1-.14-2.37-.5-3.69-.38-1.32-.98-2.73-1.92-4.04-.93-1.31-2.25-2.48-3.93-3.16-1.67-.69-3.59-.95-5.58-1.13-2-.17-4.07-.35-6.19-.54-8.49-.74-16.18-1.21-21.76-1.32a228.3 228.3 0 00-6.61-.04c-.74.01-1.33.01-1.8.01-.41 0-.63-.01-.63-.03 0-.02.21-.04.62-.08.47-.03 1.06-.07 1.8-.11 1.56-.07 3.82-.14 6.62-.12 5.59.01 13.31.43 21.8 1.17 2.12.19 4.19.37 6.2.55 2 .19 3.97.46 5.72 1.2 1.76.72 3.15 1.98 4.1 3.35.96 1.37 1.55 2.83 1.92 4.19.35 1.39.39 2.66.43 3.77.03 1.11.01 2.07 0 2.85-.01.74-.02 1.33-.02 1.8 0 .42 0 .63-.02.63z"/><path class="st1" d="M180.56 235.37c-.02 0-.03-.2-.05-.59-.01-.44-.01-1-.02-1.69-.01-.73-.01-1.63-.09-2.66-.1-1.02-.26-2.22-.89-3.33-.62-1.1-1.85-1.93-3.24-2.49a8.86 8.86 0 00-4.72-.48c-.83.14-1.67.41-2.44.83-.76.42-1.47 1.01-1.89 1.79-.43.77-.45 1.72.01 2.51.44.78 1.24 1.4 2.14 1.61.9.22 1.84-.09 2.5-.72.66-.62 1.06-1.5 1.12-2.38.09-.89-.24-1.72-.75-2.44a5.38 5.38 0 00-1.89-1.67c-.72-.41-1.55-.47-2.37-.61-.81-.12-1.6-.23-2.36-.31-1.53-.17-2.96-.27-4.27-.33-2.62-.1-4.74-.07-6.21-.07-.69 0-1.25-.01-1.69-.01-.39-.01-.59-.02-.59-.04s.2-.04.59-.07c.44-.02 1-.05 1.69-.09 1.47-.06 3.59-.15 6.23-.1 1.32.03 2.76.11 4.3.27.77.08 1.57.18 2.38.29.41.06.82.12 1.25.19.44.08.87.24 1.27.44.81.41 1.53 1.04 2.08 1.81.55.75.95 1.75.85 2.76-.07 1-.52 1.99-1.28 2.72-.74.73-1.9 1.12-2.97.85a3.874 3.874 0 01-2.47-1.86c-.54-.92-.52-2.12 0-3 .49-.9 1.28-1.53 2.1-1.98.83-.45 1.72-.72 2.6-.87 1.76-.29 3.5-.04 4.96.55 1.44.6 2.73 1.49 3.4 2.71.65 1.21.78 2.45.86 3.49.05 1.05.03 1.95 0 2.69-.03.69-.05 1.25-.07 1.69-.03.39-.05.59-.07.59zm27.68 0c-.02 0-.07-.23-.15-.67-.08-.44-.2-1.09-.38-1.92-.37-1.66-.94-4.06-2.13-6.85-1.17-2.77-3.05-5.98-6.25-8.39-1.56-1.22-3.58-1.89-5.72-2.18-2.14-.31-4.42-.3-6.74-.36-9.29-.18-17.71-.14-23.81-.39-3.05-.11-5.51-.25-7.21-.38-.81-.07-1.46-.13-1.96-.17-.45-.04-.68-.08-.68-.1 0-.02.24-.02.69-.01.5.02 1.15.04 1.96.07 1.7.06 4.16.15 7.21.21 6.09.15 14.5.06 23.81.23 2.32.07 4.6.05 6.8.38 2.18.3 4.32 1.01 5.94 2.3 1.61 1.26 2.96 2.68 3.96 4.19 1.02 1.5 1.76 3.02 2.34 4.43 1.16 2.84 1.68 5.28 1.98 6.96.15.84.24 1.5.29 1.94.05.47.07.71.05.71zm-49.35-38.32h69.92v10.15h-69.92z"/><path class="st2" d="M174.27 202.12h38.07v5.08h-38.07z"/></g><path class="st7" d="M696.71 453.64c0 .14-144.05.26-321.69.26-177.71 0-321.72-.12-321.72-.26s144.01-.26 321.72-.26c177.64 0 321.69.12 321.69.26z" id="Floor"/><g id="Plants"><path class="st8" d="M643.88 328.66s-5.76-3.74-12.64 10.03c-6.87 13.77-9.46 21.7-9.46 21.7s-1.82 2.89-3.81 1.03-4.74-7.17-8.08-6.18c-3.47 1.02-4.58 4.92-3.87 10.62.71 5.7 1.81 18.25 1.91 19.38.09 1.11-.53 2.76-2.09 1.71-1.56-1.05-10.55-10.9-14.97-6.36-4.42 4.55.17 20.1.64 21.81.47 1.71.14 2.44-.67 2.88s-3.52-3.17-6.2-5.86c-2.67-2.7-6.25-5.36-8.58-2.52-2.33 2.84-2.99 14.54 8.31 33.45l5.81 8.42 10.25-.65c21.85-2.74 30.68-10.46 31.48-14.04.8-3.58-3.49-4.76-7.26-5.21-3.77-.45-8.28-.37-8.43-1.27-.16-.9.22-1.62 1.85-2.3 1.64-.68 16.72-6.64 17.59-12.92.87-6.28-12.44-7.31-14.22-7.89-1.79-.58-.87-2.09.06-2.7.95-.62 11.52-7.48 16.45-10.43 4.93-2.95 7.31-6.22 5.98-9.59-1.28-3.25-7.15-2.15-9.85-2.57-2.69-.42-1.54-3.64-1.54-3.64s4.66-6.92 11.28-20.81c6.62-13.89-.05-16.16-.05-16.16"/><path class="st7" d="M637.71 340.99l-.12.3c-.09.21-.22.49-.39.86-.36.77-.88 1.88-1.54 3.3-1.34 2.86-3.31 6.99-5.76 12.08-4.9 10.19-11.79 24.2-19.46 39.65-7.66 15.46-14.59 29.45-19.55 39.61-2.47 5.07-4.47 9.18-5.86 12.03-.69 1.41-1.22 2.51-1.6 3.27-.18.36-.32.64-.42.85-.1.19-.15.28-.15.28l.12-.3c.09-.21.22-.49.39-.86.36-.77.88-1.88 1.54-3.3 1.34-2.86 3.31-6.99 5.76-12.08 4.9-10.19 11.79-24.2 19.46-39.66 7.66-15.45 14.59-29.44 19.55-39.6 2.47-5.07 4.47-9.18 5.86-12.03.69-1.41 1.22-2.51 1.6-3.27.18-.36.32-.64.42-.85.09-.19.15-.28.15-.28z"/><path class="st7" d="M613.44 362.82c.02-.01.12.24.27.69.15.45.36 1.11.6 1.92.48 1.63 1.08 3.9 1.7 6.42.6 2.48 1.14 4.72 1.55 6.45l.48 1.95c.11.46.17.72.14.73-.02.01-.12-.24-.27-.69-.15-.45-.35-1.11-.59-1.93-.46-1.64-1.04-3.91-1.65-6.43a2259 2259 0 00-1.6-6.43c-.19-.77-.36-1.42-.49-1.95-.11-.47-.17-.73-.14-.73zm5.68 18.33c-.03-.09 4.6-1.54 10.32-3.24 5.73-1.7 10.4-3 10.42-2.91.03.09-4.59 1.54-10.33 3.24-5.71 1.69-10.38 3-10.41 2.91zm-12.84 23.2c0-.02.27-.04.75-.05.56 0 1.24-.01 2.05-.01 1.73-.01 4.12-.04 6.76-.16 2.64-.12 5.02-.31 6.75-.46.8-.07 1.49-.13 2.05-.17.48-.04.75-.05.76-.02 0 .02-.26.08-.74.16s-1.17.18-2.04.28c-1.72.21-4.11.44-6.76.56-2.65.12-5.05.11-6.78.06-.87-.03-1.57-.06-2.05-.1-.48-.04-.75-.07-.75-.09zm-8.79-15.45c.02-.01.17.19.41.57.24.38.59.93 1.01 1.61a413.8 413.8 0 013.21 5.37c1.24 2.11 2.34 4.03 3.12 5.43.39.7.7 1.27.91 1.66.21.4.31.62.29.63-.02.01-.17-.19-.41-.57-.24-.38-.59-.93-1.01-1.61a413.8 413.8 0 01-3.21-5.37 326.9 326.9 0 01-3.12-5.42c-.39-.7-.7-1.27-.91-1.66-.2-.4-.31-.63-.29-.64zm-13.93 19.04c.02-.01.2.25.52.73.34.54.78 1.23 1.3 2.06 1.08 1.74 2.56 4.17 4.17 6.86 1.61 2.69 3.05 5.13 4.08 6.91.48.85.88 1.56 1.2 2.11.28.5.42.79.4.8-.02.01-.2-.25-.52-.73-.34-.54-.78-1.23-1.3-2.06-1.08-1.75-2.56-4.17-4.17-6.86-1.61-2.69-3.05-5.13-4.08-6.91-.48-.85-.88-1.56-1.2-2.11-.28-.5-.42-.79-.4-.8zm11.51 18.92c0-.02.34-.05.95-.08.68-.03 1.55-.07 2.6-.11 2.2-.09 5.23-.24 8.57-.48s6.37-.54 8.55-.77c1.04-.11 1.91-.2 2.59-.27.61-.06.95-.08.96-.06 0 .02-.33.09-.94.19-.61.1-1.49.23-2.58.38-2.18.29-5.2.63-8.56.87-3.35.25-6.39.35-8.59.38-1.1.01-1.99.01-2.61 0-.6-.01-.94-.02-.94-.05z"/><path class="st8" d="M148.83 426.05c-3.12-1.64-6.8-1.87-10.27-1.32-1.87.3-3.82.84-5.09 2.23-1.28 1.39-1.54 3.86-.09 5.07.86.72 2.07.84 3.2.83 2.72-.01 5.74-.47 7.9 1.18 1.23.94 2.05 2.5 3.52 2.97 1.45.46 3.09-.38 3.86-1.69.78-1.3.81-2.94.47-4.41 0 .01-.36-3.21-3.5-4.86z"/><path d="M148.83 426.05c-3.12-1.64-6.8-1.87-10.27-1.32-1.87.3-3.82.84-5.09 2.23-1.28 1.39-1.54 3.86-.09 5.07.86.72 2.07.84 3.2.83 2.72-.01 5.74-.47 7.9 1.18 1.23.94 2.05 2.5 3.52 2.97 1.45.46 3.09-.38 3.86-1.69.78-1.3.81-2.94.47-4.41 0 .01-.36-3.21-3.5-4.86z"/><path class="st8" d="M156.09 412.27c-1.93 2.72-5.64 1.79-7.35.11s-2.42-4.1-3.07-6.41c-1.48-5.28-2.97-10.81-1.8-16.16.35-1.6.96-3.19 2.09-4.38 1.13-1.18 2.87-1.88 4.45-1.45 1.87.51 3.02 2.35 3.85 4.1a38.493 38.493 0 013.69 16.55c-.01 2.67-.34 5.46-1.86 7.64"/><path class="st10" d="M156.09 412.27c-1.93 2.72-5.64 1.79-7.35.11s-2.42-4.1-3.07-6.41c-1.48-5.28-2.97-10.81-1.8-16.16.35-1.6.96-3.19 2.09-4.38 1.13-1.18 2.87-1.88 4.45-1.45 1.87.51 3.02 2.35 3.85 4.1a38.493 38.493 0 013.69 16.55c-.01 2.67-.34 5.46-1.86 7.64" opacity=".3"/><path class="st8" d="M161.32 416.23c-2.06-2.48-2.43-6.08-1.48-9.16.95-3.08 3.05-5.69 5.47-7.82 2.84-2.49 6.17-4.43 9.74-5.66 1.41-.48 2.89-.86 4.37-.71 1.48.15 2.96.92 3.65 2.24 1.01 1.95.01 4.31-1.06 6.23a74.085 74.085 0 01-6.44 9.66c-1.93 2.45-4.13 4.86-7.05 5.95-2.92 1.09-5.94.94-7.47-1.09"/><path class="st7" d="M155.93 453.47c-.04 0-.09-.44-.16-1.24-.08-.9-.18-2.04-.31-3.39-.15-1.43-.34-3.12-.73-4.97-.38-1.85-.99-3.85-1.76-5.88-.81-2.02-1.8-3.86-2.96-5.33-1.15-1.48-2.5-2.55-3.76-3.17-1.26-.63-2.4-.9-3.18-1.02-.79-.09-1.23-.15-1.23-.19 0-.04.44-.04 1.26-.01.81.06 1.99.27 3.32.89 1.34.6 2.76 1.69 3.97 3.2 1.22 1.5 2.24 3.38 3.07 5.43.79 2.07 1.39 4.09 1.75 5.97.36 1.88.52 3.6.63 5.04.1 1.44.13 2.6.14 3.41 0 .82-.01 1.26-.05 1.26z"/><path class="st7" d="M155.72 450.87c-.02 0-.03-.2-.03-.58 0-.43.01-.98.02-1.65.01-1.43.03-3.5-.03-6.05-.09-5.11-.48-12.16-1.28-19.92-.8-7.76-1.89-14.74-2.89-19.75a88.04 88.04 0 00-.7-3.38c-.21-.99-.4-1.85-.57-2.54-.15-.65-.28-1.18-.37-1.6-.08-.37-.11-.56-.1-.57.02 0 .08.18.2.54.12.42.28.94.47 1.58.21.69.42 1.54.66 2.52.25.99.52 2.11.77 3.37 1.09 5 2.24 12 3.04 19.77.8 7.77 1.13 14.85 1.13 19.97.01 2.56-.06 4.63-.13 6.06-.05.67-.08 1.21-.11 1.65-.04.38-.06.58-.08.58z"/><path class="st7" d="M155.78 437.23c-.04 0-.03-.61.02-1.72.07-1.11.23-2.7.56-4.66.34-1.95.82-4.27 1.56-6.78.71-2.52 1.67-5.25 2.9-8.01 2.39-5.57 5.63-10.12 8.43-12.93.66-.75 1.39-1.28 1.97-1.81.3-.25.57-.5.84-.7.27-.19.53-.36.76-.52.92-.62 1.44-.95 1.45-.92.08.11-2.06 1.35-4.78 4.2-2.7 2.84-5.85 7.36-8.22 12.88a64.75 64.75 0 00-2.91 7.94c-.76 2.49-1.27 4.78-1.66 6.71-.37 1.93-.59 3.52-.72 4.61-.09 1.1-.16 1.71-.2 1.71z"/></g><g id="Server"><path class="st7" d="M319.9 155.78c-.14 0-.26-11.03-.26-24.64 0-13.61.12-24.64.26-24.64s.26 11.03.26 24.64c0 13.61-.11 24.64-.26 24.64zM460.3 322.9h112.71v123.66H460.3z"/><path class="st11" d="M443.85 347.63h123.21v30.57H443.85z"/><path class="st7" d="M449.32 353.92h24.26v3.73h-24.26zm0 6.43h24.26v3.73h-24.26zm0 6.64h24.26v3.73h-24.26zm33.85-10.81c0 .77-.62 1.39-1.39 1.39-.77 0-1.39-.62-1.39-1.39 0-.77.62-1.39 1.39-1.39.77 0 1.39.62 1.39 1.39zm6.14 0c0 .77-.62 1.39-1.39 1.39-.77 0-1.39-.62-1.39-1.39 0-.77.62-1.39 1.39-1.39.77 0 1.39.62 1.39 1.39zm6.14 0c0 .77-.62 1.39-1.39 1.39-.77 0-1.39-.62-1.39-1.39 0-.77.62-1.39 1.39-1.39.77 0 1.39.62 1.39 1.39zm6.14 0c0 .77-.62 1.39-1.39 1.39-.77 0-1.39-.62-1.39-1.39 0-.77.62-1.39 1.39-1.39.77 0 1.39.62 1.39 1.39zm47.59 0c0 .77-.62 1.39-1.39 1.39-.77 0-1.39-.62-1.39-1.39 0-.77.62-1.39 1.39-1.39.77 0 1.39.62 1.39 1.39zm6.26 0c0 .77-.62 1.39-1.39 1.39-.77 0-1.39-.62-1.39-1.39 0-.77.62-1.39 1.39-1.39.77 0 1.39.62 1.39 1.39zm-47.71 0c0 .77-.62 1.39-1.39 1.39-.77 0-1.39-.62-1.39-1.39 0-.77.62-1.39 1.39-1.39.77 0 1.39.62 1.39 1.39zm30.16 0c0 .77-.62 1.39-1.39 1.39s-1.39-.62-1.39-1.39c0-.77.62-1.39 1.39-1.39s1.39.62 1.39 1.39z"/><path class="st2" d="M513.87 356.18c0 .77-.62 1.39-1.39 1.39-.77 0-1.39-.62-1.39-1.39 0-.77.62-1.39 1.39-1.39.77 0 1.39.62 1.39 1.39zm6.15 0c0 .77-.62 1.39-1.39 1.39-.77 0-1.39-.62-1.39-1.39 0-.77.62-1.39 1.39-1.39.76 0 1.39.62 1.39 1.39zm12.46 0c0 .77-.62 1.39-1.39 1.39s-1.39-.62-1.39-1.39c0-.77.62-1.39 1.39-1.39s1.39.62 1.39 1.39zm28.06 0c0 .77-.62 1.39-1.39 1.39-.77 0-1.39-.62-1.39-1.39 0-.77.62-1.39 1.39-1.39.77 0 1.39.62 1.39 1.39z"/><path class="st8" d="M526.16 356.18c0 .77-.62 1.39-1.39 1.39s-1.39-.62-1.39-1.39c0-.77.62-1.39 1.39-1.39s1.39.62 1.39 1.39zm17.58 0c0 .77-.62 1.39-1.39 1.39-.77 0-1.39-.62-1.39-1.39 0-.77.62-1.39 1.39-1.39.77 0 1.39.62 1.39 1.39z"/><path class="st7" d="M557.76 362.89c0-.77.62-1.39 1.39-1.39.77 0 1.39.62 1.39 1.39 0 .77-.62 1.39-1.39 1.39-.77 0-1.39-.62-1.39-1.39zm-6.15 0c0-.77.62-1.39 1.39-1.39s1.39.62 1.39 1.39c0 .77-.62 1.39-1.39 1.39s-1.39-.62-1.39-1.39zm-6.14 0c0-.77.62-1.39 1.39-1.39.77 0 1.39.62 1.39 1.39 0 .77-.62 1.39-1.39 1.39-.76 0-1.39-.62-1.39-1.39zm-6.14 0c0-.77.62-1.39 1.39-1.39.77 0 1.39.62 1.39 1.39 0 .77-.62 1.39-1.39 1.39-.77 0-1.39-.62-1.39-1.39zm-47.59 0c0-.77.62-1.39 1.39-1.39.77 0 1.39.62 1.39 1.39 0 .77-.62 1.39-1.39 1.39-.76 0-1.39-.62-1.39-1.39zm-6.26 0c0-.77.62-1.39 1.39-1.39.77 0 1.39.62 1.39 1.39 0 .77-.62 1.39-1.39 1.39-.77 0-1.39-.62-1.39-1.39zm47.71 0c0-.77.62-1.39 1.39-1.39.77 0 1.39.62 1.39 1.39 0 .77-.62 1.39-1.39 1.39-.77 0-1.39-.62-1.39-1.39zm-30.16 0c0-.77.62-1.39 1.39-1.39.77 0 1.39.62 1.39 1.39 0 .77-.62 1.39-1.39 1.39-.77 0-1.39-.62-1.39-1.39z"/><path class="st2" d="M527.05 362.89c0-.77.62-1.39 1.39-1.39.77 0 1.39.62 1.39 1.39 0 .77-.62 1.39-1.39 1.39-.77 0-1.39-.62-1.39-1.39zm-6.14 0c0-.77.62-1.39 1.39-1.39.77 0 1.39.62 1.39 1.39 0 .77-.62 1.39-1.39 1.39-.77 0-1.39-.62-1.39-1.39zm-12.46 0c0-.77.62-1.39 1.39-1.39.77 0 1.39.62 1.39 1.39 0 .77-.62 1.39-1.39 1.39-.77 0-1.39-.62-1.39-1.39zm-28.06 0c0-.77.62-1.39 1.39-1.39.77 0 1.39.62 1.39 1.39 0 .77-.62 1.39-1.39 1.39-.77 0-1.39-.62-1.39-1.39z"/><path class="st8" d="M514.77 362.89c0-.77.62-1.39 1.39-1.39.77 0 1.39.62 1.39 1.39 0 .77-.62 1.39-1.39 1.39-.77 0-1.39-.62-1.39-1.39zm-17.59 0c0-.77.62-1.39 1.39-1.39.77 0 1.39.62 1.39 1.39 0 .77-.62 1.39-1.39 1.39-.76 0-1.39-.62-1.39-1.39z"/><circle class="st7" cx="481.78" cy="368.85" r="1.39"/><circle class="st7" cx="487.92" cy="368.85" r="1.39"/><circle class="st7" cx="494.06" cy="368.85" r="1.39"/><circle class="st7" cx="500.2" cy="368.85" r="1.39"/><circle class="st7" cx="547.79" cy="368.85" r="1.39"/><circle class="st7" cx="554.05" cy="368.85" r="1.39"/><circle class="st7" cx="506.34" cy="368.85" r="1.39"/><path class="st7" d="M537.89 368.85c0 .77-.62 1.39-1.39 1.39s-1.39-.62-1.39-1.39.62-1.39 1.39-1.39 1.39.62 1.39 1.39z"/><circle class="st2" cx="512.48" cy="368.85" r="1.39"/><path class="st2" d="M520.02 368.85c0 .77-.62 1.39-1.39 1.39-.77 0-1.39-.62-1.39-1.39s.62-1.39 1.39-1.39c.76 0 1.39.62 1.39 1.39z"/><circle class="st2" cx="531.08" cy="368.85" r="1.39"/><path class="st2" d="M560.54 368.85c0 .77-.62 1.39-1.39 1.39-.77 0-1.39-.62-1.39-1.39s.62-1.39 1.39-1.39c.77 0 1.39.62 1.39 1.39z"/><circle class="st8" cx="524.77" cy="368.85" r="1.39"/><circle class="st8" cx="542.35" cy="368.85" r="1.39"/><path class="st11" d="M443.85 385.35h123.21v30.57H443.85z"/><path class="st7" d="M482.86 393.6c0 .77-.62 1.39-1.39 1.39-.77 0-1.39-.62-1.39-1.39 0-.77.62-1.39 1.39-1.39.77 0 1.39.62 1.39 1.39zm6.14 0c0 .77-.62 1.39-1.39 1.39-.77 0-1.39-.62-1.39-1.39 0-.77.62-1.39 1.39-1.39.77 0 1.39.62 1.39 1.39zm6.15 0c0 .77-.62 1.39-1.39 1.39s-1.39-.62-1.39-1.39c0-.77.62-1.39 1.39-1.39s1.39.62 1.39 1.39zm6.14 0c0 .77-.62 1.39-1.39 1.39-.77 0-1.39-.62-1.39-1.39 0-.77.62-1.39 1.39-1.39.76 0 1.39.62 1.39 1.39zm47.59 0c0 .77-.62 1.39-1.39 1.39s-1.39-.62-1.39-1.39c0-.77.62-1.39 1.39-1.39s1.39.62 1.39 1.39zm6.26 0c0 .77-.62 1.39-1.39 1.39-.77 0-1.39-.62-1.39-1.39 0-.77.62-1.39 1.39-1.39.77 0 1.39.62 1.39 1.39zm-47.71 0c0 .77-.62 1.39-1.39 1.39-.77 0-1.39-.62-1.39-1.39 0-.77.62-1.39 1.39-1.39.77 0 1.39.62 1.39 1.39zm30.16 0c0 .77-.62 1.39-1.39 1.39-.77 0-1.39-.62-1.39-1.39 0-.77.62-1.39 1.39-1.39.76 0 1.39.62 1.39 1.39z"/><path class="st2" d="M513.57 393.6c0 .77-.62 1.39-1.39 1.39-.77 0-1.39-.62-1.39-1.39 0-.77.62-1.39 1.39-1.39.77 0 1.39.62 1.39 1.39zm6.14 0c0 .77-.62 1.39-1.39 1.39-.77 0-1.39-.62-1.39-1.39 0-.77.62-1.39 1.39-1.39.77 0 1.39.62 1.39 1.39zm12.46 0c0 .77-.62 1.39-1.39 1.39-.77 0-1.39-.62-1.39-1.39 0-.77.62-1.39 1.39-1.39.77 0 1.39.62 1.39 1.39zm28.06 0c0 .77-.62 1.39-1.39 1.39s-1.39-.62-1.39-1.39c0-.77.62-1.39 1.39-1.39s1.39.62 1.39 1.39z"/><path class="st8" d="M525.85 393.6c0 .77-.62 1.39-1.39 1.39s-1.39-.62-1.39-1.39c0-.77.62-1.39 1.39-1.39s1.39.62 1.39 1.39zm17.58 0c0 .77-.62 1.39-1.39 1.39s-1.39-.62-1.39-1.39c0-.77.62-1.39 1.39-1.39s1.39.62 1.39 1.39z"/><path class="st7" d="M557.45 400.31c0-.77.62-1.39 1.39-1.39s1.39.62 1.39 1.39c0 .77-.62 1.39-1.39 1.39s-1.39-.63-1.39-1.39zm-6.14 0c0-.77.62-1.39 1.39-1.39.77 0 1.39.62 1.39 1.39 0 .77-.62 1.39-1.39 1.39-.77 0-1.39-.63-1.39-1.39zm-6.14 0c0-.77.62-1.39 1.39-1.39.77 0 1.39.62 1.39 1.39 0 .77-.62 1.39-1.39 1.39-.77 0-1.39-.63-1.39-1.39zm-6.14 0c0-.77.62-1.39 1.39-1.39.77 0 1.39.62 1.39 1.39 0 .77-.62 1.39-1.39 1.39-.77 0-1.39-.63-1.39-1.39zm-47.59 0c0-.77.62-1.39 1.39-1.39.77 0 1.39.62 1.39 1.39 0 .77-.62 1.39-1.39 1.39-.77 0-1.39-.63-1.39-1.39zm-6.26 0c0-.77.62-1.39 1.39-1.39.77 0 1.39.62 1.39 1.39 0 .77-.62 1.39-1.39 1.39-.77 0-1.39-.63-1.39-1.39zm47.71 0c0-.77.62-1.39 1.39-1.39s1.39.62 1.39 1.39c0 .77-.62 1.39-1.39 1.39s-1.39-.63-1.39-1.39zm-30.16 0c0-.77.62-1.39 1.39-1.39.77 0 1.39.62 1.39 1.39 0 .77-.62 1.39-1.39 1.39-.77 0-1.39-.63-1.39-1.39z"/><path class="st2" d="M526.74 400.31c0-.77.62-1.39 1.39-1.39.77 0 1.39.62 1.39 1.39 0 .77-.62 1.39-1.39 1.39a1.4 1.4 0 01-1.39-1.39zm-6.14 0c0-.77.62-1.39 1.39-1.39.77 0 1.39.62 1.39 1.39 0 .77-.62 1.39-1.39 1.39a1.4 1.4 0 01-1.39-1.39zm-12.46 0c0-.77.62-1.39 1.39-1.39.77 0 1.39.62 1.39 1.39 0 .77-.62 1.39-1.39 1.39a1.4 1.4 0 01-1.39-1.39zm-28.06 0c0-.77.62-1.39 1.39-1.39.77 0 1.39.62 1.39 1.39 0 .77-.62 1.39-1.39 1.39-.77 0-1.39-.63-1.39-1.39z"/><path class="st8" d="M514.46 400.31c0-.77.62-1.39 1.39-1.39.77 0 1.39.62 1.39 1.39 0 .77-.62 1.39-1.39 1.39a1.4 1.4 0 01-1.39-1.39zm-17.58 0c0-.77.62-1.39 1.39-1.39.77 0 1.39.62 1.39 1.39 0 .77-.62 1.39-1.39 1.39-.77 0-1.39-.63-1.39-1.39z"/><circle class="st7" cx="481.47" cy="406.27" r="1.39"/><circle class="st7" cx="487.61" cy="406.27" r="1.39"/><circle class="st7" cx="493.75" cy="406.27" r="1.39"/><circle class="st7" cx="499.9" cy="406.27" r="1.39"/><circle class="st7" cx="547.48" cy="406.27" r="1.39"/><circle class="st7" cx="553.75" cy="406.27" r="1.39"/><circle class="st7" cx="506.04" cy="406.27" r="1.39"/><circle class="st7" cx="536.2" cy="406.27" r="1.39"/><circle class="st2" cx="512.18" cy="406.27" r="1.39"/><circle class="st2" cx="518.32" cy="406.27" r="1.39"/><circle class="st2" cx="530.78" cy="406.27" r="1.39"/><path class="st2" d="M560.23 406.27c0 .77-.62 1.39-1.39 1.39s-1.39-.62-1.39-1.39c0-.77.62-1.39 1.39-1.39s1.39.62 1.39 1.39z"/><circle class="st8" cx="524.46" cy="406.27" r="1.39"/><circle class="st8" cx="542.04" cy="406.27" r="1.39"/><path class="st7" d="M449.32 391.65h24.26v3.73h-24.26zm0 6.42h24.26v3.73h-24.26zm0 6.64h24.26v3.73h-24.26z"/><path class="st11" d="M443.85 423.07h123.21v30.57H443.85z"/><path class="st7" d="M449.32 429.37h24.26v3.73h-24.26zm0 6.42h24.26v3.73h-24.26zm0 6.64h24.26v3.73h-24.26zm33.1-11.11c0 .77-.62 1.39-1.39 1.39s-1.39-.62-1.39-1.39c0-.77.62-1.39 1.39-1.39s1.39.62 1.39 1.39zm6.14 0c0 .77-.62 1.39-1.39 1.39s-1.39-.62-1.39-1.39c0-.77.62-1.39 1.39-1.39s1.39.62 1.39 1.39zm6.14 0c0 .77-.62 1.39-1.39 1.39-.77 0-1.39-.62-1.39-1.39 0-.77.62-1.39 1.39-1.39.77 0 1.39.62 1.39 1.39zm6.14 0c0 .77-.62 1.39-1.39 1.39-.77 0-1.39-.62-1.39-1.39 0-.77.62-1.39 1.39-1.39.77 0 1.39.62 1.39 1.39zm47.59 0c0 .77-.62 1.39-1.39 1.39s-1.39-.62-1.39-1.39c0-.77.62-1.39 1.39-1.39s1.39.62 1.39 1.39zm6.26 0c0 .77-.62 1.39-1.39 1.39-.77 0-1.39-.62-1.39-1.39 0-.77.62-1.39 1.39-1.39.77 0 1.39.62 1.39 1.39zm-47.71 0c0 .77-.62 1.39-1.39 1.39-.77 0-1.39-.62-1.39-1.39 0-.77.62-1.39 1.39-1.39.77 0 1.39.62 1.39 1.39zm30.16 0c0 .77-.62 1.39-1.39 1.39-.77 0-1.39-.62-1.39-1.39 0-.77.62-1.39 1.39-1.39.77 0 1.39.62 1.39 1.39z"/><path class="st2" d="M513.12 431.32c0 .77-.62 1.39-1.39 1.39-.77 0-1.39-.62-1.39-1.39 0-.77.62-1.39 1.39-1.39.77 0 1.39.62 1.39 1.39zm6.14 0c0 .77-.62 1.39-1.39 1.39-.77 0-1.39-.62-1.39-1.39 0-.77.62-1.39 1.39-1.39.77 0 1.39.62 1.39 1.39zm12.46 0c0 .77-.62 1.39-1.39 1.39s-1.39-.62-1.39-1.39c0-.77.62-1.39 1.39-1.39s1.39.62 1.39 1.39zm28.07 0c0 .77-.62 1.39-1.39 1.39s-1.39-.62-1.39-1.39c0-.77.62-1.39 1.39-1.39s1.39.62 1.39 1.39z"/><path class="st8" d="M525.41 431.32c0 .77-.62 1.39-1.39 1.39s-1.39-.62-1.39-1.39c0-.77.62-1.39 1.39-1.39s1.39.62 1.39 1.39zm17.58 0c0 .77-.62 1.39-1.39 1.39-.77 0-1.39-.62-1.39-1.39 0-.77.62-1.39 1.39-1.39.77 0 1.39.62 1.39 1.39z"/><path class="st7" d="M557 438.03c0-.77.62-1.39 1.39-1.39s1.39.62 1.39 1.39c0 .77-.62 1.39-1.39 1.39s-1.39-.62-1.39-1.39zm-6.14 0c0-.77.62-1.39 1.39-1.39.77 0 1.39.62 1.39 1.39 0 .77-.62 1.39-1.39 1.39-.76 0-1.39-.62-1.39-1.39zm-6.14 0c0-.77.62-1.39 1.39-1.39.77 0 1.39.62 1.39 1.39 0 .77-.62 1.39-1.39 1.39-.77 0-1.39-.62-1.39-1.39zm-6.14 0c0-.77.62-1.39 1.39-1.39.77 0 1.39.62 1.39 1.39 0 .77-.62 1.39-1.39 1.39-.77 0-1.39-.62-1.39-1.39zm-47.59 0c0-.77.62-1.39 1.39-1.39.77 0 1.39.62 1.39 1.39 0 .77-.62 1.39-1.39 1.39-.77 0-1.39-.62-1.39-1.39zm-6.26 0c0-.77.62-1.39 1.39-1.39.77 0 1.39.62 1.39 1.39 0 .77-.62 1.39-1.39 1.39-.77 0-1.39-.62-1.39-1.39zm47.71 0c0-.77.62-1.39 1.39-1.39.77 0 1.39.62 1.39 1.39 0 .77-.62 1.39-1.39 1.39-.77 0-1.39-.62-1.39-1.39zm-30.16 0c0-.77.62-1.39 1.39-1.39.77 0 1.39.62 1.39 1.39 0 .77-.62 1.39-1.39 1.39-.77 0-1.39-.62-1.39-1.39z"/><path class="st2" d="M526.3 438.03c0-.77.62-1.39 1.39-1.39.77 0 1.39.62 1.39 1.39 0 .77-.62 1.39-1.39 1.39-.77 0-1.39-.62-1.39-1.39zm-6.14 0c0-.77.62-1.39 1.39-1.39s1.39.62 1.39 1.39c0 .77-.62 1.39-1.39 1.39s-1.39-.62-1.39-1.39zm-12.46 0c0-.77.62-1.39 1.39-1.39.77 0 1.39.62 1.39 1.39 0 .77-.62 1.39-1.39 1.39-.77 0-1.39-.62-1.39-1.39zm-28.07 0c0-.77.62-1.39 1.39-1.39s1.39.62 1.39 1.39c0 .77-.62 1.39-1.39 1.39s-1.39-.62-1.39-1.39z"/><path class="st8" d="M514.02 438.03c0-.77.62-1.39 1.39-1.39.77 0 1.39.62 1.39 1.39 0 .77-.62 1.39-1.39 1.39-.77 0-1.39-.62-1.39-1.39zm-17.59 0c0-.77.62-1.39 1.39-1.39.77 0 1.39.62 1.39 1.39 0 .77-.62 1.39-1.39 1.39-.76 0-1.39-.62-1.39-1.39z"/><path class="st7" d="M482.42 443.99c0 .77-.62 1.39-1.39 1.39s-1.39-.62-1.39-1.39c0-.77.62-1.39 1.39-1.39s1.39.63 1.39 1.39zm6.14 0c0 .77-.62 1.39-1.39 1.39s-1.39-.62-1.39-1.39c0-.77.62-1.39 1.39-1.39s1.39.63 1.39 1.39zm6.14 0c0 .77-.62 1.39-1.39 1.39-.77 0-1.39-.62-1.39-1.39 0-.77.62-1.39 1.39-1.39.77 0 1.39.63 1.39 1.39zm6.14 0c0 .77-.62 1.39-1.39 1.39-.77 0-1.39-.62-1.39-1.39 0-.77.62-1.39 1.39-1.39.77 0 1.39.63 1.39 1.39zm47.59 0c0 .77-.62 1.39-1.39 1.39s-1.39-.62-1.39-1.39c0-.77.62-1.39 1.39-1.39s1.39.63 1.39 1.39zm6.26 0c0 .77-.62 1.39-1.39 1.39-.77 0-1.39-.62-1.39-1.39 0-.77.62-1.39 1.39-1.39.77 0 1.39.63 1.39 1.39zm-47.71 0c0 .77-.62 1.39-1.39 1.39-.77 0-1.39-.62-1.39-1.39 0-.77.62-1.39 1.39-1.39.77 0 1.39.63 1.39 1.39zm30.16 0c0 .77-.62 1.39-1.39 1.39-.77 0-1.39-.62-1.39-1.39 0-.77.62-1.39 1.39-1.39.77 0 1.39.63 1.39 1.39z"/><path class="st2" d="M513.12 443.99c0 .77-.62 1.39-1.39 1.39-.77 0-1.39-.62-1.39-1.39 0-.77.62-1.39 1.39-1.39.77 0 1.39.63 1.39 1.39zm6.14 0c0 .77-.62 1.39-1.39 1.39-.77 0-1.39-.62-1.39-1.39 0-.77.62-1.39 1.39-1.39.77 0 1.39.63 1.39 1.39zm12.46 0c0 .77-.62 1.39-1.39 1.39s-1.39-.62-1.39-1.39c0-.77.62-1.39 1.39-1.39s1.39.63 1.39 1.39zm28.07 0c0 .77-.62 1.39-1.39 1.39s-1.39-.62-1.39-1.39c0-.77.62-1.39 1.39-1.39s1.39.63 1.39 1.39z"/><path class="st8" d="M525.41 443.99c0 .77-.62 1.39-1.39 1.39s-1.39-.62-1.39-1.39c0-.77.62-1.39 1.39-1.39s1.39.63 1.39 1.39zm17.58 0c0 .77-.62 1.39-1.39 1.39-.77 0-1.39-.62-1.39-1.39 0-.77.62-1.39 1.39-1.39.77 0 1.39.63 1.39 1.39z"/><path class="st7" d="M585.58 378.15l-18.53.05v-30.57l18.53-.05zm0-37.17l-18.53.05v-30.57l18.53-.05zm0 74.65l-18.53.05v-30.57l18.53-.05zm0 37.96l-18.53.05v-30.57l18.53-.05z"/><path class="st11" d="M444.74 310.18h123.21v30.57H444.74z"/><path class="st7" d="M450.21 316.47h24.26v3.73h-24.26zm0 6.43h24.26v3.73h-24.26zm0 6.64h24.26v3.73h-24.26zm33.85-10.81c0 .77-.62 1.39-1.39 1.39-.77 0-1.39-.62-1.39-1.39 0-.77.62-1.39 1.39-1.39.77 0 1.39.62 1.39 1.39zm6.14 0c0 .77-.62 1.39-1.39 1.39-.77 0-1.39-.62-1.39-1.39 0-.77.62-1.39 1.39-1.39.77 0 1.39.62 1.39 1.39zm6.14 0c0 .77-.62 1.39-1.39 1.39-.77 0-1.39-.62-1.39-1.39 0-.77.62-1.39 1.39-1.39.77 0 1.39.62 1.39 1.39zm6.14 0c0 .77-.62 1.39-1.39 1.39-.77 0-1.39-.62-1.39-1.39 0-.77.62-1.39 1.39-1.39.77 0 1.39.62 1.39 1.39zm47.59 0c0 .77-.62 1.39-1.39 1.39-.77 0-1.39-.62-1.39-1.39 0-.77.62-1.39 1.39-1.39.77 0 1.39.62 1.39 1.39zm6.27 0c0 .77-.62 1.39-1.39 1.39-.77 0-1.39-.62-1.39-1.39 0-.77.62-1.39 1.39-1.39.76 0 1.39.62 1.39 1.39zm-47.71 0c0 .77-.62 1.39-1.39 1.39-.77 0-1.39-.62-1.39-1.39 0-.77.62-1.39 1.39-1.39.76 0 1.39.62 1.39 1.39zm30.15 0c0 .77-.62 1.39-1.39 1.39-.77 0-1.39-.62-1.39-1.39 0-.77.62-1.39 1.39-1.39.77 0 1.39.62 1.39 1.39z"/><path class="st2" d="M514.77 318.73c0 .77-.62 1.39-1.39 1.39-.77 0-1.39-.62-1.39-1.39 0-.77.62-1.39 1.39-1.39.76 0 1.39.62 1.39 1.39zm6.14 0c0 .77-.62 1.39-1.39 1.39-.77 0-1.39-.62-1.39-1.39 0-.77.62-1.39 1.39-1.39.76 0 1.39.62 1.39 1.39zm12.46 0c0 .77-.62 1.39-1.39 1.39-.77 0-1.39-.62-1.39-1.39 0-.77.62-1.39 1.39-1.39.76 0 1.39.62 1.39 1.39zm28.06 0c0 .77-.62 1.39-1.39 1.39-.77 0-1.39-.62-1.39-1.39 0-.77.62-1.39 1.39-1.39.77 0 1.39.62 1.39 1.39z"/><path class="st8" d="M527.05 318.73c0 .77-.62 1.39-1.39 1.39-.77 0-1.39-.62-1.39-1.39 0-.77.62-1.39 1.39-1.39.77 0 1.39.62 1.39 1.39zm17.58 0c0 .77-.62 1.39-1.39 1.39-.77 0-1.39-.62-1.39-1.39 0-.77.62-1.39 1.39-1.39.77 0 1.39.62 1.39 1.39z"/><path class="st7" d="M558.65 325.44c0-.77.62-1.39 1.39-1.39.77 0 1.39.62 1.39 1.39 0 .77-.62 1.39-1.39 1.39-.77 0-1.39-.63-1.39-1.39zm-6.14 0c0-.77.62-1.39 1.39-1.39.77 0 1.39.62 1.39 1.39 0 .77-.62 1.39-1.39 1.39-.77 0-1.39-.63-1.39-1.39zm-6.14 0c0-.77.62-1.39 1.39-1.39s1.39.62 1.39 1.39c0 .77-.62 1.39-1.39 1.39s-1.39-.63-1.39-1.39zm-6.15 0c0-.77.62-1.39 1.39-1.39s1.39.62 1.39 1.39c0 .77-.62 1.39-1.39 1.39s-1.39-.63-1.39-1.39zm-47.58 0c0-.77.62-1.39 1.39-1.39.77 0 1.39.62 1.39 1.39 0 .77-.62 1.39-1.39 1.39-.77 0-1.39-.63-1.39-1.39zm-6.27 0c0-.77.62-1.39 1.39-1.39.77 0 1.39.62 1.39 1.39 0 .77-.62 1.39-1.39 1.39a1.4 1.4 0 01-1.39-1.39zm47.71 0c0-.77.62-1.39 1.39-1.39.77 0 1.39.62 1.39 1.39 0 .77-.62 1.39-1.39 1.39a1.4 1.4 0 01-1.39-1.39zm-30.16 0c0-.77.62-1.39 1.39-1.39.77 0 1.39.62 1.39 1.39 0 .77-.62 1.39-1.39 1.39a1.4 1.4 0 01-1.39-1.39z"/><path class="st2" d="M527.94 325.44c0-.77.62-1.39 1.39-1.39s1.39.62 1.39 1.39c0 .77-.62 1.39-1.39 1.39s-1.39-.63-1.39-1.39zm-6.14 0c0-.77.62-1.39 1.39-1.39.77 0 1.39.62 1.39 1.39 0 .77-.62 1.39-1.39 1.39-.77 0-1.39-.63-1.39-1.39zm-12.46 0c0-.77.62-1.39 1.39-1.39.77 0 1.39.62 1.39 1.39 0 .77-.62 1.39-1.39 1.39-.77 0-1.39-.63-1.39-1.39zm-28.06 0c0-.77.62-1.39 1.39-1.39.77 0 1.39.62 1.39 1.39 0 .77-.62 1.39-1.39 1.39-.77 0-1.39-.63-1.39-1.39z"/><path class="st8" d="M515.66 325.44c0-.77.62-1.39 1.39-1.39s1.39.62 1.39 1.39c0 .77-.62 1.39-1.39 1.39s-1.39-.63-1.39-1.39zm-17.58 0c0-.77.62-1.39 1.39-1.39.77 0 1.39.62 1.39 1.39 0 .77-.62 1.39-1.39 1.39-.77 0-1.39-.63-1.39-1.39z"/><path class="st7" d="M484.06 331.4c0 .77-.62 1.39-1.39 1.39-.77 0-1.39-.62-1.39-1.39 0-.77.62-1.39 1.39-1.39.77 0 1.39.62 1.39 1.39zm6.14 0c0 .77-.62 1.39-1.39 1.39-.77 0-1.39-.62-1.39-1.39 0-.77.62-1.39 1.39-1.39.77 0 1.39.62 1.39 1.39zm6.14 0c0 .77-.62 1.39-1.39 1.39-.77 0-1.39-.62-1.39-1.39 0-.77.62-1.39 1.39-1.39.77 0 1.39.62 1.39 1.39zm6.14 0c0 .77-.62 1.39-1.39 1.39-.77 0-1.39-.62-1.39-1.39 0-.77.62-1.39 1.39-1.39.77 0 1.39.62 1.39 1.39zm47.59 0c0 .77-.62 1.39-1.39 1.39-.77 0-1.39-.62-1.39-1.39 0-.77.62-1.39 1.39-1.39.77 0 1.39.62 1.39 1.39zm6.27 0c0 .77-.62 1.39-1.39 1.39-.77 0-1.39-.62-1.39-1.39 0-.77.62-1.39 1.39-1.39.76 0 1.39.62 1.39 1.39zm-47.71 0c0 .77-.62 1.39-1.39 1.39-.77 0-1.39-.62-1.39-1.39 0-.77.62-1.39 1.39-1.39.76 0 1.39.62 1.39 1.39zm30.15 0c0 .77-.62 1.39-1.39 1.39-.77 0-1.39-.62-1.39-1.39 0-.77.62-1.39 1.39-1.39.77 0 1.39.62 1.39 1.39z"/><path class="st2" d="M514.77 331.4c0 .77-.62 1.39-1.39 1.39-.77 0-1.39-.62-1.39-1.39 0-.77.62-1.39 1.39-1.39.76 0 1.39.62 1.39 1.39zm6.14 0c0 .77-.62 1.39-1.39 1.39-.77 0-1.39-.62-1.39-1.39 0-.77.62-1.39 1.39-1.39.76 0 1.39.62 1.39 1.39zm12.46 0c0 .77-.62 1.39-1.39 1.39-.77 0-1.39-.62-1.39-1.39 0-.77.62-1.39 1.39-1.39.76 0 1.39.62 1.39 1.39zm28.06 0c0 .77-.62 1.39-1.39 1.39-.77 0-1.39-.62-1.39-1.39 0-.77.62-1.39 1.39-1.39.77 0 1.39.62 1.39 1.39z"/><path class="st8" d="M527.05 331.4c0 .77-.62 1.39-1.39 1.39-.77 0-1.39-.62-1.39-1.39 0-.77.62-1.39 1.39-1.39.77 0 1.39.62 1.39 1.39zm17.58 0c0 .77-.62 1.39-1.39 1.39-.77 0-1.39-.62-1.39-1.39 0-.77.62-1.39 1.39-1.39.77 0 1.39.62 1.39 1.39z"/><path class="st7" d="M365.11 91.02s.35-.02 1.03-.03c.69-.01 1.7-.01 3.02-.03 2.67-.01 6.58-.03 11.61-.05 10.1-.02 24.69-.05 42.71-.08 36.08-.02 85.89-.05 140.92-.08 3.45-.01 6.93.44 10.17 1.56 3.24 1.1 6.29 2.75 8.9 4.9 5.26 4.27 8.84 10.32 10.15 16.74.66 3.22.56 6.49.57 9.66v9.46c0 6.24-.01 12.35-.01 18.31-.02 23.84-.04 45.32-.06 63.35-.01 4.51-.01 8.8-.02 12.86 0 2.03-.01 4-.01 5.92.04 1.92-.27 3.83-1.07 5.46-1.53 3.32-4.54 5.49-7.54 6.2-1.51.39-3.01.33-4.4.33-1.4 0-2.73-.01-3.99-.01-5.03-.02-8.95-.04-11.61-.05-1.32-.01-2.33-.02-3.02-.03-.68-.01-1.03-.03-1.03-.03s.35-.02 1.03-.03c.69-.01 1.7-.01 3.02-.03 2.67-.01 6.58-.03 11.61-.05 1.26 0 2.59-.01 3.99-.01 1.4-.01 2.87.04 4.34-.35 2.93-.71 5.86-2.84 7.34-6.08.78-1.6 1.07-3.44 1.02-5.34 0-1.91-.01-3.89-.01-5.92-.01-4.06-.01-8.36-.02-12.86-.02-18.04-.03-39.51-.06-63.35 0-5.96-.01-12.07-.01-18.31v-9.46c-.01-3.19.09-6.4-.57-9.56-1.3-6.3-4.81-12.24-9.98-16.44-2.56-2.11-5.56-3.73-8.74-4.81-3.19-1.1-6.58-1.53-10-1.53-55.02-.03-104.84-.06-140.92-.08-18.03-.03-32.62-.06-42.71-.08-5.03-.02-8.95-.04-11.61-.05-1.32-.01-2.33-.02-3.02-.03-.67.03-1.02.01-1.02.01z"/><path class="st0" d="M264.26 157.14h96.61v295.95h-96.61z"/><path class="st1" d="M437.09 453.09h-76.22l-.14-295.95h76.36z"/><path class="st7" d="M269.6 204.51h81.95v23.07H269.6z"/><path class="st11" d="M271.89 207.41h4.59v17.66h-4.59z"/><path class="st10" d="M281.89 211.12c0 .81-.65 1.46-1.46 1.46-.81 0-1.46-.65-1.46-1.46 0-.81.65-1.46 1.46-1.46.8 0 1.46.66 1.46 1.46zm0 6.24c0 .81-.65 1.46-1.46 1.46-.81 0-1.46-.65-1.46-1.46 0-.81.65-1.46 1.46-1.46.8 0 1.46.66 1.46 1.46z"/><path class="st11" d="M287.72 209.66h4.51v13.56h-4.51zm6.51 0h4.51v13.56h-4.51zm6.52 0h4.51v13.56h-4.51zm6.51 0h4.51v13.56h-4.51zm6.51 0h4.51v13.56h-4.51zm6.52 0h4.51v13.56h-4.51zm6.51 0h4.51v13.56h-4.51zm6.51 0h4.51v13.56h-4.51zm6.52 0h4.51v13.56h-4.51zm6.51 0h4.51v13.56h-4.51z"/><path class="st7" d="M269.6 237.65h81.95v23.07H269.6z"/><path class="st11" d="M271.89 240.55h4.59v17.66h-4.59z"/><path class="st10" d="M281.89 244.27c0 .81-.65 1.46-1.46 1.46-.81 0-1.46-.65-1.46-1.46s.65-1.46 1.46-1.46c.8 0 1.46.65 1.46 1.46zm0 6.24c0 .81-.65 1.46-1.46 1.46-.81 0-1.46-.65-1.46-1.46 0-.81.65-1.46 1.46-1.46.8 0 1.46.65 1.46 1.46z"/><path class="st11" d="M287.72 242.81h4.51v13.56h-4.51zm6.51 0h4.51v13.56h-4.51zm6.52 0h4.51v13.56h-4.51zm6.51 0h4.51v13.56h-4.51zm6.51 0h4.51v13.56h-4.51zm6.52 0h4.51v13.56h-4.51zm6.51 0h4.51v13.56h-4.51zm6.51 0h4.51v13.56h-4.51zm6.52 0h4.51v13.56h-4.51zm6.51 0h4.51v13.56h-4.51z"/><path class="st7" d="M269.6 271.06h81.95v23.07H269.6z"/><path class="st11" d="M271.89 273.96h4.59v17.66h-4.59z"/><path class="st10" d="M281.89 277.68c0 .81-.65 1.46-1.46 1.46-.81 0-1.46-.65-1.46-1.46 0-.81.65-1.46 1.46-1.46.8 0 1.46.65 1.46 1.46zm0 6.24c0 .81-.65 1.46-1.46 1.46-.81 0-1.46-.65-1.46-1.46 0-.81.65-1.46 1.46-1.46.8 0 1.46.65 1.46 1.46z"/><path class="st11" d="M287.72 276.22h4.51v13.56h-4.51zm6.51 0h4.51v13.56h-4.51zm6.52 0h4.51v13.56h-4.51zm6.51 0h4.51v13.56h-4.51zm6.51 0h4.51v13.56h-4.51zm6.52 0h4.51v13.56h-4.51zm6.51 0h4.51v13.56h-4.51zm6.51 0h4.51v13.56h-4.51zm6.52 0h4.51v13.56h-4.51zm6.51 0h4.51v13.56h-4.51z"/><path class="st7" d="M269.6 307.16h81.95v23.07H269.6z"/><path class="st11" d="M271.89 310.06h4.59v17.66h-4.59z"/><path class="st10" d="M281.89 313.77c0 .81-.65 1.46-1.46 1.46-.81 0-1.46-.65-1.46-1.46 0-.81.65-1.46 1.46-1.46.8 0 1.46.66 1.46 1.46zm0 6.24c0 .81-.65 1.46-1.46 1.46-.81 0-1.46-.65-1.46-1.46 0-.81.65-1.46 1.46-1.46.8 0 1.46.65 1.46 1.46z"/><path class="st11" d="M287.72 312.31h4.51v13.56h-4.51zm6.51 0h4.51v13.56h-4.51zm6.52 0h4.51v13.56h-4.51zm6.51 0h4.51v13.56h-4.51zm6.51 0h4.51v13.56h-4.51zm6.52 0h4.51v13.56h-4.51zm6.51 0h4.51v13.56h-4.51zm6.51 0h4.51v13.56h-4.51zm6.52 0h4.51v13.56h-4.51zm6.51 0h4.51v13.56h-4.51z"/><path class="st7" d="M269.6 343.61h81.95v23.07H269.6z"/><path class="st11" d="M271.89 346.51h4.59v17.66h-4.59z"/><path class="st10" d="M281.89 350.22c0 .81-.65 1.46-1.46 1.46-.81 0-1.46-.65-1.46-1.46 0-.81.65-1.46 1.46-1.46.8 0 1.46.65 1.46 1.46zm0 6.24c0 .81-.65 1.46-1.46 1.46-.81 0-1.46-.65-1.46-1.46 0-.81.65-1.46 1.46-1.46.8 0 1.46.65 1.46 1.46z"/><path class="st11" d="M287.72 348.76h4.51v13.56h-4.51zm6.51 0h4.51v13.56h-4.51zm6.52 0h4.51v13.56h-4.51zm6.51 0h4.51v13.56h-4.51zm6.51 0h4.51v13.56h-4.51zm6.52 0h4.51v13.56h-4.51zm6.51 0h4.51v13.56h-4.51zm6.51 0h4.51v13.56h-4.51zm6.52 0h4.51v13.56h-4.51zm6.51 0h4.51v13.56h-4.51z"/><path class="st7" d="M269.6 416.15h81.95v23.07H269.6z"/><path class="st11" d="M271.89 419.05h4.59v17.66h-4.59z"/><path class="st10" d="M281.89 422.76c0 .81-.65 1.46-1.46 1.46-.81 0-1.46-.65-1.46-1.46 0-.81.65-1.46 1.46-1.46.8 0 1.46.66 1.46 1.46zm0 6.24c0 .81-.65 1.46-1.46 1.46-.81 0-1.46-.65-1.46-1.46 0-.81.65-1.46 1.46-1.46.8 0 1.46.66 1.46 1.46z"/><path class="st11" d="M287.72 421.3h4.51v13.56h-4.51zm6.51 0h4.51v13.56h-4.51zm6.52 0h4.51v13.56h-4.51zm6.51 0h4.51v13.56h-4.51zm6.51 0h4.51v13.56h-4.51zm6.52 0h4.51v13.56h-4.51zm6.51 0h4.51v13.56h-4.51zm6.51 0h4.51v13.56h-4.51zm6.52 0h4.51v13.56h-4.51zm6.51 0h4.51v13.56h-4.51z"/><path class="st7" d="M269.6 379.91h81.95v23.07H269.6z"/><path class="st11" d="M271.89 382.81h4.59v17.66h-4.59z"/><path class="st10" d="M281.89 386.52c0 .81-.65 1.46-1.46 1.46-.81 0-1.46-.65-1.46-1.46 0-.81.65-1.46 1.46-1.46.8 0 1.46.66 1.46 1.46zm0 6.24c0 .81-.65 1.46-1.46 1.46-.81 0-1.46-.65-1.46-1.46 0-.81.65-1.46 1.46-1.46.8 0 1.46.66 1.46 1.46z"/><path class="st11" d="M287.72 385.06h4.51v13.56h-4.51zm6.51 0h4.51v13.56h-4.51zm6.52 0h4.51v13.56h-4.51zm6.51 0h4.51v13.56h-4.51zm6.51 0h4.51v13.56h-4.51zm6.52 0h4.51v13.56h-4.51zm6.51 0h4.51v13.56h-4.51zm6.51 0h4.51v13.56h-4.51zm6.52 0h4.51v13.56h-4.51zm6.51 0h4.51v13.56h-4.51z"/><path class="st7" d="M320.29 204.51c-.02 0-.05-.24-.08-.71s-.06-1.16-.08-2.05c-.02-.89-.04-1.98-.1-3.24-.07-1.25-.16-2.7-.56-4.21-.43-1.5-1.12-3.12-2.19-4.62-1.06-1.5-2.57-2.84-4.49-3.61-1.91-.79-4.1-1.09-6.37-1.29-2.28-.2-4.64-.4-7.06-.61-9.67-.84-18.45-1.38-24.8-1.49-3.18-.07-5.75-.05-7.53-.04-.85.01-1.53.02-2.05.02-.47 0-.72-.01-.72-.03 0-.02.24-.04.71-.08l2.05-.12c1.78-.07 4.36-.15 7.54-.13 6.37.02 15.16.5 24.84 1.34 2.42.21 4.78.42 7.06.62 2.28.21 4.52.52 6.51 1.36 2 .82 3.58 2.25 4.66 3.81 1.09 1.56 1.77 3.22 2.19 4.77.39 1.57.45 3.03.5 4.3.03 1.27.02 2.36.01 3.25-.01.85-.01 1.53-.02 2.05 0 .46 0 .71-.02.71z"/><path class="st7" d="M295.43 204.51c-.02 0-.03-.23-.05-.67-.01-.49-.01-1.13-.02-1.93-.01-.84 0-1.86-.1-3.04-.11-1.17-.29-2.53-1.01-3.8-.71-1.26-2.12-2.21-3.7-2.85-1.6-.63-3.49-.88-5.4-.55-.95.16-1.91.47-2.79.95-.87.48-1.69 1.16-2.17 2.05-.5.88-.51 1.99.01 2.9.51.9 1.42 1.61 2.46 1.85 1.04.25 2.13-.11 2.88-.83.76-.72 1.22-1.73 1.29-2.74.1-1.02-.28-1.99-.86-2.8a6.221 6.221 0 00-2.17-1.92c-.83-.47-1.78-.54-2.71-.7-.92-.14-1.82-.26-2.7-.36-1.74-.2-3.38-.31-4.87-.37-2.98-.12-5.41-.07-7.08-.07h-1.93c-.44-.01-.67-.02-.67-.04s.23-.04.67-.07c.49-.02 1.13-.06 1.93-.1 1.67-.06 4.1-.17 7.1-.1 1.5.04 3.14.13 4.9.31.88.09 1.78.2 2.72.33.47.07.93.13 1.42.22.5.1.98.27 1.44.5a6.64 6.64 0 012.36 2.06c.62.86 1.07 1.98.96 3.13a4.781 4.781 0 01-1.44 3.08c-.84.83-2.14 1.26-3.35.96a4.433 4.433 0 01-2.8-2.1c-.61-1.03-.58-2.39 0-3.39.55-1.02 1.45-1.73 2.38-2.25a9.24 9.24 0 012.95-.98c2-.33 3.97-.05 5.64.62 1.64.68 3.11 1.69 3.87 3.07.74 1.37.89 2.78.98 3.96.06 1.2.03 2.22.01 3.06-.03.79-.06 1.43-.08 1.93-.04.44-.06.68-.07.68zm31.55 0c-.02 0-.07-.26-.17-.76-.09-.5-.23-1.24-.43-2.19-.41-1.89-1.06-4.63-2.41-7.82-1.34-3.16-3.47-6.83-7.13-9.57-1.79-1.4-4.09-2.16-6.54-2.49-2.45-.35-5.04-.34-7.68-.41-10.59-.2-20.19-.16-27.13-.43-3.47-.12-6.28-.28-8.22-.42-.93-.08-1.67-.14-2.23-.19-.51-.05-.78-.08-.77-.1 0-.02.27-.02.78 0 .56.02 1.3.05 2.23.09 1.94.07 4.75.18 8.22.25 6.94.18 16.53.08 27.14.28 2.64.07 5.24.06 7.75.43 2.49.34 4.91 1.15 6.75 2.61 1.83 1.43 3.37 3.05 4.51 4.77 1.16 1.71 2.01 3.43 2.67 5.05 1.32 3.24 1.92 6.01 2.27 7.92.17.96.28 1.71.34 2.21.04.5.06.76.05.77zm-56.25-43.69h79.7v11.57h-79.7z"/><path class="st11" d="M288.26 166.61h43.39v5.78h-43.39z"/><path class="st7" d="M382.95 400.77c.01.06-.88.14-2.41.59-1.52.46-3.7 1.31-6.02 2.95-1.15.82-2.34 1.85-3.38 3.14-.53.64-.99 1.37-1.39 2.14-.36.79-.65 1.66-.87 2.57-.91 3.65-.63 7.84-.45 12.2.18 4.35-.1 8.69-1.83 12.18-.82 1.74-1.97 3.22-3.25 4.35a15.545 15.545 0 01-3.99 2.53c-1.33.59-2.6.93-3.73 1.12-1.14.16-2.13.19-2.94.12-.8-.07-1.42-.17-1.83-.29-.41-.11-.62-.17-.62-.19.01-.06.87.21 2.46.27.79.04 1.77-.03 2.88-.21 1.11-.21 2.34-.57 3.63-1.17a15.55 15.55 0 003.86-2.52c1.23-1.11 2.32-2.54 3.11-4.23 1.64-3.39 1.92-7.62 1.74-11.96-.18-4.34-.45-8.59.51-12.33.24-.93.53-1.82.92-2.66.43-.81.91-1.56 1.46-2.21 1.09-1.32 2.31-2.35 3.5-3.17 2.39-1.63 4.62-2.44 6.18-2.84.78-.19 1.4-.31 1.82-.35.41-.03.63-.04.64-.03z"/><path class="st7" d="M346.21 440.62h6.54v7.96h-6.54z"/><path class="st11" d="M382.95 380.67h36.69v40.2h-36.69z"/><circle transform="rotate(-77.537 401.293 400.945)" class="st7" cx="401.29" cy="400.93" r="12.08"/><path class="st11" d="M407.33 400.93a6.041 6.041 0 11-12.082-.002 6.041 6.041 0 0112.082.002z"/><circle class="st7" cx="387.91" cy="386.91" r="1.12"/><circle class="st7" cx="414.02" cy="386.91" r="1.12"/><path class="st7" d="M415.39 416.6c0 .62-.5 1.12-1.12 1.12-.62 0-1.12-.5-1.12-1.12 0-.62.5-1.12 1.12-1.12.61 0 1.12.5 1.12 1.12z"/><circle class="st7" cx="387.91" cy="417.06" r="1.12"/><path class="st7" d="M419.64 380.67h2.96v40.2h-2.96z"/><path class="st8" d="M374.98 112.58c3.62-8.46 1.42-17.28-4.53-24.29-5.95-7.02-16-10.27-24.93-8.08-1.59-8.9-7.79-16.84-16.04-20.54-8.25-3.7-18.3-3.04-26 1.69-7.7 4.73-12.82 13.41-13.24 22.44-6.12 1.02-11.69 4.94-14.74 10.34-3.04 5.41-3.5 12.2-1.2 17.96l100.68.48z"/><path class="st7" d="M583.4 328.42c0-.01.12-.02.36-.03.26-.01.61-.02 1.05-.03.95-.01 2.3-.03 4.03-.05 1.75.01 3.89-.06 6.27-.73a19.35 19.35 0 007.34-3.86c2.33-2.02 4.51-4.76 5.71-8.21.35-.84.53-1.75.77-2.66.13-.93.34-1.86.34-2.83.11-1.93.02-3.96.05-6.02-.01-8.27-.01-17.35-.02-26.89v-7.06c.01-1.17 0-2.31-.13-3.42-.15-1.11-.38-2.21-.77-3.25-1.47-4.19-4.73-7.47-8.48-9.05-3.77-1.72-7.83-1.13-11.48-1.29-3.67-.04-7.1-.07-10.22-.1-6.23-.08-11.28-.14-14.8-.19-1.72-.03-3.07-.06-4.02-.08-.44-.01-.78-.02-1.05-.03-.24-.01-.36-.02-.36-.03 0-.01.12-.02.36-.02.26 0 .61-.01 1.05-.02.95 0 2.3-.01 4.03-.02 3.53 0 8.58.01 14.8.02 3.13.01 6.55.03 10.22.04l5.7.03c1.99.02 4.03.43 5.96 1.25 3.87 1.61 7.24 5 8.77 9.32.4 1.07.65 2.2.8 3.35.14 1.16.14 2.33.14 3.48v7.06c-.01 9.54-.01 18.62-.02 26.89-.03 2.07.05 4.07-.07 6.05-.01.99-.23 1.95-.37 2.9-.25.93-.44 1.86-.8 2.72-1.25 3.52-3.49 6.31-5.88 8.34-2.43 2.02-5.1 3.22-7.51 3.85-2.42.65-4.61.69-6.34.65-1.72-.02-3.07-.04-4.03-.05-.44-.01-.78-.02-1.05-.03-.23.02-.35.01-.35 0z"/><path class="st10" d="M316.7 112.28V98.11h-7.1l10.69-15.09 10.69 14.99h-6.97v14.27z"/></g><g id="Character"><path class="st1" d="M559.84 296.02l7.55 9.86 14.37-6.36-9.19-14.75z"/><path class="st11" d="M564.31 297.18l.23 4.88 4.76 2.23-.24-5z"/><path class="st11" d="M568.82 294.46l.24 4.87 4.75 2.23-.24-5zm4.59-2.73l.23 4.88 4.76 2.23-.25-5z"/><path class="st8" d="M582.33 299.32l-1.64-2.51-14.08 8.91 3.32 5.56.92-.46c4.09-2.09 20.67-10.9 22.86-13.24 2.44-2.61-11.38 1.74-11.38 1.74z"/><path class="st10" d="M575.07 308.15c-.9-1.08-2.18-1.95-3.58-2.14-1.4-.19-2.53-.1-4.08 1.08l2.41 3.99 5.25-2.93z" opacity=".5"/><path d="M589.21 297.41s5-1.25 4.87-.24c-.12 1.02-16.54 10.55-24.15 14.12l-.16-.33L589.01 300s-.62-2.07.2-2.59z" opacity=".5" fill="#fff"/><path class="st7" d="M569.53 311.08c0 .01.09-.03.26-.12.22-.11.46-.23.73-.37.73-.38 1.62-.85 2.68-1.4a297.86 297.86 0 0017.27-10.01c1.01-.64 1.86-1.18 2.55-1.63.25-.17.48-.32.69-.45.16-.11.24-.16.23-.17s-.09.04-.25.14c-.21.13-.44.27-.71.42-.7.43-1.57.95-2.58 1.57a494.41 494.41 0 01-8.58 5.1c-3.37 1.95-6.45 3.67-8.68 4.91-1.04.58-1.93 1.06-2.65 1.46-.27.15-.5.28-.72.4-.16.09-.24.14-.24.15z"/><path class="st7" d="M589.14 300.23c.06-.02-.26-.67-.24-1.53.01-.86.37-1.49.31-1.52-.04-.04-.49.59-.51 1.51-.03.92.4 1.57.44 1.54zm-5.5.31c.06 0 .12-.36.13-.82.02-.45-.01-.82-.07-.82-.06 0-.12.36-.13.81-.01.46.02.83.07.83zm-1.52.06c.05.02.19-.27.31-.63.12-.37.17-.68.12-.69-.05-.02-.19.27-.31.63s-.17.67-.12.69zm-1.52-.93c.03.05.39-.1.81-.34.42-.24.73-.47.71-.52-.03-.05-.39.1-.81.34-.42.24-.74.47-.71.52zm-.81-.81c.01.05.47.01.98-.24.51-.24.83-.58.8-.62-.04-.05-.4.2-.89.44-.48.23-.9.36-.89.42z"/><path class="st7" d="M583.4 299c.01.02.39-.14.92-.54.26-.2.56-.46.86-.79.14-.17.3-.33.43-.56.06-.11.11-.26.06-.42-.04-.16-.21-.27-.35-.29-1.15.06-1.74 1.07-1.81 1.71-.05.34 0 .61.06.79.05.18.11.27.12.26.04-.01-.15-.4-.04-1.03.06-.31.21-.67.49-.97.27-.29.72-.58 1.14-.56.21.02.25.23.15.42-.09.19-.26.36-.39.52-.28.32-.56.59-.81.8-.49.43-.85.63-.83.66z"/><path class="st7" d="M583.67 298.91c.02 0 .02-.31-.27-.7-.14-.19-.36-.39-.64-.53-.28-.11-.66-.27-1.04-.02-.2.15-.16.46-.04.59.11.15.26.25.4.32.27.15.54.25.76.31.45.11.75.09.75.07 0-.03-.28-.06-.7-.2-.21-.07-.46-.18-.71-.33-.24-.12-.53-.42-.32-.6.22-.16.59-.06.84.04.26.12.47.28.61.45.27.32.32.61.36.6zm-16.13 8.07c.02.03.39-.28 1.08-.58.69-.3 1.73-.56 2.87-.39 1.14.17 2.07.72 2.64 1.21.58.49.84.89.87.87.01-.01-.04-.11-.17-.29-.12-.18-.32-.42-.61-.68a5.143 5.143 0 00-2.7-1.3c-1.19-.17-2.27.12-2.96.46-.35.17-.61.35-.78.48-.16.12-.25.21-.24.22zm8.53-1.28c.02.05 1.05-.34 2.22-1.01 1.18-.67 2.04-1.35 2.01-1.39-.03-.05-.94.55-2.1 1.21-1.17.66-2.15 1.13-2.13 1.19z"/><path class="st7" d="M573.25 307.33c-.01.06.19.15.41.31.22.16.38.32.43.29.05-.03-.06-.27-.32-.45-.25-.18-.51-.2-.52-.15zm-1.83-.71c-.01.05.17.15.4.21.24.06.44.07.45.02.01-.05-.17-.15-.4-.21s-.44-.07-.45-.02zm-1.87.28c.04.04.23-.07.48-.12.25-.05.47-.02.49-.08.02-.05-.22-.18-.53-.12-.31.07-.48.29-.44.32zm-1.25.35c.01.05.13.08.28.06.15-.02.26-.09.25-.14-.01-.05-.13-.08-.28-.06-.15.02-.26.08-.25.14zm-103.85-18.53l56.23-53.03c3.48-3.56 8.24-5.56 13.22-5.56 6.63 0 12.76 3.55 16.05 9.31l28.77 49.44-18.25 10.53-27.71-35.24-27.77 25.09-40.54-.54z"/><path class="st7" d="M447.89 291.38c-.24.72-1.91 18.83 22.41 18.83h64.97c8.22 0 14.89-6.67 14.89-14.89s-6.67-14.89-14.89-14.89h-60.49c-2.16 0-4.3.47-6.27 1.38l-20.62 9.57z"/><path class="st11" d="M541.02 280.43c0 .14-13.42.26-29.97.26-16.55 0-29.97-.12-29.97-.26s13.42-.26 29.97-.26c16.55 0 29.97.12 29.97.26zm-10.03-28.66c.16 0 .16 2.81.67 6.22.49 3.41 1.3 6.1 1.15 6.15-.12.05-1.16-2.61-1.66-6.07-.52-3.46-.29-6.31-.16-6.3z"/><path class="st11" d="M533.75 251.37c.14 0 .28 2.87-.03 6.39-.3 3.53-.93 6.33-1.06 6.31-.15-.03.25-2.85.54-6.35.31-3.5.4-6.35.55-6.35z"/><path class="st7" d="M483.38 171.62c.08.74-.32 1.5-.97 1.86-.65.36-1.5.29-2.09-.16-1.11-.86-.93-2.59-.43-3.9.51-1.31 1.25-2.67.93-4.04-.25-1.05-1.07-1.84-1.66-2.74-1.02-1.57-1.33-3.62-.67-5.37s2.34-3.11 4.21-3.26c1.91-.15 4.02.84 5.62-.21 1.16-.76 1.52-2.3 2.5-3.28 1.51-1.53 4.04-1.32 6.08-.63 2.04.69 4.03 1.78 6.18 1.67 1.79-.09 3.43-1.01 5.18-1.43 3.79-.91 8.06.82 10.15 4.1 2.09 3.29 1.84 7.89-.59 10.93-.87 1.09-2.84 4.36-6.75 3.55"/><path class="st14" d="M485.6 156.81l-.53 2.82-8.16 42.12c-.95 4.89 2.5 9.6 7.75 10.57 5.3.98 10.43-2.21 11.46-7.13 1.09-5.17 2.33-10.59 2.33-10.59s6.89.28 10.08-8.13c1.58-4.18 2.84-11.31 3.68-17.18.75-5.28-3.04-10.13-8.35-10.66l-18.26-1.82z"/><path class="st7" d="M508.27 173.48c-.1.59-.69 1-1.31.9-.62-.09-1.04-.65-.94-1.24.1-.59.69-1 1.31-.9.62.09 1.04.64.94 1.24zm1.64-.82c-.17.12-.88-.68-2.08-.93-1.2-.26-2.2.17-2.3 0-.05-.08.14-.31.59-.51.44-.2 1.13-.34 1.88-.18.75.16 1.32.56 1.62.92.3.36.37.65.29.7zm-13.11-1.52c-.1.59-.69 1-1.31.9-.62-.09-1.04-.65-.94-1.24.1-.59.69-1 1.31-.9.62.09 1.04.65.94 1.24z"/><path class="st7" d="M498.07 170.44c-.17.12-.88-.68-2.08-.93-1.2-.26-2.2.17-2.3 0-.05-.08.14-.31.59-.51.43-.2 1.13-.34 1.88-.18.75.16 1.32.57 1.62.92.3.36.38.65.29.7zm2.51 9.8c.01-.07.78-.04 2.02.05.31.03.62.03.71-.17.12-.21.06-.56-.02-.95-.13-.8-.27-1.64-.42-2.52-.57-3.58-.91-6.5-.77-6.52.14-.02.72 2.86 1.29 6.45.13.88.26 1.72.38 2.53.04.37.16.81-.09 1.24-.13.21-.39.33-.6.34-.21.02-.38-.01-.54-.04-1.21-.19-1.97-.34-1.96-.41z"/><path class="st15" d="M498.46 194.61s-5.93-.84-11-5.52c0 0 1.58 6.56 10.45 7.55l.55-2.03z"/><path class="st7" d="M496.88 180.33c.2.03-.07 1.33.85 2.49.92 1.16 2.34 1.3 2.31 1.48 0 .09-.36.19-.95.08-.58-.1-1.38-.46-1.94-1.17s-.7-1.52-.63-2.07c.06-.54.27-.83.36-.81zm2.48-14.53c-.19.3-1.35-.1-2.79-.22-1.44-.15-2.66.02-2.79-.31-.05-.16.21-.42.73-.64.52-.22 1.31-.37 2.17-.29.86.08 1.61.38 2.08.69.48.32.68.63.6.77zm10.83 3.3c-.27.23-1.04-.23-2.03-.45-.98-.25-1.87-.2-2.01-.52-.06-.16.13-.4.55-.58.42-.18 1.07-.27 1.74-.1.68.16 1.22.53 1.51.88.31.35.36.66.24.77z"/><path class="st7" d="M513.3 165.5s-4.92 1.4-10.31-2.58c-3.54-2.61-7.89-4.35-9.02-3.74-1.13.61-2.04 4.56-6.08 5.06 0 0-1.07 7.66-4.06 6.86-2.99-.8.62-15.88.62-15.88l8.42 1.28 8.38-.11 7.45 2.41 5.63 2.65-1.03 4.05zm-28.61-12.49c-.02-.12.75-.24 1.52.23.78.47 1.02 1.21.9 1.25-.12.06-.49-.46-1.14-.85-.64-.4-1.28-.5-1.28-.63zm3.04-2.04c.14.04-.09.92-.15 1.98s.23 1.9.11 1.95c-.1.07-.64-.79-.57-1.97.06-1.17.51-2 .61-1.96z"/><path class="st14" d="M484.65 168.01c-.11-.09-4.67-2.76-5.77 2.3-1.11 5.06 4.2 5.13 4.24 4.98.04-.14 1.53-7.28 1.53-7.28z"/><path class="st15" d="M482 173.04c-.02-.02-.1.04-.27.08a.9.9 0 01-.66-.13c-.49-.31-.76-1.26-.58-2.18.09-.46.28-.88.52-1.21.24-.34.53-.54.81-.53.28 0 .44.2.47.36.04.16-.02.25.01.26.01.02.13-.06.13-.28 0-.1-.03-.24-.13-.36-.1-.13-.27-.21-.46-.24-.4-.06-.83.22-1.09.58-.29.36-.52.82-.61 1.34-.19 1.03.12 2.09.81 2.47.34.17.66.13.84.04.17-.08.22-.19.21-.2z"/><path class="st11" d="M501.42 170.97c-.05 0-.04-.48-.27-1.29-.22-.79-.77-1.95-1.97-2.84-1.16-.89-3.06-1.38-4.89-.7-1.82.63-3.39 2.57-3.37 4.83-.02 2.26 1.55 4.2 3.37 4.83 1.83.69 3.73.19 4.89-.7 1.2-.89 1.75-2.05 1.97-2.84.23-.81.22-1.29.27-1.29.02 0 .03.12.04.35.01.23-.01.57-.1.99-.17.84-.69 2.09-1.94 3.08-1.21.99-3.26 1.58-5.28.86a5.586 5.586 0 01-2.62-1.95c-.7-.92-1.09-2.11-1.1-3.33.01-1.22.41-2.41 1.1-3.33.68-.93 1.63-1.6 2.62-1.95 2.02-.73 4.07-.14 5.28.86 1.25.99 1.77 2.24 1.94 3.08.09.43.11.76.1.99-.01.23-.02.35-.04.35zm12.91 2.33c-.05 0-.04-.48-.27-1.29-.22-.79-.77-1.95-1.97-2.84-1.16-.89-3.06-1.38-4.89-.7-1.82.63-3.39 2.57-3.37 4.83-.02 2.26 1.55 4.2 3.37 4.83 1.83.69 3.73.19 4.89-.7 1.2-.89 1.75-2.05 1.97-2.84.23-.81.21-1.29.27-1.29.02 0 .03.12.04.35.01.23-.01.57-.1.99-.17.84-.69 2.09-1.94 3.08-1.21.99-3.26 1.58-5.28.86a5.538 5.538 0 01-2.62-1.95c-.7-.92-1.09-2.11-1.1-3.33.01-1.22.41-2.41 1.1-3.33.68-.93 1.63-1.6 2.62-1.95 2.02-.73 4.07-.14 5.28.86 1.25.99 1.77 2.24 1.94 3.08.09.43.11.76.1.99-.01.24-.03.35-.04.35z"/><path class="st11" d="M491.28 167.99c0 .14-1.45.27-3.24.27-1.79.01-3.24-.11-3.24-.25s1.45-.26 3.24-.27c1.79 0 3.24.11 3.24.25zm12.29 4.29c-.13.06-.45-.43-1.04-.6-.59-.18-1.12.06-1.2-.06-.04-.06.05-.21.29-.34.24-.13.64-.22 1.06-.1.42.12.71.41.84.65.12.24.11.42.05.45z"/><path class="st1" d="M491.68 280.01v-3.34l47.5.97 27.35-43.7 2.51 1.81-28.02 44.68z"/><path class="st14" d="M524.54 265.44l2.39 3.55v7.3s-1.24.29-1.73-.7-1.15-4.37-1.15-4.37l-1.16 2.99a2.577 2.577 0 01-3.03 1.57l-8.81-2.21 3.6-10.29 9.89 2.16z"/><path class="st8" d="M475.9 194.95s-13.15 3.29-17.09 9.2c-3.94 5.92-8.44 15.73-13.27 34.78-4.22 16.62-7.48 43.16-2.91 49.38 3.15 4.29 5.16 5.38 5.16 5.38l10.15-3.63c9.77-3.5 18.75-8.9 26.42-15.9l15.57-14.2-8.24-6.5s6.27-33.86 4.6-45.69c-1.47-10.36-20.39-12.82-20.39-12.82z"/><path class="st8" d="M479.3 205.15c-5.06 1.26-9.93 3.31-16.84 3.89-1.62.14-3.28-.16-4.67-1.02-4.36-2.69-2.85-7.68-.47-11.04 2.53-3.56 6.51-6.63 10.86-6.19-.83-2.16.45-4.74 2.48-5.85 2.03-1.11 4.56-.97 6.73-.15 2.17.81 4.05 2.23 5.89 3.62 2.48 1.87 4.96 3.74 7.43 5.61 1.67 1.26 3.39 2.58 4.35 4.43.96 1.85 4.52 9.13 2.94 10.49 0 0-2.02.59-3 0-.05-.03-.12-.08-.18-.13-4.43-3.44-10.07-5.01-15.52-3.66zm-7.47 6.17l-8.69 40.62a14.541 14.541 0 009.25 16.71l37.77 7.24 4.71-14.08-30.65-9.56 8.99-39.24-21.38-1.69z"/><path class="st7" d="M462.81 259.66c.01 0 .03.08.06.24.04.18.08.41.14.7.03.16.06.33.1.52.07.19.14.39.22.6.08.22.17.45.26.71.13.24.27.49.41.75.61 1.05 1.59 2.23 3.05 3.23 1.45 1 3.33 1.86 5.54 2.42 9.04 1.65 21.92 4.01 37.37 6.84l-.25.15c1.56-4.46 3.2-9.18 4.91-14.08l.16.31c-9.46-2.94-19.82-6.17-30.65-9.54l-.24-.07.06-.24c.53-2.09 1.11-4.33 1.68-6.59 1.78-7.11 3.45-14.08 4.9-20.83.71-3.38 1.39-6.71 1.85-9.99.14-.82.13-1.63.21-2.44-.03-.8-.06-1.6-.27-2.37a9.987 9.987 0 00-2.09-4.16c-2-2.4-5.08-3.67-8.01-3.59-2.97.08-5.62 1.68-7.44 3.76-1.85 2.09-3.03 4.59-3.83 7.06-.8 2.48-1.27 4.96-1.74 7.31-1.86 9.42-3.36 17.04-4.41 22.34-.53 2.62-.94 4.66-1.22 6.07-.14.68-.25 1.2-.33 1.58-.08.35-.13.53-.13.53s.02-.19.08-.54c.07-.38.16-.9.28-1.59.26-1.41.64-3.46 1.13-6.09 1.01-5.3 2.45-12.94 4.24-22.37.45-2.36.91-4.85 1.72-7.37.8-2.51 1.99-5.06 3.89-7.22 1.85-2.15 4.63-3.84 7.74-3.93 3.07-.09 6.29 1.23 8.39 3.73a10.36 10.36 0 012.2 4.36c.22.81.25 1.65.28 2.49-.07.83-.07 1.68-.21 2.5-.46 3.31-1.14 6.64-1.84 10.03-1.45 6.77-3.11 13.74-4.9 20.85-.58 2.26-1.15 4.5-1.68 6.59l-.17-.31c10.83 3.38 21.19 6.62 30.64 9.58l.24.07-.08.24c-1.72 4.9-3.38 9.62-4.95 14.07l-.06.18-.19-.04c-15.46-2.89-28.33-5.25-37.35-7.02-2.23-.58-4.13-1.47-5.59-2.51-1.47-1.03-2.46-2.25-3.06-3.33-.14-.27-.28-.53-.4-.77-.09-.26-.17-.5-.25-.72-.07-.22-.14-.43-.21-.62-.03-.19-.06-.37-.09-.53-.05-.3-.08-.53-.11-.71v-.24z"/><path class="st7" d="M478.94 257.57c-.06 0-.11-.48.08-1.21s.68-1.71 1.52-2.52c.85-.81 1.84-1.26 2.58-1.42.74-.16 1.22-.09 1.22-.03.01.08-.45.15-1.11.38-.67.23-1.54.7-2.32 1.44-.77.75-1.27 1.6-1.53 2.26-.27.66-.35 1.11-.44 1.1z"/><path d="M470.94 210.77c-4.54 14.08-7.29 28.7-9.1 43.39-.42 3.39-.78 6.84-.2 10.21.58 3.37 2.25 6.69 5.11 8.55 2.68 1.73 6.1 2 9.23 1.41 3.13-.59 8.2-1.29 11.09-2.65l-16.9-3.48s-10.9-.68-6.22-21.54c4.68-20.88 6.99-35.89 6.99-35.89zm-14.41-3.46c-.07 1.67.09 3.72 1.6 4.42 1.56.72 3.25-.58 4.51-1.75 5.12-4.72 10.93-8.7 17.18-11.78-8.49.55-16.78 3.9-23.26 9.4"/><path class="st7" d="M489.63 202.21c-.07.11-1.61-1.3-4.66-2.49-1.52-.58-3.4-1.1-5.55-1.26-2.14-.17-4.52.01-6.89.75-2.38.71-4.51 1.79-6.42 2.81-1.9 1.04-3.6 2.02-5.06 2.78-1.46.77-2.67 1.33-3.53 1.67-.86.33-1.35.49-1.36.45-.01-.04.45-.25 1.28-.64.83-.4 2.01-1 3.43-1.81 1.45-.84 3.14-1.81 5-2.88 1.91-1.05 4.06-2.16 6.5-2.89 2.43-.75 4.89-.93 7.08-.73 2.2.19 4.11.76 5.64 1.4 1.53.64 2.68 1.36 3.42 1.91.38.26.65.5.84.66.2.17.29.26.28.27z"/><path class="st7" d="M494.92 204.32c-.07.07-1.26-1.13-3.37-2.83-2.11-1.7-5.19-3.86-8.89-5.71-3.71-1.84-7.28-3.01-9.91-3.66-2.63-.66-4.3-.9-4.29-.99 0-.04.43 0 1.18.08.76.08 1.85.26 3.19.55 2.67.57 6.31 1.69 10.06 3.56 3.74 1.87 6.83 4.1 8.89 5.89 1.03.89 1.84 1.66 2.36 2.22.53.55.8.86.78.89z"/><path class="st1" d="M497.44 237.2c-.03 0-.1-.29-.2-.84s-.24-1.36-.33-2.4c-.07-1.04-.16-2.29.17-3.73.17-.7.71-1.53 1.64-1.68.44-.09 1.01.09 1.28.52.27.39.37 1.03-.07 1.46l-.05.05-.08.01c-.55.1-1.09-.18-1.43-.56-.37-.39-.54-.92-.61-1.41-.12-1-.13-1.96-.19-2.98-.25-4.79-.44-9.13-.56-12.28-.04-1.49-.08-2.74-.11-3.72-.01-.88-.01-1.37.03-1.37s.1.48.17 1.36c.07.98.17 2.22.28 3.72.21 3.14.46 7.48.71 12.27.07 1 .07 2.02.18 2.92.07.45.21.86.48 1.15.27.3.64.48.98.42l-.13.06c.21-.18.19-.57.01-.84-.17-.27-.49-.38-.82-.33-.68.1-1.14.71-1.31 1.34-.33 1.31-.3 2.58-.27 3.6.12 2.04.31 3.25.23 3.26z"/><path class="st7" d="M481.02 270.26c.02.03-.41.44-1.22 1.15-.8.72-2 1.72-3.52 2.92-3.03 2.4-7.36 5.53-12.45 8.51-5.09 2.99-9.94 5.25-13.52 6.69-1.79.73-3.25 1.27-4.28 1.62-1.02.35-1.59.52-1.6.49-.01-.03.53-.27 1.53-.68 1-.4 2.44-1 4.2-1.77 3.53-1.53 8.33-3.83 13.4-6.8 5.06-2.97 9.41-6.04 12.49-8.35 1.54-1.16 2.77-2.11 3.61-2.79.86-.66 1.34-1.01 1.36-.99z"/><path class="st7" d="M450.57 293c-.11.09-.71-.51-1.33-1.34-.62-.83-1.03-1.57-.92-1.65.11-.09.71.51 1.33 1.34.62.82 1.03 1.56.92 1.65zm6.03-2.56c-.08.11-.91-.35-1.68-1.21-.78-.85-1.16-1.72-1.04-1.79.13-.08.69.63 1.43 1.44.73.82 1.38 1.45 1.29 1.56zm7.58-2.5c-.11.1-.95-.68-1.87-1.73-.93-1.05-1.59-1.98-1.48-2.07.11-.1.95.68 1.87 1.73.93 1.05 1.59 1.98 1.48 2.07zm8.14-4.32c-.11.09-1-.81-2-2-.99-1.2-1.7-2.24-1.59-2.34.11-.09 1 .8 2 2 .99 1.2 1.7 2.25 1.59 2.34zm7.56-5.65c-.1.11-1.05-.6-2.14-1.58-1.08-.98-1.88-1.86-1.79-1.97.1-.11 1.05.6 2.14 1.58 1.09.98 1.89 1.86 1.79 1.97z"/></g><g id="Wifi"><circle transform="rotate(-76.697 550.102 196.803)" class="st11" cx="550.1" cy="196.81" r="2.32"/><path class="st11" d="M545.46 193.84c2.55-2.68 6.69-2.76 9.31-.12 1.18 1.19 3.04-.64 1.85-1.84-3.59-3.62-9.48-3.59-13 .11-1.15 1.21.68 3.07 1.84 1.85zm-7.88-10.8c3.53-3.05 7.74-4.97 12.46-4.98 4.68-.01 9.29 1.65 12.71 4.87 1.22 1.15 3.08-.68 1.85-1.84-3.92-3.68-9.19-5.65-14.56-5.64-5.43.01-10.26 2.23-14.31 5.74-1.26 1.09.58 2.94 1.85 1.85z"/><path class="st11" d="M540.69 189.02c2.37-2.56 5.68-4.16 9.19-4.24 3.6-.08 7.08 1.4 9.58 3.97 1.17 1.21 3.03-.63 1.85-1.84-2.96-3.04-7.16-4.84-11.42-4.75-4.17.1-8.21 1.94-11.04 5-1.14 1.24.7 3.1 1.84 1.86z"/></g></svg>