<svg id="Layer_1" data-name="Layer 1" xmlns="http://www.w3.org/2000/svg" viewBox="0 0 1367.57 618.82"><defs><style>.cls-1,.cls-10,.cls-13,.cls-14,.cls-17,.cls-23,.cls-3,.cls-4{fill:none;stroke:#e8505b}.cls-1,.cls-13,.cls-14,.cls-3,.cls-4{stroke-linecap:round;stroke-linejoin:round}.cls-1,.cls-10,.cls-3,.cls-4{stroke-width:5px}.cls-3{stroke-dasharray:13.28 13.28}.cls-4{stroke-dasharray:11.71 11.71}.cls-6{font-size:24px}.cls-16,.cls-6{fill:#58595b;font-family:ArialMT,Arial}.cls-7{letter-spacing:-.06em}.cls-8{letter-spacing:-.02em}.cls-9{letter-spacing:-.04em}.cls-10,.cls-17,.cls-23{stroke-miterlimit:10}.cls-11{fill:#e8505b}.cls-12{fill:#fff}.cls-13,.cls-17{stroke-width:4px}.cls-14{stroke-width:3px}.cls-16{font-size:15px}.cls-23{stroke-width:2px}</style></defs><path class="cls-1" d="M438.54 309.59h6"/><path stroke-dasharray="12.79 12.79" stroke-width="5" stroke-linecap="round" stroke-linejoin="round" fill="none" stroke="#e8505b" d="M457.33 309.59h121.53"/><path class="cls-1" d="M585.26 309.59h6M603.7 89.04h6"/><path class="cls-3" d="M622.98 89.04h73.05"/><path class="cls-1" d="M702.67 89.04h6M599.7 531.65h6"/><path class="cls-3" d="M618.98 531.65h73.05"/><path class="cls-1" d="M698.67 531.65h6M599.7 388.3h6"/><path class="cls-3" d="M618.98 388.3h73.05"/><path class="cls-1" d="M698.67 388.3h6M598.94 236.64h6"/><path class="cls-3" d="M618.22 236.64h73.05"/><path class="cls-1" d="M697.91 236.64h6M592.27 299.7v-6"/><path class="cls-4" d="M592.26 282l-.01-181.46"/><path class="cls-1" d="M592.25 94.69v-6m-.12 442.28v-6"/><path class="cls-4" d="M592.13 513.26l-.02-181.45"/><path class="cls-1" d="M592.11 325.95v-6"/><path d="M720.48 35.82h643.45v109.14H720.48zm1.13 149.23h643.45v109.14H721.61zm0 149.57h643.45v109.14H721.61zm0 149.57h643.45v109.14H721.61z" stroke-dasharray="12" stroke-width="5" stroke-linecap="round" stroke-linejoin="round" fill="none" stroke="#e8505b"/><text class="cls-6" transform="translate(754.75 81.22)">Multi-<tspan class="cls-7" x="58.66" y="0">V</tspan><tspan x="73.35" y="0">endor &amp; Multi-Domain network planning for CX, </tspan><tspan x="52.04" y="28.8">Enterprise, CORE, RAN, Mobile &amp;</tspan><tspan class="cls-8" x="414.82" y="28.8"> </tspan><tspan class="cls-9" x="421.05" y="28.8">T</tspan><tspan x="434.82" y="28.8">ransport</tspan></text><text class="cls-6" transform="translate(800.13 232.28)">Network configuration collection, provisioning, <tspan x="27.99" y="28.8">periodic health check &amp; topolgy mapping</tspan></text><text class="cls-6" transform="translate(739.73 533.35)">Next best action, Recomendation of probable root cause, <tspan x="90.73" y="28.8">automated alerting, ticketing &amp; reporting</tspan></text><text class="cls-6" transform="translate(768.68 381.11)">AI/M<tspan class="cls-9" x="49.34" y="0">L</tspan><tspan x="61.79" y="0"> based network prediction, anomaly detection, </tspan><tspan x="64.91" y="28.8">preventive maintenance and correlation</tspan></text><path class="cls-10" d="M430.58 2.89L329.17 61.44v117.09l101.41 58.55 101.41-58.55V61.44L430.58 2.89z"/><rect class="cls-11" x="407.72" y="37.22" width="48.16" height="31.69" rx="10.61"/><rect class="cls-12" x="412.08" y="41.68" width="39.45" height="20.45" rx="3.94"/><path class="cls-11" d="M421.55 63.84h18.69v12.99h-18.69z"/><rect class="cls-11" x="362.61" y="87.72" width="48.16" height="31.69" rx="10.61"/><rect class="cls-12" x="366.97" y="92.18" width="39.45" height="20.45" rx="3.94"/><path class="cls-11" d="M376.44 114.33h18.69v12.99h-18.69z"/><rect class="cls-11" x="450.38" y="90.56" width="48.16" height="31.69" rx="10.61"/><rect class="cls-12" x="454.74" y="95.03" width="39.45" height="20.45" rx="3.94"/><path class="cls-11" d="M464.21 117.18h18.69v12.99h-18.69z"/><path class="cls-13" d="M387.01 76.94h87.77m-87.97.32V89.3m88.09-11.41v12.04"/><path class="cls-14" d="M369.9 127.64h31.69m56.2 2.53h31.68"/><rect class="cls-11" x="618.12" y="300.12" width="12.75" height="38.09" rx="5.12" transform="rotate(-34.73 234.854 507.996)"/><circle class="cls-12" cx="430.32" cy="110.53" r="26.2"/><circle cx="430.32" cy="110.53" r="20.06" stroke-width="6" stroke-miterlimit="10" fill="none" stroke="#e8505b"/><text class="cls-16" transform="translate(350.97 174)">Network Device Monitor <tspan x="29.58" y="17">&amp; configuration</tspan></text><path class="cls-10" d="M429.24 380.61l-101.41 58.54v117.1l101.41 58.55 101.41-58.55v-117.1l-101.41-58.54z"/><circle class="cls-17" cx="605.64" cy="664.68" r="47.53" transform="rotate(-22.5 43.81 1015.421)"/><circle class="cls-11" cx="428.65" cy="430.46" r="20.95"/><circle class="cls-11" cx="389.63" cy="507.03" r="20.95"/><circle class="cls-11" cx="468.85" cy="503.18" r="20.95"/><path class="cls-12" d="M617.58 619.13a6.14 6.14 0 01-5.94 6.33h-.25a5.8 5.8 0 01-4.4 2.08 5.87 5.87 0 01-5-2.87 5.63 5.63 0 01-3.28 1.06A9.57 9.57 0 11610.05 613a6 6 0 011.59-.23 6.15 6.15 0 015.94 6.36z" transform="translate(-176.99 -188.3)"/><rect class="cls-12" x="375.64" y="494.86" width="27.73" height="7.56" rx="3.38"/><rect class="cls-12" x="375.64" y="502.89" width="27.73" height="7.56" rx="3.38"/><rect class="cls-12" x="375.64" y="510.78" width="27.73" height="7.56" rx="3.38"/><rect class="cls-11" x="394.33" y="497.88" width="5.75" height="1.89" rx=".85"/><rect class="cls-11" x="394.33" y="505.52" width="5.75" height="1.89" rx=".85"/><rect class="cls-11" x="394.37" y="513.44" width="5.75" height="1.89" rx=".85"/><rect class="cls-12" x="456.4" y="492.98" width="25.37" height="16.21" rx="3.54"/><rect class="cls-11" x="458.16" y="495.52" width="21.85" height="11.11" rx="2.59"/><path class="cls-12" d="M466.04 508.64h6.09v4.2h-6.09z"/><path class="cls-12" d="M464.2 512.21h9.77v3.15h-9.77z"/><path class="cls-17" d="M558 663.11h17.28l9.62-13.87 11.34 33.62q3.15-12.81 6.31-25.63h49.6" transform="translate(-176.99 -188.3)"/><text class="cls-16" transform="translate(387.13 550.03)">Closed Loop <tspan x="-20.01" y="17">Automation &amp;</tspan><tspan x="70.04" y="17" letter-spacing="-.06em"> </tspan><tspan x="73.38" y="17" letter-spacing="0">Auto </tspan><tspan x="16.68" y="34">Healing</tspan></text><path class="cls-10" d="M213.05 381.74l-101.41 58.55v117.09l101.41 58.55 101.41-58.55V440.29l-101.41-58.55z"/><path class="cls-17" d="M449.34 639.7v7.3a9.73 9.73 0 01-9.73 9.73h-54a5.13 5.13 0 00-.82-1.74 26.79 26.79 0 01-2.26-3.78c-1.28-2.61-1.84-4.93-2.91-9.49-1.72-7.34-1.38-9.15-2.28-11.77h62.23a9.73 9.73 0 019.77 9.75zm0 28.07v7.31a9.73 9.73 0 01-7.27 9.41 9.54 9.54 0 01-2.46.32h-75.56a9.4 9.4 0 01-2.45-.32 9.7 9.7 0 01-5.79-4.23A10.84 10.84 0 00369.9 670a10.43 10.43 0 00-1-4.43 59.35 59.35 0 0010.72-1.63c.82-.2 1.61-.41 2.36-.63a5.24 5.24 0 003.83-5.23h53.76a9.74 9.74 0 019.77 9.69z" transform="translate(-176.99 -188.3)"/><rect class="cls-17" x="177.33" y="495.88" width="95.02" height="26.78" rx="8.1"/><path class="cls-17" d="M385.85 658a5.24 5.24 0 01-3.83 5.23c-.75.22-1.54.43-2.36.63a59.35 59.35 0 01-10.72 1.63c-3.14.18-6.43.2-10.39.21h-4c-1.94 0-3.69 0-5.37-.11a52.72 52.72 0 01-11.7-1.73c-1.1-.29-2.14-.59-3.09-.91a5.28 5.28 0 01-3-7.59c.79-1.42 1.67-3 2.63-4.69 4.5-7.89 5-8.13 5.8-10.55 2.52-7.22.13-10 2.65-14.77 1.24-2.38 3.84-5.56 10-7.91a7.65 7.65 0 017.38-5.81 7.73 7.73 0 017.39 7.38c6 3.38 8.54 7.16 9.76 10 .13.32.25.61.35.9.9 2.62.56 4.43 2.28 11.77 1.07 4.56 1.63 6.88 2.91 9.49a26.79 26.79 0 002.26 3.78 5.13 5.13 0 01.82 1.74 4.33 4.33 0 01.23 1.31z" transform="translate(-176.99 -188.3)"/><path class="cls-17" d="M369.9 670a10.82 10.82 0 11-20.73-4.33c1.68.08 3.43.11 5.37.11h4c4 0 7.25 0 10.39-.21a10.43 10.43 0 01.97 4.43z" transform="translate(-176.99 -188.3)"/><rect class="cls-11" x="243.01" y="450.81" width="19.08" height="8.18" rx="2.47"/><rect class="cls-11" x="243.01" y="478.95" width="19.08" height="8.18" rx="2.47"/><rect class="cls-11" x="243.01" y="504.4" width="19.08" height="8.18" rx="2.47"/><text class="cls-16" transform="translate(165.03 548.72)">3</text><text transform="matrix(.58 0 0 .58 173.37 543.72)" letter-spacing="0" font-size="15" fill="#58595b" font-family="ArialMT,Arial">rd</text><text class="cls-16" transform="translate(183.55 548.72)">Party<tspan x="35.01" y="0" letter-spacing="-.06em"> </tspan><tspan x="38.35" y="0" letter-spacing="0">Alarm</tspan><tspan x="-18.45" y="17">&amp; Log Storage</tspan><tspan x="3.66" y="34">Servers</tspan></text><path class="cls-10" d="M103.91 192.57L2.5 251.12v117.1l101.41 58.54 101.41-58.54v-117.1l-101.41-58.55z"/><path class="cls-17" d="M305.12 459.09v46.33a7.13 7.13 0 01-7.13 7.12h-32.66a7.13 7.13 0 01-7.13-7.13v-46.32a7.13 7.13 0 017.13-7.12H298a7.13 7.13 0 017.12 7.12z" transform="translate(-176.99 -188.3)"/><rect class="cls-23" x="88.35" y="269.31" width="32.66" height="49.29" rx="7.91"/><path class="cls-23" d="M310.11 468.8v6.86a4.74 4.74 0 01-4.73 4.74h-.26v-16.33h.26a4.73 4.73 0 014.73 4.73zm-.51 20.63v6.29a2.21 2.21 0 01-2.2 2.2h-2.28v-10.69h2.28a2.21 2.21 0 012.2 2.2zm-51.4-12v15.15h-2.81a3.72 3.72 0 01-3.71-3.72v-7.72a3.71 3.71 0 013.71-3.71z" transform="translate(-176.99 -188.3)"/><path d="M114.48 263.41H96.14c-5 0-8.06-4.08-6.79-9.1l.88-3.49c1.27-5 5.23-9.09 8.86-9.09h13.22c3.63 0 7.45 4.07 8.53 9.09l.76 3.49c1.09 5.02-2.1 9.1-7.12 9.1zm-3.1 83.62H98.21c-3.37 0-6.83-3.65-7.72-8.15l-1.13-5.67c-.89-4.5 2-8.15 6.54-8.15h17.55a6.57 6.57 0 016.62 8.15l-1.06 5.67c-.84 4.5-4.26 8.15-7.63 8.15z" stroke-width="3" stroke-miterlimit="10" fill="none" stroke="#e8505b"/><path class="cls-14" d="M97.63 252.61h15.74m-17.3 80.77h15.73"/><path d="M91.31 296.31h7.57c.84-2.17 1.69-4.35 2.53-6.53q1.92 7.28 3.86 14.55l2.37-13.06h7.18" stroke-width="2" stroke-linecap="round" stroke-linejoin="round" fill="none" stroke="#e8505b"/><path class="cls-1" d="M288.12 470.53l2.14 3.76 2.61-3.73" transform="translate(-176.99 -188.3)"/><text class="cls-16" transform="translate(39.72 375.22)">Smart Care Probes</text><path class="cls-10" d="M213.11 3.24L111.7 61.79v117.1l101.41 58.55 101.41-58.55V61.79L213.11 3.24z"/><path class="cls-17" d="M414.5 269a24.16 24.16 0 01-15.37 22.5l-8.77 15.18-8.77-15.18A24.14 24.14 0 11414.5 269z" transform="translate(-176.99 -188.3)"/><path class="cls-17" d="M381.64 325.62a6.55 6.55 0 011.85-3.81 6.47 6.47 0 014.59-1.9h4.46a6.49 6.49 0 016.44 5.74 50.5 50.5 0 0040.5-38.09 6.47 6.47 0 01-5.19-6.35v-12.57a6.49 6.49 0 014.7-6.24 50.47 50.47 0 00-97.08-.56 8.38 8.38 0 014.8 6v12.56a8.19 8.19 0 01-5.64 6.28" transform="translate(-176.99 -188.3)"/><path class="cls-17" d="M346.71 267.84v12.56a8.19 8.19 0 01-5.64 6.28 6.82 6.82 0 01-1.64.2 6.49 6.49 0 01-6.49-6.48v-12.56a6.49 6.49 0 016.49-6.49 6.61 6.61 0 012.48.49 8.38 8.38 0 014.8 6zm100.55.8v12.56a6.49 6.49 0 01-6.49 6.48 6.88 6.88 0 01-1.29-.12 6.47 6.47 0 01-5.19-6.35v-12.57a6.49 6.49 0 014.7-6.24 6.49 6.49 0 018.27 6.24zM399 326.4a6.49 6.49 0 01-6.48 6.48h-4.46a6.49 6.49 0 01-6.49-6.48 6.81 6.81 0 01.05-.78 6.55 6.55 0 011.85-3.81 6.47 6.47 0 014.59-1.9h4.46a6.49 6.49 0 016.44 5.74 6.28 6.28 0 01.04.75z" transform="translate(-176.99 -188.3)"/><path class="cls-13" d="M199.01 70.16h29.18m-29.18 9.85h29.18m-29.18 9.84h15.49"/><text class="cls-16" transform="translate(161.15 173.41)"><tspan class="cls-8">V</tspan><tspan x="9.73" y="0">irtual Services</tspan></text><path class="cls-10" d="M321.09 192.08l-101.41 58.55v117.09l101.41 58.55 101.41-58.55V250.63l-101.41-58.55z"/><rect class="cls-17" x="268.48" y="238.34" width="105.23" height="81.9" rx="19.5"/><path class="cls-17" d="M271 310.13h99.19m-39.84 24.56h-17.48l2.28-13.75h12.91l2.29 13.75zm-34.18.79H347v2.14a5.91 5.91 0 01-5.91 5.91h-39.01a5.91 5.91 0 01-5.91-5.91v-2.14z"/><path class="cls-11" d="M493.37 461a5.4 5.4 0 01.18-.57c-.06.19-.11.38-.16.57zm2.25 12.87l-.17-.24q-.17-.24-.33-.51l-.26.26a15.69 15.69 0 01-1.76-4.52h.27c.05.21.1.41.17.62s.11.35.16.52.1.28.15.4a10.47 10.47 0 00.55 1.34c.06.12.11.25.18.36l.23.45c.1.19.21.37.33.56a.24.24 0 00.06.11c.15.23.28.45.42.65zm.02.02c.13.21.28.42.44.63l-.23-.32zm5.16 4.72a15.59 15.59 0 004 1.61v.78a15.51 15.51 0 01-4.46-1.9l.35-.35-.1-.06.11.05zm4.92 2.02a18.34 18.34 0 002.36.3 15.7 15.7 0 01-2.36-.3zm11.43-1.96l.23.23a15.78 15.78 0 01-4.69 2.05v-.45l-.54.12.54-.12v-.28a15.6 15.6 0 004.26-1.76l.19.2h.07zm1.93-1.38a13.94 13.94 0 001.14-1c-.37.34-.74.71-1.14 1zm5.68-11.86a16.28 16.28 0 01-.37 3.45c-.08.35-.17.7-.27 1a15.82 15.82 0 01-1.34 3.23l-.08-.07-.1.15a.83.83 0 00.09-.16l-.17-.18a15.88 15.88 0 002.24-7.85v.43z" transform="translate(-176.99 -188.3)"/><path class="cls-11" d="M505.72 480.63a18.34 18.34 0 002.36.3 15.7 15.7 0 01-2.36-.3zm6.97-.13l-.54.12zm-7.87-31.04l.28-.06-.28.08zM493.39 461c.05-.19.1-.38.16-.57-.06.2-.11.39-.16.57zm0 7.88zm1.79-12.17l.1.09a15.44 15.44 0 00-1.71 3.57c0-.15.09-.31.14-.46s.1-.3.16-.45a.09.09 0 010-.06 5.46 5.46 0 01.26-.67c.08-.22.18-.42.28-.63s.26-.54.41-.8.25-.41.36-.59z" transform="translate(-176.99 -188.3)"/><path class="cls-11" d="M504.82 449.46l.28-.06-.28.08v.43a14.79 14.79 0 00-3.8 1.51l-.25-.25c.26-.16.52-.3.79-.44.42-.22.86-.42 1.29-.6a.28.28 0 01.12 0 5.12 5.12 0 01.65-.25l.74-.24zm-4.02 29.15a15.59 15.59 0 004 1.61v.21l-.55-.16-.46-.15a3.75 3.75 0 01-.47-.17l-.64-.25-.55-.24-.39-.19a5.42 5.42 0 01-.48-.26 6.22 6.22 0 01-.56-.32zm11.89-28.7v-.52l.71.19h.05l.72.23.45.17a3.83 3.83 0 01.43.17l.57.25.53.26.55.29.36.21-.36.36a15.58 15.58 0 00-4.01-1.61zm4.31 28.55l.19.2a5.32 5.32 0 01-.61.35 6.25 6.25 0 01-.63.33.19.19 0 01-.1.05l-.67.3a7.12 7.12 0 01-.72.28l-.64.23h-.14l-.73.21-.21.05v-.28a15.6 15.6 0 004.26-1.72zm5.38-21.46l.27-.28-.1-.18a.21.21 0 010 .06.45.45 0 01.06.12 6.32 6.32 0 01.33.56c.11.2.22.41.32.63a.93.93 0 01.05.1c.11.22.21.44.3.67s.2.48.29.72.15.42.22.64v.14l.21.73v.06h-.28a15.75 15.75 0 00-1.67-3.97zm2.01 11.88v.06c-.06.23-.12.46-.2.68a1.71 1.71 0 01-.09.3c-.05.17-.11.34-.17.52s-.18.48-.29.73-.24.55-.37.82-.38.73-.6 1.08l-.17-.18a15.88 15.88 0 002.24-7.85v.38a16.28 16.28 0 01-.35 3.46zm.2-.72a18.36 18.36 0 00.3-2.39 16.1 16.1 0 01-.3 2.39zm.3-4.04a18.72 18.72 0 00-.3-2.37 15.83 15.83 0 01.3 2.37z" transform="translate(-176.99 -188.3)"/><path class="cls-11" d="M524.76 465.43a16.28 16.28 0 01-.37 3.45h-.18a16.09 16.09 0 00.54-3.83c.01.13.01.26.01.38zm-29.6 7.7a.24.24 0 00.06.11.61.61 0 01-.07-.1c-.11-.19-.22-.38-.32-.57.1.19.17.37.33.56zm.12-16.33a15.44 15.44 0 00-1.71 3.57c0-.15.09-.31.14-.46s.1-.3.16-.45a.09.09 0 010-.06 5.46 5.46 0 01.26-.67c.08-.22.18-.42.28-.63s.26-.54.41-.8.21-.38.32-.57v-.06.07zm.34 17.07l-.17-.24c-.09-.13-.17-.27-.25-.41.15.23.28.45.42.65zm.02.02c.13.21.28.42.44.63l-.23-.32zm8.72-24.29c.15 0 .3-.09.46-.12v.43a14.79 14.79 0 00-3.8 1.51l-.25-.25c.26-.16.52-.3.79-.44.42-.22.86-.42 1.29-.6a.28.28 0 01.12 0 5.12 5.12 0 01.65-.25zm-3.56 29.01a15.59 15.59 0 004 1.61v.21l-.55-.16-.46-.15a3.75 3.75 0 01-.47-.17l-.64-.25-.55-.24-.39-.19a5.42 5.42 0 01-.48-.26l-.57-.31-.1-.06.11.05zm4.92 2.02a18.34 18.34 0 002.36.3 15.7 15.7 0 01-2.36-.3zm11.01-29.08a15.58 15.58 0 00-4-1.64v-.52l.71.19h.05l.72.23.45.17a3.83 3.83 0 01.43.17l.57.25.53.26.55.29.36.21zm.41 27.11h.07-.06c-.2.12-.41.24-.62.34a6.25 6.25 0 01-.63.33.19.19 0 01-.1.05l-.67.3a7.12 7.12 0 01-.72.28l-.64.23h-.14l-.73.21-.21.05-.54.12.54-.12v-.28a15.6 15.6 0 004.26-1.76zm1.94-1.37a13.94 13.94 0 001.14-1c-.37.34-.74.71-1.14 1zm3.47-20.71a.2.2 0 010-.09 1.19 1.19 0 01.09.15l.07.11c.11.19.22.37.32.57s.22.41.32.63a.93.93 0 01.05.1c.11.22.21.44.3.67s.2.48.29.72.15.42.22.64v.14l.21.73v.06h-.28a15.75 15.75 0 00-1.76-4l.27-.28zm2.04 11.58a18.36 18.36 0 00.3-2.39 16.1 16.1 0 01-.3 2.39zm.3-4.04a18.72 18.72 0 00-.3-2.37 15.83 15.83 0 01.3 2.37z" transform="translate(-176.99 -188.3)"/><path class="cls-11" d="M524.39 468.88v.06c-.06.23-.12.46-.2.68a1.71 1.71 0 01-.09.3c-.05.17-.11.34-.17.52s-.18.48-.29.73-.24.55-.37.82-.38.73-.59 1.09l-.1.15a.83.83 0 00.09-.16l-.17-.18a15.88 15.88 0 002.24-7.85v.38a16.28 16.28 0 01-.35 3.46zm-1.73-12.13l-.1-.18a.2.2 0 010-.09 1.19 1.19 0 01.09.15zm-27.04 17.12l-.17-.24q-.17-.24-.33-.51a.24.24 0 00.06.11c.17.22.3.44.44.64zm.02.02c.13.21.28.42.44.63l-.23-.32zm5.08 4.8l-.1-.06zM493.18 461a16.15 16.15 0 011.81-4.5l.19.19v-.06.07l.1.09a15.44 15.44 0 00-1.71 3.57.1.1 0 000 .07c-.06.19-.11.38-.16.57z" transform="translate(-176.99 -188.3)"/><path class="cls-11" d="M495.22 473.24c.13.21.26.43.4.63l-.15-.22q-.17-.24-.33-.51a16.1 16.1 0 01-1.85-4.26h.1c.05.21.1.41.17.62s.11.35.16.52.1.28.15.4a10.47 10.47 0 00.55 1.34c.06.12.11.25.18.36l.23.45c.1.19.21.37.33.56a.24.24 0 00.06.11zm9.6-23.78l.28-.06-.28.08v.43a14.79 14.79 0 00-3.8 1.51l-.25-.25-.21-.22a15.58 15.58 0 014.26-1.75zm7.87-.26a15.8 15.8 0 014.49 1.9l-.45.45a15.58 15.58 0 00-4-1.64zm11.63 11.8h-.18a15.75 15.75 0 00-1.76-4l.27-.28a15.73 15.73 0 011.67 4.28z" transform="translate(-176.99 -188.3)"/><path class="cls-11" d="M527.49 461h-3.35a15.75 15.75 0 00-1.76-4l.27-.28-.1-.18a.2.2 0 010-.09 1.19 1.19 0 01.09.15l.07.11 2.17-2.16a3.94 3.94 0 10-5.57-5.56l-2.53 2.52a15.58 15.58 0 00-4-1.64v-2.8a3.94 3.94 0 00-7.87 0v2.35l.28-.06-.28.08v.43a14.79 14.79 0 00-3.8 1.51l-.25-.25-.21-.22-2.17-2.16a3.93 3.93 0 00-5.56 5.56l2.35 2.35v-.06.07l.1.09a15.44 15.44 0 00-1.71 3.57.1.1 0 000 .07c-.06.19-.11.38-.16.57h-2.9a3.94 3.94 0 100 7.87h2.79c.05.21.1.41.17.62s.11.35.16.52.1.28.15.4a10.47 10.47 0 00.55 1.34c.06.12.11.25.18.36l.23.45c.1.19.21.37.33.56a.24.24 0 00.06.11c.13.21.26.43.4.63l-.17-.24q-.17-.24-.33-.51l-.26.26-1.71 1.71a3.94 3.94 0 005.57 5.57l2-2-.1-.06.11.05.08-.08a15.59 15.59 0 004 1.61V484a3.94 3.94 0 007.87 0v-3.5l-.54.12.54-.12v-.28a15.6 15.6 0 004.26-1.76l.19.2h.07-.06l.23.23 1.54 1.54a3.95 3.95 0 005.57 0 4 4 0 000-5.56l-1.72-1.72-.08-.07-.1.15a.83.83 0 00.09-.16l-.17-.18a15.88 15.88 0 002.24-7.85v.38a16.28 16.28 0 01-.37 3.45h3.1a3.94 3.94 0 000-7.87zm-19.41 19.92a15.7 15.7 0 01-2.36-.3 18.34 18.34 0 002.36.31zm11-3.64a13.94 13.94 0 001.14-1c-.37.35-.74.72-1.14 1.01zm5.51-15.54a15.83 15.83 0 01.3 2.37 18.72 18.72 0 00-.3-2.36zm0 6.41a18.36 18.36 0 00.3-2.39 16.1 16.1 0 01-.3 2.4zm-29.41-11.45v-.06.07zm21.96 21.96h.07-.06z" transform="translate(-176.99 -188.3)"/><path class="cls-11" d="M519.08 477.29a13.94 13.94 0 001.14-1c-.37.34-.74.71-1.14 1zm3.61-4.2l-.1.15a.83.83 0 00.09-.16z" transform="translate(-176.99 -188.3)"/><circle class="cls-12" cx="331.34" cy="276.55" r="9.77"/><path class="cls-11" d="M469.4 458.65l.18-.57q-.09.29-.15.57zm2.26 12.86l-.16-.23q-.18-.26-.33-.51l-.26.26a15.75 15.75 0 01-1.76-4.53h.27c.05.21.1.42.16.62s.11.35.17.53.09.27.14.4c.16.45.35.9.55 1.34l.18.35c.08.15.15.3.24.45s.21.38.32.56a.75.75 0 00.07.12 5.93 5.93 0 00.41.64zm.01.02c.14.22.29.42.44.63l-.22-.32a3.46 3.46 0 01-.22-.31zm5.17 4.72a15.83 15.83 0 004 1.62v.72a15.24 15.24 0 01-4.46-1.9l.35-.35-.1-.06.1.06zm4.92 2.03a16.4 16.4 0 002.35.29 17.14 17.14 0 01-2.35-.29zm11.42-1.97l.24.23a15.69 15.69 0 01-4.7 2v-.44l-.53.11c.18 0 .35-.08.53-.12v-.27a15.66 15.66 0 004.26-1.76l.2.2h.06zm1.94-1.38a11 11 0 001.13-1 13.51 13.51 0 01-1.13 1zm5.67-11.86a16.28 16.28 0 01-.37 3.45c-.08.35-.16.7-.26 1.05a15.09 15.09 0 01-1.35 3.23l-.08-.07a.7.7 0 01-.1.16l.1-.17-.17-.18a16.16 16.16 0 002.24-7.84z" transform="translate(-176.99 -188.3)"/><path class="cls-11" d="M481.76 478.28a16.4 16.4 0 002.35.29 17.14 17.14 0 01-2.35-.29zm6.96-.14l-.53.11c.18-.02.35-.07.53-.11zm-7.86-31.03l.27-.07-.27.08zm-11.43 11.54c.05-.19.1-.38.16-.57q-.1.29-.16.57zm0 7.87c.05.21.1.42.16.62-.06-.2-.12-.41-.17-.62zm1.79-12.17l.09.09a15.93 15.93 0 00-1.71 3.56c0-.16.09-.31.14-.46s.1-.31.16-.46v-.06c.08-.23.17-.45.27-.67.09-.21.18-.41.28-.62s.27-.55.42-.81.23-.38.35-.57z" transform="translate(-176.99 -188.3)"/><path class="cls-11" d="M480.86 447.11l.27-.07-.27.08v.43a15.38 15.38 0 00-3.81 1.51l-.25-.25c.26-.16.53-.3.79-.44.42-.22.86-.42 1.3-.6h.12l.64-.25.74-.24zm-4.02 29.14a15.83 15.83 0 004 1.62v.2l-.56-.16-.45-.15a3.39 3.39 0 01-.48-.17l-.63-.24a5.65 5.65 0 01-.55-.25l-.4-.19-.48-.25-.56-.32zm11.88-28.7V447l.71.19h.05l.72.23a4.22 4.22 0 01.45.18 2.73 2.73 0 01.43.16l.57.25.54.27c.18.08.36.18.54.28l.37.22-.36.36a15.46 15.46 0 00-4.02-1.59zm4.28 28.56l.2.2c-.2.12-.4.24-.61.35l-.63.32h-.1c-.22.11-.45.21-.68.3s-.48.2-.72.29l-.64.22h-.14l-.72.21-.22.05v-.27a15.66 15.66 0 004.26-1.67zm5.42-21.43l.26-.27a1.74 1.74 0 00-.1-.19.1.1 0 010 .07l.07.11c.11.19.22.37.32.56s.22.41.32.63a.31.31 0 01.05.1c.11.22.21.44.3.67s.2.48.29.72.15.43.22.64l.05.15c.07.24.14.47.2.72a.14.14 0 010 .06h-.28a15.91 15.91 0 00-1.7-3.97zm2 11.84a.14.14 0 010 .06c-.05.23-.12.46-.19.69l-.09.3c0 .17-.12.35-.18.52s-.18.49-.29.73a8.58 8.58 0 01-.37.82c-.18.37-.38.73-.59 1.08l-.17-.18a16.16 16.16 0 002.24-7.84v.37a16.28 16.28 0 01-.36 3.45zm.2-.72a15.46 15.46 0 00.3-2.39 13.58 13.58 0 01-.3 2.39zm.3-4.03a16.68 16.68 0 00-.29-2.37 14.48 14.48 0 01.29 2.37z" transform="translate(-176.99 -188.3)"/><path class="cls-11" d="M500.79 463.07a16.28 16.28 0 01-.37 3.45h-.18a15.94 15.94 0 00.55-3.82zm-29.6 7.7a.75.75 0 00.07.12l-.08-.11-.31-.57c.13.19.21.38.32.56zm.12-16.33a15.93 15.93 0 00-1.71 3.56c0-.16.09-.31.14-.46s.1-.31.16-.46v-.06c.08-.23.17-.45.27-.67.09-.21.18-.41.28-.62s.27-.55.42-.81.2-.38.31-.57h.05a.21.21 0 000 .06zm.35 17.07l-.16-.23c-.09-.14-.18-.28-.25-.41a5.93 5.93 0 00.41.64zm.01.02c.14.22.29.42.44.63l-.22-.32a3.46 3.46 0 01-.22-.31zm8.72-24.29l.47-.12v.43a15.38 15.38 0 00-3.81 1.51l-.25-.25c.26-.16.53-.3.79-.44.42-.22.86-.42 1.3-.6h.12l.64-.25zm-3.55 29.01a15.83 15.83 0 004 1.62v.2l-.56-.16-.45-.15a3.39 3.39 0 01-.48-.17l-.63-.24a5.65 5.65 0 01-.55-.25l-.4-.19-.48-.25-.56-.32-.1-.06.1.06zm4.92 2.03a16.4 16.4 0 002.35.29 17.14 17.14 0 01-2.35-.29zm11.01-29.08a15.46 15.46 0 00-4-1.65V447l.71.19h.05l.72.23a4.22 4.22 0 01.45.18 2.73 2.73 0 01.43.16l.57.25.54.27c.18.08.36.18.54.28l.37.22zm.41 27.11h.06-.06c-.2.13-.4.24-.61.35l-.63.32h-.1c-.22.11-.45.21-.68.3s-.48.2-.72.29l-.64.22h-.14l-.72.21-.22.06-.53.11c.18 0 .35-.08.53-.12v-.27a15.66 15.66 0 004.26-1.76zm1.94-1.38a11 11 0 001.13-1 13.51 13.51 0 01-1.13 1zm3.46-20.71a.56.56 0 00-.05-.08.6.6 0 01.09.15l.08.1.31.57c.12.21.22.41.32.63a.31.31 0 01.05.1c.11.22.21.44.3.67s.2.48.29.72.15.43.22.64l.05.15c.07.24.14.47.2.72a.14.14 0 010 .06h-.28a15.91 15.91 0 00-1.76-4l.26-.27a1.74 1.74 0 00-.08-.16zm2.04 11.58a15.46 15.46 0 00.3-2.39 13.58 13.58 0 01-.3 2.39zm.3-4.03a16.68 16.68 0 00-.29-2.37 14.48 14.48 0 01.29 2.37z" transform="translate(-176.99 -188.3)"/><path class="cls-11" d="M500.42 466.52a.14.14 0 010 .06c-.05.23-.12.46-.19.69l-.09.3c0 .17-.12.35-.18.52s-.18.49-.29.73a8.58 8.58 0 01-.37.82c-.18.37-.37.73-.59 1.09a.7.7 0 01-.1.16l.1-.17-.17-.18a16.16 16.16 0 002.24-7.84v.37a16.28 16.28 0 01-.36 3.45zm-1.72-12.13a1.74 1.74 0 00-.1-.19.56.56 0 00-.05-.08.6.6 0 01.09.15zm-27.04 17.12l-.16-.23q-.18-.26-.33-.51a.75.75 0 00.07.12 5.93 5.93 0 00.42.62zm.01.02c.14.22.29.42.44.63l-.22-.32a3.46 3.46 0 01-.22-.31zm5.08 4.81l-.1-.06zm-7.54-17.69a16 16 0 011.82-4.49l.18.18h.05a.21.21 0 000 .06l.09.09a15.93 15.93 0 00-1.75 3.51v.06q-.09.29-.15.57z" transform="translate(-176.99 -188.3)"/><path class="cls-11" d="M471.26 470.89a5.93 5.93 0 00.4.62l-.15-.21q-.18-.26-.33-.51a16 16 0 01-1.85-4.27h.1c.05.21.1.42.16.62s.11.35.17.53.09.27.14.4c.16.45.35.9.55 1.34l.18.35c.08.15.15.3.24.45s.21.38.32.56a.75.75 0 00.07.12zm9.6-23.78l.27-.07-.27.08v.43a15.38 15.38 0 00-3.81 1.51l-.25-.25-.2-.22a15.63 15.63 0 014.26-1.75zm7.86-.27a15.86 15.86 0 014.5 1.9l-.45.46a15.46 15.46 0 00-4-1.65zm11.64 11.81h-.18a15.91 15.91 0 00-1.76-4l.26-.27a15.9 15.9 0 011.68 4.27z" transform="translate(-176.99 -188.3)"/><path class="cls-11" d="M503.52 458.65h-3.34a15.91 15.91 0 00-1.76-4l.26-.27a1.74 1.74 0 00-.1-.19.56.56 0 00-.05-.08.6.6 0 01.09.15l.08.1 2.17-2.16a3.94 3.94 0 00-5.57-5.56l-2.53 2.53a15.46 15.46 0 00-4-1.65v-2.79a3.93 3.93 0 10-7.86 0v2.35l.27-.07-.27.08v.43a15.38 15.38 0 00-3.81 1.51l-.25-.25-.2-.22-2.17-2.16a3.94 3.94 0 00-5.57 5.56l2.35 2.35h.05a.21.21 0 000 .06l.09.09a15.93 15.93 0 00-1.8 3.54v.06q-.09.29-.15.57h-2.8a3.94 3.94 0 100 7.87h2.8c.05.21.1.42.16.62s.11.35.17.53.09.27.14.4c.16.45.35.9.55 1.34l.18.35c.08.15.15.3.24.45s.21.38.32.56a.75.75 0 00.07.12 5.93 5.93 0 00.4.62l-.16-.23q-.18-.26-.33-.51l-.26.26-1.71 1.71a3.91 3.91 0 00-1.15 2.77 3.93 3.93 0 006.71 2.79l2-2-.1-.06.1.06.09-.09a15.83 15.83 0 004 1.62v3.78a3.93 3.93 0 107.86 0v-3.5l-.53.11c.18 0 .35-.08.53-.12v-.27a15.66 15.66 0 004.26-1.76l.2.2h.06-.06l.24.23 1.54 1.54a3.94 3.94 0 005.56 0 3.94 3.94 0 000-5.56l-1.72-1.72-.08-.07a.7.7 0 01-.1.16l.1-.17-.17-.18a16.16 16.16 0 002.24-7.84v.37a16.28 16.28 0 01-.37 3.45h3.1a3.94 3.94 0 100-7.87zm-19.41 19.92a17.14 17.14 0 01-2.35-.29 16.4 16.4 0 002.35.29zm11-3.64a11 11 0 001.13-1 13.51 13.51 0 01-1.12 1zm5.51-15.53a14.48 14.48 0 01.29 2.37 16.68 16.68 0 00-.28-2.37zm0 6.4a15.46 15.46 0 00.3-2.39 13.58 13.58 0 01-.3 2.39z" transform="translate(-176.99 -188.3)"/><path class="cls-11" d="M471.21 454.34h.05a.21.21 0 000 .06zm21.97 21.97h.06-.06zm1.94-1.38a11 11 0 001.13-1 13.51 13.51 0 01-1.13 1zm3.6-4.2a.7.7 0 01-.1.16l.1-.17z" transform="translate(-176.99 -188.3)"/><circle class="cls-12" cx="307.37" cy="274.19" r="9.77"/><text transform="translate(289.41 383.48)" font-size="30" fill="#58595b" font-family="ArialMT,Arial">NO<tspan class="cls-7" x="45" y="0">A</tspan></text></svg>