<svg version="1.1" id="Layer_1" xmlns="http://www.w3.org/2000/svg" x="0" y="0" viewBox="0 0 610 410" xml:space="preserve"><style>.st0{opacity:.5;fill:#c4d9e8}.st1{fill:#173d7a}.st2{fill:#396caa}.st3{fill:#b2d3ea}.st4{fill:#274f89}.st5{fill:#d4ecff}.st6{fill:#fff}.st7{fill:#5793ce}.st9{fill:#721bd5}.st10{fill:#b45ef4}.st11{fill:#7e23dc}.st12{fill:#983be9}.st13{fill:#ff2c9c}.st14{fill:#6614cf}.st15{fill:#fdd762}.st16{fill:#ffc2b0}.st17{fill:#8a2ae3}.st18{fill:#ea9c92}.st20{fill:#e8a200}.st21{fill:#f2b42a}.st22{fill:#eead00}</style><path class="st0" d="M494.79 259.08l-24.94-14.51c-2.1-1.22-1.84-3.34.59-4.74l23.77-13.85c2.43-1.4 6.11-1.56 8.21-.34l24.94 14.51c2.1 1.22 1.84 3.34-.59 4.74L503 258.74c-2.43 1.4-6.11 1.55-8.21.34z"/><path class="st1" d="M528.77 228.32v-5l-26.53-.01.18-.01c-2.1-1.22-5.78-1.06-8.21.34l.79-.33-26.56-.01v5.33c-.06.82.4 1.62 1.41 2.2l24.94 14.51c2.1 1.22 5.78 1.06 8.21-.34l23.77-13.85c1.41-.8 2.08-1.85 2-2.83z"/><path class="st2" d="M498.61 222.49c-1.54.04-3.14.43-4.4 1.15l.79-.33-26.56-.01v5.33c-.06.82.4 1.62 1.41 2.2l24.94 14.51c1.01.58 2.39.85 3.81.81l.01-23.66z"/><path class="st3" d="M471.44 223.3h-3.01v5.33c-.06.82.4 1.62 1.41 2.2l1.6.92v-8.45z"/><path class="st4" d="M495.32 245.6c1.82.78 4.44.73 6.56-.07v-6.98h-6.56v7.05z"/><path class="st5" d="M494.79 240.06l-24.94-14.51c-2.1-1.22-1.84-3.34.59-4.74l23.77-13.85c2.43-1.4 6.11-1.56 8.21-.34l24.94 14.51c2.1 1.22 1.84 3.34-.59 4.74L503 239.72c-2.43 1.4-6.11 1.55-8.21.34z"/><path class="st6" d="M505.04 228.72l-16.44-9.49c-.98-.57-.98-1.48 0-2.05.98-.57 2.57-.57 3.55 0l16.44 9.49c.98.57.98 1.48 0 2.05-.98.57-2.57.57-3.55 0z"/><path class="st0" d="M245.57 158.72c-9.5 5.48-24.9 5.48-34.4 0s-9.5-14.38 0-19.86c9.5-5.48 24.9-5.48 34.4 0 9.5 5.49 9.5 14.38 0 19.86zm72.45 177.15l-153.28-88.49c-4.34-2.5-3.79-6.88 1.21-9.77l104.37-60.24c5.01-2.89 12.58-3.2 16.92-.7l153.28 88.49c4.34 2.5 3.79 6.88-1.21 9.77l-104.37 60.24c-5.01 2.89-12.59 3.2-16.92.7z"/><path class="st1" d="M479.83 102.87L323.54 12.64c-1.82-1.05-3.66-1.21-5.3-.65l.01-.02-.28.11c-.02.01-.05.02-.07.03l-5.65 2.16 5.07 2.48c-.02.09-.05.18-.07.28L291.8 132.91c-1.27 5.8 1.28 12.57 5.7 15.12l152.53 88.06-.54 6.46 6.17-2.39c2.07-.97 3.73-3.16 4.42-6.29L485.53 118c1.27-5.8-1.28-12.57-5.7-15.13z"/><path class="st2" d="M479.83 102.87L323.54 12.64c-1.82-1.05-3.66-1.21-5.3-.65l.01-.02-.28.11c-.02.01-.05.02-.07.03l-5.65 2.16 5.07 2.48c-.02.09-.05.18-.07.28L300.48 93.4l76.47 59.58 107.82-43.87c-1.04-2.69-2.76-4.98-4.94-6.24z"/><path class="st4" d="M473.94 120.69l11.9-5.07c.22-4.61-1.69-9.37-4.82-11.91l-18.83 7.92 11.75 9.06z"/><path class="st5" d="M444.05 241.94l-156.28-90.23c-4.42-2.55-6.97-9.32-5.7-15.12l25.46-115.88c1.27-5.8 5.89-8.43 10.31-5.88l156.28 90.23c4.42 2.55 6.97 9.32 5.7 15.12l-25.46 115.88c-1.27 5.8-5.89 8.43-10.31 5.88z"/><path class="st6" d="M440.66 233.32L293.68 148.5c-4.05-2.34-6.38-8.53-5.21-13.84l23.29-106.04c1.17-5.31 5.39-7.71 9.44-5.38l146.98 84.82c4.05 2.34 6.38 8.53 5.21 13.84L450.1 227.94c-1.17 5.31-5.39 7.71-9.44 5.38z"/><path class="st6" d="M440.66 233.32L293.68 148.5c-4.05-2.34-6.38-8.53-5.21-13.84l23.29-106.04c1.17-5.31 5.39-7.71 9.44-5.38l146.98 84.82c4.05 2.34 6.38 8.53 5.21 13.84L450.1 227.94c-1.17 5.31-5.39 7.71-9.44 5.38z"/><path class="st1" d="M446.21 245.87l-21.36-2.82-137.9-79.62c-4.42-2.55-12.14-2.23-17.25.72l-97.72 56.4-12.92-1.71v7.33h.01c-.08 1.69.88 3.32 2.97 4.53l156.28 90.23c4.42 2.55 12.14 2.23 17.25-.72l106.42-61.42c2.87-1.66 4.3-3.79 4.22-5.8v-7.12z"/><path class="st2" d="M342.59 195.56l-9.8-5.66H225.08l-53.1 30.64-12.92-1.71v7.33h.01c-.08 1.69.88 3.32 2.97 4.53l156.28 90.23c2.34 1.35 5.6 1.89 8.9 1.67l15.37-127.03z"/><path class="st7" d="M164.79 219.59l-5.73-.76v7.33h.01c-.08 1.69.88 3.32 2.97 4.53l2.75 1.59v-12.69z"/><path class="st4" d="M319.89 321.65c4.19 1.59 10.18 1.24 14.66-.91V304.4h-14.66v17.25z"/><path class="st5" d="M318.32 313.6l-156.28-90.23c-4.42-2.55-3.87-7.01 1.24-9.96l106.42-61.42c5.11-2.95 12.83-3.27 17.25-.72l156.28 90.23c4.42 2.55 3.87 7.01-1.24 9.96l-106.42 61.42c-5.11 2.96-12.83 3.28-17.25.72z"/><path class="st1" d="M228.5 193.5l-7.07-4.08c-.57-.33-.5-.9.16-1.28l8.35-4.82c.66-.38 1.65-.42 2.22-.09l7.07 4.08c.57.33.5.9-.16 1.28l-8.35 4.82c-.66.38-1.65.42-2.22.09zm10.92 6.3l-7.07-4.08c-.57-.33-.5-.9.16-1.28l8.35-4.82c.66-.38 1.65-.42 2.22-.09l7.07 4.08c.57.33.5.9-.16 1.28l-8.35 4.82c-.66.38-1.65.42-2.22.09zm10.92 6.31l-7.07-4.08c-.57-.33-.5-.9.16-1.28l8.35-4.82c.66-.38 1.65-.42 2.22-.09l7.07 4.08c.57.33.5.9-.16 1.28l-8.35 4.82c-.66.38-1.65.42-2.22.09zm15.11-5.21l-7.07-4.08c-.57-.33-.5-.9.16-1.28l7.01-4.05c.66-.38 1.65-.42 2.22-.09l7.07 4.08c.57.33.5.9-.16 1.28l-7.01 4.05c-.66.38-1.65.42-2.22.09zm10.92 6.31l-7.07-4.08c-.57-.33-.5-.9.16-1.28l7.01-4.05c.66-.38 1.65-.42 2.22-.09l7.07 4.08c.57.33.5.9-.16 1.28l-7.01 4.05c-.66.37-1.65.42-2.22.09zm10.92 6.3l-7.07-4.08c-.57-.33-.5-.9.16-1.28l7.01-4.05c.66-.38 1.65-.42 2.22-.09l7.07 4.08c.57.33.5.9-.16 1.28l-7.01 4.05c-.66.38-1.65.42-2.22.09zm10.92 6.31l-7.07-4.08c-.57-.33-.5-.9.16-1.28l7.01-4.05c.66-.38 1.65-.42 2.22-.09l7.07 4.08c.57.33.5.9-.16 1.28l-7.01 4.05c-.66.37-1.65.41-2.22.09zm10.92 6.3l-7.07-4.08c-.57-.33-.5-.9.16-1.28l7.01-4.05c.66-.38 1.65-.42 2.22-.09l7.07 4.08c.57.33.5.9-.16 1.28l-7.01 4.05c-.66.38-1.65.42-2.22.09zm10.92 6.31l-7.07-4.08c-.57-.33-.5-.9.16-1.28l7.01-4.05c.66-.38 1.65-.42 2.22-.09l7.07 4.08c.57.33.5.9-.16 1.28l-7.01 4.05c-.66.37-1.65.41-2.22.09zm10.92 6.3l-7.07-4.08c-.57-.33-.5-.9.16-1.28l7.01-4.05c.66-.38 1.65-.42 2.22-.09l7.07 4.08c.57.33.5.9-.16 1.28l-7.01 4.05c-.66.38-1.65.42-2.22.09zm10.92 6.31l-7.07-4.08c-.57-.33-.5-.9.16-1.28l7.01-4.05c.66-.38 1.65-.42 2.22-.09l7.07 4.08c.57.33.5.9-.16 1.28l-7.01 4.05c-.66.37-1.65.41-2.22.09zm10.92 6.3l-7.07-4.08c-.57-.33-.5-.9.16-1.28l7.01-4.05c.66-.38 1.65-.42 2.22-.09l7.07 4.08c.57.33.5.9-.16 1.28l-7.01 4.05c-.66.38-1.65.42-2.22.09zm10.92 6.31l-7.07-4.08c-.57-.33-.5-.9.16-1.28l7.01-4.05c.66-.38 1.65-.42 2.22-.09l7.07 4.08c.57.33.5.9-.16 1.28l-7.01 4.05c-.66.37-1.65.41-2.22.09z"/><path class="st2" d="M281.54 197.92l-7.07-4.08c-.57-.33-.5-.9.16-1.28l7.01-4.05c.66-.38 1.65-.42 2.22-.09l7.07 4.08c.57.33.5.9-.16 1.28l-7.01 4.05c-.66.37-1.65.42-2.22.09zm-11.09-6.4l-7.07-4.08c-.57-.33-.5-.9.16-1.28l7.01-4.05c.66-.38 1.65-.42 2.22-.09l7.07 4.08c.57.33.5.9-.16 1.28l-7.01 4.05c-.66.38-1.65.42-2.22.09z"/><path class="st1" d="M259.35 185.11l-15.23-8.79c-.57-.33-.5-.9.16-1.28l7.01-4.05c.66-.38 1.65-.42 2.22-.09l15.23 8.79c.57.33.5.9-.16 1.28l-7.01 4.05c-.66.38-1.65.42-2.22.09zm7.76-7.79l-12.36-7.14c-.57-.33-.5-.9.16-1.28l7.01-4.05c.66-.38 1.65-.42 2.22-.09l12.36 7.14c.57.33.5.9-.16 1.28l-7.01 4.05c-.66.37-1.65.41-2.22.09z"/><path class="st2" d="M292.46 204.22l-7.07-4.08c-.57-.33-.5-.9.16-1.28l7.01-4.05c.66-.38 1.65-.42 2.22-.09l7.07 4.08c.57.33.5.9-.16 1.28l-7.01 4.05c-.66.38-1.65.42-2.22.09z"/><path class="st1" d="M303.38 210.53l-7.07-4.08c-.57-.33-.5-.9.16-1.28l7.01-4.05c.66-.38 1.65-.42 2.22-.09l7.07 4.08c.57.33.5.9-.16 1.28l-7.01 4.05c-.66.37-1.65.42-2.22.09zm10.92 6.3l-7.07-4.08c-.57-.33-.5-.9.16-1.28l7.01-4.05c.66-.38 1.65-.42 2.22-.09l7.07 4.08c.57.33.5.9-.16 1.28l-7.01 4.05c-.66.38-1.65.42-2.22.09zm10.92 6.31l-7.07-4.08c-.57-.33-.5-.9.16-1.28l7.01-4.05c.66-.38 1.65-.42 2.22-.09l7.07 4.08c.57.33.5.9-.16 1.28l-7.01 4.05c-.66.37-1.65.41-2.22.09zm10.92 6.3l-7.07-4.08c-.57-.33-.5-.9.16-1.28l7.01-4.05c.66-.38 1.65-.42 2.22-.09l7.07 4.08c.57.33.5.9-.16 1.28l-7.01 4.05c-.66.38-1.65.42-2.22.09zm10.92 6.31l-7.07-4.08c-.57-.33-.5-.9.16-1.28l7.01-4.05c.66-.38 1.65-.42 2.22-.09l7.07 4.08c.57.33.5.9-.16 1.28l-7.01 4.05c-.66.37-1.65.41-2.22.09zm10.92 6.3l-7.07-4.08c-.57-.33-.5-.9.16-1.28l7.01-4.05c.66-.38 1.65-.42 2.22-.09l7.07 4.08c.57.33.5.9-.16 1.28l-7.01 4.05c-.66.38-1.65.42-2.22.09zm10.92 6.31l-7.07-4.08c-.57-.33-.5-.9.16-1.28l7.01-4.05c.66-.38 1.65-.42 2.22-.09l7.07 4.08c.57.33.5.9-.16 1.28l-7.01 4.05c-.66.37-1.65.41-2.22.09zm10.92 6.3l-7.07-4.08c-.57-.33-.5-.9.16-1.28l7.01-4.05c.66-.38 1.65-.42 2.22-.09l7.07 4.08c.57.33.5.9-.16 1.28l-7.01 4.05c-.66.38-1.65.42-2.22.09zm19.41 11.21l-15.43-8.91c-.57-.33-.5-.9.16-1.28l7.01-4.05c.66-.38 1.65-.42 2.22-.09l15.43 8.91c.57.33.5.9-.16 1.28l-7.01 4.05c-.66.38-1.65.42-2.22.09zm21.26-12.28l-13.02-7.52c-.57-.33-.5-.9.16-1.28l7.01-4.05c.66-.38 1.65-.42 2.22-.09l13.02 7.52c.57.33.5.9-.16 1.28l-7.01 4.05c-.66.38-1.65.42-2.22.09zm-108.91-50.6l-7.07-4.08c-.57-.33-.5-.9.16-1.28l7.01-4.05c.66-.38 1.65-.42 2.22-.09l7.07 4.08c.57.33.5.9-.16 1.28l-7.01 4.05c-.66.38-1.65.42-2.22.09zm-11.19-6.46l-7.07-4.08c-.57-.33-.5-.9.16-1.28l7.01-4.05c.66-.38 1.65-.42 2.22-.09l7.07 4.08c.57.33.5.9-.16 1.28l-7.01 4.05c-.66.37-1.65.42-2.22.09z"/><path class="st2" d="M289.2 190.07l-7.07-4.08c-.57-.33-.5-.9.16-1.28l7.01-4.05c.66-.38 1.65-.42 2.22-.09l7.07 4.08c.57.33.5.9-.16 1.28l-7.01 4.05c-.66.37-1.65.41-2.22.09z"/><path class="st1" d="M278.01 183.6l-7.07-4.08c-.57-.33-.5-.9.16-1.28l7.01-4.05c.66-.38 1.65-.42 2.22-.09l7.07 4.08c.57.33.5.9-.16 1.28l-7.01 4.05c-.66.38-1.66.42-2.22.09zm44.49 25.69l-7.07-4.08c-.57-.33-.5-.9.16-1.28l7.01-4.05c.66-.38 1.65-.42 2.22-.09l7.07 4.08c.57.33.5.9-.16 1.28l-7.01 4.05c-.66.38-1.65.42-2.22.09zm10.92 6.31l-7.07-4.08c-.57-.33-.5-.9.16-1.28l7.01-4.05c.66-.38 1.65-.42 2.22-.09l7.07 4.08c.57.33.5.9-.16 1.28l-7.01 4.05c-.66.38-1.65.42-2.22.09zm10.92 6.3l-7.07-4.08c-.57-.33-.5-.9.16-1.28l7.01-4.05c.66-.38 1.65-.42 2.22-.09l7.07 4.08c.57.33.5.9-.16 1.28l-7.01 4.05c-.66.38-1.65.42-2.22.09zm10.92 6.31l-7.07-4.08c-.57-.33-.5-.9.16-1.28l7.01-4.05c.66-.38 1.65-.42 2.22-.09l7.07 4.08c.57.33.5.9-.16 1.28l-7.01 4.05c-.66.37-1.65.42-2.22.09zm10.92 6.3l-7.07-4.08c-.57-.33-.5-.9.16-1.28l7.01-4.05c.66-.38 1.65-.42 2.22-.09l7.07 4.08c.57.33.5.9-.16 1.28l-7.01 4.05c-.66.38-1.65.42-2.22.09zm10.92 6.31l-7.07-4.08c-.57-.33-.5-.9.16-1.28l7.01-4.05c.66-.38 1.65-.42 2.22-.09l7.07 4.08c.57.33.5.9-.16 1.28l-7.01 4.05c-.66.37-1.65.42-2.22.09zm10.92 6.3l-7.07-4.08c-.57-.33-.5-.9.16-1.28l7.01-4.05c.66-.38 1.65-.42 2.22-.09l7.07 4.08c.57.33.5.9-.16 1.28l-7.01 4.05c-.66.38-1.65.42-2.22.09zm10.92 6.31l-7.07-4.08c-.57-.33-.5-.9.16-1.28l7.01-4.05c.66-.38 1.65-.42 2.22-.09l7.07 4.08c.57.33.5.9-.16 1.28l-7.01 4.05c-.66.37-1.65.41-2.22.09zm10.92 6.3l-7.07-4.08c-.57-.33-.5-.9.16-1.28l7.01-4.05c.66-.38 1.65-.42 2.22-.09l7.07 4.08c.57.33.5.9-.16 1.28l-7.01 4.05c-.66.38-1.65.42-2.22.09zm-104.03-72.34l-7.07-4.08c-.57-.33-.5-.9.16-1.28l7.01-4.05c.66-.38 1.65-.42 2.22-.09l7.07 4.08c.57.33.5.9-.16 1.28l-7.01 4.05c-.66.38-1.65.42-2.22.09zm-10.86-6.27l-7.07-4.08c-.57-.33-.5-.9.16-1.28l7.01-4.05c.66-.38 1.65-.42 2.22-.09l7.07 4.08c.57.33.5.9-.16 1.28l-7.01 4.05c-.67.38-1.66.42-2.22.09zm-10.87-6.27l-7.07-4.08c-.57-.33-.5-.9.16-1.28l7.01-4.05c.66-.38 1.65-.42 2.22-.09l7.07 4.08c.57.33.5.9-.16 1.28l-7.01 4.05c-.66.37-1.65.42-2.22.09zm-10.87-6.28l-7.07-4.08c-.57-.33-.5-.9.16-1.28l7.01-4.05c.66-.38 1.65-.42 2.22-.09l7.07 4.08c.57.33.5.9-.16 1.28l-7.01 4.05c-.66.38-1.65.42-2.22.09zm11.18-6.45l-7.07-4.08c-.57-.33-.5-.9.16-1.28l2.32-1.34c.66-.38 1.65-.42 2.22-.09l7.07 4.08c.57.33.5.9-.16 1.28l-2.32 1.34c-.66.38-1.66.42-2.22.09zm14.18 8.19l-7.07-4.08c-.57-.33-.5-.9.16-1.28l2.32-1.34c.66-.38 1.65-.42 2.22-.09l7.07 4.08c.57.33.5.9-.16 1.28l-2.32 1.34c-.66.38-1.66.42-2.22.09zm10.82 6.25l-7.07-4.08c-.57-.33-.5-.9.16-1.28l2.32-1.34c.66-.38 1.65-.42 2.22-.09l7.07 4.08c.57.33.5.9-.16 1.28l-2.32 1.34c-.66.37-1.65.42-2.22.09zm10.82 6.24l-7.07-4.08c-.57-.33-.5-.9.16-1.28l2.32-1.34c.66-.38 1.65-.42 2.22-.09l7.07 4.08c.57.33.5.9-.16 1.28l-2.32 1.34c-.66.38-1.65.42-2.22.09zm10.82 6.25l-7.07-4.08c-.57-.33-.5-.9.16-1.28l2.32-1.34c.66-.38 1.65-.42 2.22-.09l7.07 4.08c.57.33.5.9-.16 1.28l-2.32 1.34c-.66.38-1.65.42-2.22.09zm60.41 34.88l-7.07-4.08c-.57-.33-.5-.9.16-1.28l2.32-1.34c.66-.38 1.65-.42 2.22-.09l7.07 4.08c.57.33.5.9-.16 1.28l-2.32 1.34c-.66.38-1.65.42-2.22.09zm10.82 6.25l-7.07-4.08c-.57-.33-.5-.9.16-1.28l2.32-1.34c.66-.38 1.65-.42 2.22-.09l7.07 4.08c.57.33.5.9-.16 1.28l-2.32 1.34c-.66.37-1.65.41-2.22.09zm10.82 6.24l-7.07-4.08c-.57-.33-.5-.9.16-1.28l2.32-1.34c.66-.38 1.65-.42 2.22-.09l7.07 4.08c.57.33.5.9-.16 1.28l-2.32 1.34c-.66.38-1.65.42-2.22.09zm10.82 6.25l-7.07-4.08c-.57-.33-.5-.9.16-1.28l2.32-1.34c.66-.38 1.65-.42 2.22-.09l7.07 4.08c.57.33.5.9-.16 1.28l-2.32 1.34c-.66.38-1.65.42-2.22.09zM316.75 193.7l-7.07-4.08c-.57-.33-.5-.9.16-1.28l7.01-4.05c.66-.38 1.65-.42 2.22-.09l7.07 4.08c.57.33.5.9-.16 1.28l-7.01 4.05c-.66.38-1.65.42-2.22.09zm10.92 6.3l-7.07-4.08c-.57-.33-.5-.9.16-1.28l7.01-4.05c.66-.38 1.65-.42 2.22-.09l7.07 4.08c.57.33.5.9-.16 1.28l-7.01 4.05c-.66.38-1.65.42-2.22.09zm10.92 6.31l-7.07-4.08c-.57-.33-.5-.9.16-1.28l7.01-4.05c.66-.38 1.65-.42 2.22-.09l7.07 4.08c.57.33.5.9-.16 1.28l-7.01 4.05c-.66.38-1.65.42-2.22.09zm10.92 6.3l-7.07-4.08c-.57-.33-.5-.9.16-1.28l7.01-4.05c.66-.38 1.65-.42 2.22-.09l7.07 4.08c.57.33.5.9-.16 1.28l-7.01 4.05c-.66.38-1.65.42-2.22.09zm10.92 6.31l-7.07-4.08c-.57-.33-.5-.9.16-1.28l7.01-4.05c.66-.38 1.65-.42 2.22-.09l7.07 4.08c.57.33.5.9-.16 1.28l-7.01 4.05c-.66.38-1.65.42-2.22.09zm10.92 6.3l-7.07-4.08c-.57-.33-.5-.9.16-1.28l7.01-4.05c.66-.38 1.65-.42 2.22-.09l7.07 4.08c.57.33.5.9-.16 1.28l-7.01 4.05c-.66.38-1.65.42-2.22.09zm10.92 6.31l-7.07-4.08c-.57-.33-.5-.9.16-1.28l7.01-4.05c.66-.38 1.65-.42 2.22-.09l7.07 4.08c.57.33.5.9-.16 1.28l-7.01 4.05c-.66.37-1.65.42-2.22.09zm10.92 6.3l-7.07-4.08c-.57-.33-.5-.9.16-1.28l7.01-4.05c.66-.38 1.65-.42 2.22-.09l7.07 4.08c.57.33.5.9-.16 1.28l-7.01 4.05c-.66.38-1.65.42-2.22.09zm10.92 6.31l-7.07-4.08c-.57-.33-.5-.9.16-1.28l7.01-4.05c.66-.38 1.65-.42 2.22-.09l7.07 4.08c.57.33.5.9-.16 1.28l-7.01 4.05c-.66.37-1.65.42-2.22.09zm-149.79-49.66l-20.83-12.02c-.57-.33-.5-.9.16-1.28l7.01-4.05c.66-.38 1.65-.42 2.22-.09l20.83 12.02c.57.33.5.9-.16 1.28l-7.01 4.05c-.66.37-1.65.42-2.22.09zm134.16 77.45l-20.83-12.02c-.57-.33-.5-.9.16-1.28l7.01-4.05c.66-.38 1.65-.42 2.22-.09l20.83 12.02c.57.33.5.9-.16 1.28l-7.01 4.05c-.66.38-1.66.42-2.22.09zm-43.68-11.28l-7.07-4.08c-.57-.33-.5-.9.16-1.28l8.35-4.82c.66-.38 1.65-.42 2.22-.09l7.07 4.08c.57.33.5.9-.16 1.28l-8.35 4.82c-.66.37-1.65.41-2.22.09zm-79.3-45.79l-11.31-6.53c-.57-.33-.5-.9.16-1.28l8.35-4.82c.66-.38 1.65-.42 2.22-.09l11.31 6.53c.57.33.5.9-.16 1.28l-8.35 4.82c-.66.38-1.65.42-2.22.09zm68.78 39.71l-11.31-6.53c-.57-.33-.5-.9.16-1.28l8.35-4.82c.66-.38 1.65-.42 2.22-.09l11.31 6.53c.57.33.5.9-.16 1.28l-8.35 4.82c-.66.38-1.65.42-2.22.09zm-53.02-30.61l-11.31-6.53c-.57-.33-.5-.9.16-1.28l8.35-4.82c.66-.38 1.65-.42 2.22-.09l11.31 6.53c.57.33.5.9-.16 1.28l-8.35 4.82c-.66.37-1.65.42-2.22.09z"/><path class="st1" d="M280.75 211.28l49.17 28.39c.61.35.61.92 0 1.28l-8.51 4.91c-.61.35-1.6.35-2.21 0l-49.17-28.39 10.72-6.19zm94.57 60.8l7.88 4.55c.47.27.41.74-.13 1.05l-3.41 1.97c-.54.31-1.35.34-1.82.08l-7.88-4.55c-.47-.27-.41-.74.13-1.05l3.41-1.97c.55-.32 1.36-.35 1.82-.08zm-11.01-6.36l7.88 4.55c.47.27.41.74-.13 1.05l-3.41 1.97c-.54.31-1.35.34-1.82.08l-7.88-4.55c-.47-.27-.41-.74.13-1.05l3.41-1.97c.55-.31 1.36-.35 1.82-.08zm-10.92-6.3l7.88 4.55c.47.27.41.74-.13 1.05l-3.41 1.97c-.54.31-1.35.34-1.82.08l-7.88-4.55c-.47-.27-.41-.74.13-1.05l3.41-1.97c.55-.32 1.36-.35 1.82-.08zm16.95 2.82l7.88 4.55c.47.27.41.74-.13 1.05l-3.41 1.97c-.54.31-1.35.34-1.82.08l-7.88-4.55c-.47-.27-.41-.74.13-1.05l3.41-1.97c.55-.32 1.36-.35 1.82-.08z"/><path class="st5" d="M459.7 96.74L409.06 67.5l-45.7-19.92-8.73 36.53s-12.42 44.94 30.69 97.71c54.82 3.78 64.29-42.87 64.29-42.87l10.09-42.21z"/><path class="st1" d="M446.69 89.23l13.01 7.51 5.93-2.06-17.79-10.27-84.47-36.82-1.53 6.4z"/><path class="st2" d="M459.7 96.74l-13.01-7.51-1.35 5.66 13.01 7.51z"/><path class="st5" d="M351.48 69.11l-9.49-5.48c-.88-.51-1.4-1.77-1.16-2.81s1.15-1.48 2.03-.97l9.49 5.48c.88.51 1.4 1.77 1.16 2.81s-1.15 1.48-2.03.97zm22.61 13.05l-14-8.08c-.88-.51-1.4-1.77-1.16-2.81s1.15-1.48 2.03-.97l14 8.08c.88.51 1.4 1.77 1.16 2.81-.24 1.05-1.15 1.48-2.03.97zm-39.16 31.26l-9.49-5.48c-.88-.51-1.4-1.77-1.16-2.81s1.15-1.48 2.03-.97l9.49 5.48c.88.51 1.4 1.77 1.16 2.81s-1.15 1.48-2.03.97zm20.16 11.64l-14-8.08c-.88-.51-1.4-1.77-1.16-2.81s1.15-1.48 2.03-.97l14 8.08c.88.51 1.4 1.77 1.16 2.81s-1.15 1.48-2.03.97zm-31.61-63.14l-5.93-3.42c-.88-.51-1.4-1.77-1.16-2.81s1.15-1.48 2.03-.97l5.93 3.42c.88.51 1.4 1.77 1.16 2.81s-1.15 1.47-2.03.97zm18.27 19.53l-18.12-10.46c-.88-.51-1.4-1.77-1.16-2.81s1.15-1.48 2.03-.97l18.12 10.46c.88.51 1.4 1.77 1.16 2.81s-1.15 1.47-2.03.97zm-15.84 8.8l-5.93-3.42c-.88-.51-1.4-1.77-1.16-2.81s1.15-1.48 2.03-.97l5.93 3.42c.88.51 1.4 1.77 1.16 2.81-.24 1.05-1.15 1.48-2.03.97zm32.23 54.52l-15.84-9.15c-.88-.51-1.4-1.77-1.16-2.81s1.15-1.48 2.03-.97l15.84 9.14c.88.51 1.4 1.77 1.16 2.81-.24 1.06-1.15 1.49-2.03.98zm-38.01-39.9l-3.81-2.2c-.88-.51-1.4-1.77-1.16-2.81s1.15-1.48 2.03-.97l3.81 2.2c.88.51 1.4 1.77 1.16 2.81s-1.15 1.48-2.03.97zm-2.74 16.38l-4.73-2.73c-.88-.51-1.4-1.77-1.16-2.81s1.15-1.48 2.03-.97l4.73 2.73c.88.51 1.4 1.77 1.16 2.81s-1.15 1.47-2.03.97zm18.39 10.61l-12.46-7.2c-.88-.51-1.4-1.77-1.16-2.81s1.15-1.48 2.03-.97l12.46 7.2c.88.51 1.4 1.77 1.16 2.81-.24 1.05-1.15 1.48-2.03.97zm-15.98-.25l-8.96-5.17c-.88-.51-1.4-1.77-1.16-2.81s1.15-1.48 2.03-.97l8.96 5.17c.88.51 1.4 1.77 1.16 2.81-.24 1.05-1.15 1.48-2.03.97zm51.93 21.05l-5.75-3.32c-.88-.51-1.4-1.77-1.16-2.81s1.15-1.48 2.03-.97l5.75 3.32c.88.51 1.4 1.77 1.16 2.81s-1.15 1.48-2.03.97zm-23.76-49.67l-15.84-9.15c-.88-.51-1.4-1.77-1.16-2.81s1.15-1.48 2.03-.97l15.84 9.14c.88.51 1.4 1.77 1.16 2.81-.24 1.05-1.15 1.49-2.03.98z" opacity=".5"/><path class="st5" d="M349.41 94.85L321.8 78.91c-.88-.51-1.4-1.77-1.16-2.81s1.15-1.48 2.03-.97l27.61 15.94c.88.51 1.4 1.77 1.16 2.81s-1.15 1.47-2.03.97zm-15.42 9.05l-15.84-9.14c-.88-.51-1.4-1.77-1.16-2.81s1.15-1.48 2.03-.97l15.84 9.14c.88.51 1.4 1.77 1.16 2.81s-1.15 1.47-2.03.97zm25.99 6.02l-5.75-3.32c-.88-.51-1.4-1.77-1.16-2.81s1.15-1.48 2.03-.97l5.75 3.32c.88.51 1.4 1.77 1.16 2.81-.24 1.05-1.15 1.48-2.03.97zm56.81-3.11l-34.08-19.68c-.88-.51-1.4-1.77-1.16-2.81s1.15-1.48 2.03-.97l34.08 19.68c.88.51 1.4 1.77 1.16 2.81-.24 1.05-1.15 1.48-2.03.97zm-83.26 14.78l-19.04-10.99c-.88-.51-1.4-1.77-1.16-2.81s1.15-1.48 2.03-.97l19.04 10.99c.88.51 1.4 1.77 1.16 2.81s-1.15 1.48-2.03.97zm-.16-62.94l-14-8.08c-.88-.51-1.4-1.77-1.16-2.81s1.15-1.48 2.03-.97l14 8.08c.88.51 1.4 1.77 1.16 2.81-.24 1.05-1.15 1.48-2.03.97zm-16.07 80.5l-16.21-9.36c-.88-.51-1.4-1.77-1.16-2.81s1.15-1.48 2.03-.97l16.21 9.36c.88.51 1.4 1.77 1.16 2.81s-1.15 1.48-2.03.97z"/><path class="st9" d="M427.73 40.01c-13.23-9.5-26.98-17.44-40.99-23.67L358.97 4l-8.9 3.47s3.91 2.09 7.15 3.83l-13.18 55.17s-12.42 44.94 30.69 97.71c8.27.57 15.51-.01 21.84-1.41-.13.52-.22.87-.22.87l8.01-3.13c.74-.27 1.47-.56 2.19-.86l.17-.07h-.01c26.82-11.24 32.31-38.28 32.31-38.28l14.93-62.46-26.22-18.83z"/><path class="st9" d="M386.74 16.34L358.97 4l-8.9 3.47s3.91 2.09 7.15 3.83l-4.78 20.02 49.5 32.18 43.11-1.2 8.9-3.47-26.22-18.82c-13.23-9.5-26.97-17.43-40.99-23.67z"/><path class="st10" d="M399.83 31.11l8.95-3.42c-7.25-4.24-14.6-8.04-22.04-11.35L358.97 4l-8.9 3.47s3.91 2.09 7.15 3.83l-.28 1.18c17.33 7.59 42.89 18.63 42.89 18.63z"/><path class="st11" d="M401.72 23.72l-16.67 6.24 13.96 8.06 16.54-6.2c-4.55-2.88-9.17-5.59-13.83-8.1z"/><path class="st12" d="M430.13 124.76l14.93-62.46-26.22-18.82c-13.23-9.5-26.98-17.44-40.99-23.67L350.08 7.47l-14.93 62.46s-12.42 44.94 30.69 97.71c54.83 3.77 64.29-42.88 64.29-42.88z"/><path class="st9" d="M369.32 160.84c-19.48-24.73-25.99-47.25-27.99-61.97-2.23-16.45.51-27.02.53-27.09l13.04-54.55 20.11 8.94c13.56 6.03 26.94 13.75 39.76 22.96l22.42 16.1-13.84 57.91-.05.23c-.02.1-2.24 10.23-10.14 19.81-10.18 12.38-24.93 18.31-43.84 17.66z"/><path class="st13" d="M386.01 93.11c-.44 1.34.15 2.97 1.31 3.64s2.46.13 2.89-1.21c.44-1.34-.15-2.97-1.31-3.64-1.16-.68-2.46-.13-2.89 1.21zm-6.77-3.91c-.44 1.34.15 2.97 1.31 3.64 1.16.67 2.46.13 2.89-1.21.44-1.34-.15-2.97-1.31-3.64-1.15-.67-2.45-.13-2.89 1.21zm-6.76-3.9c-.44 1.34.15 2.97 1.31 3.64 1.16.67 2.46.13 2.89-1.21.44-1.34-.15-2.97-1.31-3.64-1.16-.67-2.45-.13-2.89 1.21z"/><path class="st5" d="M439.16 202.16c-.44 1.34.15 2.97 1.31 3.64 1.16.67 2.46.13 2.89-1.21.44-1.34-.15-2.97-1.31-3.64-1.16-.67-2.46-.13-2.89 1.21zm-6.76-3.9c-.44 1.34.15 2.97 1.31 3.64 1.16.67 2.46.13 2.89-1.21.44-1.34-.15-2.97-1.31-3.64-1.16-.67-2.46-.13-2.89 1.21zm-6.77-3.9c-.44 1.34.15 2.97 1.31 3.64 1.16.67 2.46.13 2.89-1.21.44-1.34-.15-2.97-1.31-3.64-1.15-.68-2.45-.13-2.89 1.21zm110.11 108.37l-72.65 45.05c-8.1 5-10.61 15.63-5.61 23.73l24.39 39.5h53.86V302.73z"/><ellipse class="st0" cx="144.82" cy="329.33" rx="18.6" ry="10.74"/><path class="st14" d="M134.15 197.29s.49 10 1.25 16.73c.76 6.72 16.95-5.16 16.95-5.16v-7.66l-18.2-3.91z"/><path class="st1" d="M142.77 321.77c.24.61 4.44 5.72 8.63 6.99 1.82.56 3.05.63 3.85.53.81-.1 1.3-.93 1.03-1.69-.72-2.03-2.79-6.27-8.05-8.87-7.1-3.53-5.46 3.04-5.46 3.04zm-1.4 1.96s1.58 3.71 2.07 6.81c.3 1.89-.74 4.35-1.6 5.98a1.744 1.744 0 01-2.72.47c-1.37-1.24-3.12-3.41-3.41-6.51-.49-5.23 0-6.14 0-6.14l5.66-.61z"/><path class="st15" d="M131.27 260.53s-.55 6.6 0 13.89c.55 7.3 2.51 41.42 2.87 49.63 0 0-.18 2.49 4.63 1.94 4.81-.55 4.42-3.31 4.42-3.31s6.76-.09 6.97-4.07c.21-3.98 6.92-47.56 6.92-63.23l-25.81 5.15z"/><path class="st16" d="M159.58 226.42l3.31 5.13 11.38 13.74s-.39 1.28-1.81 1.61c-1.11.26-10.68-8.87-14.81-12.88a3.173 3.173 0 01-.44-4.03l2.37-3.57z"/><path class="st17" d="M153.12 205.38s5.26-.14 7.09 7.46 3.26 17.12 1.67 17.91c-4.78 2.37-7.8-.4-7.8-.4l-.96-24.97z"/><path class="st12" d="M154.69 205.7c-.9-.37-1.9-.42-2.84-.16-4.48 1.29-21.33 6.23-24.1 8.6-3.21 2.74 4.81 18.15 4.69 23.2-.12 5.05-.69 11.01-1.13 16.5-.45 5.49-1.05 8.5 3.44 10.84 4.49 2.33 12.16 2.44 17.9-1.93 5.74-4.37 4.7-7.37 4.46-10.54-.24-3.18-2.19-16.91-2.02-20.81 0 0 2.02-1.49 3.52-4.05 1.5-2.56-1.15-7.25-2.25-10.31-1.1-3.05.62-6.55.28-9.04-.17-1.27-.99-1.9-1.95-2.3z"/><path class="st6" d="M149.31 210.95c.36 2.77-2.19 5.39-5.69 5.83-3.5.45-6.62-1.44-6.97-4.21-.36-2.77 2.19-5.39 5.69-5.83 3.49-.45 6.61 1.44 6.97 4.21z"/><path class="st16" d="M147.5 211.18c.25 1.98-1.57 3.85-4.06 4.17-2.5.32-4.73-1.03-4.98-3.01-.25-1.98 1.57-3.85 4.06-4.17 2.5-.32 4.73 1.03 4.98 3.01z"/><path class="st16" d="M145.02 204.67s-3.04-2.5-3.64-1.23c-.6 1.27-1.09 6.7-1.09 6.7l6.04 1.62-.92-5.51c.01 0 1.21-1.02-.39-1.58z"/><path class="st16" d="M154.46 198.71c-.29 4.97-4.56 8.76-9.53 8.47-4.97-.29-8.76-4.56-8.47-9.53.29-4.97 4.56-8.76 9.53-8.47 4.97.3 8.76 4.56 8.47 9.53z"/><path class="st18" d="M140.96 205.01c-.05.28-.1.59-.15.9.61 3.14 5.3 4.51 5.3 4.51l-.69-4.17s.57-.48.41-.97c-1.86-.58-4.2-1.1-4.87-.27z"/><path class="st16" d="M154.46 198.71c-.29 4.97-4.56 8.76-9.53 8.47-4.97-.29-8.76-4.56-8.47-9.53.29-4.97 4.56-8.76 9.53-8.47 4.97.3 8.76 4.56 8.47 9.53zm-31.22 37.64l1.01 24.13 3.53.36 2.3-21.72z"/><path class="st17" d="M134.83 234.33c-1.17-5.15-3.47-16.54-3.47-16.54l-.99 11.32c1.14 3.36 2.11 6.44 2.07 8.23-.07 2.96-.29 6.24-.56 9.55v.01c.01.01 4.12-7.42 2.95-12.57z"/><path class="st10" d="M128.43 213.65s-2.82 1.08-4.42 9.74-2.79 17.34.06 18.46c2.85 1.12 5.22 1.96 6.06-.36.84-2.32 1.36-13.48 1.46-17.5.1-4.01.26-9.55-3.16-10.34z"/><path class="st16" d="M173.42 244.29s1.53.56 2.63 1.76c.91.99 1.4 1.82 1.8 2.41.88 1.31 1.62 4.14 1.08 4.5-.54.35-3.6-4.74-4.09-3.56-.49 1.19 0 2.28-.63 2.3-.63.02-2.84-5.12-4.57-6.72-1.72-1.59 3.78-.69 3.78-.69z"/><path d="M143.19 322.68s.84-.01 1.93-.2l1.32-53.04-3.25 53.24z" fill="#d8892b"/><path class="st16" d="M124.28 260.28s-.93 5.63-.79 7.44c.14 1.8 1.11 4.78 1.84 4.72.73-.06.02-7.25 1.31-6.54 1.29.72 1.42 1.94 2 1.51.58-.43-1.02-6.58-.59-9.25.43-2.67-3.77 2.12-3.77 2.12z"/><path class="st18" d="M148.92 198.97c4.52 1.61 5.4.63 5.45.57a8.856 8.856 0 00-.21-3.71l-11.73-1.58c-.01 0 1.85 3.07 6.49 4.72z"/><path class="st14" d="M154.78 189.73c-1.07-.91-4.91-5.43-11.8-4.37-4.31.67-7.94 3.6-8.74 10.31-.54 4.52 1.11 8.96 4.17 12.25.17-.08.34-.15.49-.25 1.73-1.14 1.91-1.76 1.91-1.77l.38-3.42c-.01-.49-.38-.92-.86-.95-.37-.02-.83-.2-1.26-.77-.99-1.29-.53-3.31 1.45-3.39 1.03-.04 1.43-.6 1.58-1.12.13-.46.61-.71 1.06-.55 2.25.82 7.8 2.57 11.37 1.56 4.56-1.29 1.32-6.62.25-7.53z"/><path class="st6" d="M149.65 203.04l2.76-.76s-1.32 2.07-3.24 2.6c-1.92.53-2.22-1.1-2.22-1.1l2.7-.74z"/><path class="st0" d="M201.85 372.71l-27.39-15.81c-1.68-.97-1.47-2.67.47-3.79l26.44-15.27c1.94-1.12 4.88-1.24 6.56-.27l27.39 15.81c1.68.97 1.47 2.67-.47 3.79l-26.44 15.27c-1.94 1.12-4.88 1.24-6.56.27z"/><path class="st9" d="M244.41 341.34v-11.83l-26.53-.01-9.17-5.3c-2.1-1.22-5.78-1.06-8.21.34l-8.56 4.94-26.56-.01v12.17c-.06.82.4 1.62 1.41 2.2l34.29 19.8c2.1 1.22 5.78 1.06 8.21-.34l33.11-19.12c1.41-.81 2.09-1.86 2.01-2.84z"/><path class="st12" d="M204.89 323.39c-1.54.04-3.14.43-4.4 1.15l-8.56 4.94-26.56-.01v12.17c-.06.82.4 1.62 1.41 2.2l34.29 19.8c1.01.58 2.39.85 3.81.81v-41.06z"/><path class="st10" d="M168.38 329.47h-3.01v12.17c-.06.82.4 1.62 1.41 2.2l1.6.92v-15.29z"/><path class="st11" d="M201.61 363.9c1.82.78 4.44.73 6.56-.07V350h-6.56v13.9z"/><path class="st17" d="M201.08 351.51l-34.29-19.8c-2.1-1.22-1.84-3.34.59-4.74l33.11-19.12c2.43-1.4 6.11-1.56 8.21-.34l34.29 19.8c2.1 1.22 1.84 3.34-.59 4.74l-33.11 19.12c-2.43 1.4-6.1 1.56-8.21.34z"/><path class="st14" d="M201.7 347.95l-28.74-16.59c-1.76-1.02-1.54-2.8.49-3.97l27.75-16.02c2.04-1.18 5.12-1.3 6.88-.29l28.74 16.59c1.76 1.02 1.54 2.8-.49 3.97l-27.75 16.02c-2.04 1.18-5.12 1.31-6.88.29z"/><path class="st13" d="M231.79 344.47c0 .88-.62 1.96-1.39 2.4-.77.44-1.39.08-1.39-.8s.62-1.96 1.39-2.4c.77-.44 1.39-.09 1.39.8zm4.46-2.58c0 .88-.62 1.96-1.39 2.4-.77.44-1.39.08-1.39-.8s.62-1.96 1.39-2.4c.77-.44 1.39-.08 1.39.8zm4.46-2.57c0 .88-.62 1.96-1.39 2.4-.76.44-1.39.08-1.39-.8s.62-1.96 1.39-2.4c.77-.44 1.39-.08 1.39.8z"/><path class="st9" d="M244.41 322.15v-11.83l-26.53-.01-9.17-5.3c-2.1-1.22-5.78-1.06-8.21.34l-8.56 4.94-26.56-.01v12.17c-.06.82.4 1.62 1.41 2.2l34.29 19.8c2.1 1.22 5.78 1.06 8.21-.34l33.11-19.12c1.41-.81 2.09-1.86 2.01-2.84z"/><path class="st12" d="M204.89 304.2c-1.54.04-3.14.43-4.4 1.15l-8.56 4.94-26.56-.01v12.17c-.06.82.4 1.62 1.41 2.2l34.29 19.8c1.01.58 2.39.85 3.81.81V304.2z"/><path class="st10" d="M168.38 310.28h-3.01v12.17c-.06.82.4 1.62 1.41 2.2l1.6.92v-15.29z"/><path class="st11" d="M201.61 344.71c1.82.78 4.44.73 6.56-.08v-13.82h-6.56v13.9z"/><path class="st17" d="M201.08 332.32l-34.29-19.8c-2.1-1.22-1.84-3.34.59-4.74l33.11-19.12c2.43-1.4 6.11-1.56 8.21-.34l34.29 19.8c2.1 1.22 1.84 3.34-.59 4.74l-33.11 19.12c-2.43 1.4-6.1 1.56-8.21.34z"/><path class="st14" d="M201.7 328.76l-28.74-16.59c-1.76-1.02-1.54-2.8.49-3.97l27.75-16.02c2.04-1.18 5.12-1.3 6.88-.29l28.74 16.59c1.76 1.02 1.54 2.8-.49 3.97l-27.75 16.02c-2.04 1.18-5.12 1.31-6.88.29z"/><path class="st13" d="M231.79 325.28c0 .88-.62 1.96-1.39 2.4-.77.44-1.39.08-1.39-.8s.62-1.96 1.39-2.4c.77-.44 1.39-.09 1.39.8zm4.46-2.58c0 .88-.62 1.96-1.39 2.4-.77.44-1.39.08-1.39-.8s.62-1.96 1.39-2.4c.77-.44 1.39-.08 1.39.8zm4.46-2.57c0 .88-.62 1.96-1.39 2.4-.76.44-1.39.08-1.39-.8s.62-1.96 1.39-2.4c.77-.44 1.39-.08 1.39.8z"/><path class="st9" d="M244.41 302.96v-11.83l-26.53-.01-9.17-5.3c-2.1-1.22-5.78-1.06-8.21.34l-8.56 4.94-26.56-.01v12.17c-.06.82.4 1.62 1.41 2.2l34.29 19.8c2.1 1.22 5.78 1.06 8.21-.34l33.11-19.12c1.41-.81 2.09-1.86 2.01-2.84z"/><path class="st12" d="M204.89 285.01c-1.54.04-3.14.43-4.4 1.15l-8.56 4.94-26.56-.01v12.17c-.06.82.4 1.62 1.41 2.2l34.29 19.8c1.01.58 2.39.85 3.81.81v-41.06z"/><path class="st10" d="M168.38 291.09h-3.01v12.17c-.06.82.4 1.62 1.41 2.2l1.6.92v-15.29z"/><path class="st11" d="M201.61 325.51c1.82.78 4.44.73 6.56-.07v-13.82h-6.56v13.89z"/><path class="st17" d="M201.08 313.13l-34.29-19.8c-2.1-1.22-1.84-3.34.59-4.74l33.11-19.12c2.43-1.4 6.11-1.56 8.21-.34l34.29 19.8c2.1 1.22 1.84 3.34-.59 4.74l-33.11 19.12c-2.43 1.4-6.1 1.56-8.21.34z"/><path class="st10" d="M242.41 291.34l-33.11 19.12c-2.43 1.4-6.11 1.56-8.21.34l-34.3-19.8c-.47-.27-.81-.59-1.05-.93-.72 1.16-.4 2.43 1.05 3.26l34.29 19.8c2.1 1.22 5.78 1.06 8.21-.34l33.11-19.12c1.89-1.09 2.46-2.61 1.64-3.81-.32.53-.87 1.04-1.63 1.48z"/><path class="st13" d="M231.79 306.09c0 .88-.62 1.96-1.39 2.4-.77.44-1.39.08-1.39-.8s.62-1.96 1.39-2.4c.77-.45 1.39-.09 1.39.8zm4.46-2.58c0 .88-.62 1.96-1.39 2.4-.77.44-1.39.08-1.39-.8s.62-1.96 1.39-2.4c.77-.44 1.39-.08 1.39.8zm4.46-2.57c0 .88-.62 1.96-1.39 2.4-.76.44-1.39.08-1.39-.8s.62-1.96 1.39-2.4c.77-.44 1.39-.08 1.39.8z"/><path class="st14" d="M203.11 301.38l-16.05-9.27c-.98-.57-.86-1.56.28-2.22l15.5-8.95c1.14-.66 2.86-.73 3.84-.16l16.05 9.27c.98.57.86 1.56-.28 2.22l-15.5 8.95c-1.13.66-2.85.73-3.84.16z"/><path class="st13" d="M204.65 293.62l-2.22-1.28c-.14-.08-.12-.22.04-.31l2.14-1.24c.16-.09.4-.1.53-.02l2.22 1.28c.14.08.12.22-.04.31l-2.14 1.24c-.16.09-.4.1-.53.02z"/><path class="st10" d="M187.06 292.12l.05.03c.07-.05.14-.11.23-.16l15.5-8.95c1.14-.66 2.86-.73 3.84-.16l16 9.24c.91-.65.96-1.53.05-2.06l-16.05-9.27c-.98-.57-2.71-.5-3.84.16l-15.5 8.95c-1.14.65-1.26 1.65-.28 2.22z"/><path class="st14" d="M190.83 334.82l-13.88-8.02c-.86-.49-1.55-1.82-1.55-2.96s.69-1.67 1.55-1.17l13.88 8.02c.86.49 1.55 1.82 1.55 2.96s-.69 1.67-1.55 1.17z"/><path class="st10" d="M192.07 334.06l-13.88-8.02c-.86-.49-1.55-1.82-1.55-2.96 0-.19.03-.36.06-.52-.74-.27-1.3.25-1.3 1.28 0 1.14.69 2.47 1.55 2.96l13.88 8.02c.71.41 1.3.11 1.49-.66-.08-.02-.16-.05-.25-.1z"/><path class="st12" d="M197.4 224.86l-3.58-2.04v.01c-.32-.26-.77-.28-1.27.01l-24.51 14.15c-.98.56-1.77 2.08-1.77 3.38v41.02c0 2.24 1.2 4.3 3.13 5.41l.55.31.36-4.44 24.01-13.86v-43.29l.47 2.56 2.61-3.22z"/><path class="st17" d="M193.82 222.82c-.32-.26-.77-.28-1.27.01l-24.51 14.15c-.57.33-1.08.99-1.4 1.74l27.68 15.98v-29.19l.47 2.56 2.61-3.21-3.58-2.04z"/><path class="st10" d="M171.76 243.26l2.77-1.6-7.15-4.13c-.59.66-1.02 1.64-1.09 2.57l5.47 3.16z"/><path class="st9" d="M197.99 270.91l-28.05 16.19v-44.64c0-1.3.79-2.81 1.77-3.38l24.51-14.15c.98-.56 1.77.03 1.77 1.34v44.64z"/><path class="st10" d="M181.12 281.88c0 .79-.55 1.11-1.23.71-.68-.39-1.23-1.35-1.23-2.14s.55-1.11 1.23-.71c.68.4 1.23 1.36 1.23 2.14z"/><path class="st10" d="M174.88 282.05l4.1-2.37 1.82 2.97-4.11 2.38z"/><path class="st12" d="M177.05 284.23c0 .79-.55 1.11-1.23.71-.68-.39-1.23-1.35-1.23-2.14s.55-1.11 1.23-.71c.67.4 1.23 1.36 1.23 2.14z"/><path class="st9" d="M176.45 283.89c0 .41-.29.57-.64.37-.35-.2-.64-.7-.64-1.1 0-.41.28-.57.64-.37.35.2.64.69.64 1.1z"/><path class="st10" d="M195.47 273.78c0 .79-.55 1.11-1.23.71-.68-.39-1.23-1.35-1.23-2.14s.55-1.11 1.23-.71c.68.4 1.23 1.35 1.23 2.14z"/><path class="st10" d="M189.23 273.95l4.1-2.37 1.82 2.97-4.11 2.38z"/><path class="st12" d="M191.4 276.13c0 .79-.55 1.11-1.23.71-.68-.39-1.23-1.35-1.23-2.14s.55-1.11 1.23-.71c.67.4 1.23 1.36 1.23 2.14z"/><path class="st9" d="M190.8 275.79c0 .41-.28.57-.64.37-.35-.2-.64-.7-.64-1.1 0-.41.28-.57.64-.37.35.2.64.69.64 1.1z"/><path class="st0" d="M434.73 343.05l-20.34-11.75c-1.25-.72-1.09-1.98.35-2.81l19.64-11.34c1.44-.83 3.62-.92 4.87-.2l20.34 11.75c1.25.72 1.09 1.98-.35 2.81l-19.64 11.34c-1.44.83-3.63.92-4.87.2z"/><path class="st9" d="M476.71 307.81v-11.83l-26.53-.01-9.17-5.3c-2.1-1.22-5.78-1.06-8.21.34l-8.56 4.94-26.56-.01v12.17c-.06.82.4 1.62 1.41 2.2l34.29 19.8c2.1 1.22 5.78 1.06 8.21-.34l33.11-19.12c1.42-.82 2.09-1.87 2.01-2.84z"/><path class="st12" d="M437.2 289.85c-1.54.04-3.14.43-4.4 1.15l-8.56 4.94-26.56-.01v12.17c-.06.82.4 1.62 1.41 2.2l34.29 19.8c1.01.58 2.39.85 3.81.81v-41.06z"/><path class="st10" d="M400.69 295.93h-3.01v12.17c-.06.82.4 1.62 1.41 2.2l1.6.92v-15.29z"/><path class="st11" d="M433.92 330.36c1.82.78 4.44.73 6.56-.08v-13.82h-6.56v13.9z"/><path class="st17" d="M433.39 317.97l-34.29-19.8c-2.1-1.22-1.84-3.34.59-4.74l33.11-19.12c2.43-1.4 6.11-1.56 8.21-.34l34.29 19.8c2.1 1.22 1.84 3.34-.59 4.74l-33.11 19.12c-2.43 1.41-6.11 1.56-8.21.34z"/><path class="st13" d="M464.1 310.93c0 .88-.62 1.96-1.39 2.4-.76.44-1.39.08-1.39-.8s.62-1.96 1.39-2.4c.77-.44 1.39-.08 1.39.8zm4.46-2.57c0 .88-.62 1.96-1.39 2.4-.76.44-1.39.08-1.39-.8s.62-1.96 1.39-2.4c.77-.45 1.39-.09 1.39.8zm4.45-2.58c0 .88-.62 1.96-1.39 2.4-.77.44-1.39.08-1.39-.8s.62-1.96 1.39-2.4c.77-.44 1.39-.08 1.39.8z"/><path class="st9" d="M419.88 310.17l13.51 7.8c2.1 1.22 5.78 1.06 8.21-.34l24.03-13.88.15-.18-19.39-10.74-26.51 17.34zm5.55 3.21v12.13l-5.02-2.86-2.3-11.76 3.93.53zm-16.32 2.7l1.22.7 2.38-11.36-1.49-.64-4.55 1.55z"/><ellipse class="st0" cx="410.31" cy="347.39" rx="19.71" ry="11.38"/><path class="st1" d="M419.64 341.9s-3.08-1.55-4.97.76-4.59 7.77-4.68 11.46c-.08 3.69 2.92 3.44 4.7 2.57 1.78-.87 7-8.44 7.31-9.92.32-1.48-.37-3.49-.87-3.88-.49-.39-1.49-.99-1.49-.99z"/><path class="st20" d="M420.32 341.16l.14 3.19c.03.68-.31 1.32-.9 1.66-.54.31-1.32.54-2.38.37-2.32-.37-2.53-1.04-2.69-4.23-.17-3.19 5.83-.99 5.83-.99z"/><path class="st1" d="M408.37 335.76s-3.08-1.55-4.97.76c-1.89 2.31-4.59 7.77-4.68 11.46-.08 3.69 2.92 3.44 4.7 2.57 1.78-.87 7-8.44 7.31-9.92.32-1.48-.37-3.49-.87-3.88-.49-.39-1.49-.99-1.49-.99z"/><path class="st20" d="M409.04 335.02l.14 3.19c.03.68-.31 1.32-.9 1.66-.54.31-1.32.54-2.38.37-2.32-.37-2.53-1.04-2.69-4.23-.16-3.18 5.83-.99 5.83-.99z"/><path class="st15" d="M436.52 276.45c-.91-14.83-16.06 2.18-16.06 2.18l-10.37 10.16-9.34 10.26a9.22 9.22 0 00-2.32 7.39l3.78 28.76c.19 1.42 1.4 2.47 2.83 2.46.4 0 .87-.04 1.4-.12 3.37-.52 3.12-3.73 3.12-3.73l-.69-26.9 19.61-11.82s8.95-3.81 8.04-18.64z"/><path class="st15" d="M447.79 282.1c-.91-14.83-16.06 2.18-16.06 2.18l-10.37 10.16-9.34 10.26a9.22 9.22 0 00-2.32 7.39l3.78 28.76c.19 1.42 1.4 2.47 2.83 2.46.4 0 .87-.04 1.4-.12 3.37-.52 3.12-3.73 3.12-3.73l-.69-26.9 19.61-11.82c.01 0 8.95-3.81 8.04-18.64z"/><path class="st12" d="M438.83 234.5c11.48 4.76 11.25 11.55 11.25 11.55s-2.25 24.89-1.48 41.51c.32 6.95-36.92 7.48-31.36-11.06 6.55-21.86 4.09-39.55 7.16-42.22 3.06-2.67 11.46-1.02 14.43.22z"/><circle transform="rotate(-59.496 434.498 226.286)" class="st16" cx="434.5" cy="226.29" r="8.84"/><path class="st16" d="M442.53 240.52c-.6 2.33-3.66 3.56-6.82 2.74-3.17-.82-5.25-3.37-4.65-5.7.6-2.33 3.66-3.56 6.82-2.74 3.17.81 5.25 3.36 4.65 5.7z"/><path class="st16" d="M434.23 233.98s.1.46-.1 4.1c-.06 1.14 3.94 2.21 4.98 1.18 1.04-1.04.62-2.11.87-6.01.24-3.89-5.75.73-5.75.73z"/><path class="st13" d="M427.29 227.16s4.24-1.8 7.96-1.05c.87.18 1.68.64 2.25 1.34.18.23.42.43.68.49.66.15 1.74-2.59 3.02-2.65 1.28-.06 2.14.85 1.09 2.53-1.05 1.68-.7 3.57-.21 3.84s5.61-3.66 1.09-12.62-16.02-4.14-17.81-2.32c0 0-1.88 1.64-3.42.18-.01-.01-1.72 12.86 5.35 10.26z"/><path class="st16" d="M443.64 264.23v6.73c0 .77-.32 1.51-.89 2.02l-13.82 12.6 1.57 2.4 18.24-13.23c.85-.62 1.4-1.57 1.51-2.61l1.23-11.73-7.84 3.82z"/><path class="st12" d="M449.11 242.68s4.19 6.3 5.75 22.9c0 0-7.16 2.32-11.22 1-4.06-1.31 5.47-23.9 5.47-23.9z"/><path class="st14" d="M442.88 250.65s-1.64 8.78-1.73 12.91c-.03 1.13.67 2.16 1.73 2.54v-15.45z"/><path class="st1" d="M439.29 294.32l-3.05-.4-19.71-11.38c-.63-.36-1.74-.32-2.47.1l-13.97 8.06-1.85-.24v1.84c-.01.24.13.48.42.65l22.34 12.9c.63.36 1.74.32 2.47-.1l15.21-8.78c.41-.24.62-.54.6-.83v-1.82z"/><path class="st2" d="M424.48 287.13l-1.4-.81h-15.4l-7.59 4.38-1.85-.24v1.84c-.01.24.13.48.42.65l22.34 12.9c.33.19.8.27 1.27.24l2.21-18.96z"/><path class="st7" d="M399.07 290.57l-.82-.11v1.84c-.01.24.13.48.42.65l.39.23v-2.61z"/><path class="st4" d="M421.24 305.94c.6.23 1.46.18 2.09-.13v-3.13h-2.09v3.26z"/><path class="st6" d="M421.01 304l-22.34-12.9c-.63-.36-.55-1 .18-1.42l15.21-8.78c.73-.42 1.83-.47 2.47-.1l22.34 12.9c.63.36.55 1-.18 1.42l-15.21 8.78c-.73.42-1.83.47-2.47.1z"/><path class="st5" d="M420.64 302.05l-18.57-10.72c-.53-.3-.46-.83.15-1.18l8.15-4.58c.61-.35 1.52-.39 2.05-.08l18.57 10.72c.53.3.46.83-.15 1.18l-8.15 4.58c-.61.34-1.53.38-2.05.08z"/><path class="st16" d="M414.93 280.48l-.23 1.54c-.2 1.31-.16 2.65.1 3.95l.28 1.36c.16.77.76 1.36 1.53 1.5.6.11 1.17-.31 1.24-.92l.37-3.3s.84 1.1 1.25 1.1-.46-3.3-1.38-5.17c-.93-1.85-3.16-.06-3.16-.06z"/><path class="st16" d="M422.5 255.98l-2.4 4.74c-.57 1.12-.9 2.35-.98 3.6l-1.04 16.23-3.15-.07-1.43-18.22c-.04-.56-.02-1.13.08-1.68l1.63-9.24 7.29 4.64z"/><path class="st1" d="M420.44 305.15l-1.87-2.45-19.7-11.4c-.63-.37-1.14-1.35-1.14-2.19l.02-16.13-1.13-1.48 1.06-.62c.2-.13.47-.13.77.04l22.32 12.92c.63.37 1.14 1.35 1.14 2.19l-.02 17.56c0 .47-.16.8-.42.94l-1.03.62z"/><path class="st2" d="M406.82 295.9l-1.4-.81-7.68-13.34.01-8.76-1.13-1.48 1.06-.62c.2-.13.47-.13.77.04l22.32 12.92c.33.19.63.56.84.98l-14.79 11.07z"/><path class="st7" d="M397.11 272.17l-.5-.66 1.06-.62c.2-.13.47-.13.77.04l.39.23-1.72 1.01z"/><path class="st4" d="M420.97 284.01c.5.41.88 1.17.93 1.88l-2.18 1.26-1.05-1.82 2.3-1.32z"/><path class="st6" d="M419.71 284.48l-22.32-12.92c-.63-.37-1.14.02-1.15.86l-.02 17.56c0 .84.51 1.82 1.14 2.19l22.32 12.92c.63.37 1.14-.02 1.15-.86l.02-17.56c0-.85-.51-1.83-1.14-2.19z"/><path class="st16" d="M430.5 287.98l-.36.74a4.98 4.98 0 01-1.87 2.07l-2.22 1.37c-.69.43-1.56.46-2.26.05-.03-.01-.05-.03-.08-.05-.7-.44-.77-1.45-.19-2.05l2.32-2.38s-1.3 1-1.67.6c-.27-.29 1.26-1.73 2.44-1.78 1.17-.05 2.31-.97 2.31-.97l1.58 2.4z"/><path class="st12" d="M424.63 234.24s-8.49 9.24-11.92 17.72c0 0 2.9 5.23 10.01 7.29 7.11 2.05 1.91-25.01 1.91-25.01z"/><path class="st14" d="M421.12 258.7l1.38-13.3-3.24 12.46c.57.3 1.2.58 1.86.84z"/><path class="st6" d="M430.99 232.38l-2.28-.63s1.09 1.71 2.68 2.15c1.59.44 1.84-.91 1.84-.91l-2.24-.61z"/><path class="st3" d="M264.56 224.9c-11.6-6.7-30.4-6.7-41.99 0-11.6 6.69-11.6 17.55 0 24.24 11.6 6.7 30.4 6.7 41.99 0 11.6-6.69 11.6-17.54 0-24.24zm-21.72 12.35c-2.98 1.72-7.82 1.72-10.8 0-2.98-1.72-2.98-4.51 0-6.24 2.98-1.72 7.82-1.72 10.8 0 2.99 1.73 2.99 4.52 0 6.24z"/><path class="st3" d="M270.82 243.77c-1.55 1.54-3.46 2.99-5.75 4.31s-4.8 2.42-7.47 3.32l5.68 3.28 8.55.44 4.23 2.44-1.73 1 3.2 1.85 3.45-1.99 5.6 3.23-5.62 3.25 4.13 2.39 4.01 2.31 5-2.88 7.4 4.27-2.83 1.63 4.76 2.75 2.83-1.63 2.23 1.29-2.25 4.47 7.19 4.15h26.44l-69.05-39.88z"/><path class="st20" d="M273.26 234.67v-8.03l-2.37 1.34c-1.45-1.97-3.55-3.81-6.33-5.42-11.6-6.7-30.4-6.7-41.99 0-3.22 1.86-5.54 4.03-6.97 6.35l-1.73-2.27v8.03c-.01 4.39 2.89 8.78 8.7 12.14 11.6 6.7 30.4 6.7 41.99 0 5.8-3.36 8.7-7.75 8.7-12.14zm-30.52-5.24c-2.98 1.72-7.82 1.72-10.8 0-2.98-1.72-2.98-4.51 0-6.24 2.98-1.72 7.82-1.72 10.8 0 2.98 1.73 2.98 4.52 0 6.24z"/><path class="st15" d="M241.08 241l-12.81-6.32-11.39-7.52c-.48.57-.91 1.16-1.28 1.75l-1.73-2.27v8.03c-.01 4.39 2.89 8.78 8.7 12.14 5.17 2.98 11.76 4.63 18.51 4.96V241z"/><path class="st15" d="M264.56 214.52c-11.6-6.7-30.4-6.7-41.99 0-11.6 6.69-11.6 17.55 0 24.24 11.6 6.7 30.4 6.7 41.99 0 11.6-6.69 11.6-17.55 0-24.24zm-21.72 12.35c-2.98 1.72-7.82 1.72-10.8 0-2.98-1.72-2.98-4.51 0-6.24 2.98-1.72 7.82-1.72 10.8 0 2.99 1.72 2.99 4.52 0 6.24z"/><path class="st20" d="M248.67 218.76h-16.12c-1.47.34-2.91.75-4.29 1.23v13.66h20.41v-14.89zm-5.93 10.67c-2.98 1.72-7.82 1.72-10.8 0-2.98-1.72-2.98-4.51 0-6.24 2.98-1.72 7.82-1.72 10.8 0 2.98 1.73 2.98 4.52 0 6.24z"/><path class="st21" d="M262.07 215.95c-10.22-5.9-26.79-5.9-37.01 0-10.22 5.9-10.22 15.47 0 21.37s26.79 5.9 37.01 0c10.22-5.9 10.22-15.46 0-21.37zm-19.23 10.92c-2.98 1.72-7.82 1.72-10.8 0-2.98-1.72-2.98-4.51 0-6.24 2.98-1.72 7.82-1.72 10.8 0 2.99 1.72 2.99 4.52 0 6.24z"/><path class="st20" d="M225.06 218.17c10.22-5.9 26.79-5.9 37.01 0 4.62 2.67 7.15 6.09 7.59 9.58.54-4.23-1.99-8.56-7.59-11.79-10.22-5.9-26.79-5.9-37.01 0-5.6 3.23-8.12 7.57-7.59 11.79.44-3.49 2.96-6.91 7.59-9.58z"/><path class="st21" d="M270.82 241.36c-1.55 1.54-3.46 2.99-5.75 4.31-2.29 1.32-4.8 2.42-7.47 3.32l5.68 3.28 8.55.44 4.23 2.44-1.73 1 3.2 1.85 3.45-1.99 5.6 3.23-5.62 3.25 4.13 2.39 4.01 2.31 5-2.88 7.4 4.27-2.83 1.63 4.76 2.75 2.83-1.63 2.23 1.29-2.25 4.47 7.19 4.15h26.44l-69.05-39.88z"/><path class="st15" d="M270.82 235.56c-1.55 1.54-3.46 2.99-5.75 4.31s-4.8 2.42-7.47 3.32l5.68 3.28 8.55.44 4.23 2.44-1.73 1 3.2 1.85 3.45-1.99 5.6 3.23-5.62 3.25 4.13 2.39 4.01 2.31 5-2.88 7.4 4.27-2.83 1.63 4.76 2.75 2.83-1.63 2.23 1.29-2.25 4.47 7.19 4.15h26.44l-69.05-39.88z"/><path class="st20" d="M313.45 275.43h26.44v5.8h-26.44zm-10.01-2.48v-5.8l2.83-1.63v5.8z"/><path class="st22" d="M298.69 264.41v5.8l4.75 2.74v-5.8z"/><path class="st20" d="M294.11 258.5v5.8l-4.99 2.89v-5.8z"/><path class="st22" d="M280.97 256.68v5.81l8.15 4.7v-5.8zm25.3 14.64l-.02 5.76 7.2 4.16v-5.81zm-28.72-19.12v5.8l-3.21-1.85v-5.8z"/><path class="st20" d="M263.28 246.47v5.8l8.56.44v-5.8zm58.56 24.85l-50.56-29.21 2.81-1.63 53.34 30.82z"/><path class="st21" d="M274.09 241.89l50.92 29.42 2.42-.01-53.34-30.82-2.81 1.63 1.22.7z"/><path class="st20" d="M263.28 252.27v-5.8l-5.67-3.28V249zm17.72-2.06v5.8l-3.45 1.99v-5.8z"/><path class="st15" d="M262.07 215.95c-5.74-3.32-13.49-4.77-20.99-4.36v2.22c7.5-.41 15.25 1.04 20.99 4.36 4.62 2.67 7.15 6.09 7.59 9.58.53-4.23-1.99-8.56-7.59-11.8z"/><path class="st13" d="M186.69 256.77l.01-2.56c0-.16-.13-.21-.28-.12l-2.15 1.23c-.16.09-.29.29-.29.45l-.01 2.56c0 .16.13.21.28.12l2.15-1.23c.16-.09.29-.29.29-.45z"/><path class="st0" d="M282.58 396.47l-24.94-14.51c-2.1-1.22-1.84-3.34.59-4.74L282 363.36c2.43-1.4 6.11-1.56 8.21-.34l24.94 14.51c2.1 1.22 1.84 3.34-.59 4.74l-23.77 13.85c-2.43 1.41-6.11 1.56-8.21.35z"/><path class="st1" d="M316.56 365.71v-5l-26.53-.01.18-.01c-2.1-1.22-5.78-1.06-8.21.34l.79-.33-26.56-.01v5.33c-.06.82.4 1.62 1.41 2.2l24.94 14.51c2.1 1.22 5.78 1.06 8.21-.34l23.77-13.85c1.4-.81 2.08-1.85 2-2.83z"/><path class="st2" d="M286.4 359.88c-1.54.04-3.14.43-4.4 1.15l.79-.33-26.56-.01v5.33c-.06.82.4 1.62 1.41 2.2l24.94 14.51c1.01.58 2.39.85 3.81.81l.01-23.66z"/><path class="st3" d="M259.23 360.69h-3.01v5.33c-.06.82.4 1.62 1.41 2.2l1.6.92v-8.45z"/><path class="st4" d="M283.1 382.99c1.82.78 4.44.73 6.56-.08v-6.98h-6.56v7.06z"/><path class="st5" d="M282.58 377.45l-24.94-14.51c-2.1-1.22-1.84-3.34.59-4.74L282 344.34c2.43-1.4 6.11-1.56 8.21-.34l24.94 14.51c2.1 1.22 1.84 3.34-.59 4.74l-23.77 13.85c-2.43 1.41-6.11 1.56-8.21.35z"/><path class="st6" d="M276.39 366.11c-.98-.57-.98-1.48 0-2.05l16.44-9.49c.98-.57 2.57-.57 3.55 0s.98 1.48 0 2.05l-16.44 9.49c-.98.57-2.57.57-3.55 0z"/><path class="st6" d="M292.83 366.11l-16.44-9.49c-.98-.57-.98-1.48 0-2.05.98-.57 2.57-.57 3.55 0l16.44 9.49c.98.57.98 1.48 0 2.05-.98.57-2.57.57-3.55 0z"/><path class="st0" d="M166.29 103.12l-24.94-14.51c-2.1-1.22-1.84-3.34.59-4.74l23.77-13.85c2.43-1.4 6.11-1.56 8.21-.34l24.94 14.51c2.1 1.22 1.84 3.34-.59 4.74l-23.77 13.85c-2.43 1.41-6.11 1.56-8.21.34z"/><path class="st1" d="M200.27 73.56v-5l-26.53-.01.18-.01c-2.1-1.22-5.78-1.06-8.21.34l.79-.33-26.56-.01v5.33c-.06.82.4 1.62 1.41 2.2l24.94 14.51c2.1 1.22 5.78 1.06 8.21-.34l23.77-13.85c1.4-.81 2.08-1.86 2-2.83z"/><path class="st2" d="M170.11 67.73c-1.54.04-3.14.43-4.4 1.15l.79-.33-26.56-.01v5.33c-.06.82.4 1.62 1.41 2.2l24.94 14.51c1.01.58 2.39.85 3.81.81l.01-23.66z"/><path class="st3" d="M142.94 68.54h-3.01v5.33c-.06.82.4 1.62 1.41 2.2l1.6.92v-8.45z"/><path class="st4" d="M166.82 90.84c1.82.78 4.44.73 6.56-.07v-6.98h-6.56v7.05z"/><path class="st5" d="M166.29 85.29l-24.94-14.51c-2.1-1.22-1.84-3.34.59-4.74l23.77-13.85c2.43-1.4 6.11-1.56 8.21-.34l24.94 14.51c2.1 1.22 1.84 3.34-.59 4.74L174.5 84.95c-2.43 1.41-6.11 1.56-8.21.34z"/><path class="st6" d="M177.74 65.62c-.95.55-2.5.55-3.45 0-.95-.55-.95-1.44 0-1.99s2.5-.55 3.45 0c.95.54.95 1.44 0 1.99zm-12.36 7.41c-.95.55-2.5.55-3.45 0-.95-.55-.95-1.44 0-1.99s2.5-.55 3.45 0c.96.55.96 1.44 0 1.99zm11.16.93l-16.44-9.49c-.98-.57-.98-1.48 0-2.05s2.57-.57 3.55 0l16.44 9.49c.98.57.98 1.48 0 2.05-.98.56-2.57.56-3.55 0z"/></svg>