<svg version="1.1" id="Layer_1" xmlns="http://www.w3.org/2000/svg" xmlns:xlink="http://www.w3.org/1999/xlink" x="0" y="0" viewBox="0 0 610 410" xml:space="preserve"><style>.st0{fill:#fff}.st11{fill:#bfc8d6}.st12{fill:#d8dee8}.st29{opacity:.42;fill:#fff}</style><path class="st0" d="M37.44-48.77h512.77V464H37.44z"/><path d="M498.25 173.33c-9.94-65.07-50.7-145-131.21-153.37 0 0-61.13-7.44-121.4 3.83-35.77 6.69-67.13 26.6-86.97 55.22-19.84 28.62-26.47 63.51-18.43 96.78 5.23 21.61 8.76 43.97 7.79 66.17-1.69 38.64-.72 74.71 36.78 97.76 33.48 20.58 75.62 38.72 115.83 41.9 27.32 2.16 57.96-1.34 84.29-8.45 134.2-36.25 123.26-134.77 113.32-199.84z" fill="#f4f7fa"/><linearGradient id="SVGID_1_" gradientUnits="userSpaceOnUse" x1="4420.724" y1="-1048.869" x2="4538.481" y2="-1048.869" gradientTransform="rotate(40.698 691.808 -5969.805)"><stop offset="0" stop-color="#ff9085"/><stop offset="1" stop-color="#fb6fbb"/></linearGradient><path d="M314.79 312.31c-11.4 3.16-20.28-9.98-13.09-19.38 2.23-2.92 4.35-6.06 6.3-9.45 14.48-25.18 7-41.71 20.04-87.28 8.25-28.82 14.29-48.84 31.7-55.91 13.65-5.54 32.64-2.45 41.88 8.31 7.68 8.95 9.53 24.25 8.63 34.6-.73 8.44-3.33 14.03.24 19.5 3.65 5.58 9.43 4.44 13.05 8.81 7.36 8.87-3.45 29.19-5.2 32.48-19.43 36.55-62.09 53.59-80.78 60.81-6.3 2.42-13.92 5.06-22.77 7.51z" fill="url(#SVGID_1_)"/><defs><path id="SVGID_2_" d="M311.12 313.3c-10.41 2.71-18.29-9.52-11.45-17.82 2.98-3.61 5.79-7.6 8.32-12 14.48-25.18 7-41.71 20.04-87.28 8.25-28.82 14.29-48.84 31.7-55.91 13.65-5.54 32.64-2.45 41.88 8.31 7.68 8.95 9.53 24.25 8.63 34.6-.73 8.44-3.33 14.03.24 19.5 3.65 5.58 9.43 4.44 13.05 8.81 7.36 8.87-3.45 29.19-5.2 32.48-19.43 36.55-62.09 53.59-80.78 60.81-7.14 2.75-16 5.78-26.43 8.5z"/></defs><clipPath id="SVGID_3_"><use xlink:href="#SVGID_2_" overflow="visible"/></clipPath><g opacity=".5" clip-path="url(#SVGID_3_)"><path class="st0" d="M255.83 325.04l-.11-.98c18.28-2.05 34.54-5.91 48.34-11.47 20.34-8.2 34.7-19.92 42.68-34.82 6.25-11.67 8.49-24.87 11.59-43.13 2.47-14.58 2.91-25.13 3.3-34.45.51-12.18.9-21.8 5.66-34.69 4.83-13.08 12.69-25.29 23.37-36.3l.71.69c-10.58 10.91-18.37 23.01-23.15 35.96-4.71 12.74-5.1 22.3-5.6 34.39-.39 9.34-.83 19.93-3.31 34.57-3 17.66-5.36 31.61-11.69 43.43-8.1 15.11-22.63 26.98-43.19 35.28-13.89 5.58-30.24 9.46-48.6 11.52z"/><path class="st0" d="M360.54 224.57l-.44-.34c-.08-.07-8.52-6.73-15.51-18.95-6.45-11.28-12.98-29.76-7.42-53.71l.97.22c-5.48 23.63.95 41.86 7.31 52.99 5.99 10.48 13.03 16.79 14.82 18.31 14.44-23.79 32.46-36.41 45.07-42.82 13.77-7 24.28-8.3 24.38-8.32l.12.98c-.1.01-10.47 1.31-24.09 8.24-12.57 6.39-30.57 19.03-44.93 42.92l-.28.48z"/><path class="st0" d="M352.66 263.74l-.12-.34c-.06-.16-5.93-16.25-14.97-31.23-8.99-14.88-36.09-26.22-36.37-26.34l.38-.92c.28.11 27.68 11.58 36.84 26.74 8.36 13.85 14.03 28.65 14.93 31.06 31.87-1.52 81.15-62.52 81.65-63.14l.77.62c-.13.16-12.69 15.77-29.06 31.31-22.04 20.92-40.1 31.76-53.68 32.22l-.37.02z"/><path class="st0" d="M328.92 312.23c-11.04 0-18.1-.92-18.2-.93l-.98-.13.69-.71c10.92-11.17 13.35-25.22 7.25-41.76-4.57-12.38-12.48-21.57-12.56-21.66l.75-.65c.08.09 8.1 9.41 12.74 21.97 6.03 16.34 3.69 30.86-6.78 42.07 3.59.39 16.68 1.55 33.79.11 18.52-1.56 45.67-6.57 69.85-21.61l46.99-29.22.52.84L416 289.77c-24.36 15.15-51.68 20.19-70.32 21.76-6.19.52-11.87.7-16.76.7z"/></g><defs><path id="SVGID_4_" d="M291.64 313.47c15.83 9.27 37.32 18.83 61.79 21.24 6.24.62 44.82 4.42 49.24-11.6 1.56-5.64-2.44-8.98-.49-16.56 2.31-8.98 9.4-10.05 18.33-17.75 5.33-4.6 20.93-18.05 16.21-33.2-2.82-9.05-12.76-18.3-22.66-21.29-14.52-4.39-26.1 5.53-45.41 22.65-17.12 15.18-18.17 20.72-30.68 31.44-9.29 7.96-23.86 17.88-46.33 25.07z"/></defs><linearGradient id="SVGID_5_" gradientUnits="userSpaceOnUse" x1="389.302" y1="223.061" x2="354.389" y2="316.775"><stop offset="0" stop-color="#aa80f9"/><stop offset=".996" stop-color="#6165d7"/></linearGradient><use xlink:href="#SVGID_4_" overflow="visible" fill="url(#SVGID_5_)"/><clipPath id="SVGID_6_"><use xlink:href="#SVGID_4_" overflow="visible"/></clipPath><g opacity=".5" clip-path="url(#SVGID_6_)"><path class="st0" d="M299.78 313.69c-9.9 0-19.6-1.39-29.07-4.18-18.36-5.41-35.19-15.64-50.02-30.41l.7-.7c14.71 14.65 31.4 24.8 49.6 30.16 24.24 7.14 50.05 5.04 76.72-6.25 27.78-11.76 49.53-30.54 62.88-44.22 9.23-9.46 15.77-22.07 19.44-37.46l.96.23c-3.7 15.57-10.33 28.33-19.69 37.92-13.42 13.75-35.27 32.62-63.21 44.44-16.47 6.97-32.64 10.47-48.31 10.47z"/><path class="st0" d="M381.35 284.07l-.07-.44c-.05-.32-4.9-32.63 15.62-53.34l.7.7c-18.87 19.04-15.91 48.12-15.41 52.05 46.19-2.51 60.27-27.69 63.48-35.37.09-.21.15-.35.18-.39l.85.5-.43-.25.43.24c-.02.04-.06.14-.12.28-3.29 7.84-17.67 33.59-64.8 36l-.43.02z"/><path class="st0" d="M394.09 321.29h-.16c-10.39-.03-26.78-3.24-45.87-18.34l-.21-.16.02-.26c.02-.25 2.19-25.01 19.49-50.4l17.43-25.57.82.56-17.43 25.57c-16.19 23.76-19.01 46.95-19.29 49.66 10.43 8.2 26.64 17.9 45.05 17.96h.16c10.95 0 17.54-3.47 17.61-3.51l.47.87c-.29.15-6.89 3.62-18.09 3.62z"/></g><linearGradient id="SVGID_7_" gradientUnits="userSpaceOnUse" x1="452.647" y1="110.614" x2="400.203" y2="95.773"><stop offset="0" stop-color="#311944"/><stop offset="1" stop-color="#a03976"/></linearGradient><path d="M412.11 106.83c1.68.85 3.79.07 4.71-1.75s.31-3.98-1.37-4.84c-.09-.04-.18-.08-.26-.12.31-1.01.55-2.02.71-3.03.1 0 .19 0 .29-.01 1.92-.17 3.44-1.93 3.4-3.93-.04-2-1.63-3.49-3.54-3.31-.1.01-.2.02-.3.04-.2-.99-.47-1.96-.82-2.9.09-.05.18-.1.26-.16 1.64-1.15 2.16-3.42 1.17-5.06-.99-1.65-3.13-2.05-4.77-.9-.08.06-.16.12-.24.19-.65-.72-1.36-1.38-2.13-1.98.05-.09.11-.18.15-.27.92-1.82 2.13-3.81.44-4.63-3.92-1.91-5.6-.28-6.52 1.54-.05.09-.09.19-.13.29-.94-.26-1.9-.44-2.86-.55.01-.1.01-.2.01-.3-.04-2 .55-3.08-1.37-3.12-4.19-.08-5.61 1.74-5.57 3.74 0 .1.01.21.02.31-.96.27-1.91.62-2.82 1.05-.04-.09-.09-.18-.14-.26-.99-1.65-3.13-2.05-4.77-.9-1.64 1.15-2.16 3.42-1.17 5.06.05.08.11.16.16.24-.73.73-1.41 1.51-2.03 2.36-.08-.05-.16-.1-.25-.14-1.68-.85-3.79-.07-4.71 1.75-.92 1.82-.31 3.98 1.37 4.84.09.04.18.08.26.12-.31 1.01-.55 2.02-.71 3.04-.1 0-.19 0-.29.01-1.92.17-3.44 1.93-3.4 3.93.04 2 1.63 3.49 3.54 3.31.1-.01.2-.02.3-.04.2.99.47 1.96.82 2.9-.09.05-.18.1-.26.16-1.64 1.15-2.16 3.42-1.17 5.06.99 1.65 4.28 2.41 5.92 1.26.08-.06-.99-.48-.91-.55.65.72 1.36 1.38 2.13 1.98-.05.09-.11.18-.15.27-.92 1.82-.31 3.98 1.37 4.84 1.68.85 3.79.07 4.71-1.75.05-.09.09-.19.13-.29.94.26 1.9.44 2.86.55-.01.1-.01.2-.01.3.04 2 1.63 3.49 3.54 3.31 1.92-.17 3.44-1.93 3.4-3.93 0-.1-.01-.21-.02-.31.96-.27 1.91-.62 2.82-1.05.04.09.09.18.14.26.99 1.65 3.13 2.05 4.77.9s2.16-3.42 1.17-5.06c-.05-.08-.11-.16-.16-.24.73-.73 1.41-1.51 2.03-2.36.08.04.16.09.25.13zm-20.94.27c-6.1-3.1-8.32-10.96-4.97-17.56 3.35-6.6 11.01-9.45 17.11-6.35 6.1 3.1 8.32 10.96 4.97 17.56-3.35 6.6-11.01 9.45-17.11 6.35z" fill="url(#SVGID_7_)"/><linearGradient id="SVGID_8_" gradientUnits="userSpaceOnUse" x1="452.51" y1="111.099" x2="400.066" y2="96.259"><stop offset="0" stop-color="#311944"/><stop offset="1" stop-color="#a03976"/></linearGradient><path d="M416.19 97.09c1.92-.17 3.44-1.93 3.4-3.93-.04-2-1.63-3.49-3.54-3.31-.1.01-.2.02-.3.04-.2-.99-.47-1.96-.82-2.9.09-.05.18-.1.26-.16 1.64-1.15 3.67-3.92 2.51-5.46-2.2-2.92-4.47-1.65-6.11-.51-.08.06-.16.12-.24.19-.65-.72-1.36-1.38-2.13-1.98.05-.09.11-.18.15-.27.5-.99.55-2.08.21-3.01-1.58 2.79-3.15 5.59-4.68 8.4 4.86 3.56 6.41 10.59 3.37 16.58-2.58 5.08-7.7 7.93-12.7 7.57-.22.58-.44 1.16-.68 1.73-.65 1.56-1.38 3.08-2.12 4.6.46.09.93.16 1.4.21-.01.1-.01.2-.01.31.04 2 1.26 3.7 4.73 3.52 1.92-.1 2.25-2.13 2.21-4.14 0-.1-.01-.21-.02-.31.96-.27 1.91-.62 2.82-1.05.04.09.09.18.14.26.99 1.65 4.44 2.35 6.08 1.2 1.64-1.15.85-3.71-.14-5.36-.05-.08-.11-.16-.16-.24.73-.73 1.41-1.51 2.03-2.36.08.05.16.1.25.14 1.68.85 3.79.07 4.71-1.75.92-1.82.31-3.98-1.37-4.84-.09-.04-.18-.08-.26-.12.31-1.01.55-2.02.71-3.03.1-.01.2-.01.3-.02z" fill="url(#SVGID_8_)"/><linearGradient id="SVGID_9_" gradientUnits="userSpaceOnUse" x1="398.829" y1="77.472" x2="399.649" y2="143.697"><stop offset="0" stop-color="#ff9085"/><stop offset="1" stop-color="#fb6fbb"/></linearGradient><path d="M413.92 107.04c1.68.85 3.79.07 4.71-1.75.92-1.82.31-3.98-1.37-4.84-.09-.04-.18-.08-.26-.12.31-1.01.55-2.02.71-3.04.1 0 .19 0 .29-.01 1.92-.17 3.44-1.93 3.4-3.93-.04-2-1.63-3.49-3.54-3.31-.1.01-.2.02-.3.04-.2-.99-.47-1.96-.82-2.9.09-.05.18-.1.26-.16 1.64-1.15 2.16-3.42 1.17-5.06-.99-1.65-3.13-2.05-4.77-.9-.08.06-.16.12-.24.19-.65-.72-1.36-1.38-2.13-1.98.05-.09.11-.18.15-.27.92-1.82.31-3.98-1.37-4.84-1.68-.85-3.79-.07-4.71 1.75-.05.09-.09.19-.13.29-.94-.26-1.9-.44-2.86-.55.01-.1.01-.2.01-.3-.04-2-1.63-3.49-3.54-3.31-1.92.17-3.44 1.93-3.4 3.93 0 .1.01.21.02.31-.96.27-1.91.62-2.82 1.05-.04-.09-.09-.18-.14-.26-.99-1.65-3.13-2.05-4.77-.9-1.64 1.15-2.16 3.42-1.17 5.06.05.08.11.16.16.24-.73.73-1.41 1.51-2.03 2.36-.08-.05-.16-.1-.25-.14-1.68-.85-3.79-.07-4.71 1.75-.92 1.82-.31 3.98 1.37 4.84.09.04.18.08.26.12-.31 1.01-.55 2.02-.71 3.04-.1 0-.19 0-.29.01-1.92.17-3.44 1.93-3.4 3.93.04 2 1.63 3.49 3.54 3.31.1-.01.2-.02.3-.04.2.99.47 1.96.82 2.9-.09.05-.18.1-.26.16-1.64 1.15-2.16 3.42-1.17 5.06.99 1.65 3.13 2.05 4.77.9.08-.06.16-.12.24-.19.65.72 1.36 1.38 2.13 1.98-.05.09-.11.18-.15.27-.92 1.82-.31 3.98 1.37 4.84 1.68.85 3.79.07 4.71-1.75.05-.09.09-.19.13-.29.94.26 1.9.44 2.86.55-.01.1-.01.2-.01.3.04 2 1.63 3.49 3.54 3.31 1.92-.17 3.44-1.93 3.4-3.93 0-.1-.01-.21-.02-.31.96-.27 1.91-.62 2.82-1.05.04.09.09.18.14.26.99 1.65 3.13 2.05 4.77.9 1.64-1.15 2.16-3.42 1.17-5.06-.05-.08-.11-.16-.16-.24.73-.73 1.41-1.51 2.03-2.36.08.05.16.1.25.14zm-20.94.27c-6.1-3.1-8.32-10.96-4.97-17.56 3.35-6.6 11.01-9.45 17.11-6.35 6.1 3.1 8.32 10.96 4.97 17.56-3.35 6.6-11.01 9.44-17.11 6.35z" fill="url(#SVGID_9_)"/><linearGradient id="SVGID_10_" gradientUnits="userSpaceOnUse" x1="446.588" y1="79.922" x2="343.856" y2="50.851"><stop offset="0" stop-color="#311944"/><stop offset="1" stop-color="#a03976"/></linearGradient><path d="M367.18 72.52c3.29 1.67 7.42.14 9.23-3.43 1.81-3.56.61-7.8-2.68-9.47-.17-.09-.34-.16-.52-.23.61-1.97 1.07-3.96 1.38-5.95.19 0 .38 0 .57-.02 3.75-.33 6.73-3.78 6.65-7.7-.08-3.92-3.19-6.83-6.94-6.49-.2.02-.39.05-.58.08a37.99 37.99 0 00-1.61-5.68c.17-.1.34-.21.51-.32 3.21-2.25 4.24-6.69 2.29-9.92-1.94-3.23-6.12-4.02-9.34-1.77-.16.12-.32.24-.47.37-1.27-1.4-2.66-2.7-4.16-3.89.11-.17.21-.35.3-.53 1.81-3.56 4.17-7.45.86-9.07-7.67-3.74-10.96-.54-12.77 3.02-.09.18-.17.37-.25.56-1.85-.52-3.72-.87-5.6-1.07.01-.2.02-.4.02-.6-.08-3.92 1.08-6.04-2.68-6.12-8.22-.16-10.99 3.41-10.91 7.33 0 .2.02.41.04.6a38.74 38.74 0 00-5.53 2.05c-.09-.17-.17-.35-.28-.52-1.94-3.23-6.12-4.02-9.34-1.77-3.21 2.25-4.24 6.69-2.29 9.92.1.17.21.32.32.47a42.204 42.204 0 00-3.98 4.62c-.16-.1-.32-.2-.49-.28-3.29-1.67-7.42-.14-9.23 3.43-1.81 3.56-.61 7.8 2.68 9.47.17.09.34.16.52.23-.61 1.97-1.07 3.96-1.38 5.95-.19 0-.38 0-.57.02-3.75.33-6.73 3.78-6.65 7.7.08 3.92 3.19 6.83 6.94 6.49.2-.02.39-.05.58-.08.39 1.94.93 3.84 1.61 5.68-.17.1-.34.21-.51.32-3.21 2.25-4.24 6.69-2.29 9.92 1.94 3.23 8.38 4.73 11.6 2.48.16-.12-1.94-.95-1.79-1.07 1.27 1.4 2.66 2.7 4.16 3.89-.11.17-.21.35-.3.53-1.81 3.56-.61 7.8 2.68 9.47 3.29 1.67 7.42.14 9.23-3.43.09-.18.17-.37.25-.56 1.85.52 3.72.87 5.6 1.07-.01.2-.02.4-.02.6.08 3.92 3.19 6.83 6.94 6.49 3.75-.33 6.73-3.78 6.65-7.7 0-.2-.02-.41-.04-.6a38.74 38.74 0 005.53-2.05c.09.17.17.35.28.52 1.94 3.23 6.12 4.02 9.34 1.77 3.21-2.25 4.24-6.69 2.29-9.92-.1-.17-.21-.32-.32-.47 1.42-1.42 2.75-2.97 3.98-4.62.16.1.32.19.49.28zm-41.01.52c-11.95-6.06-16.31-21.47-9.74-34.4C323 25.7 338 20.14 349.95 26.2s16.31 21.47 9.74 34.4c-6.57 12.94-21.58 18.5-33.52 12.44z" fill="url(#SVGID_10_)"/><linearGradient id="SVGID_11_" gradientUnits="userSpaceOnUse" x1="446.319" y1="80.873" x2="343.587" y2="51.802"><stop offset="0" stop-color="#311944"/><stop offset="1" stop-color="#a03976"/></linearGradient><path d="M375.16 53.42c3.75-.33 6.73-3.78 6.65-7.7-.08-3.92-3.19-6.83-6.94-6.49-.2.02-.39.05-.58.08a37.99 37.99 0 00-1.61-5.68c.17-.1.34-.21.51-.32 3.21-2.25 7.18-7.69 4.92-10.7-4.3-5.72-8.75-3.24-11.96-.99-.16.12-.32.24-.47.37-1.27-1.4-2.66-2.7-4.16-3.89.11-.17.21-.35.3-.53.98-1.94 1.07-4.08.42-5.89-3.1 5.46-6.16 10.94-9.17 16.45 9.53 6.98 12.56 20.74 6.61 32.48-5.05 9.94-15.08 15.52-24.88 14.82-.44 1.13-.87 2.27-1.33 3.4-1.27 3.05-2.71 6.03-4.16 9.01.91.17 1.82.31 2.74.4-.01.2-.02.4-.02.6.08 3.92 2.46 7.25 9.26 6.89 3.76-.2 4.41-4.18 4.33-8.1 0-.2-.02-.41-.04-.6a38.74 38.74 0 005.53-2.05c.09.17.17.35.28.52 1.94 3.23 8.69 4.6 11.9 2.35 3.21-2.25 1.67-7.27-.27-10.5-.1-.17-.21-.32-.32-.47 1.42-1.42 2.75-2.97 3.98-4.62.16.1.32.2.49.28 3.29 1.67 7.42.14 9.23-3.43 1.81-3.56.61-7.8-2.68-9.47-.17-.09-.34-.16-.52-.23.61-1.97 1.07-3.96 1.38-5.95.2-.02.39-.02.58-.04z" fill="url(#SVGID_11_)"/><linearGradient id="SVGID_12_" gradientUnits="userSpaceOnUse" x1="341.164" y1="15.001" x2="342.77" y2="144.728"><stop offset="0" stop-color="#ff9085"/><stop offset="1" stop-color="#fb6fbb"/></linearGradient><path d="M370.72 72.92c3.29 1.67 7.42.14 9.23-3.43 1.81-3.56.61-7.8-2.68-9.47-.17-.09-.34-.16-.52-.23.61-1.97 1.07-3.96 1.38-5.95.19 0 .38 0 .57-.02 3.75-.33 6.73-3.78 6.65-7.7-.08-3.92-3.19-6.83-6.94-6.49-.2.02-.39.05-.58.08a37.99 37.99 0 00-1.61-5.68c.17-.1.34-.21.51-.32 3.21-2.25 4.24-6.69 2.29-9.92-1.94-3.23-6.12-4.02-9.34-1.77-.16.12-.32.24-.47.37-1.27-1.4-2.66-2.7-4.16-3.89.11-.17.21-.35.3-.53 1.81-3.56.61-7.8-2.68-9.47-3.29-1.67-7.42-.14-9.23 3.43-.09.18-.17.37-.25.56-1.85-.52-3.72-.87-5.6-1.07.01-.2.02-.4.02-.6-.08-3.92-3.19-6.83-6.94-6.49-3.75.33-6.73 3.78-6.65 7.7 0 .2.02.41.04.6a38.74 38.74 0 00-5.53 2.05c-.09-.17-.17-.35-.28-.52-1.94-3.23-6.12-4.02-9.34-1.77-3.21 2.25-4.24 6.69-2.29 9.92.1.17.21.32.32.47a42.204 42.204 0 00-3.98 4.62c-.16-.1-.32-.2-.49-.28-3.29-1.67-7.42-.14-9.23 3.43-1.81 3.56-.61 7.8 2.68 9.47.17.09.34.16.52.23-.61 1.97-1.07 3.96-1.38 5.95-.19 0-.38 0-.57.02-3.75.33-6.73 3.78-6.65 7.7.08 3.92 3.19 6.83 6.94 6.49.2-.02.39-.05.58-.08.39 1.94.93 3.84 1.61 5.68-.17.1-.34.21-.51.32-3.21 2.25-4.24 6.69-2.29 9.92 1.94 3.23 6.12 4.02 9.34 1.77.16-.12.32-.24.47-.37 1.27 1.4 2.66 2.7 4.16 3.89-.11.17-.21.35-.3.53-1.81 3.56-.61 7.8 2.68 9.47 3.29 1.67 7.42.14 9.23-3.43.09-.18.17-.37.25-.56 1.85.52 3.72.87 5.6 1.07-.01.2-.02.4-.02.6.08 3.92 3.19 6.83 6.94 6.49 3.75-.33 6.73-3.78 6.65-7.7 0-.2-.02-.41-.04-.6a38.74 38.74 0 005.53-2.05c.09.17.17.35.28.52 1.94 3.23 6.12 4.02 9.34 1.77 3.21-2.25 4.24-6.69 2.29-9.92-.1-.17-.21-.32-.32-.47 1.42-1.42 2.75-2.97 3.98-4.62.16.1.32.2.49.28zm-41.01.52c-11.95-6.06-16.31-21.47-9.74-34.4 6.57-12.93 21.57-18.5 33.52-12.44 11.95 6.06 16.31 21.47 9.74 34.4-6.57 12.94-21.58 18.51-33.52 12.44z" fill="url(#SVGID_12_)"/><path class="st11" d="M500.64 357.42l-389.84-3.37v9.97c0 2.71 1.7 5.01 4 5.42l110.23 19.63c1.31.23 2.63.29 3.95.18l267.41-22.39c2.39-.2 4.24-2.51 4.24-5.29v-4.15z"/><path class="st11" d="M363.82 166.63v166.79c0 2.1-.77 4.07-1.99 5.52-1.19 1.43-2.83 2.37-4.64 2.5l-179.13 13.21-66.79 4.94h-.01l-.45.01-1.45.09c-4.43.33-8.1-3.16-8.1-7.76v-184.5c0-4.6 3.72-8.46 8.15-8.46h247.77c3.66 0 6.64 3.5 6.64 7.66z"/><path class="st0" d="M367.78 166.63v166.79c0 3.21-1.78 6.08-4.27 7.35-.04.02-.08.04-.12.05-.24.11-.48.22-.73.31-.06.02-.11.04-.17.06-.05.01-.09.03-.13.04-.18.06-.36.1-.55.13-.22.05-.45.08-.68.09l-1.26.08-178.28 13.12h-.01l-68.23 5.03c-.66.05-1.3.04-1.91-.07-.06-.01-.12-.01-.18-.01h-.01c-.15 0-.35-.09-.5-.14-3.18-.87-5.53-3.85-5.53-7.53v-184.5c0-4.6 3.71-8.46 8.14-8.46h247.77c3.66 0 6.65 3.5 6.65 7.66z"/><path class="st12" d="M353.41 329.69l-230.77 15.84c-3.61.25-6.54-2.6-6.54-6.36V177.64c0-3.76 2.93-6.82 6.54-6.84l230.77-.99c3.01-.01 5.45 2.75 5.45 6.18v147.13c0 3.42-2.43 6.36-5.45 6.57z"/><path class="st0" d="M246 164.14c0 1.71-1.28 3.11-2.85 3.11-1.58.01-2.86-1.38-2.86-3.1 0-1.72 1.28-3.11 2.86-3.11 1.57 0 2.85 1.38 2.85 3.1z"/><path d="M113.36 359.69l246.52-18.15 1.25-.09c1.68-.12 3.2-.95 4.36-2.21-17.74-.97-28.76-7.27-35.87-13.77-14.27-13.06-11.8-25.95-27.19-34.53-19.2-10.71-34.29 2.86-48.86-10.53-8.83-8.12-4.5-14.18-15.36-26.31-12.04-13.44-19.87-8.92-31.97-21.02-15.3-15.29-7.65-27.19-20.82-38.17-15.98-13.32-33.22-.99-48.44-13.77-6.56-5.51-10.16-13.52-12.04-22.04h-11.58c-4.43 0-8.04 3.73-8.04 8.34v184.51c0 4.59 3.61 8.06 8.04 7.74z" opacity=".48" fill="#fff"/><linearGradient id="SVGID_13_" gradientUnits="userSpaceOnUse" x1="201.868" y1="360.3" x2="591.704" y2="360.3"><stop offset=".494" stop-color="#ebeff2"/><stop offset="1" stop-color="#fff"/></linearGradient><path d="M372.81 340.44l-262 19.2 114.24 20.35c1.31.23 2.63.29 3.95.18l271.64-22.74-123.67-16.86c-1.38-.19-2.77-.24-4.16-.13z" fill="url(#SVGID_13_)"/><path class="st12" d="M149.04 359.8l218.12-16.22 67.51 9.13-216.25 17.34z"/><path d="M347.96 158.97v166.55c0 1.54-.31 3.04-.75 4.46-.63 2.01-1.71 3.87-3.06 5.46-2.61 3.06-6.39 5.15-10.61 5.47l-179.4 13.54-10.58.8c-2.55.2-4.97-.16-7.13-.95-4.35-1.58-7.58-4.94-8.88-9.23-.39-1.28-.52-2.64-.52-4.07V158.97h220.93z" opacity=".3" fill="#bfc8d6"/><linearGradient id="SVGID_14_" gradientUnits="userSpaceOnUse" x1="130.803" y1="201.745" x2="351.934" y2="201.745"><stop offset=".004" stop-color="#e38ddd"/><stop offset="1" stop-color="#9571f6"/></linearGradient><path d="M337.55 57.57l-190.03-5.86c-9.21-.28-16.72 6.43-16.72 14.99v270.77c0 8.56 7.51 14.94 16.72 14.25l190.03-14.34c7.96-.6 14.38-7.49 14.38-15.39V72.32c0-7.9-6.41-14.5-14.38-14.75z" fill="url(#SVGID_14_)"/><path d="M136.16 338.72V65.23c0-4.93 4.32-8.8 9.63-8.64l193.27 5.62c4.59.13 8.3 3.94 8.3 8.5v253.11c0 4.56-3.71 8.53-8.3 8.87l-193.27 14.25c-5.31.39-9.63-3.29-9.63-8.22z" opacity=".74" fill="#fff"/><linearGradient id="SVGID_15_" gradientUnits="userSpaceOnUse" x1="242.543" y1="63.621" x2="223.656" y2="234.329"><stop offset="0" stop-color="#40447e"/><stop offset=".996" stop-color="#3c3b6b"/></linearGradient><path d="M337.55 57.57l-190.03-5.86c-9.21-.28-16.72 6.43-16.72 14.99v11.12l221.13 4.74V72.32c0-7.9-6.41-14.5-14.38-14.75z" fill="url(#SVGID_15_)"/><path class="st0" d="M160.49 65.98c0 2.77-2.42 4.96-5.4 4.89-2.99-.07-5.42-2.39-5.42-5.17s2.43-4.97 5.42-4.89c2.98.08 5.4 2.39 5.4 5.17zm18.8.48c0 2.76-2.38 4.93-5.33 4.86-2.95-.07-5.35-2.37-5.35-5.14 0-2.77 2.4-4.94 5.35-4.86 2.95.09 5.33 2.39 5.33 5.14zm18.55.48c0 2.74-2.35 4.9-5.26 4.83-2.91-.07-5.28-2.35-5.28-5.1 0-2.75 2.37-4.91 5.28-4.83 2.91.08 5.26 2.37 5.26 5.1z"/><linearGradient id="SVGID_16_" gradientUnits="userSpaceOnUse" x1="217.718" y1="30.731" x2="182.19" y2="184.686"><stop offset=".004" stop-color="#e38ddd"/><stop offset="1" stop-color="#9571f6"/></linearGradient><path d="M226.51 128.56c0 16.61-13.6 30.01-30.67 29.94-17.39-.08-31.74-14.08-31.74-31.27s14.35-30.58 31.74-29.91c17.07.64 30.67 14.63 30.67 31.24z" fill="url(#SVGID_16_)"/><path d="M222.92 128.48c0 14.67-12.02 26.48-27.08 26.38-15.31-.1-27.92-12.44-27.92-27.56s12.6-26.92 27.92-26.36c15.06.55 27.08 12.87 27.08 27.54z" opacity=".9" fill="#fff"/><defs><path id="SVGID_17_" d="M220.06 128.42c0 13.12-10.77 23.67-24.22 23.56-13.66-.11-24.89-11.13-24.89-24.61s11.23-24.02 24.89-23.55c13.46.47 24.22 11.48 24.22 24.6z"/></defs><clipPath id="SVGID_18_"><use xlink:href="#SVGID_17_" overflow="visible"/></clipPath><g clip-path="url(#SVGID_18_)"><linearGradient id="SVGID_19_" gradientUnits="userSpaceOnUse" x1="202.644" y1="94.794" x2="178.489" y2="196.664"><stop offset=".004" stop-color="#e38ddd"/><stop offset="1" stop-color="#9571f6"/></linearGradient><path d="M193.6 130.24c.68.54 1.44.86 2.24.88.81.02 1.57-.28 2.25-.8 1.69-1.3 2.85-3.99 2.85-6.73 0-3.83-2.28-6.31-5.11-6.38-2.83-.08-5.14 2.29-5.14 6.14.02 2.76 1.2 5.52 2.91 6.89z" fill="url(#SVGID_19_)"/><linearGradient id="SVGID_20_" gradientUnits="userSpaceOnUse" x1="207.434" y1="95.708" x2="183.108" y2="198.298"><stop offset=".004" stop-color="#e38ddd"/><stop offset="1" stop-color="#9571f6"/></linearGradient><path d="M207.77 140.21c-.5-1.03-1.14-1.99-1.84-2.86-.07-.08-.21-.17-.29-.25a.076.076 0 00-.04-.02l-.07-.07c-.03-.04-.07-.08-.1-.11a.265.265 0 00-.05-.06c-.07-.09-.15-.17-.23-.25l-.04-.04-.09-.09-.01-.01a.435.435 0 01-.06-.07l-.08-.08c-.02-.02-.03-.04-.05-.05-.05-.05-.11-.1-.16-.15l-.03-.03c-.07-.06-.14-.13-.21-.19-.03-.03-.06-.05-.09-.08-.05-.05-.11-.1-.17-.15-.01-.01-.03-.02-.04-.03a13.117 13.117 0 00-5.52-2.81c-.07-.02-.14-.03-.21-.05l-.01.01c-.62-.13-1.25-.22-1.89-.26-.22-.01-.43-.03-.65-.03-.92-.02-1.83.74-2.7.25h-.03s0 .01 0 0h-.01c-.01 0-.02 0-.03-.01v.01c-4.06.99-7.41 3.51-9.03 7.16-.67 1.51-1.04 3.17-1.04 4.92v.4l25.76.29v-.4c0-1.73-.5-3.38-.99-4.89z" fill="url(#SVGID_20_)"/><linearGradient id="SVGID_21_" gradientUnits="userSpaceOnUse" x1="188.682" y1="90.998" x2="164.351" y2="193.612"><stop offset=".004" stop-color="#e38ddd"/><stop offset="1" stop-color="#9571f6"/></linearGradient><path d="M182.34 125.43c2.87.06 5.18-3.71 5.18-7.57s-2.32-6.36-5.18-6.45c-2.88-.09-5.21 2.29-5.21 6.17s2.34 7.79 5.21 7.85z" fill="url(#SVGID_21_)"/><linearGradient id="SVGID_22_" gradientUnits="userSpaceOnUse" x1="190.347" y1="92.742" x2="166.898" y2="191.637"><stop offset=".004" stop-color="#e38ddd"/><stop offset="1" stop-color="#9571f6"/></linearGradient><path d="M190.88 130.53c.01 0 .01-.29.02-.29.17 0 .35.29.53.1.01.01 0 .17.01.18l-.02.15.05-.42v.01l-.01-.01c-.5 0-1.03-.74-1.61-1.16.01.01.02.12.02.13l-.01.04c-2.11-1.52-4.56-2.43-7.37-2.49-7.17-.16-12.87 5.41-12.87 12.41v.07l12.04.18-.09.05c1.56-4.26 4.95-7.62 9.31-8.95z" fill="url(#SVGID_22_)"/><linearGradient id="SVGID_23_" gradientUnits="userSpaceOnUse" x1="200.505" y1="93.127" x2="175.657" y2="197.922"><stop offset=".004" stop-color="#e38ddd"/><stop offset="1" stop-color="#9571f6"/></linearGradient><linearGradient id="SVGID_24_" gradientUnits="userSpaceOnUse" x1="213.84" y1="97.913" x2="189.873" y2="198.99"><stop offset=".004" stop-color="#e38ddd"/><stop offset="1" stop-color="#9571f6"/></linearGradient><path d="M208.97 126.03c2.78.06 5.03-3.66 5.03-7.46s-2.25-6.27-5.03-6.35c-2.79-.08-5.06 2.26-5.06 6.08 0 3.83 2.27 7.67 5.06 7.73z" fill="url(#SVGID_24_)"/><linearGradient id="SVGID_25_" gradientUnits="userSpaceOnUse" x1="218.626" y1="100.335" x2="195.563" y2="197.605"><stop offset=".004" stop-color="#e38ddd"/><stop offset="1" stop-color="#9571f6"/></linearGradient><path d="M208.57 127.36c-2.61-.06-4.85.68-6.87 1.99-.65.42-1.17.9-1.72 1.43h.06c.24.07.49-.06.72.03 4.35 1.55 7.52 5.4 9.03 9.03l10.86.17v-.07c0-6.8-5.17-12.43-12.08-12.58z" fill="url(#SVGID_25_)"/></g><path class="st0" d="M317.25 111.85l-72.33-2.34v-8.6l72.33 2.69zm15.36 18.77l-87.69-1.9v-8.59l87.69 2.32zm0 18.25l-87.69-.93v-8.6l87.69 1.36zm0 132.11L150.3 293.47v-9.06l182.31-11.6zm0 17.77L150.3 313.18v-8.52l182.31-13.59z"/><path class="st29" d="M239.47 257.45l-89.17 4.58v-86.84l89.17-.42z"/><path class="st0" d="M231.05 194.69l-72.32 1.15v-9.02l72.32-.8zm0 17.32l-72.32 1.86v-8.49l72.32-1.52zm0 17.84l-72.32 2.59v-9.02l72.32-2.23zm0 17.33l-72.32 3.29v-9.02l72.32-2.94z"/><path class="st29" d="M332.61 252.64l-78.77 4.06v-82l78.77-.37z"/><path class="st0" d="M273.16 247.75l-10.9.49v-27.03l10.9-.32zm17.34-.81l-10.9.51v-42.13l10.9-.25zm17.83-.83l-11.39.51v-54.95l11.39-.16zm15.85-.77l-9.9.49v-63.15l9.9-.1z"/><linearGradient id="SVGID_26_" gradientUnits="userSpaceOnUse" x1="-1542.723" y1="192.458" x2="-1495.183" y2="420.446" gradientTransform="matrix(-1 0 0 1 -1138.836 0)"><stop offset="0" stop-color="#ffc444"/><stop offset=".996" stop-color="#f36f56"/></linearGradient><path d="M381.48 199.63c-4.78-5.11 8.46-24.3 15.55-32.7 6.19-7.35 12.56-14.9 20.37-13.94 6.86.84 13.54 8.08 13.94 15.01 1.08 18.66-43.06 38.89-49.86 31.63z" fill="url(#SVGID_26_)"/><linearGradient id="SVGID_27_" gradientUnits="userSpaceOnUse" x1="727.397" y1="366.404" x2="743.864" y2="366.404" gradientTransform="rotate(1.621 -586.345 -10123.943)"><stop offset="0" stop-color="#444b8c"/><stop offset=".996" stop-color="#26264f"/></linearGradient><path d="M438.92 396.81c.9.73 1.07 2.56 1.17 3.75.05.53.07.8.01.99-.44 1.38-3.1 1.52-7.28 1.95-6.61.68-8.58 1.2-9.09.21-.48-.92.69-2.43.82-2.6.71-.89 1.58-1.22 3.27-1.77 3.12-1.03 5.22-1.59 5.86-1.76 3.98-1.06 4.65-1.25 5.24-.77z" fill="url(#SVGID_27_)"/><linearGradient id="SVGID_28_" gradientUnits="userSpaceOnUse" x1="434.329" y1="394.978" x2="440.232" y2="394.978"><stop offset="0" stop-color="#ffc444"/><stop offset=".996" stop-color="#f36f56"/></linearGradient><path d="M434.99 390.77l-.66 7.53c.19.36 2.43 1.45 4.2.52l1.7-7.4-5.24-.65z" fill="url(#SVGID_28_)"/><linearGradient id="SVGID_29_" gradientUnits="userSpaceOnUse" x1="1149.199" y1="49.858" x2="1166.694" y2="49.858" gradientTransform="rotate(15.377 -521.487 -2662.852)"><stop offset="0" stop-color="#444b8c"/><stop offset=".996" stop-color="#26264f"/></linearGradient><path d="M386.51 395.84c1.08 1.19 1.33 3.39.39 4.47-.92 1.06-2.31.27-6.24.38-4.21.13-5.31 1.12-8.18.33-1.16-.32-3.2-1.1-3.16-1.92.03-.58 1.07-.88 4.54-2.05 4.93-1.65 4.91-1.74 5.96-1.92 2.62-.43 5.26-.87 6.69.71z" fill="url(#SVGID_29_)"/><linearGradient id="SVGID_30_" gradientUnits="userSpaceOnUse" x1="381.693" y1="393.029" x2="388.985" y2="393.029"><stop offset="0" stop-color="#ffc444"/><stop offset=".996" stop-color="#f36f56"/></linearGradient><path d="M383.81 388.97L381.7 396c.16.38 2.31 1.64 4.15.84l3.14-6.82-5.18-1.05z" fill="url(#SVGID_30_)"/><linearGradient id="SVGID_31_" gradientUnits="userSpaceOnUse" x1="-1514.831" y1="367.165" x2="-1561.495" y2="261.974" gradientTransform="matrix(-1 0 0 1 -1138.836 0)"><stop offset="0" stop-color="#40447e"/><stop offset=".996" stop-color="#3c3b6b"/></linearGradient><path d="M402.59 234.98c-.3 23.63-1.92 50.2-5.78 79.06-3.82 28.53-9.18 54.3-15.03 76.97 2.7.73 5.39 1.45 8.09 2.18 6.84-6.38 15.47-16.42 19.64-30.61 2.58-8.81 1.72-13.33 3.36-24.17 2.61-17.25 7.9-26.29 13.36-40.2 4.91-12.5 10.72-30.84 13.83-55.36-12.49-2.63-24.98-5.25-37.47-7.87z" fill="url(#SVGID_31_)"/><linearGradient id="SVGID_32_" gradientUnits="userSpaceOnUse" x1="-1854.672" y1="240.884" x2="-1901.335" y2="135.695" gradientTransform="scale(-1 1) rotate(-7.036 -59.333 -11532.964)"><stop offset="0" stop-color="#40447e"/><stop offset=".996" stop-color="#3c3b6b"/></linearGradient><path d="M426.93 232.73a4213.769 4213.769 0 015.76 161.06l8.26 1.02c2.66-4.96 6.2-12.53 8.62-22.24 2.94-11.79 2.26-18.8 3.55-31.02 1.45-13.71 3.55-16.7 7.27-33.99 7.56-35.1 11.34-52.65 2.91-63.57-2.74-3.56-11.32-12.45-36.37-11.26z" fill="url(#SVGID_32_)"/><linearGradient id="SVGID_33_" gradientUnits="userSpaceOnUse" x1="-1585.888" y1="201.458" x2="-1538.348" y2="429.446" gradientTransform="matrix(-1 0 0 1 -1138.836 0)"><stop offset="0" stop-color="#ffc444"/><stop offset=".996" stop-color="#f36f56"/></linearGradient><path d="M467.08 157.2c-6.45-1.81-15.91-3.94-27.48-4.59-16.51-.93-24.77-1.4-30.62 2.53-13.51 9.08-3.05 30.05-8.58 82.01-.79 7.42-.97 14.9-1.54 22.34-.95 12.32-1.16 12.99-.31 14.24 5.38 7.83 25.43-3.98 54.83.69 16.45 2.61 23.91 8.63 28.41 4.29 5.26-5.06.75-18.67-3.13-30.39-4.45-13.45-7.21-13.62-9.73-23.76-2.64-10.59-1.04-16.04-.63-32.74.18-7.99.14-19.88-1.22-34.62z" fill="url(#SVGID_33_)"/><g opacity=".3"><linearGradient id="SVGID_34_" gradientUnits="userSpaceOnUse" x1="-1598.918" y1="345.544" x2="-1578.05" y2="246.42" gradientTransform="matrix(-1 0 0 1 -1138.836 0)"><stop offset="0" stop-color="#ffc444"/><stop offset=".996" stop-color="#f36f56"/></linearGradient><path d="M427.1 254.76c7.68-.6 12.67 3.74 19.3.36 9.09-4.64 12.02-19.09 11.44-29.31-.88-15.53-9.75-19.63-8.22-29.67.83-5.43 4.7-12.64 18.62-20 .19 6.2.15 11.48.05 15.68-.41 16.7-2.01 22.15.63 32.74 2.53 10.13 5.28 10.3 9.73 23.76 3.88 11.72 8.39 25.33 3.13 30.39-4.51 4.34-11.97-1.68-28.41-4.29-25.33-4.02-43.72 4.18-51.76 1.52 9.72-16.06 18.54-20.63 25.49-21.18z" fill="url(#SVGID_34_)"/></g><linearGradient id="SVGID_35_" gradientUnits="userSpaceOnUse" x1="-1616.709" y1="180.903" x2="-1579.104" y2="361.245" gradientTransform="matrix(-1 0 0 1 -1138.836 0)"><stop offset="0" stop-color="#ffc444"/><stop offset=".996" stop-color="#f36f56"/></linearGradient><path d="M456.59 158.26c5.49-4.51 16.52.6 19.47 1.96 16.45 7.61 31.22 28.11 27.56 49.78-.55 3.25-3.09 18.45-15.96 25.81-11.61 6.64-27.29 4.94-39.86-4.48-1.72-1.52-3.43-3.05-5.15-4.57-1.69-1.83-3.38-3.65-5.07-5.48 2.66-2.21 7.17-5.39 13.5-7.44 8.35-2.7 14.44 2.14 18.31-1.54 2.67-2.54 2.68-7.02 2.02-9.74-1.33-5.48-6.16-7.02-10.19-10.9-9.45-9.11-11.2-28-4.63-33.4z" fill="url(#SVGID_35_)"/><linearGradient id="SVGID_36_" gradientUnits="userSpaceOnUse" x1="-1542.42" y1="259.406" x2="-1551.318" y2="234.196" gradientTransform="matrix(-1 0 0 1 -1138.836 0)"><stop offset="0" stop-color="#311944"/><stop offset="1" stop-color="#893976"/></linearGradient><path fill="url(#SVGID_36_)" d="M377.73 229l73.56-1.1-19.56 9.44-54.18-3.55z"/><linearGradient id="SVGID_37_" gradientUnits="userSpaceOnUse" x1="-1581.29" y1="222.88" x2="-1578.028" y2="245.421" gradientTransform="matrix(-1 0 0 1 -1138.836 0)"><stop offset="0" stop-color="#311944"/><stop offset="1" stop-color="#893976"/></linearGradient><path d="M453.88 229.85c0 1.38-.86 2.61-2.15 3.08l-23.5 9.21-.11-6.39 23.17-7.86c1.3-.36 2.59.61 2.59 1.96z" fill="url(#SVGID_37_)"/><linearGradient id="SVGID_38_" gradientUnits="userSpaceOnUse" x1="424.169" y1="226.418" x2="442.608" y2="226.418"><stop offset="0" stop-color="#ffc444"/><stop offset=".996" stop-color="#f36f56"/></linearGradient><path d="M442.56 225.5c.45-.1-2.2-5.38-4.28-4.77-2.08.61-12.26 6.51-13.18 8.94l-.93 2.43s4.44.35 7.19-.58c2.76-.93 7.53-5.2 11.2-6.02z" fill="url(#SVGID_38_)"/><linearGradient id="SVGID_39_" gradientUnits="userSpaceOnUse" x1="-1516.646" y1="224.854" x2="-1533.993" y2="200.221" gradientTransform="matrix(-1 0 0 1 -1138.836 0)"><stop offset="0" stop-color="#444b8c"/><stop offset=".996" stop-color="#26264f"/></linearGradient><path d="M426.17 190.94l5.18 47.21c.18 1.63-2.1 4.06-3.74 3.98l-76.06-4.67a2.664 2.664 0 01-2.5-2.21l-9.55-45.59c-.28-1.66 2.7-3.37 4.38-3.33l79.7 2.24c1.34.03 2.44 1.04 2.59 2.37z" fill="url(#SVGID_39_)"/><linearGradient id="SVGID_40_" gradientUnits="userSpaceOnUse" x1="-1549.921" y1="265.622" x2="-1511.957" y2="188.508" gradientTransform="matrix(-1 0 0 1 -1138.836 0)"><stop offset="0" stop-color="#311944"/><stop offset="1" stop-color="#893976"/></linearGradient><path d="M424.43 192.31l5.18 47.21a2.661 2.661 0 01-2.78 2.95l-77.02-3.65a2.664 2.664 0 01-2.5-2.21l-7.87-45.8a2.674 2.674 0 012.7-3.12l79.7 2.24c1.34.05 2.44 1.06 2.59 2.38z" fill="url(#SVGID_40_)"/><linearGradient id="SVGID_41_" gradientUnits="userSpaceOnUse" x1="-1568.466" y1="216.128" x2="-1485.065" y2="216.128" gradientTransform="matrix(-1 0 0 1 -1138.836 0)"><stop offset="0" stop-color="#311944"/><stop offset="1" stop-color="#893976"/></linearGradient><path d="M379.2 227.77c6.73-2.85 4.35-8.29 12.29-15.06 10.48-8.94 21.16-5.06 24.89-11.99 1.16-2.16 1.72-5.51-.31-10.95l5.77.16c1.33.04 2.43 1.05 2.58 2.37l5.18 47.21a2.661 2.661 0 01-2.78 2.95l-77.02-3.65a2.664 2.664 0 01-2.5-2.21l-1.09-6.32c2.34-1.3 5.13-2.48 8.39-3.14 11.32-2.28 16.86 3.91 24.6.63z" opacity=".3" fill="url(#SVGID_41_)"/><linearGradient id="SVGID_42_" gradientUnits="userSpaceOnUse" x1="344.933" y1="235.85" x2="357.373" y2="235.85"><stop offset="0" stop-color="#ffc444"/><stop offset=".996" stop-color="#f36f56"/></linearGradient><path d="M344.96 232.23c-.13-.38.14-.77.54-.79 1.63-.08 5.4-.12 7.49 1.16 2.71 1.66 6.21 4.68 3.26 6.21l-2.75 1.43c-.13.07-.26.09-.4.06-.98-.22-5.1-1.13-5.55-1.36-.41-.21-1.98-4.87-2.59-6.71z" fill="url(#SVGID_42_)"/><linearGradient id="SVGID_43_" gradientUnits="userSpaceOnUse" x1="439.155" y1="134.613" x2="435.974" y2="188.68"><stop offset="0" stop-color="#ffc444"/><stop offset=".996" stop-color="#f36f56"/></linearGradient><path d="M438.36 134.57c-.04 4.9.51 8.78 1.02 11.44.59 3.05 1.02 3.83 1.56 4.47.82.96 2.06 1.77 9.08 3.51 3.82.95 4.31.92 4.39 1.3.41 1.85-10 8.15-20.75 6.63-6.58-.93-12.57-4.68-12.2-6.66.37-1.98 6.95-.92 8.9-4.51 1.36-2.5-.16-6.04-1.97-8.98 1.75-3.28 8.22-3.93 9.97-7.2z" fill="url(#SVGID_43_)"/><linearGradient id="SVGID_44_" gradientUnits="userSpaceOnUse" x1="528.374" y1="-11.153" x2="515.921" y2="-42.781" gradientTransform="translate(-83.966 168.65)"><stop offset="0" stop-color="#311944"/><stop offset="1" stop-color="#6b3976"/></linearGradient><path d="M426.14 136.5c-1.55-2.06-1.65-5.67.14-7.94 1.54-1.96 3.96-2.24 5.42-2.41 4.21-.49 9.51 1.27 11.36 5.14 1.09 2.29-1.27 7.06-1.64 7.92-.42.97-1.18 1.3-1.88 2.03-.98 1.02-2.5 2.63-4.99 5.33-.19-.8-.49-1.78-.96-2.85-.18-.41-.9-2.02-2-3.35-2.2-2.68-3.98-1.91-5.45-3.87z" fill="url(#SVGID_44_)"/><linearGradient id="SVGID_45_" gradientUnits="userSpaceOnUse" x1="425.42" y1="141.204" x2="441.375" y2="141.204"><stop offset="0" stop-color="#ffc444"/><stop offset=".996" stop-color="#f36f56"/></linearGradient><path d="M438.09 144.3s-2.76 4.54-8.27 4.18c-4.93-.32-5.65-11.37-2.5-13.72 1.05-.78 3.15-1.11 4.86-.63 1.01.28 1.35.7 3.01 1.13 1.53.4 1.96.23 2.43.62.58.49 1 1.68.04 4.91.94-.95 2.07-1.32 2.87-.94.13.06.47.29.66.64.68 1.26-.48 2.88-3.1 3.81z" fill="url(#SVGID_45_)"/><linearGradient id="SVGID_46_" gradientUnits="userSpaceOnUse" x1="524.57" y1="-9.638" x2="512.104" y2="-41.299" gradientTransform="translate(-83.966 168.65)"><stop offset="0" stop-color="#311944"/><stop offset="1" stop-color="#6b3976"/></linearGradient><path d="M437.84 135.22c-.24.18.49 1.06.54 2.32.11 2.44-2.36 5.36-4.88 5.61-1.49.15-1.9-.75-4.35-1.01-1.52-.16-2.79.03-3.59.21-.77 2.67-.05 5.34 1.74 6.57 1.92 1.33 4.38.52 5.41.19.69-.23 2.89-.94 4.04-2.96 1.2-2.1.02-3.37 1.4-4.79.69-.72 1.6-1.03 2.49-2.42.24-.38.4-.71.5-.94-1.27-1.35-2.96-3.03-3.3-2.78z" fill="url(#SVGID_46_)"/><linearGradient id="SVGID_47_" gradientUnits="userSpaceOnUse" x1="426.954" y1="143.946" x2="430.46" y2="143.946"><stop offset="0" stop-color="#ffc444"/><stop offset=".996" stop-color="#f36f56"/></linearGradient><path d="M427.36 143.34s1.06.56 2.9.45c.09-.01.19.02.2.07.04.17-1.14.96-2.22.65-.77-.22-1.37-.95-1.27-1.13.04-.08.21-.07.39-.04z" fill="url(#SVGID_47_)"/></svg>