<svg version="1.1" id="Layer_1" xmlns="http://www.w3.org/2000/svg" x="0" y="0" viewBox="0 0 610 410" xml:space="preserve"><style>.st4{fill:#f4f4f4}.st5{fill:#fff}.st11{fill:#4e85de}.st12{fill:#72acfb}.st19{fill:#bfd4fc}.st20{fill:#dcd0c8}.st21{fill:#6d6865}.st23{fill:#948c87}.st25{fill:#ebb35c}.st26{fill:#454971}.st27{fill:#2e3048}.st28{fill:#dba585}.st29{fill:#3e4148}.st30{fill:#363957}.st31{fill:#8c8581}.st41{fill:#dedede}.st42{fill:#df655a}.st51{fill:#3a3d5d}.st53{fill:#e6d8d1}.st54{fill:#cd7250}.st56{fill:#c8bcb6}.st57{fill:#cfc3bc}.st58{fill:#4c507d}.st60{fill:#f3e4dc}</style><linearGradient id="SVGID_1_" gradientUnits="userSpaceOnUse" x1="-12492.859" y1="-209.855" x2="-12385.351" y2="-209.855" gradientTransform="scale(-1 1) rotate(-3.084 265.882 -227952.3)"><stop offset=".005" stop-color="#4a612f"/><stop offset="1" stop-color="#769a42"/></linearGradient><path d="M212.67 149.54c6.97 15.21 10.88 29.6 5.75 36.02-.3.38-.63.73-.99 1.05-3.95 3.48-11.73 3.56-24.85-1.62-34.93-13.8-36.59-37.61-43.65-60.86-6.96-22.96-31.29-19.08-31.91-18.98 56.68-19.75 83.82 18.61 95.65 44.39z" fill="url(#SVGID_1_)"/><linearGradient id="SVGID_2_" gradientUnits="userSpaceOnUse" x1="-3985.684" y1="3180.716" x2="-3985.684" y2="3105.119" gradientTransform="rotate(-41.453 -5825.512 -3877.071)"><stop offset=".005" stop-color="#4a612f"/><stop offset="1" stop-color="#769a42"/></linearGradient><path d="M218.42 185.56c-.3.38-.63.73-.99 1.05-6.56-3.95-19.12-12.33-25.05-21.74-2.79-4.44-5.14-9.43-7.63-14.71-4.7-9.99-9.57-20.32-18.07-28.24l.95-1.02c8.69 8.11 13.61 18.56 18.37 28.67 2.47 5.24 4.8 10.2 7.55 14.56 5.78 9.17 18.47 17.58 24.87 21.43z" fill="url(#SVGID_2_)"/><linearGradient id="SVGID_3_" gradientUnits="userSpaceOnUse" x1="-12482.571" y1="-242.305" x2="-12431.681" y2="-242.305" gradientTransform="scale(-1 1) rotate(-3.084 265.882 -227952.3)"><stop offset=".005" stop-color="#4a612f"/><stop offset="1" stop-color="#769a42"/></linearGradient><path d="M206.6 155.76c-.41 1.01-.68 1.58-.71 1.65-.11-.56-.21-1.11-.32-1.65-4.66-23.87-10.89-26.37-29.57-47.25-19.11-21.36-8.12-41.26-8.12-41.26 64.01 18.49 43.07 77.83 38.72 88.51z" fill="url(#SVGID_3_)"/><linearGradient id="SVGID_4_" gradientUnits="userSpaceOnUse" x1="-2345.111" y1="2679.612" x2="-2345.111" y2="2605.382" gradientTransform="rotate(-29.454 -5871.803 -3446.937)"><stop offset=".005" stop-color="#4a612f"/><stop offset="1" stop-color="#769a42"/></linearGradient><path d="M206.6 155.76c-.41 1.01-.68 1.58-.71 1.65-.11-.56-.21-1.11-.32-1.65 2.07-20.64-10.38-44.86-14.29-49.2-4.05-4.5-6.54-10.69-7.49-13.02-.16-.39-.31-.75-.36-.84l.9-.51c.08.14.18.4.41.96.92 2.28 3.37 8.35 7.3 12.71 4.97 5.51 16.46 29.84 14.56 49.9z" fill="url(#SVGID_4_)"/><path class="st4" d="M461.88 147.19H240.36c-24.44 0-44.25-19.81-44.25-44.25v-26.6c0-24.44 19.81-44.25 44.25-44.25h221.52c24.44 0 44.25 19.81 44.25 44.25v26.61c0 24.43-19.81 44.24-44.25 44.24z"/><path class="st5" d="M212.35 281.74h116.23v3.89H212.35z"/><linearGradient id="SVGID_5_" gradientUnits="userSpaceOnUse" x1="341.098" y1="265.541" x2="175.152" y2="265.541"><stop offset="0" stop-color="#eebe63"/><stop offset="1" stop-color="#dc3b57"/></linearGradient><path fill="url(#SVGID_5_)" d="M212.35 263.6h86.32v3.89h-86.32z"/><linearGradient id="SVGID_6_" gradientUnits="userSpaceOnUse" x1="341.099" y1="274.614" x2="175.152" y2="274.614"><stop offset="0" stop-color="#eebe63"/><stop offset="1" stop-color="#dc3b57"/></linearGradient><path fill="url(#SVGID_6_)" d="M212.35 272.67h93.28v3.89h-93.28z"/><linearGradient id="SVGID_7_" gradientUnits="userSpaceOnUse" x1="341.096" y1="283.686" x2="175.153" y2="283.686"><stop offset="0" stop-color="#eebe63"/><stop offset="1" stop-color="#dc3b57"/></linearGradient><path fill="url(#SVGID_7_)" d="M212.35 281.74h60.52v3.89h-60.52z"/><path class="st4" d="M299.31 331.82H177.97c-20.29 0-36.74-16.45-36.74-36.74V190.16c0-20.29 16.45-36.73 36.73-36.73h121.35c20.29 0 36.73 16.45 36.73 36.73v104.93c.01 20.29-16.44 36.73-36.73 36.73z"/><path d="M213.43 207.46c3.95-11.04.38-22.94-8.05-30.11a27.48 27.48 0 00-6.82-4.25c-.56-.24-1.13-.47-1.71-.67a27.327 27.327 0 00-17.4-.36c-7.92 2.48-14.63 8.52-17.64 16.93a27.36 27.36 0 00-1.59 8.41c-.35 11.55 6.7 22.52 18.17 26.62 14.26 5.1 29.95-2.32 35.04-16.57zm-32.72 10.12c-8.6-3.08-13.88-11.3-13.62-19.96.06-2.1.45-4.22 1.2-6.3a20.527 20.527 0 0113.22-12.7 20.465 20.465 0 0114.32.78c1.9.82 3.61 1.9 5.12 3.19 6.32 5.38 8.99 14.3 6.03 22.57-3.83 10.68-15.59 16.24-26.27 12.42z" fill="#90c1fc"/><path d="M181.5 178.62l-2.05-6.55c-7.92 2.48-14.63 8.52-17.64 16.93a27.36 27.36 0 00-1.59 8.41l6.86.2c.06-2.1.45-4.22 1.2-6.3 2.26-6.31 7.28-10.83 13.22-12.69z" fill="#4372bd"/><path class="st11" d="M195.83 179.4l2.74-6.29c-.56-.24-1.13-.47-1.71-.67a27.327 27.327 0 00-17.4-.36l2.05 6.55c4.11-1.29 8.67-1.29 13.04.27.43.14.86.31 1.28.5z"/><path class="st12" d="M205.39 177.35a27.48 27.48 0 00-6.82-4.25l-2.74 6.29c1.9.82 3.61 1.9 5.12 3.19l4.44-5.23zm85.76 85.75h9.51v32.57h-9.51zm-14.14 9.13h9.51v23.44h-9.51zM304.86 248h9.51v47.67h-9.51zm7.98-23.82l-.17-1.03-25.1 4.11-8.14 17.35-27.05 1.83-8.77 12.93-20.69-.51-.02 1.04 21.25.53 8.8-12.98 27.17-1.85 8.16-17.4z"/><path class="st11" d="M282.17 180.77h27.05c1.71 0 3.09-1.38 3.09-3.09s-1.38-3.09-3.09-3.09h-27.05c-1.71 0-3.09 1.38-3.09 3.09a3.08 3.08 0 003.09 3.09z"/><path class="st12" d="M282.17 191.56h27.05c1.71 0 3.09-1.38 3.09-3.09s-1.38-3.09-3.09-3.09h-27.05c-1.71 0-3.09 1.39-3.09 3.09a3.08 3.08 0 003.09 3.09zm0 10.79h27.05c1.71 0 3.09-1.38 3.09-3.09s-1.38-3.09-3.09-3.09h-27.05c-1.71 0-3.09 1.38-3.09 3.09-.01 1.7 1.38 3.09 3.09 3.09zm-48.96-16.23h-15.47v-.59h15.22l8.15-8.15h9.97v.6h-9.73zm14.66 27.02h-19.91l-6.45-6.45.42-.42 6.28 6.28h19.66z"/><path class="st11" d="M242.58 181.31h20.64v2.53h-20.64zm-6.3 25.82h16.61v2.53h-16.61z"/><linearGradient id="SVGID_8_" gradientUnits="userSpaceOnUse" x1="92.343" y1="298.927" x2="152.632" y2="298.927"><stop offset="0" stop-color="#81d3e4"/><stop offset="1" stop-color="#6076fa"/></linearGradient><path d="M97.61 219.26c5.2-2.49 10.37 14.06 10.37 14.06 8.84 11.68 21.18-3.86 19.98 13.6-2.11 30.54 35.15 9.6 17.96 41.49-17.19 31.88 15.18 18.03 4.5 43.74s3.16 56.38-12.91 43.77c0 0-14.15-31.04-28.75-40.64-14.6-9.6 8.74-21 4.18-34.05-6.63-18.95-22.62-18.2-11.09-38.56 11.51-20.36-21.91-34.96-4.24-43.41z" fill="url(#SVGID_8_)"/><path class="st5" d="M142.6 364.24c-6.97-4.9-15.12-39.05-15.61-59.39-.25-10.42-3.33-14.76-6.05-18.59-2.6-3.66-4.84-6.82-3.53-14.08 2.5-13.87-4.07-19.86-4.13-19.92l.76-.87c.29.26 7.13 6.43 4.51 20.99-1.22 6.79.79 9.62 3.34 13.21 2.67 3.77 6 8.46 6.26 19.23.52 21.83 8.86 54.07 15.12 58.48l-.67.94z"/><linearGradient id="SVGID_9_" gradientUnits="userSpaceOnUse" x1="136.569" y1="332.568" x2="191.089" y2="332.568"><stop offset="0" stop-color="#81d3e4"/><stop offset="1" stop-color="#6076fa"/></linearGradient><path d="M145.2 366.77c-.9 0-1.88-.1-2.95-.32-2.69-.54-4.45-1.96-5.24-4.21-1.88-5.37 2.48-14.1 6.01-18.31.06-.07 5.97-7.3 5.34-17.31-.11-1.68-.28-3.23-.43-4.6-.44-3.96-.76-6.83.94-8.74 1.5-1.69 4.4-2.42 9.68-2.44 9.27-.04 12.94-3.88 15.89-6.97 1.25-1.31 2.43-2.55 3.87-3.33 4.62-2.52 9.52-2.89 11.64-.88 1.01.96 1.86 2.83.19 6.32-1.53 3.19-3.51 5.21-5.1 6.84-2.14 2.18-3.55 3.63-2.82 6.5.17.68.37 1.36.57 2.04 1.43 4.89 3.05 10.43-5.32 14.19-1.78.8-3.39 1.43-4.82 1.99-5.84 2.29-9.37 3.68-13.35 12.08-.77 1.63-1.45 3.17-2.11 4.66-3.13 7.11-5.5 12.49-11.99 12.49zm33.67-65.22c-1.28.7-2.35 1.82-3.59 3.12-3.1 3.24-6.95 7.28-16.72 7.32-4.86.02-7.59.66-8.83 2.05-1.36 1.53-1.06 4.18-.65 7.85.16 1.39.33 2.95.44 4.66.66 10.49-5.35 17.82-5.61 18.12-3.5 4.16-7.46 12.45-5.8 17.19.64 1.84 2.12 3.01 4.37 3.46 7.88 1.59 10.06-3.34 13.66-11.51.66-1.5 1.35-3.05 2.12-4.69 4.18-8.82 8.07-10.35 13.97-12.66 1.42-.56 3.02-1.18 4.77-1.97 7.45-3.35 6.11-7.95 4.69-12.82-.2-.7-.41-1.39-.58-2.08-.9-3.51.87-5.31 3.11-7.6 1.61-1.64 3.44-3.51 4.88-6.53.76-1.58 1.38-3.73.06-4.99-1.74-1.63-6.17-1.17-10.29 1.08z" fill="url(#SVGID_9_)"/><linearGradient id="SVGID_10_" gradientUnits="userSpaceOnUse" x1="141.229" y1="340.496" x2="182.151" y2="340.496"><stop offset="0" stop-color="#81d3e4"/><stop offset="1" stop-color="#6076fa"/></linearGradient><path d="M142.38 373.43l-1.15-.06c.06-1.08 1.51-26.57 11.74-34.03 11.23-8.18 14.77-16.98 16.45-22.88 1.99-6.96 12.1-8.81 12.53-8.89l.2 1.13c-.1.02-9.83 1.81-11.62 8.07-1.73 6.07-5.37 15.1-16.88 23.49-9.79 7.15-11.26 32.91-11.27 33.17z" fill="url(#SVGID_10_)"/><linearGradient id="SVGID_11_" gradientUnits="userSpaceOnUse" x1="126.453" y1="307.566" x2="174.109" y2="307.566"><stop offset="0" stop-color="#81d3e4"/><stop offset="1" stop-color="#6076fa"/></linearGradient><path d="M165.78 244.98c-7.27-2.49-5.76 11.53-8.84 21.9-3.07 10.37-34.19 4.52-21.13 30.5 13.06 25.97-16.52 8.69-7.68 31.35 8.84 22.66.77 46.9 10.37 40.74 9.6-6.17 5.4-34.71 15.38-38.1 9.99-3.39 11.62-7.35 1.73-16.57-9.89-9.22 25.91-18.37 17.08-36.99-8.83-18.61 1.49-29.95-6.91-32.83z" fill="url(#SVGID_11_)"/><path class="st5" d="M142.96 368.38c-.91-3.88-8.73-38.03-1.44-42.15 6.42-3.64 6.27-17.79 5.26-31.15-.89-11.83 14.3-17.35 14.95-17.58l.38 1.09c-.15.05-15.01 5.47-14.19 16.41 1.03 13.72 1.14 28.28-5.85 32.24-5.54 3.14-.44 30.58 1.99 40.89l-1.1.25z"/><linearGradient id="SVGID_12_" gradientUnits="userSpaceOnUse" x1="115.517" y1="375.924" x2="159.492" y2="375.924"><stop offset="0" stop-color="#e59148"/><stop offset="1" stop-color="#f1cc52"/></linearGradient><path fill="url(#SVGID_12_)" d="M159.49 356.23l-10.38 39.39H125.9l-10.38-39.39z"/><linearGradient id="SVGID_13_" gradientUnits="userSpaceOnUse" x1="115.517" y1="375.924" x2="159.492" y2="375.924"><stop offset="0" stop-color="#b37239"/><stop offset="1" stop-color="#f1cc52"/></linearGradient><path d="M159.49 356.23s-22.86 4.29-22.86 39.4H125.9l-10.38-39.4h43.97z" fill="url(#SVGID_13_)"/><path class="st19" d="M222.28 16.42v3.34h-32.57v32.57h-3.34V16.42zm268.28-9.74h26.51v1.86h-26.51zm0 3.5h26.51V18h-26.51zm-18.18 2.97h15.64v1.17h-15.64zm0 1.68h15.64v3.16h-15.64z"/><path class="st19" d="M516.49 6.68h1.17v21.89h-1.17z"/><path class="st20" d="M191.72 305.04h32.72v1.94h-32.72z"/><path transform="rotate(-180 197.539 356.203)" class="st21" d="M196.11 312.04h2.87v88.32h-2.87z"/><path fill="#c6bbb5" d="M219.32 304.49h22.74v2.77h-22.74z"/><path class="st23" d="M226.38 280.83h8.61v26.16h-8.61z"/><path fill="#a98e75" d="M179.98 307.02h126v5.02h-126z"/><path class="st25" d="M155.8 276.62s-1.38 19.32 2.4 21.64c2.37 1.45 11.8 6.34 11.52 7.25-.28.92-5.32 8.15-5.32 8.15s-18.12-11.93-18.7-15.69c-.57-3.67.89-28.3 3.38-29.43 1.86-.85 2.85-.15 5.2 1.6 3.29 2.46 1.52 6.48 1.52 6.48z"/><path class="st26" d="M178.09 388.3s-.56 3.91-.63 4.5c-.07.59-6.27-.35-6.27-.35l-.5-4.66c0 .01 6.63-.04 7.4.51z"/><path class="st27" d="M177.52 392.3s1.96 2.36 3.86 3.38c1.9 1.03 4.88 1.43 6.01 2.5.81.77 2.95 4.07-4.93 4.01-7.89-.07-11.69.47-12.53-.8-.85-1.27 1.22-9.35 1.22-9.35s1.86.67 6.37.26z"/><path class="st26" d="M217.79 388.34s-.56 3.91-.63 4.5c-.07.59-6.27-.35-6.27-.35l-.5-4.66c0 .01 6.63-.04 7.4.51z"/><path class="st27" d="M217.22 392.34s1.96 2.36 3.86 3.38c1.9 1.03 8.89 1.87 10.01 2.93.81.77 2.16 3.86-8.94 3.57-7.88-.2-11.69.47-12.53-.8-.85-1.27 1.22-9.35 1.22-9.35s1.77.72 6.38.27zm-59.11-71.58s22.53 3.81 27.62 4.61c5.09.8 32.68 7.67 36.13 9.76 2.75 1.67-1.44 41.66-2.42 56.92h-10.87l-.79-45.77c-13.04.33-22.34-3.05-31.84-1.61-9.5 1.44-17.41 3.49-23.45-4.6 0-.01-.22-17.54 5.62-19.31z"/><path class="st27" d="M180.31 392.08l-10.59-.66-1.03-45.15c-5.61.14-7.54-.22-12.08-.77l-8.55-19.87c7.49 1.5 31.5 7.55 34.7 9.5 2.75 1.66-1.47 41.69-2.45 56.95z"/><path class="st28" d="M168.48 236.32s8.26-2.28 11.41 4.13c3.15 6.41 1.72 18.56-2.44 19.71-4.16 1.14-10.15-.17-11.88-4.16-1.73-3.99-3.11-9.66-2.69-13.33.41-3.68 3.4-5.48 5.6-6.35z"/><path class="st28" d="M175.29 258.87s-.09 4.88.45 5.92-11.5.78-11.5.78 1.9-5.86.82-10.84c-1.07-4.94 10.23 4.14 10.23 4.14z"/><path class="st29" d="M164.41 252.88s.64 1.31 3.76 1.1c3.12-.21 7.23-3.97 8.55-4.3 1.32-.34 1.4-1.09 1.4-1.09l.7 1.24 1.36.21s-.92-3.77 1.09-5.09c2.01-1.33-.9-12.01-11.06-9.43 0 0-7.75 1.42-7.86 5.75-.12 4.31.55 9.31 2.06 11.61z"/><path class="st20" d="M176.37 264.66s-.03-1.99-.93-2.18c-.9-.19-9.46-1.37-10.57-.93l-.47 2.62c-.01 0 2.12 1.32 11.97.49z"/><path class="st28" d="M178.84 247.69c-.23-1.63-2.08-3.5-3.14-.96-1.06 2.53.72 6.23 1.9 6.03 1.2-.2 1.56-2.86 1.24-5.07z"/><path class="st30" d="M212.23 288.13h-.01c.06.02.06.02.01 0z"/><path class="st29" d="M166.07 237.48s-10.07-.47-1.76 15.24l1.76-15.24z"/><path class="st31" d="M143.63 397.43l.75 2.11 31.65-9.81-1.52-4.26z"/><path class="st31" d="M173.52 353.82h3.6v34.41h-3.6z"/><path fill="#5d5955" d="M164.71 351.99h21.22v2.03h-21.22z"/><path class="st31" d="M207.28 397.43l-.75 2.11-31.65-9.81 1.39-4.53z"/><path class="st31" d="M184.98 399.31v2.45l-10.1-12.03 1.39-4.53z"/><path d="M210.24 400.36a2.96 2.96 0 11-2.96-2.96c1.63.01 2.96 1.33 2.96 2.96zm-25.01 0a2.96 2.96 0 11-5.92 0 2.96 2.96 0 015.92 0zm-38.64 0a2.96 2.96 0 11-5.92 0 2.96 2.96 0 015.92 0z" fill="#b9afaa"/><path class="st20" d="M196.75 351.99h-42.58a3.841 3.841 0 010-7.68h42.58a3.841 3.841 0 010 7.68z"/><path class="st21" d="M287 312.04h2.87v88.32H287z"/><path d="M256.16 293.43h-50.94c-6.47 0-11.71-5.24-11.71-11.71v-29.04c0-6.46 5.24-11.71 11.71-11.71h50.95c6.47 0 11.71 5.24 11.71 11.71v29.04c-.01 6.47-5.26 11.71-11.72 11.71z" fill="#b2a8a3"/><path fill="#f4f6ff" d="M196.42 243.81h68.54v41.4h-68.54z"/><path d="M261.91 289.12c0 1.18-1.24 2.13-2.76 2.13-1.53 0-2.76-.95-2.76-2.13s1.24-2.13 2.76-2.13c1.52-.01 2.76.95 2.76 2.13z" fill="#8c8480"/><path class="st23" d="M246.08 307.09v-.93s-1.31-5.81-10.6-5.81c-9.28 0-9.09 6.74-9.09 6.74h19.69z"/><path class="st28" d="M226.28 301.21s2.02-.16 2.76-.6c.74-.45 5.16-3.42 6.2-2.94s7.95 2.59 7.71 3.6c-.24 1.01-.88.91-1.37.73-.49-.18-5.5-1.23-5.95-1.05 0 0 4.93 1.8 4.95 3.11.02 1.31-1.03 1.63-1.5 2.13s-1.03 1.73-2.3 1.82c-1.27.1-7.47-2.06-8.74-2.16-1.28-.1-3.64.08-3.8-.13-.16-.21 2.04-4.51 2.04-4.51z"/><path class="st25" d="M189.56 267.41c-6.43-1.13-13.2-2.75-13.2-2.75l-11.97-.49s-10.99 2.42-15.32 4.37c-.41.19-.41 9.81-1.54 12.33l3.59 7.57s2.07 15 2.5 21.67c.2 3.06-.56 29.59-.56 29.59s1.08.53 9.25 1.43c8.17.9 28.59-.32 28.72-1.29.13-.97-3.95-35.95-4.14-37.76-.28-2.78.8-15.63.8-15.63 1.54 2.07 5.47 11.41 9.56 15.86 2.41 2.61 14.33 4.22 16.57 4.29 4.89.16 13.81 1.14 14.07.66.21-.29.78-7.92.22-8.11-.49-.16-17.05-1.12-21.3-3.37-1.55-.82-6.19-10.94-6.19-10.94s-7.51-15.83-11.06-17.43z"/><path class="st20" d="M159.93 338.93h-8.02c-7.36 0-13.32-5.96-13.32-13.32v-21.36c0-7.36 5.97-13.33 13.33-13.33h8.01c7.36 0 13.32 5.97 13.32 13.32v21.36c0 7.37-5.97 13.33-13.32 13.33z"/><path class="st20" d="M167.1 350.08c-5.11 0-9.26-1.72-12.32-5.1-6.93-7.65-5.68-21.1-5.63-21.67.1-1.06 1.05-1.84 2.11-1.73 1.06.11 1.83 1.05 1.73 2.11-.02.15-1.12 12.34 4.65 18.71 2.34 2.57 5.43 3.83 9.46 3.83 1.06 0 1.93.86 1.93 1.93 0 1.06-.86 1.92-1.93 1.92z"/><path d="M220.51 249.29h-18.39c-.47 0-.84-.38-.84-.84v-.51c0-.46.38-.84.84-.84h18.4c.46 0 .84.38.84.84v.51c-.01.47-.38.84-.85.84zm.01 4.7h-18.4c-.46 0-.84-.38-.84-.84v-.51c0-.46.38-.84.84-.84h18.39c.46 0 .84.38.84.84v.51c0 .46-.37.84-.83.84zm-4.81 27.92h-8.78a5.65 5.65 0 01-5.65-5.65v-13.44a5.64 5.64 0 015.64-5.64h8.79a5.65 5.65 0 015.65 5.65v13.45a5.646 5.646 0 01-5.65 5.63zm36.51 0h-17.89c-4.93 0-8.93-4-8.93-8.93v-16.94c0-4.93 4-8.93 8.93-8.93h17.88c4.94 0 8.94 4 8.94 8.94v16.94c.01 4.92-3.99 8.92-8.93 8.92z" fill="#dedfe6"/><path class="st12" d="M288.65 78.84c-6.03-16.86-22.14-27.21-39.12-26.7-4.11.13-8.27.88-12.35 2.34-12.37 4.42-21.23 14.27-24.88 25.91-2.53 8.06-2.54 16.99.53 25.56a40.057 40.057 0 007.23 12.53c10.54 12.39 28.02 17.62 44.24 11.82 20.93-7.48 31.84-30.52 24.35-51.46zm-27.75 41.98c-12.16 4.35-25.27.42-33.17-8.86a30.037 30.037 0 01-4.68-7.52c-.27-.61-.52-1.24-.74-1.88a29.985 29.985 0 01-.39-19.16c2.73-8.73 9.38-16.11 18.65-19.43a30.21 30.21 0 019.26-1.76c12.73-.38 24.81 7.38 29.33 20.02 5.62 15.7-2.56 32.98-18.26 38.59z"/><path d="M221.92 83.4l-9.62-3c3.64-11.64 12.51-21.49 24.88-25.91a40.13 40.13 0 0112.35-2.34l.3 10.07c-3.08.1-6.2.66-9.26 1.76-9.27 3.31-15.92 10.69-18.65 19.42z" fill="#385988"/><path d="M223.06 104.45l-9.24 4.02a42.2 42.2 0 01-.99-2.51 40.089 40.089 0 01-.53-25.56l9.62 3a30.05 30.05 0 001.14 21.05z" fill="#4772b0"/><path d="M220.06 118.49a40.057 40.057 0 01-6.24-10.02l9.24-4.02a30.4 30.4 0 004.68 7.52l-7.68 6.52z" fill="#5886c7"/><path class="st41" d="M304.57 81.3h7.13v50.78h-7.13zm17.7 10.32h7.13v40.46h-7.13zm17.71-7.59h7.13v48.06h-7.13zm17.7 14.99h7.13v33.07h-7.13zm17.7-13.44h7.13v46.5h-7.13zm17.71-7.01h7.13v53.51h-7.13zm17.7-2.92h7.13v56.43h-7.13z"/><path class="st42" d="M304.57 100.22h7.13v31.86h-7.13zm17.7 6.48h7.13v25.39h-7.13zm17.71-4.77h7.13v30.15h-7.13zm17.7 9.41h7.13v20.74h-7.13zm17.7-8.43h7.13v29.17h-7.13zm17.71-4.4h7.13v33.57h-7.13zm17.7-1.83h7.13v35.4h-7.13z"/><path class="st41" d="M430.32 81.3h7.13v50.78h-7.13zm17.71 10.32h7.13v40.46h-7.13zm17.7-7.59h7.13v48.06h-7.13zm17.7 14.99h7.13v33.07h-7.13z"/><path class="st42" d="M430.32 100.22h7.13v31.86h-7.13zm17.71 6.48h7.13v25.39h-7.13zm17.7-4.77h7.13v30.15h-7.13zm17.7 9.41h7.13v20.74h-7.13z"/><path class="st12" d="M303.4 56.22h184.37c1.54 0 2.79-1.25 2.79-2.79v-1.68c0-1.54-1.25-2.79-2.79-2.79H303.4c-1.54 0-2.79 1.25-2.79 2.79v1.68c0 1.54 1.25 2.79 2.79 2.79z"/><path class="st19" d="M303.4 68.87h184.37c1.54 0 2.79-1.25 2.79-2.79V64.4c0-1.54-1.25-2.79-2.79-2.79H303.4c-1.54 0-2.79 1.25-2.79 2.79v1.68c0 1.54 1.25 2.79 2.79 2.79z"/><path class="st4" d="M403.34 300.35H363.1c-12.77 0-23.13-10.35-23.13-23.13V176.68c0-12.77 10.35-23.13 23.13-23.13h40.24c12.77 0 23.13 10.35 23.13 23.13v100.53c0 12.78-10.35 23.14-23.13 23.14z"/><path class="st12" d="M346 241.11h.38v48.52H346zm18.4 0h.38v48.52h-.38zm18.39 0h.38v48.52h-.38zm18.4 0h.38v48.52h-.38zm18.4 0h.38v48.52h-.38z"/><linearGradient id="SVGID_14_" gradientUnits="userSpaceOnUse" x1="346.189" y1="267.11" x2="419.774" y2="267.11"><stop offset="0" stop-color="#81d3e4"/><stop offset="1" stop-color="#6076fa"/></linearGradient><path d="M346.19 269.96s7.5 6.31 14.74-1.16c7.24-7.48 15.6-9.98 22.99-3.68 7.39 6.3 10.26-2.34 17.65-9.43 7.39-7.08 7.27-11.11 18.21-11.11v45.05H346.2v-19.67z" fill="url(#SVGID_14_)"/><path class="st12" d="M364.58 237.07h4.57v1.77h-4.57zm-18.58 0h6.22v1.77H346zm36.98 0h5.63v1.77h-5.63zm18.21 0h5.63v1.77h-5.63zm12.95 0h5.63v1.77h-5.63z"/><linearGradient id="SVGID_15_" gradientUnits="userSpaceOnUse" x1="391.958" y1="206.72" x2="416.557" y2="206.72"><stop offset="0" stop-color="#81d3e4"/><stop offset="1" stop-color="#6076fa"/></linearGradient><path fill="url(#SVGID_15_)" d="M391.96 205.17h24.6v3.11h-24.6z"/><linearGradient id="SVGID_16_" gradientUnits="userSpaceOnUse" x1="391.958" y1="219.763" x2="414.539" y2="219.763"><stop offset="0" stop-color="#81d3e4"/><stop offset="1" stop-color="#6076fa"/></linearGradient><path fill="url(#SVGID_16_)" d="M391.96 218.21h22.58v3.11h-22.58z"/><linearGradient id="SVGID_17_" gradientUnits="userSpaceOnUse" x1="391.958" y1="213.243" x2="411.496" y2="213.243"><stop offset="0" stop-color="#81d3e4"/><stop offset="1" stop-color="#6076fa"/></linearGradient><path fill="url(#SVGID_17_)" d="M391.96 211.69h19.54v3.11h-19.54z"/><path class="st12" d="M369.9 200.72a4.3 4.3 0 11-8.6 0 4.3 4.3 0 018.6 0zm3.46 14.03v8.18a18.778 18.778 0 01-7.79 1.68c-2.78 0-5.42-.6-7.8-1.68v-8.18c0-4.3 3.49-7.8 7.8-7.8 4.3 0 7.79 3.49 7.79 7.8z"/><linearGradient id="SVGID_18_" gradientUnits="userSpaceOnUse" x1="346.189" y1="205.743" x2="384.941" y2="205.743"><stop offset="0" stop-color="#d3d8de"/><stop offset="1" stop-color="#fff"/></linearGradient><path d="M365.57 225.12c-2.8 0-5.49-.58-8.01-1.73a19.43 19.43 0 01-11.37-17.65c0-10.68 8.69-19.38 19.38-19.38 10.68 0 19.37 8.69 19.37 19.38 0 7.58-4.46 14.51-11.37 17.65a19.129 19.129 0 01-8 1.73zm0-37.73c-10.12 0-18.36 8.23-18.36 18.35 0 7.18 4.23 13.75 10.77 16.72 2.38 1.09 4.94 1.63 7.59 1.63 2.65 0 5.2-.55 7.58-1.63a18.41 18.41 0 0010.77-16.72c0-10.12-8.24-18.35-18.35-18.35z" fill="url(#SVGID_18_)"/><path class="st12" d="M404.01 197.56c-6.46 0-11.71-5.25-11.71-11.71 0-6.45 5.25-11.71 11.71-11.71 6.45 0 11.71 5.25 11.71 11.71-.01 6.45-5.26 11.71-11.71 11.71zm0-21.07c-5.16 0-9.36 4.2-9.36 9.36 0 5.16 4.2 9.36 9.36 9.36 5.16 0 9.36-4.2 9.36-9.36 0-5.16-4.2-9.36-9.36-9.36zm-39.32-13.97h17.64v2.81h-17.64zm2.6 7.25h15.04v2.81h-15.04zm-9.14 7.25h24.18v2.81h-24.18z"/><path class="st4" d="M484.73 195.04h-46.95a5.83 5.83 0 01-5.83-5.83v-30.13a5.83 5.83 0 015.83-5.83h46.95a5.83 5.83 0 015.83 5.83v30.12c0 3.23-2.61 5.84-5.83 5.84z"/><linearGradient id="SVGID_19_" gradientUnits="userSpaceOnUse" x1="436.682" y1="165.762" x2="457.137" y2="165.762"><stop offset="0" stop-color="#72acfb"/><stop offset="1" stop-color="#5286d4"/></linearGradient><path d="M455.99 167.25h-18.16c-.63 0-1.15-.51-1.15-1.15v-.69c0-.63.51-1.14 1.14-1.14h18.17c.63 0 1.14.51 1.14 1.14v.69c.01.64-.51 1.15-1.14 1.15z" fill="url(#SVGID_19_)"/><linearGradient id="SVGID_20_" gradientUnits="userSpaceOnUse" x1="436.682" y1="159.02" x2="452.711" y2="159.02"><stop offset="0" stop-color="#72acfb"/><stop offset="1" stop-color="#5286d4"/></linearGradient><path d="M451.57 160.51h-13.74c-.63 0-1.15-.51-1.15-1.15v-.69c0-.63.51-1.15 1.15-1.15h13.74c.63 0 1.14.51 1.14 1.14v.69c0 .65-.51 1.16-1.14 1.16z" fill="url(#SVGID_20_)"/><path class="st12" d="M436.68 189.27l11.86-11.86 3.54 3.55 13.01-13.01 5.77 5.77 15.11-15.1v30.65z"/><path fill="#558ad8" d="M485.83 189.27v-23.51l-15.58 15.58-5.58-5.58-9.3 9.3-7.05-2.8-11.64 7.01z"/><path class="st51" d="M450.45 393.87s-4.37 6.14-3.77 7.11c.6.97 5.19 1.11 7.99 0s2.86-8.3 4.13-11.39c.53-1.29-.6-5.11-2.2-5.39-1.59-.28-3.33.54-3.33.54s1.66 4.35-2.82 9.13z"/><path class="st28" d="M453.24 384.69s-.92 2.61-1.26 5.11c-.28 2.07-3.11 6.46-2.98 7.02.13.56 3.73 1.06 5.19-.37 1.46-1.43 2.41-5.6 2.73-8.09.3-2.32.68-3.47.68-3.47s-2.96-1.73-4.36-.2z"/><path class="st51" d="M488.47 393.98s-4.21 6.03-3.61 7.01c.6.97 5.19 1.11 7.99 0s2.86-8.3 4.13-11.39c.53-1.29-.6-5.11-2.2-5.39-1.59-.28-3.46.6-3.46.6s1.63 4.38-2.85 9.17z"/><path class="st28" d="M491.32 384.8s-.33 2.85-.87 4.86c-.53 2.01-3.4 6.6-3.26 7.16.13.56 3.73 1.06 5.19-.37 1.46-1.43 2.6-5.58 2.73-8.09.13-2.51-.33-4.15-.33-4.15s-2.06-.94-3.46.59z"/><path class="st28" d="M470.28 284.88s-3.75 18.2-4.61 22.78c-.86 4.58-3.27 26.77-3.53 30.55-.26 3.77-3.91 17.99-3.74 19.34.17 1.35-5.42 28.42-5.42 28.42s1.91 1.6 3.92.15c1.04-.75 12.26-25.34 12.26-32.08 0-9.31 6.6-21.47 7.45-23.56 7.91-19.36 6.35-25.28 7.39-26.53 1.03-1.26 1.12.78 1.72 3.56.6 2.79 1.89 26.86 2.67 29.92.77 3.06.17 13.39.6 18.6.43 5.21 2.32 28.78 2.32 28.78s1.46 2.39 3.52.06c.44-.5 3.55-26.26 3.63-32.46.09-6.2.18-14.75.34-17.43 1.59-25.69 5.51-29.36-.66-47.54-11.55-34.05-27.86-2.56-27.86-2.56z"/><path d="M495.45 279.79s10.68 15.6 6.08 48.78c0 0-25.33 3.6-38.9-4.16 0 0 5.61-34.21 7.64-39.53 2.04-5.33 25.18-5.09 25.18-5.09z" fill="#42466c"/><path class="st51" d="M458.91 389.05v6.42h-.8v-4.96zm38.19 0v6.42h-.8v-4.96z"/><path class="st28" d="M482.79 210.63s-7.15 7.2-4.72 16.48c2.44 9.28 6.35 9.33 10.66 5.34 4.31-3.99 6.85-8.19 7.42-12.85.58-4.67-6.83-15.4-13.36-8.97z"/><path class="st28" d="M481.39 241.57s1.06-2.43 1.81-5.16c.13-.48.25-.97.36-1.46.37-1.72.51-3.41.12-4.57-1.14-3.37 7.15-1.04 7.15-1.04s-1.61 8.92 0 11.92c1.6 3.01-9.44.31-9.44.31z"/><path class="st53" d="M502.41 245.82c-1.31-2.61-2.28-3.44-4.8-4.24-1.41-.44-7.72-2.09-7.72-2.09l-7.58-.28s-5.21.87-9.25 2.27-9.34 9.06-9.34 9.06 7.31 17.16 8.71 22.08c1.4 4.92.47 12.54.47 12.54 8.76 4.77 22.81-.47 22.81-.47-1.07-3.85-1.11-8.34-.55-11.52.07-.38.14-.73.22-1.07.08-.31.18-.74.3-1.24.01-.02.01-.04.02-.06 5.57.57 10.8.8 10.93-.32.6-5.03-2.43-21.08-4.22-24.66zm-3.86 19.56c-.22-.03-.7-.03-1.21-.08.62-1.73 1.31-3.25 1.31-3.25.39 1.09 1.9 3.63-.1 3.33z"/><path class="st54" d="M485.12 215.81s3.42 6.22 5.55 8.45c2.13 2.23 1.87 4 1.87 4s8.28-10.22 2.37-16.39c-5.91-6.17-13.53-3.68-15.76 1.71-2.23 5.39-1.41 11.98-1.41 11.98s.07-6.33 7.38-9.75z"/><path class="st54" d="M487.38 209.3s-.83-4.55 6.31-6.36c7.14-1.81 10.35 6.42 9.47 11.43-.88 5.02-6.99 17.75-3.67 19.4 3.31 1.66 4.61-1.92 4.61-1.92s-1.03 6.26-5.64 4.81c-4.61-1.45-3.98-11.62-3.29-15.68.69-4.04-7.79-11.68-7.79-11.68z"/><path d="M489.68 231.55c-.03.07-1.83 4.22-6.48 4.87.13-.48.25-.97.36-1.46-.01-.01 2.54.5 6.12-3.41z" fill="#997761"/><path class="st56" d="M498.55 262.1s-.34.72-1.28 3.55c-.95-7.95-.45-12.09-.45-12.09.1 4.25 1.73 8.54 1.73 8.54z"/><path class="st53" d="M488.49 208.34s5.07.97 7.6 5.1c0 0-.51-3.74-3.04-4.82-2.52-1.07-4.56-.28-4.56-.28z"/><path class="st56" d="M495.67 270.86c-.12.49-.22.93-.3 1.24-.08.34-.16.69-.22 1.07-3.14-1.71-5.39-3.04-5.39-3.04.84.19 5.91.73 5.91.73z"/><path class="st28" d="M490.31 239.6l-8.92 7.27.92-7.66s5.2-1.12 8 .39z"/><path class="st57" d="M483.97 245.63l-2.58 1.24 8.76-8.68z"/><path class="st58" d="M496.19 270.23c-1.23 5.09 3.31 16.53 3.31 16.53l-9 2.81c-1.3.4-2.66-.39-2.94-1.72-1.21-5.6-4.03-19.39-4.37-27.06-.43-9.78 6.69-21.32 6.69-21.32 12.66 2.17 9.19 21.32 9.19 21.32s-.46 1.21-1.07 3.09c-.15.47-.32.99-.49 1.54-.43 1.44-.9 3.08-1.32 4.81zm-14.78-30.6l.15-.42s-6.48.99-9.78 2.63c-3.29 1.65-9.6 10.15-9.6 10.15l8.25 10.89c.01 8.37-1.35 23.25-1.35 23.25l3.77 2.17c1.01.58 2.28-.13 2.3-1.3.11-5.66.36-19.1.49-25.6.17-8.37 6.14-21.91 6.14-21.91-.11.04-.24.09-.37.14z"/><path class="st28" d="M469.66 278.87s6.22.24 7.19 0c.97-.24 7.42-3.04 7.81-5.81.39-2.76-15 2.48-15 2.48v3.33z"/><path fill="#6d76ba" d="M488.96 270.23l-25.24-2.95 11.4 9.28z"/><path class="st30" d="M475.12 276.56l13.84-4.72v-1.61l-14.31 4.59z"/><path class="st28" d="M481.62 265.6s-2.09 0-3.26-.24c-.9-.18-3.15.07-3.73.58-.57.51-2.4 4.05-2.74 4.26-.34.22.18.72.78.47 0 0 .56 1.55 1.93.97 1.37-.58 2.3-1.85 3.02-2.07.72-.22 4.9-1.35 4.9-1.35s.18-3-.9-2.62z"/><path class="st60" d="M482.78 237.8l-4.8 7.61-2.32 1.46 5.41-7.58z"/><path class="st57" d="M477.98 245.41l3.41 1.46.92-7.66.47-1.41z"/><path class="st58" d="M470.42 275.31s-.26 3.22 0 3.89c0 0-15.57-1.56-17.02-3.73-1.45-2.18-1.4-4.82-1.4-4.82l18.42 4.66z"/><path fill="#2a2b41" d="M475.12 276.56l-7.36-27.37-27.99-2.95 7.67 25.19z"/><path class="st60" d="M490.15 238.19l-6.18 7.44 3.38 3.02 3.65-8.91z"/><path d="M498.21 263.27l-.21.63c-.15.47-.32.99-.49 1.54-1.2.38-11.53-.38-11.53-.38s8.65-2.03 12.23-1.79z" fill="#414469"/><path class="st58" d="M497.61 265.24c-1.67-.13-4.39-.3-6.63-.31-3.47-.02-9.41.37-9.41.37l.71 3.71s10.52 1.71 16.27 2.11c0 0 7.59.87 8.15-.26.56-1.13-.19-8.4-1.42-14.94-1.23-6.55-2.5-10.32-4.01-12.34s-9.48-3.6-9.48-3.6l6.76 22.12s.97 1.97.92 2.82c-.02.26-.19.38-.44.43-.17-.01-.54-.05-1.06-.09l-.36-.02z"/></svg>