<svg xmlns="http://www.w3.org/2000/svg" xmlns:xlink="http://www.w3.org/1999/xlink" viewBox="0 0 2240.05 1376.29"><defs><linearGradient id="linear-gradient" x1="-965.74" y1="889.75" x2="879.14" y2="889.75" gradientTransform="matrix(-1.17 .14 .12 .99 1037.36 -90.64)" gradientUnits="userSpaceOnUse"><stop offset="0" stop-color="#dae3fe"/><stop offset="1" stop-color="#e9effd"/></linearGradient><linearGradient id="linear-gradient-2" x1="-1459.76" y1="1338.41" x2="-1083.49" y2="209.6" gradientTransform="matrix(-1 0 0 1 -80.22 0)" gradientUnits="userSpaceOnUse"><stop offset="0" stop-color="#09005d"/><stop offset="1" stop-color="#1a0f91"/></linearGradient><linearGradient id="linear-gradient-3" x1="1443.46" y1="328.09" x2="1017.41" y2="1417.2" gradientUnits="userSpaceOnUse"><stop offset="0" stop-color="#fe7062"/><stop offset="1" stop-color="#ff928e"/></linearGradient><linearGradient id="linear-gradient-4" x1="-584.52" y1="1271" x2="-2259.38" y2="1678.4" gradientTransform="matrix(1 0 0 -1 2515.96 2889.15)" xlink:href="#linear-gradient-2"/><linearGradient id="linear-gradient-5" x1="1500.25" y1="511.18" x2="1152.25" y2="841.44" gradientUnits="userSpaceOnUse"><stop offset="0" stop-color="#e1473d"/><stop offset="1" stop-color="#e9605a"/></linearGradient><linearGradient id="linear-gradient-6" x1="1724.84" y1="531.26" x2="1415.91" y2="824.44" xlink:href="#linear-gradient-5"/><linearGradient id="linear-gradient-7" x1="1975.06" y1="531.87" x2="1666.13" y2="825.05" xlink:href="#linear-gradient-5"/><linearGradient id="linear-gradient-8" x1="1028.39" y1="1030.73" x2="880.07" y2="1700.28" xlink:href="#linear-gradient-5"/><linearGradient id="linear-gradient-9" x1="1169.01" y1="998.42" x2="1207.1" y2="1734.7" xlink:href="#linear-gradient-5"/><linearGradient id="linear-gradient-10" x1="1225.96" y1="995.39" x2="1264.1" y2="1732.75" xlink:href="#linear-gradient-5"/><linearGradient id="linear-gradient-11" x1="1285.41" y1="992.31" x2="1323.55" y2="1729.68" xlink:href="#linear-gradient-5"/><linearGradient id="linear-gradient-12" x1="1337.03" y1="989.64" x2="1375.17" y2="1727.01" xlink:href="#linear-gradient-5"/><linearGradient id="linear-gradient-13" x1="1396.85" y1="986.55" x2="1434.99" y2="1723.91" xlink:href="#linear-gradient-5"/><linearGradient id="linear-gradient-14" x1="1452.08" y1="983.69" x2="1490.22" y2="1721.05" xlink:href="#linear-gradient-5"/><linearGradient id="linear-gradient-15" x1="1502.85" y1="980.84" x2="1540.99" y2="1718.2" xlink:href="#linear-gradient-5"/><linearGradient id="linear-gradient-16" x1="1562.8" y1="977.74" x2="1600.94" y2="1715.1" xlink:href="#linear-gradient-5"/><linearGradient id="linear-gradient-17" x1="1618.17" y1="974.88" x2="1656.3" y2="1712.24" xlink:href="#linear-gradient-5"/><linearGradient id="linear-gradient-18" x1="1673.14" y1="972.03" x2="1711.28" y2="1709.39" xlink:href="#linear-gradient-5"/><linearGradient id="linear-gradient-19" x1="1725.32" y1="969.33" x2="1763.46" y2="1706.7" xlink:href="#linear-gradient-5"/><linearGradient id="linear-gradient-20" x1="1783.94" y1="966.3" x2="1822.08" y2="1703.66" xlink:href="#linear-gradient-5"/><linearGradient id="linear-gradient-21" x1="2090.79" y1="286.64" x2="2154.16" y2="286.64" xlink:href="#linear-gradient"/><linearGradient id="linear-gradient-22" x1="2052.18" y1="288.51" x2="2192.5" y2="288.51" xlink:href="#linear-gradient"/><linearGradient id="linear-gradient-23" x1="1895.64" y1="298.58" x2="1927.36" y2="298.58" xlink:href="#linear-gradient"/><linearGradient id="linear-gradient-24" x1="1876.32" y1="299.51" x2="1946.55" y2="299.51" xlink:href="#linear-gradient"/><linearGradient id="linear-gradient-25" x1="2149.08" y1="492.88" x2="2189.16" y2="492.88" xlink:href="#linear-gradient"/><linearGradient id="linear-gradient-26" x1="2124.66" y1="494.06" x2="2213.42" y2="494.06" xlink:href="#linear-gradient"/><linearGradient id="linear-gradient-27" x1="-1339.3" y1="272.69" x2="-1367.63" y2="300.25" gradientTransform="matrix(-1 .01 .01 1 419.65 -35.77)" gradientUnits="userSpaceOnUse"><stop offset="0" stop-color="#53d8ff"/><stop offset="1" stop-color="#3840f7"/></linearGradient><linearGradient id="linear-gradient-28" x1="-1347.61" y1="277.13" x2="-1384.36" y2="332.66" gradientTransform="matrix(-1 .01 .01 1 419.65 -35.77)" gradientUnits="userSpaceOnUse"><stop offset="0" stop-color="#4042e2"/><stop offset="1" stop-color="#4f52ff"/></linearGradient><linearGradient id="linear-gradient-29" x1="-1338.93" y1="328.86" x2="-1367.26" y2="356.43" xlink:href="#linear-gradient-27"/><linearGradient id="linear-gradient-30" x1="-1347.23" y1="333.31" x2="-1383.99" y2="388.83" xlink:href="#linear-gradient-28"/><linearGradient id="linear-gradient-31" x1="-1338.56" y1="385.04" x2="-1366.89" y2="412.61" xlink:href="#linear-gradient-27"/><linearGradient id="linear-gradient-32" x1="-1346.86" y1="389.48" x2="-1383.62" y2="445.01" xlink:href="#linear-gradient-28"/><linearGradient id="linear-gradient-33" x1="-47.34" y1="762.91" x2="-75.66" y2="790.47" xlink:href="#linear-gradient-27"/><linearGradient id="linear-gradient-34" x1="-55.64" y1="767.35" x2="-92.4" y2="822.88" xlink:href="#linear-gradient-28"/><linearGradient id="linear-gradient-35" x1="483.67" y1="735.38" x2="496.55" y2="735.38" xlink:href="#linear-gradient"/><linearGradient id="linear-gradient-36" x1="-46.97" y1="819.08" x2="-75.29" y2="846.65" gradientTransform="matrix(-.3 -.96 -.96 .3 1265.22 491.46)" xlink:href="#linear-gradient-27"/><linearGradient id="linear-gradient-37" x1="-55.27" y1="823.53" x2="-92.03" y2="879.05" xlink:href="#linear-gradient-28"/><linearGradient id="linear-gradient-38" x1="483.67" y1="791.56" x2="496.55" y2="791.56" xlink:href="#linear-gradient"/><linearGradient id="linear-gradient-39" x1="-46.59" y1="875.26" x2="-74.92" y2="902.83" xlink:href="#linear-gradient-27"/><linearGradient id="linear-gradient-40" x1="-54.9" y1="879.7" x2="-91.65" y2="935.23" xlink:href="#linear-gradient-28"/><linearGradient id="linear-gradient-41" x1="483.67" y1="847.74" x2="496.55" y2="847.74" xlink:href="#linear-gradient"/><linearGradient id="linear-gradient-42" x1="203.28" y1="741.68" x2="463.68" y2="741.68" xlink:href="#linear-gradient"/><linearGradient id="linear-gradient-43" x1="203.28" y1="797.58" x2="463.68" y2="797.58" xlink:href="#linear-gradient"/><linearGradient id="linear-gradient-44" x1="203.28" y1="853.49" x2="463.68" y2="853.49" xlink:href="#linear-gradient"/><linearGradient id="linear-gradient-45" x1="2128.89" y1="1014.41" x2="1984.89" y2="899.41" gradientUnits="userSpaceOnUse"><stop offset="0" stop-color="#ff928e"/><stop offset="1" stop-color="#feb3b1"/></linearGradient><linearGradient id="linear-gradient-46" x1="-6067.09" y1="1651.53" x2="-6155.16" y2="1756.19" gradientTransform="rotate(16.22 1034.378 30607.136)" gradientUnits="userSpaceOnUse"><stop offset="0" stop-color="#020039"/><stop offset="1" stop-color="#090056"/></linearGradient><linearGradient id="linear-gradient-47" x1="4688.53" y1="950.3" x2="4515.93" y2="1192.51" gradientTransform="scale(-1 1) rotate(-7 1771.6 57647.811)" xlink:href="#linear-gradient-3"/><linearGradient id="linear-gradient-48" x1="2147.13" y1="896.78" x2="2156.13" y2="1012.78" xlink:href="#linear-gradient-45"/><linearGradient id="linear-gradient-49" x1="-3327.47" y1="-2222.5" x2="-3391.46" y2="-2134.5" gradientTransform="rotate(16.22 1034.378 30607.136)" xlink:href="#linear-gradient-45"/><linearGradient id="linear-gradient-50" x1="-6109.27" y1="1616.03" x2="-6197.35" y2="1720.69" xlink:href="#linear-gradient-46"/><linearGradient id="linear-gradient-51" x1="-3307.65" y1="-2208.1" x2="-3371.65" y2="-2120.1" gradientTransform="rotate(16.22 1034.378 30607.136)" xlink:href="#linear-gradient-45"/><linearGradient id="linear-gradient-52" x1="2137.76" y1="1303.51" x2="2146.76" y2="1494.51" xlink:href="#linear-gradient-45"/><linearGradient id="linear-gradient-53" x1="4534.9" y1="1437.57" x2="4581.69" y2="1437.57" gradientTransform="matrix(-1 -.01 -.01 1 6762.63 51.07)" xlink:href="#linear-gradient-46"/><linearGradient id="linear-gradient-54" x1="2177.66" y1="1183.46" x2="2136.66" y2="1453.46" xlink:href="#linear-gradient-45"/><linearGradient id="linear-gradient-55" x1="4578.28" y1="1446.02" x2="4634.06" y2="1446.02" gradientTransform="matrix(-1 -.01 -.01 1 6762.63 51.07)" xlink:href="#linear-gradient-46"/><linearGradient id="linear-gradient-56" x1="4654.45" y1="1070.89" x2="4520.82" y2="1368.77" gradientTransform="matrix(-1 -.01 -.01 1 6762.63 51.07)" xlink:href="#linear-gradient-2"/><linearGradient id="linear-gradient-57" x1="4576" y1="1056.05" x2="4841.55" y2="752.31" gradientTransform="scale(-1 1) rotate(-7 1771.6 57647.811)" xlink:href="#linear-gradient-45"/><linearGradient id="linear-gradient-58" x1="1207.73" y1="233.8" x2="583.66" y2="708.98" xlink:href="#linear-gradient-2"/><linearGradient id="linear-gradient-59" x1="896.4" y1="339.84" x2="960.4" y2="-388.15" xlink:href="#linear-gradient-28"/><linearGradient id="linear-gradient-60" x1="1171.49" y1="-547.59" x2="979.49" y2="36.41" xlink:href="#linear-gradient-28"/><linearGradient id="linear-gradient-61" x1="751.46" y1="376.61" x2="560.67" y2="604.97" gradientTransform="rotate(45 676.505 466.318)" xlink:href="#linear-gradient-3"/><linearGradient id="linear-gradient-62" x1="862.67" y1="398.85" x2="818.62" y2="441.71" gradientTransform="rotate(.38 5392.882 -150.57)" gradientUnits="userSpaceOnUse"><stop offset="0" stop-color="#2b3582"/><stop offset="1" stop-color="#150e42"/></linearGradient><linearGradient id="linear-gradient-63" x1="849.76" y1="405.76" x2="792.61" y2="492.1" gradientTransform="rotate(.38 5392.882 -150.57)" xlink:href="#linear-gradient-2"/><linearGradient id="linear-gradient-64" x1="822.73" y1="389.87" x2="822.92" y2="389.87" xlink:href="#linear-gradient-62"/><linearGradient id="linear-gradient-65" x1="824.11" y1="382.08" x2="837.97" y2="382.08" xlink:href="#linear-gradient-2"/><linearGradient id="linear-gradient-66" x1="863.25" y1="486.2" x2="819.2" y2="529.06" xlink:href="#linear-gradient-62"/><linearGradient id="linear-gradient-67" x1="850.33" y1="493.1" x2="793.18" y2="579.44" gradientTransform="rotate(.38 5392.882 -150.57)" xlink:href="#linear-gradient-2"/><linearGradient id="linear-gradient-68" x1="822.73" y1="477.21" x2="822.92" y2="477.21" xlink:href="#linear-gradient-62"/><linearGradient id="linear-gradient-69" x1="824.11" y1="469.43" x2="837.97" y2="469.43" xlink:href="#linear-gradient-62"/><linearGradient id="linear-gradient-70" x1="863.82" y1="573.54" x2="819.78" y2="616.4" xlink:href="#linear-gradient-62"/><linearGradient id="linear-gradient-71" x1="850.91" y1="580.45" x2="793.76" y2="666.78" gradientTransform="rotate(.38 5392.882 -150.57)" xlink:href="#linear-gradient-2"/><linearGradient id="linear-gradient-72" x1="822.73" y1="564.56" x2="822.92" y2="564.56" xlink:href="#linear-gradient-62"/><linearGradient id="linear-gradient-73" x1="824.11" y1="556.78" x2="837.97" y2="556.78" xlink:href="#linear-gradient-62"/><linearGradient id="linear-gradient-74" x1="7952.32" y1="1034.88" x2="7991.95" y2="1034.88" gradientTransform="translate(-7366.62)" xlink:href="#linear-gradient-2"/><linearGradient id="linear-gradient-75" x1="8051.53" y1="988.13" x2="7907.36" y2="1101.33" gradientTransform="translate(-7366.62)" xlink:href="#linear-gradient-28"/><linearGradient id="linear-gradient-76" x1="7899.18" y1="762.99" x2="7952.03" y2="762.99" gradientTransform="translate(-7366.62)" xlink:href="#linear-gradient-45"/><linearGradient id="linear-gradient-77" x1="7963.34" y1="989.76" x2="7955.77" y2="1055.83" gradientTransform="translate(-7366.62)" xlink:href="#linear-gradient-45"/><linearGradient id="linear-gradient-78" x1="8077.14" y1="1020.74" x2="7932.97" y2="1133.94" gradientTransform="translate(-7366.62)" xlink:href="#linear-gradient-28"/><linearGradient id="linear-gradient-79" x1="8012.66" y1="1035.93" x2="8069.71" y2="1035.93" gradientTransform="translate(-7366.62)" xlink:href="#linear-gradient-2"/><linearGradient id="linear-gradient-80" x1="8025" y1="996.83" x2="8017.43" y2="1062.89" gradientTransform="translate(-7366.62)" xlink:href="#linear-gradient-45"/><linearGradient id="linear-gradient-81" x1="8114.94" y1="694.74" x2="7872.84" y2="1070.42" gradientTransform="translate(-7366.62)" xlink:href="#linear-gradient-2"/><linearGradient id="linear-gradient-82" x1="8038.86" y1="534.75" x2="7813.46" y2="1029.39" gradientTransform="translate(-7366.62)" xlink:href="#linear-gradient-28"/><linearGradient id="linear-gradient-83" x1="8146.27" y1="488.05" x2="8093.57" y2="562.4" gradientTransform="translate(-7366.62)" xlink:href="#linear-gradient-45"/><linearGradient id="linear-gradient-84" x1="8123.95" y1="472.23" x2="8071.26" y2="546.59" gradientTransform="translate(-7366.62)" xlink:href="#linear-gradient-45"/><linearGradient id="linear-gradient-85" x1="7980.06" y1="562.35" x2="7951.16" y2="687.25" gradientTransform="translate(-7366.62)" xlink:href="#linear-gradient-45"/><linearGradient id="linear-gradient-86" x1="4164.74" y1="4414.56" x2="4113.46" y2="4482.39" gradientTransform="rotate(-46.73 -2099.537 6591.752)" xlink:href="#linear-gradient-45"/><linearGradient id="linear-gradient-87" x1="4125.58" y1="4430.85" x2="4186.83" y2="4430.85" gradientTransform="rotate(-46.73 -2099.537 6591.752)" xlink:href="#linear-gradient-2"/><linearGradient id="linear-gradient-88" x1="4089.64" y1="4468.28" x2="4130.77" y2="4426.08" gradientTransform="rotate(-46.73 -2099.537 6591.752)" gradientUnits="userSpaceOnUse"><stop offset="0" stop-color="#f9b776"/><stop offset="1" stop-color="#f47960"/></linearGradient><linearGradient id="linear-gradient-89" x1="7955.72" y1="590.98" x2="7895.89" y2="700.9" gradientTransform="translate(-7366.62)" xlink:href="#linear-gradient-2"/><linearGradient id="linear-gradient-90" x1="7979.16" y1="795.61" x2="7958.86" y2="831.74" gradientTransform="translate(-7366.62)" xlink:href="#linear-gradient-62"/><linearGradient id="linear-gradient-91" x1="-1577.7" y1="1206.92" x2="-1458.22" y2="1206.92" gradientTransform="matrix(-1 0 0 1 -996.59 0)" xlink:href="#linear-gradient"/><linearGradient id="linear-gradient-92" x1="-1829" y1="1210.56" x2="-1690.59" y2="1210.56" gradientTransform="matrix(-1 0 0 1 -996.59 0)" xlink:href="#linear-gradient"/><linearGradient id="linear-gradient-93" x1="-1733.53" y1="1060.14" x2="-1539.01" y2="1060.14" gradientTransform="matrix(-1 0 0 1 -996.59 0)" xlink:href="#linear-gradient"/><linearGradient id="linear-gradient-94" x1="-1730" y1="1060.14" x2="-1542.54" y2="1060.14" gradientTransform="matrix(-1 0 0 1 -996.59 0)" xlink:href="#linear-gradient"/><linearGradient id="linear-gradient-95" x1="-1733.53" y1="1161.47" x2="-1539.01" y2="1161.47" gradientTransform="matrix(-1 0 0 1 -996.59 0)" xlink:href="#linear-gradient"/><linearGradient id="linear-gradient-96" x1="-1755.53" y1="1161.47" x2="-1522.58" y2="1161.47" gradientTransform="matrix(-1 0 0 1 -996.59 0)" xlink:href="#linear-gradient"/><linearGradient id="linear-gradient-97" x1="-1733.53" y1="1262.8" x2="-1539.01" y2="1262.8" gradientTransform="matrix(-1 0 0 1 -996.59 0)" xlink:href="#linear-gradient"/><linearGradient id="linear-gradient-98" x1="-1777.78" y1="1262.8" x2="-1501.63" y2="1262.8" gradientTransform="matrix(-1 0 0 1 -996.59 0)" xlink:href="#linear-gradient"/><linearGradient id="linear-gradient-99" x1="-1798.89" y1="1364.13" x2="-1539.01" y2="1364.13" gradientTransform="matrix(-1 0 0 1 -996.59 0)" xlink:href="#linear-gradient"/><linearGradient id="linear-gradient-100" x1="-1798.89" y1="1364.13" x2="-1484.69" y2="1364.13" gradientTransform="matrix(-1 0 0 1 -996.59 0)" xlink:href="#linear-gradient"/><linearGradient id="linear-gradient-101" x1="12378.34" y1="1480.86" x2="12413.05" y2="1262.56" gradientTransform="translate(-10604.6 -136.86)" xlink:href="#linear-gradient-28"/><linearGradient id="linear-gradient-102" x1="-89.48" y1="1272.49" x2="-116.15" y2="1324.94" gradientTransform="matrix(-.98 -.22 -.22 .98 1941.21 130.67)" xlink:href="#linear-gradient-46"/><linearGradient id="linear-gradient-103" x1="-140.19" y1="1293.36" x2="-113.63" y2="1293.36" gradientTransform="matrix(-.98 -.22 -.22 .98 1941.21 130.67)" xlink:href="#linear-gradient-45"/><linearGradient id="linear-gradient-104" x1="-176.96" y1="1223.06" x2="-64.06" y2="1064.82" gradientTransform="matrix(-.98 -.22 -.22 .98 1941.21 130.67)" xlink:href="#linear-gradient-2"/><linearGradient id="linear-gradient-105" x1="-104.95" y1="1325.52" x2="-197.42" y2="1446.43" gradientTransform="matrix(-.98 -.22 -.22 .98 1941.21 130.67)" xlink:href="#linear-gradient-46"/><linearGradient id="linear-gradient-106" x1="-151.23" y1="1351.71" x2="-79.78" y2="1351.71" gradientTransform="matrix(-.98 -.22 -.22 .98 1941.21 130.67)" xlink:href="#linear-gradient-46"/><linearGradient id="linear-gradient-107" x1="-159.41" y1="1317.88" x2="-134.47" y2="1317.88" gradientTransform="matrix(-.98 -.22 -.22 .98 1941.21 130.67)" xlink:href="#linear-gradient-45"/><linearGradient id="linear-gradient-108" x1="-217.66" y1="1301.92" x2="-211.44" y2="1090.34" gradientTransform="matrix(-.98 -.22 -.22 .98 1941.21 130.67)" xlink:href="#linear-gradient-2"/><linearGradient id="linear-gradient-109" x1="-125.27" y1="1056.98" x2="-62.14" y2="993.4" gradientTransform="matrix(-.98 -.22 -.22 .98 1941.21 130.67)" xlink:href="#linear-gradient-28"/><linearGradient id="linear-gradient-110" x1="-69.66" y1="1055.42" x2="17.32" y2="1055.42" gradientTransform="matrix(-.98 -.22 -.22 .98 1941.21 130.67)" xlink:href="#linear-gradient-45"/><linearGradient id="linear-gradient-111" x1="1862.87" y1="1015.63" x2="2028.13" y2="1308.89" xlink:href="#linear-gradient-28"/><linearGradient id="linear-gradient-112" x1="1875.23" y1="985.52" x2="1889.23" y2="1100.52" xlink:href="#linear-gradient-45"/><linearGradient id="linear-gradient-113" x1="1926.38" y1="979.84" x2="2091.64" y2="1273.11" xlink:href="#linear-gradient-28"/><linearGradient id="linear-gradient-114" x1="2052.99" y1="1088.29" x2="1946.99" y2="1231.29" xlink:href="#linear-gradient-45"/><linearGradient id="linear-gradient-115" x1="1806.86" y1="1048.79" x2="1886.86" y2="986.79" xlink:href="#linear-gradient-45"/><linearGradient id="linear-gradient-116" x1="-37.53" y1="-1181.33" x2="48.66" y2="-1181.33" gradientTransform="matrix(-.65 -.76 -.76 .65 998.79 1755.3)" xlink:href="#linear-gradient-2"/><linearGradient id="linear-gradient-117" x1="-88.09" y1="-1100.51" x2="-30.22" y2="-1159.88" gradientTransform="matrix(-.65 -.76 -.76 .65 998.79 1755.3)" xlink:href="#linear-gradient-45"/><linearGradient id="linear-gradient-118" x1="12283.54" y1="1870.5" x2="12170.4" y2="1901.51" gradientTransform="rotate(-2.83 -6996.208 212058.684)" xlink:href="#linear-gradient-2"/><linearGradient id="linear-gradient-119" x1="12216.75" y1="1101.56" x2="12136.47" y2="1186.41" gradientTransform="translate(-10487.12)" xlink:href="#linear-gradient-2"/><linearGradient id="linear-gradient-120" x1="1321.97" y1="463.4" x2="1330.12" y2="463.4" xlink:href="#linear-gradient"/><linearGradient id="linear-gradient-121" x1="1336.39" y1="452.67" x2="1345.39" y2="452.67" xlink:href="#linear-gradient"/><linearGradient id="linear-gradient-122" x1="1352.95" y1="444.19" x2="1362.63" y2="444.19" xlink:href="#linear-gradient"/><linearGradient id="linear-gradient-123" x1="1371.09" y1="438.07" x2="1381.26" y2="438.07" xlink:href="#linear-gradient"/><linearGradient id="linear-gradient-124" x1="1390.25" y1="434.38" x2="1400.78" y2="434.38" xlink:href="#linear-gradient"/><linearGradient id="linear-gradient-125" x1="1409.96" y1="433.21" x2="1420.69" y2="433.21" xlink:href="#linear-gradient"/><linearGradient id="linear-gradient-126" x1="1429.72" y1="434.65" x2="1440.5" y2="434.65" xlink:href="#linear-gradient"/><linearGradient id="linear-gradient-127" x1="1448.96" y1="438.81" x2="1459.62" y2="438.81" xlink:href="#linear-gradient"/><linearGradient id="linear-gradient-128" x1="1467.09" y1="445.76" x2="1477.36" y2="445.76" xlink:href="#linear-gradient"/><linearGradient id="linear-gradient-129" x1="1483.3" y1="455.36" x2="1493.03" y2="455.36" xlink:href="#linear-gradient"/><linearGradient id="linear-gradient-130" x1="1497.14" y1="467.18" x2="1506.21" y2="467.18" xlink:href="#linear-gradient"/><linearGradient id="linear-gradient-131" x1="1508.33" y1="480.72" x2="1516.66" y2="480.72" xlink:href="#linear-gradient"/><linearGradient id="linear-gradient-132" x1="1516.64" y1="495.53" x2="1524.19" y2="495.53" xlink:href="#linear-gradient"/><linearGradient id="linear-gradient-133" x1="1521.9" y1="511.19" x2="1528.6" y2="511.19" xlink:href="#linear-gradient"/><linearGradient id="linear-gradient-134" x1="1523.77" y1="527.28" x2="1529.69" y2="527.28" xlink:href="#linear-gradient"/><linearGradient id="linear-gradient-135" x1="1521.05" y1="543.33" x2="1528.25" y2="543.33" xlink:href="#linear-gradient"/><linearGradient id="linear-gradient-136" x1="1514.56" y1="558.76" x2="1523.02" y2="558.76" xlink:href="#linear-gradient"/><linearGradient id="linear-gradient-137" x1="1504.86" y1="573.05" x2="1514.35" y2="573.05" xlink:href="#linear-gradient"/><linearGradient id="linear-gradient-138" x1="1492.85" y1="586.14" x2="1503.07" y2="586.14" xlink:href="#linear-gradient"/><linearGradient id="linear-gradient-139" x1="1479.3" y1="598.14" x2="1490.02" y2="598.14" xlink:href="#linear-gradient"/><linearGradient id="linear-gradient-140" x1="1464.82" y1="609.34" x2="1475.83" y2="609.34" xlink:href="#linear-gradient"/><linearGradient id="linear-gradient-141" x1="1449.87" y1="620.07" x2="1461.03" y2="620.07" xlink:href="#linear-gradient"/><linearGradient id="linear-gradient-142" x1="1434.75" y1="630.63" x2="1446.02" y2="630.63" xlink:href="#linear-gradient"/><linearGradient id="linear-gradient-143" x1="1419.51" y1="641.06" x2="1430.89" y2="641.06" xlink:href="#linear-gradient"/><linearGradient id="linear-gradient-144" x1="1404.16" y1="651.39" x2="1415.64" y2="651.39" xlink:href="#linear-gradient"/><linearGradient id="linear-gradient-145" x1="1388.73" y1="661.64" x2="1400.31" y2="661.64" xlink:href="#linear-gradient"/><linearGradient id="linear-gradient-146" x1="1373.22" y1="671.81" x2="1384.89" y2="671.81" xlink:href="#linear-gradient"/><linearGradient id="linear-gradient-147" x1="1357.66" y1="681.92" x2="1369.42" y2="681.92" xlink:href="#linear-gradient"/><linearGradient id="linear-gradient-148" x1="1342.06" y1="691.98" x2="1353.9" y2="691.98" xlink:href="#linear-gradient"/><linearGradient id="linear-gradient-149" x1="1326.44" y1="702.02" x2="1338.36" y2="702.02" xlink:href="#linear-gradient"/><linearGradient id="linear-gradient-150" x1="1310.8" y1="712.05" x2="1322.8" y2="712.05" xlink:href="#linear-gradient"/><linearGradient id="linear-gradient-151" x1="1295.17" y1="722.08" x2="1307.24" y2="722.08" xlink:href="#linear-gradient"/><linearGradient id="linear-gradient-152" x1="1279.56" y1="732.14" x2="1291.7" y2="732.14" xlink:href="#linear-gradient"/><linearGradient id="linear-gradient-153" x1="1263.99" y1="742.22" x2="1276.19" y2="742.22" xlink:href="#linear-gradient"/><linearGradient id="linear-gradient-154" x1="1248.47" y1="752.36" x2="1260.72" y2="752.36" xlink:href="#linear-gradient"/><linearGradient id="linear-gradient-155" x1="1233.01" y1="762.56" x2="1245.32" y2="762.56" xlink:href="#linear-gradient"/><linearGradient id="linear-gradient-156" x1="1217.64" y1="772.84" x2="1230" y2="772.84" xlink:href="#linear-gradient"/><linearGradient id="linear-gradient-157" x1="1202.37" y1="783.21" x2="1214.77" y2="783.21" xlink:href="#linear-gradient"/><linearGradient id="linear-gradient-158" x1="1187.22" y1="793.7" x2="1199.65" y2="793.7" xlink:href="#linear-gradient"/><linearGradient id="linear-gradient-159" x1="1172.2" y1="804.31" x2="1184.67" y2="804.31" xlink:href="#linear-gradient"/><linearGradient id="linear-gradient-160" x1="1157.34" y1="815.06" x2="1169.83" y2="815.06" xlink:href="#linear-gradient"/><linearGradient id="linear-gradient-161" x1="1142.65" y1="825.97" x2="1155.17" y2="825.97" xlink:href="#linear-gradient"/><linearGradient id="linear-gradient-162" x1="1128.17" y1="837.04" x2="1140.69" y2="837.04" xlink:href="#linear-gradient"/><linearGradient id="linear-gradient-163" x1="1113.91" y1="848.3" x2="1126.4" y2="848.3" xlink:href="#linear-gradient"/><linearGradient id="linear-gradient-164" x1="1099.9" y1="859.75" x2="1112.34" y2="859.75" xlink:href="#linear-gradient"/><linearGradient id="linear-gradient-165" x1="1086.16" y1="871.41" x2="1098.54" y2="871.41" xlink:href="#linear-gradient"/><linearGradient id="linear-gradient-166" x1="1072.71" y1="883.28" x2="1085.02" y2="883.28" xlink:href="#linear-gradient"/><linearGradient id="linear-gradient-167" x1="1059.56" y1="895.39" x2="1071.81" y2="895.39" xlink:href="#linear-gradient"/><linearGradient id="linear-gradient-168" x1="1046.75" y1="907.73" x2="1058.92" y2="907.73" xlink:href="#linear-gradient"/><linearGradient id="linear-gradient-169" x1="1034.31" y1="920.31" x2="1046.39" y2="920.31" xlink:href="#linear-gradient"/><linearGradient id="linear-gradient-170" x1="1022.26" y1="933.14" x2="1034.25" y2="933.14" xlink:href="#linear-gradient"/><linearGradient id="linear-gradient-171" x1="1010.63" y1="946.22" x2="1022.51" y2="946.22" xlink:href="#linear-gradient"/><linearGradient id="linear-gradient-172" x1="999.44" y1="959.55" x2="1011.21" y2="959.55" xlink:href="#linear-gradient"/><linearGradient id="linear-gradient-173" x1="988.76" y1="973.14" x2="1000.39" y2="973.14" xlink:href="#linear-gradient"/><linearGradient id="linear-gradient-174" x1="978.82" y1="987.09" x2="990.23" y2="987.09" xlink:href="#linear-gradient"/><linearGradient id="linear-gradient-175" x1="969.97" y1="1001.5" x2="981.05" y2="1001.5" xlink:href="#linear-gradient"/><linearGradient id="linear-gradient-176" x1="962.56" y1="1016.42" x2="973.19" y2="1016.42" xlink:href="#linear-gradient"/><linearGradient id="linear-gradient-177" x1="957.03" y1="1031.87" x2="967.06" y2="1031.87" xlink:href="#linear-gradient"/><linearGradient id="linear-gradient-178" x1="953.82" y1="1047.77" x2="963.11" y2="1047.77" xlink:href="#linear-gradient"/><linearGradient id="linear-gradient-179" x1="953.25" y1="1063.88" x2="962.09" y2="1063.88" xlink:href="#linear-gradient"/><linearGradient id="linear-gradient-180" x1="955.02" y1="1079.92" x2="964.85" y2="1079.92" xlink:href="#linear-gradient"/><linearGradient id="linear-gradient-181" x1="959.93" y1="1095.45" x2="970.81" y2="1095.45" xlink:href="#linear-gradient"/><linearGradient id="linear-gradient-182" x1="968.18" y1="1109.91" x2="980.17" y2="1109.91" xlink:href="#linear-gradient"/><linearGradient id="linear-gradient-183" x1="979.9" y1="1122.56" x2="993.03" y2="1122.56" xlink:href="#linear-gradient"/><linearGradient id="linear-gradient-184" x1="994.98" y1="1132.57" x2="1009.05" y2="1132.57" xlink:href="#linear-gradient"/><linearGradient id="linear-gradient-185" x1="1012.64" y1="1139.41" x2="1027.31" y2="1139.41" xlink:href="#linear-gradient"/><linearGradient id="linear-gradient-186" x1="1031.85" y1="1143.06" x2="1046.77" y2="1143.06" xlink:href="#linear-gradient"/><linearGradient id="linear-gradient-187" x1="1051.65" y1="1143.89" x2="1066.61" y2="1143.89" xlink:href="#linear-gradient"/><linearGradient id="linear-gradient-188" x1="1071.48" y1="1142.45" x2="1086.37" y2="1142.45" xlink:href="#linear-gradient"/><linearGradient id="linear-gradient-189" x1="1091.01" y1="1139.19" x2="1105.77" y2="1139.19" xlink:href="#linear-gradient"/><linearGradient id="linear-gradient-190" x1="1110.09" y1="1134.45" x2="1124.71" y2="1134.45" xlink:href="#linear-gradient"/><linearGradient id="linear-gradient-191" x1="1128.65" y1="1128.47" x2="1143.1" y2="1128.47" xlink:href="#linear-gradient"/><linearGradient id="linear-gradient-192" x1="1146.7" y1="1121.58" x2="1161.03" y2="1121.58" xlink:href="#linear-gradient"/><linearGradient id="linear-gradient-193" x1="1164.36" y1="1114.07" x2="1178.59" y2="1114.07" xlink:href="#linear-gradient"/><linearGradient id="linear-gradient-194" x1="1181.66" y1="1106.05" x2="1195.79" y2="1106.05" xlink:href="#linear-gradient"/><linearGradient id="linear-gradient-195" x1="1198.69" y1="1097.61" x2="1212.68" y2="1097.61" xlink:href="#linear-gradient"/><linearGradient id="linear-gradient-196" x1="1215.46" y1="1088.86" x2="1229.34" y2="1088.86" xlink:href="#linear-gradient"/><linearGradient id="linear-gradient-197" x1="1232.05" y1="1079.9" x2="1245.84" y2="1079.9" xlink:href="#linear-gradient"/><linearGradient id="linear-gradient-198" x1="1248.53" y1="1070.79" x2="1262.25" y2="1070.79" xlink:href="#linear-gradient"/><linearGradient id="linear-gradient-199" x1="1264.97" y1="1061.65" x2="1278.65" y2="1061.65" xlink:href="#linear-gradient"/><linearGradient id="linear-gradient-200" x1="1281.43" y1="1052.57" x2="1295.09" y2="1052.57" xlink:href="#linear-gradient"/><linearGradient id="linear-gradient-201" x1="1297.99" y1="1043.61" x2="1311.65" y2="1043.61" xlink:href="#linear-gradient"/><linearGradient id="linear-gradient-202" x1="1314.69" y1="1034.83" x2="1328.34" y2="1034.83" xlink:href="#linear-gradient"/><linearGradient id="linear-gradient-203" x1="1331.53" y1="1026.24" x2="1345.19" y2="1026.24" xlink:href="#linear-gradient"/><linearGradient id="linear-gradient-204" x1="1348.53" y1="1017.86" x2="1362.2" y2="1017.86" xlink:href="#linear-gradient"/><linearGradient id="linear-gradient-205" x1="1365.7" y1="1009.71" x2="1379.38" y2="1009.71" xlink:href="#linear-gradient"/><linearGradient id="linear-gradient-206" x1="1383.05" y1="1001.82" x2="1396.74" y2="1001.82" xlink:href="#linear-gradient"/><linearGradient id="linear-gradient-207" x1="1400.59" y1="994.21" x2="1414.3" y2="994.21" xlink:href="#linear-gradient"/><linearGradient id="linear-gradient-208" x1="1418.32" y1="986.9" x2="1432.05" y2="986.9" xlink:href="#linear-gradient"/><linearGradient id="linear-gradient-209" x1="1436.26" y1="979.94" x2="1450.01" y2="979.94" xlink:href="#linear-gradient"/><linearGradient id="linear-gradient-210" x1="1454.4" y1="973.34" x2="1468.17" y2="973.34" xlink:href="#linear-gradient"/><linearGradient id="linear-gradient-211" x1="1472.75" y1="967.13" x2="1486.54" y2="967.13" xlink:href="#linear-gradient"/><linearGradient id="linear-gradient-212" x1="1491.32" y1="961.36" x2="1505.09" y2="961.36" xlink:href="#linear-gradient"/><linearGradient id="linear-gradient-213" x1="1510.14" y1="956.05" x2="1523.84" y2="956.05" xlink:href="#linear-gradient"/><linearGradient id="linear-gradient-214" x1="1529.16" y1="951.23" x2="1542.79" y2="951.23" xlink:href="#linear-gradient"/><linearGradient id="linear-gradient-215" x1="1548.37" y1="946.95" x2="1561.92" y2="946.95" xlink:href="#linear-gradient"/><linearGradient id="linear-gradient-216" x1="1567.76" y1="943.25" x2="1581.23" y2="943.25" xlink:href="#linear-gradient"/><linearGradient id="linear-gradient-217" x1="1587.32" y1="940.14" x2="1600.71" y2="940.14" xlink:href="#linear-gradient"/><linearGradient id="linear-gradient-218" x1="1607.02" y1="937.68" x2="1620.31" y2="937.68" xlink:href="#linear-gradient"/><linearGradient id="linear-gradient-219" x1="1626.83" y1="935.88" x2="1640.03" y2="935.88" xlink:href="#linear-gradient"/><linearGradient id="linear-gradient-220" x1="1646.73" y1="934.79" x2="1659.81" y2="934.79" xlink:href="#linear-gradient"/><linearGradient id="linear-gradient-221" x1="1666.66" y1="934.42" x2="1679.64" y2="934.42" xlink:href="#linear-gradient"/><linearGradient id="linear-gradient-222" x1="1686.59" y1="935.09" x2="1699.44" y2="935.09" xlink:href="#linear-gradient"/><linearGradient id="linear-gradient-223" x1="1706.4" y1="937.21" x2="1719.06" y2="937.21" xlink:href="#linear-gradient"/><linearGradient id="linear-gradient-224" x1="1725.79" y1="941.25" x2="1738.12" y2="941.25" xlink:href="#linear-gradient"/><linearGradient id="linear-gradient-225" x1="1744.29" y1="947.63" x2="1756.06" y2="947.63" xlink:href="#linear-gradient"/><linearGradient id="linear-gradient-226" x1="1761.2" y1="956.66" x2="1772.06" y2="956.66" xlink:href="#linear-gradient"/><linearGradient id="linear-gradient-227" x1="1775.64" y1="968.21" x2="1785.32" y2="968.21" xlink:href="#linear-gradient"/><linearGradient id="linear-gradient-228" x1="1786.57" y1="982.05" x2="1794.67" y2="982.05" xlink:href="#linear-gradient"/><linearGradient id="linear-gradient-229" x1="1792.69" y1="997.59" x2="1798.84" y2="997.59" xlink:href="#linear-gradient"/><linearGradient id="linear-gradient-230" x1="1792.36" y1="1013.69" x2="1798.48" y2="1013.69" xlink:href="#linear-gradient"/><linearGradient id="linear-gradient-231" x1="1786.59" y1="1029.24" x2="1793.76" y2="1029.24" xlink:href="#linear-gradient"/><linearGradient id="linear-gradient-232" x1="1777.54" y1="1043.73" x2="1785.32" y2="1043.73" xlink:href="#linear-gradient"/><linearGradient id="linear-gradient-233" x1="1766.36" y1="1057.17" x2="1774.44" y2="1057.17" xlink:href="#linear-gradient"/><linearGradient id="linear-gradient-234" x1="1753.87" y1="1069.77" x2="1762.03" y2="1069.77" xlink:href="#linear-gradient"/><linearGradient id="linear-gradient-235" x1="1740.57" y1="1081.8" x2="1748.7" y2="1081.8" xlink:href="#linear-gradient"/><style>.cls-2{fill:#91b3fa}.cls-3{fill:#dce5fe}.cls-4{fill:#bdd0fb}.cls-10,.cls-11,.cls-71{fill:#fff}.cls-11{opacity:.54}.cls-71{opacity:.62}.cls-84{fill:#7d97f4}</style></defs><g id="Illustration"><path d="M1648.12 203.6c141.44 106.71 564-82.59 586.83 143.19 26.77 264.36-395.29 394.62-232.94 562.9s33.41 394.87-528.58 459.49-1493.69-57.74-1306.9-336.94 40.21-274.47 16-384.83 56-368.71 515.78-217.54S1290-66.63 1648.12 203.6z" transform="translate(-117.48 -136.86)" fill="url(#linear-gradient)"/><path class="cls-2" d="M2352 877.8c-.54-5.22-9.48-6.88-12-2.23-24.77 44.93-94.48 160.86-181.25 214.48-141.28 87.31-252.15 247.89-187.69 350.4-.06 0 440.31 5.82 380.94-562.65z" transform="translate(-117.48 -136.86)"/><path class="cls-3" d="M2328.83 943.83c-.45 1.69-1 2.91-1.44 4.32l-1.52 4.08-3.15 8.11c-2.14 5.38-4.37 10.72-6.63 16.06-4.5 10.67-9.25 21.24-14 31.79-9.72 21-20.07 41.77-30.86 62.28a1261.47 1261.47 0 01-71.47 119.24c-13 19.22-26.82 37.86-41.06 56.17s-29.36 35.95-45 53.08q-23.74 25.47-49.65 48.78c-8.84 7.51-17.56 15.17-26.8 22.19-9 7.35-18.57 13.9-28 20.65a1 1 0 01-1.17-1.6q27.67-20.87 53.18-44.27 25.26-23.64 48.46-49.34c15.34-17.21 30.25-34.81 44.37-53s27.58-37 40.7-56 25.5-38.47 37.49-58.2l8.9-14.85 8.69-15c5.72-10 11.44-20 16.95-30.2q16.64-30.37 31.76-61.57c5-10.4 10-20.81 14.78-31.34q3.59-7.89 7-15.84l3.41-8 1.64-4c.51-1.3 1.1-2.76 1.46-3.85l.09-.27a1 1 0 011.88.56z" transform="translate(-117.48 -136.86)"/><path class="cls-4" d="M2228.34 378.4c-1.48-8-12.79-8.76-15.23-.95-23.62 75.47-91.77 271.42-190.68 373.53-161 166.25-273.1 440.68-177.51 587.41 0 0 545.08-83.57 383.42-959.99z" transform="translate(-117.48 -136.86)"/><path class="cls-3" d="M2209.7 486.53c-.27 2.4-.7 4.46-1.06 6.64l-1.21 6.45-2.56 12.87c-1.76 8.56-3.65 17.1-5.53 25.63q-5.76 25.59-12.09 51c-8.46 33.92-17.78 67.63-27.64 101.18s-20.53 66.88-31.92 99.94-23.33 66-36.3 98.46c-25.81 65-55.06 128.76-88.72 190.16-2.05 3.86-4.23 7.66-6.43 11.44l-6.56 11.37-6.56 11.37c-2.23 3.77-4.56 7.47-6.84 11.21-4.62 7.43-9.07 15-13.84 22.31l-14.44 21.98a923.32 923.32 0 01-63.76 83.34 1 1 0 01-1.52-1.28 1002.65 1002.65 0 0061.85-84.33l14.1-22c4.66-7.37 9-14.93 13.53-22.39 2.22-3.74 4.5-7.46 6.68-11.23l6.4-11.41 6.4-11.4c2.15-3.79 4.28-7.6 6.28-11.47 16.65-30.64 32-62 46.69-93.6s28-63.89 41.12-96.22c25.93-64.79 48.5-130.9 69-197.61q15.3-50.07 28.67-100.72 6.7-25.31 12.9-50.75 3-12.74 6-25.5l2.84-12.77 1.34-6.4c.41-2.11.88-4.33 1.17-6.27v-.22a1 1 0 012 .25z" transform="translate(-117.48 -136.86)"/><path d="M408 1379.36a29.54 29.54 0 0029.47 29.44H2030.6a29.54 29.54 0 0029.46-29.44l13.26-915.54c0-16.19-19.08-47.8-54-45.42l-1557-40.29A74.24 74.24 0 00386.1 454z" transform="translate(-117.48 -136.86)" fill="url(#linear-gradient-2)"/><path d="M437.06 1351.12a28 28 0 0027.87 27.88h1527.25a28 28 0 0027.87-27.88L2032.56 520c-1.47-50-45.32-68-71.9-66.93L468.4 413a52.17 52.17 0 00-53.53 53.39z" transform="translate(-117.48 -136.86)" fill="url(#linear-gradient-3)"/><path d="M2003.55 956h-.06a3.78 3.78 0 01-3.72-3.84l1-67.4a3.87 3.87 0 013.83-3.72 3.78 3.78 0 013.72 3.83l-1 67.4a3.78 3.78 0 01-3.77 3.73zm2.45-165.21a3.78 3.78 0 01-3.73-3.83L2006 528.8c-.08-15.43-4.76-27.75-13.94-36.54-17.09-16.37-44.21-15.53-45.36-15.49L1469.75 464a3.78 3.78 0 01.1-7.55h.1l476.68 12.79c2.95-.14 31.6-.66 50.65 17.59 10.71 10.26 16.18 24.4 16.26 42l-3.79 258.24a3.78 3.78 0 01-3.75 3.72z" transform="translate(-117.48 -136.86)" opacity=".73" fill="#fff"/><rect x="278.73" y="1404.35" width="1878.27" height="80.44" rx="7.34" transform="rotate(180 1159.13 1376.145)" fill="url(#linear-gradient-4)"/><g opacity=".43"><path class="cls-10" d="M727.14 879.27H560.88A39.76 39.76 0 00521.17 921l18.92 386.41a39.75 39.75 0 0039.71 37.8h147.34a39.75 39.75 0 0039.75-39.74V919a39.75 39.75 0 00-39.75-39.73zm399.92-350.61l-583.53 9a39.75 39.75 0 00-39.08 41.69l9.71 198.44a39.75 39.75 0 0039.7 37.8h573.81a39.75 39.75 0 0039.75-39.75V568.41a39.75 39.75 0 00-40.36-39.75z" transform="translate(-117.48 -136.86)"/><rect class="cls-10" x="698.71" y="742.42" width="351.24" height="465.91" rx="39.75"/></g><circle class="cls-11" cx="1364.32" cy="636.91" r="99.82" transform="rotate(-85.93 1232.201 631.518)"/><circle class="cls-11" cx="1612.39" cy="636.91" r="99.82" transform="rotate(-87.96 1482.687 629.377)"/><circle class="cls-11" cx="1860.46" cy="640.18" r="99.81" transform="rotate(-45 1636.517 713.562)"/><path d="M1423.63 615.82a64.12 64.12 0 11-59.31-39.75c1.08 0 2.16 0 3.23.08V559.9c-1.07 0-2.15-.07-3.23-.07a80.28 80.28 0 1074.22 49.51z" transform="translate(-117.48 -136.86)" fill="url(#linear-gradient-5)"/><path d="M1645.46 694.43a64.11 64.11 0 11-34.16-118.36c1.08 0 2.16 0 3.23.08V559.9c-1.07 0-2.15-.07-3.23-.07a80.36 80.36 0 1042.22 148.73z" transform="translate(-117.48 -136.86)" fill="url(#linear-gradient-6)"/><path d="M1914 676.23a64.12 64.12 0 11-53-100.16c1.08 0 2.16 0 3.23.08V559.9c-1.07 0-2.15-.07-3.23-.07a80.36 80.36 0 1066.18 125.93z" transform="translate(-117.48 -136.86)" fill="url(#linear-gradient-7)"/><g opacity=".52"><path class="cls-10" d="M1445.65 779H1283a18.49 18.49 0 100 37h162.66a18.49 18.49 0 000-37zm248.07 0h-162.66a18.49 18.49 0 100 37h162.66a18.49 18.49 0 000-37zm85.41 37h162.66a18.49 18.49 0 000-37h-162.66a18.49 18.49 0 100 37z" transform="translate(-117.48 -136.86)"/><rect class="cls-10" x="1147.03" y="699.67" width="199.63" height="145.83" rx="18.49"/><rect class="cls-10" x="1395.1" y="699.67" width="199.63" height="145.83" rx="18.49"/><rect class="cls-10" x="1643.17" y="699.67" width="199.63" height="145.83" rx="18.49"/></g><path d="M847.85 1128v146.69a41.53 41.53 0 0041.53 41.53h200.92a42.65 42.65 0 0042.65-42.65v-220.85c0-18.59-23-27.36-35.34-13.51l-38.83 43.4a42.81 42.81 0 01-58 5.38l-3.71-2.86a36.64 36.64 0 00-46.08 1.13l-21.26 18.08a56.2 56.2 0 01-58.93 8.68 16.37 16.37 0 00-22.95 14.98z" transform="translate(-117.48 -136.86)" fill="url(#linear-gradient-8)"/><path fill="url(#linear-gradient-9)" d="M1161.28 1055.92h29.29v152.41h-29.29z"/><path fill="url(#linear-gradient-10)" d="M1217.55 1108.3h33.67v100.03h-33.67z"/><path fill="url(#linear-gradient-11)" d="M1273.81 978.85h33.67v229.48h-33.67z"/><path fill="url(#linear-gradient-12)" d="M1330.08 1153.2h33.67v55.13h-33.67z"/><path fill="url(#linear-gradient-13)" d="M1386.34 1009.53h33.67v198.8h-33.67z"/><path fill="url(#linear-gradient-14)" d="M1442.61 1043.95h33.67v164.38h-33.67z"/><path fill="url(#linear-gradient-15)" d="M1494.49 1081.36h33.67v126.97h-33.67z"/><path fill="url(#linear-gradient-16)" d="M1550.76 932.45h33.67v275.88h-33.67z"/><path fill="url(#linear-gradient-17)" d="M1607.02 961.63h33.67v246.69h-33.67z"/><path fill="url(#linear-gradient-18)" d="M1663.29 1005.78h33.67v202.55h-33.67z"/><path fill="url(#linear-gradient-19)" d="M1719.55 1158.31h33.67v50.01h-33.67z"/><path fill="url(#linear-gradient-20)" d="M1775.82 1061.16h33.67v147.17h-33.67z"/><path class="cls-11" d="M1362.49 1069.31h-148.16a11.79 11.79 0 100 23.57h148.16a11.79 11.79 0 100-23.57zm0-36.88h-148.16a11.79 11.79 0 100 23.57h148.16a11.79 11.79 0 100-23.57zm267.3 36.88h-148.17a11.79 11.79 0 000 23.57h148.17a11.79 11.79 0 000-23.57zm0-36.88h-148.17a11.79 11.79 0 000 23.57h148.17a11.79 11.79 0 000-23.57z" transform="translate(-117.48 -136.86)"/><path class="cls-4" d="M123.94 1011.61c58.41 15.71 394.64 121 352.47 454.3 0 0-239.19-12.36-358.75-448a5.12 5.12 0 016.28-6.3z" transform="translate(-117.48 -136.86)"/><path class="cls-3" d="M162.15 1058.63c30.49 23.83 60.19 48.56 89.44 73.87s57.87 51.32 85.72 78.18 54.9 54.61 80.43 83.78q19.22 21.82 36.82 45.07a491.46 491.46 0 0132.63 48.41 4 4 0 01-6.88 4 482.81 482.81 0 00-31.67-47.94q-17.14-23.16-36.05-45c-25.07-29.23-51.76-57.11-79.23-84.18s-55.84-53.27-84.75-78.85-58.38-50.55-88.54-74.6a1.68 1.68 0 012.09-2.64z" transform="translate(-117.48 -136.86)"/><path class="cls-2" d="M263.39 316.1C356 399.15 875.48 904.44 488.88 1477c0 0-427.6-244.62-242.84-1155.22a10.53 10.53 0 0117.35-5.68z" transform="translate(-117.48 -136.86)"/><path class="cls-3" d="M298.23 454.53c17.6 37.73 33.7 76.07 49.23 114.66s30.05 77.56 43.86 116.81 26.77 78.77 38.77 118.6l4.52 14.93 4.32 15c2.86 10 5.85 20 8.5 30l8.16 30.12 7.67 30.25c1.32 5 2.53 10.09 3.7 15.16l3.56 15.19 3.57 15.2 3.29 15.25c2.14 10.18 4.45 20.33 6.45 30.54l5.9 30.66c1 5.1 1.88 10.24 2.74 15.37l2.6 15.4 2.61 15.39 2.24 15.45c1.43 10.31 3.08 20.6 4.34 30.93l3.62 31c.67 5.17 1.1 10.36 1.55 15.55l1.36 15.56 1.36 15.57.9 15.6.88 15.6c.25 5.21.68 10.4.71 15.62l.66 31.26a1015.06 1015.06 0 01-6.92 124.91 4 4 0 11-7.89-1v-.07a1008.58 1008.58 0 007.42-123.85l-.52-31.07c0-5.18-.4-10.35-.63-15.52l-.8-15.52-.82-15.52-1.29-15.49-1.28-15.49c-.42-5.17-.83-10.34-1.47-15.48l-3.46-30.91c-1.21-10.29-2.8-20.54-4.18-30.82L491.3 1094l-2.52-15.35-2.52-15.35c-.84-5.12-1.66-10.24-2.66-15.33l-5.74-30.59c-1.95-10.19-4.21-20.32-6.29-30.48l-3.22-15.22-3.48-15.17-3.49-15.17c-1.14-5.06-2.33-10.11-3.62-15.14l-7.51-30.2-8-30.09c-2.61-10.05-5.54-20-8.35-30l-4.24-15-4.44-14.91q-17.7-59.71-38.17-118.57t-43.26-116.79c-15.32-38.59-31.24-77-48.61-114.67a1.69 1.69 0 013.06-1.42z" transform="translate(-117.48 -136.86)"/><path class="cls-2" d="M2144.89 164.24a1.93 1.93 0 00-2.12.71L2129 184a102.38 102.38 0 00-33 3.23l-17.2-15.95a1.92 1.92 0 00-2.22-.29l-24.83 13.27a1.93 1.93 0 00-1 2l3.71 23.17a101.94 101.94 0 00-21 25.61l-23.46.88a1.93 1.93 0 00-1.77 1.37l-8.18 26.94a1.94 1.94 0 00.72 2.13l19 13.76a102.11 102.11 0 003.24 33l-16 17.2a1.94 1.94 0 00-.29 2.22l13.28 24.84a1.92 1.92 0 002 1l23.17-3.71a101.94 101.94 0 0025.61 21l.88 23.46a1.93 1.93 0 001.37 1.78l27 8.17a1.94 1.94 0 002.12-.71l13.76-19a102.16 102.16 0 0033-3.23L2166.1 402a1.94 1.94 0 002.23.29l24.83-13.29a1.93 1.93 0 001-2l-3.7-23.16a102.38 102.38 0 0021-25.62l23.45-.88a1.93 1.93 0 001.78-1.37l8.17-26.94a1.93 1.93 0 00-.71-2.12l-19-13.77a102.1 102.1 0 00-3.23-33l15.95-17.2a1.92 1.92 0 00.29-2.22L2224.87 216a1.93 1.93 0 00-2-1l-23.16 3.71a102.16 102.16 0 00-25.62-21l-.88-23.46a1.93 1.93 0 00-1.36-1.77z" transform="translate(-117.48 -136.86)"/><path d="M2104.81 260.32a31.7 31.7 0 11-3.66 2.87 31.74 31.74 0 013.66-2.87zm27.85 41.54a18.84 18.84 0 002.13-1.67 18.25 18.25 0 10-2.13 1.67z" transform="translate(-117.48 -136.86)" fill="url(#linear-gradient-21)"/><path d="M2083.15 229c2-1.32 4-2.54 6.11-3.68l1-.53a70.63 70.63 0 0112.83-5.08 2.23 2.23 0 012.46.9 2.29 2.29 0 01.3.63 2.25 2.25 0 01-1.53 2.76 65.52 65.52 0 00-13 5.25 65.73 65.73 0 00-28.04 86.75c.35.73.72 1.45 1.1 2.17q1.6 3 3.45 5.73a65.72 65.72 0 00112.47-67.68 64.66 64.66 0 00-3.44-5.72 65.35 65.35 0 00-20.68-19.65 2.25 2.25 0 01-.7-.67 2.23 2.23 0 013-3.16 70.18 70.18 0 11-94.33 99.37q-2-2.94-3.69-6.12a70.28 70.28 0 0122.69-91.27z" transform="translate(-117.48 -136.86)" fill="url(#linear-gradient-22)"/><path class="cls-2" d="M1922.72 237.32a1 1 0 00-1.06.36l-6.89 9.51a51.4 51.4 0 00-16.5 1.62l-8.61-8a1 1 0 00-1.11-.15l-12.43 6.65a1 1 0 00-.5 1l1.86 11.59a51.08 51.08 0 00-10.48 12.84l-11.74.44a1 1 0 00-.89.69l-4.09 13.48a1 1 0 00.36 1.07l9.52 6.88a50.93 50.93 0 001.62 16.51l-8 8.6a1 1 0 00-.14 1.11l6.64 12.43a1 1 0 001 .5l11.6-1.86a50.9 50.9 0 0012.82 10.52l.44 11.74a1 1 0 00.68.89l13.48 4.09a1 1 0 001.07-.36l6.89-9.52a51.16 51.16 0 0016.5-1.61l8.61 8a1 1 0 001.11.15l12.42-6.65a.94.94 0 00.5-1l-1.85-11.59a51.43 51.43 0 0010.45-12.84l11.74-.44a1 1 0 00.89-.69l4.09-13.48a1 1 0 00-.36-1.07l-9.51-6.89a51.45 51.45 0 00-1.62-16.5l8-8.6a1 1 0 00.15-1.12l-6.65-12.42a.94.94 0 00-1-.5l-11.59 1.85a51.26 51.26 0 00-12.81-10.55l-.44-11.74a1 1 0 00-.69-.89z" transform="translate(-117.48 -136.86)"/><path d="M1902.66 285.41a15.85 15.85 0 11-1.83 1.43 14.57 14.57 0 011.83-1.43zm13.93 20.78a8.73 8.73 0 001.07-.83 9.17 9.17 0 10-15.32-7.22 9.16 9.16 0 0014.25 8.05z" transform="translate(-117.48 -136.86)" fill="url(#linear-gradient-23)"/><path d="M1891.82 269.73c1-.65 2-1.27 3.06-1.84l.51-.26a35 35 0 016.42-2.54 1.11 1.11 0 011.23.44 1.33 1.33 0 01.15.32 1.12 1.12 0 01-.77 1.38 33.7 33.7 0 00-6.49 2.63 32.93 32.93 0 00-14.06 43.43c.18.36.37.72.56 1.08.53 1 1.11 1.95 1.72 2.87a32.89 32.89 0 1044.22-46.57 1 1 0 01-.35-.34 1.09 1.09 0 010-1.19 1.11 1.11 0 011.53-.38 35 35 0 0111 10.5c.66 1 1.27 2 1.84 3.05a35.13 35.13 0 01-60.11 36.18c-.66-1-1.27-2-1.84-3.07a35.17 35.17 0 0111.38-45.69z" transform="translate(-117.48 -136.86)" fill="url(#linear-gradient-24)"/><path class="cls-2" d="M2183.3 415.46a1.22 1.22 0 00-1.34.45l-8.71 12a64.53 64.53 0 00-20.85 2l-10.88-10.09a1.23 1.23 0 00-1.41-.18l-15.7 8.39a1.22 1.22 0 00-.63 1.27l2.34 14.66a64.63 64.63 0 00-13.29 16.2l-14.84.55a1.22 1.22 0 00-1.12.87l-5.17 17a1.24 1.24 0 00.45 1.35l12 8.7a64.63 64.63 0 002.05 20.86l-10.1 10.88a1.23 1.23 0 00-.18 1.4l8.4 15.71a1.22 1.22 0 001.27.63l14.65-2.35a64.63 64.63 0 0016.2 13.29L2137 564a1.21 1.21 0 00.86 1.12l17.05 5.17a1.21 1.21 0 001.34-.45l8.71-12a64.53 64.53 0 0020.85-2l10.88 10.09a1.21 1.21 0 001.41.18l15.7-8.39a1.22 1.22 0 00.63-1.27l-2.34-14.65a64.72 64.72 0 0013.29-16.21l14.83-.55a1.24 1.24 0 001.13-.87l5.17-17a1.22 1.22 0 00-.45-1.34l-12-8.71a64.63 64.63 0 00-2-20.86l10.09-10.88a1.21 1.21 0 00.19-1.4l-8.4-15.71a1.22 1.22 0 00-1.27-.63l-14.67 2.24a64.63 64.63 0 00-16.2-13.29l-.56-14.84a1.22 1.22 0 00-.86-1.12z" transform="translate(-117.48 -136.86)"/><path d="M2158 476.23a20.05 20.05 0 11-2.32 1.82 20.08 20.08 0 012.32-1.82zm17.61 26.28a11.44 11.44 0 001.35-1.06 11.58 11.58 0 10-15.59-17.14 11.59 11.59 0 0014.24 18.2z" transform="translate(-117.48 -136.86)" fill="url(#linear-gradient-25)"/><path d="M2144.25 456.42q1.86-1.25 3.87-2.32l.64-.34a45.26 45.26 0 018.12-3.21 1.41 1.41 0 011.55.57 1.34 1.34 0 01.19.4 1.41 1.41 0 01-1 1.74 41.6 41.6 0 00-8.2 3.33 41.58 41.58 0 00-17.77 54.88c.22.46.46.91.7 1.37a41 41 0 002.18 3.63 41.57 41.57 0 0071.14-42.82 41.86 41.86 0 00-15.26-16 1.43 1.43 0 01-.48-1.94 1.41 1.41 0 011.93-.48 44.16 44.16 0 0114 13.27 45.43 45.43 0 012.33 3.86 44.39 44.39 0 01-76 45.72q-1.24-1.86-2.33-3.87a44.45 44.45 0 0114.39-57.79z" transform="translate(-117.48 -136.86)" fill="url(#linear-gradient-26)"/><path d="M1766.66 242.72a9.27 9.27 0 109.21-9.33 9.27 9.27 0 00-9.21 9.33z" transform="translate(-117.48 -136.86)" fill="url(#linear-gradient-27)"/><path d="M1767 242.71a9 9 0 108.9-9 9 9 0 00-8.9 9z" transform="translate(-117.48 -136.86)" fill="url(#linear-gradient-28)"/><path class="cls-10" d="M1784.18 244.15a2 2 0 01-2-1.87 6.82 6.82 0 00-.1-.79 2 2 0 013.91-.74 11.26 11.26 0 01.16 1.3 2 2 0 01-1.87 2.1z" transform="translate(-117.48 -136.86)"/><path class="cls-2" d="M1783.29 240.87a2 2 0 01-1.77-1.08 6.25 6.25 0 00-5.59-3.42 6.1 6.1 0 00-1.18.11 2 2 0 11-.74-3.9 9.59 9.59 0 011.85-.18h.06a10.21 10.21 0 019.14 5.58 2 2 0 01-1.77 2.89z" transform="translate(-117.48 -136.86)"/><path d="M1766.66 298.9a9.27 9.27 0 109.21-9.33 9.27 9.27 0 00-9.21 9.33z" transform="translate(-117.48 -136.86)" fill="url(#linear-gradient-29)"/><path d="M1767 298.89a9 9 0 108.9-9 9 9 0 00-8.9 9z" transform="translate(-117.48 -136.86)" fill="url(#linear-gradient-30)"/><path class="cls-10" d="M1784.18 300.33a2 2 0 01-2-1.87 6.82 6.82 0 00-.1-.79 2 2 0 013.91-.74 11.26 11.26 0 01.16 1.3 2 2 0 01-1.87 2.1z" transform="translate(-117.48 -136.86)"/><path class="cls-2" d="M1783.29 297.05a2 2 0 01-1.77-1.08 6.32 6.32 0 00-5.63-3.42 7.33 7.33 0 00-1.14.11 2 2 0 01-2.32-1.58 2 2 0 011.58-2.33 9 9 0 011.93-.17 10.2 10.2 0 019.12 5.58 2 2 0 01-1.77 2.89z" transform="translate(-117.48 -136.86)"/><path d="M1766.66 355.07a9.27 9.27 0 109.21-9.32 9.28 9.28 0 00-9.21 9.32z" transform="translate(-117.48 -136.86)" fill="url(#linear-gradient-31)"/><path d="M1767 355.07a9 9 0 108.9-9 9 9 0 00-8.9 9z" transform="translate(-117.48 -136.86)" fill="url(#linear-gradient-32)"/><path class="cls-10" d="M1784.18 356.51a2 2 0 01-2-1.88 6.93 6.93 0 00-.1-.78 2 2 0 013.91-.74 11.09 11.09 0 01.16 1.29 2 2 0 01-1.87 2.1z" transform="translate(-117.48 -136.86)"/><path class="cls-2" d="M1783.29 353.23a2 2 0 01-1.77-1.08 6.26 6.26 0 00-5.63-3.42 6.12 6.12 0 00-1.14.11 2 2 0 01-.74-3.91 11.48 11.48 0 011.85-.18h.07a10.22 10.22 0 019.13 5.59 2 2 0 01-1.77 2.89zm-30.88-111l-.05 1.58c-.11 4.28-2.78 7.67-6 7.68l-248.21.38c-3.37 0-6.1-3.56-6.1-8 0-4.33 2.65-7.86 6-7.94l248.25-2c3.4-.03 6.23 3.74 6.11 8.3zm0 55.91l-.05 1.58c-.11 4.27-2.78 7.66-6 7.68l-248.21.37c-3.37 0-6.1-3.56-6.1-8 0-4.33 2.65-7.86 6-7.95l248.25-2c3.4-.02 6.23 3.75 6.11 8.32zm0 55.86l-.05 1.58c-.11 4.27-2.78 7.66-6 7.68l-248.21.38c-3.37 0-6.1-3.56-6.1-8 0-4.33 2.65-7.86 6-7.94l248.25-2c3.4.01 6.23 3.78 6.11 8.3z" transform="translate(-117.48 -136.86)"/><path d="M477.93 741.46a9.27 9.27 0 109.21-9.32 9.28 9.28 0 00-9.21 9.32z" transform="translate(-117.48 -136.86)" fill="url(#linear-gradient-33)"/><path d="M478.24 741.46a9 9 0 108.9-9 9 9 0 00-8.9 9z" transform="translate(-117.48 -136.86)" fill="url(#linear-gradient-34)"/><path d="M494.57 739.62a2 2 0 01-1.78-1.08 6.25 6.25 0 00-5.59-3.42 6 6 0 00-1.18.11 2 2 0 11-.73-3.91 11.25 11.25 0 011.84-.18h.07a10.22 10.22 0 019.13 5.59 2 2 0 01-.86 2.67 2 2 0 01-.9.22z" transform="translate(-117.48 -136.86)" fill="url(#linear-gradient-35)"/><circle cx="487.2" cy="797.58" r="9.27" transform="rotate(-73.2 334.91 805.78)" fill="url(#linear-gradient-36)"/><path d="M478.24 797.64a9 9 0 108.9-9 9 9 0 00-8.9 9z" transform="translate(-117.48 -136.86)" fill="url(#linear-gradient-37)"/><path d="M494.57 795.8a2 2 0 01-1.78-1.08 6.25 6.25 0 00-5.59-3.42 8 8 0 00-1.18.11 2 2 0 11-.73-3.91 11.25 11.25 0 011.84-.18h.07a10.21 10.21 0 019.13 5.58 2 2 0 01-.86 2.68 2 2 0 01-.9.22z" transform="translate(-117.48 -136.86)" fill="url(#linear-gradient-38)"/><path d="M477.93 853.82a9.27 9.27 0 109.21-9.33 9.28 9.28 0 00-9.21 9.33z" transform="translate(-117.48 -136.86)" fill="url(#linear-gradient-39)"/><path d="M478.24 853.82a9 9 0 108.9-9 9 9 0 00-8.9 9z" transform="translate(-117.48 -136.86)" fill="url(#linear-gradient-40)"/><path d="M494.57 852a2 2 0 01-1.78-1.08 6.43 6.43 0 00-5.63-3.42 6.29 6.29 0 00-1.14.11 2 2 0 01-.73-3.91 10.25 10.25 0 0111 5.4 2 2 0 01-.86 2.68 2 2 0 01-.86.22z" transform="translate(-117.48 -136.86)" fill="url(#linear-gradient-41)"/><path d="M463.68 741l-.05 1.58c-.11 4.27-2.78 7.66-6 7.68l-248.21.38c-3.37 0-6.1-3.56-6.1-8 0-4.33 2.65-7.86 6-7.95l248.24-2c3.44-.04 6.24 3.72 6.12 8.31z" transform="translate(-117.48 -136.86)" fill="url(#linear-gradient-42)"/><path d="M463.68 796.89l-.05 1.57c-.11 4.28-2.78 7.67-6 7.68l-248.21.38c-3.37 0-6.1-3.56-6.1-8 0-4.33 2.65-7.86 6-7.95l248.24-2c3.44-.02 6.24 3.75 6.12 8.32z" transform="translate(-117.48 -136.86)" fill="url(#linear-gradient-43)"/><path d="M463.68 852.79l-.05 1.58c-.11 4.27-2.78 7.66-6 7.68l-248.21.38c-3.37 0-6.1-3.57-6.1-8 0-4.33 2.65-7.86 6-8l248.24-2c3.44.03 6.24 3.79 6.12 8.36z" transform="translate(-117.48 -136.86)" fill="url(#linear-gradient-44)"/><path d="M2003.5 883.38a2.08 2.08 0 013.85.41c1.87 6.73 6.4 18.47 15.89 22.64.48.21.93.42 1.37.64a4.82 4.82 0 00-.6-4.37c-3-4.51 2.38-10.67 2.38-10.67a13.7 13.7 0 004.48 8.84c3.55 3 5.26 9.49 2.83 14.87-5.14 20-12.83 46.35 17.14 65.63S2123 945 2123 945l-20.95 66.41s-32.34 23.86-70-9.69-12.68-82.38-12.68-82.38-28.62-11.59-15.87-35.96z" transform="translate(-117.48 -136.86)" fill="url(#linear-gradient-45)"/><path d="M2128.26 847.4s-8.68-38.95 35.94-28.64c0 0 21.65-3.53 22.76 16.91 0 0 14 9.2 3.73 26.89 0 0 41.49-16 59.57 20.34s1.46 56.37-16 61.58c0 0 14.11 7.09 7.43 23.09s-40.51 27.27-60.49 7.82c0 0-56.86 7.51-55.72-32.65 0 0-26.45-17.08 1.33-50.27s1.45-45.07 1.45-45.07z" transform="translate(-117.48 -136.86)" fill="url(#linear-gradient-46)"/><path d="M2125.81 937.68c9-2.68 35.07-7.65 59.9 15.27a15.36 15.36 0 014.43 15.32c-6.67 24.55-24.26 97.09-8.83 128.48 0 0-27.19 30-56.85 5.81 0 0-13.31-58-30.74-83.46-12-17.58 19.19-66 27.09-77.72a9.29 9.29 0 015-3.7z" transform="translate(-117.48 -136.86)" fill="url(#linear-gradient-47)"/><path d="M2150.57 888.91s13.26 37.5 14.26 54.05a28.38 28.38 0 01-28.47-4.59s-1.45-37.46-3.54-44.17z" transform="translate(-117.48 -136.86)" fill="url(#linear-gradient-48)"/><path d="M2132.15 837.77s-34.68 48.53-14 62.63 45.47-20.4 45.47-20.4 8.05-26.57-.37-35.58-31.1-6.65-31.1-6.65z" transform="translate(-117.48 -136.86)" fill="url(#linear-gradient-49)"/><path d="M2148.2 826.17s-15.93 3.78-18.16 11 22.59 13.9 29.55 14.22l5.6 29.09s16.57-27.36 10-43.16-26.99-11.15-26.99-11.15z" transform="translate(-117.48 -136.86)" fill="url(#linear-gradient-50)"/><path d="M2156.9 876.43s13.5-15.63 18.86-5.44-12.15 17.85-18.21 12.84z" transform="translate(-117.48 -136.86)" fill="url(#linear-gradient-51)"/><path d="M2089.83 1224.34c.1 2.64-4.52 23.52-7 34.66a18.39 18.39 0 002 13.17l87.13 146.65a19.64 19.64 0 012.29 5.71c1.6 6.88 4.91 23.74 3.18 39.09l-4.51 9.36 19.5-4.42 4.24-52.36-5.52-3.36a26.22 26.22 0 01-10.6-12.42c-7.88-19.14-27.45-67.86-32.49-91.6-5.73-27-35.7-48.9-35.7-48.9l5.27-12.45z" transform="translate(-117.48 -136.86)" fill="url(#linear-gradient-52)"/><path d="M2214 1450.54s-10.53-16.69-11.77-23.19-4.69-18-11.18-14.51c0 0-3.06 31.56-2 43.89s-13.94 11.93-13.94 11.93a14 14 0 00-7.16 3.61 3.51 3.51 0 002.35 5.91 84.89 84.89 0 0020.89-1.19 6.37 6.37 0 005.15-5.89l2.16-36.33 13.28 16.77z" transform="translate(-117.48 -136.86)" fill="url(#linear-gradient-53)"/><path d="M2141.89 1247.7s3.07 131.19 3.48 149.82-2.94 59.92-21.61 72.26l8.12 6s10.16-8.63 20.08-25.24c11.15-18.66 14.52-22.07 14.52-22.07l-3.7-7.58a16.69 16.69 0 01-1.35-10.68c4-19.54 17.5-84.51 21.17-98.5 4.33-16.52 4.64-38.58-10.44-57s-30.27-7.01-30.27-7.01z" transform="translate(-117.48 -136.86)" fill="url(#linear-gradient-54)"/><path d="M2159.13 1481.71a1.16 1.16 0 001.16-1c.62-4.37 3.2-21.9 5.32-26.44 2.43-5.2 10.35-27.09 0-28.94 0 0-25.74 37.6-30.68 42.67s-11.17 1.77-11.17 1.77a18.59 18.59 0 00-8.45 6.06 3.4 3.4 0 002.69 5.47l17.33.17a12.21 12.21 0 0011.44-7.68c3.05-7.63 8.29-18.81 14.4-23.76l-3.18 30.39a1.16 1.16 0 001.14 1.28z" transform="translate(-117.48 -136.86)" fill="url(#linear-gradient-55)"/><path d="M2120.35 1088.42s3.91 12.45-2.09 33l-37.23 130a4 4 0 002.52 4.9c11.13 4 47.74 15.29 97.71 11.85a5.69 5.69 0 005.18-4.42c3.29-14.82 14.52-65.39 16.84-75.78 8.81-39.59 18.65-82.28-24.64-108.1-19.96 8.51-38.57 13.54-58.29 8.55z" transform="translate(-117.48 -136.86)" fill="url(#linear-gradient-56)"/><path d="M2189.27 957.85s42.35 35.2 52.87 83.3-61.9 53.21-61.9 53.21-9.83-11-21.5-7.06-.9-19.15 12.75-19.09 7.33 10.85 26.65 2.1c18.81-8.52 30.44-34.88-17.57-74.83a21.81 21.81 0 01-6.34-8.64c-9.32-23.47-1.93-38.84 15.04-28.99z" transform="translate(-117.48 -136.86)" fill="url(#linear-gradient-57)"/><path d="M535.56 233L1241 221.1c28.4-.48 51.19 23.88 49.5 52.9l-24.28 417.55c-1.32 22.85-19.7 40.75-42.07 41l-678 6.71c-16.75.16-30.58-13.34-31.22-30.47L498.61 273c-.81-21.59 15.87-39.62 36.95-40z" transform="translate(-117.48 -136.86)" fill="url(#linear-gradient-58)"/><path d="M546.37 243.66l687-11.34a47.51 47.51 0 0148.21 50.33l-23.66 397.25a41.45 41.45 0 01-41 39l-660.36 6.38a30.14 30.14 0 01-30.41-29l-15.8-414.6a36.62 36.62 0 0136.02-38.02z" transform="translate(-117.48 -136.86)" fill="url(#linear-gradient-59)"/><path class="cls-4" d="M559.22 257.35l654.17-10.8a45.26 45.26 0 0145.91 47.93l-22.52 378.28a39.47 39.47 0 01-39 37.12L569 716a28.71 28.71 0 01-29-27.6l-15-394.86a34.87 34.87 0 0134.22-36.19z" transform="translate(-117.48 -136.86)"/><path d="M1234.94 232l-689.86 11.38a36.77 36.77 0 00-36.14 38.17l1.11 29.22h771.62l1.68-28.24a47.71 47.71 0 00-48.41-50.53z" transform="translate(-117.48 -136.86)" fill="url(#linear-gradient-60)"/><path class="cls-10" d="M566.77 257.51a6.21 6.21 0 11-6.2-6.21 6.21 6.21 0 016.2 6.21zm0 18.18a6.21 6.21 0 11-6.2-6.21 6.21 6.21 0 016.2 6.21zm0 18.18a6.21 6.21 0 11-6.2-6.21 6.21 6.21 0 016.2 6.21z" transform="translate(-117.48 -136.86)" opacity=".85"/><circle class="cls-2" cx="559.03" cy="329.46" r="98.34"/><circle cx="676.51" cy="466.32" r="21.68" transform="rotate(-45 452.57 539.7)" fill="url(#linear-gradient-61)"/><path class="cls-71" d="M729.22 501.83A63.16 63.16 0 11677 403.16c1.07 0 2.13 0 3.19.08v-16c-1.06-.05-2.12-.07-3.19-.07a79.16 79.16 0 1065.2 124.06z" transform="translate(-117.48 -136.86)"/><path d="M850 391.53A14.41 14.41 0 11835.66 377 14.41 14.41 0 01850 391.53z" transform="translate(-117.48 -136.86)" fill="url(#linear-gradient-62)"/><path d="M849.49 391.53a13.93 13.93 0 11-13.84-14 13.93 13.93 0 0113.84 14z" transform="translate(-117.48 -136.86)" fill="url(#linear-gradient-63)"/><path d="M822.73 390.67a12.2 12.2 0 01.19-1.61z" transform="translate(-117.48 -136.86)" fill="url(#linear-gradient-64)"/><path d="M824.11 385.58a12.84 12.84 0 0113.89-6.77z" transform="translate(-117.48 -136.86)" fill="url(#linear-gradient-65)"/><path d="M850 478.88a14.41 14.41 0 11-14.31-14.5 14.41 14.41 0 0114.31 14.5z" transform="translate(-117.48 -136.86)" fill="url(#linear-gradient-66)"/><path d="M849.49 478.88a13.93 13.93 0 11-13.84-14 13.93 13.93 0 0113.84 14z" transform="translate(-117.48 -136.86)" fill="url(#linear-gradient-67)"/><path d="M822.73 478a12 12 0 01.19-1.61z" transform="translate(-117.48 -136.86)" fill="url(#linear-gradient-68)"/><path d="M824.11 472.93a12.89 12.89 0 0111.54-7 13.71 13.71 0 012.32.22z" transform="translate(-117.48 -136.86)" fill="url(#linear-gradient-69)"/><path d="M850 566.23a14.41 14.41 0 11-14.31-14.5 14.41 14.41 0 0114.31 14.5z" transform="translate(-117.48 -136.86)" fill="url(#linear-gradient-70)"/><path d="M849.49 566.23a13.93 13.93 0 11-13.84-14 13.93 13.93 0 0113.84 14z" transform="translate(-117.48 -136.86)" fill="url(#linear-gradient-71)"/><path d="M822.73 565.37a12 12 0 01.19-1.61z" transform="translate(-117.48 -136.86)" fill="url(#linear-gradient-72)"/><path d="M824.11 560.28A12.92 12.92 0 01838 553.5z" transform="translate(-117.48 -136.86)" fill="url(#linear-gradient-73)"/><path class="cls-71" d="M872.14 390.79l.06 2.45c.18 6.64 4.33 11.91 9.4 11.94l280.37.58c5.23 0 9.49-5.53 9.48-12.4 0-6.73-4.12-12.22-9.25-12.35l-280.44-3c-5.42-.18-9.76 5.67-9.62 12.78zm0 86.92l.06 2.45c.18 6.65 4.33 11.92 9.4 11.94l280.37.59c5.23 0 9.49-5.54 9.48-12.4 0-6.73-4.12-12.22-9.25-12.36l-280.44-3c-5.42-.18-9.76 5.68-9.62 12.78zm0 86.92l.06 2.45c.18 6.65 4.33 11.92 9.4 11.94l280.37.59c5.23 0 9.49-5.54 9.48-12.4 0-6.73-4.12-12.22-9.25-12.36l-280.44-3c-5.42-.18-9.76 5.68-9.62 12.78z" transform="translate(-117.48 -136.86)"/><path class="cls-84" d="M1188.66 633.15l-601.87 10.68A17.38 17.38 0 00569.93 664l2.66 16.6a17.37 17.37 0 0017.23 14.64l596.56-2.34a17.39 17.39 0 0017.22-15.55l2.65-24.93a17.37 17.37 0 00-17.59-19.27z" transform="translate(-117.48 -136.86)"/><path d="M625.33 1049a3.06 3.06 0 00-.09-.9c-4.46-17.69-26.62-28.71-26.62-28.71l-8.77.68c-5.05 15.6-4.4 25.17-3.59 29.43a3.37 3.37 0 00.09.34 208.43 208.43 0 0038.98-.84z" transform="translate(-117.48 -136.86)" fill="url(#linear-gradient-74)"/><path d="M586.35 1049.83a3.81 3.81 0 002.78 2.82c10.3 2.16 26.68.42 33.55-.48a3.19 3.19 0 002.65-3.18 208.43 208.43 0 01-38.98.84z" transform="translate(-117.48 -136.86)" fill="url(#linear-gradient-75)"/><path d="M551.59 735.75c-5.42 5.79-13.41 10.79-19 13.9 8.38 10.37 19.74 20.76 34.76 30.92l4.3 9.65 13.78-16.51s-24.74-12.31-33.84-37.96z" transform="translate(-117.48 -136.86)" fill="url(#linear-gradient-76)"/><path d="M586.32 1007l3.71 17.9a2.94 2.94 0 002.5 2.41 24.55 24.55 0 005.76-.1 3.68 3.68 0 002.92-4.32l-2.59-15.89z" transform="translate(-117.48 -136.86)" fill="url(#linear-gradient-77)"/><path d="M663.35 1049.65c-9.7-.27-14.71-1.41-17.3-2.47v3a1.9 1.9 0 001.82 1.95l53.23-.34a2.44 2.44 0 002-3.54c-6.99.53-24.77 1.82-39.75 1.4z" transform="translate(-117.48 -136.86)" fill="url(#linear-gradient-78)"/><path d="M703.09 1048.21a1.9 1.9 0 00-.21-.4c-4.7-6.57-16.68-19.65-40.33-25.33l-11.35-.35s-5.06 8.78-5.15 25.05c2.59 1.06 7.6 2.2 17.3 2.47 14.98.42 32.76-.87 39.74-1.44z" transform="translate(-117.48 -136.86)" fill="url(#linear-gradient-79)"/><path d="M649.09 1004.93c.13.84 1.68 13.7 2.28 18.68a2.49 2.49 0 002.09 2.24 26 26 0 007.79-.12 3.37 3.37 0 002.55-3.37v-20.19z" transform="translate(-117.48 -136.86)" fill="url(#linear-gradient-80)"/><path d="M640 770.27s27.38 104 26.89 235a5.07 5.07 0 01-4 4.94 58.54 58.54 0 01-12.69 1.47 4.71 4.71 0 01-4.48-3.93c-3.84-22.51-25.86-149.32-38.41-169.9 0 0-8.26 112.94-5.62 171.53a2.78 2.78 0 01-2.45 2.89 46 46 0 01-10.19 0 3.71 3.71 0 01-3.31-3.15c-2.74-19-18.47-132.45-17.8-214.14 0-4.6 12.18-24.63 12.18-24.63z" transform="translate(-117.48 -136.86)" fill="url(#linear-gradient-81)"/><path d="M729.5 546.23c-12 22.37-32 45.19-64.42 51.31-30 5.65-83.76 12.63-105.38 15.35a26.47 26.47 0 00-16.74 9c-17 19.66-54.29 73.51-10.39 127.77 5.61-3.11 13.6-8.11 19-13.9-4.86-13.69-5.26-31.19 4.92-52.64a51.75 51.75 0 001.3 5c14 44.44 14.78 81.43 14.75 90a2.81 2.81 0 001.76 2.63c18.46 7.4 54 3 65.93 1.22a4 4 0 003.36-4.56c-5.85-42.42 24.2-112.2 32.13-129.68a11.62 11.62 0 015.77-5.77c45.38-20.53 65.12-52.13 73.11-80.6-6.89-9.31-17.6-13.36-25.1-15.13z" transform="translate(-117.48 -136.86)" fill="url(#linear-gradient-82)"/><path d="M754.62 561.34c9.7-34.51 2.16-64.42 2.16-64.42h-10.34a167.44 167.44 0 01-16.94 49.31c7.5 1.77 18.21 5.82 25.12 15.11z" transform="translate(-117.48 -136.86)" fill="url(#linear-gradient-83)"/><path d="M750.08 502.42s-15.74-20.39-10.63-31 22.65-9.59 22.65-9.59l2.46 8.33a10.41 10.41 0 01-.25 6.66l-9.69 25.61z" transform="translate(-117.48 -136.86)" fill="url(#linear-gradient-84)"/><path d="M591.61 572.08l-3.56 36.35s20.45 6.16 35.32-4.33l-10.45-33z" transform="translate(-117.48 -136.86)" fill="url(#linear-gradient-85)"/><path d="M615.34 530.64c.49.47 20.77 40.3 20.77 40.3l-23 11.09-24.83-34.89s18.82-24.25 27.06-16.5z" transform="translate(-117.48 -136.86)" fill="url(#linear-gradient-86)"/><path d="M598.46 548.11a3.66 3.66 0 00.28 3.22l11.46 19.11a4 4 0 00.63.78c1.37 1.27 6 5 9.65-.07 3.07-4.28 6-8.18 9-9.79a3.67 3.67 0 015 1.63 137 137 0 017.85 18.61 3.66 3.66 0 01-2.13 4.48c-4.65 1.88-13.85 5.29-22 6.42a3.66 3.66 0 01-3.47-1.47c-3.51-4.81-13.41-18.26-16.79-21.63-3.14-3.12-8.93-1.94-11.54-1.19a3.72 3.72 0 01-2.93-.39c-2.65-1.59-7.27-5.57-3-12.29a3.68 3.68 0 00-1.14-5c-3-1.94-6.16-5.59-3.11-11.5s8.62-6.53 12.39-6.07a3.8 3.8 0 004-2.22 2.44 2.44 0 011.89-1.49 3.55 3.55 0 002.88-4.18c-.66-3.39-.16-7.79 5.25-10.76 9.92-5.45 18.6 3.43 20.81 10.93s-8.88 12.81-15.85 13.69c-5.19.66-8 6.25-9.13 9.18z" transform="translate(-117.48 -136.86)" fill="url(#linear-gradient-87)"/><path d="M602.24 576.42s-4.41-12.9-10.06-12.43-10.09 6.1-3.09 12.42c8.7 7.87 13.15.01 13.15.01z" transform="translate(-117.48 -136.86)" fill="url(#linear-gradient-88)"/><path d="M554.65 679.79c-7.44-20.37-4.74-45-4.71-45.21l2 .24c0 .24-2.67 24.36 4.6 44.26z" transform="translate(-117.48 -136.86)" fill="url(#linear-gradient-89)"/><path d="M606.25 835.14a1 1 0 01-1-.77C603 825.61 586 816 585.81 815.9a1 1 0 01-.39-1.41 1 1 0 011.4-.39c.73.41 17.94 10.15 20.43 19.75a1 1 0 01-.74 1.26 1.15 1.15 0 01-.26.03z" transform="translate(-117.48 -136.86)" fill="url(#linear-gradient-90)"/><path d="M468.45 1493.2a6.63 6.63 0 006.7-5.07L581 927.73c.62-3.31-1.87-6.45-5.58-7s-7.22 1.67-7.84 5l-105.87 560.4c-.63 3.31 1.87 6.45 5.58 7a8.74 8.74 0 001.16.07z" transform="translate(-117.48 -136.86)" fill="url(#linear-gradient-91)"/><path d="M825.6 1493.2a7.7 7.7 0 001.35-.12c3.69-.66 6.07-3.87 5.33-7.16l-124.8-553.11c-.74-3.29-4.32-5.44-8-4.76s-6.07 3.87-5.33 7.16l124.8 553.11a6.66 6.66 0 006.65 4.88z" transform="translate(-117.48 -136.86)" fill="url(#linear-gradient-92)"/><path d="M549.23 1066.22h180.91c3.76 0 6.81-2.72 6.81-6.08s-3.05-6.08-6.81-6.08H549.23c-3.76 0-6.81 2.72-6.81 6.08s3.05 6.08 6.81 6.08z" transform="translate(-117.48 -136.86)" fill="url(#linear-gradient-93)"/><path d="M552.51 1066.22h174.35a6.1 6.1 0 100-12.16H552.51a6.1 6.1 0 100 12.16z" transform="translate(-117.48 -136.86)" fill="url(#linear-gradient-94)"/><path d="M549.23 1167.55h180.91c3.76 0 6.81-2.72 6.81-6.08s-3.05-6.08-6.81-6.08H549.23c-3.76 0-6.81 2.72-6.81 6.08s3.05 6.08 6.81 6.08z" transform="translate(-117.48 -136.86)" fill="url(#linear-gradient-95)"/><path d="M532.8 1167.55h219.33c3.76 0 6.81-2.72 6.81-6.08s-3.05-6.08-6.81-6.08H532.8c-3.76 0-6.8 2.72-6.8 6.08s3 6.08 6.8 6.08z" transform="translate(-117.48 -136.86)" fill="url(#linear-gradient-96)"/><path d="M549.23 1268.88h180.91c3.76 0 6.81-2.72 6.81-6.08s-3.05-6.08-6.81-6.08H549.23c-3.76 0-6.81 2.72-6.81 6.08s3.05 6.08 6.81 6.08z" transform="translate(-117.48 -136.86)" fill="url(#linear-gradient-97)"/><path d="M511.85 1268.88h262.54c3.76 0 6.81-2.72 6.81-6.08s-3.05-6.08-6.81-6.08H511.85c-3.76 0-6.8 2.72-6.8 6.08s3.04 6.08 6.8 6.08z" transform="translate(-117.48 -136.86)" fill="url(#linear-gradient-98)"/><path d="M549.23 1370.21H795.5c3.75 0 6.8-2.72 6.8-6.08s-3-6.08-6.8-6.08H549.23c-3.76 0-6.81 2.72-6.81 6.08s3.05 6.08 6.81 6.08z" transform="translate(-117.48 -136.86)" fill="url(#linear-gradient-99)"/><path d="M494.91 1370.21H795.5c3.75 0 6.8-2.72 6.8-6.08s-3-6.08-6.8-6.08H494.91c-3.76 0-6.81 2.72-6.81 6.08s3.05 6.08 6.81 6.08z" transform="translate(-117.48 -136.86)" fill="url(#linear-gradient-100)"/><path class="cls-84" d="M1791.62 1180.39h15.11v163.39h-15.11z"/><path class="cls-84" d="M1735.87 1337.09h126.4a3.08 3.08 0 013.08 3.08v6.76H1733v-7a2.86 2.86 0 012.87-2.84z"/><rect x="1713.55" y="1141.48" width="176.82" height="50.15" rx="17.27" fill="url(#linear-gradient-101)"/><path d="M1782.72 1431s-48.84 21-46 43.06c0 0 50.5-9.68 59.53-24.11s4.06-22.8 4.06-22.8z" transform="translate(-117.48 -136.86)" fill="url(#linear-gradient-102)"/><path d="M1794.68 1407l2.48 21.44a7.09 7.09 0 01-4.48 7.53 18.56 18.56 0 01-6.19.94 8.25 8.25 0 01-8-6l-4.81-17.34z" transform="translate(-117.48 -136.86)" fill="url(#linear-gradient-103)"/><path d="M1901.39 1242.58s-89.84-4.16-134.55 21.91 2.27 151.19 2.27 151.19 11.68 2.51 28.49-6.47c0 0-24-91.6 17.69-107.53 46.86-17.92 95.33-13.56 95.33-13.56l-9-42.71z" transform="translate(-117.48 -136.86)" fill="url(#linear-gradient-104)"/><path d="M1746.49 1464.41c10.22-2.24 40.51-14.79 45.11-14.62s11.12 7.06 11.12 7.06 1.12 3.77-2.17 9.18c-7.8 6.08-24.62 17.26-44.17 18.48-14.38.9-23-4.82-28-10.37a40 40 0 0118.11-9.73z" transform="translate(-117.48 -136.86)" fill="url(#linear-gradient-105)"/><path d="M1756.38 1484.51c19.55-1.22 36.37-12.4 44.17-18.48-2.22 3.65-6.46 8.06-14.42 12.56-19.76 11.16-52.41 9.53-58.88 7-5.19-2-3.58-6.86 1.15-11.47 4.95 5.57 13.6 11.29 27.98 10.39z" transform="translate(-117.48 -136.86)" fill="url(#linear-gradient-106)"/><path d="M1813.45 1445.63c-.67 2.53-7.83 10.13-12 14.36a8.12 8.12 0 01-7.56 2.28 21 21 0 01-5.42-1.9 5.28 5.28 0 01-2-7.19l10.46-19z" transform="translate(-117.48 -136.86)" fill="url(#linear-gradient-107)"/><path d="M1990.42 1235s7.84 55.64-14.83 67-72.41 18.81-89.53 47.67-47.9 85.49-75.9 101.76c0 0-16-5.2-20.66-13.07 0 0 33.23-87.35 47.1-108.59 12-18.39 29.56-44.88 54.5-56.34 7.14-3.28 7.7-10.85 6.44-18.61l-2.29-14.12z" transform="translate(-117.48 -136.86)" fill="url(#linear-gradient-108)"/><path d="M1780.27 1172c31.79 9.07 46-80.39 45.89-82.57l48.74 57s-29 51.1-72.89 56.54a51.88 51.88 0 01-28.45-4.17 45.45 45.45 0 006.71-26.8z" transform="translate(-117.48 -136.86)" fill="url(#linear-gradient-109)"/><path d="M1721.41 1142.7c13.85-5.7 25.6 5.66 25.6 5.66 13.73 14.06 24.62 21.15 33.26 23.62a45.45 45.45 0 01-6.71 26.79c-17.12-7.85-27.11-23.71-31.22-31.63a6 6 0 00-7.84-2.66c-2.94 1.42-6 3.59-6.16 6.53-.37 5.8-7.28 6.15-7.32 4s5.35-13.6 5.35-13.6-15.92 10.21-22.11 14.12-11.48-2.54-11.48-2.54 14.77-24.6 28.63-30.29z" transform="translate(-117.48 -136.86)" fill="url(#linear-gradient-110)"/><path d="M1978.18 1052.6s-42.72-29.14-145.89 23.56c0 0-10.63 13.47-5.65 28.66s66.23 97.35 68.61 135.93c0 0 41.88 24.65 96.24.21 0 .04 18.23-101.86-13.31-188.36z" transform="translate(-117.48 -136.86)" fill="url(#linear-gradient-111)"/><path d="M1889.22 1015.34l16.89 33.08a9.42 9.42 0 01-1 10.14c-4.65 5.83-14.35 13.65-30.91 8.61a14.51 14.51 0 01-9.89-10.52l-8.75-36.93z" transform="translate(-117.48 -136.86)" fill="url(#linear-gradient-112)"/><path d="M2009.81 1168.11c2.89-20.11-50.24-59.08-50.24-59.08l18.61-56.43s101.39 72.36 80.07 131.45c-3.06 8.47-7.62 14.64-13.18 19-10.73-22-25.3-31.16-35.26-34.94z" transform="translate(-117.48 -136.86)" fill="url(#linear-gradient-113)"/><path d="M1935.68 1173.69s60.11 16.79 72.58-1.51a9.6 9.6 0 001.55-4.07c10 3.78 24.53 12.94 35.26 35-28.54 22.45-83.56-2.72-98.51-10.26a10.58 10.58 0 00-7.92-.67c-5.32 1.66-14.53 4.24-19.67 4-7.51-.41-15.57 26.73-28.35 19.86 0-.04 5.81-46.46 45.06-42.35z" transform="translate(-117.48 -136.86)" fill="url(#linear-gradient-114)"/><path d="M1867.59 961.28c-.54.46-22.81 39.36-34.14 59.18A11.66 11.66 0 001839 1037l4.91 2.1c6.71 2.88 21.14 5.28 26.82.7l35.79-37.79s-26.89-51.15-38.93-40.73z" transform="translate(-117.48 -136.86)" fill="url(#linear-gradient-115)"/><path d="M1916.6 991.67c4.39-2.46 9.67-7.46 5.56-16.29s-12.43-9.76-17.75-9.19a4.44 4.44 0 01-4.72-3.2 3.53 3.53 0 00-3.12-2.52 4.38 4.38 0 01-3.45-5.48c1.27-4.78 1.06-11.26-6.62-15.91-13.63-8.25-26.36 3.73-29.91 14.15s11.73 18.52 21.49 20.17c7.42 1.26 11 9.82 12.35 13.85a4.41 4.41 0 01-.53 3.78l-10.9 16.54c3 3.77 5.65 7.75 8.26 11.77 1-1.05 1.84-1.93 2.51-2.54 4.72-4.33 13.13-2.1 16.59-.91a4.38 4.38 0 003.44-.25c3.77-1.95 11.38-7.42 5.14-17.77a4.45 4.45 0 011.66-6.2z" transform="translate(-117.48 -136.86)" fill="url(#linear-gradient-116)"/><path d="M1883.32 1026.41s7-17.88 14.87-16.89 13.82 9.17 3.61 17.65c-12.69 10.54-18.48-.76-18.48-.76z" transform="translate(-117.48 -136.86)" fill="url(#linear-gradient-117)"/><path d="M1858.93 1212h-.32l-140.43-.15a6.29 6.29 0 110-12.57l140.42.15a6.28 6.28 0 01.31 12.56z" transform="translate(-117.48 -136.86)" fill="url(#linear-gradient-118)"/><path d="M1592 1084.47h116.94a22.27 22.27 0 0120.16 12.78l54.07 114.64h-145.38a13.55 13.55 0 01-12.6-8.57l-41.93-106.08a9.34 9.34 0 018.74-12.77z" transform="translate(-117.48 -136.86)" fill="url(#linear-gradient-119)"/><ellipse class="cls-4" cx="1665.57" cy="1146.07" rx="9.21" ry="14.98" transform="rotate(-17.84 1171.081 1451.987)"/><path class="cls-4" d="M1610.91 1513.14a6.16 6.16 0 01-2.33-.46 5.65 5.65 0 01-3.09-7.51l123.76-278.53a6 6 0 017.75-3 5.65 5.65 0 013.09 7.51l-123.76 278.53a5.9 5.9 0 01-5.42 3.46z" transform="translate(-117.48 -136.86)"/><path class="cls-4" d="M1750.33 1513.14a5.91 5.91 0 01-5.43-3.45l-123.75-278.53a5.65 5.65 0 013.08-7.51 6 6 0 017.76 3l123.75 278.53a5.65 5.65 0 01-3.08 7.51 6.2 6.2 0 01-2.33.45zm243.67 0a6.16 6.16 0 01-2.33-.46 5.66 5.66 0 01-3.09-7.51l123.76-278.53a6 6 0 017.75-3 5.65 5.65 0 013.09 7.51l-123.75 278.53a5.91 5.91 0 01-5.43 3.46z" transform="translate(-117.48 -136.86)"/><path class="cls-4" d="M2133.41 1513.14a5.9 5.9 0 01-5.42-3.45l-123.76-278.53a5.65 5.65 0 013.09-7.51 6 6 0 017.75 3l123.76 278.53a5.65 5.65 0 01-3.09 7.51 6.16 6.16 0 01-2.33.45z" transform="translate(-117.48 -136.86)"/><path class="cls-4" d="M2147.93 1218.05a6.83 6.83 0 00-1.18-5.16 5.35 5.35 0 00-4.29-2.26h-563a6.27 6.27 0 00-5.4 3.31 7.93 7.93 0 00-.42 6.87l6.1 14.78a8.55 8.55 0 007.76 5.56h551.1a6.71 6.71 0 006.35-5.87z" transform="translate(-117.48 -136.86)"/><path d="M1322.5 464.1l4.14-3.61a2.34 2.34 0 012.84-.08 1.43 1.43 0 01.1 2.31l-.07.07-4 3.46-.08.06a2.33 2.33 0 01-2.81.07 1.42 1.42 0 01-.12-2.28z" transform="translate(-117.48 -136.86)" fill="url(#linear-gradient-120)"/><path d="M1337.21 452.81l4.87-2.95a2.39 2.39 0 012.9.34 1.49 1.49 0 01-.42 2.36l-.09.05-4.72 2.82-.08.05a2.39 2.39 0 01-2.88-.35 1.49 1.49 0 01.42-2.32z" transform="translate(-117.48 -136.86)" fill="url(#linear-gradient-121)"/><path d="M1354.11 443.78l5.41-2.25a2.42 2.42 0 012.88.76 1.6 1.6 0 01-.93 2.34h-.1l-5.24 2.14h-.09a2.39 2.39 0 01-2.85-.77 1.59 1.59 0 01.92-2.22z" transform="translate(-117.48 -136.86)" fill="url(#linear-gradient-122)"/><path d="M1372.6 437.14l5.78-1.52a2.35 2.35 0 012.78 1.16 1.74 1.74 0 01-1.42 2.25h-.1l-5.64 1.47h-.1a2.3 2.3 0 01-2.74-1.16 1.73 1.73 0 011.44-2.2z" transform="translate(-117.48 -136.86)" fill="url(#linear-gradient-123)"/><path d="M1392.15 433l6-.76a2.26 2.26 0 012.6 1.53 1.93 1.93 0 01-1.89 2.11h-.12l-5.8.71h-.1a2.23 2.23 0 01-2.56-1.54 1.92 1.92 0 011.87-2.05z" transform="translate(-117.48 -136.86)" fill="url(#linear-gradient-124)"/><path d="M1412.28 431.3h6.08a1.94 1.94 0 110 3.8h-.13l-5.86-.05h-.11a2.11 2.11 0 01-2.29-1.9 2.14 2.14 0 012.31-1.85z" transform="translate(-117.48 -136.86)" fill="url(#linear-gradient-125)"/><path d="M1432.5 432.3l6 .84a2 2 0 012 2.25 2.41 2.41 0 01-2.78 1.6h-.12l-5.75-.83h-.12a2 2 0 01-1.93-2.25 2.39 2.39 0 012.7-1.61z" transform="translate(-117.48 -136.86)" fill="url(#linear-gradient-126)"/><path d="M1452.25 436.08l5.74 1.69a1.93 1.93 0 011.48 2.57 2.66 2.66 0 01-3.16 1.2h-.13l-5.47-1.64h-.12a1.91 1.91 0 01-1.45-2.56 2.62 2.62 0 013.11-1.26z" transform="translate(-117.48 -136.86)" fill="url(#linear-gradient-127)"/><path d="M1470.87 442.71c1.76.83 3.5 1.7 5.25 2.54a1.87 1.87 0 01.88 2.83 2.89 2.89 0 01-3.48.72l-.13-.06c-1.66-.82-3.31-1.65-5-2.45h-.08a1.85 1.85 0 01-.88-2.8 2.86 2.86 0 013.44-.78z" transform="translate(-117.48 -136.86)" fill="url(#linear-gradient-128)"/><path d="M1487.61 452.13l4.55 3.3a1.86 1.86 0 01.21 3 3 3 0 01-3.68.17l-.11-.08-4.31-3.17-.11-.08a1.83 1.83 0 01-.18-3 3 3 0 013.63-.14z" transform="translate(-117.48 -136.86)" fill="url(#linear-gradient-129)"/><path d="M1501.88 463.89l3.76 3.91a1.9 1.9 0 01-.46 3 3.08 3.08 0 01-3.74-.37l-.09-.09-3.56-3.75-.08-.09a1.9 1.9 0 01.47-3 3.09 3.09 0 013.7.39z" transform="translate(-117.48 -136.86)" fill="url(#linear-gradient-130)"/><path d="M1513.43 477.48l2.9 4.36a2 2 0 01-1.1 3 3.09 3.09 0 01-3.71-.9l-.06-.1-2.74-4.19-.07-.09a2 2 0 011.13-3 3.06 3.06 0 013.65.92z" transform="translate(-117.48 -136.86)" fill="url(#linear-gradient-131)"/><path d="M1522.05 492.44l2 4.69a2.21 2.21 0 01-1.74 2.89 3 3 0 01-3.56-1.41v-.11l-1.86-4.49v-.11a2.2 2.2 0 011.75-2.86 3 3 0 013.41 1.4z" transform="translate(-117.48 -136.86)" fill="url(#linear-gradient-132)"/><path d="M1527.55 508.35l1 4.89a2.44 2.44 0 01-2.36 2.69 2.87 2.87 0 01-3.3-1.92v-.12l-.93-4.67v-.12a2.42 2.42 0 012.36-2.65 2.84 2.84 0 013.23 1.9z" transform="translate(-117.48 -136.86)" fill="url(#linear-gradient-133)"/><path d="M1529.69 524.81v5a3 3 0 01-5.87 0v-.14l.09-4.72v-.13a2.7 2.7 0 013-2.33 2.66 2.66 0 012.78 2.32z" transform="translate(-117.48 -136.86)" fill="url(#linear-gradient-134)"/><path d="M1528.19 541.35l-1.2 4.89a3 3 0 01-3.53 1.92c-1.62-.27-2.68-1.55-2.35-2.87v-.13l1.17-4.62v-.13a3 3 0 013.52-1.89c1.67.25 2.71 1.48 2.39 2.83z" transform="translate(-117.48 -136.86)" fill="url(#linear-gradient-135)"/><path d="M1522.81 557.39c-.75 1.55-1.57 3.06-2.36 4.6a3.34 3.34 0 01-4 1.34c-1.57-.53-2.31-2-1.66-3.25l.06-.12c.76-1.45 1.55-2.89 2.27-4.34v-.05a3.33 3.33 0 014-1.37 2.35 2.35 0 011.69 3.19z" transform="translate(-117.48 -136.86)" fill="url(#linear-gradient-136)"/><path d="M1513.88 572.28l-3.23 4.21a3.56 3.56 0 01-4.31.81 2.28 2.28 0 01-1-3.5l.08-.09 3.11-4 .07-.09a3.58 3.58 0 014.3-.79 2.28 2.28 0 01.98 3.45z" transform="translate(-117.48 -136.86)" fill="url(#linear-gradient-137)"/><path d="M1502.36 585.85l-3.83 3.83a3.74 3.74 0 01-4.5.38 2.29 2.29 0 01-.47-3.66l.06-.06 3.73-3.68.07-.06a3.69 3.69 0 014.47-.35 2.27 2.27 0 01.47 3.6z" transform="translate(-117.48 -136.86)" fill="url(#linear-gradient-138)"/><path d="M1489.09 598.22l-4.21 3.51a3.8 3.8 0 01-4.6 0 2.31 2.31 0 01-.06-3.74l4.13-3.42a3.81 3.81 0 014.59 0 2.3 2.3 0 01.15 3.65z" transform="translate(-117.48 -136.86)" fill="url(#linear-gradient-139)"/><path d="M1474.76 609.65l-4.43 3.3a3.83 3.83 0 01-4.64-.16 2.34 2.34 0 01.2-3.78l4.38-3.24a3.86 3.86 0 014.64.17 2.33 2.33 0 01-.15 3.71z" transform="translate(-117.48 -136.86)" fill="url(#linear-gradient-140)"/><path d="M1459.89 620.5l-4.5 3.2a3.87 3.87 0 01-4.69-.25 2.37 2.37 0 01.31-3.82l4.5-3.18a3.86 3.86 0 014.68.27 2.35 2.35 0 01-.3 3.78z" transform="translate(-117.48 -136.86)" fill="url(#linear-gradient-141)"/><path d="M1444.85 631.12l-4.54 3.16a3.93 3.93 0 01-4.75-.3 2.4 2.4 0 01.37-3.86l4.54-3.13a3.89 3.89 0 014.72.3 2.39 2.39 0 01-.34 3.83z" transform="translate(-117.48 -136.86)" fill="url(#linear-gradient-142)"/><path d="M1429.68 641.61l-4.58 3.12a4 4 0 01-4.79-.33 2.43 2.43 0 01.41-3.9l4.57-3.1a4 4 0 014.78.34 2.42 2.42 0 01-.39 3.87z" transform="translate(-117.48 -136.86)" fill="url(#linear-gradient-143)"/><path d="M1414.4 652l-4.6 3.1a4 4 0 01-4.85-.37 2.46 2.46 0 01.46-3.94l4.6-3.07a4 4 0 014.83.37 2.45 2.45 0 01-.44 3.91z" transform="translate(-117.48 -136.86)" fill="url(#linear-gradient-144)"/><path d="M1399 662.28l-4.62 3.07a4.05 4.05 0 01-4.9-.4 2.48 2.48 0 01.5-4l4.63-3.05a4 4 0 014.88.4 2.48 2.48 0 01-.49 3.98z" transform="translate(-117.48 -136.86)" fill="url(#linear-gradient-145)"/><path d="M1383.59 672.49l-4.64 3a4.11 4.11 0 01-5-.42 2.51 2.51 0 01.53-4l4.65-3a4.1 4.1 0 014.93.43 2.5 2.5 0 01-.47 3.99z" transform="translate(-117.48 -136.86)" fill="url(#linear-gradient-146)"/><path d="M1368.09 682.64l-4.66 3a4.14 4.14 0 01-5-.45 2.55 2.55 0 01.55-4.06l4.66-3a4.13 4.13 0 015 .45 2.53 2.53 0 01-.55 4.06z" transform="translate(-117.48 -136.86)" fill="url(#linear-gradient-147)"/><path d="M1352.55 692.74l-4.66 3a4.2 4.2 0 01-5.05-.46 2.57 2.57 0 01.57-4.1l4.67-3a4.16 4.16 0 015 .48 2.55 2.55 0 01-.53 4.08z" transform="translate(-117.48 -136.86)" fill="url(#linear-gradient-148)"/><path d="M1337 702.81l-4.67 3a4.23 4.23 0 01-5.1-.47 2.6 2.6 0 01.59-4.14l4.68-3a4.19 4.19 0 015.08.49 2.57 2.57 0 01-.58 4.12z" transform="translate(-117.48 -136.86)" fill="url(#linear-gradient-149)"/><path d="M1321.41 712.87l-4.67 3a4.23 4.23 0 01-5.14-.48 2.61 2.61 0 01.59-4.18l4.68-3a4.25 4.25 0 015.13.5 2.6 2.6 0 01-.59 4.16z" transform="translate(-117.48 -136.86)" fill="url(#linear-gradient-150)"/><path d="M1305.84 722.92l-4.67 3a4.29 4.29 0 01-5.19-.48 2.65 2.65 0 01.59-4.23l4.68-3a4.28 4.28 0 015.18.5 2.62 2.62 0 01-.59 4.21z" transform="translate(-117.48 -136.86)" fill="url(#linear-gradient-151)"/><path d="M1290.29 733l-4.66 3a4.34 4.34 0 01-5.25-.47 2.67 2.67 0 01.58-4.27l4.67-3a4.34 4.34 0 015.24.49 2.66 2.66 0 01-.58 4.25z" transform="translate(-117.48 -136.86)" fill="url(#linear-gradient-152)"/><path d="M1274.78 743.08l-4.65 3a4.4 4.4 0 01-5.31-.46 2.7 2.7 0 01.57-4.31l4.66-3a4.37 4.37 0 015.29.48 2.68 2.68 0 01-.56 4.29z" transform="translate(-117.48 -136.86)" fill="url(#linear-gradient-153)"/><path d="M1259.31 753.23l-4.63 3a4.43 4.43 0 01-5.36-.45 2.72 2.72 0 01.55-4.35l4.65-3a4.41 4.41 0 015.34.47 2.71 2.71 0 01-.55 4.33z" transform="translate(-117.48 -136.86)" fill="url(#linear-gradient-154)"/><path d="M1243.91 763.43l-4.6 3.07a4.49 4.49 0 01-5.42-.42 2.75 2.75 0 01.52-4.4l4.63-3.06a4.47 4.47 0 015.4.44 2.74 2.74 0 01-.53 4.37z" transform="translate(-117.48 -136.86)" fill="url(#linear-gradient-155)"/><path d="M1228.6 773.7l-4.58 3.1a4.52 4.52 0 01-5.47-.39 2.77 2.77 0 01.45-4.41l4.6-3.1a4.53 4.53 0 015.46.42 2.77 2.77 0 01-.46 4.38z" transform="translate(-117.48 -136.86)" fill="url(#linear-gradient-156)"/><path d="M1213.38 784.07l-4.54 3.13a4.58 4.58 0 01-5.53-.37 2.8 2.8 0 01.45-4.5l4.57-3.13a4.56 4.56 0 015.51.38 2.79 2.79 0 01-.47 4.48z" transform="translate(-117.48 -136.86)" fill="url(#linear-gradient-157)"/><path d="M1198.28 794.54l-4.51 3.17a4.61 4.61 0 01-5.58-.34 2.82 2.82 0 01.41-4.54l4.53-3.17a4.61 4.61 0 015.57.35 2.82 2.82 0 01-.42 4.53z" transform="translate(-117.48 -136.86)" fill="url(#linear-gradient-158)"/><path d="M1183.31 805.14l-4.46 3.2a4.65 4.65 0 01-5.64-.29 2.84 2.84 0 01.35-4.58l4.5-3.2a4.64 4.64 0 015.62.3 2.83 2.83 0 01-.37 4.57z" transform="translate(-117.48 -136.86)" fill="url(#linear-gradient-159)"/><path d="M1168.5 815.86l-4.41 3.25a4.73 4.73 0 01-5.7-.23 2.87 2.87 0 01.28-4.63l4.45-3.25a4.68 4.68 0 015.68.25 2.85 2.85 0 01-.3 4.61z" transform="translate(-117.48 -136.86)" fill="url(#linear-gradient-160)"/><path d="M1153.86 826.74l-4.35 3.29a4.74 4.74 0 01-5.75-.17 2.89 2.89 0 01.21-4.67l4.39-3.3a4.74 4.74 0 015.74.19 2.88 2.88 0 01-.23 4.66z" transform="translate(-117.48 -136.86)" fill="url(#linear-gradient-161)"/><path d="M1139.41 837.78l-4.29 3.34a4.8 4.8 0 01-5.8-.11 2.92 2.92 0 01.13-4.71l4.33-3.36a4.79 4.79 0 015.79.11 2.91 2.91 0 01-.14 4.71z" transform="translate(-117.48 -136.86)" fill="url(#linear-gradient-162)"/><path d="M1125.17 849l-4.24 3.4a4.82 4.82 0 01-5.82 0 2.92 2.92 0 010-4.73l4.27-3.42a4.82 4.82 0 015.81 0 2.93 2.93 0 010 4.73z" transform="translate(-117.48 -136.86)" fill="url(#linear-gradient-163)"/><path d="M1111.15 860.37l-4.15 3.45a4.83 4.83 0 01-5.83 0 2.93 2.93 0 01-.07-4.74l4.19-3.47a4.83 4.83 0 015.83 0 2.93 2.93 0 01.06 4.74z" transform="translate(-117.48 -136.86)" fill="url(#linear-gradient-164)"/><path d="M1097.4 872l-4.07 3.51a4.83 4.83 0 01-5.85.15 2.94 2.94 0 01-.18-4.76l4.11-3.54a4.83 4.83 0 015.84-.14 2.94 2.94 0 01.17 4.75z" transform="translate(-117.48 -136.86)" fill="url(#linear-gradient-165)"/><path d="M1083.94 883.75l-4 3.58a4.86 4.86 0 01-5.87.24 3 3 0 01-.29-4.76l4-3.61a4.85 4.85 0 015.86-.23 3 3 0 01.29 4.76z" transform="translate(-117.48 -136.86)" fill="url(#linear-gradient-166)"/><path d="M1070.77 895.77l-3.88 3.65a4.86 4.86 0 01-5.87.35 3 3 0 01-.43-4.78l3.92-3.68a4.86 4.86 0 015.87-.34 3 3 0 01.42 4.77z" transform="translate(-117.48 -136.86)" fill="url(#linear-gradient-167)"/><path d="M1058 908l-3.78 3.72a4.86 4.86 0 01-5.88.46 3 3 0 01-.56-4.78l3.83-3.76a4.86 4.86 0 015.87-.45 3 3 0 01.52 4.81z" transform="translate(-117.48 -136.86)" fill="url(#linear-gradient-168)"/><path d="M1045.48 920.51l-3.67 3.79a4.86 4.86 0 01-5.88.58 3 3 0 01-.7-4.78l3.71-3.83a4.86 4.86 0 015.88-.57 3 3 0 01.69 4.77z" transform="translate(-117.48 -136.86)" fill="url(#linear-gradient-169)"/><path d="M1033.4 933.24l-3.55 3.87a4.88 4.88 0 01-5.88.7 3 3 0 01-.85-4.78l3.59-3.91a4.85 4.85 0 015.87-.69 3 3 0 01.85 4.77z" transform="translate(-117.48 -136.86)" fill="url(#linear-gradient-170)"/><path d="M1021.72 946.22l-3.41 3.94a4.85 4.85 0 01-5.87.83 3 3 0 01-1-4.77l3.47-4a4.85 4.85 0 015.86-.82 3 3 0 011 4.77z" transform="translate(-117.48 -136.86)" fill="url(#linear-gradient-171)"/><path d="M1010.49 959.44l-3.28 4a4.86 4.86 0 01-5.86 1 3.07 3.07 0 01-1.18-4.76l3.33-4a4.84 4.84 0 015.85-1 3.06 3.06 0 011.17 4.76z" transform="translate(-117.48 -136.86)" fill="url(#linear-gradient-172)"/><path d="M999.73 972.9l-3.1 4.1a4.85 4.85 0 01-5.83 1.13c-2-1-2.61-3.12-1.38-4.74l3.17-4.16a4.83 4.83 0 015.82-1.11c2 1 2.61 3.12 1.38 4.73z" transform="translate(-117.48 -136.86)" fill="url(#linear-gradient-173)"/><path d="M989.67 986.66l-2.84 4.19v.06a4.8 4.8 0 01-5.77 1.36c-2.06-.92-2.81-3-1.68-4.69l2.92-4.3a4.79 4.79 0 015.77-1.36c2.05.92 2.8 3 1.66 4.69z" transform="translate(-117.48 -136.86)" fill="url(#linear-gradient-174)"/><path d="M980.61 1000.79l-2.48 4.33v.07a4.72 4.72 0 01-5.66 1.68c-2.13-.81-3.06-2.87-2.07-4.6l2.56-4.46a4.73 4.73 0 015.66-1.68c2.13.81 3 2.87 2.06 4.6z" transform="translate(-117.48 -136.86)" fill="url(#linear-gradient-175)"/><path d="M972.89 1015.37l-2 4.47v.09c-.81 1.8-3.26 2.73-5.48 2.08s-3.36-2.65-2.55-4.45l2.09-4.65c.8-1.8 3.26-2.73 5.47-2.07s3.36 2.65 2.55 4.45z" transform="translate(-117.48 -136.86)" fill="url(#linear-gradient-176)"/><path d="M966.9 1030.41l-1.39 4.59v.12c-.57 1.86-2.89 3-5.19 2.54s-3.7-2.35-3.13-4.21l1.48-4.82c.57-1.87 2.89-3 5.18-2.54s3.7 2.35 3.13 4.21z" transform="translate(-117.48 -136.86)" fill="url(#linear-gradient-177)"/><path d="M963.07 1045.82c-.27 1.56-.47 3.11-.67 4.66v.1c-.26 1.91-2.38 3.3-4.74 3.09s-4.06-1.92-3.81-3.84c.22-1.66.43-3.33.72-5 .33-1.91 2.5-3.24 4.85-3s3.98 2.08 3.65 3.99z" transform="translate(-117.48 -136.86)" fill="url(#linear-gradient-178)"/><path d="M961.87 1061.41l.21 4.68v.17c.09 1.93-1.77 3.55-4.15 3.62s-4.37-1.43-4.46-3.37l-.22-5c-.09-1.93 1.77-3.55 4.15-3.62s4.37 1.44 4.45 3.37z" transform="translate(-117.48 -136.86)" fill="url(#linear-gradient-179)"/><path d="M963.62 1077l1.11 4.59v.17c.46 1.9-1.07 3.75-3.41 4.12s-4.62-.86-5.07-2.77l-1.18-4.93c-.45-1.9 1.07-3.74 3.41-4.12s4.61.87 5.07 2.78z" transform="translate(-117.48 -136.86)" fill="url(#linear-gradient-180)"/><path d="M968.39 1092l2.05 4.35.08.18c.86 1.81-.26 3.85-2.5 4.54s-4.74-.21-5.59-2l-2.2-4.72c-.85-1.81.27-3.84 2.5-4.54s4.74.22 5.59 2z" transform="translate(-117.48 -136.86)" fill="url(#linear-gradient-181)"/><path d="M976.34 1106.07l3 3.92.15.19c1.27 1.65.66 3.83-1.38 4.86a5 5 0 01-6-1.11l-3.3-4.29c-1.27-1.65-.65-3.83 1.38-4.86a5 5 0 016 1.12z" transform="translate(-117.48 -136.86)" fill="url(#linear-gradient-182)"/><path d="M987.56 1118.43l4 3.26.22.18a3.1 3.1 0 010 5 5.09 5.09 0 01-6.16 0l-4.41-3.62a3.08 3.08 0 010-5 5.09 5.09 0 016.16 0z" transform="translate(-117.48 -136.86)" fill="url(#linear-gradient-183)"/><path d="M1001.89 1128.34l4.82 2.41.26.12c2.06 1 2.7 3.22 1.43 4.89a5 5 0 01-6 1.16l-5.34-2.67c-2-1-2.68-3.22-1.42-4.89a5 5 0 016-1.15z" transform="translate(-117.48 -136.86)" fill="url(#linear-gradient-184)"/><path d="M1018.69 1135.3l5.39 1.48.26.08c2.29.63 3.52 2.65 2.74 4.51s-3.27 2.86-5.56 2.23l-5.91-1.64c-2.29-.63-3.51-2.65-2.73-4.52s3.27-2.85 5.56-2.21z" transform="translate(-117.48 -136.86)" fill="url(#linear-gradient-185)"/><path d="M1037.05 1139.21l5.68.62h.22c2.41.26 4.1 2.06 3.78 4s-2.53 3.33-4.94 3.06l-6.13-.67c-2.4-.26-4.09-2.06-3.76-4s2.53-3.33 4.93-3.06z" transform="translate(-117.48 -136.86)" fill="url(#linear-gradient-186)"/><path d="M1056.13 1140.37l5.78-.11h.18c2.44 0 4.46 1.52 4.52 3.49s-1.86 3.63-4.3 3.68l-6.15.11c-2.43 0-4.45-1.51-4.51-3.49s1.87-3.62 4.3-3.66z" transform="translate(-117.48 -136.86)" fill="url(#linear-gradient-187)"/><path d="M1075.38 1139.26l5.75-.72h.15c2.41-.3 4.67 1 5 3s-1.3 3.79-3.71 4.09l-6 .74c-2.41.3-4.66-1-5-3s1.3-3.79 3.71-4.09z" transform="translate(-117.48 -136.86)" fill="url(#linear-gradient-188)"/><path d="M1094.45 1136.3l5.66-1.2h.12c2.37-.5 4.79.66 5.4 2.58s-.81 3.89-3.18 4.39l-5.9 1.23c-2.37.5-4.78-.66-5.39-2.58s.81-3.89 3.18-4.39z" transform="translate(-117.48 -136.86)" fill="url(#linear-gradient-189)"/><path d="M1113.16 1131.84l5.52-1.59h.1c2.31-.67 4.85.32 5.67 2.2s-.39 3.94-2.7 4.61l-5.72 1.65c-2.32.66-4.85-.33-5.67-2.21s.4-3.94 2.71-4.6z" transform="translate(-117.48 -136.86)" fill="url(#linear-gradient-190)"/><path d="M1131.39 1126.13l5.38-1.94h.06c2.25-.81 4.89 0 5.88 1.84s0 4-2.27 4.78l-5.54 2c-2.25.8-4.88 0-5.87-1.85s0-4 2.28-4.78z" transform="translate(-117.48 -136.86)" fill="url(#linear-gradient-191)"/><path d="M1149.22 1119.41l5.29-2.15a5 5 0 016 1.62c1.1 1.8.21 4-2 4.88l-5.39 2.19a5 5 0 01-6-1.63c-1.1-1.8-.2-4 2-4.87z" transform="translate(-117.48 -136.86)" fill="url(#linear-gradient-192)"/><path d="M1166.72 1112l5.18-2.32a5 5 0 016.08 1.44c1.2 1.76.41 4-1.76 4.94l-5.27 2.35a5 5 0 01-6.08-1.44c-1.19-1.76-.4-4 1.77-4.94z" transform="translate(-117.48 -136.86)" fill="url(#linear-gradient-193)"/><path d="M1183.89 1104.14l5.1-2.45a5.09 5.09 0 016.13 1.28c1.26 1.73.57 4-1.56 5l-5.16 2.49a5.1 5.1 0 01-6.15-1.26c-1.26-1.73-.57-4 1.56-5z" transform="translate(-117.48 -136.86)" fill="url(#linear-gradient-194)"/><path d="M1200.8 1095.82l5-2.56a5.07 5.07 0 016.14 1.14c1.31 1.69.69 3.92-1.39 5l-5.07 2.59a5.08 5.08 0 01-6.15-1.13c-1.32-1.69-.69-3.93 1.39-5z" transform="translate(-117.48 -136.86)" fill="url(#linear-gradient-195)"/><path d="M1217.48 1087.17l5-2.65a5.1 5.1 0 016.14 1c1.34 1.67.78 3.89-1.27 5l-5 2.67a5.08 5.08 0 01-6.15-1c-1.35-1.66-.78-3.9 1.27-5z" transform="translate(-117.48 -136.86)" fill="url(#linear-gradient-196)"/><path d="M1234 1078.27l4.94-2.7a5.07 5.07 0 016.12 1c1.36 1.64.84 3.86-1.18 5l-5 2.73a5.1 5.1 0 01-6.14-1 3.2 3.2 0 011.18-5z" transform="translate(-117.48 -136.86)" fill="url(#linear-gradient-197)"/><path d="M1250.46 1069.21l4.92-2.73a5 5 0 016.1.93 3.17 3.17 0 01-1.14 4.95l-4.92 2.75a5.05 5.05 0 01-6.11-.93 3.17 3.17 0 011.13-5z" transform="translate(-117.48 -136.86)" fill="url(#linear-gradient-198)"/><path d="M1266.88 1060.09l4.94-2.74a5 5 0 016.07.93 3.15 3.15 0 01-1.15 4.93l-4.92 2.74a5 5 0 01-6.08-.92 3.16 3.16 0 011.13-4.94z" transform="translate(-117.48 -136.86)" fill="url(#linear-gradient-199)"/><path d="M1283.35 1051l5-2.72a5 5 0 016 1 3.16 3.16 0 01-1.18 4.91l-4.94 2.71a5 5 0 01-6-.95 3.14 3.14 0 011.17-4.91z" transform="translate(-117.48 -136.86)" fill="url(#linear-gradient-200)"/><path d="M1300 1042l5-2.67a5 5 0 016 1c1.31 1.62.75 3.8-1.25 4.86l-5 2.66a5 5 0 01-6-1c-1.32-1.63-.76-3.81 1.23-4.88z" transform="translate(-117.48 -136.86)" fill="url(#linear-gradient-201)"/><path d="M1316.68 1033.18l5-2.61a4.92 4.92 0 015.94 1.07c1.28 1.63.69 3.79-1.32 4.83l-5 2.61a4.92 4.92 0 01-6-1.06c-1.29-1.63-.7-3.79 1.31-4.84z" transform="translate(-117.48 -136.86)" fill="url(#linear-gradient-202)"/><path d="M1333.57 1024.54l5.1-2.55a4.91 4.91 0 015.89 1.14c1.23 1.64.61 3.78-1.4 4.79l-5.06 2.55a4.88 4.88 0 01-5.9-1.13c-1.24-1.63-.62-3.78 1.39-4.79z" transform="translate(-117.48 -136.86)" fill="url(#linear-gradient-203)"/><path d="M1350.62 1016.12l5.15-2.49a4.85 4.85 0 015.83 1.21c1.2 1.64.54 3.77-1.48 4.74l-5.11 2.47a4.85 4.85 0 01-5.85-1.2c-1.2-1.64-.54-3.77 1.48-4.75z" transform="translate(-117.48 -136.86)" fill="url(#linear-gradient-204)"/><path d="M1367.84 1007.92l5.21-2.41a4.77 4.77 0 015.77 1.28c1.16 1.65.46 3.75-1.58 4.7l-5.15 2.41a4.82 4.82 0 01-5.8-1.27c-1.16-1.65-.46-3.76 1.57-4.71z" transform="translate(-117.48 -136.86)" fill="url(#linear-gradient-205)"/><path d="M1385.25 1000l5.26-2.33a4.74 4.74 0 015.72 1.36c1.11 1.67.36 3.75-1.68 4.65l-5.21 2.32a4.77 4.77 0 01-5.73-1.36c-1.12-1.66-.37-3.75 1.67-4.66z" transform="translate(-117.48 -136.86)" fill="url(#linear-gradient-206)"/><path d="M1402.85 992.3l5.32-2.25a4.72 4.72 0 015.66 1.46c1.06 1.67.26 3.73-1.79 4.59l-5.27 2.23a4.7 4.7 0 01-5.66-1.44c-1.08-1.67-.28-3.74 1.78-4.61z" transform="translate(-117.48 -136.86)" fill="url(#linear-gradient-207)"/><path d="M1420.66 984.93l5.38-2.15a4.65 4.65 0 015.58 1.55c1 1.68.16 3.71-1.9 4.54l-5.33 2.13a4.67 4.67 0 01-5.6-1.54c-1-1.68-.17-3.72 1.9-4.55z" transform="translate(-117.48 -136.86)" fill="url(#linear-gradient-208)"/><path d="M1438.67 977.89l5.45-2a4.59 4.59 0 015.5 1.65c1 1.69.05 3.69-2 4.47l-5.38 2a4.6 4.6 0 01-5.52-1.64c-1-1.69-.06-3.7 2-4.49z" transform="translate(-117.48 -136.86)" fill="url(#linear-gradient-209)"/><path d="M1456.9 971.21l5.51-1.92a4.52 4.52 0 015.42 1.75c.9 1.7-.06 3.67-2.16 4.41l-5.44 1.91a4.54 4.54 0 01-5.44-1.74c-.91-1.71.06-3.69 2.15-4.42z" transform="translate(-117.48 -136.86)" fill="url(#linear-gradient-210)"/><path d="M1475.34 964.93l5.58-1.81a4.47 4.47 0 015.33 1.87c.84 1.71-.19 3.65-2.29 4.33l-5.5 1.79a4.47 4.47 0 01-5.34-1.85c-.85-1.72.18-3.66 2.28-4.35z" transform="translate(-117.48 -136.86)" fill="url(#linear-gradient-211)"/><path d="M1494 959.08l5.65-1.66c2.1-.62 4.43.26 5.19 2s-.32 3.58-2.41 4.21l-5.57 1.67c-2.11.63-4.45-.24-5.23-2s.3-3.62 2.41-4.25z" transform="translate(-117.48 -136.86)" fill="url(#linear-gradient-212)"/><path d="M1512.9 953.71l5.71-1.52c2.09-.55 4.35.38 5 2.08s-.45 3.52-2.53 4.08l-5.63 1.53c-2.1.57-4.37-.35-5.07-2.06s.43-3.55 2.53-4.12z" transform="translate(-117.48 -136.86)" fill="url(#linear-gradient-213)"/><path d="M1532 948.84l5.77-1.36c2.08-.49 4.26.48 4.86 2.17s-.58 3.44-2.65 3.94l-5.68 1.38c-2.08.5-4.28-.47-4.9-2.16s.57-3.48 2.66-4z" transform="translate(-117.48 -136.86)" fill="url(#linear-gradient-214)"/><path d="M1551.3 944.5l5.82-1.2c2.07-.42 4.16.6 4.68 2.28s-.72 3.36-2.77 3.8l-5.73 1.2c-2.07.44-4.19-.58-4.72-2.26s.71-3.4 2.78-3.84z" transform="translate(-117.48 -136.86)" fill="url(#linear-gradient-215)"/><path d="M1570.78 940.72l5.88-1c2-.36 4.06.71 4.49 2.37s-.86 3.29-2.89 3.65l-5.78 1c-2.06.36-4.09-.69-4.54-2.36s.85-3.32 2.9-3.69z" transform="translate(-117.48 -136.86)" fill="url(#linear-gradient-216)"/><path d="M1590.43 937.55l5.92-.82c2-.29 4 .82 4.3 2.47s-1 3.2-3 3.49h-.05l-5.82.84c-2 .3-4-.81-4.34-2.46s1-3.24 3-3.53z" transform="translate(-117.48 -136.86)" fill="url(#linear-gradient-217)"/><path d="M1610.22 935l6-.62c2-.22 3.83.93 4.09 2.56s-1.14 3.11-3.13 3.33l-5.87.66c-2 .23-3.86-.92-4.14-2.56s1.14-3.14 3.15-3.36z" transform="translate(-117.48 -136.86)" fill="url(#linear-gradient-218)"/><path d="M1630.13 933.17l6-.42c2-.14 3.72 1 3.89 2.65s-1.28 3-3.24 3.16l-5.89.45c-2 .16-3.75-1-3.93-2.64s1.27-3 3.26-3.2z" transform="translate(-117.48 -136.86)" fill="url(#linear-gradient-219)"/><path d="M1650.13 932l6-.21c1.95-.06 3.59 1.17 3.68 2.75s-1.42 2.9-3.35 3l-5.91.24c-2 .08-3.62-1.15-3.71-2.74s1.41-2.94 3.37-3z" transform="translate(-117.48 -136.86)" fill="url(#linear-gradient-220)"/><path d="M1670.17 931.59h6c1.91 0 3.44 1.28 3.43 2.84s-1.57 2.79-3.47 2.78h-6c-1.92 0-3.48-1.27-3.48-2.83s1.57-2.83 3.49-2.82z" transform="translate(-117.48 -136.86)" fill="url(#linear-gradient-221)"/><path d="M1690.3 932.13l6 .42c1.87.13 3.26 1.46 3.1 3s-1.79 2.63-3.65 2.52h-.09l-5.86-.37h-.09c-1.88-.12-3.28-1.45-3.14-3s1.79-2.67 3.67-2.55z" transform="translate(-117.48 -136.86)" fill="url(#linear-gradient-222)"/><path d="M1710.38 934.09l6 .94c1.81.28 3 1.7 2.64 3.16a3.36 3.36 0 01-3.87 2.15h-.12l-5.76-.87h-.12c-1.82-.28-3-1.7-2.68-3.18a3.37 3.37 0 013.9-2.17z" transform="translate(-117.48 -136.86)" fill="url(#linear-gradient-223)"/><path d="M1730.13 938l5.78 1.59c1.7.47 2.62 2 2 3.36a3.48 3.48 0 01-4.11 1.67h-.15l-5.51-1.49h-.14c-1.72-.46-2.65-2-2.08-3.37a3.5 3.5 0 014.15-1.69z" transform="translate(-117.48 -136.86)" fill="url(#linear-gradient-224)"/><path d="M1749 944.18l5.39 2.4a2.34 2.34 0 011.25 3.49 3.56 3.56 0 01-4.26 1l-.17-.07-5.1-2.22-.16-.07a2.37 2.37 0 01-1.31-3.51 3.59 3.59 0 014.33-1.07z" transform="translate(-117.48 -136.86)" fill="url(#linear-gradient-225)"/><path d="M1766.26 953.16l4.71 3.22a2.16 2.16 0 01.37 3.48 3.53 3.53 0 01-4.25.32l-.15-.09-4.47-3-.14-.1a2.19 2.19 0 01-.43-3.52 3.57 3.57 0 014.33-.35z" transform="translate(-117.48 -136.86)" fill="url(#linear-gradient-226)"/><path d="M1781 964.78l3.76 4a2.1 2.1 0 01-.54 3.33 3.39 3.39 0 01-4.07-.41l-.14-.14-3.56-3.67-.13-.13a2.12 2.12 0 01.49-3.38 3.42 3.42 0 014.16.4z" transform="translate(-117.48 -136.86)" fill="url(#linear-gradient-227)"/><path d="M1792 978.85l2.42 4.64a2.15 2.15 0 01-1.49 3 3.07 3.07 0 01-3.66-1.18l-.1-.18-2.3-4.27-.09-.17a2.18 2.18 0 011.46-3 3.15 3.15 0 013.75 1.19z" transform="translate(-117.48 -136.86)" fill="url(#linear-gradient-228)"/><path d="M1798.13 994.86l.69 5a2.34 2.34 0 01-2.37 2.42 2.64 2.64 0 01-3-1.9v-.19l-.71-4.62v-.19a2.36 2.36 0 012.37-2.47 2.67 2.67 0 013 1.92z" transform="translate(-117.48 -136.86)" fill="url(#linear-gradient-229)"/><path d="M1798.45 1011.57l-1 4.94a2.57 2.57 0 01-3 1.74 2.2 2.2 0 01-2.14-2.37v-.16l.84-4.64v-.16a2.58 2.58 0 013-1.79 2.24 2.24 0 012.2 2.41z" transform="translate(-117.48 -136.86)" fill="url(#linear-gradient-230)"/><path d="M1793.59 1027.7l-2.26 4.6a2.66 2.66 0 01-3.19 1.12 1.89 1.89 0 01-1.38-2.57v-.11l2.08-4.41v-.11a2.71 2.71 0 013.22-1.16 1.94 1.94 0 011.44 2.62z" transform="translate(-117.48 -136.86)" fill="url(#linear-gradient-231)"/><path d="M1785 1042.6l-3.1 4.24a2.68 2.68 0 01-3.21.66 1.72 1.72 0 01-.83-2.59l.05-.06 2.94-4.13.05-.07a2.68 2.68 0 013.24-.7 1.74 1.74 0 01.87 2.63z" transform="translate(-117.48 -136.86)" fill="url(#linear-gradient-232)"/><path d="M1774 1056.32l-3.62 3.91a2.57 2.57 0 01-3.11.36 1.59 1.59 0 01-.46-2.51l3.49-3.87a2.6 2.6 0 013.15-.39 1.62 1.62 0 01.49 2.56z" transform="translate(-117.48 -136.86)" fill="url(#linear-gradient-233)"/><path d="M1761.5 1069.08l-3.93 3.68a2.46 2.46 0 01-3 .17 1.5 1.5 0 01-.23-2.4l3.84-3.68a2.51 2.51 0 013-.2 1.53 1.53 0 01.25 2.45z" transform="translate(-117.48 -136.86)" fill="url(#linear-gradient-234)"/><path d="M1748.14 1081.16l-4.13 3.56a2.34 2.34 0 01-2.81.06 1.41 1.41 0 01-.1-2.27l4.07-3.58a2.36 2.36 0 012.86-.09 1.43 1.43 0 01.11 2.32z" transform="translate(-117.48 -136.86)" fill="url(#linear-gradient-235)"/></g></svg>