<svg xmlns="http://www.w3.org/2000/svg" viewBox="0 0 215.87 364.05"><defs><clipPath id="clip-path" transform="translate(-117.06 -42.98)"><path class="cls-1" d="M332.94 339.69v5.12c-.05 15.89-10.5 31.77-31.37 43.9-42 24.42-110.35 24.42-152.64 0-21.28-12.29-31.91-28.42-31.87-44.52v-5.12c0 16.1 10.59 32.23 31.87 44.52 42.29 24.42 110.62 24.42 152.63 0 20.88-12.13 31.33-28.01 31.38-43.9z"/></clipPath><clipPath id="clip-path-2" transform="translate(-117.06 -42.98)"><path class="cls-2" d="M329.94 321.87l-.1 19.78c0 15.46-10.2 30.9-30.5 42.69-40.85 23.74-107.28 23.74-148.4 0-20.69-11.94-31-27.63-31-43.28l.1-19.79c0 15.66 10.3 31.34 31 43.29 41.12 23.74 107.55 23.74 148.4 0 20.3-11.8 30.46-27.23 30.5-42.69z"/></clipPath><clipPath id="clip-path-3" transform="translate(-117.06 -42.98)"><path class="cls-1" d="M332.94 315v5.12c-.05 15.89-10.5 31.77-31.37 43.9-42 24.42-110.35 24.42-152.64 0-21.28-12.29-31.91-28.42-31.87-44.52v-5.12c0 16.1 10.59 32.23 31.87 44.52 42.29 24.42 110.62 24.42 152.63 0 20.88-12.16 31.33-28.04 31.38-43.9z"/></clipPath><clipPath id="clip-path-4" transform="translate(-117.06 -42.98)"><path class="cls-5" d="M243.48 180.89l2 1.18a1.65 1.65 0 00-1.66.16l-2-1.18a1.67 1.67 0 011.66-.16z"/></clipPath><clipPath id="clip-path-5" transform="translate(-117.06 -42.98)"><path class="cls-5" d="M186.57 261.23l-2-1.18a1.62 1.62 0 01-.68-1.49l2 1.17a1.62 1.62 0 00.68 1.5z"/></clipPath><clipPath id="clip-path-6" transform="translate(-117.06 -42.98)"><path class="cls-5" d="M185.77 218.44l-2-1.18a5.13 5.13 0 012.32-4l2 1.17a5.15 5.15 0 00-2.32 4.01z"/></clipPath><clipPath id="clip-path-7" transform="translate(-117.06 -42.98)"><path class="cls-4" d="M283.08 319.4v1.47a9.67 9.67 0 00-8.91 0v-1.47a9.71 9.71 0 018.91 0z"/></clipPath><clipPath id="clip-path-8" transform="translate(-117.06 -42.98)"><path class="cls-4" d="M249.72 336.56v-1.46a3.19 3.19 0 011.83-2.6v1.5a3.14 3.14 0 00-1.83 2.56z"/></clipPath><clipPath id="clip-path-9" transform="translate(-117.06 -42.98)"><path class="cls-4" d="M276.72 351.14l-2 1.18a2.61 2.61 0 01-2.68-.27l2-1.18a2.61 2.61 0 002.68.27z"/></clipPath><clipPath id="clip-path-10" transform="translate(-117.06 -42.98)"><path class="cls-3" d="M277.79 353l-2 1.18a2.18 2.18 0 00.31-.22c1-.81 1.43-2.4 1.16-4.36l2-1.18c.27 2-.15 3.55-1.16 4.37a3.37 3.37 0 01-.31.21z"/></clipPath><clipPath id="clip-path-11" transform="translate(-117.06 -42.98)"><path class="cls-3" d="M270.6 328.14l2-1.18a11.93 11.93 0 015.19 8.1l-2 1.18a11.93 11.93 0 00-5.19-8.1z"/></clipPath><clipPath id="clip-path-12" transform="translate(-117.06 -42.98)"><path class="cls-4" d="M303.3 335.17l-2 1.18a2.66 2.66 0 01-2.69-.27l2-1.18a2.63 2.63 0 002.69.27z"/></clipPath><clipPath id="clip-path-13" transform="translate(-117.06 -42.98)"><path class="cls-3" d="M304.37 337l-2 1.18a3.3 3.3 0 00.3-.22c1-.81 1.43-2.4 1.16-4.36l2-1.18c.27 2-.16 3.55-1.16 4.36z"/></clipPath><clipPath id="clip-path-14" transform="translate(-117.06 -42.98)"><path class="cls-3" d="M297.18 312.16l2-1.17a11.93 11.93 0 015.19 8.1l-2 1.18a12 12 0 00-5.19-8.11z"/></clipPath><style>.cls-1{fill:#a9b1d4}.cls-2{fill:#3064c7}.cls-3{fill:#b4bcdf}.cls-4{fill:#7480ba}.cls-5{fill:#ced3e8}.cls-6{isolation:isolate}.cls-7{fill:#417adc}.cls-8{fill:#dee1ee}.cls-9{fill:#1391ee}.cls-10{fill:#e5a07d}.cls-11{fill:#f1bca4}.cls-12{fill:#1b151e}.cls-13{fill:#c2c8e3}.cls-14{fill:#8f9ad2}.cls-15{fill:#322a36}.cls-16{fill:#39313e}.cls-17{fill:#d7d9ec}.cls-18{fill:#043774}.cls-20{fill:#e7e8ec}.cls-22{fill:#1c4ea8}.cls-25{fill:#042e8b}.cls-26{fill:#231b26}.cls-28{fill:#957f87}.cls-29{fill:#5d4d57}.cls-33{fill:#e3e3e3}.cls-37{fill:#f1b599}.cls-46{fill:#f1ad00}.cls-47{fill:#f1d235}</style></defs><g class="cls-6"><g id="Layer_1" data-name="Layer 1"><path class="cls-1" d="M94.65 92.07h1.17v94.37h-1.17zM74.34 198.16v-44.19l-27.54 15.9v-50.18h1.17l.01 48.15 27.53-15.9v46.22h-1.17zm41.93-24.21v-45.78l24.35-14.06-.01-48.58h1.18v49.26l-24.34 14.06v45.1h-1.18z"/><path class="cls-7" d="M225.77 153.67c-.27.52-.54 1.05-.83 1.57-.12.2-.23.41-.35.62a42.52 42.52 0 01-4.88 6.82c-.26.31-.54.61-.82.9a32 32 0 01-2.66 2.57c-3.81 3.31-7.88 5.3-11.53 5.6a10 10 0 01-3.81-.38 8.36 8.36 0 01-1.82-.79 9.19 9.19 0 01-3.35-3.4c-3.42-5.84-2.3-16.27 3.35-26.05 7.05-12.2 18.47-18.8 25.52-14.73 6.62 3.82 7.02 15.71 1.18 27.27z" transform="translate(-117.06 -42.98)"/><path class="cls-3" d="M225.77 153.67c-.27.52-.54 1.05-.83 1.57-.12.2-.23.41-.35.62a42.52 42.52 0 01-4.88 6.82 16.32 16.32 0 01-.87-5 9.86 9.86 0 011.35-4.8 2.81 2.81 0 011.69-1.65 2.6 2.6 0 012 .7 12.4 12.4 0 011.89 1.74z" transform="translate(-117.06 -42.98)"/><path class="cls-8" d="M224.94 155.24c-.12.2-.23.41-.35.62-6.48 11.2-16.63 17.68-23.7 15.51-.13-.47-.27-.94-.41-1.44-.47-1.71-1.51-4.31-1.65-5.54-.32-2.82 1.31-5 5-7.48a53.44 53.44 0 0112.17-5.39c5.88-1.83 7.38-.23 8.94 3.72z" transform="translate(-117.06 -42.98)"/><path class="cls-9" d="M218.89 163.58a32 32 0 01-2.66 2.57q-.3-3-.71-6.05l2.28-1.6c.43 1.7.78 3.39 1.09 5.08z" transform="translate(-117.06 -42.98)"/><path class="cls-2" d="M218.77 158.27a.61.61 0 010 .14 2.8 2.8 0 01-.27.88 9.47 9.47 0 01-.76 1.61 1.47 1.47 0 01-.66.69 1.22 1.22 0 01-1.05-.14c-.37-.2-1-.51-.95-1a8 8 0 01.34-1.18 4.29 4.29 0 011.34-2.21c.81-.54 1.38.26 1.81.86a1.08 1.08 0 01.2.35z" transform="translate(-117.06 -42.98)"/><path class="cls-10" d="M208.56 154.31c-.17 5.46 10.07 5.55 9.92.42-.21-7.15-.64-8-4-9.08a9.74 9.74 0 00-2.87-.56c-3.56-.06-2.18 1.74-2 3 .39 3.74-.99 4.26-1.05 6.22z" transform="translate(-117.06 -42.98)"/><path class="cls-10" d="M208.56 154.31c.06-2 1.39-2.48 1-6.22-.14-1.26-1.52-3.06 2-3a9.74 9.74 0 012.87.56c3.32 1.09 3.79 1.91 4 8.79-2.83-.27-5.34-3.4-8.22-1.54a5.25 5.25 0 00-1.61 2.1 4.29 4.29 0 01-.04-.69z" transform="translate(-117.06 -42.98)"/><path class="cls-10" d="M210.25 152.9c2.88-1.86 5.39 1.27 8.22 1.54v.29c.14 4.9-9.17 5-9.88.31a5.25 5.25 0 011.66-2.14z" transform="translate(-117.06 -42.98)"/><path class="cls-3" d="M216.8 157.68c.18.58.95.79 1.46 1.13.23.14.61.43.91.37s.47-.45.57-.69a15.4 15.4 0 001.16-5.59 2.25 2.25 0 00-.57-1.71 1.67 1.67 0 00-1.68-.23c-.56.24-.69 1.34-.5 1.85a4.36 4.36 0 01-1.35 4.87z" transform="translate(-117.06 -42.98)"/><path class="cls-3" d="M216.88 157.7a13.15 13.15 0 01-2 2.38c-.27.23-.49.53-.85.41-1.76-.56-5.46-3.67-6.2-5.63a2.58 2.58 0 01.66-2.15 11.33 11.33 0 01.74-.94 13.32 13.32 0 001.08 2.43c1.45 2.09 4.05 3.16 6.57 3.5zm-12.07 13.72c0 .11-.07.22-.11.33a10 10 0 01-3.81-.38 8.36 8.36 0 01-1.82-.79 9.19 9.19 0 01-3.35-3.4c0-.21.07-.41.1-.61a14 14 0 011.58-4.51 9.28 9.28 0 013.43-3.26 2.91 2.91 0 012.26-.57 2.57 2.57 0 011.46 1.45c1.84 3.67 1.45 8.05.26 11.74z" transform="translate(-117.06 -42.98)"/><path class="cls-11" d="M222 137.16a7.08 7.08 0 011.11 3.83 5.57 5.57 0 01-.31 1.76 5.5 5.5 0 00-.53 1.62 7.38 7.38 0 00.71 2.09 2.63 2.63 0 01.09 1.81 6.43 6.43 0 01-.56.9c-.9 1.42 0 3.51-1.63 4.54a2.58 2.58 0 01-1.32.32 17.64 17.64 0 01-4.22-1.15 10.49 10.49 0 01-3-2.69 13.57 13.57 0 01-2.11-2.52c-.12-.26.18-.31-.09-.45s-.37-1.12-.55-1.14a2 2 0 01-.69-.38c-.35-.24-.52.61-.64.21a17.38 17.38 0 01-1-5.32c.07-1.67 0-3.1 1.11-4.52a7.11 7.11 0 013.21-2.32 8.92 8.92 0 016-.11 8.6 8.6 0 014.42 3.52z" transform="translate(-117.06 -42.98)"/><path class="cls-11" d="M207.19 140.59c.07-1.67 0-3.1 1.11-4.52a7.11 7.11 0 013.21-2.32 8.79 8.79 0 013.59-.56c1.82 3.64-.82 8.31 1.17 12.08.67.89 2 1.56 2 2.67.44 2-1.55 3.76-.45 5.75a19.57 19.57 0 01-2.48-.81 10.49 10.49 0 01-3-2.69 13.57 13.57 0 01-2.11-2.52c-.12-.26.18-.31-.09-.45s-.37-1.12-.55-1.14a2 2 0 01-.69-.38c-.35-.24-.52.61-.64.21a17.38 17.38 0 01-1.07-5.32z" transform="translate(-117.06 -42.98)"/><path class="cls-12" d="M215.66 138.7a2.37 2.37 0 00-1.37.13 2.46 2.46 0 00-1.29 1.92c-.26 1.75.35 3.5.39 5.24a1.4 1.4 0 01-.13.76c-.35.62-1 .29-1.38-.11-.24-.25-.42-.54-.65-.8a1.58 1.58 0 00-.86-.56.92.92 0 00-1 .83 3.17 3.17 0 00.12 1.37c0 .11.26.91-.07.91s-3.23-3-3.36-8.06c-.12-4.87 3.25-5.78 3.25-5.78s1.49-2.52 5.41-2.33a12.26 12.26 0 015.83 1.85l.21.14a7.27 7.27 0 012.19 2c1.51 2.33-.52 4.19-3 3.8a18.9 18.9 0 01-3.31-1.1 5.23 5.23 0 00-.98-.21z" transform="translate(-117.06 -42.98)"/><path class="cls-11" d="M209.86 144c-1.45-.1-1.81 1.7-.82 3.09a7.14 7.14 0 001.18 1.08c2.59 2.21 3.24-.18 2.42-.93-1.91-1.8-.96-3.17-2.78-3.24z" transform="translate(-117.06 -42.98)"/><path class="cls-10" d="M210.73 147.38c-.16-.16-1.81-1.13-.69-1.79a.5.5 0 01.71.42v.51a1 1 0 00.11.29c.15.24.65.46.55.81s-.58-.16-.68-.24z" transform="translate(-117.06 -42.98)"/><path class="cls-13" d="M177.64 181.75c-.25.49-.53 1-.81 1.47a2.53 2.53 0 01-.13.22 43.19 43.19 0 01-3.21 4.74c-.61.8-1.25 1.57-1.91 2.29l-.09.1c-.24.27-.49.53-.73.78a32.88 32.88 0 01-4.76 4.1 19.72 19.72 0 01-8.14 3.55 12.1 12.1 0 01-2.23.14 9.16 9.16 0 01-4.31-1.19 8.69 8.69 0 01-2.06-1.66c-4.9-5.29-4.22-16.94 2.06-27.8 7-12.2 18.47-18.8 25.51-14.73 6.77 3.9 7.04 16.24.81 27.99z" transform="translate(-117.06 -42.98)"/><path class="cls-14" d="M177.64 181.75c-.25.49-.53 1-.81 1.47a2.53 2.53 0 01-.13.22 42.1 42.1 0 01-5.12 7c-1.09-4.77-2.54-11-3.15-12.17-.91-1.8 2.28 2.18 4.13 1.48a3.93 3.93 0 014 .72 7 7 0 011.08 1.28z" transform="translate(-117.06 -42.98)"/><path class="cls-10" d="M161.81 181.32s9.38 4.72 8.93-.49c-.63-7.26-1.09-8.07-4.35-9-.89-.26-1.24-1-2.16-1-3.37.13-2 1.89-1.75 3.17.6 3.79-.73 5.32-.67 7.32z" transform="translate(-117.06 -42.98)"/><path class="cls-10" d="M173.49 179.72v8.46c-.61.8-1.25 1.57-1.91 2.29a33.57 33.57 0 01-5.58 5h-7.58l1-14.92a17.5 17.5 0 014.48-1.75c.34-.08 1.49.35 1.84.28a12.68 12.68 0 017.66.62z" transform="translate(-117.06 -42.98)"/><path class="cls-8" d="M161.23 183.05a25.51 25.51 0 01-2.16-2.38l1.51-.71c1.13 1.85 4.72 4.49 8.2 4 1.63-.2 2.17-2 3.59-4.66.35.11.71.2 1 .34h.08a28.39 28.39 0 01-2.81 4.56c-2.54 2.66-7.54.33-9.41-1.15z" transform="translate(-117.06 -42.98)"/><path class="cls-3" d="M170.28 178.51h.13c-.41-.11-.59-.01-.13 0zm6.42 4.93c-5.74 9.81-14.3 15.94-21.07 15.7a14.39 14.39 0 00-1-2.22c-.57-.92-1-1.85-1.6-2.76a9 9 0 01-1.24-2.77 14.66 14.66 0 01-.46-2.55 8.9 8.9 0 010-.9 5.1 5.1 0 012.24-4c1.73-1.28 3.71-2.13 5.53-3.23a7.45 7.45 0 009.09 5 3.66 3.66 0 001.1-.59c1.28-.95 2.43-1.87 2.29-4.81a1.68 1.68 0 00-1.14-1.71c4.39.07 5.56 2.16 6.26 4.84z" transform="translate(-117.06 -42.98)"/><path class="cls-8" d="M171.49 190.57c-.24.27-.49.53-.73.78-.65-2.12-1.45-4.18-2-6.32a.22.22 0 01.41-.17 22.68 22.68 0 012.32 5.71z" transform="translate(-117.06 -42.98)"/><path class="cls-8" d="M171.61 179.58a7.85 7.85 0 01-1.1 4 5 5 0 01-2 1.16 20.42 20.42 0 002.55 1.84 1.85 1.85 0 002.13.09c1-.65 1.66-2.74 0-5.75a3.61 3.61 0 00-.68-.91 1.71 1.71 0 00-.44-.32 1.66 1.66 0 00-.46-.11z" transform="translate(-117.06 -42.98)"/><path class="cls-8" d="M159.78 180.64a.21.21 0 00-.21.09c0 .42.64-.44.94-.24 1 .65 1.61 2.58 3.32 3.61a5.88 5.88 0 005 .54c.09 1.16.17 3.76-.82 4.25-2.33 1.17-6.13-.59-7.51-2.11a10.58 10.58 0 01-1.77-2.39 3.27 3.27 0 01-.59-1.89 4.67 4.67 0 01.95-1.83z" transform="translate(-117.06 -42.98)"/><path class="cls-15" d="M156.57 172.51a14.41 14.41 0 01.11-2.18c.19-1.54.76-4.78 2.4-6.48.81.08.93 2.48 1.72 2.64a8.58 8.58 0 012.09 1c.42.22 1.12.43 1.31.92.35.91-.9 2.43-1.27 3.24a12.45 12.45 0 00-.8 5.8 11 11 0 002 5.8c.94 1.31 2.17 2.4 3 3.76a8.76 8.76 0 011 7 14.66 14.66 0 00-2.43-3.39c-1.34-1.27-3.12-2-4.5-3.2a10.88 10.88 0 01-2.83-4.28 31.79 31.79 0 01-1.71-8.18c0-.81-.07-1.63-.09-2.45z" transform="translate(-117.06 -42.98)"/><path class="cls-11" d="M165.44 176.58c-.27-.23-.54-.46-.8-.7a14.08 14.08 0 01-2.55-2.85c-2-3.39-2.13-7.94.71-10.9a8.23 8.23 0 018-2.2 11.56 11.56 0 012.19.89 5.72 5.72 0 011.67 1.15 5.6 5.6 0 01.76 1.11 10.29 10.29 0 01.81 2.17 4.7 4.7 0 01.08 1.3 11.56 11.56 0 01-.21 2.27 11 11 0 00-.22 1.89 5.16 5.16 0 00.5 1.78 2.48 2.48 0 01.23 1.3c-.12.4-.55.72-.75 1.09a2.22 2.22 0 00-.3 1.13 1.82 1.82 0 01-.22.74 1.77 1.77 0 00-.08.6 3.9 3.9 0 01-.33.72 5.53 5.53 0 01-.34.79c-.83 1.51-2.05 1.61-3.55 1a20.4 20.4 0 01-5.6-3.28z" transform="translate(-117.06 -42.98)"/><path class="cls-16" d="M158.65 166.29c.13-4.28 1.39-5 3-6.38a8.58 8.58 0 015.73-1.87 11.86 11.86 0 015.91 1.86l.21.13a5.81 5.81 0 012.22 2.26 7.46 7.46 0 01.71 2.74.93.93 0 01-.08.57.86.86 0 01-.48.3 4.9 4.9 0 01-4.52-.88 5.09 5.09 0 01-1.67 2.71 26.25 26.25 0 00-2.42 2.53c-.45.61-.62 1.24-1.3 1.69a1.51 1.51 0 01-1.72.15c-.6-.27-1.21-.73-1.87-.32s-.37 1.17-.22 1.74c0 .11.26.92-.07.92s-3.59-3.01-3.43-8.15z" transform="translate(-117.06 -42.98)"/><path class="cls-16" d="M158.65 166.29c.08-2.51.54-3.79 1.24-4.71a19.78 19.78 0 013.7 2 23.71 23.71 0 013.42 3.22 4.3 4.3 0 00.35 1.88c.11.49-.12.25-.26.72l-1.86 1.6-.92 1.11h-.07c-.6-.27-1.21-.73-1.87-.32s-.13 1.44 0 2c0 .11.27 1.35.27 1.35-.32 0-4.16-3.71-4-8.85z" transform="translate(-117.06 -42.98)"/><path class="cls-11" d="M162.74 170.18c-1.46-.1-1.82 1.72-.82 3.11a7.3 7.3 0 001.2 1.09c2.62 2.22 3.27-.19 2.44-.95-1.94-1.75-.99-3.14-2.82-3.25z" transform="translate(-117.06 -42.98)"/><path class="cls-10" d="M163.68 173.49c-.16-.15-1.83-1.13-.7-1.8.31-.19.66.09.71.42v.52a.86.86 0 00.11.28c.15.24.66.47.56.83s-.58-.16-.68-.25z" transform="translate(-117.06 -42.98)"/><path class="cls-8" d="M158.1 197.51c-.07.5-.16 1-.24 1.49a12.1 12.1 0 01-2.23.14 9.16 9.16 0 01-4.31-1.19 8.69 8.69 0 01-2.06-1.66q.12-2.47.36-4.95a21.47 21.47 0 01.79-4.72 2.45 2.45 0 01.23-.49 2.55 2.55 0 013.13-1.1 5.46 5.46 0 012.68 2.54 15.09 15.09 0 011.65 9.94z" transform="translate(-117.06 -42.98)"/><path class="cls-13" d="M272.32 126.71c-.17.33-.36.66-.55 1 0 .07-.07.12-.1.19a42.18 42.18 0 01-5.44 7.45c-.25.28-.51.56-.78.82a33.28 33.28 0 01-2.72 2.52c-3.79 3.13-7.8 5-11.37 5.13a9.34 9.34 0 01-5.21-1.19 8.59 8.59 0 01-2.05-1.63 10.53 10.53 0 01-2.06-3.32c-2.44-6-1.06-15.52 4.11-24.49 7-12.2 18.47-18.8 25.51-14.73 6.82 3.9 7.04 16.39.66 28.25z" transform="translate(-117.06 -42.98)"/><path class="cls-3" d="M272.32 126.71c-.17.33-.36.66-.55 1 0 .07-.07.12-.1.19a42.18 42.18 0 01-5.44 7.45 18.31 18.31 0 01-.29-3 10.74 10.74 0 011.49-5.3 3.07 3.07 0 011.86-1.82 2.89 2.89 0 012.23.77 10.13 10.13 0 01.8.71z" transform="translate(-117.06 -42.98)"/><path class="cls-8" d="M271.77 127.7c0 .07-.07.12-.1.19-7.05 12.2-18.47 18.8-25.52 14.73a8.59 8.59 0 01-2.05-1.62 8 8 0 01-.26-1.17c-.35-3.12 1.45-5.53 5.49-8.26a59.31 59.31 0 0113.51-5.95c5.35-1.7 7.41-.78 8.93 2.08z" transform="translate(-117.06 -42.98)"/><path class="cls-9" d="M265.45 136.16a33.28 33.28 0 01-2.72 2.52c-.14-1.21-.29-2.42-.45-3.62 1-.7 1.51-1.06 2.51-1.77.21.96.46 1.92.66 2.87z" transform="translate(-117.06 -42.98)"/><path class="cls-2" d="M265.86 133.05a.61.61 0 010 .15 3.88 3.88 0 01-.3 1 11.57 11.57 0 01-.84 1.78 1.75 1.75 0 01-.74.76 1.37 1.37 0 01-1.16-.16c-.4-.22-1.13-.56-1-1.06a8.38 8.38 0 01.37-1.3 4.69 4.69 0 011.49-2.45c.89-.59 1.52.3 2 1a1 1 0 01.18.28z" transform="translate(-117.06 -42.98)"/><path class="cls-10" d="M254.59 128.67c-.2 6 11.11 6.13 11 .46-.23-7.9-.71-8.8-4.43-10a11.06 11.06 0 00-3.16-.61c-3.93-.07-2.41 1.92-2.26 3.31.38 4.1-1.09 4.67-1.15 6.84z" transform="translate(-117.06 -42.98)"/><path class="cls-10" d="M254.59 128.67c.06-2.17 1.53-2.74 1.1-6.87-.15-1.39-1.67-3.38 2.26-3.31a11.06 11.06 0 013.16.61c3.67 1.21 4.19 2.11 4.42 9.71-3.13-.3-5.89-3.75-9.08-1.7a5.84 5.84 0 00-1.82 2.36 4.16 4.16 0 01-.04-.8z" transform="translate(-117.06 -42.98)"/><path class="cls-10" d="M256.45 127.11c3.19-2 5.95 1.4 9.08 1.7v.32c.15 5.41-10.12 5.57-10.91.34a5.84 5.84 0 011.83-2.36z" transform="translate(-117.06 -42.98)"/><path class="cls-3" d="M263.69 132.39c.2.64 1.05.87 1.61 1.24.25.17.68.49 1 .42s.52-.5.63-.77a16.81 16.81 0 001.28-6.17 2.42 2.42 0 00-.63-1.88 1.8 1.8 0 00-1.85-.26c-.62.27-.77 1.48-.55 2a4.83 4.83 0 01-1.49 5.42z" transform="translate(-117.06 -42.98)"/><path class="cls-3" d="M263.77 132.42a14.08 14.08 0 01-2.18 2.61c-.29.27-.53.59-.93.47-1.94-.63-6-4.06-6.84-6.23a2.84 2.84 0 01.72-2.37c.08-.11.71-1 .82-1a14.66 14.66 0 001.19 2.68c1.57 2.28 4.45 3.42 7.22 3.84zm-12.41 11.39a9.34 9.34 0 01-5.21-1.19 8.59 8.59 0 01-2.05-1.62 10.53 10.53 0 01-2.06-3.32c.07-.14.15-.28.23-.42a10.19 10.19 0 013.78-3.61 3.24 3.24 0 012.5-.63 2.86 2.86 0 011.61 1.61 15.37 15.37 0 011.2 9.18z" transform="translate(-117.06 -42.98)"/><path class="cls-11" d="M269.43 109.73a7.79 7.79 0 011.22 4.23 5.82 5.82 0 01-.33 1.94 5.8 5.8 0 00-.59 1.79 7.88 7.88 0 00.78 2.31 2.94 2.94 0 01.1 2 6.82 6.82 0 01-.62 1c-1 1.57-.06 3.88-1.79 5a2.85 2.85 0 01-1.46.36 20 20 0 01-4.67-1.27 11.55 11.55 0 01-3.34-3 14.89 14.89 0 01-2.33-2.77c-.13-.3.2-.35-.1-.5s-.4-1.24-.6-1.26a2.24 2.24 0 01-.77-.42c-.39-.26-.57.68-.7.23a18.84 18.84 0 01-1.16-5.87c.08-1.85 0-3.43 1.23-5a8 8 0 013.54-2.56 10 10 0 016.64-.12 9.55 9.55 0 014.95 3.91z" transform="translate(-117.06 -42.98)"/><path class="cls-11" d="M253.07 113.52c.08-1.85 0-3.43 1.23-5a8 8 0 013.54-2.56 9.93 9.93 0 014-.62c2 4-.9 9.18 1.29 13.35.74 1 2.2 1.71 2.2 2.94.49 2.2-1.7 4.16-.49 6.36a22 22 0 01-2.74-.9 11.55 11.55 0 01-3.34-3 14.89 14.89 0 01-2.33-2.77c-.13-.3.2-.35-.1-.5s-.4-1.24-.6-1.26a2.24 2.24 0 01-.77-.42c-.39-.26-.57.68-.7.23a18.84 18.84 0 01-1.19-5.85z" transform="translate(-117.06 -42.98)"/><path class="cls-12" d="M262.39 112.62c-.66 0-1.91-.17-2.36.43-.63.82-.14 2 0 2.88.24 1.25.4 2.51.6 3.77a1.33 1.33 0 010 .79.9.9 0 01-1 .4 2.33 2.33 0 01-1-.53 16.1 16.1 0 01-1.45-1.29c-.39-.38-.81-.77-1.3-.29a2.69 2.69 0 00-.33 2.35c0 .11.29 1-.07 1s-3.57-3.29-3.71-8.9c-.14-5.38 3.59-6.38 3.59-6.38s1.64-2.78 6-2.58 8.45 1.87 10.78 5.81a4.22 4.22 0 01-3 2.66 11.28 11.28 0 01-4.18.11c-.87-.1-1.72-.21-2.57-.23z" transform="translate(-117.06 -42.98)"/><path class="cls-11" d="M256 117.23c-1.6-.11-2 1.87-.9 3.41a7.85 7.85 0 001.3 1.2c2.86 2.43 3.58-.21 2.67-1-2.07-1.96-1.07-3.48-3.07-3.61z" transform="translate(-117.06 -42.98)"/><path class="cls-10" d="M257 121c-.19-.17-2-1.24-.77-2a.55.55 0 01.78.46v.57a.69.69 0 00.12.31c.16.27.71.52.6.9s-.64-.13-.73-.24z" transform="translate(-117.06 -42.98)"/><path class="cls-12" d="M265.72 126.54a8.37 8.37 0 01-1.84-.87 5.41 5.41 0 01-2.56-2.47 12.76 12.76 0 01-.72-3.81 5.94 5.94 0 00-2.21-3c-.78-.44-.68 2.22-.62 2.59.35 2.2.31 2.21.56 3.41s.11.63.43 1.88c.17.7 1 2.31 1.31 3a8.72 8.72 0 001.23 2 8.32 8.32 0 003.71 2.6c1.32.48 3 .64 3.86-.68a4.63 4.63 0 00.77-2.55 7.93 7.93 0 00-.37-2.21 1.84 1.84 0 01-1.38.38 6.39 6.39 0 01-2.17-.27z" transform="translate(-117.06 -42.98)"/><path class="cls-12" d="M267.46 123.84c-.47.47-.79 1.08-1.24 1.56a3.57 3.57 0 01-1.5.94 1.11 1.11 0 00.77.52 1.78 1.78 0 001.31-.28c.57-.4.86-1.1 1.42-1.52a6.38 6.38 0 01.71-.43 1.55 1.55 0 00.61-.55c.31-.58-.1-.77-.6-.83a1.86 1.86 0 00-1.48.59z" transform="translate(-117.06 -42.98)"/><path class="cls-1" d="M253.24 95.37c1-.55 1.4-.26 1.4 1.83s-.5 3-1.47 3.6-1.42.43-1.42-1.89c0-1.91.54-2.99 1.49-3.54zm0 4.46c.18-.11.35-.37.35-2s-.07-1.68-.34-1.53-.36.46-.36 1.93.11 1.77.31 1.6zm6.53-10.18v7c0 .21 0 .21-1 .79v-6.57a.9.9 0 00-.28.12 1.07 1.07 0 00-.57 1v.76l.46-.27c0 .89 0 1-.18 1.06l-.28.16v4a.39.39 0 01-.18.31l-.81.47v-4.19l-.72.42v4a.38.38 0 01-.17.31l-.83.48v-4.22l-.53.31c0-.89 0-1 .24-1.09l.29-.17v-.66a2.78 2.78 0 011.42-2.58 1.69 1.69 0 01.87-.26 2.94 2.94 0 01.92-.82 2.12 2.12 0 011.35-.36zm-2.83 3.1a3.28 3.28 0 01.1-.86 1 1 0 00-.82 1v.81l.72-.41zm3.42-1.15a7.3 7.3 0 011.39-1.14c.92-.53 1.29-.45 1.29.59v3.74c0 .2 0 .22-1 .8V92c0-.54 0-.68-.29-.54a1.23 1.23 0 00-.36.33v4c0 .21 0 .22-1 .78zm5.8.29a2.57 2.57 0 01.09.72c0 .41-.58 1-1.28 1.37s-1.39.33-1.39-1.64c0-2.5.75-3.37 1.58-3.85s1.15-.18 1.15 1a8.68 8.68 0 01-.13 1.55 16.26 16.26 0 01-1.56 1c0 .66.16.87.59.62a3.77 3.77 0 00.95-.77zm-1.54-.69a3.22 3.22 0 00.68-.48 3.36 3.36 0 000-.56c0-.67-.08-.73-.31-.6s-.34.67-.37 1.64zm-108.3 59.48c1-.56 1.4-.26 1.4 1.83s-.5 3-1.47 3.59-1.42.44-1.42-1.88c0-1.88.54-2.99 1.49-3.54zm0 4.45c.18-.1.35-.36.35-2s-.07-1.68-.34-1.52-.36.45-.36 1.93.08 1.72.3 1.59zm6.53-10.13v7c0 .21 0 .21-1 .78v-6.58a1.15 1.15 0 00-.28.12 1.07 1.07 0 00-.56 1v.75l.46-.26c0 .89 0 1-.18 1.05l-.29.14v4a.38.38 0 01-.18.31l-.82.47v-4.18l-.71.41v4a.38.38 0 01-.17.31l-.83.47v-4.22l-.54.31c0-.89 0-1 .24-1.09l.3-.17V149a2.79 2.79 0 011.42-2.58 1.74 1.74 0 01.87-.25 2.86 2.86 0 01.91-.83 2.13 2.13 0 011.36-.34zm-2.84 3.1a3.92 3.92 0 01.1-.87 1.68 1.68 0 00-.35.14 1 1 0 00-.46.91v.82l.71-.41zm3.43-1.19a7.34 7.34 0 011.39-1.15c.91-.53 1.29-.44 1.29.59v3.74c0 .21 0 .22-1 .8v-3.58c0-.55-.05-.69-.3-.54a1.22 1.22 0 00-.36.33v4c0 .2 0 .21-1 .78zm5.8.28a2.64 2.64 0 01.08.72c0 .42-.57 1-1.27 1.38s-1.39.33-1.39-1.64c0-2.51.74-3.37 1.58-3.85s1.14-.18 1.14 1a8.51 8.51 0 01-.12 1.54 14.7 14.7 0 01-1.56 1c0 .65.16.87.59.62a4 4 0 00.95-.77zm-1.54-.68a3.23 3.23 0 00.67-.48 2.63 2.63 0 000-.57c0-.66-.09-.73-.31-.6s-.33.68-.36 1.65z" transform="translate(-117.06 -42.98)"/><path class="cls-7" d="M204.06 123.32c1-.55 1.4-.26 1.4 1.83s-.5 3-1.47 3.6-1.42.43-1.42-1.89c0-1.86.54-2.99 1.49-3.54zm-.05 4.46c.18-.11.35-.37.35-2s-.07-1.67-.34-1.52-.35.46-.35 1.93.12 1.72.33 1.59zm1.92-5.2a7.67 7.67 0 011.39-1.15c.92-.52 1.3-.44 1.3.59v3.74c0 .21 0 .23-1 .81V123c0-.55 0-.69-.29-.54a1.23 1.23 0 00-.36.33v4c0 .2 0 .21-1 .78zm4.25 2.28c0 .21 0 .21-1 .78v-7.1c0-.51.19-.62 1-1.08zm1.14-7.74c.37-.22.48-.08.47.48a1.3 1.3 0 01-.53 1.19c-.3.17-.48.09-.48-.55a1.23 1.23 0 01.54-1.12zm.47 6.81c0 .21 0 .21-1 .79v-4.67c0-.5.19-.62 1-1.09zm.78-5.18a7.34 7.34 0 011.43-1.15c.91-.52 1.29-.44 1.29.59v3.74c0 .21 0 .22-1 .8v-3.58c0-.55 0-.69-.3-.54a1.08 1.08 0 00-.35.33v4c0 .2 0 .21-1 .78zm5.8.25a2.64 2.64 0 01.08.72c0 .42-.57 1-1.27 1.38s-1.39.33-1.39-1.64c0-2.51.74-3.37 1.58-3.85s1.15-.18 1.15 1a8.49 8.49 0 01-.13 1.54 14.7 14.7 0 01-1.56 1c0 .65.16.87.59.62a4 4 0 00.95-.77zm-1.54-.68a3.23 3.23 0 00.67-.48 2.63 2.63 0 00.05-.57c0-.66-.08-.73-.31-.6s-.38.71-.41 1.68zm11.31-67.47c1-.56 1.4-.26 1.4 1.83s-.5 3-1.47 3.59-1.42.44-1.42-1.88c0-1.88.54-2.99 1.49-3.54zm0 4.46c.18-.11.35-.37.35-2s-.07-1.67-.34-1.52-.36.46-.36 1.93.08 1.71.31 1.59zm1.86-5.2a7 7 0 011.41-1.11c.91-.52 1.29-.44 1.29.59v3.74c0 .21 0 .22-1 .8v-3.62c0-.55 0-.69-.3-.54a1.22 1.22 0 00-.36.33v4c0 .2 0 .21-1 .78zm4.26 2.28c0 .21 0 .21-1 .78v-7.1c0-.51.19-.62 1-1.08zm1.15-7.74c.36-.22.47-.08.46.48a1.3 1.3 0 01-.53 1.19c-.29.17-.48.09-.48-.55a1.21 1.21 0 01.55-1.12zm.46 6.81c0 .21 0 .21-1 .79v-4.67c0-.51.2-.62 1-1.09zm.78-5.18a7.34 7.34 0 011.35-1.15c.92-.53 1.29-.44 1.29.59v3.74c0 .21 0 .22-1 .8v-3.58c0-.55 0-.69-.29-.54a1.11 1.11 0 00-.36.33v4c0 .21 0 .22-1 .79zm5.81.28a3.11 3.11 0 01.08.72c0 .41-.58 1-1.28 1.38s-1.39.32-1.39-1.64c0-2.51.75-3.37 1.58-3.86s1.15-.17 1.15 1a8.49 8.49 0 01-.13 1.54 14.7 14.7 0 01-1.56 1.05c0 .65.16.87.6.62a4.21 4.21 0 00.95-.81zm-1.55-.68a3.63 3.63 0 00.68-.48 3.48 3.48 0 000-.57c0-.66-.08-.73-.3-.6s-.35.68-.38 1.65zm-62.54 33.44c1-.56 1.4-.26 1.4 1.83s-.5 3-1.47 3.59-1.42.44-1.42-1.88c0-1.86.54-2.99 1.49-3.54zm0 4.46c.18-.11.35-.37.35-2s-.08-1.67-.35-1.52-.35.46-.35 1.93.08 1.72.31 1.59zm1.87-5.2a7.42 7.42 0 011.4-1.15c.91-.53 1.29-.44 1.29.59v3.74c0 .21 0 .22-1 .8V79c0-.55-.05-.69-.3-.54a1.11 1.11 0 00-.36.33v4c0 .2 0 .21-1 .78zm4.25 2.28c0 .21 0 .21-1 .78v-7.1c0-.51.19-.62 1-1.08zm1.14-7.74c.37-.22.48-.08.47.48a1.3 1.3 0 01-.53 1.19c-.29.17-.48.09-.48-.55a1.23 1.23 0 01.54-1.12zm.47 6.81c0 .21 0 .21-1 .79v-4.67c0-.51.19-.62 1-1.09zm.78-5.18a7.34 7.34 0 011.39-1.15c.92-.53 1.29-.44 1.29.59v3.74c0 .21 0 .22-1 .8v-3.58c0-.55 0-.69-.3-.54a1.08 1.08 0 00-.35.33v4c0 .21 0 .22-1 .79zm5.8.25a2.64 2.64 0 01.08.72c0 .41-.57 1-1.27 1.38s-1.39.32-1.39-1.64c0-2.51.74-3.37 1.58-3.86s1.15-.17 1.15 1a8.49 8.49 0 01-.13 1.54 14.7 14.7 0 01-1.56 1c0 .65.16.87.59.62a3.83 3.83 0 00.95-.76zm-1.54-.68a3.23 3.23 0 00.67-.48 2.63 2.63 0 00.05-.57c0-.66-.08-.73-.31-.6s-.38.71-.41 1.68z" transform="translate(-117.06 -42.98)"/><path class="cls-1" d="M83.75 179.07h-1.18v-40.38l-13.48 7.78V40.09h1.17v104.35l13.49-7.79v42.42zm20.55-12.58v-41.74l13.42-7.75V11.97h1.18v105.7l-13.43 7.75v41.07h-1.17z"/><path class="cls-7" d="M201.91 108.33c-.34.76-.71 1.51-1.11 2.26-.27.54-.57 1.08-.88 1.61a42.36 42.36 0 01-3.06 4.61c-.76 1-1.55 2-2.36 2.83a35.18 35.18 0 01-2.83 2.78c-3.8 3.32-7.84 5.35-11.5 5.71a10.74 10.74 0 01-3-.12 8.68 8.68 0 01-2.83-1 8.81 8.81 0 01-2.1-1.7c-4.87-5.32-4.18-17 2.1-27.85 7.07-12.24 18.52-18.86 25.59-14.78 6.32 3.63 6.98 14.61 1.98 25.65z" transform="translate(-117.06 -42.98)"/><path class="cls-14" d="M201.91 108.33c-.34.76-.71 1.51-1.11 2.26-.27.54-.57 1.08-.88 1.61a42.36 42.36 0 01-3.06 4.61c-.54-1.15-1.05-2.2-1.49-3.08-.56-1.15.11-2 0-3.24a7.43 7.43 0 01.7-3.77 2.4 2.4 0 011.22-1.46 2.08 2.08 0 011.65.26 8.41 8.41 0 012.97 2.81z" transform="translate(-117.06 -42.98)"/><path class="cls-3" d="M200.8 110.59c-.27.54-.57 1.08-.88 1.61-6.18 10.71-15.73 17.12-22.76 15.81-.45-1.58-.92-3.14-1.4-4.88s-1.5-4.29-1.64-5.5c-.32-2.81 1.3-5 4.93-7.43a53.5 53.5 0 0112.16-5.35c6.71-2.1 7.65.34 9.58 5.7a.06.06 0 01.01.04z" transform="translate(-117.06 -42.98)"/><path class="cls-9" d="M194.5 119.64a35.18 35.18 0 01-2.83 2.78c-.23-3.07-.57-6.08-1-9l2.26-1.6a79.16 79.16 0 011.57 7.82z" transform="translate(-117.06 -42.98)"/><path class="cls-2" d="M193.92 111.55a.59.59 0 010 .14 3.5 3.5 0 01-.27.87 9.38 9.38 0 01-.76 1.6 1.52 1.52 0 01-.66.69 1.24 1.24 0 01-1-.15c-.36-.2-1-.5-.94-1a8.2 8.2 0 01.34-1.17 4.18 4.18 0 011.33-2.2c.8-.53 1.37.27 1.79.86a1 1 0 01.17.36z" transform="translate(-117.06 -42.98)"/><path class="cls-10" d="M183.78 107.62c-.17 5.42 10 5.51 9.85.41-.2-7.1-.63-7.92-4-9a9.93 9.93 0 00-2.85-.55c-3.53-.06-2.16 1.73-2 3 .39 3.67-.94 4.19-1 6.14z" transform="translate(-117.06 -42.98)"/><path class="cls-3" d="M192 111c.18.58.94.78 1.45 1.12.22.15.61.43.9.37s.47-.45.57-.69a15.33 15.33 0 001.14-5.55 2.16 2.16 0 00-.56-1.69 1.67 1.67 0 00-1.67-.24c-.55.25-.69 1.34-.49 1.85A4.35 4.35 0 01192 111z" transform="translate(-117.06 -42.98)"/><path class="cls-3" d="M192.05 111a13.2 13.2 0 01-2 2.36c-.27.24-.49.53-.84.42-1.75-.57-5.43-3.65-6.16-5.6a2.6 2.6 0 01.65-2.14 11.18 11.18 0 01.74-.93 12.48 12.48 0 001.07 2.41c1.49 2.06 4.03 3.12 6.54 3.48z" transform="translate(-117.06 -42.98)"/><path class="cls-11" d="M198.34 90.58a7.75 7.75 0 011.2 4.14 6.06 6.06 0 01-.33 1.89 5.63 5.63 0 00-.58 1.75 7.85 7.85 0 00.77 2.26 2.86 2.86 0 01.09 1.95 6 6 0 01-.6 1c-1 1.54-.06 3.8-1.76 4.9a2.78 2.78 0 01-1.42.36 19.52 19.52 0 01-4.56-1.25 11 11 0 01-3.27-2.91 14.58 14.58 0 01-2.28-2.71c-.13-.29.19-.34-.1-.48s-.39-1.22-.59-1.24a2.08 2.08 0 01-.75-.42c-.37-.25-.56.67-.68.23a18.52 18.52 0 01-1.13-5.74c.07-1.8 0-3.35 1.19-4.88A7.83 7.83 0 01187 86.9a9.64 9.64 0 016.49-.12 9.32 9.32 0 014.85 3.8z" transform="translate(-117.06 -42.98)"/><path class="cls-17" d="M185.31 93.16c1.26 1 2.1 1.37 4.54 1.61a28.21 28.21 0 00-.67 5c-.11 1-.68 2.2-1.77 1-.25-.27-.45-.59-.7-.87a1.67 1.67 0 00-.92-.6 1 1 0 00-1 .56c-.11.23 0 .28 0 .48a.34.34 0 01-.3.45c-.22 0-.41-.18-.57-.31a4.83 4.83 0 01-1.26-2.12 11.7 11.7 0 01-.69-4.1 7.84 7.84 0 01.43-2.63 13.63 13.63 0 01.88-1.85 5.54 5.54 0 002.03 3.38z" transform="translate(-117.06 -42.98)"/><path class="cls-11" d="M185.23 97.91c-1.56-.1-2 1.83-.88 3.33a7.06 7.06 0 001.27 1.17c2.8 2.39 3.5-.19 2.61-1-2.06-1.89-1.03-3.41-3-3.5z" transform="translate(-117.06 -42.98)"/><path class="cls-10" d="M186.17 101.61c-.17-.16-1.95-1.21-.74-1.93a.54.54 0 01.76.45v.56a.89.89 0 00.11.31c.16.25.7.5.6.88s-.62-.18-.73-.27z" transform="translate(-117.06 -42.98)"/><path class="cls-8" d="M181 123.35a30.25 30.25 0 00-.87 4.78 10.74 10.74 0 01-3-.12 8.68 8.68 0 01-2.83-1 8.81 8.81 0 01-2.1-1.7c0-.51.05-1 .08-1.51a38.41 38.41 0 011.1-7.14 7 7 0 012.52-4.34c1.44-1.14 3.25-.84 4.74.23a4.58 4.58 0 011.67 3c.55 2.67-.59 5.16-1.31 7.8z" transform="translate(-117.06 -42.98)"/><path class="cls-17" d="M192.54 105.82c2.07 1.45 3.77 1.22 5.6.84a2.47 2.47 0 01-2 2.4 6 6 0 01-3.33-.62 11.58 11.58 0 01-3.61-2.26c-1-1-1.89-1.36-2-2.78-.06-.74.11-4.58.61-5.15.86-1 1.4.07 1.38.92-.1 5.17 1.92 5.65 3.35 6.65z" transform="translate(-117.06 -42.98)"/><path class="cls-7" d="M248.29 83.53c-.19.36-.39.72-.6 1.07s-.31.54-.47.8c-.07.11-.14.22-.2.33a42.59 42.59 0 01-3.52 4.9c-.38.46-.78.91-1.17 1.34-.09.11-.19.21-.29.32l-.45.48c-4.5 4.66-9.57 7.49-14 7.79h-.2a9.41 9.41 0 01-5.28-1.19 8.72 8.72 0 01-2.11-1.68c-4.89-5.32-4.19-17 2.09-27.86 7.07-12.24 18.52-18.85 25.59-14.78 6.87 3.95 7.07 16.55.61 28.48z" transform="translate(-117.06 -42.98)"/><path class="cls-12" d="M247.48 68.55a27.83 27.83 0 00-3.54 0 22.8 22.8 0 00-4 .12c-.61.09-1.45.16-1.79.77a2.35 2.35 0 00.46 2.27c.16.21.51 0 .36-.21a2.49 2.49 0 01.32-2.27c.29-.26 1.35-.23 1.74-.26.78-.06 1.56 0 2.34 0 1.3 0 2.64.08 4 0 .12-.07.19-.41.11-.42z" transform="translate(-117.06 -42.98)"/><path class="cls-18" d="M247.22 85.4c-.07.11-.14.22-.2.33a42.59 42.59 0 01-3.52 4.9 3.08 3.08 0 01-.95-2 26.55 26.55 0 00-.78-5.86 6.44 6.44 0 00-1.28-2.39c-.4-.42-1.06-.53-1.29-1.09a3.93 3.93 0 01.25-2.36 16 16 0 001.15-4.07v-.58c0-2-.32-4.07-.15-6.07a13.43 13.43 0 01.45-2.34 18.73 18.73 0 012.25 0c.71 0 2.76-.38 3 .52a3.07 3.07 0 01-.26 1.42c-.23.82-.36 1.65-.55 2.47a11.14 11.14 0 00.46 5.83 8.51 8.51 0 001.16 2.11c1.07 1.62-.1 4-.21 5.76a9.46 9.46 0 00.47 3.42z" transform="translate(-117.06 -42.98)"/><path class="cls-14" d="M248.29 83.53c-.19.36-.39.72-.6 1.07s-.44.76-.67 1.13a41.83 41.83 0 01-5 6.56c-1-4.5-2.87-12.75-3.56-14.11-.87-1.71 2.17 2.08 3.93 1.41a3.74 3.74 0 013.85.68 8.74 8.74 0 012.05 3.26z" transform="translate(-117.06 -42.98)"/><path class="cls-10" d="M243.3 90V79.53h-.08a12.05 12.05 0 00-7.3-.6c-.33.07-1.42-.34-1.75-.27a19.76 19.76 0 00-4.61 1.8l-.42 9.54z" transform="translate(-117.06 -42.98)"/><path class="cls-10" d="M232.6 80.44s9.1 4.15 8.49-.79c-.86-6.89-1.33-7.64-4.46-8.42-.86-.21-1.22-.91-2.1-.85-3.2.25-1.79 1.88-1.55 3.08.71 3.54-.51 5.08-.38 6.98z" transform="translate(-117.06 -42.98)"/><path class="cls-8" d="M231.62 82.7a23.58 23.58 0 01-2.06-2.27l1.44-.67c1.08 1.76 4.49 4.27 7.81 3.85 1.55-.2 2.06-1.87 3.42-4.44a8.84 8.84 0 011 .33h.08a26.06 26.06 0 01-2.68 4.34c-2.47 2.5-7.23.27-9.01-1.14z" transform="translate(-117.06 -42.98)"/><path class="cls-3" d="M240.24 78.38h.12c-.36-.11-.56-.02-.12 0z" transform="translate(-117.06 -42.98)"/><path class="cls-3" d="M247 85.73c-5.47 8.87-13.23 14.51-19.64 14.84-.26-.66-.54-1.3-.83-1.94a24.74 24.74 0 00-1.25-2.72c-.54-.87-1-1.76-1.53-2.63a8.53 8.53 0 01-1.18-2.63 13.3 13.3 0 01-.43-2.43 6.17 6.17 0 010-.86 4.84 4.84 0 012.13-3.85c1.65-1.22 3.53-2 5.27-3.08a7.1 7.1 0 008.66 4.72 3.54 3.54 0 001.05-.56 4.48 4.48 0 002.2-4.59 1.61 1.61 0 00-1.08-1.63c5.63.21 5.63 3.68 6.63 7.36z" transform="translate(-117.06 -42.98)"/><path class="cls-8" d="M242.33 92c-.09.11-.19.21-.29.32l-.45.48a81.26 81.26 0 00-3.05-8.67c-.1-.25.29-.39.42-.18a31.46 31.46 0 013.37 8.05z" transform="translate(-117.06 -42.98)"/><path class="cls-8" d="M241.5 79.4a7.34 7.34 0 01-1 3.82 3.48 3.48 0 01-1.37 1.09l3.6 3s1.26-2.88.79-4.78c-.25-.87-.68-3.12-2.02-3.13zm-11.26 1.01a.21.21 0 00-.2.08c0 .4.6-.42.89-.23.95.62 1.53 2.47 3.16 3.44a6.4 6.4 0 005 .61 29 29 0 01-.88 5.19c-.1-.09-5-2.42-6.75-3.3a5.22 5.22 0 01-2.24-2.2 3.11 3.11 0 01-.56-1.8 4.37 4.37 0 01.9-1.75z" transform="translate(-117.06 -42.98)"/><path class="cls-11" d="M235.26 75.77a4.09 4.09 0 01-.72-.72 8.1 8.1 0 00-.7-.85 3.38 3.38 0 00-.55-.45c-.2-.12-.44-.16-.57-.36s-.44-.67-.64-1c-1.92-3.22-2-7.55.67-10.38a7.9 7.9 0 017.64-2.1 12.11 12.11 0 012.08.85 5.77 5.77 0 011.6 1.1 5.5 5.5 0 01.72 1.06c.3.54.53 1.14.79 1.71a3.53 3.53 0 01.18 1.48 14.13 14.13 0 01-.56 3 4.89 4.89 0 00.52 2.61c.16.47.42 1 .13 1.52a8.19 8.19 0 00-.59.86 6.27 6.27 0 00-.33 1c-.06.24-.22 1.06-.26 1.24s-.07.43-.1.65-.08.5-.12.74a1.62 1.62 0 01-.94 1.33 2.85 2.85 0 01-1 .22 3.32 3.32 0 01-1-.12 26.33 26.33 0 01-4.89-2.37c-.46-.31-.91-.66-1.36-1.02z" transform="translate(-117.06 -42.98)"/><path class="cls-18" d="M229.16 66c.13-4.08 1.16-4.92 2.71-6.22a8.51 8.51 0 015.62-1.65 11 11 0 014.25 1 8.61 8.61 0 013.13 2.48 5.34 5.34 0 011.15 5 3.74 3.74 0 01-.4 1 6.37 6.37 0 01-.46-1c-.11-.32-.19-.65-.31-1a8.36 8.36 0 01-.4-.79 4.58 4.58 0 00-2.95 1 9.52 9.52 0 00-2.74 3c-.34.59-.65 1.18-1 1.76l-.46.68a3.52 3.52 0 01-1.92 1.29c-.54.14-1.3.14-1.73.54s-.6.74-1.34.59c-1.3-.28-2.09-2.6-2.49-3.69a10.69 10.69 0 01-.66-3.99z" transform="translate(-117.06 -42.98)"/><path class="cls-8" d="M228.83 96.31c-.41 1.42-.82 2.83-1.25 4.25h-.2a9.41 9.41 0 01-5.28-1.19 8.72 8.72 0 01-2.1-1.68c.1-.63.19-1.25.3-1.88.35-2.11.73-4.21 1.19-6.3a20.51 20.51 0 011.28-4.37 3.35 3.35 0 01.27-.45 2.45 2.45 0 013.09-.68 5.21 5.21 0 012.25 2.71 14.49 14.49 0 01.45 9.59z" transform="translate(-117.06 -42.98)"/><path class="cls-18" d="M227.49 74.76a21.24 21.24 0 01-.28 3.55c-.22 1.23-.82 2.61-.72 3.87.69-.36 1.9-.57 2.45.14.88 1.12 1.05 3.15 1.29 4.5s.29 2.51.47 3.76c.28 2 1.94 2.81 3.77 3 2.38.22 3.16-.46 3.65-2.74a9.87 9.87 0 00-.54-5.4c-.82-2.27-2.39-4-3.41-6.19a5.4 5.4 0 01-.44-4.17 5.81 5.81 0 00.43-1.43 8.85 8.85 0 00.22-2.46c0-1-.41-1.83-.41-2.79a4.63 4.63 0 00-.47-1.9c-.26-.6-.33-1.3-.59-1.92a33.87 33.87 0 00-2.23-3.79 6.59 6.59 0 01-.44.62 19.23 19.23 0 00-1.1 1.62 16.3 16.3 0 00-1.32 4.24 39.12 39.12 0 00-.33 7.49z" transform="translate(-117.06 -42.98)"/><path class="cls-12" d="M244 69.65a2.58 2.58 0 00-2.77 1.06c-.38.82-.33 2.45.53 2.88a1.93 1.93 0 002.43-1.12c.33-.61.81-2.54-.19-2.82zm.17 2a2.55 2.55 0 01-.52 1c-.49.59-1.7 1.08-2.11.11a2 2 0 01.67-2.44 2.51 2.51 0 011.75-.19c.42.19.35 1 .23 1.48zm2.83-3.08c-.58.22-1.45.68-1.64 1.32a.92.92 0 000 .29c-.06.71 0 1.87.77 2 1 .22 1.54-1.4 1.67-2.12s.2-1.89-.8-1.49zm.35 1.89c-.1.36-.81 2.22-1.52 1.24a1.78 1.78 0 01.94-2.71c1.01-.33.7.94.56 1.47z" transform="translate(-117.06 -42.98)"/><path class="cls-12" d="M245.87 69.19a3.23 3.23 0 01-1.88.46c-.08 0 .24.48.3.51a6.58 6.58 0 001.26-.37c.24-.1.32-.6.32-.6zm-4.49 1.42a28 28 0 00-3.55 0 23.68 23.68 0 00-4 .13c-.61.09-1.45.16-1.79.77a2.31 2.31 0 00.46 2.27c.15.21.5 0 .36-.21a2.45 2.45 0 01.32-2.27c.29-.26 1.35-.23 1.73-.26.78-.06 1.57 0 2.35 0 1.3 0 2.63.08 4 0 .12-.04.2-.41.12-.43z" transform="translate(-117.06 -42.98)"/><path class="cls-11" d="M233 69.69c-1.39-.08-1.73 1.64-.77 3a6.65 6.65 0 001.14 1c2.5 2.11 3.11-.19 2.32-.9-1.83-1.66-.92-2.98-2.69-3.1z" transform="translate(-117.06 -42.98)"/><path class="cls-10" d="M233.92 72.85c-.16-.14-1.74-1.07-.67-1.71a.48.48 0 01.68.4v.49a.81.81 0 00.11.27c.14.23.62.45.53.79s-.57-.16-.65-.24z" transform="translate(-117.06 -42.98)"/><g class="cls-6"><path class="cls-1" d="M332.94 339.69v5.12c-.05 15.89-10.5 31.77-31.37 43.9-42 24.42-110.35 24.42-152.64 0-21.28-12.29-31.91-28.42-31.87-44.52v-5.12c0 16.1 10.59 32.23 31.87 44.52 42.29 24.42 110.62 24.42 152.63 0 20.88-12.13 31.33-28.01 31.38-43.9z" transform="translate(-117.06 -42.98)"/><g class="cls-6" clip-path="url(#clip-path)"><path class="cls-1" d="M332.94 339.69v5.12c-.05 15.89-10.5 31.77-31.37 43.9a124.74 124.74 0 01-27.48 11.58v-5.12a124.46 124.46 0 0027.47-11.58c20.88-12.13 31.33-28.01 31.38-43.9z" transform="translate(-117.06 -42.98)"/><path class="cls-13" d="M274.09 395.17v5.12a173.71 173.71 0 01-46.31 6.71v-5.12a173.71 173.71 0 0046.31-6.71z" transform="translate(-117.06 -42.98)"/><path class="cls-17" d="M227.78 401.89V407c-28.42.37-57.08-5.73-78.85-18.3-1.06-.61-2.1-1.24-3.11-1.87v-5.12c1 .63 2.05 1.26 3.11 1.87 21.77 12.58 50.43 18.68 78.85 18.31z" transform="translate(-117.06 -42.98)"/><path class="cls-13" d="M145.82 381.72v5.12c-11.29-7.07-19.26-15.28-23.9-24v-5.12c4.64 8.72 12.61 16.93 23.9 24z" transform="translate(-117.06 -42.98)"/><path class="cls-13" d="M121.92 357.76v5.12a39.19 39.19 0 01-4.86-18.69v-5.12a39.19 39.19 0 004.86 18.69z" transform="translate(-117.06 -42.98)"/></g><path class="cls-20" d="M301.08 295.18c42.29 24.41 42.5 64 .48 88.41s-110.34 24.42-152.63 0-42.52-64-.5-88.41 110.36-24.42 152.65 0z" transform="translate(-117.06 -42.98)"/><path class="cls-17" d="M291.51 305.45c37 18.74 37.16 49.13.43 67.87s-96.47 18.74-133.44 0-37.18-49.13-.45-67.87 96.49-18.74 133.46 0z" transform="translate(-117.06 -42.98)"/></g><g class="cls-6"><path class="cls-2" d="M329.94 321.87l-.1 19.78c0 15.46-10.2 30.9-30.5 42.69-40.85 23.74-107.28 23.74-148.4 0-20.69-11.94-31-27.63-31-43.28l.1-19.79c0 15.66 10.3 31.34 31 43.29 41.12 23.74 107.55 23.74 148.4 0 20.3-11.8 30.46-27.23 30.5-42.69z" transform="translate(-117.06 -42.98)"/><g class="cls-6" clip-path="url(#clip-path-2)"><path class="cls-22" d="M329.94 321.87l-.1 19.78c0 15.46-10.2 30.9-30.5 42.69a121 121 0 01-26.71 11.26l.1-19.78a121.47 121.47 0 0026.71-11.26c20.3-11.8 30.46-27.23 30.5-42.69z" transform="translate(-117.06 -42.98)"/><path class="cls-2" d="M272.73 375.82l-.1 19.78a168.41 168.41 0 01-45 6.53l.09-19.78a168.83 168.83 0 0045.01-6.53z" transform="translate(-117.06 -42.98)"/><path class="cls-9" d="M227.7 382.35l-.09 19.78c-27.64.36-55.51-5.57-76.67-17.79-1-.59-2-1.2-3-1.81l.1-19.79c1 .62 2 1.22 3 1.82 21.16 12.22 49.03 18.15 76.66 17.79z" transform="translate(-117.06 -42.98)"/><path class="cls-2" d="M148 362.74l-.1 19.79c-11-6.88-18.73-14.86-23.25-23.3l.1-19.78c4.54 8.43 12.25 16.42 23.25 23.29z" transform="translate(-117.06 -42.98)"/><path class="cls-22" d="M124.77 339.45l-.1 19.78a38.18 38.18 0 01-4.67-18.17l.1-19.79a38.21 38.21 0 004.67 18.18z" transform="translate(-117.06 -42.98)"/></g><path class="cls-2" d="M299 278.59c41.11 23.74 41.32 62.23.47 86s-107.28 23.74-148.4 0-41.34-62.22-.49-86 107.27-23.73 148.42 0z" transform="translate(-117.06 -42.98)"/></g><g class="cls-6"><path class="cls-1" d="M332.94 315v5.12c-.05 15.89-10.5 31.77-31.37 43.9-42 24.42-110.35 24.42-152.64 0-21.28-12.29-31.91-28.42-31.87-44.52v-5.12c0 16.1 10.59 32.23 31.87 44.52 42.29 24.42 110.62 24.42 152.63 0 20.88-12.16 31.33-28.04 31.38-43.9z" transform="translate(-117.06 -42.98)"/><g class="cls-6" clip-path="url(#clip-path-3)"><path class="cls-1" d="M332.94 315v5.12c-.05 15.89-10.5 31.77-31.37 43.9a124.74 124.74 0 01-27.48 11.58v-5.12a124.46 124.46 0 0027.47-11.58c20.88-12.16 31.33-28.04 31.38-43.9z" transform="translate(-117.06 -42.98)"/><path class="cls-13" d="M274.09 370.45v5.12a173.71 173.71 0 01-46.31 6.72v-5.12a173.71 173.71 0 0046.31-6.72z" transform="translate(-117.06 -42.98)"/><path class="cls-17" d="M227.78 377.17v5.12c-28.42.37-57.08-5.73-78.85-18.3-1.06-.61-2.1-1.24-3.11-1.87V357c1 .63 2.05 1.26 3.11 1.87 21.77 12.57 50.43 18.67 78.85 18.3z" transform="translate(-117.06 -42.98)"/><path class="cls-13" d="M145.82 357v5.12c-11.29-7.07-19.26-15.28-23.9-24V333c4.64 8.72 12.61 16.93 23.9 24z" transform="translate(-117.06 -42.98)"/><path class="cls-13" d="M121.92 333v5.12a39.19 39.19 0 01-4.86-18.69v-5.12a39.19 39.19 0 004.86 18.69z" transform="translate(-117.06 -42.98)"/></g><path class="cls-20" d="M301.08 270.45c42.29 24.42 42.5 64 .48 88.42s-110.34 24.42-152.63 0-42.52-64-.5-88.41 110.36-24.46 152.65-.01z" transform="translate(-117.06 -42.98)"/><path class="cls-9" d="M225.31 372.19c-25.06 0-50.16-5.53-69.31-16.58-18.89-10.91-29.31-25.5-29.33-41.09s10.23-30 28.88-40.8c38-22.11 100.16-22.11 138.45 0 18.89 10.9 29.31 25.49 29.33 41.07s-10.24 30-28.88 40.81c-19.03 11.06-44.07 16.59-69.14 16.59zM224.69 260c-24.54 0-49.05 5.41-67.67 16.23-17.7 10.29-27.43 23.87-27.41 38.26s9.91 28.18 27.86 38.54c37.48 21.64 98.27 21.64 135.5 0 17.7-10.29 27.44-23.88 27.42-38.27s-9.91-28.18-27.85-38.54C273.79 265.44 249.22 260 224.69 260z" transform="translate(-117.06 -42.98)"/></g><g class="cls-6"><path class="cls-13" d="M26.31 242.27l3.79 25.11 14.92 8.68-.05-22.95-18.66-10.84z"/><path class="cls-1" d="M63.74 242.27l-3.79 25.11-14.93 8.68-.05-22.95 18.77-10.84z"/><path class="cls-20" d="M26.31 242.27l18.66 10.84 18.78-10.84-18.66-10.85-18.78 10.85z"/><path d="M177.63 285.24l-.81.47-1 .55-2.6 1.51-.08.05-.16.09-1 .57-.11.07-.7.4-2.58 1.49-.2.12-.81.47-.21.13h-.06l-.4.23-.3.17-.23.13-.2.12-.29.16h-.05l-.19.11-.31.18-1.12.66-.36.2-1.76 1-.45-.27-.13-.07L160 293l-.31-.18-1.32-.75-.25-.15-1-.57-.18-.11-.25-.14-.45-.27-1-.58-.12-.07-3.55-2.06-1.31-.76-1.22-.7-1.37-.8-1.11-.65.94-.55.73-.42 2-1.16.93-.54.28-.16 1.84-1.06.16-.09 1.06-.63.15-.08.58-.33.63-.36 1.35-.78 1.43-.83h.06l1-.59h.13l.81-.47.51-.29.09-.06.1-.05.32-.18.44-.26.12.07 1.77 1 .38.22.18.11.65.37.15.09.62.36.13.08.75.44.27.16.29.16.32.19 1.36.78.21.13 1.15.66.94.55.43.25.41.24h.06l.48.28.57.32.18.1 2.64 1.53.77.45z" transform="translate(-117.06 -42.98)" fill="#0b122a"/></g><path class="cls-25" d="M154.88 272.5c-4-5.31-8.45-10.48-10.82-16.44a31.84 31.84 0 01-2.06-12.82 49.43 49.43 0 01.66-6.65c.3-1.84.35-4.68 1.43-6.24a31.33 31.33 0 0110.78 11.07c1.62 3 3.28 5.89 4.07 9.15a42 42 0 011 10.15c0 4.15-.34 8.28-.06 12.43.12 1.92.35 3.9.65 5.8s1.4 3.63 2.11 5.42c.2.5 1.75 4.37.23 3.26-1-.75-1.22-3.64-1.68-4.76a36.36 36.36 0 00-2.67-5.14 85.627 85.627 0 00-3.64-5.23z" transform="translate(-117.06 -42.98)"/><path class="cls-7" d="M164.14 281.62a18.71 18.71 0 018.05-5c5.29-1.73 9.77 0 14.32 2.75 4.05 2.46 5.56 8.91 5.29 13.3a17.88 17.88 0 01-3.44 9.42c-1.38 1.88-4.45 6.07-5.66 1.88a43.13 43.13 0 01-1.12-8.34 20.54 20.54 0 00-2-8.12c-1.73-3.2-4.31-4.45-7.76-4.57-2.55-.09-5.23-.15-7.51 1a6.21 6.21 0 00-2.17 1.84c-.42.57-.69 1.78-1.25 2 .16-2.2 1.82-4.58 3.25-6.16z" transform="translate(-117.06 -42.98)"/><path class="cls-2" d="M158.73 273.57a20.54 20.54 0 01-2-4.4 20.8 20.8 0 01.25-10.31c1.3-4.89 3.94-9.32 6.54-13.68l4.67-7.81c-1 1-.45 2.54 0 3.8a35.64 35.64 0 010 26.38c-.83 2.1-2.1 3.94-3 6a38 38 0 00-2.91 8.46c-.24 1.25-.22 2.5-.47 3.77-.09.44-1.24 3.94-1.06 4.1-.55-.49-.44-1.32-.3-2a23.12 23.12 0 00-1.74-14.17.41.41 0 00.02-.14z" transform="translate(-117.06 -42.98)"/><path class="cls-9" d="M162.63 286.81c-.07-.23-.15-.47-.24-.71-.61-1.54-1.57-2.89-2.26-4.39a75.28 75.28 0 00-4.39-9c-3-4.81-7.17-9.11-12.5-11.4-6.16-2.65-13.2-2.38-19.79-3.79a9.3 9.3 0 013.93 2.9c1.3 1.53 2.33 3.26 3.75 4.67 2.69 2.67 6.5 3.94 10 5.6 5.22 2.51 9.82 6 14.37 9.54a26.64 26.64 0 016.29 6.62z" transform="translate(-117.06 -42.98)"/><path class="cls-9" d="M175.72 286c-2.88-3.21-8.72-4.82-12.17-1.6a7.42 7.42 0 00-1 1.22c-.07.11-.61 1.4-.48 1.4h.31c.13-1 2.13-1.65 2.94-1.79a5.06 5.06 0 013.28.56c1.72.95 1.76 3.19 1.6 4.95a32.71 32.71 0 01-1.39 5.66 21.18 21.18 0 00-.8 8.62 12 12 0 003.92 7.56 6.43 6.43 0 01-.65-5.87 18.35 18.35 0 013.14-5.24 20.6 20.6 0 003.25-5.18 10.29 10.29 0 00-1.95-10.29z" transform="translate(-117.06 -42.98)"/><path class="cls-25" d="M169.21 266.77a31.17 31.17 0 018.36-8.8 19.69 19.69 0 0111.48-3.57c4.54.14 10.57 2.48 12.55 6.83a21.75 21.75 0 011.91 7.81c0 .73-.87 7.36-.87 7.36a56.37 56.37 0 00-11-7c-4-1.74-8.56-2.52-12.74-1.29a19 19 0 00-8.42 5.61c-3.54 3.88-6.89 8.64-8.43 13.66a43 43 0 017.16-20.61z" transform="translate(-117.06 -42.98)"/><path class="cls-22" d="M143.94 272.22c-2.93-1-6.15-1.49-9.08-.46-3.55 1.25-6.19 4.57-7.68 8.24s-2 7.69-2.43 11.65a72.5 72.5 0 008.43-5.55c2.83-2.16 5.66-4.61 9.08-5.28 4.35-.87 8.24 1.28 12.09 3a16 16 0 018.11 8.43c-1.39-3.36-2.72-7.74-5.32-10.28s-4.81-5.14-7.73-7.05a25.53 25.53 0 00-5.47-2.7z" transform="translate(-117.06 -42.98)"/><path class="cls-2" d="M145.33 289.52a12.65 12.65 0 00-1.12 7.56 36.89 36.89 0 002 7.47q2.16 6.26 4.33 12.49c-.12-2.71-1.06-5.32-1.65-8s-.81-5.55.4-8c1.52-3 4.91-4.62 8.19-5.47 2.15-.55 4.75-1 6.32-2.73s1.48-4.83.34-6.9c-2.1-3.82-9-2.84-12.34-1.66a11.66 11.66 0 00-6.47 5.24z" transform="translate(-117.06 -42.98)"/><g class="cls-6"><path class="cls-16" d="M133.17 239.34l3.1-1.8 39.52 22.82-3.1 1.8-39.52-22.82z"/><path class="cls-15" d="M131.75 186.29l3.1-1.8 1.57.9-3.1 1.8-1.57-.9z"/><path class="cls-15" d="M133.32 187.19l3.1-1.8-.15 52.15-3.1 1.8.15-52.15zm41.08 23.72l3.1-1.8-.16 53.95-3.1 1.8.16-53.95z"/><path class="cls-15" d="M172.84 210.01l3.1-1.8 1.56.9-3.1 1.8-1.56-.9z"/><path class="cls-26" d="M174.4 210.91l-.16 53.95-42.64-24.62.15-53.95 1.57.9-.15 52.15 39.52 22.82.15-52.15 1.56.9z"/></g><g class="cls-6"><path class="cls-26" d="M56.48 265.97l-.93-.54-.01-3.58.93.54.01 3.58z"/><path class="cls-16" d="M56.47 262.39l-.93-.54 76.58-44.21.93.54-76.58 44.21z"/><path class="cls-15" d="M133.05 218.18l.01 3.58-76.58 44.21-.01-3.58 76.58-44.21z"/></g><g class="cls-6"><path class="cls-15" d="M56.38 283.59l3.1-1.81L99 304.6l-3.1 1.8-39.52-22.81zm-1.41-53.06l3.1-1.8 1.56.9-3.1 1.81-1.56-.91z"/><path class="cls-15" d="M56.53 231.44l3.1-1.81-.15 52.15-3.1 1.81.15-52.15zm41.08 23.71l3.1-1.8-.15 53.95-3.1 1.8.15-53.95z"/><path class="cls-15" d="M96.05 254.25l3.1-1.8 1.56.9-3.1 1.8-1.56-.9z"/><path class="cls-26" d="M97.61 255.15l-.15 53.95-42.65-24.62.16-53.95 1.56.91-.15 52.15L95.9 306.4l.15-52.15 1.56.9z"/></g><g class="cls-6"><path fill="#816971" d="M135.22 189.82l-1.32-.78-22.17 59.03 1.33.78 22.16-59.03z"/><path class="cls-28" d="M138.16 188.12l-1.33-.77-2.93 1.69 1.32.78 2.94-1.7z"/><path class="cls-29" d="M135.22 189.82l-22.16 59.03 2.94-1.7 22.16-59.03-2.94 1.7z"/></g><g class="cls-6"><path class="cls-28" d="M115.86 200.99l-1.32-.77-2.94 1.7 1.33.77 2.93-1.7z"/><path fill="#3d3239" d="M112.93 202.69l-1.33-.77 22.43 33.28 1.32.77-22.42-33.28z"/><path class="cls-29" d="M115.86 200.99l-2.93 1.7 22.42 33.28 2.94-1.69-22.43-33.29z"/></g><g class="cls-6"><path class="cls-13" d="M52.76 229.64l.01 3.84 47.84 27.8-.01-3.84-47.84-27.8z"/><path class="cls-1" d="M100.6 257.44l.01 3.84 80.75-47.07-.01-3.84-80.75 47.07z"/><path class="cls-20" d="M52.8 229.66l47.83 27.8 80.75-47.06-47.83-27.8-80.75 47.06z"/></g><path fill="#48257c" d="M127.78 209.61l10.43-5.84 7.31 6.07-17.74-.23z" opacity=".3"/><g class="cls-6"><path class="cls-5" d="M152.85 215.22l-.15.59-39.1 22.34.15-.6 39.1-22.33z"/><path class="cls-14" d="M113.75 237.55l-.15.6-15.28-12.29.16-1.46 15.27 13.15z"/><path class="cls-33" d="M152.85 215.22l-39.1 22.33-15.27-13.15 39.09-22.34 15.28 13.16z"/></g><g class="cls-6"><path class="cls-13" d="M139.01 203.62l-.1.39-2.09 1.19.1-.39 2.09-1.19z"/><path class="cls-14" d="M136.92 204.81l-.1.39-1.1-.95.09-.4 1.11.96z"/><path class="cls-5" d="M139.01 203.62l-2.09 1.19-1.11-.96 2.09-1.19 1.11.96z"/></g><g class="cls-6"><path class="cls-13" d="M141.8 206.2l-.1.4-2.08 1.19.1-.39 2.08-1.2z"/><path class="cls-14" d="M139.72 207.4l-.1.39-2.03-1.75.1-.39 2.03 1.75z"/><path class="cls-5" d="M141.8 206.2l-2.08 1.2-2.03-1.75 2.08-1.19 2.03 1.74z"/></g><g class="cls-6"><path class="cls-13" d="M136.38 205.12l-.1.39-2.09 1.2.1-.4 2.09-1.19z"/><path class="cls-14" d="M134.29 206.31l-.1.4-1.1-.96.09-.39 1.11.95z"/><path class="cls-5" d="M136.38 205.12l-2.09 1.19-1.11-.95 2.09-1.2 1.11.96z"/></g><g class="cls-6"><path class="cls-13" d="M139.27 207.65l-.1.39-2.08 1.2.1-.4 2.08-1.19z"/><path class="cls-14" d="M137.19 208.84l-.1.4-2.03-1.75.1-.4 2.03 1.75z"/><path class="cls-5" d="M139.27 207.65l-2.08 1.19-2.03-1.75 2.08-1.19 2.03 1.75z"/></g><g class="cls-6"><path class="cls-13" d="M133.75 206.62l-.1.4-2.09 1.19.1-.4 2.09-1.19z"/><path class="cls-14" d="M131.66 207.81l-.1.4-1.11-.95.1-.4 1.11.95z"/><path class="cls-5" d="M133.75 206.62l-2.09 1.19-1.11-.95 2.09-1.19 1.11.95z"/></g><g class="cls-6"><path class="cls-13" d="M136.74 209.09l-.09.4-2.09 1.19.1-.4 2.08-1.19z"/><path class="cls-14" d="M134.66 210.28l-.1.4-2.03-1.75.1-.39 2.03 1.74z"/><path class="cls-5" d="M136.74 209.09l-2.08 1.19-2.03-1.74 2.08-1.2 2.03 1.75z"/></g><g class="cls-6"><path class="cls-13" d="M131.11 208.13l-.09.39-2.09 1.19.1-.39 2.08-1.19z"/><path class="cls-14" d="M129.03 209.32l-.1.39-1.11-.95.1-.4 1.11.96z"/><path class="cls-5" d="M131.11 208.13l-2.08 1.19-1.11-.96 2.09-1.19 1.1.96z"/></g><g class="cls-6"><path class="cls-13" d="M134.21 210.54l-.09.39-2.09 1.2.1-.4 2.08-1.19z"/><path class="cls-14" d="M132.13 211.73l-.1.4-2.03-1.75.1-.4 2.03 1.75z"/><path class="cls-5" d="M134.21 210.54l-2.08 1.19-2.03-1.75 2.08-1.19 2.03 1.75z"/></g><g class="cls-6"><path class="cls-13" d="M131.69 211.98l-.1.4-2.09 1.19.1-.39 2.09-1.2z"/><path class="cls-14" d="M129.6 213.18l-.1.39-2.03-1.75.1-.39 2.03 1.75z"/><path class="cls-5" d="M131.69 211.98l-2.09 1.2-2.03-1.75 2.08-1.2 2.04 1.75z"/></g><g class="cls-6"><path class="cls-13" d="M127.17 210.38l-.1.4-2.09 1.19.1-.4 2.09-1.19z"/><path class="cls-14" d="M125.08 211.57l-.1.4-1.11-.96.1-.39 1.11.95z"/><path class="cls-5" d="M127.17 210.38l-2.09 1.19-1.11-.95 2.09-1.19 1.11.95z"/></g><g class="cls-6"><path class="cls-13" d="M129.16 213.43l-.1.39-2.09 1.19.1-.39 2.09-1.19z"/><path class="cls-14" d="M127.07 214.62l-.1.39-2.03-1.74.1-.4 2.03 1.75z"/><path class="cls-5" d="M129.16 213.43l-2.09 1.19-2.03-1.75 2.08-1.19 2.04 1.75z"/></g><g class="cls-6"><path class="cls-13" d="M124.54 211.88l-.1.4-2.09 1.19.1-.39 2.09-1.2z"/><path class="cls-14" d="M122.45 213.08l-.1.39-1.11-.95.1-.4 1.11.96z"/><path class="cls-5" d="M124.54 211.88l-2.09 1.2-1.11-.96 2.09-1.19 1.11.95z"/></g><g class="cls-6"><path class="cls-13" d="M126.63 214.87l-.1.4-2.09 1.19.1-.4 2.09-1.19z"/><path class="cls-14" d="M124.54 216.06l-.1.4-2.03-1.75.1-.39 2.03 1.74z"/><path class="cls-5" d="M126.63 214.87l-2.09 1.19-2.03-1.74 2.08-1.2 2.04 1.75z"/></g><g class="cls-6"><path class="cls-13" d="M121.9 213.39l-.09.39-2.09 1.19.1-.39 2.08-1.19z"/><path class="cls-14" d="M119.82 214.58l-.1.39-1.11-.95.1-.39 1.11.95z"/><path class="cls-5" d="M121.9 213.39l-2.08 1.19-1.11-.95 2.09-1.2 1.1.96z"/></g><g class="cls-6"><path class="cls-13" d="M124.1 216.32l-.1.39-2.09 1.2.1-.4 2.09-1.19z"/><path class="cls-14" d="M122.01 217.51l-.1.4-2.03-1.75.1-.4 2.03 1.75z"/><path class="cls-5" d="M124.1 216.32l-2.09 1.19-2.03-1.75 2.09-1.19 2.03 1.75z"/></g><g class="cls-6"><path class="cls-13" d="M119.27 214.89l-.1.4-2.08 1.19.1-.4 2.08-1.19z"/><path class="cls-14" d="M117.19 216.08l-.1.4-1.11-.96.1-.39 1.11.95z"/><path class="cls-5" d="M119.27 214.89l-2.08 1.19-1.11-.95 2.08-1.19 1.11.95z"/></g><g class="cls-6"><path class="cls-13" d="M121.57 217.76l-.1.4-2.09 1.19.1-.39 2.09-1.2z"/><path class="cls-14" d="M119.48 218.96l-.1.39-2.03-1.75.1-.39 2.03 1.75z"/><path class="cls-5" d="M121.57 217.76l-2.09 1.2-2.03-1.75 2.09-1.2 2.03 1.75z"/></g><g class="cls-6"><path class="cls-13" d="M115.32 217.15l-.1.39-2.08 1.19.1-.39 2.08-1.19z"/><path class="cls-14" d="M113.24 218.34l-.1.39-1.11-.95.1-.4 1.11.96z"/><path class="cls-5" d="M115.32 217.15l-2.08 1.19-1.11-.96 2.09-1.19 1.1.96z"/></g><g class="cls-6"><path class="cls-13" d="M119.04 219.21l-.1.39-2.09 1.19.1-.39 2.09-1.19z"/><path class="cls-14" d="M116.95 220.4l-.1.39-2.03-1.74.1-.4 2.03 1.75z"/><path class="cls-5" d="M119.04 219.21l-2.09 1.19-2.03-1.75 2.09-1.19 2.03 1.75z"/></g><g class="cls-6"><path class="cls-13" d="M112.69 218.65l-.1.39-2.08 1.2.1-.4 2.08-1.19z"/><path class="cls-14" d="M110.61 219.84l-.1.4-1.11-.96.1-.39 1.11.95z"/><path class="cls-5" d="M112.69 218.65l-2.08 1.19-1.11-.95 2.08-1.2 1.11.96z"/></g><g class="cls-6"><path class="cls-13" d="M116.51 220.65l-.1.4-2.09 1.19.1-.4 2.09-1.19z"/><path class="cls-14" d="M114.42 221.84l-.1.4-2.03-1.75.1-.4 2.03 1.75z"/><path class="cls-5" d="M116.51 220.65l-2.09 1.19-2.03-1.75 2.09-1.19 2.03 1.75z"/></g><g class="cls-6"><path class="cls-13" d="M110.06 220.15l-.1.4-2.08 1.19.09-.4 2.09-1.19z"/><path class="cls-14" d="M107.97 221.34l-.09.4-1.11-.95.09-.4 1.11.95z"/><path class="cls-5" d="M110.06 220.15l-2.09 1.19-1.11-.95 2.09-1.19 1.11.95z"/></g><g class="cls-6"><path class="cls-13" d="M113.98 222.1l-.1.39-2.09 1.2.1-.4 2.09-1.19z"/><path class="cls-14" d="M111.89 223.29l-.1.4-2.03-1.75.1-.4 2.03 1.75z"/><path class="cls-5" d="M113.98 222.1l-2.09 1.19-2.03-1.75 2.09-1.19 2.03 1.75z"/></g><g class="cls-6"><path class="cls-13" d="M107.43 221.66l-.1.39-2.09 1.19.1-.39 2.09-1.19z"/><path class="cls-14" d="M105.34 222.85l-.1.39-1.11-.95.1-.4 1.11.96z"/><path class="cls-5" d="M107.43 221.66l-2.09 1.19-1.11-.96 2.09-1.19 1.11.96z"/></g><g class="cls-6"><path class="cls-13" d="M111.45 223.54l-.1.4-2.09 1.19.1-.4 2.09-1.19z"/><path class="cls-14" d="M109.36 224.73l-.1.4-2.03-1.75.1-.39 2.03 1.74z"/><path class="cls-5" d="M111.45 223.54l-2.09 1.19-2.03-1.74 2.09-1.2 2.03 1.75z"/></g><g class="cls-6"><path class="cls-13" d="M108.92 224.99l-.1.39-2.09 1.19.1-.39 2.09-1.19z"/><path class="cls-14" d="M106.83 226.18l-.1.39-2.03-1.74.1-.4 2.03 1.75z"/><path class="cls-5" d="M108.92 224.99l-2.09 1.19-2.03-1.75 2.09-1.19 2.03 1.75z"/></g><g class="cls-6"><path class="cls-13" d="M103.47 223.92l-.1.39-2.09 1.19.1-.39 2.09-1.19z"/><path class="cls-14" d="M101.38 225.11l-.1.39-1.1-.95.1-.39 1.1.95z"/><path class="cls-5" d="M103.47 223.92l-2.09 1.19-1.1-.95 2.08-1.2 1.11.96z"/></g><g class="cls-6"><path class="cls-13" d="M106.39 226.43l-.1.4-2.09 1.19.1-.4 2.09-1.19z"/><path class="cls-14" d="M104.3 227.62l-.1.4-2.03-1.75.1-.39 2.03 1.74z"/><path class="cls-5" d="M106.39 226.43l-2.09 1.19-2.03-1.74 2.09-1.2 2.03 1.75z"/></g><g class="cls-6"><path class="cls-13" d="M142.14 209.48l-.1.4-1.26.72.09-.39 1.27-.73z"/><path class="cls-14" d="M140.87 210.21l-.09.39-2.04-1.75.1-.39 2.03 1.75z"/><path class="cls-13" d="M146.65 210.38l-.1.39-2.09 1.19.1-.39 2.09-1.19z"/><path class="cls-5" d="M146.65 210.38l-2.09 1.19-2.42-2.09-1.27.73-2.03-1.75 3.35-1.92.72.61 1.31 1.14 2.43 2.09z"/><path class="cls-14" d="M144.56 211.57l-.1.39-2.42-2.08.1-.4 2.42 2.09zm-6.22.08l-.09.39-2.03-1.74.09-.4 2.03 1.75z"/><path class="cls-13" d="M140.43 210.46l-.1.39-2.08 1.19.09-.39 2.09-1.19z"/><path class="cls-5" d="M140.43 210.46l-2.09 1.19-2.03-1.75 2.09-1.19 2.03 1.75z"/><path class="cls-13" d="M144.12 211.82l-.1.4-2.09 1.19.1-.4 2.09-1.19z"/><path class="cls-5" d="M144.12 211.82l-2.09 1.19-2.03-1.75 2.09-1.19 2.03 1.75z"/><path class="cls-14" d="M142.03 213.01l-.1.4-2.03-1.75.1-.4 2.03 1.75z"/></g><g class="cls-6"><path class="cls-13" d="M137.9 211.9l-.1.4-2.08 1.19.09-.4 2.09-1.19z"/><path class="cls-14" d="M135.81 213.09l-.09.4-2.03-1.75.09-.4 2.03 1.75z"/><path class="cls-5" d="M137.9 211.9l-2.09 1.19-2.03-1.75 2.09-1.19 2.03 1.75z"/></g><g class="cls-6"><path class="cls-13" d="M135.37 213.35l-.1.39-2.08 1.2.09-.4 2.09-1.19z"/><path class="cls-14" d="M133.28 214.54l-.09.4-2.03-1.75.09-.4 2.03 1.75z"/><path class="cls-5" d="M135.37 213.35l-2.09 1.19-2.03-1.75 2.09-1.19 2.03 1.75z"/></g><g class="cls-6"><path class="cls-13" d="M132.84 214.79l-.1.4-2.08 1.19.1-.4 2.08-1.19z"/><path class="cls-14" d="M130.76 215.98l-.1.4-2.03-1.75.09-.39 2.04 1.74z"/><path class="cls-5" d="M132.84 214.79l-2.08 1.19-2.04-1.74 2.09-1.2 2.03 1.75z"/></g><g class="cls-6"><path class="cls-13" d="M130.31 216.24l-.09.39-2.09 1.19.1-.39 2.08-1.19z"/><path class="cls-14" d="M128.23 217.43l-.1.39-2.03-1.75.1-.39 2.03 1.75z"/><path class="cls-5" d="M130.31 216.24l-2.08 1.19-2.03-1.75 2.08-1.19 2.03 1.75z"/></g><g class="cls-6"><path class="cls-13" d="M141.59 213.27l-.1.39-2.09 1.19.1-.39 2.09-1.19z"/><path class="cls-14" d="M139.5 214.46l-.1.39-2.03-1.75.1-.39 2.03 1.75z"/><path class="cls-5" d="M141.59 213.27l-2.09 1.19-2.03-1.75 2.09-1.19 2.03 1.75z"/></g><g class="cls-6"><path class="cls-13" d="M139.06 214.71l-.1.4-2.09 1.19.1-.4 2.09-1.19z"/><path class="cls-14" d="M136.97 215.9l-.1.4-2.03-1.75.1-.39 2.03 1.74z"/><path class="cls-5" d="M139.06 214.71l-2.09 1.19-2.03-1.74 2.09-1.2 2.03 1.75z"/></g><g class="cls-6"><path class="cls-13" d="M136.53 216.16l-.1.39-2.09 1.19.1-.39 2.09-1.19z"/><path class="cls-14" d="M134.44 217.35l-.1.39-2.03-1.74.1-.4 2.03 1.75z"/><path class="cls-5" d="M136.53 216.16l-2.09 1.19-2.03-1.75 2.09-1.19 2.03 1.75z"/></g><g class="cls-6"><path class="cls-13" d="M134 217.6l-.1.4-2.09 1.19.1-.4 2.09-1.19z"/><path class="cls-14" d="M131.91 218.79l-.1.4-2.03-1.75.1-.4 2.03 1.75z"/><path class="cls-5" d="M134 217.6l-2.09 1.19-2.03-1.75 2.09-1.19 2.03 1.75z"/></g><g class="cls-6"><path class="cls-13" d="M127.78 217.68l-.09.4-2.09 1.19.1-.4 2.08-1.19z"/><path class="cls-14" d="M125.7 218.87l-.1.4-2.03-1.75.1-.39 2.03 1.74z"/><path class="cls-5" d="M127.78 217.68l-2.08 1.19-2.03-1.74 2.08-1.2 2.03 1.75z"/></g><g class="cls-6"><path class="cls-13" d="M131.47 219.05l-.1.39-2.08 1.19.09-.39 2.09-1.19z"/><path class="cls-14" d="M129.38 220.24l-.09.39-2.04-1.75.1-.39 2.03 1.75z"/><path class="cls-5" d="M131.47 219.05l-2.09 1.19-2.03-1.75 2.09-1.19 2.03 1.75z"/></g><g class="cls-6"><path class="cls-13" d="M125.25 219.13l-.09.39-2.09 1.19.1-.39 2.08-1.19z"/><path class="cls-14" d="M123.17 220.32l-.1.39-2.03-1.74.1-.4 2.03 1.75z"/><path class="cls-5" d="M125.25 219.13l-2.08 1.19-2.03-1.75 2.08-1.19 2.03 1.75z"/></g><g class="cls-6"><path class="cls-13" d="M128.94 220.49l-.1.4-2.08 1.19.1-.4 2.08-1.19z"/><path class="cls-14" d="M126.86 221.68l-.1.4-2.03-1.75.1-.4 2.03 1.75z"/><path class="cls-5" d="M128.94 220.49l-2.08 1.19-2.03-1.75 2.08-1.19 2.03 1.75z"/></g><g class="cls-6"><path class="cls-13" d="M122.72 220.57l-.09.4-2.09 1.19.1-.4 2.08-1.19z"/><path class="cls-14" d="M120.64 221.76l-.1.4-2.03-1.75.1-.4 2.03 1.75z"/><path class="cls-5" d="M122.72 220.57l-2.08 1.19-2.03-1.75 2.08-1.19 2.03 1.75z"/></g><g class="cls-6"><path class="cls-13" d="M126.41 221.94l-.1.39-2.08 1.19.1-.39 2.08-1.19z"/><path class="cls-14" d="M124.33 223.13l-.1.39-2.03-1.75.1-.39 2.03 1.75z"/><path class="cls-5" d="M126.41 221.94l-2.08 1.19-2.03-1.75 2.08-1.19 2.03 1.75z"/></g><g class="cls-6"><path class="cls-13" d="M120.19 222.02l-.09.39-2.09 1.19.1-.39 2.08-1.19z"/><path class="cls-14" d="M118.11 223.21l-.1.39-2.03-1.75.1-.39 2.03 1.75z"/><path class="cls-5" d="M120.19 222.02l-2.08 1.19-2.03-1.75 2.09-1.19 2.02 1.75z"/></g><g class="cls-6"><path class="cls-13" d="M123.88 223.38l-.1.4-2.08 1.19.1-.4 2.08-1.19z"/><path class="cls-14" d="M121.8 224.57l-.1.4-2.03-1.75.1-.4 2.03 1.75z"/><path class="cls-5" d="M123.88 223.38l-2.08 1.19-2.03-1.75 2.08-1.19 2.03 1.75z"/></g><g class="cls-6"><path class="cls-13" d="M117.67 223.46l-.1.4-2.09 1.19.1-.4 2.09-1.19z"/><path class="cls-14" d="M115.58 224.65l-.1.4-2.03-1.75.1-.4 2.03 1.75z"/><path class="cls-5" d="M117.67 223.46l-2.09 1.19-2.03-1.75 2.09-1.19 2.03 1.75z"/></g><g class="cls-6"><path class="cls-13" d="M121.35 224.83l-.1.39-2.08 1.19.1-.39 2.08-1.19z"/><path class="cls-14" d="M119.27 226.02l-.1.39-2.03-1.75.1-.39 2.03 1.75z"/><path class="cls-5" d="M121.35 224.83l-2.08 1.19-2.03-1.75 2.08-1.19 2.03 1.75z"/></g><g class="cls-6"><path class="cls-13" d="M115.14 224.91l-.1.39-2.09 1.19.1-.39 2.09-1.19z"/><path class="cls-14" d="M113.05 226.1l-.1.39-2.03-1.74.1-.4 2.03 1.75z"/><path class="cls-5" d="M115.14 224.91l-2.09 1.19-2.03-1.75 2.09-1.19 2.03 1.75z"/></g><g class="cls-6"><path class="cls-13" d="M118.82 226.27l-.1.4-2.08 1.19.1-.4 2.08-1.19z"/><path class="cls-14" d="M116.74 227.46l-.1.4-2.03-1.75.1-.4 2.03 1.75z"/><path class="cls-5" d="M118.82 226.27l-2.08 1.19-2.03-1.75 2.08-1.19 2.03 1.75z"/></g><g class="cls-6"><path class="cls-13" d="M112.61 226.35l-.1.4-5.88 3.36.1-.4 5.88-3.36z"/><path class="cls-14" d="M106.73 229.71l-.1.4-2.03-1.75.09-.4 2.04 1.75z"/><path class="cls-5" d="M112.61 226.35l-5.88 3.36-2.04-1.75 5.89-3.36 2.03 1.75z"/></g><g class="cls-6"><path class="cls-13" d="M116.29 227.72l-.09.39-2.09 1.19.1-.39 2.08-1.19z"/><path class="cls-14" d="M114.21 228.91l-.1.39-2.03-1.75.1-.39 2.03 1.75z"/><path class="cls-5" d="M116.29 227.72l-2.08 1.19-2.03-1.75 2.08-1.19 2.03 1.75z"/></g><g class="cls-6"><path class="cls-13" d="M149.07 212.46l-.1.4-3.35 1.91.1-.39 3.35-1.92z"/><path class="cls-14" d="M145.72 214.38l-.1.39-2.03-1.74.1-.4 2.03 1.75z"/><path class="cls-5" d="M149.07 212.46l-3.35 1.92-2.03-1.75 3.35-1.91 2.03 1.74z"/></g><g class="cls-6"><path class="cls-13" d="M145.28 214.63l-.1.4-2.09 1.19.1-.4 2.09-1.19z"/><path class="cls-14" d="M143.19 215.82l-.1.4-2.03-1.75.1-.4 2.03 1.75z"/><path class="cls-5" d="M145.28 214.63l-2.09 1.19-2.03-1.75 2.09-1.19 2.03 1.75z"/></g><g class="cls-6"><path class="cls-13" d="M142.75 216.07l-.1.4-2.09 1.19.1-.39 2.09-1.2z"/><path class="cls-14" d="M140.66 217.27l-.1.39-2.03-1.75.1-.39 2.03 1.75z"/><path class="cls-5" d="M142.75 216.07l-2.09 1.2-2.03-1.75 2.09-1.19 2.03 1.74z"/></g><g class="cls-6"><path class="cls-13" d="M140.22 217.52l-.1.4-2.09 1.19.1-.4 2.09-1.19z"/><path class="cls-14" d="M138.13 218.71l-.1.4-2.03-1.75.1-.4 2.03 1.75z"/><path class="cls-5" d="M140.22 217.52l-2.09 1.19-2.03-1.75 2.09-1.19 2.03 1.75z"/></g><g class="cls-6"><path class="cls-13" d="M137.69 218.97l-.1.39-2.09 1.19.1-.39 2.09-1.19z"/><path class="cls-14" d="M135.6 220.16l-.1.39-2.03-1.75.1-.39 2.03 1.75z"/><path class="cls-5" d="M137.69 218.97l-2.09 1.19-2.03-1.75 2.09-1.19 2.03 1.75z"/></g><g class="cls-6"><path class="cls-13" d="M135.16 220.41l-.1.4-2.09 1.19.1-.4 2.09-1.19z"/><path class="cls-14" d="M133.07 221.6l-.1.4-2.03-1.75.1-.4 2.03 1.75z"/><path class="cls-5" d="M135.16 220.41l-2.09 1.19-2.03-1.75 2.09-1.19 2.03 1.75z"/></g><g class="cls-6"><path class="cls-13" d="M132.63 221.85l-.1.4-2.09 1.19.1-.39 2.09-1.2z"/><path class="cls-14" d="M130.54 223.05l-.1.39-2.03-1.75.1-.39 2.03 1.75z"/><path class="cls-5" d="M132.63 221.85l-2.09 1.2-2.03-1.75 2.09-1.19 2.03 1.74z"/></g><g class="cls-6"><path class="cls-13" d="M130.1 223.3l-.1.39-2.09 1.2.1-.4 2.09-1.19z"/><path class="cls-14" d="M128.01 224.49l-.1.4-2.03-1.75.1-.4 2.03 1.75z"/><path class="cls-5" d="M130.1 223.3l-2.09 1.19-2.03-1.75 2.09-1.19 2.03 1.75z"/></g><g class="cls-6"><path class="cls-13" d="M127.57 224.75l-.1.39-2.09 1.19.1-.39 2.09-1.19z"/><path class="cls-14" d="M125.48 225.94l-.1.39-2.03-1.75.1-.39 2.03 1.75z"/><path class="cls-5" d="M127.57 224.75l-2.09 1.19-2.03-1.75 2.09-1.19 2.03 1.75z"/></g><g class="cls-6"><path class="cls-13" d="M125.04 226.19l-.1.4-2.08 1.19.09-.4 2.09-1.19z"/><path class="cls-14" d="M122.95 227.38l-.09.4-2.03-1.75.09-.4 2.03 1.75z"/><path class="cls-5" d="M125.04 226.19l-2.09 1.19-2.03-1.75 2.09-1.19 2.03 1.75z"/></g><g class="cls-6"><path class="cls-13" d="M122.51 227.63l-.1.4-2.08 1.19.09-.39 2.09-1.2z"/><path class="cls-14" d="M120.42 228.83l-.09.39-2.03-1.75.09-.39 2.03 1.75z"/><path class="cls-5" d="M122.51 227.63l-2.09 1.2-2.03-1.75 2.09-1.19 2.03 1.74z"/></g><g class="cls-6"><path class="cls-13" d="M119.98 229.08l-.1.39-2.08 1.2.09-.4 2.09-1.19z"/><path class="cls-14" d="M117.89 230.27l-.09.4-2.03-1.75.09-.4 2.03 1.75z"/><path class="cls-5" d="M119.98 229.08l-2.09 1.19-2.03-1.75 2.09-1.19 2.03 1.75z"/></g><g class="cls-6"><path class="cls-13" d="M151.49 214.55l-.09.4-4.62 2.63.1-.39 4.61-2.64z"/><path class="cls-14" d="M146.88 217.19l-.1.39-2.03-1.75.1-.39 2.03 1.75z"/><path class="cls-5" d="M151.49 214.55l-4.61 2.64-2.03-1.75 4.61-2.64 2.03 1.75z"/></g><g class="cls-6"><path class="cls-13" d="M146.43 217.44l-.09.4-2.09 1.19.1-.4 2.08-1.19z"/><path class="cls-14" d="M144.35 218.63l-.1.4-2.03-1.75.1-.4 2.03 1.75z"/><path class="cls-5" d="M146.43 217.44l-2.08 1.19-2.03-1.75 2.08-1.19 2.03 1.75z"/></g><g class="cls-6"><path class="cls-13" d="M143.91 218.88l-.1.4-2.09 1.19.1-.39 2.09-1.2z"/><path class="cls-14" d="M141.82 220.08l-.1.39-2.03-1.75.1-.39 2.03 1.75z"/><path class="cls-5" d="M143.91 218.88l-2.09 1.2-2.03-1.75 2.08-1.19 2.04 1.74z"/></g><g class="cls-6"><path class="cls-13" d="M141.38 220.33l-.1.39-17.27 9.87.1-.4 17.27-9.86z"/><path class="cls-14" d="M124.11 230.19l-.1.4-2.03-1.75.1-.4 2.03 1.75z"/><path class="cls-5" d="M141.38 220.33l-17.27 9.86-2.03-1.75 17.26-9.86 2.04 1.75z"/></g><g class="cls-6"><path class="cls-13" d="M123.67 230.44l-.1.4-2.09 1.19.1-.39 2.09-1.2z"/><path class="cls-14" d="M121.58 231.64l-.1.39-2.03-1.75.1-.39 2.03 1.75z"/><path class="cls-5" d="M123.67 230.44l-2.09 1.2-2.03-1.75 2.09-1.2 2.03 1.75z"/></g><g class="cls-6"><path class="cls-13" d="M113.77 229.16l-.1.4-4.62 2.63.1-.39 4.62-2.64z"/><path class="cls-14" d="M109.15 231.8l-.1.39-2.03-1.75.1-.39 2.03 1.75z"/><path class="cls-5" d="M113.77 229.16l-4.62 2.64-2.03-1.75 4.61-2.64 2.04 1.75z"/></g><g class="cls-6"><path class="cls-13" d="M117.45 230.53l-.1.39-2.08 1.19.09-.39 2.09-1.19z"/><path class="cls-14" d="M115.36 231.72l-.09.39-2.03-1.75.09-.39 2.03 1.75z"/><path class="cls-5" d="M117.45 230.53l-2.09 1.19-2.03-1.75 2.09-1.19 2.03 1.75z"/></g><g class="cls-6"><path class="cls-13" d="M121.14 231.89l-.1.39-2.09 1.2.1-.4 2.09-1.19z"/><path class="cls-14" d="M119.05 233.08l-.1.4-2.03-1.75.1-.4 2.03 1.75z"/><path class="cls-5" d="M121.14 231.89l-2.09 1.19-2.03-1.75 2.09-1.19 2.03 1.75z"/></g><g class="cls-6"><path class="cls-13" d="M114.92 231.97l-.1.4-3.35 1.91.1-.4 3.35-1.91z"/><path class="cls-14" d="M111.57 233.88l-.1.4-2.03-1.75.1-.4 2.03 1.75z"/><path class="cls-5" d="M114.92 231.97l-3.35 1.91-2.03-1.75 3.35-1.91 2.03 1.75z"/></g><g class="cls-6"><path class="cls-13" d="M118.61 233.33l-.1.4-4.62 2.64.1-.4 4.62-2.64z"/><path class="cls-14" d="M113.99 235.97l-.1.4-2.03-1.75.1-.4 2.03 1.75z"/><path class="cls-5" d="M118.61 233.33l-4.62 2.64-2.03-1.75 4.62-2.63 2.03 1.74z"/></g><g class="cls-6"><path class="cls-15" d="M96.56 213.26l13.05-7.59-2.26-4.52-13.05 7.58 2.26 4.53z"/><path class="cls-16" d="M102 216.4l13.05-7.59-5.44-3.14-13.05 7.59 5.44 3.14z"/><path class="cls-26" d="M101.99 217.91l13.06-7.59v-1.51L102 216.4l-.01 1.51zm-7.69-9.18l13.05-7.58.06-19.59-13.06 7.59-.05 19.58z"/><path class="cls-16" d="M94.35 189.15l13.06-7.59-1.32-.76-13.06 7.59 1.32.76z"/><path class="cls-12" d="M93.03 188.39l-.05 20.12 2.95 5.9 6.06 3.5.01-1.51-5.44-3.14-2.26-4.53.05-19.58-1.32-.76z"/></g><g class="cls-6"><path class="cls-5" d="M243.48 180.89l2 1.18a1.65 1.65 0 00-1.66.16l-2-1.18a1.67 1.67 0 011.66-.16z" transform="translate(-117.06 -42.98)"/><g class="cls-6" clip-path="url(#clip-path-4)"><path class="cls-5" d="M243.84 182.23l-2-1.18a1.67 1.67 0 011.66-.16l2 1.18a1.65 1.65 0 00-1.66.16z" transform="translate(-117.06 -42.98)"/></g><path class="cls-5" d="M186.57 261.23l-2-1.18a1.62 1.62 0 01-.68-1.49l2 1.17a1.62 1.62 0 00.68 1.5z" transform="translate(-117.06 -42.98)"/><g class="cls-6" clip-path="url(#clip-path-5)"><path class="cls-5" d="M186.57 261.23l-2-1.18a1.62 1.62 0 01-.68-1.49l2 1.17a1.62 1.62 0 00.68 1.5z" transform="translate(-117.06 -42.98)"/></g><path class="cls-5" d="M68.83 216.76l-2.03-1.18-.11-41.3 2.02 1.18.12 41.3zm2.2-45.32l-2.02-1.18 55.74-32.18 2.03 1.17-55.75 32.19z"/><path class="cls-5" d="M185.77 218.44l-2-1.18a5.13 5.13 0 012.32-4l2 1.17a5.15 5.15 0 00-2.32 4.01z" transform="translate(-117.06 -42.98)"/><g class="cls-6" clip-path="url(#clip-path-6)"><path class="cls-5" d="M185.77 218.44l-2-1.18a5.13 5.13 0 012.32-4l2 1.17a5.15 5.15 0 00-2.32 4.01z" transform="translate(-117.06 -42.98)"/></g><path class="cls-33" d="M243.84 182.23c1.29-.74 2.33-.15 2.34 1.33l.11 41.3a5.08 5.08 0 01-2.32 4l-55.74 32.18c-1.29.75-2.34.15-2.34-1.33l-.12-41.29a5.15 5.15 0 012.33-4z" transform="translate(-117.06 -42.98)"/></g><path class="cls-33" d="M187.13 256.91v2.82a1.3 1.3 0 00.07.41 1 1 0 00.41-.15l55.74-32.19a3.86 3.86 0 001.7-2.94v-1.4z" transform="translate(-117.06 -42.98)"/><path class="cls-14" d="M245.05 223.46l-57.92 33.44v-.9l-.13-37.57a3.88 3.88 0 011.7-2.94l55.33-31.94.41-.24a1 1 0 01.41-.16 1.18 1.18 0 01.06.41z" transform="translate(-117.06 -42.98)"/><path class="cls-2" d="M244.16 223.05l-57 32.93-.16-37.55a3.86 3.86 0 011.7-2.94l55.33-31.94z" transform="translate(-117.06 -42.98)"/><path class="cls-9" d="M187.13 256l-.13-37.57a3.86 3.86 0 011.7-2.94l54.73-31.6z" transform="translate(-117.06 -42.98)"/><path class="cls-37" d="M257.26 253.05h-.07l-.23-.09c-1.67-.54-5.83-1.63-6.22.07l.27.24c-1.75 1-.42 1.33-1.3 2.15-.45.42-.49 1.43.08 1.25-.38.62-.08 1.21 1.31.88a4.8 4.8 0 013.67.84c-.07.11.68.69-.49.68-.77 0-.76-.66-2-.32-.45.13-.54.53-.22.78 4.6 3.64 7.07.14 6.9.24l.32-.2a2 2 0 001.09-.25 3.33 3.33 0 00.83-1.31c1.33-3.47-1.73-4.01-3.94-4.96z" transform="translate(-117.06 -42.98)"/><path class="cls-14" d="M261.61 254a91.33 91.33 0 0118.11 2.3c4.77 1.15 7.53 3.56 6.59 6.66-.37 1.22-1.72 2.95-3.1 3.21-1.72.33-15.17-4.39-23.5-5.7-.87-.11 1.9-6.47 1.9-6.47z" transform="translate(-117.06 -42.98)"/><path class="cls-12" d="M246 313a2.47 2.47 0 00-1 .62 4.29 4.29 0 00-1 4.29 6.22 6.22 0 002.81 3 11.55 11.55 0 003 1.37 19.07 19.07 0 015.39 2.08c.72.5 3.19 1.54 4.23.64a4.94 4.94 0 00.92-6.49c-1-1.29-1.25-.84-7.56-2.95a26.85 26.85 0 01-4.57-2.08A2.82 2.82 0 00246 313z" transform="translate(-117.06 -42.98)"/><path class="cls-15" d="M259.72 314.29c3.83-10.86 7-24.52 4-27.21a7.15 7.15 0 00-4.1-1.58c-3.64-.32-5.21 1.65-6.47 5.12-.59 1.65-2.69 12.88-4.06 20.18z" transform="translate(-117.06 -42.98)"/><path class="cls-12" d="M226 328.18a2.56 2.56 0 00-.84.86 4.25 4.25 0 00.09 4.39 6.17 6.17 0 003.43 2.2 12 12 0 003.2.61 18.75 18.75 0 015.73.7c.81.31 3.45.72 4.25-.41a5 5 0 00-.64-6.53c-1.25-1-1.42-.51-8-1a27.71 27.71 0 01-4.94-.91 2.86 2.86 0 00-2.28.09z" transform="translate(-117.06 -42.98)"/><path class="cls-15" d="M240.63 298.56c-.73 1.85-3.75 15.89-5.24 22.68-.75 3.43-4.09 9.66.79 12.75a4.8 4.8 0 003.42.63c1.5-.27 1.91-1.22 2.62-2.56 5.11-9.61 13.1-32.91 9.07-36.69a7.2 7.2 0 00-4-1.71c-3.68-.45-5.29 1.47-6.66 4.9z" transform="translate(-117.06 -42.98)"/><g class="cls-6"><path class="cls-4" d="M283.08 319.4v1.47a9.67 9.67 0 00-8.91 0v-1.47a9.71 9.71 0 018.91 0z" transform="translate(-117.06 -42.98)"/><g class="cls-6" clip-path="url(#clip-path-7)"><path class="cls-4" d="M274.66 319.15a3.62 3.62 0 00-.48.25v1.47c.16-.09.32-.18.49-.26z" transform="translate(-117.06 -42.98)"/></g><path class="cls-4" d="M157.11 276.42v1.47l-22.63 13.1.01-1.47 22.62-13.1z"/><path class="cls-4" d="M249.72 336.56v-1.46a3.19 3.19 0 011.83-2.6v1.5a3.14 3.14 0 00-1.83 2.56z" transform="translate(-117.06 -42.98)"/><g class="cls-6" clip-path="url(#clip-path-8)"><path class="cls-4" d="M251.55 332.5v1.5a3.14 3.14 0 00-1.83 2.59v-1.49a3.19 3.19 0 011.83-2.6z" transform="translate(-117.06 -42.98)"/></g><path class="cls-4" d="M249.32 339.07c-1.83-1.07-2.75-2.49-2.74-3.9v1.47c0 1.41.92 2.82 2.75 3.9l9 5.24V344z" transform="translate(-117.06 -42.98)"/><path class="cls-3" d="M251.55 332.5l22.63-13.1a3.62 3.62 0 01.48-.25v-2.09a11.19 11.19 0 00-2.62 1.09l-22.76 13.18c-3.62 2.14-3.6 5.61 0 7.74l9 4.95 2-1.17-.33-.18-8.43-4.94c-2.4-1.44-2.42-3.79.03-5.23z" transform="translate(-117.06 -42.98)"/></g><g class="cls-6"><path class="cls-3" d="M141.26 301.05l2-1.18 13.71 8.03-2 1.17-13.71-8.02z"/><g class="cls-6"><path class="cls-4" d="M276.72 351.14l-2 1.18a2.61 2.61 0 01-2.68-.27l2-1.18a2.61 2.61 0 002.68.27z" transform="translate(-117.06 -42.98)"/><g clip-path="url(#clip-path-9)"><path class="cls-3" d="M274.39 351.06a3.9 3.9 0 01-.35-.19l-2 1.18a3.9 3.9 0 00.35.19 2.45 2.45 0 002.33.08l2-1.18a2.45 2.45 0 01-2.33-.08z" transform="translate(-117.06 -42.98)"/></g></g><path class="cls-3" d="M277.79 353l-2 1.18a2.18 2.18 0 00.31-.22c1-.81 1.43-2.4 1.16-4.36l2-1.18c.27 2-.15 3.55-1.16 4.37a3.37 3.37 0 01-.31.21z" transform="translate(-117.06 -42.98)"/><g clip-path="url(#clip-path-10)"><path class="cls-3" d="M279.31 349c0-.17 0-.34-.05-.52l-2 1.18c0 .18 0 .35.05.51a4.35 4.35 0 01-1.21 3.83 2.18 2.18 0 01-.31.22l2-1.18a3.37 3.37 0 00.31-.21 4.37 4.37 0 001.21-3.83z" transform="translate(-117.06 -42.98)"/></g><path class="cls-4" d="M130.15 271.47l2-1.18 23.39 13.69-2 1.18-23.39-13.69z"/><path class="cls-3" d="M158.73 293.26l2-1.18 1.46 13.38-2 1.18-1.46-13.38z"/><g class="cls-6"><path class="cls-3" d="M270.6 328.14l2-1.18a11.93 11.93 0 015.19 8.1l-2 1.18a11.93 11.93 0 00-5.19-8.1z" transform="translate(-117.06 -42.98)"/><g class="cls-6" clip-path="url(#clip-path-11)"><path class="cls-3" d="M270.6 328.14l2-1.18a9.21 9.21 0 012.31 2l-2 1.18a9.21 9.21 0 00-2.31-2z" transform="translate(-117.06 -42.98)"/><path class="cls-3" d="M272.91 330.11l2-1.18a12.92 12.92 0 012 3.26l-2 1.18a12.74 12.74 0 00-2-3.26zm2.09 3.26l2-1.18a10.89 10.89 0 01.83 2.87l-2 1.18a11.7 11.7 0 00-.83-2.87z" transform="translate(-117.06 -42.98)"/></g></g><path class="cls-4" d="M270.6 328.14a11.93 11.93 0 015.19 8.1l1.47 13.37c.27 2-.15 3.55-1.16 4.36s-2.5.76-4.07-.16l-13.71-8V344l13.72 8a2.5 2.5 0 002.9.12 3.35 3.35 0 00.83-3.13l-1.47-13.37a8.54 8.54 0 00-3.7-5.77l-23.39-13.7v-1.76z" transform="translate(-117.06 -42.98)"/></g><g class="cls-6"><path class="cls-3" d="M159.34 280.08l2-1.18 22.21 13.03-2 1.17-22.21-13.02z"/><g class="cls-6"><path class="cls-4" d="M303.3 335.17l-2 1.18a2.66 2.66 0 01-2.69-.27l2-1.18a2.63 2.63 0 002.69.27z" transform="translate(-117.06 -42.98)"/><g clip-path="url(#clip-path-12)"><path class="cls-3" d="M301 335.09l-.35-.19-2 1.18.35.19a2.47 2.47 0 002.34.08l2-1.18a2.47 2.47 0 01-2.34-.08z" transform="translate(-117.06 -42.98)"/></g></g><path class="cls-3" d="M304.37 337l-2 1.18a3.3 3.3 0 00.3-.22c1-.81 1.43-2.4 1.16-4.36l2-1.18c.27 2-.16 3.55-1.16 4.36z" transform="translate(-117.06 -42.98)"/><g clip-path="url(#clip-path-13)"><path class="cls-3" d="M305.89 333c0-.16 0-.33-.05-.51l-2 1.18a4.7 4.7 0 01.06.51 4.36 4.36 0 01-1.22 3.85 3.3 3.3 0 01-.3.22l2-1.18.31-.22a4.35 4.35 0 001.2-3.85z" transform="translate(-117.06 -42.98)"/></g><path class="cls-4" d="M156.73 255.5l2-1.18 23.39 13.69-2.01 1.18-23.38-13.69z"/><path class="cls-3" d="M185.3 277.29l2-1.18 1.47 13.38-2 1.17-1.47-13.37z"/><g class="cls-6"><path class="cls-3" d="M297.18 312.16l2-1.17a11.93 11.93 0 015.19 8.1l-2 1.18a12 12 0 00-5.19-8.11z" transform="translate(-117.06 -42.98)"/><g class="cls-6" clip-path="url(#clip-path-14)"><path class="cls-4" d="M297.18 312.16l2-1.17a9.39 9.39 0 012.31 2l-2 1.18a9.66 9.66 0 00-2.31-2.01z" transform="translate(-117.06 -42.98)"/><path class="cls-3" d="M299.49 314.14l2-1.18a12.71 12.71 0 012 3.26l-2 1.18a12.71 12.71 0 00-2-3.26zm2.04 3.26l2-1.18a11.31 11.31 0 01.84 2.87l-2 1.18a11.31 11.31 0 00-.84-2.87z" transform="translate(-117.06 -42.98)"/></g></g><path class="cls-4" d="M297.18 312.16a12 12 0 015.19 8.11l1.46 13.37c.27 2-.15 3.55-1.16 4.36s-2.49.76-4.06-.16l-22.22-13v-1.76l22.21 13a2.52 2.52 0 002.91.12 3.35 3.35 0 00.82-3.13l-1.46-13.38a8.6 8.6 0 00-3.71-5.77l-23.39-13.69v-1.76z" transform="translate(-117.06 -42.98)"/></g><g class="cls-6"><path class="cls-46" d="M130.15 268.23l.01 3.24L157 287.29l-.01-3.24-26.84-15.82z"/><path class="cls-47" d="M130.15 268.23l26.84 15.82 28.11-16.49-26.84-15.82-28.11 16.49z"/></g><path class="cls-15" d="M278.47 292.17c-1.7-.8-3.39-1.66-5.08-2.49a49.82 49.82 0 00-10.16-3.94 10.76 10.76 0 00-5.82-.06c-4.31 1.42-4.37 6.31-2.48 9.81 1.78 3.28 9.9 5.75 21.07 14.31 1 .75 1.94 1.53 2.95 2.24.27.2.62.5 1 .73.84-6.5 1.47-13 2-19.61a8.41 8.41 0 01-3.48-.99z" transform="translate(-117.06 -42.98)"/><path d="M289.64 296.89a7.88 7.88 0 00-6.41-2.5 15 15 0 00-6.68 2.27 22.48 22.48 0 01-3.49 1.86 5.37 5.37 0 01-1.52.32c0 6.62-.12 13.16-.42 19.72a2.12 2.12 0 00.62.25 3.41 3.41 0 001.44-.48c2.06-.89 3.94-2.19 6.09-2.85a9.26 9.26 0 011-.25 3.34 3.34 0 011.54 0 4.56 4.56 0 01.82.34c1.65.84 3.13 1.51 4.89.95 10.01-3.17 5.99-15.09 2.12-19.63z" transform="translate(-117.06 -42.98)" fill="#1a1e23"/><path class="cls-15" d="M288.18 305.69c0 4.28-2.49 7.29-3.61 10.72a4.62 4.62 0 003 .1h.08c.86-3.51.53-7.15.53-10.82z" transform="translate(-117.06 -42.98)"/><path class="cls-15" d="M284 318.36a10 10 0 01-2.05 1.56 11.11 11.11 0 01-8 .95 19.55 19.55 0 01-4.19-1.49 46 46 0 01-5-3c-11.83-7.58-20.13-9.36-22.17-12.48-2.18-3.32-2.51-8.2 1.67-10a10.74 10.74 0 015.79-.44 49 49 0 0110.45 3.08c1.76.68 3.51 1.39 5.27 2.05a7 7 0 005.23.41 22.44 22.44 0 003.48-1.87 17.45 17.45 0 014.63-1.95 3.24 3.24 0 012.08.18 7.35 7.35 0 012.19 1.17c5 3.79 6.51 16.16.62 21.83z" transform="translate(-117.06 -42.98)"/><path class="cls-10" d="M290.54 293.87c-.21 1.64-.36 3.31-.42 5 .08-1.7.22-3.36.42-5z" transform="translate(-117.06 -42.98)"/><path class="cls-3" d="M292.34 295.47a37.2 37.2 0 01-.87-3.9c-.34-2.34.84-10.47 1.2-11.79 2.62-9.65 6.05-13.28 4.21-21.58-.52-2.3-3.47-5.42-11.53-2.7a110.55 110.55 0 00-17.1 7.41 5.75 5.75 0 00-3.42 4.54c-.54 3 .64 36.16.89 37.32 1.73 8.31 22.83 11.17 28.09 1.55 1.36-2.49-.08-4.52-1.07-9.14-.12-.57-.26-1.18-.4-1.71z" transform="translate(-117.06 -42.98)"/><path class="cls-37" d="M289 258.6c.19 5.84-13 6.35-12.89.86.21-7.65.67-8.53 4.25-9.71a10.32 10.32 0 013.05-.6c3.78-.06 3.86.56 4.17 1.88.98 3.97 1.42 5.47 1.42 7.57z" transform="translate(-117.06 -42.98)"/><path class="cls-37" d="M288.59 255.18c-.23-1.06-.55-2.35-1-4.15-.31-1.32-.39-1.94-4.17-1.88a10.32 10.32 0 00-3.05.6c-3.38 1.11-4 2-4.21 8.49 1.82.8 3.64 1.75 5.46 1.75a10.08 10.08 0 006.97-4.81z" transform="translate(-117.06 -42.98)"/><path class="cls-37" d="M270.78 237.29a5.77 5.77 0 00-1.15 2.86c-.21 2.4.89 4.78.52 7.17s.93 7.44 5.45 8.49c2.28.53 6.67-.53 8-1.31 1.86-1.05 3-3 4-4.9 8.45-15.52-11-20.47-16.82-12.31z" transform="translate(-117.06 -42.98)"/><path class="cls-15" d="M289.41 233.18a5.78 5.78 0 00-1.75-1.09 1.5 1.5 0 01-.58-.32 2 2 0 01-.27-.44 3.56 3.56 0 00-1.69-1.44c-2.56-1.24-5.57-1.12-8.34-.54a11.17 11.17 0 00-2.73.88 9.73 9.73 0 00-2.58 2c-1.41 1.49-3.05 3.76-2.83 5.94a2.94 2.94 0 00.6 1.26 6.61 6.61 0 00.69.8 13.89 13.89 0 011.68 3.22 2.5 2.5 0 00.88 1.18c.83.49 1.9-.11 2.83.12a2.22 2.22 0 011.3 1 6.81 6.81 0 01.67 1.57 17.09 17.09 0 01.51 2.42 4.4 4.4 0 001.1 2.39c1.44 1.39 4 1.15 5.75.64a8.41 8.41 0 001.83-.69 9.08 9.08 0 002.94-3.4 13.88 13.88 0 001.78-3.68 13 13 0 00.3-2.33c.24-3.21.32-7.27-2.09-9.49z" transform="translate(-117.06 -42.98)"/><path class="cls-37" d="M276.35 244c1.78-.12 2.24 2.12 1 3.86a9.38 9.38 0 01-1.45 1.36c-3.2 2.76-4-.23-3-1.17 2.38-2.18 1.21-3.9 3.45-4.05z" transform="translate(-117.06 -42.98)"/><path class="cls-10" d="M275.81 247.41c.21-.19 2.24-1.41.85-2.24-.38-.23-.81.11-.87.53v.64a.93.93 0 01-.14.36c-.18.3-.79.58-.67 1s.71-.18.83-.29z" transform="translate(-117.06 -42.98)"/><g class="cls-6"><path class="cls-46" d="M154.97 230.44l.04 52.44 1.98 1.17-.05-52.44-1.97-1.17zm1.97 1.17l28.21-16.51.04 52.44-.09.05.01 3.21L157 287.29l-.01-3.24-.05-52.44z"/><path class="cls-47" d="M154.97 230.44l1.97 1.17 28.21-16.51-1.98-1.17-28.2 16.51z"/></g><path class="cls-37" d="M239 266.19c-.24-.14-.43-.25-.43-.22.13.87.26 1.75.38 2.63.05.29 0 .71-.31.72a.53.53 0 01-.37-.24 11 11 0 01-1.67-2.63c-.23-.51-.5-1.1-1-1.23s-1.14.4-1.54.88a3.13 3.13 0 00-1 2.63c.24 1 .92 1.89 1.08 3a4.32 4.32 0 01-2-2.47c-.08-.19-.22-.42-.42-.38a.3.3 0 00-.22.26.87.87 0 00.05.36 9.17 9.17 0 001.57 3 11.91 11.91 0 003 3.11 36.19 36.19 0 014.21 2.79c2.22 2 .11-3.77 1.05-4.68.22-.21 1.68 1.17 1.74.84s-1.43-2.53-1.58-2.87c-.49-1.16-.76-2.44-1.16-3.64a4.78 4.78 0 00-.54-1.37 5.14 5.14 0 00-.84-.49z" transform="translate(-117.06 -42.98)"/><path class="cls-5" d="M238.13 277.53c-.07-.56 3.87-5.6 5.3-3.81 2 2.52 10.89 5.29 12.37 4.54 3-1.53 3.73-3.71 5-6.67.36-.86 4.87-12.16 11.37-8.32a4.54 4.54 0 01.79.49c5.49 4.89-.94 12-3.84 16.28-1.26 1.88-6 6.39-9.81 7.72s-8.85.35-13.86-3.36c-1.86-1.34-7.07-4.89-7.32-6.87z" transform="translate(-117.06 -42.98)"/></g></g></svg>