<svg xmlns="http://www.w3.org/2000/svg" viewBox="0 0 856.83 949.2"><defs><clipPath id="clip-path" transform="translate(-71.59 -25.4)"><path class="cls-1" d="M546.91 865.28L273.39 706.33l120.25-69.43 273.52 158.95-120.25 69.43z"/></clipPath><clipPath id="clip-path-2" transform="translate(-71.59 -25.4)"><path class="cls-1" d="M719.66 704.91L446.15 545.96l-.56-194.85 273.52 158.95.55 194.85z"/></clipPath><clipPath id="clip-path-3" transform="translate(-71.59 -25.4)"><path d="M290.06 333.52c-.59 7.38 6.13 16.8 7.45 23-1.53 2.52-10.15.92-13.11.76-6.22-1.49-10.08-4.46-11.33-9.06 1.85-6.21-.66-15 1-22.93z" clip-rule="evenodd" fill="#fdafae"/></clipPath><clipPath id="clip-path-4" transform="translate(-71.59 -25.4)"><path class="cls-3" d="M293.39 340.93c6.42-.73 15.44-2.54 20.1 2.33 8.31 7.89 12.81 33.46 29.73 49l48.89 10.84.13 14.55c-17.39 1.69-72.07-1-81.95-25.13l-16.9-51.57z"/></clipPath><clipPath id="clip-path-5" transform="translate(-71.59 -25.4)"><path class="cls-3" d="M260.42 350.54c3.91-3.84 8.12-5.47 13.37-8l16.06 14.35s.38-11.33 1.23-16.56c6.14.16 21.36-1.37 24.3 6.47 2 5.36 9.88 17.23 9.19 27.86-.62 9.59-9.68 17.73-10.58 26.75 0 0 8.3 41.75 7.94 42.3-9.79 15.36-63.1 14.69-62.66 4.21L270 412.36l-5.5-20.61-4.12-41.21z"/></clipPath><clipPath id="clip-path-6" transform="translate(-71.59 -25.4)"><path class="cls-3" d="M244.94 381.61c.78-8.45 1.82-26.93 16.48-31.6 8.33 4 9.89 12.46 8.24 24.73l-12.36 57.69-1.24 34c-5.78 3.91-11.78 3.53-17.86 1.37-1.92-19.53 3.83-66.5 6.74-86.22z"/></clipPath><linearGradient id="linear-gradient" x1="2914.94" y1="449.75" x2="3296.97" y2="449.75" gradientTransform="translate(-2470.09)" gradientUnits="userSpaceOnUse"><stop offset="0" stop-color="#abd1e2"/><stop offset=".55" stop-color="#8cbfd7"/><stop offset=".7" stop-color="#82b9d3"/><stop offset="1" stop-color="#2e8bb6"/></linearGradient><linearGradient id="linear-gradient-2" x1="446.47" y1="455.19" x2="802.41" y2="455.19" gradientUnits="userSpaceOnUse"><stop offset="0" stop-color="#248ecc"/><stop offset="1" stop-color="#145b9d"/></linearGradient><linearGradient id="linear-gradient-3" x1="751.42" y1="418.53" x2="676.41" y2="604.18" gradientUnits="userSpaceOnUse"><stop offset="0"/><stop offset="1" stop-color="#fff"/></linearGradient><linearGradient id="linear-gradient-4" x1="313.8" y1="817.87" x2="340.77" y2="771.15" gradientUnits="userSpaceOnUse"><stop offset="0" stop-color="gray"/><stop offset=".14" stop-color="#888"/><stop offset=".35" stop-color="#9d9d9d"/><stop offset=".61" stop-color="#bfbfbf"/><stop offset=".9" stop-color="#eee"/><stop offset="1" stop-color="#fff"/></linearGradient><style>.cls-1{fill:none}.cls-32{fill:#fdafae}.cls-3{clip-rule:evenodd}.cls-3,.cls-37{fill:#d6053f}.cls-4{isolation:isolate}.cls-31,.cls-32,.cls-37,.cls-39,.cls-41{fill-rule:evenodd}.cls-8{fill:gray}.cls-10{fill:#f2f2f2}.cls-16,.cls-41{fill:#fff}.cls-17{fill:#f65841}.cls-19{fill:#3992d8}.cls-20{fill:#004166}.cls-21{fill:#0f0}.cls-22{fill:#f2a444}.cls-24{fill:#0477bf}.cls-25{fill:#d9e8f5}.cls-26{fill:#be1e2d}.cls-28{fill:#d5e8f5}.cls-39{fill:#961d24}</style></defs><g class="cls-4"><g id="Layer_1" data-name="Layer 1"><path d="M183.13 158.9c54.77-19.43 95 38.11 176 12.46 83.46-26.42 80.39-100 154-132.58C615.85-6.74 772.68 70 853.12 176.9 968.85 344.45 969.66 700.38 723.47 894c-9 6.31-180.52 124.05-280.33 63.13-58-35.39-52.18-106.91-126.21-141.41-57.49-26.79-89.63 3-131.81-12.85C34.51 746.25 33.65 211.9 183.13 158.9z" transform="translate(-71.59 -25.4)" fill-rule="evenodd" fill="#f9dcf2"/><g id="monitor"><path style="mix-blend-mode:multiply" fill="#2e8bb6" opacity=".15" d="M594.97 728.42l108.71-62.76L555.5 580.1l-108.72 62.77 148.19 85.55z"/><g id="Computer"><g id="ground"><path fill="#b3b3b3" d="M587.71 701.35v5.09l65.37-37.75v-5.09l-4.4 2.52-60.97 35.23z"/><path class="cls-8" d="M479.33 638.77v5.09l108.38 62.58v-5.09l-103.98-60.01-4.4-2.57z"/><path fill="#e6e1e2" d="M479.33 638.77l4.4 2.57 103.98 60.01 60.97-35.23 4.4-2.52-108.33-62.59-65.42 37.76z"/></g><path class="cls-10" d="M605.11 601.67c7.75 4.51 54.3 31.38 63.11 36.47l12.23-6.92-63.12-36.46z" transform="translate(-71.59 -25.4)"/><path d="M605.11 601.67v58.08l63.11 36.41v-58c-9.09-5.28-55.11-31.83-63.11-36.49z" transform="translate(-71.59 -25.4)" fill="#ccc"/><path class="cls-8" d="M596.63 612.74v58.02l12.23-6.92v-58.02l-12.23 6.92z"/><path d="M825.21 388.42a15.72 15.72 0 00-6.17-6.54L474.13 183.15c-10-6.5-20.85 3.63-29.28 7.83a15.68 15.68 0 0115 .32L804.73 390a15.15 15.15 0 016.16 6.7 14.85 14.85 0 011.61 6.81v301.3a15.59 15.59 0 01-8 13.67l13-7.51c5.53-2.56 9.44-7.55 9.44-14.26V395.45a15.81 15.81 0 00-1.73-7.03z" transform="translate(-71.59 -25.4)" fill="url(#linear-gradient)"/><path class="cls-10" d="M812.5 403.54a15.71 15.71 0 00-7.77-13.54L459.81 191.3a15.75 15.75 0 00-21.16 5.43c-6.27 56.67-.21 255.2-2.26 309.36a15.66 15.66 0 007.84 13.52l344.89 198.76a15.61 15.61 0 0023.38-13.56c-.33-23.13.24-272.81 0-301.27z" transform="translate(-71.59 -25.4)"/><path d="M446.47 492V212.89c88.18 50.88 267.42 154.39 355.94 205.54v279.06z" transform="translate(-71.59 -25.4)" fill="url(#linear-gradient-2)"/></g></g><path style="mix-blend-mode:multiply" fill="url(#linear-gradient-3)" opacity=".2" d="M756.27 416.83v246.71l-128.45-72.17 42.37-228.78 86.08 54.24z"/><g class="cls-4"><path style="mix-blend-mode:multiply" opacity=".23" fill="url(#linear-gradient-4)" d="M272.81 641.93l-120.25 69.43 273.51 158.95 120.26-69.43-273.52-158.95z"/><g class="cls-4"><path class="cls-16" d="M718.52 718.32a82.57 82.57 0 001.14-13.41L446.15 546c-1.13 36-21.9 71.89-52.5 90.94l273.51 159c27.19-16.71 45.57-46.58 51.36-77.62z" transform="translate(-71.59 -25.4)"/><path class="cls-17" d="M680.77 698.23c-46.85-19.93-59.14 70.91-3.38 59.62-1.62-8.73-3.16-17-6.7-30.13 3.7-7.88 7.19-15.33 10.08-29.49" transform="translate(-71.59 -25.4)"/><path d="M680.77 698.23c-1.69 7.86-3.28 15.28-10.08 29.49 2.38 9.18 4.26 16.44 6.7 30.13 28.24-7.2 30.23-42.31 3.38-59.62" transform="translate(-71.59 -25.4)" fill="#ff0"/><path class="cls-19" d="M487.91 586.15c-29-15-45 22.75-39.84 40.79 7.66 28.6 60.25 25.88 58.86-9.94-14.51-.11-17.47-.15-27.29-.31 3.88-7.73 7.55-15 10.79-28.92-1.58-1.09-2.43-1.57-2.52-1.62" transform="translate(-71.59 -25.4)"/><path class="cls-17" d="M490.43 587.77c-1.81 7.4-3.68 15.06-10.79 28.92 11.48.18 13.55.21 27.29.31-.9-11.86-6.45-21.69-16.5-29.23M443.44 649c-.33-.2-.34-.41 0-.7 1.1-1 1.1-1 1.28-1 2.39-.07-.72 2.49-1.25 1.73m2.64-2.33c-2.33-1.47-6.51 3.25-2.41 3-1.35 1.14-1.35 1.14-1.51 1.19-.93.2-1.28-.61-.56-1l-.89-.52c-1.85 1.55.4 2.31 1 2.35a2.33 2.33 0 001.69-.53c3.57-3.34 4.23-2.81 2.66-4.5m4.85 2.96l-2.78-1.65-.76.69 1.9 1.1c-1.81.91-4.2 2.14-6 3l1 .56c2.06-1.18 4.94-2.15 6.72-3.72" transform="translate(-71.59 -25.4)"/><path class="cls-17" d="M375.85 628.72l-.91-.53-.81.65.92.53.8-.65"/><path class="cls-17" d="M455.5 652.3l-2.62-1.53-3 2.67.88.52c.93-.77 1.82 0 1.21.48-1.4 1.18-1.4 1.18-1.56 1.23-1 .21-1.25-.64-.51-1l-1-.45c-2 1.63.68 2.34 1 2.37 1.62.08 3.59-2.16 3.49-2.43.19-.65-1.1-1.26-1.76-1L453 652l1.73 1 .74-.68m-2.14 5.38c-.39-.25-.42-.48-.07-.79.82-.69.88-.74 1.17-.77 2.13.09-.42 2.36-1.1 1.56m2.44-2.07c-.88-.38.85-1.58 1-1.45 1.74.15-.32 2.08-1 1.45m2.21-2c-1.25-.93-3.83.34-3.42 1.83-2.48-.18-4 2.92-.88 3.23 1.46 0 3.06-1.19 2.57-2.25 1.24.15 3.72-1.55 1.73-2.81" transform="translate(-71.59 -25.4)"/><path class="cls-20" d="M588.91 644.85c-2.35 10.95-4.34 17.62-10.64 30.61-8.61 2.73-16.74 5.31-29.68 8.26 21.53 53.26 93.9-1 40.32-38.87" transform="translate(-71.59 -25.4)"/><path class="cls-21" d="M588.91 644.85c-28.4-14.73-43.53 20.83-40.32 38.87 9-2.15 16.71-4 29.68-8.26 5.26-10.94 7.91-17.61 10.64-30.61" transform="translate(-71.59 -25.4)"/><path class="cls-22" d="M544.48 709l3-1.27-2.07 1.8-.91-.53m5.2-2l-1.06-.62c-.61.3-5.49 2.13-5.75 2.73l1.76 1-1.11.91.9.52 1.11-.91.49.29.76-.64-.49-.28 3.39-3m3.64 2.15l-2.57-1.49-3 2.67.87.5c.77-.66 1.42-.11 1.4.14a.53.53 0 01-.21.33c-1.4 1.18-1.4 1.18-1.56 1.24-1 .21-1.23-.65-.5-1l-.94-.44c-2 1.63.65 2.32 1 2.35 1.58.12 3.64-2.26 3.49-2.43.19-.65-1.09-1.25-1.74-1l1.3-1.17 1.71 1 .74-.69" transform="translate(-71.59 -25.4)"/><path class="cls-22" d="M479.29 688.83l-.91-.53-.8.66.9.52.81-.65"/><path class="cls-22" d="M557.62 711.53a2.22 2.22 0 00-2.79.47l.86.5c1.06-1 1.44 0 1.43.08-.53.95-1.41 1.32-2.19.67l-.76.65c1.71.58-.29 1.79-.66 1.83-.88 0-1-.74-.31-1.1l-.94-.44c-2 1.66.65 2.35 1 2.37 1.45 0 3.07-1.23 2.54-2.28 1.21.2 3.68-1.51 1.81-2.75m-1.05 6.16c-.39-.25-.41-.47-.06-.78.82-.69.89-.75 1.17-.77 2.11.08-.46 2.34-1.11 1.55m2.45-2.07c-.87-.38.86-1.58 1-1.45 1.72.15-.35 2.07-1 1.45m2.2-2c-1.23-.92-3.79.38-3.41 1.84-2.43-.17-4 2.9-.9 3.21 1.45 0 3-1.2 2.57-2.25 1.21.14 3.69-1.56 1.74-2.8" transform="translate(-71.59 -25.4)"/><path class="cls-20" d="M643.22 761.38l-2.62-1.52-3 2.67.88.52c.94-.77 1.82 0 1.21.48-1.39 1.18-1.39 1.18-1.56 1.23-1 .21-1.25-.65-.51-1l-1-.45c-1.95 1.64.68 2.34 1 2.37 1.62.09 3.6-2.16 3.5-2.42.18-.66-1.11-1.26-1.77-1l1.3-1.16 1.74 1 .74-.69m-2.08 5.38c-.4-.25-.42-.49-.07-.79.81-.69.88-.74 1.16-.77 2.13.09-.41 2.36-1.09 1.56m2.44-2.08c-.88-.38.84-1.58 1-1.44 1.74.14-.33 2.08-1 1.44m2.21-2c-1.25-.93-3.83.35-3.43 1.83-2.48-.18-4 2.93-.87 3.24 1.46 0 3.05-1.2 2.57-2.25 1.24.15 3.72-1.55 1.73-2.82" transform="translate(-71.59 -25.4)"/><path class="cls-20" d="M572.9 743.23l-.91-.53-.8.65.91.53.8-.65"/><path class="cls-20" d="M647.2 768.69l3-1.27-2.07 1.81-.93-.54m5.24-2l-1.09-.63c-.61.3-5.52 2.11-5.77 2.71l1.79 1-1.11.92.91.53 1.12-.91.49.28.76-.64-.49-.28 3.39-3m-2.04 5.55c-.4-.25-.42-.48-.08-.79.84-.7.89-.74 1.17-.77 2.13.09-.42 2.36-1.09 1.56m2.44-2.07c-.88-.38.85-1.58 1-1.45 1.74.15-.32 2.08-1 1.45m2.21-2c-1.25-.93-3.84.34-3.43 1.83-2.49-.18-4 2.92-.87 3.23 1.45 0 3-1.2 2.57-2.25 1.23.15 3.71-1.55 1.73-2.81" transform="translate(-71.59 -25.4)"/></g><path class="cls-16" d="M322.06 611.5L201.8 680.93l273.52 158.95 120.25-69.43L322.06 611.5z"/><g clip-path="url(#clip-path)"><path class="cls-24" d="M472.58 716.45l-45.41-26.39-1.42.82 45.41 26.39 1.42-.82m-8.8 5.08l-76.92-44.7-1.42.82 76.92 44.71 1.42-.83m-9.46 5.47l-76.93-44.71-1.42.82 76.93 44.71 1.42-.82m-9.46 5.46l-76.93-44.7-1.43.82 76.93 44.7 1.43-.82m-9.46 5.46l-76.93-44.7-1.43.82 76.93 44.71 1.43-.83m125.68 29.96l-45.4-26.38-1.43.82 45.41 26.39 1.42-.83m-8.8 5.09l-76.92-44.71-1.42.82 76.92 44.71 1.42-.82m-9.46 5.46l-76.92-44.7-1.42.82 76.92 44.7 1.42-.82m-9.46 5.46l-76.92-44.7-1.43.82 76.92 44.71 1.43-.83m-9.46 5.47l-76.93-44.71-1.42.83 76.92 44.7 1.43-.82m-108.63-39.82l-45.41-26.39-1.43.83 45.42 26.39 1.42-.83m-8.8 5.08l-76.92-44.7-1.43.82 76.93 44.71 1.42-.83m-9.46 5.47l-76.93-44.71-1.42.83 76.92 44.7 1.43-.82m-9.47 5.46l-76.92-44.7-1.43.82 76.93 44.7 1.42-.82m-9.46 5.46l-76.93-44.7-1.42.82 76.93 44.71 1.42-.83m125.69 29.96l-45.41-26.38-1.42.82 45.41 26.39 1.42-.83m-8.8 5.08l-76.92-44.7-1.43.82 76.93 44.71 1.42-.83m-9.46 5.47l-76.92-44.71-1.43.83 76.92 44.7 1.43-.82m-9.47 5.46l-76.92-44.7-1.42.82 76.92 44.7 1.42-.82m-9.46 5.47l-76.92-44.71-1.42.83 76.92 44.7 1.42-.82"/><path class="cls-25" d="M436.81 686.6c-15-.26-31.83 1.41-46.14 3.26a13.83 13.83 0 00-2.13-11.32l-13.15 7.58 31 18 30.4-17.55m-2.3-2.11l-28.05-16.3-15.44 8.97c2.77 2.56 4.68 5.54 4.81 9.22a192.83 192.83 0 0138.72-1.86" transform="translate(-71.59 -25.4)"/><path class="cls-24" d="M441.06 686.73c-1.4-.06-2.82-.1-4.25-.13l-30.4 17.55-31-18 13.15-7.58c-.42-.61-.88-1.21-1.37-1.79l-16.68 9.63L406 707l35.1-20.27m0-1.53l-34.17-19.85-17.79 10.27a19.89 19.89 0 011.85 1.51l15.48-8.94c4.68 2.28 29.2 18.81 34.63 17" transform="translate(-71.59 -25.4)"/><path class="cls-25" d="M348 720.19l-26.6-.16 26.75 15.54-.15-15.38m30.34.18l-25.11-.15.14 14.57 25-14.42m-30.57-18.31L321.91 717l26 .16-.15-15.1m30.9 15.29L353 702.43l.15 14.76 25.52.16" transform="translate(-71.59 -25.4)"/><path class="cls-24" d="M352.83 699.21l-2.27-1.32-36.43 21 35.47 20.61 2.55-1.47-4 .44v-2.93L321.38 720h-4.77l1-3h4.3l25.89-14.94v-2.31l5.06-.54M386 718.5l-33-19.2v3.13l25.67 14.92h4.34l-1 3h-3.72l-25 14.42v2.56L386 718.5" transform="translate(-71.59 -25.4)"/><path class="cls-21" d="M451.46 687.62c-17.75-5.45-37.33-3.52-55.67-1.27-.41-7.57-7.79-12.36-14.45-14.74 6.19 4.13 11.28 10.62 9.33 18.25 19.17-2.38 41.15-4.7 60.79-2.24" transform="translate(-71.59 -25.4)"/><path class="cls-26" d="M353.21 720.22h-5.23c0 2.11.16 16.6.18 18.31l5.22-.57c0-2-.15-15.42-.17-17.71m-.21-21l-5.23.56c0 .94.16 16 .18 17.41h5.23c0-2.42-.16-15.91-.18-18" transform="translate(-71.59 -25.4)"/><path class="cls-26" d="M383 717.37l-65.43-.4-1 3 65.43.4 1-3" transform="translate(-71.59 -25.4)"/></g><path class="cls-16" d="M540.26 868.39a40.6 40.6 0 006.65-3.11L273.39 706.33c-7.4 4.32-17.14 7-25 2.44 2 1 273.54 159.27 275.48 159.92 5.2 2.18 11.13 1.6 16.39-.3z" transform="translate(-71.59 -25.4)"/><path class="cls-16" d="M647.52 484.66L374.01 325.71l.55 194.85 273.51 158.95-.55-194.85z"/><g clip-path="url(#clip-path-2)"><path class="cls-24" d="M630.64 491.74L400.15 357.79l.01 2.92 230.49 133.95-.01-2.92m.43 151.52L400.58 509.31l.01 2.93 230.49 133.94-.01-2.92"/><path class="cls-19" d="M465.91 431.81l-65.66-38.15.25 87.57 65.65 38.16-.24-87.58"/><path class="cls-24" d="M631.26 532.68l-86.06-50.01v2.93l86.06 50.01v-2.93m.05 18.42l-145.79-84.72.01 2.93 145.79 84.72-.01-2.93m.06 19.81l-145.79-84.72v2.93l145.79 84.72v-2.93m.05 19.82L485.63 506l.01 2.92 145.79 84.73-.01-2.92m.06 19.8l-145.79-84.72.01 2.92 145.79 84.73-.01-2.93"/></g><path class="cls-16" d="M492 273.27c-27 15.58-45.4 46.73-46.41 77.84l273.52 159c1-31.16 19.36-62.27 46.43-77.84z" transform="translate(-71.59 -25.4)"/><path class="cls-28" d="M705 461.35a96.34 96.34 0 00-7.71 24.09l5.73 3.33-5.73-3.33a94.75 94.75 0 017.71-24.09m1.38-27.16c-7.53 10.06-16.65 24.23-20.39 44.7l5.72 3.33-5.71-3.33a91.46 91.46 0 015.55-19.17 12.69 12.69 0 006.41 1.69c1.59-3.48 3.88-6.61 5.08-10.28.59-5.11 1.5-13 3.35-16.94m1.12-14.48a7.81 7.81 0 00-4.74-.72c-20.19 21.22-26.24 42.54-28 53.35l5.72 3.33-5.72-3.33a95.53 95.53 0 019.57-27.85 25.6 25.6 0 002.53 10.05 106.31 106.31 0 0122.33-32.87 3.69 3.69 0 00-1.64-2M690.67 423c-1.55.78-2.9 1.5-4.65 2.48-.38 2.06-.62 3.4-.87 5 1.61-2.27 3.82-5.26 5.52-7.46m-30.87 12.35a95.55 95.55 0 00-7.61 23.88l5.72 3.33-5.72-3.33a93.71 93.71 0 017.61-23.88m-2.42-22.01c-3.94 6-13.16 20.1-16.46 39.34l5.72 3.33-5.72-3.33a101.91 101.91 0 0116.46-39.34m-.82-19.36c-5.33 5.81-21.56 23.47-26.91 52.18l5.73 3.33-5.73-3.33a94.87 94.87 0 016.46-21.31c11.72-1.56 12.51-13 22.81-23.87.64-.43 1.05-4.29-2.36-7m-7.96-.66c-17.82 4.47-23.58 20.1-30.21 46.27l5.72 3.32-5.72-3.32c1.29-6.61 2.52-12.84 8.1-24.92.7 3.85 1.73 6.21 3.56 8.14a108.23 108.23 0 0118.55-29.49m-39.84-.64c-6.16 10.77-10.24 19.75-12.91 33.81l5.73 3.33-5.73-3.33c2.17-11 5-20.1 12.91-33.81m3.67-25.88c-15 15.9-23.88 32.79-27.84 53.14l5.72 3.33-5.72-3.29c-.28-6.12 15.12-48.43 27.6-48.2a22.87 22.87 0 00.24-4.94" transform="translate(-71.59 -25.4)"/><path class="cls-28" d="M609.13 361c-2.07-1.12-4.27-1.44-7.6-1.08-19.25 20.13-26 40.21-28.21 53.51l5.72 3.32-5.72-3.32c1.54-7.82 2.94-13.8 8.32-25.36 2.7-.64 5.1-1.84 10.31-5.13 6.19-9.8 9.78-14.27 17.45-21.76l-.27-.18m-19.56 2.76a111.84 111.84 0 00-13.92 8.17c-3.51 6-10.8 18.39-13.59 34.94l5.72 3.33-5.72-3.33c1.62-8.24 3.51-16.12 10.29-29.21.32 4.22 1.19 6.75 3 8.74a108.6 108.6 0 0114.22-22.64m-39.94 1.15c-4 7.89-7.74 16-10.11 28.87l5.72 3.32-5.72-3.32c1.61-8.2 3.49-16 10.11-28.87m3.62-27.82c-13.63 15.74-22 32.61-25 50.14l5.72 3.32-5.72-3.32c3.47-17.67 9.17-27.28 9.81-28.32 13.83-8.45 13.65-6 15.18-21.82m-3.6-9.41a9.44 9.44 0 00-3.77-1.17c-19.54 20-26.49 40.51-28.88 54.17l5.72 3.33-5.71-3.33c1.91-9.7 3.52-15.14 8.8-26.34 1 3.12 2.39 4.91 4.53 5.79 6.49-13.11 11.91-20.8 21.49-30.51a6.72 6.72 0 00-2.17-1.94m-14.07.59a63.74 63.74 0 00-9.26 4.45 89.47 89.47 0 00-1.36 9.93 104.14 104.14 0 0110.62-14.38m-46.15 11.96a93.43 93.43 0 00-6.24 20.77l5.72 3.33-5.72-3.33a93.68 93.68 0 016.24-20.81m-5.84-17.39a100.7 100.7 0 00-11.67 31.69l5.73 3.33-5.73-3.33a94.29 94.29 0 016.32-21 15.8 15.8 0 007.12.22 2.44 2.44 0 00.32-1.56 55.66 55.66 0 01-2.09-9.37" transform="translate(-71.59 -25.4)"/><path class="cls-19" d="M485.36 333.73a15.8 15.8 0 01-7.12-.22 91.94 91.94 0 00-6.32 21l5.73 3.33a93.93 93.93 0 017.71-24.09m23.95-14.08c-5 3.38-9.67 7.14-14.8 10.28-6 11.2-9 19.08-11.32 31.09l5.72 3.33c2.23-11.31 6.55-26.61 20.4-44.7m16.79-5.38a5.6 5.6 0 00-2.93-.7c-19.47 20-26.36 40.43-28.71 54l5.72 3.32c4-20.51 12.94-37.46 28-53.33a4.59 4.59 0 00-2.12-3.29m1.16 13.77c-11.74 15.14-18.17 28.92-21.5 46.07l5.73 3.33A98.52 98.52 0 01525 342.65a119.21 119.21 0 012.26-14.59m-1.47 26.28c-4.95 10.51-6.76 15.92-8.8 26.34l5.72 3.33a94.13 94.13 0 017.61-23.88c-2.73-1.1-3.85-3.67-4.53-5.79m24.65-3.13c-11.41 7.21-11.41 7.21-12.37 7.7-3.89 7.84-7.57 15.91-9.81 28.32l5.72 3.32a101.91 101.91 0 0116.46-39.34m21.71-6.29c-2.32-1.11-4.85-1.13-8.73-.06-9.94 11.35-20.49 29.12-23.9 48.92l5.72 3.32c1.44-7.33 5.83-29.62 26.91-52.18m3.13 5.81c-13.33 15.65-20.88 30.94-24.49 49.59l5.72 3.33c.86-6.23 4.84-19 8.83-26.39 5.75-10.57 10.11-13.74 9.94-26.53m-2.93 26.93c-5 9.75-8.07 17.29-10.29 29.21l5.72 3.33a93.93 93.93 0 017.57-23.8c-1.81-2-2.68-4.52-3-8.74m19.65 5.27c-5.21 3.29-7.61 4.49-10.31 5.13-3.73 8.13-6.15 13.89-8.32 25.36l5.72 3.32c2.17-11 5-20.1 12.91-33.81m26.15-12.78c-19.32 2.75-27.56 26-33.56 49.81l5.72 3.33c2.53-12.88 8.17-32.39 27.84-53.14m8.36.94l-.3-.15a102.8 102.8 0 00-30.36 55.57l5.73 3.33c7.13-42.08 36.87-53.5 24.93-58.75m2.4 15.53c-11.83 15.12-19.16 30.74-21.79 46.44l5.72 3.33a94 94 0 016.79-22.07c2.36-5.27 6.33-9.81 7.17-15.77.57-4 1.37-7.92 2.11-11.93m-2.42 28.07a94.71 94.71 0 00-8.1 24.92l5.72 3.32a92.37 92.37 0 015.94-20.1c-1.83-1.93-2.86-4.29-3.56-8.14m18.99 5.93c-4.36 2.75-6.73 3.82-9.37 4.22a94.86 94.86 0 00-6.46 21.31l5.73 3.33c1.61-8.19 3.48-16 10.1-28.86m26.15-14.73c-4.11 1.64-9.9 3.26-14.25 7.47-3.94 6-13.16 20.1-16.46 39.34l5.72 3.33a103.17 103.17 0 0125-50.14m12.71.11a9.34 9.34 0 00-3.06-1.09c-15.53 16.42-23.93 30-29.1 54.38l5.72 3.33a103.65 103.65 0 0128.88-54.17 6.28 6.28 0 00-2.44-2.45m3.24 10.61c-8.89 10.55-19.67 25.67-24.14 49.19l5.73 3.32c2.85-14.52 7.18-25 16-38.62.74-4.65 1.83-9.23 2.44-13.89m-3.33 27.88a97.34 97.34 0 00-9.57 27.85l5.72 3.33a94.7 94.7 0 016.38-21.13 25.6 25.6 0 01-2.53-10.05M698 461.41a13.07 13.07 0 01-6.41-1.69 91.84 91.84 0 00-5.59 19.17l5.72 3.33a91.08 91.08 0 016.28-20.81m16.64-4.34a78.06 78.06 0 01-9.18 3.24 95.46 95.46 0 00-8.21 25.13l5.73 3.33a98.41 98.41 0 0111.66-31.7" transform="translate(-71.59 -25.4)"/><path d="M509.11 846.6v-13.27l-273.51-159c-.59 12.87-.15 32.19 11 37.42l273.51 159c-6.76-3.93-10.97-12.29-11-24.15z" transform="translate(-71.59 -25.4)" fill="#e6e6e6"/><path class="cls-10" d="M765.54 432.22c-110.71 65.47 20.1 296.13-98.38 363.63l-120.25 69.43c-28.69 15.39-37.78-8.11-35.34-33.39l-2.5 1.44c-2.57 26.72 7.65 51.13 37.85 34.82l120.25-69.43c121.32-68.71-8.07-302 98.37-363.64z" transform="translate(-71.59 -25.4)"/><path class="cls-10" d="M166.46 647.54l-2.49 1.44 273.52 158.95 2.49-1.44-273.52-158.95z"/></g><path d="M324.6 667.09c-16.85 10.43-44.16 10.43-61 0s-16.85-27.35 0-37.78c26.16-20.73 104.54 3.11 61 37.78z" transform="translate(-71.59 -25.4)" style="mix-blend-mode:multiply" opacity=".2" fill="gray" fill-rule="evenodd"/><path class="cls-31" d="M289.11 652.54a34 34 0 018.89 12.1c1 6.82-3.09 7.09-10.74 5.42-9.07-5.92-13.12-15.9-15-26.09l-1 8.65-2.71-.49.37-12c-.51-6.84 1.37-13.87 6.76-15l2.57 2.16 10.84 25.28z" transform="translate(-71.59 -25.4)"/><path class="cls-32" d="M294.1 542.2l-6.43 42-.2 52.19a57.61 57.61 0 006.37 20.89c-12.77 3-17.65-13.83-19.28-23.85 2.53-10.34.89-20.44-1.89-32.55-5.53-19.83-3.94-37.47 1.33-57 .15-1.97 20.1-1.68 20.1-1.68z" transform="translate(-71.59 -25.4)"/><path class="cls-31" d="M310.89 642.18a34.23 34.23 0 018.9 12.1c1 6.82-3.1 7.09-10.74 5.43-9.07-5.92-13.12-15.9-15-26.09l-1 8.65-2.71-.49.38-12c-.52-6.84 1.36-13.88 6.75-15l2.58 2.16 10.83 25.27z" transform="translate(-71.59 -25.4)"/><path class="cls-32" d="M315.88 531.84l-6.42 42-.2 52.18a57.6 57.6 0 006.36 20.9c-12.76 3-17.64-13.83-19.27-23.86 2.52-10.34.89-20.43-1.9-32.54-5.53-19.83-3.94-37.47 1.33-57 .15-1.97 20.1-1.68 20.1-1.68z" transform="translate(-71.59 -25.4)"/><path class="cls-31" d="M321.93 443.67l-59.6-.88c-14.44 33.49.48 70.42 6.07 105.66l49 .26c1-34.6 11.17-70.9 4.57-105z" transform="translate(-71.59 -25.4)"/><path class="cls-32" d="M389.48 404.69l6.79-.23 4.54-1.62 15-1.23 1.5.8c2 4.38-7.5 3.65-9.65 4.46l5.73 1.5c.56.32 15.75-.84 14.11 1.24 1.48.21.87 2-.85 2.33-.6.13 2.49.36 2.49.36 4.66 3.68-5.87 3.2-7.21 3.84l4.16.48c4.14 4-11.31 2.14-12.34 2.66-.27.38 7.56-.47 6.32 2.2-.79.82-1.48.86-3.12.45l-8.69-1.34c-5.48-1.94-13.32-5.59-19.26-5.59l.46-10.28zm-99.42-71.17c-.59 7.38 6.13 16.8 7.45 23-1.53 2.52-10.15.92-13.11.76-6.22-1.49-10.08-4.46-11.33-9.06 1.85-6.21-.66-15 1-22.93z" transform="translate(-71.59 -25.4)"/><g clip-path="url(#clip-path-3)"><path d="M290.18 322.33c9.7 4.83 16.5 16.89 15.18 26.93-6.4 26.94-39.32.88-35.12-17.5 1.31-10.03 10.25-14.26 19.94-9.43z" transform="translate(-71.59 -25.4)" style="mix-blend-mode:multiply" opacity=".33" fill-rule="evenodd" fill="#fdafae"/></g><path class="cls-32" d="M296.86 289.33c9.94 7.46 9.29 40.07-.09 47.82-12.19 2-17.41-3.59-22.57-9.3l-10.2-5.66-1.14-6.8 13.6-14.73z" transform="translate(-71.59 -25.4)"/><path d="M271.94 326.72c-12.74-11.08 1.49-20.18 5.75-4.26.51 1.65-.38 1.56 1.05 2-2-4.16-.84-11.65 4.67-13.88 8.34-2.79 14.27-6.52 15.86-15.86 3.06 1.47 3.73 3.21 4.39 7.09 4.58-15.44-17-20.11-29.31-17.29a25.89 25.89 0 00-14.73 15.86c-.65 4.35 1.85 6.53 5.52 10.49-8.77 5.38-2.23 15.34 6.8 15.85z" transform="translate(-71.59 -25.4)" fill="#47362b" fill-rule="evenodd"/><path d="M274.2 327.85c-16.54-13.93.21-22.27 2.35-6.25-.09 1.94 1.77 3.55 3.32 4-8.59-22.64 16.42-11.26 19.26-31.72 3.05 1.47 3.87 5.19 4.53 9.06 6.08-16.38-16.32-22.43-29.46-19.26C262.42 289 253.79 301.52 264 312c-10.34 7.25.45 15.39 10.2 15.85z" transform="translate(-71.59 -25.4)" fill="#865946" fill-rule="evenodd"/><path class="cls-37" d="M293.39 340.93c6.42-.73 15.44-2.54 20.1 2.33 8.31 7.89 12.81 33.46 29.73 49l48.89 10.84.13 14.55c-17.39 1.69-72.07-1-81.95-25.13l-16.9-51.57z" transform="translate(-71.59 -25.4)"/><g clip-path="url(#clip-path-4)"><path class="cls-39" d="M307.31 380.4c8.79 24.7 35.84 29.82 58.93 32.74 7.5.94 23.22 3.41 31.29-1.66L386.89 432l-57.76 9.07-27.47-12.36L292 393l15.27-12.57z" transform="translate(-71.59 -25.4)"/></g><path class="cls-37" d="M260.42 350.54c3.91-3.84 8.12-5.47 13.37-8l16.06 14.35s.38-11.33 1.23-16.56c6.14.16 21.36-1.37 24.3 6.47 2 5.36 9.88 17.23 9.19 27.86-.62 9.59-9.68 17.73-10.58 26.75 0 0 8.3 41.75 7.94 42.3-9.79 15.36-63.1 14.69-62.66 4.21L270 412.36l-5.5-20.61-4.12-41.21z" transform="translate(-71.59 -25.4)"/><g clip-path="url(#clip-path-5)"><path class="cls-41" d="M199.16 312.67l10.28 23.46 21.66 22.48.62-15.91-3.62-20.98-2.88-5.41-8.72-2.58-17.34-1.06z"/><path class="cls-41" d="M267.38 338.58l8.24 28.84 6.87 1.38 1 5.49 19.19 9.62c-3.44-4.6-30.94-30.85-29.78-48.08l-5.49 2.75zm20.62.28s9.95-4.44 14.73 45l4.65-17.32-4.12-2.75c-.56-6.14 3.94-25.86-15.26-24.94z" transform="translate(-71.59 -25.4)"/><path class="cls-39" d="M264.54 459.06c-.33-2.28 9.63-37.31 9-48.39-1.87-10-7.66-40.9-7.66-40.9l-11-27.47s-40.47 25.25-42.59 26.1-2.69 75.6-2.69 75.6z" transform="translate(-71.59 -25.4)"/></g><path class="cls-32" d="M250 463.12l1.27 6.1 2.14 3.81 3.46 13.37-.46 1.5c-3.56 2.61-4.4-6.16-5.45-7.91l-.41 5.45c-.2.59 3.23 14.07 1.14 13 0 1.38-1.59 1.14-2.18-.34-.21-.52.07 2.32.07 2.32-2.49 4.89-3.74-4.75-4.52-5.82l.24 3.85c-2.84 4.47-3.68-9.88-4.29-10.67l.39 5.05a1 1 0 01-1.32 1.06c-.85-.56-1-1.18-.89-2.74L239 483c.83-5.33 2.79-13.07 1.89-18.45z" transform="translate(-71.59 -25.4)"/><path class="cls-37" d="M244.94 381.61c.78-8.45 1.82-26.93 16.48-31.6 8.33 4 9.89 12.46 8.24 24.73l-12.36 57.69-1.24 34c-5.78 3.91-11.78 3.53-17.86 1.37-1.92-19.53 3.83-66.5 6.74-86.22z" transform="translate(-71.59 -25.4)"/><g clip-path="url(#clip-path-6)"><path class="cls-39" d="M243.57 506.61c-.71-23.48-1.24-47-1.37-70.44a718.14 718.14 0 0111-71.05c1.19-5.2 8.24-13.73 8.24-13.73l-2.75-13.74-28.84 6.87-27.47 54.94 8.24 94.78z" transform="translate(-71.59 -25.4)"/></g></g></g></svg>