<svg id="Layer_1" data-name="Layer 1" xmlns="http://www.w3.org/2000/svg" viewBox="0 0 2650.55 1666.05"><defs><clipPath id="clip-path" transform="translate(-231.36 -133.37)"><path class="cls-1" d="M1810.48 1292.42s-30.25 153.47-30.25 203.44 15.12 289.14 15.12 289.14h199.15l21.35-219.5L2038 1785h190.89s.11-258.25-.85-279.8c-3.39-76.36-49.84-224.53-49.84-224.53z"/></clipPath><clipPath id="clip-path-2" transform="translate(-231.36 -133.37)"><path class="cls-2" d="M2116.64 535.91c-4-20.89-19.86-37.74-40.66-42.2-36.89-7.9-83.25 7.13-96.21 21.61-18 20.16 9 106.77 16.5 126.35 0 0-50.58 83.62-56 96.29 0 .07 0 .14-.08.22l-42.76 13.13S1934.94 866.1 2016 881.87c0 0 50.95-38.43 53.4-120.89l-20-9.7c4.42-19.92 8.86-41.48 10.82-54.95 16.64 7.78 34.07 11.78 49.09 7.65 33.69-9.27 16.31-120.78 7.33-168.07z"/></clipPath><clipPath id="clip-path-3" transform="translate(-231.36 -133.37)"><path class="cls-2" d="M1662 1560s0 24.86.89 28.11 16.28 23.38 16.87 26.93-2.37 65.39-9.27 66.59c-17.07 3-18.84-5.33-19.44-9.47s1.48 6.8-12.13 5.62-14.2-15.39-14.2-15.39 1.48 13.91-11.54 8.29-13-17.46-13-17.46-6.8 9.76-13.9 3.84-8-17.46-7.4-18.93 1.48-34.63 8.58-45.87c6.88-10.9 15.68-38.18 15.68-38.18z"/></clipPath><clipPath id="clip-path-4" transform="translate(-231.36 -133.37)"><path class="cls-3" d="M1027.72 998.89s-104.92 162.79-89.85 169.77 68.39 23.57 68.39 23.57z"/></clipPath><clipPath id="clip-path-5" transform="translate(-231.36 -133.37)"><path class="cls-3" d="M1304.77 937.27c-39.84-30.48-65.13-39.38-65.13-39.38l-99 25.87s-76.7 19.18-112.9 75.13-33.22 355.86-41 441.61c-5.26 57.68 273.61 45.59 299.94 32.43 15.82-7.91 33-120 46.07-225l54.06-2.85s36.53-230.38-82.04-307.81z"/></clipPath><clipPath id="clip-path-6" transform="translate(-231.36 -133.37)"><path class="cls-1" d="M1166.34 620.57c-13.12 1.66-26.36 3.35-38.84 7.73s-24.3 11.7-31.74 22.7c-10.81 15.92-10.93 36.84-19.45 54.1-10.55 21.38-32.82 34.94-44.17 55.91-6.32 11.7-8.9 25.54-6.32 38.58 3.52 17.82 16.26 32.79 31.5 42.67s32.89 15.31 50.45 19.95a726.21 726.21 0 00107.28 19.9c13.38-30.09 23.83-61.4 32.67-93.13 10.91-39.19 18.08-81.81 3.75-119.88-3.8-10.11-9.16-19.78-16.81-27.41-16.66-16.58-45.05-24.06-68.32-21.12z"/></clipPath><clipPath id="clip-path-7" transform="translate(-231.36 -133.37)"><path class="cls-2" d="M1259.8 675.15c-9.5-17.88-52.65-44.64-91.93-45.85-22.14-.68-42.41 12.4-51.64 32.54-20.87 45.59-48.35 152.73-16.56 170.52 14.15 7.92 26.64 6.47 39.57 3.28-2.92 29.89-14.18 103.28-9 111.17 19.22 29.38 93.08-10.73 110.21-23.19s-28.84-124.81-28.84-124.81C1224 780.87 1273 700 1259.8 675.15z"/></clipPath><clipPath id="clip-path-8" transform="translate(-231.36 -133.37)"><path class="cls-4" d="M1003.65 1685.79H721.51c-7 0-14.87-5.65-17.62-12.63l-74-187.32c-2.76-7 .67-12.63 7.64-12.63h282.13c7 0 14.86 5.66 17.62 12.63l74 187.32c2.77 6.98-.65 12.63-7.63 12.63z"/></clipPath><clipPath id="clip-path-9" transform="translate(-231.36 -133.37)"><path class="cls-2" d="M954.43 1167.72s-18 55.9-30.33 85.8c-4.09 9.94-235-191-235-191l-33.09 33S867.71 1397 928.84 1397c41.46 0 62.36-30.59 62.36-30.59l15.06-174.21z"/></clipPath><clipPath id="clip-path-10" transform="translate(-231.36 -133.37)"><path class="cls-2" d="M1373 1245.8s-11.06 136.25-22.73 162.06c-8.34 18.43-331 190.12-331 190.12l-32.57-45.47s246.18-190 246.18-194.25 6-105.86 6-105.86z"/></clipPath><style>.cls-1{fill:#1b3d9e}.cls-2{fill:#fe8e9c}.cls-3{fill:#f9c438}.cls-14,.cls-4{fill:#6880e4}.cls-7{fill:#1c056d}.cls-8{fill:#fff}.cls-10{fill:#e57492}.cls-12{fill:#fc476a}.cls-14{opacity:.28}</style></defs><path d="M1535.56 190.32C1425.91 163.45 1315.2 144.19 1204 136c-278-20.57-589 80.65-740.35 328.71-212.83 348.76-48.17 862.38 310.32 1042.45 143.57 72.11 306.52 92.65 465.5 85.29 164.34-7.6 316.42-56.87 477.49-81.84 272.16-42.2 555.38 57 823.13-7.59 130.29-31.41 221.25-120 250.72-252.3C2841.25 1024 2769.42 766.6 2584.23 621c-82.94-65.22-179.41-110.71-276-153.23-249.29-109.77-507.72-212.51-772.67-277.45z" transform="translate(-231.36 -133.37)" fill="#f6f9ff"/><path class="cls-1" d="M1810.48 1292.42s-30.25 153.47-30.25 203.44 15.12 289.14 15.12 289.14h199.15l21.35-219.5L2038 1785h190.89s.11-258.25-.85-279.8c-3.39-76.36-49.84-224.53-49.84-224.53z" transform="translate(-231.36 -133.37)"/><g clip-path="url(#clip-path)"><path class="cls-7" d="M2019 1306.35l-3.15 259.1s31.65-17 35.44-32.66 8.54-234 8.54-234z" transform="translate(-231.36 -133.37)"/><path class="cls-7" d="M2223.64 1351.86h-454.29a1.5 1.5 0 010-3h454.29a1.5 1.5 0 010 3z" transform="translate(-231.36 -133.37)"/><path class="cls-7" d="M1886.1 1786.45h-.1a1.5 1.5 0 01-1.37-1.62l.42-5a1.5 1.5 0 113 .25l-.42 5a1.49 1.49 0 01-1.53 1.37zm.84-10h-.13a1.5 1.5 0 01-1.36-1.62l.42-5a1.5 1.5 0 013 .25l-.42 5a1.51 1.51 0 01-1.51 1.4zm.85-10h-.13a1.49 1.49 0 01-1.37-1.62l.42-5a1.5 1.5 0 013 .25l-.42 5a1.5 1.5 0 01-1.5 1.44zm.84-10h-.13a1.51 1.51 0 01-1.37-1.62l.43-5a1.5 1.5 0 013 .25l-.43 5a1.5 1.5 0 01-1.5 1.48zm.85-10h-.13a1.5 1.5 0 01-1.35-1.45l.42-5a1.52 1.52 0 011.62-1.37 1.5 1.5 0 011.37 1.63l-.42 5a1.5 1.5 0 01-1.51 1.33zm.84-10h-.13a1.5 1.5 0 01-1.37-1.62l.42-5a1.5 1.5 0 113 .25l-.42 5a1.49 1.49 0 01-1.5 1.55zm.84-10h-.16a1.5 1.5 0 01-1.36-1.62l.42-5a1.5 1.5 0 113 .26l-.42 5a1.51 1.51 0 01-1.48 1.57zm.85-10h-.13a1.49 1.49 0 01-1.37-1.62l.42-5a1.5 1.5 0 113 .25l-.42 5a1.5 1.5 0 01-1.51 1.62zm.84-10h-.13a1.51 1.51 0 01-1.37-1.62l.43-5a1.5 1.5 0 013 .26l-.43 5a1.49 1.49 0 01-1.5 1.64zm.84-10h-.12a1.49 1.49 0 01-1.37-1.62l.42-5a1.5 1.5 0 013 .25l-.42 5a1.51 1.51 0 01-1.51 1.69zm.85-10h-.13a1.5 1.5 0 01-1.37-1.62l.42-5a1.51 1.51 0 011.63-1.37 1.49 1.49 0 011.36 1.62l-.42 5a1.49 1.49 0 01-1.49 1.72zm.84-10h-.13a1.5 1.5 0 01-1.36-1.63l.42-5a1.5 1.5 0 113 .26l-.42 5a1.51 1.51 0 01-1.51 1.76zm.85-10h-.13a1.49 1.49 0 01-1.37-1.62l.42-5a1.5 1.5 0 113 .25l-.42 5a1.5 1.5 0 01-1.5 1.8zm.84-10h-.13a1.51 1.51 0 01-1.37-1.62l.43-5a1.5 1.5 0 113 .26l-.43 5a1.49 1.49 0 01-1.5 1.82zm.84-10h-.12a1.49 1.49 0 01-1.37-1.62l.42-5a1.5 1.5 0 013 .25l-.42 5a1.51 1.51 0 01-1.51 1.92zm.85-10h-.13a1.5 1.5 0 01-1.37-1.62l.42-5a1.5 1.5 0 013 .26l-.42 5a1.5 1.5 0 01-1.5 1.91zm.84-10h-.13a1.51 1.51 0 01-1.37-1.62l.43-5a1.5 1.5 0 013 .25l-.43 5a1.49 1.49 0 01-1.5 1.92zm.85-10h-.13a1.5 1.5 0 01-1.37-1.62l.42-5a1.5 1.5 0 013 .25l-.42 5a1.5 1.5 0 01-1.5 1.97zm.84-10h-.13a1.5 1.5 0 01-1.37-1.62l.42-5a1.54 1.54 0 011.63-1.37 1.52 1.52 0 011.37 1.63l-.43 5a1.49 1.49 0 01-1.49 2zm.84-10h-.13a1.49 1.49 0 01-1.36-1.62l.42-5a1.5 1.5 0 013 .25l-.42 5a1.51 1.51 0 01-1.51 2.05zm.85-10h-.13a1.5 1.5 0 01-1.37-1.63l.42-5a1.5 1.5 0 113 .26l-.42 5a1.5 1.5 0 01-1.48 2.08zm.84-10h-.13a1.5 1.5 0 01-1.37-1.62l.43-5a1.5 1.5 0 113 .25l-.43 5a1.49 1.49 0 01-1.5 2.12zm.85-10h-.13a1.5 1.5 0 01-1.37-1.62l.42-5a1.51 1.51 0 011.62-1.36 1.49 1.49 0 011.37 1.62l-.42 5a1.5 1.5 0 01-1.49 2.14zm.84-10h-.13a1.5 1.5 0 01-1.37-1.62l.42-5a1.52 1.52 0 011.63-1.37 1.5 1.5 0 011.36 1.62l-.42 5a1.49 1.49 0 01-1.49 2.19zm.84-10h-.13a1.5 1.5 0 01-1.36-1.62l.42-5a1.5 1.5 0 013 .25l-.42 5a1.51 1.51 0 01-1.51 2.22zm.85-10h-.13a1.49 1.49 0 01-1.37-1.62l.42-5a1.5 1.5 0 013 .25l-.42 5a1.5 1.5 0 01-1.5 2.26zm.84-10h-.13a1.5 1.5 0 01-1.37-1.62l.43-5a1.48 1.48 0 011.62-1.37 1.5 1.5 0 011.41 2.54l-.43 5a1.49 1.49 0 01-1.57 1.38zm.84-10h-.12a1.5 1.5 0 01-1.37-1.63l.42-5a1.5 1.5 0 113 .26l-.42 5a1.5 1.5 0 01-1.51 2.33zm.85-10h-.13a1.49 1.49 0 01-1.37-1.62l.42-5a1.5 1.5 0 113 .25l-.42 5a1.49 1.49 0 01-1.5 2.37zm.84-10h-.13a1.5 1.5 0 01-1.36-1.62l.42-5a1.5 1.5 0 113 .26l-.42 5a1.51 1.51 0 01-1.51 2.39zm.85-10h-.13a1.49 1.49 0 01-1.37-1.62l.42-5a1.5 1.5 0 013 .25l-.42 5a1.5 1.5 0 01-1.5 2.44zm.84-10h-.13a1.51 1.51 0 01-1.37-1.62l.43-5a1.5 1.5 0 013 .25l-.43 5a1.49 1.49 0 01-1.5 2.47zm.84-10h-.1a1.49 1.49 0 01-1.37-1.62l.42-5a1.5 1.5 0 013 .25l-.42 5a1.5 1.5 0 01-1.53 2.51zm.85-10h-.13a1.5 1.5 0 01-1.37-1.62l.42-5a1.5 1.5 0 113 .25l-.42 5a1.5 1.5 0 01-1.45 2.55zm.84-10h-.13a1.52 1.52 0 01-1.37-1.63l.43-5a1.5 1.5 0 113 .26l-.42 5a1.51 1.51 0 01-1.51 2.58zm.85-10h-.13a1.5 1.5 0 01-1.37-1.62l.42-5a1.5 1.5 0 013 .25l-.42 5a1.5 1.5 0 01-1.5 2.62zm.84-10h-.13a1.51 1.51 0 01-1.37-1.62l.43-5a1.5 1.5 0 113 .26l-.43 5a1.49 1.49 0 01-1.5 2.64zm.84-10h-.12a1.49 1.49 0 01-1.37-1.62l.42-5a1.5 1.5 0 013 .25l-.42 5a1.51 1.51 0 01-1.51 2.69zm.85-10h-.17a1.5 1.5 0 01-1.37-1.62l.42-5a1.5 1.5 0 013 .26l-.42 5a1.5 1.5 0 01-1.46 2.71zm.84-10h-.13a1.51 1.51 0 01-1.37-1.62l.43-5a1.5 1.5 0 013 .25l-.43 5a1.49 1.49 0 01-1.51 2.76zm.85-10h-.13a1.5 1.5 0 01-1.37-1.62l.42-5a1.51 1.51 0 011.62-1.37 1.49 1.49 0 011.37 1.62l-.42 5a1.51 1.51 0 01-1.49 2.8zm.84-10h-.13a1.52 1.52 0 01-1.37-1.63l.42-5a1.52 1.52 0 011.63-1.37 1.5 1.5 0 011.36 1.63l-.42 5a1.49 1.49 0 01-1.49 2.83zm.84-10h-.12a1.49 1.49 0 01-1.37-1.62l.42-5a1.51 1.51 0 011.62-1.37 1.49 1.49 0 011.37 1.62l-.42 5a1.51 1.51 0 01-1.5 2.92zm.85-10h-.13a1.5 1.5 0 01-1.37-1.62l.42-5a1.5 1.5 0 113 .26l-.42 5a1.5 1.5 0 01-1.5 2.91zm.84-10h-.13a1.51 1.51 0 01-1.37-1.62l.43-5a1.5 1.5 0 013 .25l-.43 5a1.49 1.49 0 01-1.5 2.92zm.85-10h-.08a1.5 1.5 0 01-1.37-1.62l.23-2.76a1.5 1.5 0 013 .25l-.23 2.76a1.5 1.5 0 01-1.55 2.97zm223.26 462.97a1.49 1.49 0 01-1.49-1.41l-.3-5a1.51 1.51 0 011.41-1.59 1.49 1.49 0 011.59 1.41l.29 5a1.5 1.5 0 01-1.41 1.59zm-.58-10a1.51 1.51 0 01-1.5-1.41l-.29-5a1.5 1.5 0 011.41-1.58 1.47 1.47 0 011.58 1.41l.29 5a1.48 1.48 0 01-1.4 1.58zm-.59-10a1.5 1.5 0 01-1.5-1.41l-.29-5a1.5 1.5 0 013-.17l.29 5a1.5 1.5 0 01-1.41 1.58zm-.59-10a1.5 1.5 0 01-1.49-1.41l-.29-5a1.5 1.5 0 113-.18l.29 5a1.5 1.5 0 01-1.41 1.59zm-.58-10a1.51 1.51 0 01-1.5-1.41l-.29-5a1.5 1.5 0 011.41-1.58 1.47 1.47 0 011.58 1.41l.3 5a1.5 1.5 0 01-1.41 1.59zm-.59-10a1.49 1.49 0 01-1.49-1.42l-.3-5a1.5 1.5 0 013-.17l.29 5a1.49 1.49 0 01-1.41 1.58zm-.58-10a1.5 1.5 0 01-1.5-1.41l-.29-5a1.5 1.5 0 011.41-1.59 1.49 1.49 0 011.58 1.41l.29 5a1.5 1.5 0 01-1.4 1.58zm-.59-10a1.51 1.51 0 01-1.5-1.41l-.29-5a1.5 1.5 0 013-.18l.29 5a1.5 1.5 0 01-1.41 1.59zm-.59-10a1.51 1.51 0 01-1.49-1.41l-.29-5a1.5 1.5 0 113-.17l.29 5a1.49 1.49 0 01-1.41 1.58zm-.58-10a1.5 1.5 0 01-1.5-1.41l-.29-5a1.5 1.5 0 113-.17l.3 5a1.5 1.5 0 01-1.41 1.58zm-.59-10a1.48 1.48 0 01-1.49-1.41l-.3-5a1.5 1.5 0 113-.18l.29 5a1.5 1.5 0 01-1.41 1.59zm-.58-10a1.51 1.51 0 01-1.5-1.41l-.29-5a1.5 1.5 0 113-.18l.29 5a1.5 1.5 0 01-1.4 1.59zm-.59-10a1.51 1.51 0 01-1.5-1.42l-.29-5a1.5 1.5 0 013-.17l.29 5a1.49 1.49 0 01-1.41 1.58zm-.59-10a1.5 1.5 0 01-1.49-1.41l-.29-5a1.5 1.5 0 013-.18l.29 5a1.5 1.5 0 01-1.41 1.58zm-.58-10a1.51 1.51 0 01-1.5-1.41l-.29-5a1.5 1.5 0 113-.18l.3 5a1.51 1.51 0 01-1.41 1.59zm-.59-10a1.49 1.49 0 01-1.49-1.41l-.3-5a1.5 1.5 0 011.41-1.58 1.48 1.48 0 011.59 1.41l.29 5a1.49 1.49 0 01-1.41 1.58zm-.58-10a1.51 1.51 0 01-1.5-1.42l-.29-5a1.5 1.5 0 013-.17l.29 5a1.5 1.5 0 01-1.41 1.58zm-.59-10a1.5 1.5 0 01-1.5-1.41l-.29-5a1.5 1.5 0 113-.18l.3 5a1.5 1.5 0 01-1.41 1.59zm-.59-10a1.49 1.49 0 01-1.49-1.41l-.3-5a1.51 1.51 0 011.41-1.59 1.49 1.49 0 011.59 1.41l.29 5a1.5 1.5 0 01-1.41 1.59zm-.58-10a1.51 1.51 0 01-1.5-1.42l-.29-5a1.5 1.5 0 013-.17l.3 5a1.5 1.5 0 01-1.41 1.58zm-.59-10a1.48 1.48 0 01-1.49-1.41l-.3-5a1.5 1.5 0 013-.18l.29 5a1.5 1.5 0 01-1.41 1.58zm-.58-10a1.5 1.5 0 01-1.5-1.41l-.29-5a1.5 1.5 0 011.41-1.59 1.48 1.48 0 011.58 1.41l.29 5a1.5 1.5 0 01-1.4 1.59zm-.59-10a1.51 1.51 0 01-1.5-1.41l-.29-5a1.5 1.5 0 011.41-1.58 1.48 1.48 0 011.59 1.41l.29 5a1.49 1.49 0 01-1.41 1.58zm-.59-10a1.49 1.49 0 01-1.49-1.42l-.3-5a1.51 1.51 0 011.41-1.58 1.48 1.48 0 011.59 1.41l.29 5a1.5 1.5 0 01-1.41 1.58zm-.58-10a1.5 1.5 0 01-1.5-1.41l-.29-5a1.5 1.5 0 011.41-1.59 1.48 1.48 0 011.58 1.41l.3 5a1.51 1.51 0 01-1.41 1.59zm-.59-10a1.49 1.49 0 01-1.49-1.41l-.3-5a1.5 1.5 0 011.41-1.59 1.48 1.48 0 011.59 1.41l.29 5a1.5 1.5 0 01-1.41 1.59zm-.58-10a1.51 1.51 0 01-1.5-1.41l-.29-5a1.5 1.5 0 013-.17l.29 5a1.49 1.49 0 01-1.41 1.58zm-.59-10a1.5 1.5 0 01-1.5-1.41l-.29-5a1.49 1.49 0 011.41-1.58 1.47 1.47 0 011.58 1.4l.3 5a1.5 1.5 0 01-1.41 1.58zm-.59-10a1.48 1.48 0 01-1.49-1.41l-.3-5a1.51 1.51 0 011.41-1.59 1.48 1.48 0 011.59 1.41l.29 5a1.5 1.5 0 01-1.41 1.59zm-.58-10a1.51 1.51 0 01-1.5-1.41l-.29-5a1.5 1.5 0 011.41-1.58 1.48 1.48 0 011.58 1.41l.3 5a1.51 1.51 0 01-1.41 1.59zm-.59-10a1.49 1.49 0 01-1.49-1.42l-.3-5a1.5 1.5 0 011.41-1.58 1.48 1.48 0 011.59 1.41l.29 5a1.5 1.5 0 01-1.41 1.58zm-.58-10a1.5 1.5 0 01-1.5-1.41l-.29-5a1.5 1.5 0 113-.18l.29 5a1.5 1.5 0 01-1.41 1.58zm-.59-10a1.51 1.51 0 01-1.5-1.41l-.29-5a1.5 1.5 0 011.41-1.59 1.47 1.47 0 011.58 1.41l.3 5a1.51 1.51 0 01-1.41 1.59zm-.59-10a1.49 1.49 0 01-1.49-1.41l-.3-5a1.51 1.51 0 011.41-1.58 1.49 1.49 0 011.59 1.41l.29 5a1.49 1.49 0 01-1.41 1.58zm-.58-10a1.5 1.5 0 01-1.5-1.41l-.29-5a1.5 1.5 0 013-.18l.3 5a1.51 1.51 0 01-1.41 1.58zm-.59-10a1.5 1.5 0 01-1.5-1.41l-.29-5a1.5 1.5 0 013-.18l.29 5a1.5 1.5 0 01-1.41 1.59zm-.58-10a1.51 1.51 0 01-1.5-1.41l-.29-5a1.5 1.5 0 013-.17l.29 5a1.5 1.5 0 01-1.41 1.59zm-.59-10a1.51 1.51 0 01-1.5-1.42l-.29-5a1.5 1.5 0 011.41-1.58 1.48 1.48 0 011.58 1.41l.3 5a1.5 1.5 0 01-1.41 1.58zm-.59-10a1.48 1.48 0 01-1.49-1.41l-.3-5a1.51 1.51 0 011.41-1.59 1.5 1.5 0 011.59 1.41l.29 5a1.5 1.5 0 01-1.41 1.58zm-.58-10a1.51 1.51 0 01-1.5-1.41l-.29-5a1.5 1.5 0 113-.18l.3 5a1.51 1.51 0 01-1.41 1.59zm-.59-10a1.49 1.49 0 01-1.49-1.41l-.3-5a1.5 1.5 0 011.41-1.58 1.48 1.48 0 011.59 1.41l.29 5a1.49 1.49 0 01-1.41 1.58zm-.58-10a1.5 1.5 0 01-1.5-1.41l-.29-5a1.48 1.48 0 011.4-1.58 1.5 1.5 0 011.59 1.4l.29 5a1.5 1.5 0 01-1.41 1.58zm-.59-10a1.5 1.5 0 01-1.5-1.41l-.29-5a1.5 1.5 0 113-.18l.3 5a1.51 1.51 0 01-1.41 1.59zm-.59-10a1.49 1.49 0 01-1.49-1.41l-.3-5a1.5 1.5 0 013-.17l.29 5a1.5 1.5 0 01-1.41 1.59zm-.58-10a1.51 1.51 0 01-1.5-1.42l-.29-5a1.5 1.5 0 011.41-1.58 1.48 1.48 0 011.58 1.41l.29 5a1.48 1.48 0 01-1.4 1.58zm-.59-10a1.5 1.5 0 01-1.5-1.41l-.29-5a1.5 1.5 0 113-.18l.29 5a1.5 1.5 0 01-1.41 1.58z" transform="translate(-231.36 -133.37)"/></g><path class="cls-8" d="M1894.61 751.48S1967.3 732 1979.8 733s96.94 31.26 96.94 31.26l17.86 548.18h-183.17z" transform="translate(-231.36 -133.37)"/><path class="cls-7" d="M2084.53 468.54s46 14.71 51.14 33.26-11 84.25-11 84.25l-54.28-58.75z" transform="translate(-231.36 -133.37)"/><path class="cls-2" d="M2116.64 535.91c-4-20.89-19.86-37.74-40.66-42.2-36.89-7.9-83.25 7.13-96.21 21.61-18 20.16 9 106.77 16.5 126.35 0 0-50.58 83.62-56 96.29 0 .07 0 .14-.08.22l-42.76 13.13S1934.94 866.1 2016 881.87c0 0 50.95-38.43 53.4-120.89l-20-9.7c4.42-19.92 8.86-41.48 10.82-54.95 16.64 7.78 34.07 11.78 49.09 7.65 33.69-9.27 16.31-120.78 7.33-168.07z" transform="translate(-231.36 -133.37)"/><g clip-path="url(#clip-path-2)"><path class="cls-10" d="M2116.62 522.25s.57 15.34-65.33 24.44c0 0-10.48 34.94-35.33 32.78s-1-48.55 5.92-56.35 66.33-35.55 66.33-35.55 28.39 21.02 28.41 34.68z" transform="translate(-231.36 -133.37)"/></g><path class="cls-10" d="M2098 552.4s24.38 54.4 15.51 60.22-30.84-6.77-30.84-6.77c.31 3.9.26 6.6 3.94 7.9 10.66 3.76 27.68 10.25 32.1 1.75 7.74-14.95-20.71-63.1-20.71-63.1zm-37.79 143.93s-33.36-23.17-44.25-37.07c0 0 8.94 47.28 40 60.8z" transform="translate(-231.36 -133.37)"/><path class="cls-8" d="M2116 649.47s-14.44 4.33-24.54-5.41c0 0-.72 18.4 14.43 20.57s10.11-15.16 10.11-15.16z" transform="translate(-231.36 -133.37)"/><path class="cls-1" d="M2028.2 532.25s61.86 10.66 66.4-30.45-28.48-74.74-28.48-74.74 11.89 21.4 10.23 26.91-59.16-32.42-101.36-.61-45.26 69.72-39.14 104.58 49.84 101.32 49.84 101.32a88.53 88.53 0 0016.73-26.6c6.89-17 7.14-25.37 7.14-25.37s-39-19.73-27.23-40.18c15.38-26.63 33.63 12.36 33.63 12.36z" transform="translate(-231.36 -133.37)"/><path class="cls-2" d="M1662 1560s0 24.86.89 28.11 16.28 23.38 16.87 26.93-2.37 65.39-9.27 66.59c-17.07 3-18.84-5.33-19.44-9.47s1.48 6.8-12.13 5.62-14.2-15.39-14.2-15.39 1.48 13.91-11.54 8.29-13-17.46-13-17.46-6.8 9.76-13.9 3.84-8-17.46-7.4-18.93 1.48-34.63 8.58-45.87c6.88-10.9 15.68-38.18 15.68-38.18z" transform="translate(-231.36 -133.37)"/><g clip-path="url(#clip-path-3)"><path class="cls-10" d="M1571.55 1600.63s102.49-22.07 123-11c0 0 3.94-39.42-.79-40.21s-105.65-7.89-105.65-7.89z" transform="translate(-231.36 -133.37)"/></g><path class="cls-12" d="M2598.52 881.87c-1.74-11.21-48.62-124.23-64.25-121.72s-175.49 321.36-201.64 300.85c-18.91-14.84-149.71-244.66-149.71-244.66-1.63-7.36-86.88-49.21-115.28-56.18 0 0-13.39 261.9-15.75 311.66s2.62 318.15 7.34 323.39 87.2 22.26 161.83 14.4c0 0-57.61-292-57.61-307.68 0-2.37.48-10.36 1.29-22.24 33.92 53.31 128.49 195.55 175.07 200.75 92.02 10.25 260.44-387.36 258.71-398.57zm-653.11 93.3c-19.46-72.4-50.8-223.69-50.8-223.69s-125.35 37.82-129.68 51.87c0 0-201.17 339.22-202.1 382.82-.38 17.89-9.88 387.34 0 391.29s128.46-2 134.39-7.9 7.9-322.13 13.83-336c3.83-8.93 54.58-77.53 90.62-135.82.7 7.64 1.09 13.74 1.09 17.88 0 43.23-29.18 296.1-29.18 296.1 124.28 32.42 195.6-28.09 195.6-28.09s-4.32-336.05-23.77-408.46z" transform="translate(-231.36 -133.37)"/><path d="M1801.67 1097.78s44-59.28 40.89-108.52c0 0 39.12 136.28-43 175.85zm732.6-337.63s-30.37 39.91 11.62 96 52.62 25.74 52.62 25.74-18.12-106-64.24-121.74zm-369.53 319.53s17.93-103.26 17.93-150.67c0 0 49.62 259.25 120.68 299.55s118.65-7.93 118.65-7.93-35 64.26-82.19 59.8-175.07-200.75-175.07-200.75zm-270.13-328.2s-38.43 45.49-38.43 85 62.38 101.86 62.38 101.86-19 52.91-7.11 80.55 48.92 97.08 48.92 97.08-2.33-136.56-8.64-160.25-57.12-204.24-57.12-204.24zm173.03 8.67s61.28 95.58 52 126.06-42.83 55.5-42.83 55.5 18.65 27.09 14 47.55-42.3 126.74-42.3 126.74 3.35-183.62 5.58-208.63 13.55-147.22 13.55-147.22z" transform="translate(-231.36 -133.37)" fill="#d40221"/><path class="cls-10" d="M2591.5 688.68s43-22.8 47.61-22.86 1.52 13.73-1.24 16.82-35.82 27.75-35.82 27.75 38.08-7.45 50.89-5.8-11.92 15.83-18.37 16.64-31.56 9.84-31.56 9.84 3.28 28.59.27 30.83-22.41 4.84-22.41 4.84-14.78-32.06-14.14-42.77 24.77-35.29 24.77-35.29z" transform="translate(-231.36 -133.37)"/><path class="cls-2" d="M2526.06 816.44s24.14-35.11 25-37.13 2.63-62.09 11.43-74.94 56.24-53 58.78-48.73 1.4 13-2.33 17.74-33.51 39.91-33.51 39.91-8.49 30.72 3.11 41.75c0 0 47.34-41.09 47.93-38.17s9 10.89 2.46 22.52-32.75 40.27-32.75 40.27 6.17 24.73-21 39l-22.47 57.19s-27.77-25.69-36.65-59.41z" transform="translate(-231.36 -133.37)"/><rect class="cls-14" x="2145.4" y="425.92" width="505.16" height="293.96" rx="13.68"/><rect class="cls-8" x="2189.47" y="459.74" width="135.66" height="29.27" rx="5.35"/><rect class="cls-8" x="2189.47" y="506.67" width="135.66" height="29.27" rx="5.35"/><rect class="cls-4" x="2189.47" y="553.59" width="72.42" height="29.27" rx="3.91"/><path class="cls-8" d="M2747.29 591.58v66.53h-66.53a66.53 66.53 0 1066.53-66.53z" transform="translate(-231.36 -133.37)"/><path class="cls-4" d="M2740.94 584.7a66.53 66.53 0 00-66.53 66.53h66.53z" transform="translate(-231.36 -133.37)"/><path class="cls-8" d="M2501.53 659.49h22.44v40.44h-22.44zm39.76-20.7h22.44v61.14h-22.44z"/><path class="cls-4" d="M2581.05 619.05h22.44v80.89h-22.44z"/><path class="cls-8" d="M2692.82 764.92h-269a3 3 0 01-3-3 3 3 0 013-3h269a3 3 0 013 3 3 3 0 01-3 3zm0 19.08h-269a3 3 0 01-3-3 3 3 0 013-3h269a3 3 0 013 3 3 3 0 01-3 3zm0 19.15h-269a3 3 0 01-3-3 3 3 0 013-3h269a3 3 0 013 3 3 3 0 01-3 3z" transform="translate(-231.36 -133.37)"/><rect class="cls-8" x="2189.47" y="682.83" width="275.03" height="6.07" rx="3.04"/><rect class="cls-4" x="2189.47" y="682.83" width="123.01" height="6.07" rx="3.04"/><path class="cls-4" d="M2642.87 803.15h-116.94a3 3 0 01-3-3 3 3 0 013-3h116.94a3 3 0 013 3 3 3 0 01-3 3zM2533.4 784h-69a3 3 0 01-3-3 3 3 0 013-3h69a3 3 0 013 3 3 3 0 01-3 3zm119.81-19.08h-69a3 3 0 01-3-3 3 3 0 013-3h69a3 3 0 013 3 3 3 0 01-3 3z" transform="translate(-231.36 -133.37)"/><path d="M1479.67 338.72a41.67 41.67 0 00-41.65 40.5l-237.42 32.14a76.74 76.74 0 00-151.6 16.95 78.15 78.15 0 00.81 11.21L881 479.91a29.36 29.36 0 00-50-4l-128.28-53.69a47.39 47.39 0 10-5.22 12.45l128.3 53.65a29.38 29.38 0 1058.36 4.8v-.08L1053 452.66a76.75 76.75 0 00149.53-24.35c0-1.2 0-2.39-.09-3.57l237.41-32.14a41.68 41.68 0 1039.86-53.88z" transform="translate(-231.36 -133.37)" fill="#d4dfff"/><path class="cls-14" d="M1833.27 1626.62a28.2 28.2 0 0028.2 28.21H2468a28.21 28.21 0 0028.21-28.21v-288.87h-662.94z" transform="translate(-231.36 -133.37)"/><path class="cls-4" d="M2468 1291.6h-606.53a28.19 28.19 0 00-28.2 28.2v18h662.95v-18a28.2 28.2 0 00-28.22-28.2z" transform="translate(-231.36 -133.37)"/><rect class="cls-8" x="1646.1" y="1241.64" width="446.99" height="20.79" rx="1.31"/><rect class="cls-8" x="1646.1" y="1287.31" width="205.84" height="20.79" rx=".89"/><rect class="cls-8" x="1646.1" y="1332.99" width="511.29" height="20.79" rx="1.4"/><rect class="cls-8" x="1646.1" y="1424.34" width="290.63" height="20.79" rx="1.06"/><rect class="cls-8" x="1646.1" y="1470.02" width="139.19" height="20.79" rx=".73"/><rect class="cls-12" x="1646.1" y="1378.67" width="569.9" height="20.79" rx="1.48"/><circle class="cls-8" cx="1206.71" cy="402.32" r="13.18"/><circle class="cls-8" cx="1266.45" cy="402.32" r="13.18"/><circle class="cls-8" cx="1326.2" cy="402.32" r="13.18"/><circle class="cls-8" cx="1385.95" cy="402.32" r="13.18"/><circle class="cls-8" cx="1206.71" cy="449.74" r="13.18"/><circle class="cls-8" cx="1266.45" cy="449.74" r="13.18"/><circle class="cls-8" cx="1326.2" cy="449.74" r="13.18"/><circle class="cls-8" cx="1385.95" cy="449.74" r="13.18"/><circle class="cls-8" cx="1438.06" cy="630.53" r="13.18" transform="rotate(-76.72 1238.074 710.023)"/><circle class="cls-8" cx="1497.81" cy="630.53" r="13.18" transform="rotate(-80.78 1303.8 699.8)"/><circle class="cls-8" cx="1557.56" cy="630.53" r="13.18" transform="rotate(-80.78 1363.554 699.798)"/><circle class="cls-8" cx="1617.31" cy="630.53" r="13.18" transform="rotate(-80.78 1423.302 699.803)"/><circle class="cls-8" cx="1206.71" cy="544.59" r="13.18"/><circle class="cls-8" cx="1266.45" cy="544.59" r="13.18"/><circle class="cls-8" cx="1326.2" cy="544.59" r="13.18"/><circle class="cls-8" cx="1385.95" cy="544.59" r="13.18"/><circle class="cls-8" cx="1206.71" cy="592.01" r="13.18"/><circle class="cls-8" cx="1266.45" cy="592.01" r="13.18"/><circle class="cls-8" cx="1326.2" cy="592.01" r="13.18"/><circle class="cls-8" cx="1385.95" cy="592.01" r="13.18"/><circle class="cls-8" cx="1206.71" cy="639.44" r="13.18"/><circle class="cls-8" cx="1266.45" cy="639.44" r="13.18"/><circle class="cls-8" cx="1326.2" cy="639.44" r="13.18"/><circle class="cls-8" cx="1385.95" cy="639.44" r="13.18"/><circle class="cls-8" cx="1206.71" cy="686.86" r="13.18"/><circle class="cls-8" cx="1266.45" cy="686.86" r="13.18"/><circle class="cls-8" cx="1326.2" cy="686.86" r="13.18"/><circle class="cls-8" cx="1385.95" cy="686.86" r="13.18"/><circle class="cls-8" cx="874.02" cy="1088.14" r="17.86" transform="rotate(-2.01 -3043.444 7615.271)"/><circle class="cls-8" cx="874.02" cy="1169.1" r="17.86" transform="translate(-271.81 -102.01)"/><circle class="cls-8" cx="874.02" cy="1250.05" r="17.86" transform="rotate(-2.01 -3043.434 7777.215)"/><circle class="cls-8" cx="874.02" cy="1331.01" r="17.86" transform="rotate(-2.01 -3043.424 7857.902)"/><circle class="cls-8" cx="809.76" cy="1088.14" r="17.86" transform="rotate(-2.4 -2489.28 6544.053)"/><circle class="cls-8" cx="809.76" cy="1169.1" r="17.86" transform="rotate(-2.4 -2489.305 6625.006)"/><circle class="cls-8" cx="809.76" cy="1250.05" r="17.86" transform="rotate(-2.4 -2489.09 6705.964)"/><circle class="cls-8" cx="809.76" cy="1331.01" r="17.86" transform="rotate(-2.4 -2489.12 6787.157)"/><circle class="cls-8" cx="514.15" cy="954.77" r="17.86"/><circle class="cls-8" cx="514.15" cy="1035.73" r="17.86"/><circle class="cls-8" cx="514.15" cy="1116.68" r="17.86"/><circle class="cls-8" cx="514.15" cy="1197.64" r="17.86"/><circle class="cls-8" cx="681.25" cy="1088.14" r="17.86" transform="rotate(-87.05 495.294 1143.228)"/><circle class="cls-8" cx="681.25" cy="1169.1" r="17.86" transform="rotate(-87.05 495.293 1224.185)"/><circle class="cls-8" cx="681.25" cy="1250.05" r="17.86" transform="rotate(-87.05 495.287 1305.137)"/><circle class="cls-8" cx="681.25" cy="1331.01" r="17.86" transform="rotate(-87.05 495.287 1386.094)"/><circle class="cls-8" cx="385.63" cy="954.77" r="17.86"/><circle class="cls-8" cx="385.63" cy="1035.73" r="17.86"/><circle class="cls-8" cx="385.63" cy="1116.68" r="17.86"/><circle class="cls-8" cx="385.63" cy="1197.64" r="17.86"/><circle class="cls-8" cx="552.73" cy="1088.14" r="17.86" transform="rotate(-1.32 -5351.808 11063.395)"/><circle class="cls-8" cx="552.73" cy="1169.1" r="17.86" transform="rotate(-1.32 -5351.87 11144.137)"/><circle class="cls-8" cx="552.73" cy="1250.05" r="17.86" transform="rotate(-1.32 -5351.503 11225.317)"/><circle class="cls-8" cx="552.73" cy="1331.01" r="17.86" transform="rotate(-1.32 -5351.565 11306.059)"/><circle class="cls-8" cx="488.47" cy="1088.14" r="17.86" transform="rotate(-1.3 -5506.446 11214.746)"/><circle class="cls-8" cx="488.47" cy="1169.1" r="17.86" transform="rotate(-1.3 -5506.48 11295.408)"/><circle class="cls-8" cx="488.47" cy="1250.05" r="17.86" transform="rotate(-1.3 -5506.513 11376.07)"/><circle class="cls-8" cx="488.47" cy="1331.01" r="17.86" transform="rotate(-1.3 -5506.551 11457.171)"/><path class="cls-1" d="M1272.88 1443.46s40 70.79 49.84 178.25-16 166.79-16 166.79H950.24s19.19-297.36 53.84-363.14z" transform="translate(-231.36 -133.37)"/><path class="cls-3" d="M1027.72 998.89s-104.92 162.79-89.85 169.77 68.39 23.57 68.39 23.57z" transform="translate(-231.36 -133.37)"/><g clip-path="url(#clip-path-4)"><path class="cls-8" d="M936.39 1134.51c4.64.91 97.95 28.44 99.77 34.15s-11.78 50.11-17.22 47.39-96-29.9-96-39.86 13.45-41.68 13.45-41.68z" transform="translate(-231.36 -133.37)"/><path d="M976.35 1197.79s28.14-162.35 46.45-189.27-1 201-1 201z" transform="translate(-231.36 -133.37)" opacity=".36" fill="#f7974d"/></g><path class="cls-3" d="M1304.77 937.27c-39.84-30.48-65.13-39.38-65.13-39.38l-99 25.87s-76.7 19.18-112.9 75.13-33.22 355.86-41 441.61c-5.26 57.68 273.61 45.59 299.94 32.43 15.82-7.91 33-120 46.07-225l54.06-2.85s36.53-230.38-82.04-307.81z" transform="translate(-231.36 -133.37)"/><g clip-path="url(#clip-path-5)"><path class="cls-8" d="M1396 1209.57s-39.47-5.25-66.69 0-107.53 7.3-107.53 7.3-10.21 37.44.68 40.84 102.5-.63 109.1-.66 59.68 6.1 63.76 0 .68-47.48.68-47.48z" transform="translate(-231.36 -133.37)"/></g><path class="cls-1" d="M1166.34 620.57c-13.12 1.66-26.36 3.35-38.84 7.73s-24.3 11.7-31.74 22.7c-10.81 15.92-10.93 36.84-19.45 54.1-10.55 21.38-32.82 34.94-44.17 55.91-6.32 11.7-8.9 25.54-6.32 38.58 3.52 17.82 16.26 32.79 31.5 42.67s32.89 15.31 50.45 19.95a726.21 726.21 0 00107.28 19.9c13.38-30.09 23.83-61.4 32.67-93.13 10.91-39.19 18.08-81.81 3.75-119.88-3.8-10.11-9.16-19.78-16.81-27.41-16.66-16.58-45.05-24.06-68.32-21.12z" transform="translate(-231.36 -133.37)"/><g clip-path="url(#clip-path-6)"><path d="M1099.31 671.83S1023.69 803.64 1070.8 840s95.62-6.73 95.62-6.73l7.12-166.27z" transform="translate(-231.36 -133.37)" opacity=".24" fill="#1c056d"/></g><path class="cls-2" d="M1259.8 675.15c-9.5-17.88-52.65-44.64-91.93-45.85-22.14-.68-42.41 12.4-51.64 32.54-20.87 45.59-48.35 152.73-16.56 170.52 14.15 7.92 26.64 6.47 39.57 3.28-2.92 29.89-14.18 103.28-9 111.17 19.22 29.38 93.08-10.73 110.21-23.19s-28.84-124.81-28.84-124.81C1224 780.87 1273 700 1259.8 675.15z" transform="translate(-231.36 -133.37)"/><g clip-path="url(#clip-path-7)"><path class="cls-10" d="M1133.31 838.15s25.79-10.4 48.3-24.47c0 0-19.42 62.31-58.35 60.7l10-36.23m-44.4-136.21c2.06-.47 18.08 2.82 47.28-21.2 0 0 10.84 15.54 47.11-6.59l5.65-30.15-74.9-9.89z" transform="translate(-231.36 -133.37)"/></g><path class="cls-10" d="M1145 705.89s-51.44 28.28-47.71 35.73 40.25-2.8 44-.94-7.41 10.66-12.42 10.32-40 .56-40-8.8 16.37-22.73 56.13-36.31z" transform="translate(-231.36 -133.37)"/><path class="cls-1" d="M1150.65 669.75a6.64 6.64 0 01-2.76-.63c-2.2-1.21-2.48-4.3-1.85-6.73s1.88-4.77 1.75-7.27c-13.31 17.39-35.56 25.58-57.22 28.83-1.1.17-2.41.25-3.15-.59a3.27 3.27 0 01-.6-1.31 73.72 73.72 0 0114.18-66.67c7.46-8.88 17-15.86 27-21.61 28.17-16.07 63.07-22.78 93.5-11.61 9.82 3.6 19.33 9.31 24.86 18.19a20.39 20.39 0 013.45 10.89c-.11 6.06-4 11.47-8.53 15.48-5.6 4.92-12.36 8.28-19.32 10.83-3.49 1.27-7.06 2.23-10.59 3.36a12 12 0 00-5.62 3.37c-4.35 4.84-8.36 9.55-13.68 13.41a64.92 64.92 0 01-18.55 9.32 61.54 61.54 0 01-20.52 2.87c-.77-.03-1.56-.07-2.35-.13z" transform="translate(-231.36 -133.37)"/><path class="cls-8" d="M1097.32 770.47s23.85 13.26 52.13 0c0 0-16.08 22-33.29 20.91-22.67-1.47-18.84-20.91-18.84-20.91z" transform="translate(-231.36 -133.37)"/><path class="cls-1" d="M1185.11 631.34s-25.06 38.45-8.47 74.55 8.47 157.49 8.47 157.49 64.66 1.51 92.55-21.11 0-56.54 0-56.54 19.6 38.45 19.6 49.75 58.81-18.7 56.54-68.91-34.66-161.57-107.42-166.22-61.27 30.99-61.27 30.99z" transform="translate(-231.36 -133.37)"/><path class="cls-8" d="M1146.62 956.74s.53 58.89 36.53 54.39 80.16-69.68 71.62-106.29l-15.13-7s-33.95 54.81-93.02 58.9zm0 0s-35.12 44.28-50.31 30.82 4.84-48.87 4.84-48.87l28.16-13.15s-1.38 26.86 17.31 31.2z" transform="translate(-231.36 -133.37)"/><path d="M1332.7 1247.92s-104.33 11.34-107.78 0 19-167.18 19-167.18-51.82 177.67-42.66 199 124.18 23.94 124.18 23.94z" transform="translate(-231.36 -133.37)" fill="#f7974d"/><ellipse class="cls-8" cx="1120.67" cy="1038.45" rx="13.2" ry="7.86" transform="rotate(-85.11 932.392 1097.758)"/><path class="cls-8" d="M1113.29 1124.68c-.62 7.26-4.63 12.85-9 12.48s-7.33-6.56-6.71-13.82 4.64-12.85 9-12.48 7.33 6.56 6.71 13.82z" transform="translate(-231.36 -133.37)"/><ellipse class="cls-8" cx="1090.25" cy="1209.57" rx="13.2" ry="7.86" transform="rotate(-85.11 901.967 1268.89)"/><path class="cls-8" d="M1082.87 1295.81c-.62 7.26-4.63 12.85-9 12.48s-7.33-6.56-6.71-13.82 4.64-12.85 9-12.48 7.33 6.56 6.71 13.82z" transform="translate(-231.36 -133.37)"/><ellipse class="cls-8" cx="1059.83" cy="1380.7" rx="13.2" ry="7.86" transform="rotate(-85.11 871.553 1440.02)"/><path class="cls-4" d="M1003.65 1685.79H721.51c-7 0-14.87-5.65-17.62-12.63l-74-187.32c-2.76-7 .67-12.63 7.64-12.63h282.13c7 0 14.86 5.66 17.62 12.63l74 187.32c2.77 6.98-.65 12.63-7.63 12.63z" transform="translate(-231.36 -133.37)"/><g clip-path="url(#clip-path-8)"><path d="M950.24 1503.24s-163.38 145-259.67 160.14l3.63 27.9h337.93l2.72-14.53z" transform="translate(-231.36 -133.37)" opacity=".3" fill="#1b3d9e"/></g><path class="cls-1" d="M656.74 1496.31a8.2 8.2 0 11-.38-11.19 7.93 7.93 0 01.38 11.19z" transform="translate(-231.36 -133.37)"/><path class="cls-2" d="M954.43 1167.72s-18 55.9-30.33 85.8c-4.09 9.94-235-191-235-191l-33.09 33S867.71 1397 928.84 1397c41.46 0 62.36-30.59 62.36-30.59l15.06-174.21z" transform="translate(-231.36 -133.37)"/><g clip-path="url(#clip-path-9)"><path class="cls-10" d="M940.14 1185.09s21.63 96.35 64.88 118.64l24.87-121.89-81.46-22z" transform="translate(-231.36 -133.37)"/></g><path class="cls-10" d="M637 996s-34.73-17.69-39.23-19-43.73-4.83-43.41-3.22-1.29 11.26 6.75 13.83 30.23 5.47 31.52 6.43l2 1.51c-6.33-.21-43.4 3.31-42.8 4.79s.79 11.3 9.16 12.36 30.72-.14 32.16.57 36.94 19.31 46.17 17.92 23.31-12.83 23.31-12.83z" transform="translate(-231.36 -133.37)"/><path class="cls-2" d="M689.15 1062.52s-18.67-61.65-26.32-72.41S573.17 940 573.17 940s-6.2 10.13.9 16.76c3.36 3.13 17.69 13.92 31.89 24.44 15.87 11.76 33.32 30.15 33.32 30.15s-72.54-1.73-71.59 2.06 6.16 15.64 17.06 18 33.64 1.42 39.33 12.32 1.41 30.71 32 51.84c-.02-.01 32.28-21.84 33.07-33.05zM1373 1245.8s-11.06 136.25-22.73 162.06c-8.34 18.43-331 190.12-331 190.12l-32.57-45.47s246.18-190 246.18-194.25 6-105.86 6-105.86z" transform="translate(-231.36 -133.37)"/><g clip-path="url(#clip-path-10)"><path class="cls-10" d="M1230.68 1294.07s118.49 20.07 151.36 9.66l6.65-74h-163.42z" transform="translate(-231.36 -133.37)"/></g><path class="cls-2" d="M998.37 1543.42s-23.47-.39-33.74 1.29-49 27.65-48.29 28.35 7.18 8.78 13.44 6.93l38.63-13.65s-33.8 25.24-37 25.85-56.74 9.12-56.74 11.75.81 13.38 14.8 12.16 49.24-5.67 54.51-6.89-72.84 11.45-72.47 12.92 1.83 11.56 7.67 11.77 65.09-3.46 69-5-50.61 12.11-50 13-1.3 7.35 7.79 7.78 51.25-6.49 53.41-6.92 21.81-14.89 21.81-14.89-20.51 20.55-24.19 21.83-26.37 6.87-24.63 10.59c1.32 2.83 9.2 3.72 17.89 2.64s21.15-3.48 29.8-10.18 46.63-58.77 46.63-58.77z" transform="translate(-231.36 -133.37)"/><rect class="cls-14" y="499.9" width="640.93" height="392.86" rx="22.47"/><rect class="cls-4" x="43.9" y="534.72" width="156.64" height="22.72" rx="6.69"/><rect class="cls-8" x="43.9" y="566.12" width="101.93" height="22.72" rx="5.4"/><path opacity=".46" fill="#6880e4" d="M51.87 863.97l87.59-96.89 20.21 28.76 51.85-48.51 31.7 19.75L311.95 653l55.25 98.37 41.77-78.16 48.52 85.28 33.69-21.93 44.47 45.81 52.55 81.6H51.87z"/><path class="cls-4" d="M820.58 997.84H283.06a8.31 8.31 0 01-8.3-8.3v-235a8.31 8.31 0 018.3-8.3h537.52a8.31 8.31 0 018.3 8.3v235a8.31 8.31 0 01-8.3 8.3zM283.06 747.22a7.31 7.31 0 00-7.3 7.3v235a7.31 7.31 0 007.3 7.3h537.52a7.31 7.31 0 007.3-7.3v-235a7.31 7.31 0 00-7.3-7.3z" transform="translate(-231.36 -133.37)"/><path class="cls-4" d="M43.9 653.5h553.12v1H43.9zm0 42.33h553.12v1H43.9zm0 42.33h553.12v1H43.9zm0 42.33h553.12v1H43.9zm0 42.33h553.12v1H43.9z"/><rect class="cls-4" x="359.64" y="570.95" width="15.68" height="26.1" rx="2.45"/><rect class="cls-8" x="387.11" y="556.86" width="15.68" height="40.19" rx="3.04"/><rect class="cls-8" x="414.58" y="546.39" width="15.68" height="50.66" rx="3.42"/><rect class="cls-4" x="551.45" y="576.95" width="15.68" height="19.33" rx="2.11"/><rect class="cls-8" x="581.34" y="556.86" width="15.68" height="39.42" rx="3.01"/><rect class="cls-8" x="442.05" y="531.18" width="15.68" height="65.86" rx="3.89"/><rect class="cls-4" x="469.52" y="581.36" width="15.68" height="15.68" rx="1.9"/><rect class="cls-8" x="496.98" y="531.18" width="15.68" height="65.86" rx="3.89"/><rect class="cls-8" x="524.45" y="546.39" width="15.68" height="50.66" rx="3.42"/><path class="cls-7" d="M2781.09 1792.5H250.68a4 4 0 010-8h2530.41a4 4 0 010 8z" transform="translate(-231.36 -133.37)"/></svg>