<svg id="Layer_1" data-name="Layer 1" xmlns="http://www.w3.org/2000/svg" viewBox="0 0 965.29 653.33"><defs><clipPath id="clip-path" transform="translate(20.29 -173.33)"><path class="cls-1" d="M492.17 474.45h79.52v44.64h-79.52z"/></clipPath><clipPath id="clip-path-2" transform="translate(20.29 -173.33)"><path class="cls-1" d="M478.88 522.53h-45.57v-68.75h35.98l9.59 9.93v58.82z"/></clipPath><clipPath id="clip-path-3" transform="translate(20.29 -173.33)"><rect class="cls-1" x="451.49" y="499.99" width="51.13" height="32.1" rx="1.44"/></clipPath><clipPath id="clip-path-4" transform="translate(20.29 -173.33)"><path class="cls-2" d="M470 505.08c-.54 1.84-2.08 1.56-3.92 1a3.47 3.47 0 112-6.66c1.85.58 2.5 3.82 1.92 5.66z"/></clipPath><clipPath id="clip-path-5" transform="translate(20.29 -173.33)"><path class="cls-1" d="M462.31 521.42h9.81l.66-12a1.86 1.86 0 00-2-1.81H463a1.85 1.85 0 00-2 1.81z"/></clipPath><clipPath id="clip-path-6" transform="translate(20.29 -173.33)"><path class="cls-1" d="M416.34 345.89h488.15v274.04H416.34z"/></clipPath><clipPath id="clip-path-7" transform="translate(20.29 -173.33)"><path class="cls-1" d="M334.74 641.06H55V219h220.85l58.89 60.93v361.13z"/></clipPath><clipPath id="clip-path-8" transform="translate(20.29 -173.33)"><rect class="cls-1" x="166.58" y="502.68" width="313.9" height="197.09" rx="8.85"/></clipPath><clipPath id="clip-path-9" transform="translate(20.29 -173.33)"><path class="cls-2" d="M280.48 533.9c-3.34 11.29-12.78 9.57-24.07 6.23a21.32 21.32 0 0112.08-40.89c11.29 3.33 15.33 23.37 11.99 34.66z"/></clipPath><clipPath id="clip-path-10" transform="translate(20.29 -173.33)"><path class="cls-1" d="M233 634.21h60.22l4-73.4c.62-6-5.16-11.13-12.53-11.13h-47.38c-7.36 0-13.15 5.14-12.53 11.13z"/></clipPath><style>.cls-1{fill:none}.cls-2{fill:#ffb685}.cls-3{fill:#80edd9}.cls-4{fill:#b6fff1}.cls-5{fill:#4c73dc}.cls-6{fill:#fff}.cls-8{fill:#ff5c98}.cls-9{fill:#88edd9}.cls-11{fill:#3030c1}.cls-12{fill:#09089f}.cls-13{fill:#4396ca}.cls-14{fill:#025482}.cls-15{fill:#03436b}.cls-17{fill:#247ca8}.cls-18{fill:#f9a369}.cls-19{fill:#0c5c9b}.cls-20{fill:#2b79e6}.cls-21{fill:#f59762}.cls-22{fill:#ff8860}.cls-25{fill:#6486ce}.cls-26{fill:#62d3bd}.cls-27{fill:#ff7bad}.cls-28{fill:#8cb3de}</style></defs><path class="cls-3" d="M541.84 354.63h20.77v14.47h-20.77z"/><path class="cls-4" d="M534.06 367.13h36.33v3.29h-36.33zm-28.19-71.02h92.71v61.48h-92.71z"/><path class="cls-5" d="M507.84 297.92h88.77v52.47h-88.77z"/><path class="cls-6" d="M512.47 301.12h79.52v44.64h-79.52z"/><g clip-path="url(#clip-path)"><path class="cls-8" d="M493.79 349.78l-19.4-44.9-31.52 28.75-1.53-1.67 33.88-30.9L494.63 346l35.78-31.89 20.26 13.75 29.03-17.06 1.15 1.95-30.26 17.79-19.99-13.56-36.81 32.8z"/></g><path class="cls-4" d="M499.17 349.2h-45.56v-68.75h35.97l9.59 9.93v58.82z"/><path class="cls-9" d="M489.58 280.45l9.59 9.93h-9.52l-.07-9.93z"/><g clip-path="url(#clip-path-2)"><path class="cls-8" d="M493.79 349.78l-19.4-44.9-31.52 28.75-1.53-1.67 33.88-30.9L494.63 346l35.78-31.89 20.25 13.74 33.16-20.1 1.18 1.94-34.4 20.86-20-13.57-36.81 32.8z"/></g><path class="cls-11" d="M464.5 365.57l6.64-6.16h53.19l5.87 6.16h-65.7z"/><path class="cls-12" d="M503.21 533.45H450.9a1.6 1.6 0 01-1.57-1.62v-32.75a1.59 1.59 0 011.57-1.61h52.31a1.59 1.59 0 011.56 1.61v32.75a1.59 1.59 0 01-1.56 1.62z" transform="translate(20.29 -173.33)"/><rect class="cls-13" x="471.78" y="326.66" width="51.13" height="32.1" rx="1.44"/><path class="cls-14" d="M477.64 498.52a.59.59 0 11-.59-.58.58.58 0 01.59.58z" transform="translate(20.29 -173.33)"/><path class="cls-12" d="M506.54 543.8h-59a3.37 3.37 0 01-3.37-3.37v-1.53h65.7v1.53a3.36 3.36 0 01-3.33 3.37z" transform="translate(20.29 -173.33)"/><path class="cls-15" d="M465.71 533.43a.59.59 0 01-.59.59h-6.64a.59.59 0 01-.59-.59.59.59 0 01.59-.59h6.64a.59.59 0 01.59.59zm31.48 0a.59.59 0 01-.58.59H490a.59.59 0 01-.59-.59.59.59 0 01.59-.59h6.65a.59.59 0 01.58.59z" transform="translate(20.29 -173.33)"/><path class="cls-13" d="M489.62 364.69l2.19-2.02h11.33l1.93 2.02h-15.45z"/><path class="cls-6" d="M495.64 361.33h3.66v.38h-3.66zm-26.75 2.63H473v.38h-4.11zm3.48-2.63h3.66v.38h-3.66zm-1.57 1.2h3.66v.38h-3.66zm8.7-1.2h3.67v.38h-3.67zm-1.85 1.2h3.66v.38h-3.66zm4.44 1.43h4.11v.38h-4.11zm4.36-2.63h3.66v.38h-3.66zm-1.86 1.2h3.67v.38h-3.67zm-9.05 1.72h4.11v.38h-4.11zm46.84-.29h4.11v.38h-4.11zm-3.03-2.63h3.67v.38h-3.67zm1.56 1.2h3.66v.38h-3.66zm-8.7-1.2h3.66v.38h-3.66zm1.86 1.2h3.66v.38h-3.66zm-4.89 1.43h4.11v.38h-4.11zm-3.91-2.63h3.66v.38h-3.66zm1.85 1.2h3.66v.38h-3.66zm8.61 1.72h4.11v.38h-4.11z"/><g clip-path="url(#clip-path-3)"><path class="cls-8" d="M493.79 349.78l-19.4-44.9-31.52 28.75-1.53-1.67 33.88-30.9L494.63 346l35.78-31.89 20.25 13.74 33.16-20.1 1.18 1.94-34.4 20.86-20-13.57-36.81 32.8z"/></g><path class="cls-8" d="M578.83 321.69l-2.13-.79 3.25-8.83-10-.78.18-2.27 12.99 1.02-4.29 11.65z"/><path class="cls-17" d="M562.56 538.35c-5.27 1.44-6.23 5.51-3.83 6.71s7.9 1.92 10.54 1 3.11-6.95 1.2-7.19-7.91-.52-7.91-.52z" transform="translate(20.29 -173.33)"/><path class="cls-8" d="M558.35 523.27c-1.79.26-6.06 10.28-4.78 12.58s8.28 5 8.28 5l-.38-4s-4.8-2-4.42-3.32a60.52 60.52 0 013.14-6zm11.95 0c1.78.26 6.05 10.28 4.78 12.58s-8.29 5-8.29 5l.39-4s4.8-2 4.41-3.32a60.52 60.52 0 00-3.14-6z" transform="translate(20.29 -173.33)"/><path class="cls-8" d="M559.45 523h9.8a2.56 2.56 0 012.61 2.59S570 533.2 570 535.76c0 1.4.44 5.6.44 5.6h-12.15s.56-4.38.55-5.85c0-2.5-2-9.94-2-9.94a2.55 2.55 0 012.61-2.57z" transform="translate(20.29 -173.33)"/><path class="cls-18" d="M565.6 524.9a1.11 1.11 0 01-1.22 1c-1.2 0-1.29-1-1.29-1v-4.77h2.51z" transform="translate(20.29 -173.33)"/><path class="cls-2" d="M567.44 519.92c0 1.71-1.38 4.25-3.09 4.25s-3.1-2.54-3.1-4.25a3.1 3.1 0 116.19 0z" transform="translate(20.29 -173.33)"/><path class="cls-12" d="M576.43 359.28h16.42v9.79h-16.42z"/><path class="cls-19" d="M565.86 537.34a1.51 1.51 0 11-1.51-1.51 1.52 1.52 0 011.51 1.51z" transform="translate(20.29 -173.33)"/><path class="cls-20" d="M563.25 547.62a4.05 4.05 0 01-1.15.64c-.88.37-2.61 1.06-2.35 1.81.35 1 1.57.95 2.39.7a15.67 15.67 0 003.59-1.77z" transform="translate(20.29 -173.33)"/><path class="cls-13" d="M565.36 545c3-2.18 4.54-3.78 7.88-5.82a2.51 2.51 0 012.72-.08c1.18.46 1 2.48.41 3.32-1.92 2.53-9.34 6-10.84 6.56-.65.23-2.93-1.7-2-2.62a18 18 0 011.83-1.36z" transform="translate(20.29 -173.33)"/><path class="cls-20" d="M564 549.15a10.36 10.36 0 001.57 1.62c1 .78 1.71 1 2.53.65 1.19-.55.1-1.72-.83-2.64a12.85 12.85 0 00-2.34-1.94z" transform="translate(20.29 -173.33)"/><path class="cls-12" d="M561.31 520.52a11.94 11.94 0 001.4-2.45c.34-1 .54.06 2 1.17a14.29 14.29 0 002.7 1.31s.44-1.94-.25-2.93c-1.62-2.36-4.95-2.2-6 .55a2.78 2.78 0 00.15 2.35z" transform="translate(20.29 -173.33)"/><path class="cls-21" d="M564.13 546.29l1.28 1.05a3 3 0 01.66.78c.42.77-1 2.35-2 1.42s-1.76-1.92-1.76-1.92z" transform="translate(20.29 -173.33)"/><path class="cls-13" d="M560.34 548c-3.46-1.74-5.59-2.37-7.81-5.51a3.7 3.7 0 01-.58-2.77c.27-.8 1.45-1.29 2.83-1 1.16.28 8.94 6.38 10.16 7.53.52.49-1.08 3-2.38 2.54a13 13 0 01-2.22-.79z" transform="translate(20.29 -173.33)"/><path class="cls-18" d="M462 528.61h10.5l-.28 22.45h-2s-1.52-11.29-2.09-17.54h-1.39l-.42 17.54h-2s-2.37-17.61-2.31-21a14.28 14.28 0 01-.01-1.45z" transform="translate(20.29 -173.33)"/><path class="cls-5" d="M462.31 521.42h9.81l.66-12a1.86 1.86 0 00-2-1.81H463a1.85 1.85 0 00-2 1.81z" transform="translate(20.29 -173.33)"/><path class="cls-18" d="M467.74 508.46h-1.36a.81.81 0 01-.76-.85v-1.67a.81.81 0 01.76-.86h1.36a.81.81 0 01.76.86v1.67a.81.81 0 01-.76.85z" transform="translate(20.29 -173.33)"/><path class="cls-22" d="M470 505.08c-.54 1.84-2.08 1.56-3.92 1a3.47 3.47 0 112-6.66c1.85.58 2.5 3.82 1.92 5.66z" transform="translate(20.29 -173.33)"/><path class="cls-12" d="M472.54 551h-2.27v1.74h4.6c.3 0 .41-.68.14-.83zm-6.02 0h-2.26v1.74h4.6c.3 0 .41-.68.14-.83z" transform="translate(20.29 -173.33)"/><path class="cls-6" d="M472.12 521.29h-9.81s-2.16 1-2.42 4.31c-.47 6 3.29 16.57 3.29 16.57h9.26s3.07-12.61 2.39-16.57a6 6 0 00-2.71-4.31z" transform="translate(20.29 -173.33)"/><path class="cls-2" d="M470 505.08c-.54 1.84-2.08 1.56-3.92 1a3.47 3.47 0 112-6.66c1.85.58 2.5 3.82 1.92 5.66z" transform="translate(20.29 -173.33)"/><g clip-path="url(#clip-path-4)"><path class="cls-6" d="M470.72 502.44l-5.26.35s-.4-1.25-1.15-.53.35 1.61.28 1.86c-.5 2-2.46 2.46-2.55-.17s1.95-6 2.29-6 3.74-.43 4-.43 2 3.15 2.3 3.15.09 1.77.09 1.77z" transform="translate(20.29 -173.33)"/></g><path class="cls-4" d="M484.37 338.62h6.74v10.92h-6.74z"/><path class="cls-5" d="M471.48 507.85c3.19 0 6.57 9.89 6.57 10.62s-.73 1.21-1.41 1.3-11.39 0-11.39 0v-2.27l8.45-1-2.1-2.84-.33-2.71z" transform="translate(20.29 -173.33)"/><path class="cls-5" d="M462.05 507.88c-3 1.15-6.36 9.86-6.36 10.59a1.49 1.49 0 001.4 1.3c.68.1 11.39 0 11.39 0l-.38-2-7.64-1.08 3.71-5.76z" transform="translate(20.29 -173.33)"/><path class="cls-18" d="M462.23 518.06v1a.7.7 0 00.7.7h2.27l.05-2.42-2.1-.2a.91.91 0 00-.92.92z" transform="translate(20.29 -173.33)"/><g clip-path="url(#clip-path-5)"><path class="cls-18" d="M463.45 507.31a3.59 3.59 0 103.58-3.58 3.58 3.58 0 00-3.58 3.58z" transform="translate(20.29 -173.33)"/></g><path class="cls-6" d="M465.83 500.74c-.9-1.62-5.39-3.6-9.52-.9-5.33 3.47 0 11.86 0 11.86a49.78 49.78 0 004.49-7.37c1.98-4.13 5.03-3.59 5.03-3.59z" transform="translate(20.29 -173.33)"/><path class="cls-25" d="M540.36 465.57a13.84 13.84 0 11-19.31-3.15 13.83 13.83 0 0119.31 3.15z" transform="translate(20.29 -173.33)"/><path class="cls-4" d="M525.38 460.33a13.43 13.43 0 00-4.33 2.09 13.68 13.68 0 00-2.7 2.55l10.78 8.68z" transform="translate(20.29 -173.33)"/><path class="cls-26" d="M518.35 465a13.87 13.87 0 00-2.47 12.69l13.25-4z" transform="translate(20.29 -173.33)"/><path class="cls-27" d="M515.89 477.7a14.31 14.31 0 002 4 13.8 13.8 0 0011.11 5.78l.1-13.83z" transform="translate(20.29 -173.33)"/><path class="cls-2" d="M535.78 485.78a15.36 15.36 0 001.42-.9 13.8 13.8 0 005-6.79l-13.1-4.44z" transform="translate(20.29 -173.33)"/><path class="cls-12" d="M542.23 478.08a14.24 14.24 0 00.71-3.71l-13.81-.72z" transform="translate(20.29 -173.33)"/><path class="cls-8" d="M529.13 473.65l-.13 13.83a13.74 13.74 0 006.79-1.72z" transform="translate(20.29 -173.33)"/><path class="cls-28" d="M460.17 287.08h5.04v4.39h-5.04z"/><path class="cls-5" d="M465.17 283.66h5.04v7.81h-5.04z"/><path class="cls-2" d="M470.17 280.06h5.04v11.41h-5.04z"/><path class="cls-12" d="M475.18 276.55h5.04v14.92h-5.04z"/><path class="cls-8" d="M480.18 273.01h5.04v18.46h-5.04z"/><path class="cls-4" d="M497.39 514.08a3.85 3.85 0 013.24-1.5l.56-7.44a11.27 11.27 0 00-10 4.73z" transform="translate(20.29 -173.33)"/><path class="cls-6" d="M503.4 518.9a3.85 3.85 0 01-6.25-4.46l-6.15-4.21a11.31 11.31 0 0018.59 12.88z" transform="translate(20.29 -173.33)"/><path class="cls-8" d="M501.06 512.62a3.85 3.85 0 012.59 5.93l6.17 4.2a11.32 11.32 0 00-8.2-17.58z" transform="translate(20.29 -173.33)"/><path class="cls-3" d="M616.97 501.08h127.49v88.8H616.97z"/><path class="cls-4" d="M569.2 577.77h223.03v20.19H569.2zM396.13 141.82H965.3v377.43H396.13z"/><path class="cls-5" d="M408.24 152.89h544.95v322.1H408.24z"/><path class="cls-6" d="M436.64 172.55h488.15v274.04H436.64z"/><g clip-path="url(#clip-path-6)"><path class="cls-8" d="M322 471.28L202.93 195.63 9.38 372.16 0 361.87l207.96-189.68 119.18 275.86 219.67-195.74 124.39 84.41 178.2-104.76 7.06 12-185.8 109.23-122.69-83.25L322 471.28z"/></g><path class="cls-4" d="M355.03 467.73H75.29V45.66h220.85l58.89 60.94v361.13z"/><path class="cls-9" d="M296.14 45.66l58.89 60.94h-58.48l-.41-60.94z"/><g clip-path="url(#clip-path-7)"><path class="cls-8" d="M322 471.28L202.93 195.63 9.38 372.16 0 361.87l207.96-189.68 119.18 275.86 219.67-195.74 124.33 84.37 203.55-123.43 7.22 11.91-211.19 128.07-122.75-83.29L322 471.28z"/></g><path class="cls-11" d="M142.15 568.21l40.81-37.79h326.52l36.02 37.79H142.15z"/><path class="cls-12" d="M484.09 708.06H163a9.77 9.77 0 01-9.6-9.93v-201a9.76 9.76 0 019.6-9.92h321.09a9.76 9.76 0 019.59 9.92v201a9.76 9.76 0 01-9.59 9.93z" transform="translate(20.29 -173.33)"/><rect class="cls-13" x="186.87" y="329.34" width="313.9" height="197.09" rx="8.85"/><path class="cls-14" d="M327.13 493.67a3.6 3.6 0 11-3.6-3.6 3.6 3.6 0 013.6 3.6z" transform="translate(20.29 -173.33)"/><path class="cls-12" d="M504.54 771.6h-362a20.66 20.66 0 01-20.67-20.67v-9.39H525.2v9.39a20.66 20.66 0 01-20.66 20.67z" transform="translate(20.29 -173.33)"/><path class="cls-15" d="M253.9 708a3.6 3.6 0 01-3.6 3.6h-40.82a3.6 3.6 0 01-3.6-3.6 3.6 3.6 0 013.6-3.6h40.82a3.6 3.6 0 013.6 3.6zm193.28 0a3.61 3.61 0 01-3.61 3.6h-40.81a3.6 3.6 0 01-3.6-3.6 3.6 3.6 0 013.6-3.6h40.81a3.61 3.61 0 013.61 3.6z" transform="translate(20.29 -173.33)"/><path class="cls-13" d="M296.4 562.8l13.42-12.42h69.58l11.84 12.42H296.4z"/><path class="cls-6" d="M333.33 542.19h22.5v2.32h-22.5zm-164.17 16.14h25.21v2.32h-25.21zm21.31-16.14h22.5v2.32h-22.5zm-9.6 7.36h22.5v2.33h-22.5zm53.42-7.36h22.5v2.32h-22.5zm-11.4 7.36h22.5v2.33h-22.5zm27.3 8.78h25.21v2.32h-25.21zm26.72-16.14h22.5v2.32h-22.5zm-11.41 7.36H288v2.33h-22.5zm-55.53 10.58h25.21v2.32h-25.21zm287.51-1.8h25.21v2.32h-25.21zm-18.61-16.14h22.5v2.32h-22.5zm9.61 7.36h22.5v2.33h-22.5zm-53.42-7.36h22.5v2.32h-22.5zm11.4 7.36h22.5v2.33h-22.5zm-30.01 8.78h25.21v2.32h-25.21zm-24.01-16.14h22.5v2.32h-22.5zm11.41 7.36h22.5v2.33h-22.5zm52.81 10.58h25.21v2.32h-25.21z"/><g clip-path="url(#clip-path-8)"><path class="cls-8" d="M322 471.28L202.93 195.63 9.38 372.16 0 361.87l207.96-189.68 119.18 275.86 219.67-195.74 124.33 84.37 203.55-123.43 7.22 11.91-211.19 128.07-122.75-83.29L322 471.28z"/></g><path class="cls-8" d="M844.02 298.83l-13.07-4.82 19.99-54.24-61.42-4.8 1.08-13.88 79.77 6.23-26.35 71.51z"/><path class="cls-17" d="M848.45 738.16c-32.36 8.84-38.24 33.84-23.54 41.18s48.54 11.76 64.72 5.88 19.11-42.65 7.35-44.12-48.53-2.94-48.53-2.94z" transform="translate(20.29 -173.33)"/><path class="cls-8" d="M822.58 645.58c-11 1.57-37.16 63.12-29.34 77.21s50.86 30.51 50.86 30.51l-2.35-24.3s-29.47-12.51-27.12-20.34 19.3-37 19.3-37zm73.35 0c11 1.57 37.19 63.12 29.37 77.21s-50.86 30.51-50.86 30.51l2.34-24.3s29.48-12.51 27.13-20.34-19.3-37-19.3-37z" transform="translate(20.29 -173.33)"/><path class="cls-8" d="M829.33 643.81h60.17c9.06 0 16.32 7.2 16 15.9 0 0-11.48 46.84-11.61 62.55-.08 8.62 2.71 34.35 2.71 34.35h-74.38s3.43-26.89 3.36-35.91c-.12-15.34-12.27-61-12.27-61-.31-8.7 6.96-15.89 16.02-15.89z" transform="translate(20.29 -173.33)"/><path class="cls-18" d="M867.12 655.58a6.88 6.88 0 01-7.48 6c-7.37-.35-7.91-6-7.91-6v-29.3h15.39z" transform="translate(20.29 -173.33)"/><path class="cls-2" d="M878.43 625c0 10.5-8.51 26.14-19 26.14s-19-15.64-19-26.14a19 19 0 1138 0z" transform="translate(20.29 -173.33)"/><path class="cls-12" d="M829.32 529.58h100.8v60.09h-100.8z"/><path class="cls-19" d="M868.7 731.93a9.27 9.27 0 11-9.27-9.27 9.27 9.27 0 019.27 9.27z" transform="translate(20.29 -173.33)"/><path class="cls-20" d="M852.68 795.07s-1.78 1.69-7 3.91-16.08 6.49-14.47 11.14c2.14 6.27 9.68 5.8 14.67 4.3 10.82-3.24 22.07-10.88 22.07-10.88z" transform="translate(20.29 -173.33)"/><path class="cls-13" d="M865.62 778.73c18.3-13.36 27.86-23.22 48.4-35.71 4.89-3 8.24-3.86 16.72-.53 7.22 2.83 6.45 15.25 2.5 20.43-11.82 15.54-57.36 37-66.57 40.24-4 1.4-18-10.42-12.3-16.08 2.81-2.78 6.3-4.73 11.25-8.35z" transform="translate(20.29 -173.33)"/><path class="cls-20" d="M857.18 804.46a60.9 60.9 0 009.65 9.91c6.2 4.8 10.48 6.39 15.52 4 7.3-3.4.58-10.57-5.09-16.24-8.4-8.4-14.41-11.88-14.41-11.88z" transform="translate(20.29 -173.33)"/><path class="cls-12" d="M840.77 628.69s6.53-8.8 8.61-15.06 3.33.39 12.32 7.24c4.7 3.57 16.57 8 16.57 8s2.71-11.89-1.5-18c-10-14.47-30.38-13.53-36.58 3.39-3.13 8.56.58 14.43.58 14.43z" transform="translate(20.29 -173.33)"/><path class="cls-21" d="M858.11 786.91l7.81 6.46a18.74 18.74 0 014.08 4.75c2.54 4.77-6.25 14.41-12 8.73s-10.81-11.78-10.81-11.78z" transform="translate(20.29 -173.33)"/><path class="cls-13" d="M834.84 797.11c-21.28-10.71-34.32-14.56-48-33.82-3.48-4.91-4.87-13-3.52-17 1.67-4.94 8.87-7.89 17.34-5.87 7.12 1.7 54.91 39.13 62.36 46.18 3.22 3-6.58 18.25-14.61 15.63-3.94-1.32-7.82-2.23-13.57-5.12z" transform="translate(20.29 -173.33)"/><path class="cls-18" d="M231.08 678.37h64.5l-1.72 137.81h-12.32s-9.32-69.33-12.84-107.65h-8.54l-2.56 107.65h-12.32s-14.54-108.09-14.15-128.93c-.33-1.55-.05-8.88-.05-8.88z" transform="translate(20.29 -173.33)"/><path class="cls-5" d="M233 634.21h60.22l4-73.4c.62-6-5.16-11.13-12.53-11.13h-47.38c-7.36 0-13.15 5.14-12.53 11.13z" transform="translate(20.29 -173.33)"/><path class="cls-18" d="M266.34 554.69H258c-2.58 0-4.68-2.36-4.68-5.27v-10.24a5 5 0 014.68-5.26h8.3a5 5 0 014.68 5.26v10.24c.02 2.91-2.06 5.27-4.64 5.27z" transform="translate(20.29 -173.33)"/><path class="cls-22" d="M280.48 533.9c-3.34 11.29-12.78 9.57-24.07 6.23a21.32 21.32 0 0112.08-40.89c11.29 3.33 15.33 23.37 11.99 34.66z" transform="translate(20.29 -173.33)"/><path class="cls-12" d="M295.8 816h-13.93v10.69h28.26c1.87 0 2.51-4.19.88-5.1zm-36.9 0H245v10.69h28.27c1.86 0 2.5-4.19.87-5.1z" transform="translate(20.29 -173.33)"/><path class="cls-6" d="M293.25 633.4H233s-13.29 6.24-14.87 26.47c-2.87 36.87 20.22 101.73 20.22 101.73h56.81s18.88-77.4 14.71-101.73c-3.32-19.52-16.62-26.47-16.62-26.47z" transform="translate(20.29 -173.33)"/><path class="cls-2" d="M280.48 533.9c-3.34 11.29-12.78 9.57-24.07 6.23a21.32 21.32 0 0112.08-40.89c11.29 3.33 15.33 23.37 11.99 34.66z" transform="translate(20.29 -173.33)"/><g clip-path="url(#clip-path-9)"><path class="cls-6" d="M284.68 517.68l-32.35 2.2s-2.42-7.7-7-3.3c-4 3.81 2.13 9.92 1.76 11.44-3.08 12.55-15.16 15.09-15.68-1.06s12-37 14.07-37 22.93-2.61 24.5-2.61 12 19.29 14.07 19.29.63 11.04.63 11.04z" transform="translate(20.29 -173.33)"/></g><path class="cls-4" d="M264.17 402.8h41.35v67.06h-41.35z"/><path class="cls-5" d="M289.3 550.91c19.59 0 40.32 60.72 40.32 65.18s-4.46 7.44-8.63 8-69.9 0-69.9 0v-14l51.91-5.81-12.9-17.44-2-16.62z" transform="translate(20.29 -173.33)"/><path class="cls-5" d="M231.42 551.13c-18.48 7-39.06 60.5-39.06 65s4.46 7.44 8.63 8 69.9 0 69.9 0l-2.34-12.2-46.91-6.61L244.42 570z" transform="translate(20.29 -173.33)"/><path class="cls-18" d="M232.54 613.61v6.27a4.3 4.3 0 004.3 4.3h13.95l.25-14.87-12.85-1.26a5.56 5.56 0 00-5.65 5.56z" transform="translate(20.29 -173.33)"/><g clip-path="url(#clip-path-10)"><path class="cls-18" d="M240 547.61a22 22 0 1022-22 22 22 0 00-22 22z" transform="translate(20.29 -173.33)"/></g><path class="cls-6" d="M254.64 507.26c-5.51-9.93-33.09-22.06-58.46-5.52-32.69 21.32 0 72.8 0 72.8s16.26-21.57 27.58-45.22c12.13-25.32 30.88-22.06 30.88-22.06z" transform="translate(20.29 -173.33)"/><path class="cls-25" d="M712.15 291.36A84.94 84.94 0 11593.6 272a84.93 84.93 0 01118.55 19.36z" transform="translate(20.29 -173.33)"/><path class="cls-4" d="M620.2 259.17a85 85 0 00-43.2 28.54L643.2 341z" transform="translate(20.29 -173.33)"/><path class="cls-26" d="M577 287.71a85.08 85.08 0 00-15.11 77.9L643.2 341z" transform="translate(20.29 -173.33)"/><path class="cls-27" d="M562 365.8a84.93 84.93 0 0080.66 60.08l.54-84.88z" transform="translate(20.29 -173.33)"/><path class="cls-2" d="M684 415.42a86.17 86.17 0 008.77-5.51 84.56 84.56 0 0030.83-41.68L643.2 341z" transform="translate(20.29 -173.33)"/><path class="cls-12" d="M723.65 368.15a85.62 85.62 0 004.35-22.74L643.2 341z" transform="translate(20.29 -173.33)"/><path class="cls-8" d="M643.2 341l-.71 84.92a84.42 84.42 0 0041.7-10.55z" transform="translate(20.29 -173.33)"/><path class="cls-28" d="M115.61 86.36h30.95v26.96h-30.95z"/><path class="cls-5" d="M146.31 65.4h30.95v47.92h-30.95z"/><path class="cls-2" d="M177.02 43.26h30.95v70.06h-30.95z"/><path class="cls-12" d="M207.72 21.71h30.95v91.61h-30.95z"/><path class="cls-8" d="M238.42 0h30.95v113.32h-30.95z"/><path class="cls-4" d="M448.39 589.15a23.59 23.59 0 0119.87-9.21l3.42-45.68a69.36 69.36 0 00-61.14 29.08z" transform="translate(20.29 -173.33)"/><path class="cls-6" d="M485.24 618.74a23.63 23.63 0 01-38.35-27.38L409 565.55a69.42 69.42 0 00114.11 79z" transform="translate(20.29 -173.33)"/><path class="cls-8" d="M470.92 580.21a23.63 23.63 0 0115.92 36.38l37.84 25.8a69.45 69.45 0 00-50.33-107.91z" transform="translate(20.29 -173.33)"/></svg>