<svg xmlns="http://www.w3.org/2000/svg" xmlns:xlink="http://www.w3.org/1999/xlink" viewBox="0 0 2930.61 3016.72"><defs><linearGradient id="linear-gradient" x1="-27966.28" y1="-185822.81" x2="92977.14" y2="587353.25" gradientUnits="userSpaceOnUse"><stop offset="0" stop-color="#aa80f9"/><stop offset="1" stop-color="#6165d7"/></linearGradient><linearGradient id="linear-gradient-2" x1="-24473.52" y1="-161839.67" x2="81259.07" y2="514095.46" gradientUnits="userSpaceOnUse"><stop offset="0" stop-color="#ffc444"/><stop offset="1" stop-color="#f36f56"/></linearGradient><linearGradient id="linear-gradient-5" x1="1181.01" y1="1984.36" x2="777.8" y2="2028.35" gradientTransform="translate(312.71)" gradientUnits="userSpaceOnUse"><stop offset="0" stop-color="#444b8c"/><stop offset="1" stop-color="#26264f"/></linearGradient><linearGradient id="linear-gradient-6" x1="1536.28" y1="967.99" x2="539.25" y2="4362.28" xlink:href="#linear-gradient-5"/><linearGradient id="linear-gradient-7" x1="1162.67" y1="884.38" x2="-9.11" y2="4057.95" gradientTransform="translate(312.71)" xlink:href="#linear-gradient-2"/><linearGradient id="linear-gradient-8" x1="3617.25" y1="1308.37" x2="3405.11" y2="1184.03" gradientTransform="matrix(.99 .16 -.16 .99 -277.22 -472.02)" gradientUnits="userSpaceOnUse"><stop offset="0" stop-color="#311944"/><stop offset="1" stop-color="#6b3976"/></linearGradient><linearGradient id="linear-gradient-9" x1="3360.22" y1="1162.1" x2="3407.36" y2="1183.31" xlink:href="#linear-gradient-8"/><linearGradient id="linear-gradient-10" x1="3561.65" y1="1369" x2="3043.09" y2="712.16" gradientTransform="matrix(.99 .16 -.16 .99 -277.22 -472.02)" gradientUnits="userSpaceOnUse"><stop offset="0" stop-color="#e38ddd"/><stop offset="1" stop-color="#9571f6"/></linearGradient><linearGradient id="linear-gradient-11" x1="3332.5" y1="1015.63" x2="2984.98" y2="811.95" xlink:href="#linear-gradient-8"/><linearGradient id="linear-gradient-12" x1="2911.44" y1="776.01" x2="2988.67" y2="810.76" xlink:href="#linear-gradient-8"/><linearGradient id="linear-gradient-13" x1="3241.43" y1="1114.95" x2="2391.95" y2="38.95" xlink:href="#linear-gradient-10"/><linearGradient id="linear-gradient-14" x1="3368.51" y1="2971.75" x2="3389.32" y2="3236.53" gradientTransform="rotate(-.14 981.79 325277.849)" gradientUnits="userSpaceOnUse"><stop offset="0" stop-color="#444b8c"/><stop offset="1" stop-color="#3e4177"/></linearGradient><linearGradient id="linear-gradient-15" x1="3422.22" y1="3119.16" x2="3418.44" y2="2844.94" gradientTransform="rotate(-.14 981.79 325277.849)" xlink:href="#linear-gradient-2"/><linearGradient id="linear-gradient-16" x1="3761.65" y1="2940.87" x2="3782.45" y2="3205.63" xlink:href="#linear-gradient-14"/><linearGradient id="linear-gradient-17" x1="3782.51" y1="3114.19" x2="3778.73" y2="2839.96" gradientTransform="rotate(-.14 981.79 325277.849)" xlink:href="#linear-gradient-2"/><linearGradient id="linear-gradient-18" x1="3356.77" y1="2674.93" x2="3559.53" y2="2674.93" xlink:href="#linear-gradient-14"/><linearGradient id="linear-gradient-19" x1="3356.77" y1="2674.94" x2="3559.52" y2="2674.94" xlink:href="#linear-gradient-14"/><linearGradient id="linear-gradient-20" x1="3413.06" y1="2654.94" x2="3821.23" y2="2654.94" xlink:href="#linear-gradient-14"/><linearGradient id="linear-gradient-21" x1="2951.51" y1="1719.33" x2="2491.62" y2="2474.36" xlink:href="#linear-gradient"/><linearGradient id="linear-gradient-22" x1="2486.84" y1="2083.43" x2="2663.94" y2="2083.43" xlink:href="#linear-gradient"/><linearGradient id="linear-gradient-23" x1="6363.42" y1="478.73" x2="6437.27" y2="478.73" gradientTransform="rotate(48.41 2606.641 -3136.743)" gradientUnits="userSpaceOnUse"><stop offset="0" stop-color="#ab316d"/><stop offset="1" stop-color="#792d3d"/></linearGradient><linearGradient id="linear-gradient-24" x1="5122.87" y1="1977.04" x2="5805.81" y2="1977.04" gradientTransform="matrix(-.96 .28 .28 .96 7362.86 -1205.63)" gradientUnits="userSpaceOnUse"><stop offset="0" stop-color="#26264f"/><stop offset="1" stop-color="#444b8c"/></linearGradient><linearGradient id="linear-gradient-25" x1="5572.08" y1="1357.36" x2="6494.86" y2="1357.36" xlink:href="#linear-gradient-24"/><linearGradient id="linear-gradient-26" x1="5122.87" y1="1977.04" x2="5805.81" y2="1977.04" xlink:href="#linear-gradient-24"/><linearGradient id="linear-gradient-27" x1="6475.83" y1="4061.15" x2="6019.33" y2="3550.02" gradientTransform="matrix(-.99 -.11 -.11 .99 8437.64 -1193.75)" xlink:href="#linear-gradient-24"/><linearGradient id="linear-gradient-28" x1="5624.14" y1="1369.11" x2="6494.57" y2="1369.11" xlink:href="#linear-gradient-24"/><linearGradient id="linear-gradient-29" x1="5147.34" y1="2273.4" x2="4834.65" y2="2748.01" gradientTransform="translate(-3095.36)" gradientUnits="userSpaceOnUse"><stop offset="0" stop-color="#311944"/><stop offset="1" stop-color="#893976"/></linearGradient><linearGradient id="linear-gradient-30" x1="5164.17" y1="2273.4" x2="4851.49" y2="2748.01" gradientTransform="translate(-3095.36)" gradientUnits="userSpaceOnUse"><stop offset="0" stop-color="#ff9085"/><stop offset="1" stop-color="#fb6fbb"/></linearGradient><linearGradient id="linear-gradient-31" x1="4932.35" y1="1258.26" x2="5444.54" y2="2577.53" xlink:href="#linear-gradient-29"/><linearGradient id="linear-gradient-32" x1="4950.57" y1="1258.26" x2="5462.76" y2="2577.53" xlink:href="#linear-gradient-30"/><linearGradient id="linear-gradient-33" x1="4768.52" y1="1329.05" x2="5280.83" y2="2648.63" xlink:href="#linear-gradient-30"/><linearGradient id="linear-gradient-34" x1="3171.63" y1="859.75" x2="3173.44" y2="864.4" xlink:href="#linear-gradient-30"/><linearGradient id="linear-gradient-35" x1="3164.19" y1="1846.39" x2="2696.61" y2="2614.06" xlink:href="#linear-gradient"/><linearGradient id="linear-gradient-36" x1="2544.38" y1="2219.59" x2="3180.04" y2="2219.59" xlink:href="#linear-gradient"/><linearGradient id="linear-gradient-37" x1="-5545.47" y1="619.97" x2="-5529.56" y2="529.9" gradientTransform="scale(-1 1) rotate(-31.2 -1055.268 -3139.79)" xlink:href="#linear-gradient-2"/><linearGradient id="linear-gradient-38" x1="3663.9" y1="1638.17" x2="3601.01" y2="2038.31" gradientTransform="matrix(-1 0 0 1 6503.44 0)" xlink:href="#linear-gradient-2"/><linearGradient id="linear-gradient-39" x1="3615.69" y1="1695.73" x2="3701.27" y2="1695.73" gradientTransform="matrix(-1 0 0 1 6503.44 0)" gradientUnits="userSpaceOnUse"><stop offset="0" stop-color="#40447e"/><stop offset="1" stop-color="#3c3b6b"/></linearGradient><linearGradient id="linear-gradient-40" x1="3661.68" y1="1692.26" x2="3663.01" y2="1800.66" gradientTransform="matrix(-1 0 0 1 6503.44 0)" xlink:href="#linear-gradient-2"/><linearGradient id="linear-gradient-41" x1="3625.93" y1="1724.15" x2="3699.86" y2="1724.15" xlink:href="#linear-gradient-39"/><linearGradient id="linear-gradient-42" x1="3675.65" y1="1731.22" x2="3691.98" y2="1731.22" gradientTransform="matrix(-1 0 0 1 6503.44 0)" xlink:href="#linear-gradient-2"/><linearGradient id="linear-gradient-43" x1="2371.44" y1="2135.97" x2="2381.83" y2="2077.13" xlink:href="#linear-gradient-2"/><clipPath id="clip-path" transform="translate(-331.27 -238.28)"><path class="cls-1" d="M2059.76 2428.42s144.88-407.42-75.88-590.24-376.24 24.28-381.29-386.27S1403 325.12 929.39 502.14C785.5 555.92 683.39 651.6 710.62 813c20 118.64 109.28 220.45 112.6 342.57 3.22 118.14-93.26 201.67-134.9 304.43-50.94 125.72 10.33 242.74 100.92 331.22 95.55 93.33 212 165.58 322.28 239.92 59.93 40.41 129.17 82.77 168.69 145.54 49.9 79.29 20.26 208.72 45.2 296.64 20.94 73.8 79.31 93.41 147.91 112.64 144.59 40.52 290.47 20.1 438.12 14.53z"/></clipPath><clipPath id="clip-path-2" transform="translate(-331.27 -238.28)"><path class="cls-2" d="M1726.43 2053.93c-261.76-101.93-424.12 70.58-442.46-116s-223.43-1020.39-598.92-872.27S550.67 1461.75 564 1654.57s-156 326.34 41.72 459.78c93 62.78 268.41 116.26 317.31 225.89 39.73 89.11-13.6 187.47 22.32 276.4 31.48 77.92 114.94 122 188.12 153.3 43.55 18.64 88.7 32.62 134.71 43.84 31.51 7.68 124.46 5.95 147.62 25.31 0 0 187.09 156.33 265.92-39.91-.03 0 306.48-643.32 44.71-745.25z"/></clipPath><clipPath id="clip-path-3" transform="translate(-331.27 -238.28)"><path class="cls-3" d="M2000.77 1076.78l228.93 1902.57c3.45 28.75-16.37 54.47-44.14 57.17l-997.56 97c-30.91 3-59.24-19.45-62.86-49.91L885.46 1068c-3.6-30.29 19.07-54.81 50.3-54.48l1007.8 10.73c28.05.28 53.76 23.93 57.21 52.53z"/></clipPath><clipPath id="clip-path-4" transform="translate(-331.27 -238.28)"><path class="cls-3" d="M1631.72 2057.26c-157.45-160.85-382.5-682.46-220.55-902.48 258.2-350.77 802.24-279 994.47-37.54 235.32 295.66-81.69 796.1-227.37 946.05-147.84 152.18-392.2 151.65-546.55-6.03z"/></clipPath><style>.cls-1{fill:url(#linear-gradient)}.cls-2{fill:url(#linear-gradient-2)}.cls-3{fill:none}.cls-5{fill:#f4f7fa}.cls-7{opacity:.8;mix-blend-mode:soft-light}.cls-8{fill:#fff}.cls-12{fill:#d8dee8}</style></defs><g style="isolation:isolate"><g id="Illustration"><path class="cls-5" d="M3220.5 1652.07c-76.27-499.19-389-1112.49-1006.71-1176.68 0 0-469-57.05-931.39 29.42-274.41 51.32-515 204.08-667.28 423.63S412 1415.71 473.73 1670.94c40.09 165.78 67.18 337.35 59.75 507.7-12.94 296.47-5.5 573.2 282.22 750 256.9 157.87 580.21 297.1 888.65 321.49 209.62 16.57 444.69-10.25 646.72-64.82 1029.59-278.12 945.7-1034.04 869.43-1533.24z" transform="translate(-331.27 -238.28)"/><path class="cls-1" d="M2059.76 2428.42s144.88-407.42-75.88-590.24-376.24 24.28-381.29-386.27S1403 325.12 929.39 502.14C785.5 555.92 683.39 651.6 710.62 813c20 118.64 109.28 220.45 112.6 342.57 3.22 118.14-93.26 201.67-134.9 304.43-50.94 125.72 10.33 242.74 100.92 331.22 95.55 93.33 212 165.58 322.28 239.92 59.93 40.41 129.17 82.77 168.69 145.54 49.9 79.29 20.26 208.72 45.2 296.64 20.94 73.8 79.31 93.41 147.91 112.64 144.59 40.52 290.47 20.1 438.12 14.53z" transform="translate(-331.27 -238.28)"/><g class="cls-7" clip-path="url(#clip-path)"><path class="cls-8" d="M1973.53 2615.77a5.16 5.16 0 01-4.32-2.33c-89.22-135.47-182.59-255-277.51-355.25-32.61-34.44-68-68.29-102.21-101-104.47-99.94-212.51-203.3-264.86-343.75-61.18-164.12-87.16-339.9-112.29-509.89-29.44-199.18-59.89-405.14-147.26-592.15C855 261.66 671.47 248.7 669.64 248.62a5.17 5.17 0 11.44-10.34c2 .09 49.06 2.75 122.79 62.36 67.25 54.36 170.69 169 281.58 406.36 88 188.38 118.57 395.1 148.13 595 25.05 169.46 51 344.7 111.74 507.79 51.53 138.24 158.69 240.75 262.33 339.89 34.3 32.82 69.78 66.76 102.56 101.39 95.34 100.69 189.09 220.69 278.64 356.67a5.17 5.17 0 01-4.32 8z" transform="translate(-331.27 -238.28)"/><path class="cls-8" d="M1197.37 1176.27a5.18 5.18 0 01-5.17-5.17c0-1.3.35-131.09 30.3-272.74C1250.28 767 1310 598.09 1436.7 540a5.18 5.18 0 014.32 9.41c-122.75 56.33-181.06 221.95-208.36 351-29.76 140.61-30.11 269.47-30.11 270.76a5.18 5.18 0 01-5.18 5.1zm220.76 796.83a5.18 5.18 0 01-5.15-4.76c-.07-.92-7.25-94.08 19-217.65 24.27-114.08 82.84-278.33 224-412.95a5.18 5.18 0 017.15 7.49c-139.18 132.7-197 294.72-221 407.28-26 122.15-19 214.08-18.91 215a5.18 5.18 0 01-4.74 5.58zm-215.95-766.49a5.1 5.1 0 01-3.19-1.11c-3.75-3-376.13-293.87-526.92-222.61a5.17 5.17 0 11-4.42-9.35c66.09-31.24 176.86-2.9 329.24 84.24 112.68 64.43 207.55 138.84 208.5 139.59a5.18 5.18 0 01-3.21 9.24zm112.7 568.83a5.15 5.15 0 01-3.4-1.28c-.75-.65-75.94-65.7-186.52-101.51-101.64-32.92-255-47.16-408.47 72a5.17 5.17 0 11-6.34-8.18c157.16-122 314.24-107.34 418.35-73.54 112.5 36.52 189 102.78 189.79 103.45a5.17 5.17 0 01-3.41 9.07zm444.99 558.81a5.16 5.16 0 01-3.41-1.28c-.75-.65-75.94-65.69-186.52-101.51-101.64-32.92-255-47.15-408.46 72a5.17 5.17 0 11-6.35-8.17c157.16-122 314.24-107.35 418.35-73.55 112.5 36.52 189 102.79 189.79 103.45a5.17 5.17 0 01-3.4 9.07z" transform="translate(-331.27 -238.28)"/></g><path class="cls-2" d="M1726.43 2053.93c-261.76-101.93-424.12 70.58-442.46-116s-223.43-1020.39-598.92-872.27S550.67 1461.75 564 1654.57s-156 326.34 41.72 459.78c93 62.78 268.41 116.26 317.31 225.89 39.73 89.11-13.6 187.47 22.32 276.4 31.48 77.92 114.94 122 188.12 153.3 43.55 18.64 88.7 32.62 134.71 43.84 31.51 7.68 124.46 5.95 147.62 25.31 0 0 187.09 156.33 265.92-39.91-.03 0 306.48-643.32 44.71-745.25z" transform="translate(-331.27 -238.28)"/><g class="cls-7" clip-path="url(#clip-path-2)"><path class="cls-8" d="M1519.52 3022.67a3.62 3.62 0 01-.45-.2 5.17 5.17 0 01-2.27-7c70-137.79 110-351.34 32.39-494.61-50.31-92.92-139.44-145.41-225.63-196.17-49.66-29.25-101-59.5-145-97.3-135.16-116.2-177.4-319-211.34-481.89l-2.13-10.23c-54.5-261.27-169.66-448.67-256.67-559.82-94.19-120.32-176.34-179.51-177.16-180.09a5.18 5.18 0 016-8.43c.83.59 84.2 60.66 179.3 182.14 87.69 112 203.74 300.82 258.67 564.13l2.13 10.23c33.63 161.39 75.47 362.24 208 476.16 43.26 37.19 94.21 67.2 143.49 96.22 87.4 51.48 177.79 104.71 229.47 200.17 36.53 67.47 50.63 155.28 40.76 254-8.55 85.48-34.48 174.36-73 250.26a5.17 5.17 0 01-6.56 2.43z" transform="translate(-331.27 -238.28)"/><path class="cls-8" d="M861.77 1421.78a5.2 5.2 0 01-3.23-5.53c.14-1 14-99.57 38-199.46 32.66-135.78 68.1-209.3 105.32-218.49a5.17 5.17 0 012.48 10c-66.82 16.51-120.49 301.08-135.54 409.33a5.17 5.17 0 01-5.83 4.42 5.61 5.61 0 01-1.2-.27zm-527.22 43.13a5.12 5.12 0 01-2.61-2.28 5.17 5.17 0 012-7c99.15-55.66 568.9 90.28 588.85 96.52a5.18 5.18 0 01-3.09 9.88c-4.84-1.52-485.4-150.87-580.69-97.38a5.17 5.17 0 01-4.46.26zm772.19 680.3a5.19 5.19 0 01-3.26-5.28c2-22.9 50.8-561.41 122.42-609.19a5.17 5.17 0 115.74 8.6c-54 36.06-100.72 409.23-117.85 601.51a5.18 5.18 0 01-5.61 4.7 5.61 5.61 0 01-1.44-.34zM758.32 2341a5.34 5.34 0 01-1.67-1.07 5.18 5.18 0 01-.17-7.32c55.25-57.87 172-76.14 347.09-54.3 129.54 16.16 244.62 49.49 245.77 49.82a5.18 5.18 0 11-2.9 9.94c-4.54-1.33-455.79-131-582.48 1.69a5.18 5.18 0 01-5.64 1.24z" transform="translate(-331.27 -238.28)"/></g><path d="M1975.18 968.49l245.64 2041.74c3.68 30.61-17.42 58.06-47 61l-1023.11 112.31c-62.68 3.9-97-28.12-100.86-60.67L792 952.16c-3.85-32.38 26.9-61.69 89.85-61.69l1032.44 21.74c29.84.5 57.22 25.79 60.89 56.28z" transform="translate(-331.27 -238.28)" fill="url(#linear-gradient-5)"/><path d="M2021.22 965l247 2052c3.7 30.77-17.47 58.35-47.14 61.3l-1060.7 105.61c-33.26 3.31-63.73-20.75-67.62-53.47l-259.35-2182c-3.87-32.54 20.56-58.69 54.18-58.12l1072.46 18.09c30 .51 57.49 25.96 61.17 56.59z" transform="translate(-331.27 -238.28)" fill="url(#linear-gradient-6)"/><path class="cls-12" d="M2001.1 1078.16L2230 2980.73c3.46 28.74-16.37 54.46-44.14 57.16l-997.56 97c-30.91 3-59.24-19.45-62.86-49.9L885.79 1069.36c-3.6-30.3 19.08-54.82 50.3-54.48l1007.8 10.73c28.11.3 53.77 23.94 57.21 52.55z" transform="translate(-331.27 -238.28)"/><path d="M1466.15 963.56c1.31 10.93-6.53 19.67-17.52 19.53s-21-9.12-22.3-20.07 6.56-19.69 17.57-19.52 20.95 9.14 22.25 20.06z" transform="translate(-331.27 -238.28)" fill="url(#linear-gradient-7)"/><g clip-path="url(#clip-path-3)"><path class="cls-12" d="M1924.45 2788.33l-1151.53 135.5-264.4-2156.57 1175.35-21.73 240.58 2042.8z"/><path class="cls-8" d="M2022 3078.72c-11.46 1.36-22.18-8.17-24.12-21.6L1876 2211.26l-692.34-388.65c-7.58-4.26-14.1-12.44-15.21-21.62L1039.8 743.51c-1.75-14.44 8-26.19 20.8-26.26s25.34 11.57 27.09 26l126.36 1040.35 689.3 389.14a27.63 27.63 0 0113.23 20l123.53 857.95c2 13.65-5.86 26.15-17.53 27.94z" transform="translate(-331.27 -238.28)"/><path class="cls-8" d="M1674.92 1380l-530.09 19.54c-12.72.47-24.45-12-26.2-26.41s7.72-27.67 20.45-28.1l509.32-17.54-47.76-399.79c-1.68-14.07 5.22-25.52 17.38-25.7s21.74 11.16 23.42 25.19l50.68 424.91c1.67 14.02-5.12 27.5-17.2 27.9z" transform="translate(-331.27 -238.28)"/><path class="cls-8" d="M1764.94 2132.93c-12 .87-21.52-9.86-23.18-23.78l-90.27-755.67c-1.67-14 5.2-25.61 17.31-26s21.65 10.7 23.32 24.69l90 754.19c1.62 13.87-5.12 25.69-17.18 26.57z" transform="translate(-331.27 -238.28)"/><path class="cls-8" d="M2156.1 1734l-435.49 23.86c-12.06.66-23.34-11.33-25-25.3s6.62-27 18.69-27.66l435.7-22.8c11.57-.6 22.37 11.17 24 24.82s-6.34 26.43-17.9 27.08zm108.95 926.77L972.72 2790c-13 1.29-25-10.6-26.82-25s7.14-28.4 20.1-29.66l1293-126c11.46-1.12 22.17 10.14 23.76 23.7s-6.26 26.59-17.71 27.73zm-1370.82-25.48a23.61 23.61 0 01-19.49-7.95c-9.64-10.46-10.17-27.11-1.18-37.19l582.11-652.53c8.49-9.53 22.77-8.77 31.87 1.67s9.62 26.59 1.15 36.12L908.39 2628a21.5 21.5 0 01-14.16 7.29z" transform="translate(-331.27 -238.28)"/><path class="cls-8" d="M1523.81 3228.14c-12.31 1.51-23.14-8.71-24.84-22.75l-59.35-490.54c-1.71-14.11 6.41-26.46 18.79-27.67s23.22 9.28 24.92 23.36l59.14 489.55c1.69 14.01-6.36 26.53-18.66 28.05z" transform="translate(-331.27 -238.28)"/></g><path class="cls-8" d="M1828.63 2355.28c-204.22-377.58-509.3-490.59-601.15-879.73-49.65-210.34-15.82-411.67 41.15-578.8l-381-6.43c-33.62-.57-58.05 25.58-54.18 58.12l259.35 2181.93c3.89 32.72 34.36 56.78 67.62 53.47l833.82-83c6.12-338.34-74.58-577.25-165.61-745.56z" transform="translate(-331.27 -238.28)"/><path d="M2990.68 1368.84c12.25 9 30.09 5.56 39.84-7.7s7.73-31.32-4.52-40.33c-.63-.47-1.29-.88-1.95-1.28a173.44 173.44 0 009.62-23.24c.77.12 1.54.24 2.33.29 15.49 1.17 29.92-10.84 32.25-26.83s-8.35-29.91-23.84-31.08c-.81-.06-1.61-.06-2.41-.05a158.23 158.23 0 00-2.71-24.17c.77-.29 1.54-.6 2.3-1 14.57-7 21.74-24.35 16-38.78s-22.2-20.48-36.77-13.49c-.74.35-1.46.76-2.16 1.17a140.55 140.55 0 00-14.32-18.62c.55-.63 1.09-1.27 1.59-2 9.76-13.27 22-27.49 9.6-36.31-28.66-20.39-44.2-9.58-54 3.69-.5.68-1 1.39-1.4 2.1a138.83 138.83 0 00-22-8.11c.18-.8.35-1.6.47-2.42 2.32-16 8.48-23.83-6.79-26.67-33.29-6.19-47 6.44-49.29 22.43-.12.84-.19 1.67-.24 2.49a156.17 156.17 0 00-23.87 4.62c-.23-.77-.48-1.54-.78-2.29-5.73-14.44-22.19-20.48-36.76-13.49s-21.74 24.34-16 38.77c.3.74.64 1.45 1 2.14a173.18 173.18 0 00-19.31 16.11c-.58-.51-1.17-1-1.81-1.48-12.25-9-30.09-5.56-39.84 7.7s-7.73 31.32 4.52 40.33c.63.47 1.29.88 1.95 1.28a173.44 173.44 0 00-9.62 23.24c-.77-.12-1.54-.24-2.33-.3-15.49-1.17-29.92 10.85-32.25 26.84s8.35 29.9 23.84 31.07c.81.06 1.61.07 2.41.06a158 158 0 002.71 24.16c-.77.3-1.54.61-2.3 1-14.57 7-21.74 24.35-16 38.78s30.9 24.87 45.48 17.89c.74-.36-7.25-5.16-6.55-5.57a139.81 139.81 0 0014.32 18.61c-.55.64-1.09 1.28-1.59 2-9.76 13.26-7.74 31.32 4.51 40.33s30.09 5.56 39.85-7.71c.5-.68 1-1.39 1.4-2.1a139.19 139.19 0 0022 8.11c-.18.8-.35 1.6-.47 2.42-2.32 16 8.35 29.9 23.83 31.07s29.93-10.84 32.25-26.84c.12-.83.19-1.66.24-2.48a157.38 157.38 0 0023.87-4.62c.23.77.48 1.54.78 2.29 5.73 14.43 22.19 20.48 36.76 13.49s21.74-24.34 16-38.78c-.3-.74-.64-1.44-1-2.13a173.18 173.18 0 0019.31-16.11c.62.53 1.17 1.03 1.85 1.5zm-167.1-25.52c-44.47-32.71-51.82-98.27-16.4-146.43s100.18-60.69 144.66-28 51.82 98.27 16.4 146.43-100.18 60.68-144.66 28z" transform="translate(-331.27 -238.28)" fill="url(#linear-gradient-8)"/><path d="M3036 1296.59c15.49 1.16 29.92-10.85 32.25-26.84s-8.35-29.91-23.84-31.08c-.81-.06-1.61-.06-2.41-.05a158.23 158.23 0 00-2.71-24.17c.77-.29 1.54-.6 2.3-1 14.57-7 34.39-26.4 27.21-40.17-13.64-26.13-33.4-19.08-48-12.09-.74.35-1.46.76-2.16 1.17a140.55 140.55 0 00-14.32-18.62c.55-.63 1.09-1.27 1.59-2a30.8 30.8 0 005.69-23.68q-24.43 30.16-48.36 60.72c34 34.81 37.1 92.8 5 136.49-27.22 37-71.77 53-111.14 43.5-2.54 4.32-5 8.66-7.71 12.91-7.21 11.53-15.09 22.68-23 33.82 3.58 1.31 7.2 2.48 10.85 3.48-.18.8-.35 1.6-.47 2.42-2.32 16 5.11 31.14 33 34.26 15.43 1.72 20.75-14 23.07-30 .12-.83.19-1.66.24-2.48a157.38 157.38 0 0023.87-4.62c.23.77.48 1.54.78 2.29 5.73 14.44 32.23 24.56 46.81 17.57s11.69-28.42 6-42.86c-.3-.74-.64-1.44-1-2.13a173.18 173.18 0 0019.31-16.11c.58.51 1.17 1 1.81 1.48 12.25 9 30.09 5.56 39.84-7.7s7.73-31.33-4.52-40.33c-.63-.47-1.29-.88-1.95-1.28a173.44 173.44 0 009.62-23.24c.79.16 1.56.28 2.35.34z" transform="translate(-331.27 -238.28)" fill="url(#linear-gradient-9)"/><path d="M3004.79 1372.86c12.25 9 30.09 5.56 39.85-7.7s7.73-31.32-4.52-40.33c-.64-.47-1.3-.88-2-1.28a170.85 170.85 0 009.62-23.24c.77.12 1.54.24 2.34.3 15.48 1.17 29.92-10.85 32.24-26.84s-8.35-29.91-23.83-31.07c-.81-.07-1.62-.07-2.42-.06a157 157 0 00-2.71-24.17c.77-.29 1.54-.6 2.3-1 14.58-7 21.74-24.35 16-38.78s-22.19-20.48-36.76-13.49c-.75.35-1.46.76-2.17 1.17a138.9 138.9 0 00-14.31-18.61c.55-.64 1.09-1.28 1.59-2 9.75-13.27 7.73-31.32-4.52-40.33s-30.09-5.56-39.84 7.71c-.51.68-1 1.39-1.4 2.1a138.94 138.94 0 00-22-8.11c.19-.8.36-1.6.48-2.42 2.32-16-8.35-29.9-23.84-31.07s-29.92 10.84-32.24 26.83c-.13.84-.19 1.67-.24 2.49a157.51 157.51 0 00-23.88 4.62c-.23-.77-.47-1.54-.77-2.29-5.73-14.44-22.19-20.48-36.76-13.49s-21.74 24.34-16 38.78c.29.74.63 1.44 1 2.13a173.28 173.28 0 00-19.32 16.11c-.58-.51-1.17-1-1.8-1.48-12.25-9-30.09-5.56-39.85 7.7s-7.73 31.32 4.52 40.33c.64.47 1.3.88 2 1.28a172.13 172.13 0 00-9.62 23.24c-.77-.12-1.54-.24-2.33-.3-15.49-1.17-29.93 10.85-32.25 26.84s8.35 29.9 23.83 31.07c.81.07 1.62.07 2.42.06a157 157 0 002.71 24.17c-.77.29-1.54.6-2.3 1-14.58 7-21.74 24.35-16 38.78s22.19 20.48 36.76 13.49c.75-.35 1.46-.76 2.17-1.17a139.63 139.63 0 0014.31 18.62c-.54.63-1.08 1.27-1.59 2-9.75 13.27-7.73 31.32 4.52 40.33s30.09 5.56 39.84-7.71c.51-.68 1-1.39 1.4-2.1a138.94 138.94 0 0022 8.11c-.18.8-.36 1.6-.48 2.42-2.32 16 8.35 29.9 23.84 31.07s29.92-10.84 32.25-26.83c.12-.84.18-1.67.23-2.49a157.51 157.51 0 0023.88-4.62c.23.77.47 1.54.77 2.29 5.73 14.44 22.19 20.48 36.77 13.49s21.73-24.34 16-38.78c-.29-.73-.63-1.44-1-2.13a173.28 173.28 0 0019.32-16.11c.57.5 1.16 1 1.79 1.47zm-167.09-25.52c-44.48-32.71-51.82-98.27-16.41-146.43s100.18-60.68 144.66-28 51.83 98.27 16.41 146.43-100.18 60.66-144.66 28z" transform="translate(-331.27 -238.28)" fill="url(#linear-gradient-10)"/><path d="M2702.37 1007.16c20.07 14.76 49.29 9.11 65.27-12.62s12.66-51.31-7.4-66.06c-1-.77-2.12-1.45-3.21-2.1a282.93 282.93 0 0015.77-38.07c1.25.2 2.52.39 3.82.49 25.37 1.91 49-17.77 52.82-44s-13.68-49-39.05-50.9c-1.32-.1-2.64-.11-3.95-.09a258.33 258.33 0 00-4.44-39.59c1.26-.48 2.52-1 3.77-1.58 23.87-11.44 35.61-39.88 26.22-63.53s-36.35-33.54-60.22-22.1c-1.23.59-2.39 1.25-3.55 1.92a228.51 228.51 0 00-23.45-30.49c.9-1 1.78-2.1 2.61-3.22 16-21.73 36-45 15.72-59.48-46.95-33.41-72.41-15.69-88.39 6-.83 1.12-1.57 2.28-2.3 3.45a229.16 229.16 0 00-36.09-13.3c.3-1.3.58-2.61.77-4 3.81-26.19 13.9-39-11.12-43.69-54.54-10.13-76.94 10.56-80.75 36.75-.19 1.37-.3 2.73-.39 4.08a257.83 257.83 0 00-39.11 7.56c-.37-1.26-.77-2.51-1.26-3.75-9.39-23.65-36.36-33.54-60.23-22.1s-35.61 39.88-26.22 63.52c.48 1.22 1 2.37 1.61 3.5a281.71 281.71 0 00-31.65 26.4c-.95-.84-1.91-1.67-2.95-2.43-20.07-14.76-49.29-9.11-65.27 12.62s-12.67 51.31 7.4 66.06c1 .77 2.12 1.44 3.2 2.1a282.33 282.33 0 00-15.76 38.07c-1.26-.2-2.52-.39-3.82-.49-25.37-1.91-49 17.77-52.82 44s13.67 49 39 50.9c1.33.1 2.65.11 4 .09a259.72 259.72 0 004.43 39.59c-1.26.48-2.52 1-3.76 1.58-23.88 11.44-35.62 39.88-26.23 63.53s50.62 40.74 74.49 29.3c1.23-.59-11.87-8.45-10.71-9.12a229.27 229.27 0 0023.44 30.49c-.89 1-1.78 2.09-2.6 3.22-16 21.73-12.67 51.31 7.4 66.07s49.29 9.1 65.27-12.63c.83-1.12 1.57-2.28 2.29-3.45a229.63 229.63 0 0036.1 13.3c-.3 1.3-.58 2.61-.78 4-3.8 26.19 13.68 49 39.05 50.9s49-17.77 52.82-44c.2-1.37.31-2.72.39-4.07a257.35 257.35 0 0039.11-7.56c.38 1.26.78 2.51 1.27 3.75 9.39 23.64 36.35 33.54 60.22 22.1s35.62-39.88 26.23-63.53c-.48-1.21-1-2.36-1.61-3.5a280.45 280.45 0 0031.64-26.39c.95.91 1.92 1.74 2.96 2.5zm-273.73-41.81c-72.86-53.58-84.89-161-26.87-239.87s164.11-99.41 237-45.83 84.9 161 26.88 239.87-164.14 99.41-237.01 45.83z" transform="translate(-331.27 -238.28)" fill="url(#linear-gradient-11)"/><path d="M2776.62 888.8c25.37 1.91 49-17.77 52.82-44s-13.68-49-39.05-50.9c-1.32-.1-2.64-.11-3.95-.09a258.33 258.33 0 00-4.44-39.59c1.26-.48 2.52-1 3.77-1.58 23.87-11.44 56.34-43.26 44.57-65.82-22.34-42.82-54.7-31.22-78.57-19.82-1.23.59-2.39 1.25-3.55 1.92a228.51 228.51 0 00-23.45-30.49c.9-1 1.78-2.1 2.61-3.22a50.43 50.43 0 009.31-38.79q-40 49.41-79.22 99.46c55.76 57 60.77 152 8.15 223.6-44.59 60.64-117.58 86.74-182.06 71.26-4.17 7.07-8.28 14.19-12.64 21.15-11.82 18.88-24.72 37.16-37.63 55.41 5.86 2.14 11.79 4.05 17.78 5.69-.3 1.31-.58 2.62-.78 4-3.8 26.19 8.37 51 54.08 56.11 25.28 2.83 34-23 37.79-49.18.2-1.37.31-2.72.39-4.07a257.35 257.35 0 0039.11-7.56c.38 1.26.78 2.51 1.27 3.75 9.39 23.64 52.81 40.23 76.68 28.79s19.16-46.57 9.77-70.22c-.48-1.21-1-2.36-1.61-3.5a281.52 281.52 0 0031.64-26.39c1 .84 1.92 1.67 3 2.43 20.07 14.76 49.29 9.11 65.27-12.62s12.67-51.31-7.4-66.07c-1-.76-2.12-1.44-3.21-2.09a282.93 282.93 0 0015.77-38.07c1.21.21 2.48.4 3.78.5z" transform="translate(-331.27 -238.28)" fill="url(#linear-gradient-12)"/><path d="M2725.49 1013.75c20.07 14.76 49.29 9.11 65.27-12.62s12.67-51.31-7.4-66.07c-1-.76-2.12-1.44-3.2-2.1a281.8 281.8 0 0015.76-38.07c1.26.21 2.52.4 3.82.49 25.37 1.92 49-17.76 52.82-44s-13.67-49-39-50.9c-1.33-.1-2.65-.11-4-.09a258.19 258.19 0 00-4.44-39.59c1.27-.48 2.53-1 3.77-1.59 23.88-11.44 35.62-39.88 26.23-63.52s-36.36-33.54-60.23-22.1c-1.22.58-2.39 1.24-3.55 1.91a229.83 229.83 0 00-23.44-30.48c.89-1 1.78-2.1 2.6-3.23 16-21.72 12.67-51.3-7.4-66.06s-49.29-9.11-65.27 12.62c-.83 1.13-1.57 2.29-2.3 3.45a229.11 229.11 0 00-36.09-13.29c.3-1.31.58-2.62.78-4 3.8-26.2-13.68-49-39-50.9s-49 17.77-52.82 44c-.2 1.37-.31 2.72-.39 4.07a258.61 258.61 0 00-39.11 7.57c-.38-1.26-.78-2.52-1.27-3.75-9.39-23.65-36.35-33.54-60.22-22.1s-35.62 39.88-26.23 63.52c.48 1.21 1 2.36 1.61 3.5a281.52 281.52 0 00-31.64 26.39c-.95-.84-1.92-1.66-3-2.43-20.07-14.76-49.29-9.1-65.27 12.63s-12.66 51.3 7.4 66.06c1 .76 2.12 1.44 3.21 2.1a281.86 281.86 0 00-15.77 38.07c-1.25-.21-2.52-.39-3.82-.49-25.37-1.92-49 17.77-52.82 44s13.68 49 39 50.9c1.32.1 2.64.11 4 .1a258.2 258.2 0 004.44 39.58c-1.26.48-2.52 1-3.77 1.59-23.87 11.44-35.61 39.88-26.22 63.52s36.35 33.54 60.22 22.1c1.22-.58 2.39-1.24 3.55-1.91a228.51 228.51 0 0023.45 30.49c-.9 1-1.78 2.09-2.61 3.22-16 21.73-12.67 51.3 7.4 66.06s49.29 9.11 65.27-12.62c.83-1.13 1.57-2.29 2.3-3.45a228.12 228.12 0 0036.09 13.29c-.3 1.31-.58 2.62-.77 4-3.81 26.2 13.67 49 39 50.9s49-17.76 52.83-44c.19-1.37.3-2.72.39-4.07a259.06 259.06 0 0039.11-7.56c.37 1.25.77 2.51 1.26 3.74 9.39 23.65 36.36 33.55 60.23 22.11s35.61-39.88 26.22-63.53c-.48-1.21-1-2.36-1.61-3.5a281.61 281.61 0 0031.65-26.39c.98.84 1.94 1.68 2.98 2.43zm-273.72-41.81c-72.86-53.59-84.9-161-26.88-239.87s164.11-99.41 237-45.83 84.89 161 26.87 239.86-164.13 99.42-236.99 45.84z" transform="translate(-331.27 -238.28)" fill="url(#linear-gradient-13)"/><path d="M2621.73 3099s-83.65 38.26-85 44.34 53.85-2.17 76.39-1.34 41.08-5.89 39-15.43-10-33.55-10-33.55z" transform="translate(-331.27 -238.28)" fill="url(#linear-gradient-14)"/><path d="M2618.59 3068.11l5.19 37.69s13.27 4.69 22.16-.91l3.7-41.37z" transform="translate(-331.27 -238.28)" fill="url(#linear-gradient-15)"/><path d="M3013 3068.07l9.78 15.61a18.66 18.66 0 012.26 14.62c-3.37 13-10.11 38.36-13.07 45-4 9-58.19 14.49-58.19 14.49s-4.85-6.79 6.38-15 18.46-9.55 22.4-21.68 6.51-46.42 6.51-46.42z" transform="translate(-331.27 -238.28)" fill="url(#linear-gradient-16)"/><path d="M2972.33 3028.43c3.57 2.82 21.1 55.61 21.1 55.61s5.65 7.19 16.33-3.47 4.83-4.78 4.83-4.78l-2.13-51.95z" transform="translate(-331.27 -238.28)" fill="url(#linear-gradient-17)"/><path d="M2570.7 2310.73c-4.15 112.47-4 234.67 2.75 365.19 7.64 147 22.61 282.81 41.36 405.93 6.86.2 14.07.22 21.59 0q7.63-.24 14.78-.76a936.9 936.9 0 0030.79-99.3 955.07 955.07 0 0021.38-116.25c15.82-127.43-3.1-138.5 9.76-232.93 11.39-83.64 27.86-86.95 46.93-205.7 20.68-128.86 5-148.14-2.61-155.1-32.43-29.65-108.38-9.24-186.73 38.92z" transform="translate(-331.27 -238.28)" fill="url(#linear-gradient-18)"/><path d="M2757.43 2271.8c-30.93-28.28-101.46-11-175.9 32.49 86 92.45 95.47 152.52 85.28 191.55-11.51 44.1-46.8 56.88-46.55 105.07.31 59.22 53.8 74.79 52.81 137.46-.65 41.44-24.14 41.07-29.56 92.27-6.42 60.57 24.31 81.37 14.48 126.2-4.23 19.29-16.37 44.51-51.07 70.54 2.55 18.39 5.17 36.6 7.89 54.47 6.86.2 14.07.22 21.59 0q7.63-.24 14.77-.76a934.3 934.3 0 0030.8-99.3 955.07 955.07 0 0021.38-116.25c15.82-127.43-3.1-138.5 9.76-232.93 11.39-83.64 27.86-86.95 46.93-205.7 20.68-128.91 5.01-148.15-2.61-155.11z" transform="translate(-331.27 -238.28)" style="mix-blend-mode:multiply" fill="url(#linear-gradient-19)" opacity=".3"/><path d="M2623.81 2308.71a2525.23 2525.23 0 01348 740.19 45.2 45.2 0 0024.72 3.77 46 46 0 0028-15.2 727.62 727.62 0 006-179.35c-2.61-28.54-7.21-76.08-25.55-134.73-20.54-65.7-34.56-69.36-61.32-138.86-27.78-72.13-21.14-90.17-47.79-180.46a1193 1193 0 00-59.41-158.28z" transform="translate(-331.27 -238.28)" fill="url(#linear-gradient-20)"/><path d="M3125.23 1914.45c-.82 23-14 36.08-33 60.88-1.59 2.07-3.17 4.17-4.76 6.31-21.94 29.46-43.91 64.54-63.75 102.69-29.72 57.23-54.72 121.46-67.72 184.17-.17.72-.35 1.48-.48 2.24-2.28 11.21-4.18 22.35-5.63 33.39-6.69 50.74-4.69 101-42.56 142.71-7.28 8-30.25 33.32-52.92 28.59-27-5.62-24.56-47.77-60.4-65.37-11.76-5.79-15.83-3.1-67.37-2.34-32.21.45-64.78.83-99.72-3.14-33.08-3.73-80.75-9.14-85.75-30-2-8.31 3.69-15.66 8.28-22.7 20.21-31.08 17.38-52.91 28.21-99.58 20.25-87.17 65.68-164.3 65.09-173.34a.61.61 0 00-.07-.28.57.57 0 00-.06-.24l-.11-.17c0-.07-.1-.1-.17-.14-2.35-1.2-12.11 14.32-20.87 27.15-.69 1-1.38 2-2.14 3-33.73 46.53-78.2 44.57-132.46 33.77-17.45-3.45-35.94-7.83-55.4-11.8-34.73-7.1-74.92-61-75.61-87.27-.76-27.49 51.12-12.86 99.59-44.39 141-91.76 74-137.77 204.31-197.38 32.32-14.8 64-20.32 109.55-28.29 18.77-3.31 36.26-5.58 52.64-7.1 41.09-3.9 84.86-4.62 109.32-2.28a229.51 229.51 0 0149.22 10.66c75.03 24.58 146.71 84.8 144.74 140.25z" transform="translate(-331.27 -238.28)" fill="url(#linear-gradient-21)"/><path d="M2663.94 2045.67c-7.07 11.11-14.18 22.18-21.22 33.29v-.31a2.17 2.17 0 00-.07-.24 1.51 1.51 0 00-.1-.17.3.3 0 00-.17-.14c-2.35-1.21-12.11 14.32-20.87 27.15-.69 1-1.38 2-2.14 3-33.73 46.53-78.2 44.57-132.46 33.77 25.7-5.38 42.33-10.52 61.37-25.87 48.46-39 55.74-98.48 83.92-97.76 13.25.38 24.04 13.97 31.74 27.28z" transform="translate(-331.27 -238.28)" style="mix-blend-mode:multiply" fill="url(#linear-gradient-22)" opacity=".3"/><path d="M2462.58 2113.4s-30.76-13-47.16-26.93-32.22-6.11-33 2.47 26.9 29.41 39.2 33.66 40.96-9.2 40.96-9.2z" transform="translate(-331.27 -238.28)" fill="url(#linear-gradient-23)"/><path d="M3062.11 2440.63L3069 2429c11-18.56 4.32-42.22-14.92-52.81L2299.8 1961l-42.09 78 749.91 415.84c19.12 10.64 43.52 4.29 54.49-14.21z" transform="translate(-331.27 -238.28)" fill="url(#linear-gradient-24)"/><path d="M1720.13 2192.55c218.71 125.5 498.26 45.44 623.53-185.7 128.28-236.69 43.14-534.36-189.1-657.6-228-121-504.94-23.55-619.69 210.74-112.14 229.01-29.67 509.23 185.26 632.56zm33.46-65c-181.6-103.59-251-340.07-155.85-532.87 97.06-196.57 329.78-277.24 520.65-175.27C2312.2 1523 2383.52 1771.75 2277 1970c-104.53 194.34-339.13 262.73-523.41 157.6z" transform="translate(-331.27 -238.28)" fill="url(#linear-gradient-25)"/><path d="M2299.8 1961l96.17 52.94c.15 34.26 9.91 55.93 21.3 70.27 42.85 54 122 21.62 208.12 92.44 43.19 35.54 30.58 49.71 72.35 77 69 45 112 11.83 172.93 52.43 61.66 41.06 56.06 100.57 94.67 106.52 16.52 2.54 40-4.91 73-45l15.78 8.69c19.24 10.59 25.92 34.25 14.92 52.81l-6.9 11.63c-11 18.5-35.37 24.85-54.49 14.25L2257.71 2039z" transform="translate(-331.27 -238.28)" style="mix-blend-mode:multiply" fill="url(#linear-gradient-26)" opacity=".3"/><path d="M1727.11 2157.4c190.6 108.84 433.42 38.29 541.68-162.79 110.51-205.27 36.66-462.94-164.14-570.07-197.66-105.46-438.46-21.76-538.77 181.71-98.33 199.43-26.5 443.95 161.23 551.15z" transform="translate(-331.27 -238.28)" opacity=".1" fill="#fff"/><path d="M1699.79 2210.43c218.71 125.5 498.26 45.44 623.53-185.69 128.28-236.69 43.14-534.37-189.1-657.6-228-121-504.94-23.56-619.69 210.74-112.14 228.97-29.67 509.22 185.26 632.55zm33.46-64.94c-181.6-103.6-251-340.07-155.85-532.88 97.06-196.57 329.78-277.23 520.66-175.27 193.8 103.53 265.12 352.29 158.55 550.54-104.47 194.34-339.08 262.73-523.36 157.61z" transform="translate(-331.27 -238.28)" fill="url(#linear-gradient-27)"/><path d="M1711.6 2187.51c206.56 118.28 470.21 42.3 588.09-175.83 120.55-223.07 40.31-503.39-178.29-619.68-214.87-114.29-476.15-22.82-584.67 198.12-106.19 216.22-28.32 481.04 174.87 597.39zm21.65-42c-181.6-103.6-251-340.07-155.85-532.88 97.06-196.57 329.78-277.23 520.66-175.27 193.8 103.53 265.12 352.29 158.55 550.54-104.47 194.32-339.08 262.71-523.36 157.59z" transform="translate(-331.27 -238.28)" fill="url(#linear-gradient-28)"/><path d="M2024 2460.54c0 52.75-43.35 97-97 98.87-53.83 1.86-97.61-39.66-97.61-92.75s43.78-97.37 97.61-98.89c53.63-1.52 97 40.01 97 92.77z" transform="translate(-331.27 -238.28)" fill="url(#linear-gradient-29)"/><path d="M2040.82 2460.54c0 52.75-43.35 97-97 98.87-53.83 1.86-97.61-39.66-97.61-92.75s43.78-97.37 97.61-98.89c53.65-1.52 97 40.01 97 92.77z" transform="translate(-331.27 -238.28)" fill="url(#linear-gradient-30)"/><g clip-path="url(#clip-path-4)"><path d="M2417.71 1442.2c0 213.48-301.8 608.78-440.21 779-34.62 42.58-99.54 44.22-134.37 3.24-140.69-165.56-455.81-561.28-455.81-781.43 0-284.53 236.22-511.79 523.13-507.67 282.07 4.05 507.26 230.96 507.26 506.86z" transform="translate(-331.27 -238.28)" fill="url(#linear-gradient-31)"/><path d="M2435.94 1442.2c0 213.48-301.81 608.78-440.22 779-34.62 42.58-99.54 44.22-134.37 3.24-140.69-165.56-455.81-561.28-455.81-781.43 0-284.53 236.22-511.79 523.13-507.67 282.07 4.05 507.27 230.96 507.27 506.86z" transform="translate(-331.27 -238.28)" fill="url(#linear-gradient-32)"/><path d="M1926.39 2014.57c32.66-212.33 173.91-281.45 149.75-480.46-27.91-229.88-235.21-292.21-240.24-498.21a320 320 0 0112.44-95.59c-249.43 34.75-442.8 245.43-442.8 502.69 0 220.15 315.12 615.87 455.81 781.43 20.51 24.13 51.47 33.47 80.51 28.38-24.97-92.23-25.72-171.52-15.47-238.24z" transform="translate(-331.27 -238.28)" fill="url(#linear-gradient-33)" opacity=".3"/><path d="M3175 856.9h-4.9a5.18 5.18 0 000 10.35h4.9a5.18 5.18 0 100-10.35z" transform="translate(-331.27 -238.28)" fill="url(#linear-gradient-34)"/></g><circle class="cls-5" cx="1613.07" cy="1181.45" r="259.93"/><path d="M3175.87 2306c-56.81 52.54-137.11 51.09-172.78 47.91q-7-17.6-14.11-35.11c.86-.62 1.73-1.28 2.55-1.93 58.44-44 91-108.52 78-163.79-6.69-28.38-24.7-51.05-45.81-68.71-38.35-32.15-87-47.64-96.38-50.6-.75-.24-1.51-.49-2.24-.69-43-13.25-58-4.49-73.26-20.73-47.19-50.43 12.34-226.7 98.34-239a93.86 93.86 0 0130.32.83c25.49 4.69 53.57 19.18 85.62 43.67 36.49 27.94 86.78 80.44 124.52 162.54 32.87 71.61 79.75 238.09-14.77 325.61z" transform="translate(-331.27 -238.28)" fill="url(#linear-gradient-35)"/><path d="M3089.77 2280.5c-29.73 15.25-64.67 28.08-98.24 36.33 58.44-44 91-108.52 78-163.79-6.69-28.38-24.7-51.05-45.81-68.71-29.72 57.23-54.72 121.46-67.72 184.17-.17.72-.35 1.48-.48 2.24-2.28 10.14-4.14 20.7-5.63 31.77-6.69 50.71-4.69 101-42.56 142.67-7.28 8-30.25 33.32-52.92 28.6-27-5.63-24.56-47.78-60.4-65.37-11.76-5.8-15.83-3.11-67.37-2.35-32.21.45-64.78.83-99.72-3.14-29.42-3.31-70.3-8-82.51-23.66 53.09-1.45 88.55-16.18 112.18-31.11 40.39-25.49 46.36-51.37 91.58-68.85 58.74-22.7 87 6.14 116.11-17.15 34.67-27.73 4-76 29.91-159.78 2.24-7.21 11.9-38.46 30.9-69.33 18.46-30.12 45.78-59.88 83.69-66.68 25.25-4.52 56.22 1 78.68 15.28 9.35 6 17.21 13.45 22.56 22.35 14.24 23.74-13.73 56.4 3.59 82.62s28.8 25.59 50.88 47.43c50.29 49.77-33.87 125.52-74.72 146.46z" transform="translate(-331.27 -238.28)" style="mix-blend-mode:multiply" fill="url(#linear-gradient-36)" opacity=".3"/><path d="M2999.17 2345.68l-7.19-20.27s-8.91.38-19.55-7.25c-5.8-4.16-16.09-5.4-19.08-4.57s-14.29.34-1.41 6.48 12.77 10.7 7.4 15.75-25.78 15.88-33.13 16.4 5.94 11.89 13.35 13.35 19.57 3.28 34.61-5.57c5.48-3.23 25-14.32 25-14.32z" transform="translate(-331.27 -238.28)" fill="url(#linear-gradient-37)"/><path d="M2864.55 1687.55a266.81 266.81 0 004.76 53.25c2.76 14.19 4.74 17.85 7.28 20.83 3.81 4.47 9.59 8.23 42.26 16.33 17.77 4.4 20.06 4.28 20.45 6 1.91 8.6-46.55 37.93-96.63 30.86-30.64-4.33-58.53-21.81-56.81-31s32.33-4.28 41.45-21c6.35-11.63-.76-28.14-9.17-41.81 8.14-15.2 38.27-18.2 46.41-33.46z" transform="translate(-331.27 -238.28)" fill="url(#linear-gradient-38)"/><path d="M2807.67 1696.56c-7.23-9.6-7.67-26.38.66-37 7.17-9.12 18.46-10.42 25.21-11.2 19.58-2.26 44.28 5.91 52.88 23.93 5.09 10.68-5.93 32.86-7.65 36.85-1.95 4.51-5.49 6.06-8.77 9.47-4.54 4.73-11.65 12.25-23.25 24.83a81.14 81.14 0 00-4.44-13.29 71.74 71.74 0 00-9.3-15.61c-10.21-12.42-18.48-8.87-25.34-17.98z" transform="translate(-331.27 -238.28)" fill="url(#linear-gradient-39)"/><path d="M2863.3 1732.88s-12.87 21.12-38.5 19.45c-22.94-1.49-26.3-52.95-11.65-63.86 4.89-3.65 14.69-5.16 22.65-2.93 4.7 1.32 6.29 3.27 14 5.28 7.12 1.85 9.14 1.06 11.29 2.86 2.69 2.27 4.66 7.82.17 22.86 4.37-4.43 9.63-6.13 13.35-4.37a7.88 7.88 0 013.06 3c3.22 5.83-2.14 13.36-14.37 17.71z" transform="translate(-331.27 -238.28)" fill="url(#linear-gradient-40)"/><path d="M2862.15 1690.61c-1.11.82 2.27 5 2.52 10.79.49 11.35-11 25-22.7 26.11-6.92.69-8.82-3.49-20.27-4.7a52.68 52.68 0 00-16.7 1c-3.59 12.44-.21 24.84 8.11 30.59 8.95 6.2 20.38 2.44 25.16.87 3.2-1 13.45-4.4 18.8-13.8 5.58-9.79.11-15.7 6.51-22.32 3.23-3.34 7.47-4.79 11.6-11.26a32.3 32.3 0 002.33-4.35c-5.92-6.31-13.76-14.13-15.36-12.93z" transform="translate(-331.27 -238.28)" fill="url(#linear-gradient-41)"/><path d="M2813.33 1728.39s5 2.59 13.52 2.11c.42 0 .88.09.93.31.2.81-5.3 4.45-10.36 3-3.59-1-6.39-4.41-5.91-5.28.21-.33 1.02-.28 1.82-.14z" transform="translate(-331.27 -238.28)" fill="url(#linear-gradient-42)"/><path d="M2392.21 2119.1s-42.69-8.41-39.67-23.07 3.45-25.75 14.23-17.19 53.46 34.02 25.44 40.26z" transform="translate(-331.27 -238.28)" fill="url(#linear-gradient-43)"/></g></g></svg>