<svg id="Слой_1" data-name="Слой 1" xmlns="http://www.w3.org/2000/svg" xmlns:xlink="http://www.w3.org/1999/xlink" viewBox="0 0 1647.94 1816.96"><defs><linearGradient id="linear-gradient" x1="1843.46" y1="1795.1" x2="1947.36" y2="1795.1" gradientUnits="userSpaceOnUse"><stop offset="0" stop-color="#fff"/><stop offset=".99"/></linearGradient><linearGradient id="linear-gradient-2" x1="1745.15" y1="686.1" x2="1944.42" y2="242.16" gradientUnits="userSpaceOnUse"><stop offset="0" stop-color="#ff9f55"/><stop offset="1" stop-color="#ffd255"/></linearGradient><linearGradient id="linear-gradient-3" x1="1657.78" y1="270.2" x2="1839.39" y2="45.71" xlink:href="#linear-gradient-2"/><linearGradient id="linear-gradient-4" x1="876.07" y1="938.88" x2="1835.78" y2="938.88" xlink:href="#linear-gradient-2"/><linearGradient id="linear-gradient-5" x1="843.09" y1="868.27" x2="1369.98" y2="975.89" gradientUnits="userSpaceOnUse"><stop offset="0" stop-color="#9a5cff"/><stop offset=".54" stop-color="#695adc"/><stop offset=".99" stop-color="#4059bf"/></linearGradient><linearGradient id="linear-gradient-6" x1="488.33" y1="1390.83" x2="916.71" y2="1390.83" gradientUnits="userSpaceOnUse"><stop offset="0" stop-color="#9a5cff"/><stop offset=".99" stop-color="#4059bf"/></linearGradient><linearGradient id="linear-gradient-7" x1="1434.74" y1="1745.74" x2="1538.64" y2="1745.74" gradientUnits="userSpaceOnUse"><stop offset="0" stop-color="#bad0de"/><stop offset="1" stop-color="#f5f2ff"/></linearGradient><linearGradient id="linear-gradient-8" x1="1843.46" y1="1795.1" x2="1947.36" y2="1795.1" gradientUnits="userSpaceOnUse"><stop offset="0" stop-color="#9fa0ad"/><stop offset=".99" stop-color="#55b5ff"/></linearGradient><linearGradient id="linear-gradient-9" x1="963.54" y1="1610.32" x2="1030.8" y2="1210.1" gradientUnits="userSpaceOnUse"><stop offset="0" stop-color="#e36c44"/><stop offset="1" stop-color="#f75a5a"/></linearGradient><linearGradient id="linear-gradient-10" x1="1406.35" y1="1665.4" x2="1473.62" y2="1265.19" xlink:href="#linear-gradient-9"/><linearGradient id="linear-gradient-11" x1="1280.59" y1="1644.27" x2="1347.85" y2="1244.05" xlink:href="#linear-gradient-9"/><filter id="luminosity-noclip" x="1843.46" y="-9192" width="103.9" height="32766" filterUnits="userSpaceOnUse" color-interpolation-filters="sRGB"><feFlood flood-color="#fff" result="bg"/><feBlend in="SourceGraphic" in2="bg"/></filter><filter id="luminosity-noclip-2" x="1843.46" y="1756" width="103.9" height="78.19" filterUnits="userSpaceOnUse" color-interpolation-filters="sRGB"><feFlood flood-color="#fff" result="bg"/><feBlend in="SourceGraphic" in2="bg"/></filter><style>.cls-7{fill:#323657}.cls-12{fill:#cac7d1}.cls-13{fill:#1d2033}.cls-14{fill:#eea987}.cls-15{fill:#c78d71}.cls-16{fill:#a09ea6}.cls-17{fill:#eae6f2}.cls-22{fill:#1a598c}.cls-25{fill:#3d8ed1}.cls-26{fill:#f5eeec}.cls-27{fill:#ded7d5}.cls-28{fill:#eea886}.cls-29{fill:#ffc355}.cls-35{fill:#81a358}.cls-41{fill:#699331}.cls-48{fill:#918783}.cls-49{fill:#1d3b54}.cls-51{fill:#152c3d}.cls-52{fill:#a77860}.cls-56{fill:#bfb2ac}.cls-58{fill:#b37952}.cls-60{fill:#807066}.cls-61{fill:#6e6760}.cls-64{fill:#d9d9d9;opacity:.72}.cls-65{fill:#fff}.cls-66{fill:#ffdc7d}</style><mask id="mask-2" x="1434.74" y="1706.65" width="103.9" height="78.19" maskUnits="userSpaceOnUse"><g filter="url(#luminosity-noclip-2)"><g mask="url(#mask)" transform="translate(-408.72 -49.36)"><path d="M1947.36 1756s-54 8.52-54 78.19H1868l-24.54-78.19z" style="mix-blend-mode:multiply" fill="url(#linear-gradient)"/></g></g></mask></defs><path d="M2018.19 469.17a160.09 160.09 0 009.32-43.59l29.15-11.65-6.16-33.54-6.16-33.55-31.34-.54a159.7 159.7 0 00-24.19-37.43l12.31-28.87-28.07-19.36-28.05-19.33-22.55 21.8a159.72 159.72 0 00-43.59-9.32l-11.65-29.15-33.54 6.16-33.58 6.2-.53 31.39a159.28 159.28 0 00-37.43 24.19l-28.83-12.36-19.37 28.07-19.36 28.08 21.8 22.55a159.35 159.35 0 00-9.32 43.59l-29.16 11.65 6.16 33.54 6.16 33.55 31.39.53a159.6 159.6 0 0024.19 37.43L1733.43 548l28.07 19.37 28.08 19.36 22.55-21.8a159.35 159.35 0 0043.59 9.32l11.65 29.16 33.55-6.16 33.54-6.16.54-31.39a160 160 0 0037.43-24.19l28.83 12.36 19.36-28.07 19.38-28.08zm-198.4 13.69a83.62 83.62 0 11116.32-21.35 83.62 83.62 0 01-116.32 21.35z" transform="translate(-408.72 -49.36)" fill="url(#linear-gradient-2)"/><path d="M1835.37 162.52a73.93 73.93 0 004.32-20.17l13.49-5.4-2.85-15.52-2.85-15.52-14.53-.25a73.52 73.52 0 00-11.2-17.32l5.73-13.34-13-9-13-9-10.44 10.09a73.55 73.55 0 00-20.17-4.31l-5.39-13.49-15.48 2.92-15.53 2.85-.24 14.52a73.89 73.89 0 00-17.33 11.2l-13.34-5.72-9 13-9 13 10.09 10.44a73.93 73.93 0 00-4.32 20.17l-13.44 5.33 2.85 15.53 2.85 15.52 14.53.25a73.72 73.72 0 0011.2 17.32l-5.73 13.38 13 9 13 9 10.41-10.16a74.29 74.29 0 0020.17 4.31l5.39 13.49 15.52-2.85 15.53-2.85.24-14.53a73.85 73.85 0 0017.33-11.19l13.34 5.72 9-13 9-13zm-91.81 6.33a38.7 38.7 0 1153.83-9.88 38.7 38.7 0 01-53.83 9.88z" transform="translate(-408.72 -49.36)" fill="url(#linear-gradient-3)"/><path fill="#ffb955" d="M1120.36 1072.59h150.95V1182H1143.4l-23.04 23.04v-132.45z"/><path d="M1078.6 1313.35c0-158.49 12.26-226 36.82-285.86s75.16-112 151.9-156.5q34.52-20.72 85.15-47.18a691.22 691.22 0 0099-63.29 362.86 362.86 0 0081.7-86.31q33.33-49.46 33.37-113.92 0-48.33-18.41-85.15a195 195 0 00-48.36-62.14q-29.94-25.31-70.2-38a271.92 271.92 0 00-81.7-12.65q-50.65 0-92.06 17.26a314 314 0 00-74.81 43.74 368.18 368.18 0 00-59.84 59.84 656.63 656.63 0 00-44.88 63.29L876.07 408.39q29.93-71.29 79.4-126.58a486.23 486.23 0 01112.78-93.2 527.83 527.83 0 01136.93-57.54 590 590 0 01151.9-19.56 603.43 603.43 0 01172.61 25.31 438.34 438.34 0 01153 80.55q67.86 55.25 110.47 141.54t42.58 206q0 73.68-17.26 130A361.91 361.91 0 011769 797.34a431.52 431.52 0 01-76 82.85q-43.74 36.84-99 71.35-46.07 27.62-92.06 52.93a553 553 0 00-84 56.39 274.3 274.3 0 00-62.14 71.34c-16.11 26.86-24.17 59.48-24.17 181.15zm4.6 452.9v-317.6h255.47v317.6z" transform="translate(-408.72 -49.36)" fill="url(#linear-gradient-4)"/><path class="cls-7" d="M1535.28 945.91s-83.17 73.62-107.8 93.29c-11.38 9.09-38.42 9.84-67.41 9.88-9.55 0-20.33.47-29.88 0-38.1-1.91-71.15-5.41-71.15-5.41s-98.8 5-94-56.29c0 0 11.5-18.54 26.25-22.78 13.63-3.91 79.65 6.91 90.45 7.39 11.89.52 94.54 16.58 97.55 16.09 3.8-.63 39.24-21.43 58.18-33 28.93-17.59 56.42-31.75 56.42-31.75z" transform="translate(-408.72 -49.36)"/><path fill="url(#linear-gradient-5)" d="M1288.21 994.92L657.8 885.98l15.03-88.23 630.4 108.95-15.02 88.22z"/><path transform="rotate(9.66 1148.248 -1553.87)" fill="#2d3038" d="M1046.11 846.43h28.12v84.86h-28.12z"/><path d="M734.45 490.76c-179.9 0-325.73 145.84-325.73 325.73s145.83 325.73 325.73 325.73 325.72-145.83 325.72-325.73-145.83-325.73-325.72-325.73zm0 598A272.2 272.2 0 01494 944.2a271 271 0 01-31.75-127.71c0-150.35 121.88-272.24 272.24-272.24a272.22 272.22 0 01272.23 272.24c-.04 150.35-121.92 272.24-272.27 272.24z" transform="translate(-408.72 -49.36)" fill="#3f444f"/><path d="M917.66 615.12S564.36 571.34 494 944.2a271 271 0 01-31.75-127.71c0-150.35 121.88-272.24 272.24-272.24a271.25 271.25 0 01183.17 70.87z" transform="translate(-408.72 -49.36)" fill="#c2c2c2" opacity=".3"/><path class="cls-12" d="M931.9 1413.09s32.17 9.77 45.65 7.3 6.66-167.83 7.19-202.23c.41-27.91 15.68-101.59 15.68-101.59a.56.56 0 000 .12.13.13 0 010 .09v.12c1.52 5.52 22.12 82 22.84 118.72.76 38.12-5 184-5 184l56.8 5.53 163.25 4 34-4s-4.07-62.36-5.58-92c-.94-18.83-4.6-52.54-3.66-85.37 0 0-.59-34.61 2.84-49.52.37-65.78 4.35-130.94 4.35-130.94q3.31-44.74 4.62-83.74c-7.19-3.8-15.84-8.26-22.77-11.55-21.42-10.2-51.27-23.94-70.43-32.73-11.22-5.15-22.2-8.91-22.2-8.91s-76.56-7.34-82.78-7c-2 .12-11.53 3.45-24.08 8.24-27.15 10.3-79.49 31.28-87.83 37.27-12.22 8.75-38.06 216.7-39.23 231.26-1.96 26.24 6.34 212.93 6.34 212.93z" transform="translate(-408.72 -49.36)"/><path class="cls-13" d="M1267.53 1399s-112 9.55-210.17 0v32.21s147.37 21.28 215.09-6.15z" transform="translate(-408.72 -49.36)"/><path class="cls-7" d="M1290.35 1430.86c-7-38.27-14.54-86.29-19.93-130.62v-.18c-.46-3.75-.93-7.51-1.35-11.24a3.85 3.85 0 00-.07-.57c-1.78-15.71-3.27-30.71-4.33-44.47a140 140 0 011.35-30.93c4.29-70.39 6.42-144.59 6.42-144.59 2.23-30.36 8.47-69.83 9.33-96.29-10.43-2-17.28-2.2-26.78-5.5 0 0-61.43-22.34-83-31.45 0 0 18.23 42.84 31.92 138.53 5.25 36.74 15 98.63 22.06 161.79 2.8 24.9 7.34 50.11 11.74 73.87s8.58 46.07 10.64 65.12c1.38 12.91 3.65 34 6.07 56.53.39 3.48.74 7 1.13 10.47h36.78c-.67-3.41-1.33-6.89-1.98-10.47z" transform="translate(-408.72 -49.36)"/><path class="cls-12" d="M1166.22 957.36s2 29.3-22.74 30-44.48-23.14-44.48-23.14l41.15 10.61 25-21.22z" transform="translate(-408.72 -49.36)"/><path class="cls-14" d="M1132.76 732.9s56.85 9.59 47.21 98.59-59.83 81.15-63.18 81-50.48 1.07-53-107.75c.04.03-.69-80.43 68.97-71.84z" transform="translate(-408.72 -49.36)"/><path class="cls-14" d="M1157.67 886.72s0 36.66 1.5 44.6c1.62 8.54-45.65 33.2-76.17 4.46 0 0 6.17-40 4.26-54.17s70.41 5.11 70.41 5.11zm22.52-75.96s6.3-6.59 8.52.18-8 35.38-9.31 38.13c0 0-1.17 2.6-2.65 1.14s3.44-39.45 3.44-39.45zm-115.71-6.82s-6-6.85-8.52-.18 6.6 36.63 7.73 38.48c0 0 2 3.07 3.5 1.68s-2.71-39.98-2.71-39.98z" transform="translate(-408.72 -49.36)"/><path class="cls-7" d="M1184.76 798.77C1182.8 811 1181 820 1181 820l-8.28 10.81s.49-23.89-.77-27.65c-.48-1.42-1-3.94-1.62-6.67-1-4.5-1.93-9.58-2.59-11.27-1.07-2.71-48.73-16.63-91.17 2.91 0 0 .36 3.68.33 7.78 0 4.77-.54 10.11-2.73 10.92-4.07 1.48-2.37 28-2.37 28l-6.61-7.64s-1.92-13.83-3.8-29.72a1.13 1.13 0 010-.12c-.42-3.7-.86-7.52-1.27-11.3-1-16 .63-45 21.45-62.07 14-6 36.47-11.12 73.86.32 0 0 8.58.58 11 2.89 23.2 25.58 18.33 71.58 18.33 71.58z" transform="translate(-408.72 -49.36)"/><path class="cls-15" d="M1091.16 900.62s9.07 12.6 30.15 12.12 30.23-11.46 30.23-11.46-10 20.87-30.33 20.65-30.05-21.31-30.05-21.31z" transform="translate(-408.72 -49.36)"/><path class="cls-16" d="M1161.37 959.14l-21.21 15.69s17.73-37.77 18.09-52.9z" transform="translate(-408.72 -49.36)"/><path class="cls-17" d="M749.53 872.58l14.52 13.41 15.18 45.26-26.58-21.46-3.12-37.21z"/><path class="cls-14" d="M1155.61 935.43a250 250 0 01-15.45 39.4s-22.26-19.5-29.27-26.45 44.72-12.95 44.72-12.95z" transform="translate(-408.72 -49.36)"/><path class="cls-16" d="M1116.87 953l23.29 21.8s-27.54-1.83-32.68-6.41z" transform="translate(-408.72 -49.36)"/><path class="cls-17" d="M1086 912.87s18.63 30.28 30.9 40.16l-20.67 34.31-33.13-60.19z" transform="translate(-408.72 -49.36)"/><path class="cls-7" d="M1120.43 1131.28c-4.5-86.78-51.92-198.07-57.35-204.14-4.22 1.6-19.08 7.84-23.76 9.69-25.64 10.14-77.95 28.65-85 33.72-12.24 8.76-35.36 226.81-36.81 241.35-2 20 4.22 210.52 4.22 210.52s31.49 6.92 51.1 8.44a65.1 65.1 0 009.93.22c-1.17 3.51-2.3 7-3.44 10.25h111.51c.32-3.41.67-6.92 1-10.47 1.34-14 2.83-29 4.39-44.58 4.08-40.68 9.65-78.62 14.69-127.25 4.7-45.57 10.9-101.32 9.52-127.75zm-133.35 88.46c3-40.61 15.61-92 15.61-92 7 24.37 15.92 135.27 15.92 135.27 0 34.82-13.73 94.94-28.44 144.34 2.83-49.69-4.93-162.72-3.09-187.61z" transform="translate(-408.72 -49.36)"/><path class="cls-7" d="M989.17 1309l-.71 121.82-.07 10.47h-43.9c-7-1.95-14.65-4.4-22.77-7.38v-3.09l-2.62-194.92z" transform="translate(-408.72 -49.36)"/><path fill="#3a4066" d="M726.26 1351.67h52.81v39.26h-52.81z"/><path d="M1492.19 918.12S1487 941 1492 947.28s7.26-1.79 7.26-1.79-2.43 8 3.81 10.68 8.45-7 8.45-7a6.77 6.77 0 006.85 6.94c7.05.36 7-8.1 7-8.1s4.91 9.49 10.63 2.92c9.64-11.09 5.81-27.9 5.81-27.9s-1.32-4-8.12-3.84c0 0-2.55-10-13.49-5.91 0 0-8.79-8-14.17.06.03.01-9.83-7.95-13.84 4.78z" transform="translate(-408.72 -49.36)" fill="#efaa88"/><path fill="url(#linear-gradient-6)" d="M488.33 1381.51h428.39v18.65H488.33z"/><path class="cls-14" d="M649.18 1095.63s31.44 5.3 26.11 54.54-33.09 44.89-34.95 44.82-27.92.59-29.3-59.61c-.04 0-.4-44.5 38.14-39.75z" transform="translate(-408.72 -49.36)"/><path class="cls-14" d="M663 1181.53s-1.2 20.42.71 24.83-25.13 18.21-42 2.32c0 0 3.41-22.15 2.35-30s38.94 2.85 38.94 2.85zm12.93-45.28s3.49-3.65 4.71.1-4.41 19.88-5.15 21.09c0 0-.64 1.44-1.46.63s1.9-21.82 1.9-21.82zm-64.53-1.33s-3.33-3.78-4.71-.09 3.65 20.26 4.28 21.28c0 0 1.08 1.7 1.93.93s-1.5-22.12-1.5-22.12z" transform="translate(-408.72 -49.36)"/><path class="cls-15" d="M626.16 1188.41s5 7 16.68 6.7 16.73-6.34 16.73-6.34-5.52 11.55-16.78 11.43-16.63-11.79-16.63-11.79z" transform="translate(-408.72 -49.36)"/><path class="cls-13" d="M545.84 1821.54s-4.3 9.66-7.93 13.49-17.5 10.68-17.57 22c-.08 12.34 23.39 8.92 32.57 8.47s9.88-7 13.75-14 7.76-5.8 8.48-11.43-3-18.25-3-18.25z" transform="translate(-408.72 -49.36)"/><path d="M545.44 1818l-.67 5.85s14.44 4.85 28.09.51l-.76-8z" transform="translate(-408.72 -49.36)" fill="#50558a"/><path class="cls-22" d="M715.95 1794.64l-3.3-.13 16.62-417.45H441.68l-16.64 417.58-3.3-.13 16.76-420.76h294.22l-16.77 420.89z"/><path class="cls-22" d="M742.89 1794.64l-16.64-417.58h-287.6l16.63 417.45-3.3.13-16.77-420.89h294.22l16.76 420.76-3.3.13z"/><path fill="#bfb9b7" d="M453.63 1658.83h290.91l-16.7-419.18h-290.9l16.69 419.18z"/><path fill="#f2ebe9" d="M706.09 1658.83h-290.9l16.69-419.18h290.91l-16.7 419.18z"/><path class="cls-25" d="M508.42 1532.55l-3.17-1.13 27.57-77.35 59.79-15.82 21.49-84.89 46.14-20.37 10.34-66.01 3.32.52-10.62 67.83-46.32 20.44-21.57 85.23-60 15.87-26.97 75.68z"/><path class="cls-26" d="M1009.67 1483.3A9 9 0 11997 1482a9 9 0 0112.67 1.3z" transform="translate(-408.72 -49.36)"/><path class="cls-25" d="M1009.46 1497.23a10.65 10.65 0 111.51-15 10.66 10.66 0 01-1.51 15zm-11.35-13.89a7.29 7.29 0 1010.26 1 7.29 7.29 0 00-10.26-1z" transform="translate(-408.72 -49.36)"/><path class="cls-26" d="M1031.44 1398.75a9 9 0 11-12.63-1.27 9 9 0 0112.63 1.27z" transform="translate(-408.72 -49.36)"/><path class="cls-25" d="M1031.24 1412.68a10.66 10.66 0 111.5-15 10.67 10.67 0 01-1.5 15zm-11.36-13.89a7.29 7.29 0 1010.26 1 7.29 7.29 0 00-10.26-1z" transform="translate(-408.72 -49.36)"/><path class="cls-26" d="M1076.87 1377.81a9 9 0 11-12.62-1.27 9 9 0 0112.62 1.27zm-126.76 122.1a9 9 0 11-12.63-1.27 9 9 0 0112.63 1.27z" transform="translate(-408.72 -49.36)"/><path class="cls-25" d="M949.9 1513.84a10.65 10.65 0 111.51-15 10.67 10.67 0 01-1.51 15zm-11.35-13.9a7.29 7.29 0 1010.26 1 7.29 7.29 0 00-10.26-1z" transform="translate(-408.72 -49.36)"/><rect class="cls-27" x="467.84" y="1330.44" width="89.83" height="18.61" rx="2.27"/><rect class="cls-27" x="467.84" y="1297.91" width="89.83" height="18.61" rx="2.27"/><path class="cls-25" d="M1076.67 1391.74a10.66 10.66 0 111.51-15 10.68 10.68 0 01-1.51 15zm-11.36-13.9a7.29 7.29 0 1010.26 1 7.31 7.31 0 00-10.26-1z" transform="translate(-408.72 -49.36)"/><path class="cls-25" d="M484.01 1607.25l-2.02-1.45 35.45-49.37 45.77.99 32.66-55.98 36.99-5.04 20.87-44.83 2.26 1.05-21.44 46.07-37.14 5.05-32.79 56.21-45.92-1-34.69 48.3z"/><path class="cls-26" d="M978.74 1605.42a6.64 6.64 0 11-8.73-3.48 6.65 6.65 0 018.73 3.48z" transform="translate(-408.72 -49.36)"/><path class="cls-25" d="M975.74 1615.29a7.89 7.89 0 114.14-10.36 7.91 7.91 0 01-4.14 10.36zm-5.24-12.21a5.4 5.4 0 107.09 2.83 5.41 5.41 0 00-7.09-2.83z" transform="translate(-408.72 -49.36)"/><path class="cls-26" d="M1011.53 1549.75a6.64 6.64 0 11-8.72-3.49 6.64 6.64 0 018.72 3.49z" transform="translate(-408.72 -49.36)"/><path class="cls-25" d="M1008.54 1559.61a7.89 7.89 0 114.14-10.35 7.9 7.9 0 01-4.14 10.35zm-5.24-12.21a5.4 5.4 0 107.09 2.84 5.41 5.41 0 00-7.09-2.84z" transform="translate(-408.72 -49.36)"/><path class="cls-26" d="M1048.14 1544.15a6.64 6.64 0 11-8.73-3.49 6.65 6.65 0 018.73 3.49zM933 1605a6.64 6.64 0 11-8.72-3.49A6.64 6.64 0 01933 1605z" transform="translate(-408.72 -49.36)"/><path class="cls-25" d="M930 1614.9a7.88 7.88 0 114.14-10.35 7.89 7.89 0 01-4.14 10.35zm-5.24-12.21a5.4 5.4 0 107.09 2.84 5.42 5.42 0 00-7.11-2.84zm120.38-48.69a7.89 7.89 0 114.14-10.36 7.91 7.91 0 01-4.14 10.36zm-5.23-12.21a5.4 5.4 0 107.08 2.83 5.4 5.4 0 00-7.08-2.81z" transform="translate(-408.72 -49.36)"/><path class="cls-28" d="M831.71 1304.88s9.48-3 10.25-8.59c.65-4.78 4.94-10.49 6.26-12.25 1.76-2.35 4.48-11.59 7.47-9.4s-3.75 15.45-4.61 18.51 12.11-2.76 15.32-2S878 1314 868.68 1317s-21.33 0-22.87.81a62 62 0 01-6.73 2.42z" transform="translate(-408.72 -49.36)"/><path class="cls-28" d="M864.05 1291.37s29.27-7.19 31.62-6 2.65 2.76-.06 3.55-28.08 7.76-28.08 7.76 36.08-2.69 38.21-2.16c1.25.31 2 3.39.59 3.94s-37 5.26-37 5.26 33.69-2.44 35.34-1.47a2.32 2.32 0 01-1 4.2c-2.49.35-33.63 4.39-33.63 4.39s24.63-.24 25.55 1.41c.56 1 1.34 3.64-5 3.5s-21.39 1.11-21.39 1.11z" transform="translate(-408.72 -49.36)"/><path class="cls-29" d="M692.66 1273.33s7.61 13.42 17.77 28.51c.94 1.38 1.9 2.79 2.87 4.19q2 2.87 4 5.72c1.65 2.27 3.32 4.52 5 6.71 9.43 12.23 19.35 22.63 26.88 24.48 16.3 4 98.18-14.14 98.18-14.14l-6.32-32.2s-28.71 9.78-47.9 11.38c-11.76 1-26.44 4.84-28.18 3.75s-35.26-49.51-37.66-54.73-13.14-25.73-22.29-35.52-19.1-6.08-19.1-6.08c-27.43 17.85 6.75 57.93 6.75 57.93z" transform="translate(-408.72 -49.36)"/><path d="M729.67 1818.68s12.66 13.3 25.52 16.09 21.85 6.34 21.94 14-37 12.66-51.71 5c-21.95-11.48-24.19-8-26.62-13.75s2.92-21.09 2.77-22.92c-.2-2.32 28.1 1.58 28.1 1.58z" transform="translate(-408.72 -49.36)" fill="#202338"/><path d="M728.25 1812.32s1.67 6.23 1.42 6.36-29 3.35-28.1-1.65c.7-4 1.71-8.46 1.71-8.46z" transform="translate(-408.72 -49.36)" fill="#2f6b8c"/><path d="M699.27 1438.18s13.31 96.62 18.74 129.28c6.35 38.19 8.5 69.74 10.28 89.51 2.22 24.86 5.18 152.09 6.74 159.36s-38.75 3.49-38.75 3.49-21.11-165.82-27.74-192.34c-6.18-24.65-24.17-131.14-29.81-124.41S609 1631.3 604.81 1650.75s-27.53 175.38-27.53 175.38-25 4.54-40.16-3.11c0 0 11.76-136.39 14.42-172.85 1-13.89 3.48-166.53 27-228 12.39-32.48 120.73 16.01 120.73 16.01z" transform="translate(-408.72 -49.36)" fill="#292c47"/><path class="cls-29" d="M660.25 1206.46s35.2 7.27 39.37 11c4.54 3.94 12.53 42.49 13 53.23s-4.24 55.59-8.78 72.3-2.89 98.88 0 122c0 0-52.16 23.36-140.19 2.16 0 0 15.32-76.19 12.53-99.08-3.57-29.32-10.6-101.29-10.6-101.29s-.21-44 6-49.27 51.87-11 51.87-11z" transform="translate(-408.72 -49.36)"/><path class="cls-29" d="M591.44 1215.39s22 6.07 9.92 46.54c-9.5 31.7-10.78 38.5-10.78 38.5l-50.88-12.7s13-67 37.38-72.72c0-.01 9.63-1.76 14.36.38z" transform="translate(-408.72 -49.36)"/><path d="M710.43 1301.84c.94 1.38 1.9 2.79 2.87 4.19q2 2.87 4 5.72c1-18.85-3.91-45-3.91-45 1 8.78-2.96 35.09-2.96 35.09z" transform="translate(-408.72 -49.36)" fill="#a67f37"/><path class="cls-29" d="M662.79 1201.33s-21.76 6.4-40-1.13l-1.26 8.91s24.44 9.28 43.54 5z" transform="translate(-408.72 -49.36)"/><path class="cls-28" d="M538 1463.72s1.86 11.39 3.4 13.53 5.55 12.78 6 14.28 2.75 12.2 3.16 13.56-2.67 3.37-4.67.47c-1.24-1.8-3.3-8.75-4.16-11s-3.49-9.36-4.28-8.09-.87 10.69-1.07 13.11 1.15 9.92 1.79 13 4.39 16.16 2.72 16.81-3 .42-5.08-3.11c0 0-3.42 1.79-5.27-2.52 0 0-3 1-4.75-4.6a7.48 7.48 0 01-2.89-3.24c-.77-2-5.19-19.17-5-26.12s2-11.73 1.83-16.64-2.38-15.46-2.38-15.46z" transform="translate(-408.72 -49.36)"/><path class="cls-29" d="M544 1475.74a136.23 136.23 0 01-29.59.46s9.88-112.25 9.37-118.59c-.47-5.87 22.66-110.16 35.37-126l19.33 61c-1.48-.47-21 62.21-21.31 68.66-.33 8.73-13.17 114.47-13.17 114.47z" transform="translate(-408.72 -49.36)"/><path d="M678.17 1127.19c1-13.08 0-23.88-1.71-30.56-2.09-8.23-15.41-6-15.41-6-20.31-6.08-32.55-3.28-40.24 0-11.52 9.43-12.39 25.49-11.87 34.34.23 2.09.47 4.2.71 6.25a.15.15 0 000 .06c1 8.79 2.1 16.44 2.1 16.44l3.66 4.23s-.94-14.65 1.31-15.47c1.21-.44 1.5-3.4 1.51-6 0-2.27-.19-4.3-.19-4.3 23.48-10.81 49.85-3.11 50.44-1.61.37.93.9 3.74 1.43 6.23a37.9 37.9 0 00.9 3.69c.7 2.08.43 15.3.43 15.3l4.57-6s.58-2.85 1.34-7.15c.24-1.4.5-2.94.77-4.59.02.02.22-1.85.25-4.86z" transform="translate(-408.72 -49.36)" fill="#fccca2"/><path class="cls-35" transform="rotate(-3.86 969.29 7735.865)" d="M1902.71 1629.24h1.52v129.47h-1.52z"/><path class="cls-35" transform="rotate(-3.46 853.992 8322.33)" d="M1874.48 1405.3h1.52v350.98h-1.52z"/><path class="cls-35" d="M1485.93 1305.4h1.52v408.7h-1.52z"/><path class="cls-35" transform="rotate(-88.71 1682.642 1822.483)" d="M1789.79 1637.39h244.76v1.52h-244.76z"/><path d="M1894.52 1438.36s-42.48-36.23-29.87-72.39 74.85-16.59 55.08 48.65a44.89 44.89 0 01-25.21 23.74z" transform="translate(-408.72 -49.36)" fill="#71a334"/><path d="M1498.78 1370.78l-1.52-.13 3.29-38.79 2.02-5.76-3.79 44.68zm-20.91.92l-1.52-.03 1.24-61.3 1.32 9.76-1.04 51.57zm-7.86-9.99l-7.4-42.07 2.68 6.46 6.22 35.35-1.5.26z" fill="#60892c"/><path d="M1867.67 1497.82s-36.82-47.66-17.65-81.33 142.52-5.84 86.75 115.7-98.86 39.79-98.86 39.79z" transform="translate(-408.72 -49.36)" fill="#86bc44"/><path d="M1491.2 1535.27l-1.47-.39 33.46-125.87 3.98-9.08-35.97 135.34zm-10.58-11.98l-1.52-.07 6.45-141.86 1.88-8.01-6.81 149.94zm-14.86-46.53l-6.32-101.44 2.05 8.52 5.79 92.83-1.52.09z" fill="#7ba840"/><path d="M1895.41 1540.67s-5.55-81.77-52.45-51.65-58.51 148.19 52.45 184.07z" transform="translate(-408.72 -49.36)" fill="#70a333"/><path class="cls-41" d="M1494.05 1569.92l-47.51-114.79-2.37-9.71 51.28 123.91-1.4.59z"/><path class="cls-41" d="M1910.5 1627.37c-4.25-.16-11.27-5.46-21.44-16.22-7.93-8.38-17.69-20-29-34.58-19.27-24.79-31.09-42-31.26-42.2l-4.29-8.73c.17.25 17.51 25.25 36.75 50 32 41.18 44.49 50 49.32 50.21zm7.1 15.42c-9.77 0-29.78-10.87-59.45-32.3-22-15.9-41.47-32-41.66-32.18l6.09 3c7.4 6 72.38 60 95 60zm-66.33-5.23c1.17.63 8.26 1.81 26.56 5 10.2 1.76 35.08 5.88 45.76 6.14v1.52c-10.93-.27-36.3-4.48-46.69-6.28-8.45-1.46-17-3.05-23.49-4.36-10.38-2.09-10.75-2.48-11-2.74z" transform="translate(-408.72 -49.36)"/><path d="M1910.47 1720.05s-38.76-40.84-29.68-103.59 79.69-62.68 79.18-1.72-13.28 77.91-49.5 105.31z" transform="translate(-408.72 -49.36)" fill="#b1d045"/><path d="M1504.79 1665.75l-1.34-.36 19.34-128.29 2.75-8.63-19.33 128.86 37.18-105.9.29 3.9-38.89 110.42zm-3.44.97l-20.76-99.27-.18-7.65 20.6 97.72-5.51-123.73 2.24 12.65 5.02 119.88-1.41.4z" fill="#9eb24e"/><path fill="url(#linear-gradient-7)" d="M1538.64 1706.65l-24.53 78.19h-54.83l-24.54-78.19h103.9z"/><g mask="url(#mask-2)"><path d="M1947.36 1756s-54 8.52-54 78.19H1868l-24.54-78.19z" transform="translate(-408.72 -49.36)" fill="url(#linear-gradient-8)"/></g><path class="cls-28" d="M1569.84 1450.31a101.28 101.28 0 0011.52 1.69c3.73.12 21-7.7 26.49-7s41.49 16 43.13 17.15-.77 3.57-.77 3.57l-82.6 1z" transform="translate(-408.72 -49.36)"/><path class="cls-48" d="M966.53 1568.37h13.8v174.23h-13.8z"/><path class="cls-49" d="M1555.42 1771.41a74.29 74.29 0 002.64 16.67c1.83 6.57 5.51 32 10.21 35.6s19.86 13 17.64 22.7-4.12 16.46-20.48 10.72-27.31-9-30.45-23.39-12.1-27.45-12.1-27.45l-11.88 29.43-6.23-2.51s9.43-31.78 8.62-34.62 4.32-28.08 24.12-34.34 17.91 7.19 17.91 7.19zm109.33 9.28a74.13 74.13 0 008.67 14.48c4.15 5.42 17.07 27.67 22.75 29.22s23.28 4.66 24.83 14.48 2.33 16.81-15 17.59-28.7 1.81-37-10.34-21.46-20.95-21.46-20.95v31.71h-6.73s-3.1-33-4.91-35.33-6.47-27.67 9.57-40.86 19.28 0 19.28 0z" transform="translate(-408.72 -49.36)"/><path class="cls-28" d="M1488.57 1349.75s3.85-13.66 4.23-15.44 4-5.32 8.56-9 12.32-6.65 13.29-6.36a5.15 5.15 0 013.66 2.21 9.8 9.8 0 011.81 4.64s3.14 1.6 3.17 4.83a5.21 5.21 0 012.32 5.32s2.78 1.67 2.14 4.31a39.62 39.62 0 00-4.62 5.25c-1 1.71-9.06 8.57-17.83 14 0-.06-11.2 8.21-16.73-9.76z" transform="translate(-408.72 -49.36)"/><path class="cls-49" d="M1353.57 1373.23c5.44-8.82 12.7-12.78 35.76 3.17s17.65 12.82 23.17 17.88 29.72 17.7 29.72 17.7 14.13-14 20.91-24c7.64-11.25 23.59-41.3 23.59-41.3l22.36 16.65s-43.44 78.76-52.51 84.59-36.42-3.92-50.65-9.92-29.31-13.75-35.81-15.37-30.74-26.41-16.54-49.4z" transform="translate(-408.72 -49.36)"/><path d="M1513.42 1319.86s-11.27 9.65-10 11.66a3.81 3.81 0 003 1.94l-2.84 6.07s.39 5.09 5.82 3.17c0 0-.13 4.79 4.89 2.32 0 0 1.32 3.19 3.85 2.46s9.52-7.24 9.52-7.24.86-2-2.14-4.31a5.12 5.12 0 00-2.32-5.32s.17-2.88-3.17-4.83c0 0-.13-6.46-5.47-6.85.09 0-.67.52-1.14.93z" transform="translate(-408.72 -49.36)" fill="#db9c7c"/><path class="cls-51" d="M1461.07 1421.07s4.55-16.46-.81-29.2c0 0 2 13.19-3.74 22.57-4.18 6.79 4.55 6.63 4.55 6.63z" transform="translate(-408.72 -49.36)"/><path class="cls-28" d="M1633.88 1604.11l-35.35 79.52c-2.47 5.58-4.78 10.77-6.8 15.3l-5.67 12.76c-9.37 21.08-32.42 67-32.42 67s-17.34.66-18.35-14.07c0 0 16.64-31.9 16.64-54.32s3-88.47 24.43-102.74c26.12-17.37 43.08-20.66 57.52-3.45z" transform="translate(-408.72 -49.36)"/><path class="cls-28" d="M1443.17 1515.91s4.35 4.35 8 5.35 65.26 5.69 93.7 15.06 66.27 15.4 73.29 23.43 18.74 52.21 18.41 60.57 25 149.36 28.15 160.37c1.68 5.83-22.91 3.6-22.91 3.6s-34.93-83.32-42.39-98.71c-13.71-28.28-14.39-62.91-19.41-68.27s-60.91-17.4-93-17.4-104.07 2.68-111.77-1.67-55.89-36.15-35.81-78.65 103.74-3.68 103.74-3.68z" transform="translate(-408.72 -49.36)"/><path class="cls-29" d="M1581.84 1547l-50.68 97.4s-15.35-36.39-42.14-42.66-133.68-2.9-133.68-2.9-49-62.06-7-94.61 91.06 5.13 91.06 5.13 10.14 11 15 11.22 44-.29 127.44 26.42z" transform="translate(-408.72 -49.36)"/><path class="cls-28" d="M1696.17 1824.39s-15.51 3.88-21.46 0-26.17-38.06-32.87-40.1c0 0 6.49-13.17 22.91-3.6 0 0 27.03 38.01 31.42 43.7zm-127.9-.71s-15.84-2.19-19.91-8-10.08-45.07-15.54-49.47c0 0 10.94-9.8 22.6 5.21 0-.01 10.9 45.34 12.85 52.26zm-152.64-519.91s-1 3.11-2 7.71c-.55 2.35-1.14 5.1-1.65 8-1.41 8.08-2.24 17.52-.15 23.81 0 0-17.18 6-30.75-18.33 0 0 5.83-26.16-1.75-42s36.3 20.81 36.3 20.81z" transform="translate(-408.72 -49.36)"/><path class="cls-52" d="M1414 1310.35c-.55 2.35-1.54 6.23-2 9.14-16-10.13-21.34-27.18-21.34-27.18 9.06 8.24 23.34 18.04 23.34 18.04z" transform="translate(-408.72 -49.36)"/><path class="cls-49" d="M1460.17 1404.28c-3.62 16.76-13.13 17.64-12.56 30s4.28 13.44-2.13 33a97.78 97.78 0 00-2.92 11.57l-.27 1.43c-.41 2.25-.77 4.52-1.08 6.76-.57 4.15-1 8.19-1.26 11.88-.76 9.64 6.34 17.07 6.34 17.07s-62.64 37.53-105.65 32.27c0 0 11.14-46.8 17.27-62.87s4.28-90.36-.23-106.3c-6.66-23.53 6.64-58.79 24.82-63.39l28.19 13.06s28.4 33.91 34.77 39 18.38 19.52 14.71 36.52z" transform="translate(-408.72 -49.36)"/><path class="cls-49" d="M1367 1335.61c8-6.63 19.48-18 36.29 4.47s29 36.91 32.66 43.46 35.22 52.15 35.22 52.15 30.93 3.31 42.92 4.61c15.15 1.65 68.79 6.86 68.79 6.86l1.5 22.8s-94.64.49-105.1 3.13-39.72-23.7-51.31-33.9-44.13-47.38-49.78-51-31.97-35.29-11.19-52.58z" transform="translate(-408.72 -49.36)"/><path class="cls-52" d="M1598.53 1683.63c-2.47 5.58-4.78 10.77-6.8 15.3-7.58-24.39-7-65.15-7-65.15a231.46 231.46 0 0013.8 49.85z" transform="translate(-408.72 -49.36)"/><path fill="url(#linear-gradient-9)" d="M863.2 1549.5h217.1v23.89H863.2z"/><path d="M1384.89 1522.65s-5.47 22.13 20.3 27.16 57.46 11.46 57.46 51.21h-89.38z" transform="translate(-408.72 -49.36)" fill="url(#linear-gradient-10)"/><path d="M1271.92 1622.75l-75.9-319s137.22-21.44 153.56 40.18 43.24 244.65 75.94 256-153.6 22.82-153.6 22.82z" transform="translate(-408.72 -49.36)" fill="url(#linear-gradient-11)"/><path class="cls-51" d="M1448.41 1456.61s-1.4 5.86-2.89 10.7l-33.38-43.3z" transform="translate(-408.72 -49.36)"/><path class="cls-49" d="M1003.6 1281.32v-6.9l-29.29-14.26-10.14 11.71 39.43 9.45z"/><path class="cls-56" d="M1516.16 1836.93a11.35 11.35 0 11-11.35-11.34 11.36 11.36 0 0111.35 11.34z" transform="translate(-408.72 -49.36)"/><path class="cls-48" d="M851.85 1776.33l2.88 8.09 121.44-37.63-5.82-16.37-118.5 45.91z"/><path class="cls-48" d="M1096.09 1776.33l-2.88 8.09-121.44-37.63 5.33-17.4 118.99 46.94z"/><path class="cls-48" d="M1010.52 1783.55v9.41l-38.75-46.17 5.33-17.4 33.42 54.16z"/><path class="cls-56" d="M1420.2 1836.93a11.35 11.35 0 11-11.35-11.34 11.36 11.36 0 0111.35 11.34zm-148.28 0a11.35 11.35 0 11-11.35-11.34 11.36 11.36 0 0111.35 11.34z" transform="translate(-408.72 -49.36)"/><path fill="#ffd1a1" d="M1116.77 1252.44l7.08 29.75 4.35 18.28-20.86 8.34-9.45-16.24-15.38-26.43 34.26-13.7z"/><path class="cls-58" d="M1123.85 1282.19l4.35 18.28-20.86 8.34-9.45-16.24 25.96-10.38z"/><path class="cls-58" transform="rotate(-21.79 1174.5 2342.063)" d="M1489.78 1301.53h34.15v6.73h-34.15z"/><path class="cls-58" transform="rotate(-21.79 1175.975 2345.876)" d="M1489.21 1306.07h38.36v5.32h-38.36z"/><path class="cls-28" d="M1493 1334.45s7.55-6.83 13.31-8.75c1.3-.43 2.64-.61 3.54.43s.51 3.67-2.61 6.8-5.72 8.59-5.72 8.59-4.19 2.28-8.52-7.07z" transform="translate(-408.72 -49.36)"/><path class="cls-7" d="M1398 1209.45c-12.93 2.88-5.22 35.34-13.89 80.73s-36 52.48-36 52.48 12.15-20.13 10.82-41.17c-1-16.44-21-61.3-1.26-90.62 15.21-22.66 42-2.09 42-2.09z" transform="translate(-408.72 -49.36)"/><path class="cls-28" d="M1419.46 1212.09c11.64.77 36.63 9.56 37 40.68a96.37 96.37 0 01-4.63 14.42c-2.76 6.27.85 26.09-.78 26.86s-8 1.25-8 1.25-9.17 20.14-16.49 19.12-34.47-10-44.56-37.53-9.52-67.89 37.46-64.8z" transform="translate(-408.72 -49.36)"/><path class="cls-7" d="M1456.5 1252.77s-20.26 10.64-39.2 11.07-34.46 30.79-34.46 30.79-22.94-51.45 3.33-77.55 78.52.44 70.33 35.69z" transform="translate(-408.72 -49.36)"/><path class="cls-28" d="M1412.87 1263.65c.32-3.62-3.07-9.5-9.55-5.25s-.52 22.33 4.52 21.21 4.71-12.22 5.03-15.96z" transform="translate(-408.72 -49.36)"/><path d="M1583.79 1477.59v7.17h341.79v-7.17c0-6.68-4.49-12.1-10-12.1h-321.75c-5.54 0-10.04 5.42-10.04 12.1z" transform="translate(-408.72 -49.36)" fill="#d6985e"/><path class="cls-60" d="M1802.93 1817.87h103.28v9.65a6.87 6.87 0 01-6.87 6.87h-96.42v-16.52h.01z" transform="rotate(180 1650.21 1801.455)"/><path class="cls-60" transform="rotate(180 1688.47 1634.895)" d="M1886 1484.76h13.65v349.63H1886z"/><path class="cls-60" transform="rotate(180 1661.045 1634.895)" d="M1858.58 1484.76h13.65v349.63h-13.65z"/><path class="cls-61" d="M1353 1215.04h8.03v178.06H1353z"/><path d="M1781.41 1465.49h60.11v-3.65h-60.11c-3.13 0-5.38-.74-6.7-2.21a5.87 5.87 0 01-1.33-4.18v-77.89h-3.64v77.58a9.51 9.51 0 002.2 6.87c2.06 2.31 5.23 3.48 9.47 3.48z" transform="translate(-408.72 -49.36)" fill="#918880"/><path class="cls-61" d="M1695.3 1459.11h67.7v2.42a4 4 0 01-4 4h-63.7v-6.42z" transform="rotate(180 1524.765 1437.62)"/><path d="M1728.82 1484.76h196.76v-7.17c0-6.68-4.62-12.1-10.32-12.1h-155.64z" transform="translate(-408.72 -49.36)" fill="#bc8551"/><rect class="cls-64" x="916.99" y="511.18" width="287.14" height="25.77" rx="4.18"/><rect class="cls-64" x="916.99" y="552.85" width="327.17" height="25.77" rx="4.18"/><rect class="cls-29" x="802.97" y="503.41" width="82.98" height="82.98" rx="9.69"/><path class="cls-64" d="M920.62 628.86h208.57a3.62 3.62 0 013.62 3.62V651a3.63 3.63 0 01-3.63 3.63H920.62A3.63 3.63 0 01917 651v-18.52a3.62 3.62 0 013.62-3.62z"/><rect class="cls-64" x="916.99" y="670.52" width="265.45" height="25.77" rx="3.77"/><path class="cls-65" d="M1243.5 600.58a22.06 22.06 0 01.21-3.09 10.85 10.85 0 01.81-2.84 8.73 8.73 0 011.72-2.56 11.3 11.3 0 013-2.18l2.42-1.3a24.58 24.58 0 003-1.86 12.43 12.43 0 002.49-2.42 4.89 4.89 0 001-3.05 4.32 4.32 0 00-1.68-3.62 6.23 6.23 0 00-3.87-1.3 5.69 5.69 0 00-2.49.53 9.39 9.39 0 00-2 1.26 8.12 8.12 0 00-1.51 1.65l-1.13 1.62-7.23-5.06a14 14 0 015.8-6.67 17 17 0 019-2.38 18.93 18.93 0 015.33.77 13.37 13.37 0 014.77 2.46 12.71 12.71 0 013.45 4.35 14.45 14.45 0 011.33 6.46 12.65 12.65 0 01-1.65 6.7 14.89 14.89 0 01-4.88 4.74 28.56 28.56 0 01-3 1.75 30 30 0 00-2.78 1.62 7.88 7.88 0 00-2 1.89 4.15 4.15 0 00-.77 2.53zm.21 17.2v-10.53h9.2v10.53z" transform="translate(-408.72 -49.36)"/><rect class="cls-29" x="802.97" y="620.54" width="82.98" height="82.98" rx="9.69"/><path class="cls-65" d="M1243.5 717.72a22.06 22.06 0 01.21-3.09 10.85 10.85 0 01.81-2.84 8.73 8.73 0 011.72-2.56 11.3 11.3 0 013-2.18l2.42-1.3a25.9 25.9 0 003-1.86 12.43 12.43 0 002.49-2.42 4.89 4.89 0 001-3.05 4.32 4.32 0 00-1.68-3.62 6.17 6.17 0 00-3.87-1.3 5.69 5.69 0 00-2.49.53 9.39 9.39 0 00-2 1.26 8.12 8.12 0 00-1.51 1.65l-1.13 1.62-7.23-5.06a14 14 0 015.8-6.67 17 17 0 019-2.38 18.93 18.93 0 015.33.77 13.52 13.52 0 014.77 2.45 12.85 12.85 0 013.45 4.36 14.45 14.45 0 011.33 6.46 12.65 12.65 0 01-1.65 6.7 14.89 14.89 0 01-4.88 4.74 28.56 28.56 0 01-3 1.75 30 30 0 00-2.78 1.62 7.88 7.88 0 00-2 1.89 4.15 4.15 0 00-.77 2.53zm.21 17.2v-10.53h9.2v10.53z" transform="translate(-408.72 -49.36)"/><path class="cls-66" transform="rotate(180 1746.55 739.49)" d="M1900.06 760.37h101.71v7.59h-101.71z"/><path class="cls-66" transform="rotate(180 1746.55 756.89)" d="M1900.06 771.29h101.71v20.56h-101.71z"/></svg>